<svg id="fccfc00d-8e9b-4db5-b6a5-1d6710fc8cf4" data-name="Layer 1" xmlns="http://www.w3.org/2000/svg" viewBox="0 0 436 45.46"><defs><style>.b16361cb-ac12-4da9-b280-793606953ff0{fill:#ed3e3e;}.aac7b020-ea4e-4cf7-b118-4e58ae79e60c{fill:#f0c57d;}.ac56b418-695c-413c-93b5-c582717fa8a4{fill:#b7d685;}.ef7e3860-afa5-4f58-a26a-8845970b12a5{fill:#3e342f;}</style></defs><rect class="b16361cb-ac12-4da9-b280-793606953ff0" x="215.5" y="-196.14" width="5" height="435" transform="translate(239.36 -196.64) rotate(90)"/><path class="aac7b020-ea4e-4cf7-b118-4e58ae79e60c" d="M380.48,24.6l2.36-.12a1.11,1.11,0,0,1,.63.11c.71.46-.78,1.76-1.07,2.11L380.49,29c-1.87,2.21-3.78,4.41-5.75,6.54-1.75,1.86-3.41,3.78-5.12,5.68a1.14,1.14,0,0,1-.69.48c-.4.08-.76-.26-1-.58a92.83,92.83,0,0,1-6.66-9.05c-1.34-2-2.74-3.93-4.2-5.86-.24-.31-.83-.67-.38-1.13a1.18,1.18,0,0,1,.72-.24,4.65,4.65,0,0,1,2.31.18A4.56,4.56,0,0,1,361,26.57l.16.23c1,1.38,2,2.78,3.09,4.18,1.22,1.66,2.53,3.27,3.84,4.85a1.36,1.36,0,0,0,1,.66,1.41,1.41,0,0,0,1-.61c3.09-3.49,6.17-7,9.17-10.54a2.09,2.09,0,0,1,.74-.65A2.05,2.05,0,0,1,380.48,24.6Zm-73.09-6.82c.61-.35-.2-1-.49-1.36-1.15-1.45-2.39-2.84-3.62-4.22-.65-.73-1.25-1.48-1.91-2.18-.38-.41-.81-1-1.38-1.18-.72-.17-1.45,1-1.85,1.43l-1.76,2.09-3.51,4.18c-.27.31-.56.78-.31,1.12s.49.28.78.31a4.69,4.69,0,0,0,2.33-.28A4.57,4.57,0,0,0,297,16.35l2-2.59a1.66,1.66,0,0,1,1.06-.77,1.61,1.61,0,0,1,1.19.71l2.24,2.49.11.12a3.86,3.86,0,0,0,2,1.55A2.84,2.84,0,0,0,307.39,17.78Zm26.5,7.31A10.8,10.8,0,0,0,331,27.94L324.62,36c-.5.62-1.14,1.31-1.93,1.2a2.38,2.38,0,0,1-1.32-1c-2.43-3.08-4.72-6.27-7-9.45-.44-.61-.93-1.78-1.76-1.9a5.94,5.94,0,0,0-.65-.05c-.45,0-1.94-.11-2.13.45-.14.38.46.93.64,1.23l1,1.6c.65,1.08,1.31,2.15,2,3.2,1.33,2.09,2.71,4.14,4.21,6.12.53.69,1.06,1.39,1.6,2.07l.88,1.1c.2.24.5.82.78,1,.33.41.75,1.22,1.26,1.41s1.15-.25,1.51-.64c1.15-1.23,2.28-2.48,3.41-3.74,1.92-2.18,3.85-4.35,5.69-6.6.93-1.13,1.83-2.27,2.69-3.44.42-.58.85-1.18,1.25-1.78.2-.31,1.15-1.38,1-1.72s-1.48-.52-1.86-.51A4.33,4.33,0,0,0,333.89,25.09Zm19.76-8.7c-1.35-1.6-2.77-3.15-4.26-4.63-.64-.64-1.68-2.25-2.78-1.86a2.76,2.76,0,0,0-1.08.87L340,17.11c-.34.38-.15.61.34.65a4.69,4.69,0,0,0,3.45-.61,12.54,12.54,0,0,0,2.6-3.13c.32-.4.74-.81,1.25-.74a1.54,1.54,0,0,1,.85.6l1.78,2a.77.77,0,0,1,.12.13,4.82,4.82,0,0,0,1.81,1.55,3.77,3.77,0,0,0,1.79.15C354.82,17.53,354,16.78,353.65,16.39Zm41-3.09,2.73,3.88a2.45,2.45,0,0,0,2.74,1.17c.26-.06.55.06.78-.12.4-.31-.12-.76-.32-1.09-.58-.89-1.18-1.78-1.78-2.65C397.6,12.74,396.3,11,395,9.4c-.26-.33-.83-1-1.33-.81-.2.07-.43.45-.59.59l-1.56,1.72c-1.25,1.41-2.49,2.83-3.7,4.27-.48.58-1,1.12-1.53,1.68-.18.21-.58.47-.5.76s.43.36.64.4a2.74,2.74,0,0,0,2-.33,6.23,6.23,0,0,0,1.22-1.13c.69-.79,1.39-1.58,2.09-2.36.43-.51,1.09-1.71,1.86-1.71C394.05,12.48,394.38,12.91,394.66,13.3Zm31.43,12.39c-.33.11-.4.37-.6.61-2.9,3.62-5.64,7.33-8.42,11.07-.29.4-.67.85-1.17.84s-.82-.43-1.12-.81c-1.69-2.32-3.33-4.68-4.9-7.08-.79-1.22-1.58-2.45-2.34-3.68-.51-.82-.76-1.15-1.73-1.3a10.75,10.75,0,0,0-3.05,0,.69.69,0,0,0-.2,0,.32.32,0,0,0-.12.08c-.19.18-.05.5.11.73,1.71,2.44,3.22,5,4.91,7.47s3.44,4.87,5.18,7.29a19.11,19.11,0,0,0,1.61,2.25c.23.33.52.77,1,.77s.77-.43,1-.73.59-.74.88-1.12c3.69-4.73,7.26-9.59,10.77-14.45.3-.41,1.56-1.66.75-2a1.78,1.78,0,0,0-.65-.07l-1.21.05A1.79,1.79,0,0,0,426.09,25.69Zm-211.31-9.3c-1.34-1.6-2.76-3.15-4.25-4.63-.64-.64-1.68-2.25-2.78-1.86a2.76,2.76,0,0,0-1.08.87l-5.58,6.34c-.33.38-.14.61.34.65a4.73,4.73,0,0,0,3.46-.61,12.76,12.76,0,0,0,2.6-3.13c.32-.4.74-.81,1.25-.74a1.54,1.54,0,0,1,.85.6l1.78,2,.12.13a4.79,4.79,0,0,0,1.8,1.55,3.82,3.82,0,0,0,1.8.15C216,17.53,215.11,16.78,214.78,16.39ZM195,25.09a10.8,10.8,0,0,0-2.91,2.85L185.76,36c-.5.62-1.14,1.31-1.93,1.2a2.34,2.34,0,0,1-1.32-1c-2.43-3.08-4.72-6.27-7-9.45-.44-.61-.94-1.78-1.76-1.9a5.94,5.94,0,0,0-.65-.05c-.45,0-1.94-.11-2.14.45-.13.38.46.93.65,1.23.32.54.65,1.07,1,1.6.65,1.08,1.3,2.15,2,3.2,1.34,2.09,2.72,4.14,4.22,6.12.53.69,1,1.39,1.6,2.07l.88,1.1c.2.24.5.82.78,1,.32.41.75,1.22,1.26,1.41s1.15-.25,1.51-.64c1.15-1.23,2.28-2.48,3.41-3.74,1.92-2.18,3.85-4.35,5.69-6.6.93-1.13,1.83-2.27,2.69-3.44.42-.58.85-1.18,1.25-1.78.2-.31,1.15-1.38,1-1.72s-1.48-.52-1.86-.51A4.33,4.33,0,0,0,195,25.09Zm46.59-.49a2.05,2.05,0,0,0-.56.09,2,2,0,0,0-.74.65c-3,3.56-6.08,7.05-9.17,10.54a1.41,1.41,0,0,1-1,.61c-.4,0-.71-.34-1-.66-1.3-1.58-2.61-3.19-3.84-4.85-1-1.4-2.06-2.8-3.09-4.18a1.82,1.82,0,0,0-.15-.23A4.68,4.68,0,0,0,220.83,25a4.68,4.68,0,0,0-2.32-.18,1.17,1.17,0,0,0-.71.24c-.45.47.13.82.38,1.13,1.46,1.93,2.85,3.87,4.2,5.86A92.83,92.83,0,0,0,229,41.1c.27.32.63.66,1,.58a1.14,1.14,0,0,0,.69-.48c1.71-1.9,3.37-3.82,5.11-5.68,2-2.13,3.89-4.33,5.76-6.54l1.91-2.28c.29-.35,1.78-1.65,1.07-2.11a1.11,1.11,0,0,0-.63-.11Zm45.6,1.09c-.32.11-.39.37-.59.61-2.91,3.62-5.64,7.33-8.42,11.07-.29.4-.68.85-1.17.84s-.83-.43-1.12-.81c-1.69-2.32-3.33-4.68-4.9-7.08-.79-1.22-1.58-2.44-2.34-3.68-.51-.82-.76-1.15-1.73-1.3a10.82,10.82,0,0,0-3.06,0,.63.63,0,0,0-.19,0,.25.25,0,0,0-.12.08c-.2.18-.05.5.11.73,1.71,2.44,3.22,5,4.9,7.47s3.44,4.87,5.19,7.29a18.31,18.31,0,0,0,1.61,2.25c.23.33.52.77,1,.77s.77-.43,1-.73.58-.74.87-1.12c3.7-4.73,7.27-9.59,10.77-14.45.31-.41,1.57-1.66.75-2a1.71,1.71,0,0,0-.64-.07l-1.21.05A1.87,1.87,0,0,0,287.22,25.69Zm-25.17-7.46c.4-.31-.12-.76-.33-1.09-.58-.89-1.17-1.78-1.78-2.65-1.21-1.75-2.5-3.45-3.85-5.09-.26-.33-.83-1-1.33-.81-.21.07-.44.45-.59.59-.52.57-1,1.14-1.57,1.72-1.24,1.41-2.48,2.83-3.69,4.27-.49.58-1,1.12-1.53,1.68-.18.21-.58.47-.51.76s.44.36.65.4a2.75,2.75,0,0,0,2-.33,6.23,6.23,0,0,0,1.22-1.13c.69-.79,1.38-1.58,2.09-2.36.43-.51,1.09-1.71,1.86-1.71.47,0,.81.43,1.09.82l2.73,3.88a2.44,2.44,0,0,0,2.73,1.17C261.53,18.29,261.82,18.41,262.05,18.23Zm-93.52-.45c.61-.35-.2-1-.49-1.36-1.15-1.45-2.39-2.84-3.63-4.22-.64-.73-1.24-1.48-1.9-2.18-.39-.41-.81-1-1.38-1.18-.73-.17-1.45,1-1.85,1.43l-1.76,2.09L154,16.54c-.27.31-.56.78-.32,1.12a1,1,0,0,0,.79.31,4.7,4.7,0,0,0,2.33-.28,4.42,4.42,0,0,0,1.35-1.34l2-2.59a1.66,1.66,0,0,1,1.06-.77,1.58,1.58,0,0,1,1.18.71l2.24,2.49.11.12a3.92,3.92,0,0,0,2,1.55A2.85,2.85,0,0,0,168.53,17.78ZM75.92,16.39c-1.34-1.6-2.76-3.15-4.25-4.63C71,11.12,70,9.51,68.88,9.9a2.81,2.81,0,0,0-1.07.87l-5.58,6.34c-.34.38-.14.61.34.65A4.69,4.69,0,0,0,66,17.15,12.58,12.58,0,0,0,68.63,14a1.48,1.48,0,0,1,1.25-.74,1.52,1.52,0,0,1,.84.6c.6.67,1.19,1.35,1.79,2l.12.13a4.71,4.71,0,0,0,1.8,1.55,3.79,3.79,0,0,0,1.79.15C77.1,17.53,76.25,16.78,75.92,16.39ZM29.67,17.78c.61-.35-.21-1-.5-1.36C28,15,26.79,13.58,25.55,12.2c-.64-.73-1.25-1.48-1.9-2.18-.39-.41-.81-1-1.38-1.18-.73-.17-1.45,1-1.85,1.43l-1.76,2.09c-1.18,1.39-2.34,2.78-3.51,4.18-.27.31-.56.78-.32,1.12a1,1,0,0,0,.79.31,4.65,4.65,0,0,0,2.32-.28,4.57,4.57,0,0,0,1.36-1.34l2-2.59c.28-.35.61-.74,1.05-.77a1.58,1.58,0,0,1,1.19.71l2.24,2.49.11.12a3.92,3.92,0,0,0,2,1.55A2.85,2.85,0,0,0,29.67,17.78Zm93.52.45c.4-.31-.12-.76-.33-1.09-.58-.89-1.17-1.78-1.78-2.65-1.21-1.75-2.51-3.45-3.85-5.09-.27-.33-.84-1-1.33-.81-.21.07-.44.45-.6.59l-1.56,1.72q-1.87,2.12-3.69,4.27c-.49.58-1,1.12-1.53,1.68-.18.21-.58.47-.51.76s.44.36.64.4a2.77,2.77,0,0,0,2-.33,6.52,6.52,0,0,0,1.22-1.13c.69-.79,1.38-1.58,2.08-2.36.44-.51,1.09-1.71,1.87-1.71.47,0,.81.43,1.09.82l2.72,3.88a2.46,2.46,0,0,0,2.74,1.17C122.67,18.29,123,18.41,123.19,18.23Zm25.17,7.46c-.32.11-.4.37-.59.61-2.91,3.62-5.65,7.33-8.42,11.07-.29.4-.68.85-1.18.84s-.82-.43-1.11-.81q-2.55-3.48-4.91-7.08c-.78-1.22-1.57-2.44-2.33-3.68-.51-.82-.77-1.15-1.74-1.3a10.74,10.74,0,0,0-3.05,0,.63.63,0,0,0-.19,0,.25.25,0,0,0-.12.08c-.2.18,0,.5.11.73,1.7,2.44,3.22,5,4.9,7.47s3.44,4.87,5.19,7.29a18.31,18.31,0,0,0,1.61,2.25c.23.33.52.77.95.77s.78-.43,1-.73.58-.74.87-1.12c3.7-4.73,7.27-9.59,10.77-14.45.3-.41,1.56-1.66.75-2a1.71,1.71,0,0,0-.64-.07L149,25.6A1.87,1.87,0,0,0,148.36,25.69ZM102.75,24.6a2,2,0,0,0-.55.09,2,2,0,0,0-.74.65c-3,3.56-6.08,7.05-9.17,10.54a1.43,1.43,0,0,1-1,.61c-.4,0-.71-.34-1-.66-1.31-1.58-2.62-3.19-3.84-4.85-1-1.4-2.06-2.8-3.09-4.18l-.16-.23A4.54,4.54,0,0,0,82,25a4.68,4.68,0,0,0-2.32-.18,1.17,1.17,0,0,0-.71.24c-.45.47.13.82.37,1.13,1.47,1.93,2.86,3.87,4.21,5.86a91.21,91.21,0,0,0,6.66,9.05c.27.32.63.66,1,.58a1.14,1.14,0,0,0,.69-.48c1.71-1.9,3.37-3.82,5.11-5.68,2-2.13,3.89-4.33,5.76-6.54l1.91-2.28c.29-.35,1.78-1.65,1.07-2.11a1.14,1.14,0,0,0-.63-.11Zm-46.59.49a10.77,10.77,0,0,0-2.9,2.85L46.9,36c-.5.62-1.14,1.31-1.93,1.2a2.31,2.31,0,0,1-1.32-1c-2.43-3.08-4.72-6.27-7-9.45-.43-.61-.93-1.78-1.75-1.9a6.14,6.14,0,0,0-.66-.05c-.44,0-1.93-.11-2.13.45-.13.38.46.93.64,1.23l1,1.6c.66,1.08,1.31,2.15,2,3.2,1.33,2.09,2.71,4.14,4.22,6.12.53.69,1.05,1.39,1.6,2.07l.88,1.1c.19.24.5.82.78,1,.32.41.75,1.22,1.26,1.41s1.15-.25,1.51-.64q1.73-1.84,3.4-3.74c1.93-2.18,3.86-4.35,5.7-6.6.93-1.13,1.83-2.27,2.69-3.44.42-.58.84-1.18,1.24-1.78.21-.31,1.15-1.38,1-1.72s-1.47-.52-1.85-.51A4.41,4.41,0,0,0,56.16,25.09Z"/><path class="ac56b418-695c-413c-93b5-c582717fa8a4" d="M315.69,24.76a4.89,4.89,0,0,1,2.61.26,5,5,0,0,1,1.91,2.25A28.74,28.74,0,0,0,322,29.84c.32.42.69.88,1.2.88a1.7,1.7,0,0,0,1.17-.75c1.24-1.44,2.5-2.88,3.75-4.32a3.85,3.85,0,0,1,1.33-1.12A3.77,3.77,0,0,1,331,24.4c.38,0,1,.1,1,.59s-.88,1.13-1.15,1.48c-.8,1-1.6,2-2.39,3.05-1.57,2-3.15,4-4.72,6.05a1.07,1.07,0,0,1-.72.51c-.35,0-.6-.31-.81-.59-2.29-3.24-4.64-6.45-6.9-9.71-.16-.23-.32-.52-.18-.75S315.45,24.79,315.69,24.76Zm93.05,1a1.16,1.16,0,0,0,.28.87l6.2,9.12a1.1,1.1,0,0,0,.72.6c.41.06.75-.33,1-.67l3.63-5.16c.61-.87,1.23-1.74,1.84-2.63a7.92,7.92,0,0,0,1.09-1.68c.22-.57-.49-.86-1-.79a2,2,0,0,0-1.15.7,30.24,30.24,0,0,0-1.83,2.54c-.6.77-1.18,1.57-1.77,2.36-.35.46-.75,1.52-1.47,1.39-.35-.06-.59-.39-.8-.68l-2.88-4.26a13,13,0,0,0-1.11-1.53,2.07,2.07,0,0,0-2-.72A.92.92,0,0,0,408.74,25.73Zm-46.72,0c2,2.85,4,5.68,6.05,8.53.26.35.57.75,1,.75a1.45,1.45,0,0,0,.89-.52c1.3-1.31,2.56-2.65,3.77-4.05,1.41-1.6,2.74-3.28,4-5,.16-.2.33-.49.2-.73s-.43-.27-.69-.27l-2.2,0a2.66,2.66,0,0,0-2.79,1.39L369.88,29a1.37,1.37,0,0,1-.68.56c-.52.13-1-.38-1.26-.82l-1.54-2.29c-.2-.31-.41-.62-.62-.93-.34-.49-.61-1-1.22-1.12a4.28,4.28,0,0,0-2.07.16C361.81,24.79,361.54,25.08,362,25.73Zm-70.76-9c.16-.24.36-.44.54-.66,2.16-2.74,4.3-5.48,6.45-8.22.46-.58,1.2-1.59,2-1.06a4.71,4.71,0,0,1,1,1.08c.45.53.89,1.07,1.34,1.62,1.82,2.18,3.64,4.37,5.54,6.48s1.91,2.16,4.8,2a1,1,0,0,0,.36-.12c.16-.27-.05-.41-.18-.56-1.74-1.84-3.27-3.85-4.84-5.81-2.41-3-5-5.88-7.54-8.78a4,4,0,0,0-1.35-1.12c-1.2-.5-2.15,1.43-2.72,2.18-1,1.25-1.91,2.51-2.86,3.76l-5.49,7.23a2.92,2.92,0,0,0-.23.29c-.28.38-2.14,2.47-1.84,2.88a.46.46,0,0,0,.26.15,6.48,6.48,0,0,0,2.84,0A3,3,0,0,0,291.26,16.69Zm47.63-.12c2.27-2.52,4.57-5,6.8-7.57a2.15,2.15,0,0,1,1.09-.8c.69-.13,1.31.44,1.79,1,2.28,2.51,4.57,5,6.84,7.5.53.57,1,1.2,1.85,1.25.3,0,1.33.14,1.33-.38,0-.23-.34-.51-.46-.67-.47-.59-.92-1.2-1.38-1.79-.92-1.2-1.87-2.37-2.81-3.54Q351.06,8.05,348,4.7a2.67,2.67,0,0,0-1.27-.94c-.87-.23-1.48.77-1.94,1.34-.7.89-1.41,1.77-2.12,2.65l-2.11,2.63c-1.61,2-3.23,4-4.85,5.95-.31.36-1.35,1.32-.55,1.59a4.22,4.22,0,0,0,2.23,0A4.26,4.26,0,0,0,338.89,16.57Zm44.9.55a32.92,32.92,0,0,0,2.66-2.75l6.18-7a1.87,1.87,0,0,1,1.29-.82c.59,0,1,.52,1.37,1l6.15,8.4a12.66,12.66,0,0,0,1.64,2,3.07,3.07,0,0,0,2.12.47c.24,0,.81-.1.87-.4s-.36-.72-.49-.94c-.47-.73-1-1.44-1.5-2.14-.94-1.29-1.91-2.54-2.86-3.8a.69.69,0,0,1-.11-.13l-5.65-7.53-.11-.16c-.44-.6-1-1.25-1.75-1.25a2.42,2.42,0,0,0-1.66,1l-7.79,8.49c-1,1-1.9,2.11-2.85,3.16-.47.53-.94,1.06-1.42,1.58l-.07.08c-.25.28-1.19,1-.82,1.49a.64.64,0,0,0,.56.18c.77,0,1.55,0,2.31,0a2.1,2.1,0,0,0,.83-.08C383.13,17.88,383.45,17.41,383.79,17.12Zm-138.87,0a31.51,31.51,0,0,0,2.67-2.75l6.18-7a1.87,1.87,0,0,1,1.29-.82c.58,0,1,.52,1.37,1l6.14,8.4a13.3,13.3,0,0,0,1.65,2,3.07,3.07,0,0,0,2.12.47c.24,0,.81-.1.87-.4s-.36-.72-.49-.94c-.48-.73-1-1.44-1.51-2.14-.93-1.29-1.9-2.54-2.86-3.8a1.47,1.47,0,0,1-.1-.13L256.6,3.47l-.11-.16c-.45-.6-1-1.25-1.75-1.25a2.4,2.4,0,0,0-1.66,1l-7.79,8.49c-1,1-1.91,2.11-2.85,3.16L241,16.31a.29.29,0,0,0-.07.08c-.25.28-1.19,1-.82,1.49a.63.63,0,0,0,.55.18c.78,0,1.55,0,2.32,0a2.1,2.1,0,0,0,.83-.08C244.27,17.88,244.58,17.41,244.92,17.12Zm25,8.61a1.12,1.12,0,0,0,.28.87l6.2,9.12a1.11,1.11,0,0,0,.71.6c.42.06.75-.33,1-.67l3.63-5.16,1.84-2.63a8.79,8.79,0,0,0,1.09-1.68c.22-.57-.49-.86-1-.79a2,2,0,0,0-1.15.7c-.71.76-1.2,1.72-1.83,2.54s-1.17,1.57-1.76,2.36c-.36.46-.75,1.52-1.47,1.39-.35-.06-.59-.39-.8-.68-1-1.41-1.93-2.84-2.88-4.26a12,12,0,0,0-1.12-1.53,2.05,2.05,0,0,0-2-.72A.9.9,0,0,0,269.88,25.73ZM200,16.57c2.26-2.52,4.57-5,6.79-7.57a2.22,2.22,0,0,1,1.1-.8c.69-.13,1.3.44,1.79,1l6.84,7.5a2.89,2.89,0,0,0,1.84,1.25c.31,0,1.34.14,1.34-.38,0-.23-.34-.51-.46-.67-.48-.59-.92-1.2-1.39-1.79-.92-1.2-1.86-2.37-2.81-3.54q-2.87-3.48-5.92-6.83a2.67,2.67,0,0,0-1.27-.94c-.87-.23-1.48.77-1.94,1.34-.7.89-1.42,1.77-2.12,2.65l-2.11,2.63c-1.61,2-3.23,4-4.85,5.95-.31.36-1.35,1.32-.55,1.59a4.22,4.22,0,0,0,2.23,0A4.35,4.35,0,0,0,200,16.57ZM161.89,2.67a3.9,3.9,0,0,0-1.34-1.12c-1.2-.5-2.16,1.43-2.73,2.18L155,7.49l-5.49,7.23a2.92,2.92,0,0,0-.23.29c-.28.38-2.15,2.47-1.84,2.88a.46.46,0,0,0,.26.15,6.48,6.48,0,0,0,2.84,0,3,3,0,0,0,1.89-1.38,6.76,6.76,0,0,1,.54-.66c2.16-2.74,4.3-5.48,6.45-8.22.46-.58,1.2-1.59,2-1.06a4.71,4.71,0,0,1,1,1.08l1.34,1.62c1.82,2.18,3.63,4.37,5.54,6.48s1.91,2.16,4.79,2a1,1,0,0,0,.37-.12c.15-.27-.05-.41-.19-.56-1.73-1.84-3.27-3.85-4.83-5.81C167,8.43,164.44,5.57,161.89,2.67Zm61.26,23.06,6.06,8.53c.26.35.57.75,1,.75a1.4,1.4,0,0,0,.88-.52c1.31-1.31,2.57-2.65,3.78-4.05,1.41-1.6,2.74-3.28,4-5,.15-.2.32-.49.2-.73s-.43-.27-.69-.27c-.74,0-1.46,0-2.2,0a3.73,3.73,0,0,0-1.59.23,3.69,3.69,0,0,0-1.2,1.16c-.81,1.05-1.62,2.12-2.43,3.18a1.42,1.42,0,0,1-.68.56c-.52.13-1-.38-1.26-.82l-1.54-2.29c-.21-.31-.41-.62-.62-.92-.34-.5-.62-1-1.22-1.13a4.27,4.27,0,0,0-2.07.16C223,24.79,222.68,25.08,223.15,25.73ZM176.21,25c-.13.23,0,.52.18.75,2.27,3.26,4.62,6.47,6.91,9.71.21.28.46.61.81.59a1.11,1.11,0,0,0,.72-.51c1.57-2,3.15-4,4.72-6.05l2.39-3.05c.26-.35,1.07-1,1.15-1.48s-.6-.58-1-.59a3.77,3.77,0,0,0-1.53.13,3.85,3.85,0,0,0-1.33,1.12L185.5,30a1.66,1.66,0,0,1-1.16.75c-.51,0-.88-.46-1.2-.88a26.81,26.81,0,0,1-1.79-2.57A5,5,0,0,0,179.44,25a4.89,4.89,0,0,0-2.61-.26C176.59,24.79,176.32,24.82,176.21,25Zm-91.92.7c2,2.85,4,5.68,6.06,8.53.25.35.57.75,1,.75a1.4,1.4,0,0,0,.88-.52c1.31-1.31,2.57-2.65,3.78-4.05,1.41-1.6,2.74-3.28,4-5,.16-.2.33-.49.21-.73s-.44-.27-.69-.27c-.74,0-1.47,0-2.2,0a3.71,3.71,0,0,0-1.59.23,3.69,3.69,0,0,0-1.2,1.16L92.15,29a1.35,1.35,0,0,1-.67.56c-.53.13-1-.38-1.26-.82l-1.54-2.29c-.21-.31-.41-.62-.62-.92-.34-.5-.62-1-1.22-1.13a4.32,4.32,0,0,0-2.08.16C84.09,24.79,83.82,25.08,84.29,25.73ZM37.35,25c-.13.23,0,.52.18.75,2.27,3.26,4.62,6.47,6.91,9.71.2.28.46.61.81.59a1.07,1.07,0,0,0,.71-.51c1.58-2,3.15-4,4.73-6.05l2.38-3.05c.27-.35,1.08-1,1.16-1.48s-.6-.58-1-.59a3.75,3.75,0,0,0-1.53.13,3.76,3.76,0,0,0-1.33,1.12L46.64,30a1.68,1.68,0,0,1-1.16.75c-.51,0-.89-.46-1.2-.88a26.81,26.81,0,0,1-1.79-2.57A5,5,0,0,0,40.57,25a4.85,4.85,0,0,0-2.6-.26C37.73,24.79,37.46,24.82,37.35,25Zm93.67.7a1.11,1.11,0,0,0,.27.87c2.08,3,4.13,6.08,6.21,9.12a1.08,1.08,0,0,0,.71.6c.41.06.75-.33,1-.67l3.64-5.16c.6-.87,1.22-1.74,1.84-2.63a8.79,8.79,0,0,0,1.09-1.68c.22-.57-.5-.86-1-.79a2,2,0,0,0-1.15.7c-.71.76-1.2,1.72-1.83,2.54S140.6,30.2,140,31c-.35.46-.75,1.52-1.46,1.39a1.4,1.4,0,0,1-.8-.68c-1-1.41-1.93-2.84-2.88-4.26a13.05,13.05,0,0,0-1.12-1.53,2.06,2.06,0,0,0-2-.72A.89.89,0,0,0,131,25.73Zm-25-8.61a31.51,31.51,0,0,0,2.67-2.75l6.17-7a1.91,1.91,0,0,1,1.3-.82c.58,0,1,.52,1.37,1l6.14,8.4a13.3,13.3,0,0,0,1.65,2,3.06,3.06,0,0,0,2.12.47c.24,0,.81-.1.87-.4s-.36-.72-.5-.94c-.47-.73-1-1.44-1.5-2.14-.93-1.29-1.9-2.54-2.86-3.8l-.11-.13c-1.87-2.51-3.76-5-5.64-7.53l-.11-.16c-.45-.6-1-1.25-1.76-1.25a2.42,2.42,0,0,0-1.66,1l-7.79,8.49c-1,1-1.9,2.11-2.84,3.16l-1.42,1.58a.29.29,0,0,0-.07.08c-.26.28-1.19,1-.83,1.49a.65.65,0,0,0,.56.18c.78,0,1.55,0,2.31,0A2.17,2.17,0,0,0,105,18C105.41,17.88,105.72,17.41,106.06,17.12Zm-92.53-.43c.16-.24.37-.44.55-.66q3.24-4.11,6.44-8.22c.46-.58,1.2-1.59,2-1.06a4.46,4.46,0,0,1,1,1.08L24.9,9.45c1.81,2.18,3.63,4.37,5.53,6.48s1.92,2.16,4.8,2a1,1,0,0,0,.36-.12c.16-.27,0-.41-.18-.56-1.73-1.84-3.27-3.85-4.83-5.81-2.41-3-5-5.88-7.55-8.78a3.9,3.9,0,0,0-1.34-1.12C20.49,1.05,19.53,3,19,3.73,18,5,17.06,6.24,16.1,7.49l-5.48,7.23a2.92,2.92,0,0,0-.23.29c-.28.38-2.15,2.47-1.85,2.88a.46.46,0,0,0,.27.15,6.48,6.48,0,0,0,2.84,0A3,3,0,0,0,13.53,16.69Zm47.64-.12c2.26-2.52,4.56-5,6.79-7.57a2.2,2.2,0,0,1,1.09-.8c.69-.13,1.31.44,1.8,1,2.27,2.51,4.56,5,6.84,7.5a2.89,2.89,0,0,0,1.84,1.25c.3,0,1.33.14,1.33-.38,0-.23-.34-.51-.46-.67-.47-.59-.92-1.2-1.38-1.79-.92-1.2-1.86-2.37-2.81-3.54Q73.35,8.05,70.29,4.7A2.67,2.67,0,0,0,69,3.76c-.88-.23-1.48.77-1.94,1.34C66.38,6,65.66,6.87,65,7.75l-2.11,2.63c-1.61,2-3.23,4-4.86,5.95-.3.36-1.34,1.32-.54,1.59a4.22,4.22,0,0,0,2.23,0A4.44,4.44,0,0,0,61.17,16.57Z"/><path class="ef7e3860-afa5-4f58-a26a-8845970b12a5" d="M172.46,13.22q-5.21-6-10.41-11.93c-.62-.72-1.46-1.49-2.36-1.24a2.48,2.48,0,0,0-1.15.93q-4,4.89-7.67,10a53.7,53.7,0,0,1-3.52,4.6c-.95,1.05-1.56,2.46-3,2.84-3.89,0-7.77.06-11.65.14A3.31,3.31,0,0,1,129.63,17C126,11.93,122.22,7,118.51,2A5.51,5.51,0,0,0,117.45.81a2.68,2.68,0,0,0-3.59.49c-1.49,1.4-2.8,3.1-4.18,4.61l-8.34,9.25a10.91,10.91,0,0,1-2.84,2.67c-1.16.52-3.17.14-4.47.1-3.17-.07-6.36-.18-9.53,0a3.17,3.17,0,0,1-2.85-1.65c-1.05-1.42-2.24-2.74-3.35-4.1C76.05,9.45,73.83,6.72,71.58,4a6.92,6.92,0,0,0-1.45-1.46,2.37,2.37,0,0,0-2-.36,3.44,3.44,0,0,0-1.49,1.27l-9.46,11.9c-.59.73-1.23,2-2.08,2.42a6.05,6.05,0,0,1-2.65.23c-2.57,0-5.14-.08-7.7-.05s-4.74.59-7.09-.88a19.14,19.14,0,0,1-4.09-3.85q-5.21-6-10.41-11.93C22.57.57,21.72-.2,20.83.05A2.43,2.43,0,0,0,19.68,1q-4,4.89-7.67,10a51.83,51.83,0,0,1-3.53,4.6c-1,1.15-1.66,2.75-3.41,2.93-.61.07-1.24,0-1.86,0-.42,0-3.85.1-2.88,1.14.22.23.85.25,1.38.23l.68,0h.94c12.55-.14,25.15-.57,37.7-.4,2.8,0,5.64.12,8.47.09,3.14,0,6.28,0,9.41,0,6.22,0,12.43.07,18.65.08,12.57.05,25.15.23,37.72.32,6.29,0,12.57.06,18.86,0,3.15,0,6.3,0,9.44-.08,2.52,0,5,0,7.55,0,9.59,0,19.17-.51,28.77-.38,2.79,0,5.63.12,8.46.09,3.14,0,6.28,0,9.42,0,6.21,0,12.42.07,18.64.08,12.57.05,25.15.23,37.72.32,6.29,0,12.58.06,18.86,0,3.15,0,6.31,0,9.44-.08,4.31-.06,8.53,0,12.84-.11,7.81-.26,15.64-.41,23.48-.3,2.8,0,5.63.12,8.47.09,3.13,0,6.27,0,9.41,0,6.21,0,12.43.07,18.64.08,12.58.05,25.15.23,37.72.32,6.29,0,12.58.06,18.87,0,3.14,0,6.28,0,9.43-.08,4.31-.06,8.53,0,12.84-.11.48,0,1.06-.12,1.18-.57.24-1-1.67-.64-2.21-.66l-3.35,0c-2.47,0-4.95-.08-7.4-.05q-6,0-11.91.14A3.3,3.3,0,0,1,407.36,17C403.74,11.93,400,7,396.24,2A5.56,5.56,0,0,0,395.17.81a2.66,2.66,0,0,0-3.58.49c-1.49,1.4-2.8,3.1-4.18,4.61-2.79,3.09-5.56,6.17-8.35,9.25a10.88,10.88,0,0,1-2.83,2.67c-1.17.52-3.18.14-4.47.1-3.18-.07-6.36-.18-9.54,0a3.16,3.16,0,0,1-2.84-1.65c-1.06-1.42-2.25-2.74-3.36-4.1-2.24-2.71-4.47-5.44-6.71-8.16a7.43,7.43,0,0,0-1.45-1.46,2.39,2.39,0,0,0-2-.36,3.44,3.44,0,0,0-1.49,1.27l-9.46,11.9c-.58.73-1.22,2-2.07,2.42a6.08,6.08,0,0,1-2.65.23c-2.57,0-5.14-.08-7.71-.05s-4.74.59-7.09-.88a19.62,19.62,0,0,1-4.09-3.85q-5.19-6-10.41-11.93C300.3.57,299.45-.2,298.55.05A2.53,2.53,0,0,0,297.4,1q-4,4.89-7.67,10a53.7,53.7,0,0,1-3.52,4.6c-.95,1.05-1.56,2.46-3,2.84-3.88,0-7.77.06-11.64.14A3.29,3.29,0,0,1,268.5,17c-3.63-5.07-7.42-10-11.12-15A5.85,5.85,0,0,0,256.31.81a2.68,2.68,0,0,0-3.59.49c-1.49,1.4-2.79,3.1-4.17,4.61l-8.35,9.25a10.91,10.91,0,0,1-2.84,2.67c-1.16.52-3.17.14-4.47.1-3.17-.07-6.36-.18-9.53,0a3.17,3.17,0,0,1-2.85-1.65c-1-1.42-2.24-2.74-3.35-4.1-2.24-2.71-4.47-5.44-6.71-8.16A7.21,7.21,0,0,0,209,2.54a2.37,2.37,0,0,0-2-.36,3.44,3.44,0,0,0-1.49,1.27l-9.46,11.9c-.58.73-1.23,2-2.07,2.42a6.11,6.11,0,0,1-2.66.23c-2.56,0-5.13-.08-7.7-.05s-4.74.59-7.09-.88A19.37,19.37,0,0,1,172.46,13.22Zm-115,4.7c-.8-.27.24-1.23.54-1.59,1.63-2,3.25-4,4.86-5.95L65,7.75c.7-.88,1.42-1.76,2.12-2.65.46-.57,1.06-1.57,1.94-1.34a2.67,2.67,0,0,1,1.27.94q3,3.35,5.92,6.83c1,1.17,1.89,2.34,2.81,3.54.46.59.91,1.2,1.38,1.79.12.16.46.44.46.67,0,.52-1,.4-1.33.38a2.89,2.89,0,0,1-1.84-1.25c-2.28-2.5-4.57-5-6.84-7.5-.49-.52-1.11-1.09-1.8-1A2.2,2.2,0,0,0,68,9c-2.23,2.57-4.53,5.05-6.79,7.57a4.44,4.44,0,0,1-1.49,1.31A4.22,4.22,0,0,1,57.45,17.92Zm17-.33A4.71,4.71,0,0,1,72.63,16l-.12-.13c-.6-.68-1.19-1.36-1.79-2a1.52,1.52,0,0,0-.84-.6,1.48,1.48,0,0,0-1.25.74A12.58,12.58,0,0,1,66,17.15a4.69,4.69,0,0,1-3.45.61c-.48,0-.68-.27-.34-.65l5.58-6.34a2.81,2.81,0,0,1,1.07-.87C70,9.51,71,11.12,71.67,11.76c1.49,1.48,2.91,3,4.25,4.63.33.39,1.18,1.14.3,1.35A3.79,3.79,0,0,1,74.43,17.59Zm-6.27.15a.67.67,0,0,1-.52-.14.24.24,0,0,1-.06-.09.53.53,0,0,1,.14-.46l1.35-1.91c.19-.28.46-.59.79-.55a1,1,0,0,1,.63.47c.44.6.8,1.22,1.29,1.82a.78.78,0,0,1,.23.46C72,18,68.69,17.72,68.16,17.74Zm36,.35c-.76,0-1.53,0-2.31,0a.65.65,0,0,1-.56-.18c-.36-.47.57-1.21.83-1.49a.29.29,0,0,1,.07-.08l1.42-1.58c.94-1.05,1.89-2.12,2.84-3.16l7.79-8.49a2.42,2.42,0,0,1,1.66-1c.74,0,1.31.65,1.76,1.25l.11.16c1.88,2.5,3.77,5,5.64,7.53l.11.13c1,1.26,1.93,2.51,2.86,3.8.51.7,1,1.41,1.5,2.14.14.22.56.71.5.94s-.63.39-.87.4a3.06,3.06,0,0,1-2.12-.47,13.3,13.3,0,0,1-1.65-2l-6.14-8.4c-.34-.49-.79-1-1.37-1a1.91,1.91,0,0,0-1.3.82l-6.17,7a31.51,31.51,0,0,1-2.67,2.75c-.34.29-.65.76-1.09.89A2.17,2.17,0,0,1,104.13,18.09ZM8.81,18a.46.46,0,0,1-.27-.15c-.3-.41,1.57-2.5,1.85-2.88a2.92,2.92,0,0,1,.23-.29L16.1,7.49C17.06,6.24,18,5,19,3.73c.57-.75,1.53-2.68,2.73-2.18A3.9,3.9,0,0,1,23,2.67c2.55,2.9,5.14,5.76,7.55,8.78,1.56,2,3.1,4,4.83,5.81.14.15.34.29.18.56a1,1,0,0,1-.36.12c-2.88.15-2.87.13-4.8-2s-3.72-4.3-5.53-6.48L23.55,7.83a4.46,4.46,0,0,0-1-1.08c-.84-.53-1.58.48-2,1.06Q17.31,11.92,14.08,16c-.18.22-.39.42-.55.66a3,3,0,0,1-1.88,1.38A6.48,6.48,0,0,1,8.81,18Zm11.9-.2a1.19,1.19,0,0,1-.61-.08.24.24,0,0,1-.14-.17c-.09-.23.19-.48.32-.67.41-.59.86-1.17,1.29-1.76.19-.27.44-.56.77-.56a1.14,1.14,0,0,1,.72.47l1.1,1.26c.24.27,1,.84.94,1.24-.07.57-2.12.3-2.56.3C21.94,17.87,21.31,17.81,20.71,17.84Zm7.18,0a3.92,3.92,0,0,1-2-1.55l-.11-.12L23.54,13.7A1.58,1.58,0,0,0,22.35,13c-.44,0-.77.42-1.05.77l-2,2.59a4.57,4.57,0,0,1-1.36,1.34,4.65,4.65,0,0,1-2.32.28,1,1,0,0,1-.79-.31c-.24-.34.05-.81.32-1.12,1.17-1.4,2.33-2.79,3.51-4.18l1.76-2.09c.4-.47,1.12-1.6,1.85-1.43.57.15,1,.77,1.38,1.18.65.7,1.26,1.45,1.9,2.18C26.79,13.58,28,15,29.17,16.42c.29.36,1.11,1,.5,1.36A2.85,2.85,0,0,1,27.89,17.86Zm85.48.31a1.76,1.76,0,0,1-.33,0,.63.63,0,0,1-.22-.08c-.35-.22-.16-.58.05-.81.81-.91,1.62-1.8,2.45-2.7.15-.18.36-.38.6-.33a.72.72,0,0,1,.4.37c.41.65.85,1.3,1.25,2,.23.39.9,1.14.44,1.57a1,1,0,0,1-.63.14Zm6.29-1-2.72-3.88c-.28-.39-.62-.82-1.09-.82-.78,0-1.43,1.2-1.87,1.71-.7.78-1.39,1.57-2.08,2.36a6.52,6.52,0,0,1-1.22,1.13,2.77,2.77,0,0,1-2,.33c-.2,0-.57-.15-.64-.4s.33-.55.51-.76c.52-.56,1-1.1,1.53-1.68q1.82-2.16,3.69-4.27l1.56-1.72c.16-.14.39-.52.6-.59.49-.19,1.06.48,1.33.81,1.34,1.64,2.64,3.34,3.85,5.09.61.87,1.2,1.76,1.78,2.65.21.33.73.78.33,1.09-.23.18-.52.06-.79.12A2.46,2.46,0,0,1,119.66,17.18Zm215.51.74c-.8-.27.24-1.23.55-1.59,1.62-2,3.24-4,4.85-5.95l2.11-2.63c.71-.88,1.42-1.76,2.12-2.65.46-.57,1.07-1.57,1.94-1.34A2.67,2.67,0,0,1,348,4.7q3.06,3.35,5.93,6.83c.94,1.17,1.89,2.34,2.81,3.54.46.59.91,1.2,1.38,1.79.12.16.46.44.46.67,0,.52-1,.4-1.33.38-.82-.05-1.32-.68-1.85-1.25-2.27-2.5-4.56-5-6.84-7.5-.48-.52-1.1-1.09-1.79-1a2.15,2.15,0,0,0-1.09.8c-2.23,2.57-4.53,5.05-6.8,7.57a4.26,4.26,0,0,1-1.49,1.31A4.22,4.22,0,0,1,335.17,17.92Zm17-.33A4.82,4.82,0,0,1,350.35,16a.77.77,0,0,0-.12-.13l-1.78-2a1.54,1.54,0,0,0-.85-.6c-.51-.07-.93.34-1.25.74a12.54,12.54,0,0,1-2.6,3.13,4.69,4.69,0,0,1-3.45.61c-.49,0-.68-.27-.34-.65l5.57-6.34a2.76,2.76,0,0,1,1.08-.87c1.1-.39,2.14,1.22,2.78,1.86,1.49,1.48,2.91,3,4.26,4.63.32.39,1.17,1.14.3,1.35A3.77,3.77,0,0,1,352.16,17.59Zm-6.28.15a.7.7,0,0,1-.52-.14.47.47,0,0,1-.06-.09.57.57,0,0,1,.14-.46l1.35-1.91c.19-.28.46-.59.8-.55a1,1,0,0,1,.63.47c.43.6.8,1.22,1.28,1.82a.78.78,0,0,1,.23.46C349.72,18,346.41,17.72,345.88,17.74Zm-149.57.18c-.8-.27.24-1.23.55-1.59,1.62-2,3.24-4,4.85-5.95l2.11-2.63c.7-.88,1.42-1.76,2.12-2.65.46-.57,1.07-1.57,1.94-1.34a2.67,2.67,0,0,1,1.27.94q3.06,3.35,5.92,6.83c1,1.17,1.89,2.34,2.81,3.54.47.59.91,1.2,1.39,1.79.12.16.46.44.46.67,0,.52-1,.4-1.34.38a2.89,2.89,0,0,1-1.84-1.25l-6.84-7.5c-.49-.52-1.1-1.09-1.79-1a2.22,2.22,0,0,0-1.1.8c-2.22,2.57-4.53,5.05-6.79,7.57a4.35,4.35,0,0,1-1.49,1.31A4.22,4.22,0,0,1,196.31,17.92Zm17-.33a4.79,4.79,0,0,1-1.8-1.55l-.12-.13-1.78-2a1.54,1.54,0,0,0-.85-.6c-.51-.07-.93.34-1.25.74a12.76,12.76,0,0,1-2.6,3.13,4.73,4.73,0,0,1-3.46.61c-.48,0-.67-.27-.34-.65l5.58-6.34a2.76,2.76,0,0,1,1.08-.87c1.1-.39,2.14,1.22,2.78,1.86,1.49,1.48,2.91,3,4.25,4.63.33.39,1.18,1.14.31,1.35A3.82,3.82,0,0,1,213.29,17.59Zm-6.27.15a.7.7,0,0,1-.52-.14.24.24,0,0,1-.06-.09.57.57,0,0,1,.14-.46l1.35-1.91c.19-.28.46-.59.8-.55a1,1,0,0,1,.63.47c.43.6.8,1.22,1.28,1.82a.78.78,0,0,1,.23.46C210.86,18,207.55,17.72,207,17.74Zm184.69-3.55c-.7.78-1.4,1.57-2.09,2.36a6.23,6.23,0,0,1-1.22,1.13,2.74,2.74,0,0,1-2,.33c-.21,0-.57-.15-.64-.4s.32-.55.5-.76c.53-.56,1.05-1.1,1.53-1.68,1.21-1.44,2.45-2.86,3.7-4.27L393,9.18c.16-.14.39-.52.59-.59.5-.19,1.07.48,1.33.81,1.35,1.64,2.65,3.34,3.86,5.09.6.87,1.2,1.76,1.78,2.65.2.33.72.78.32,1.09-.23.18-.52.06-.78.12a2.45,2.45,0,0,1-2.74-1.17l-2.73-3.88c-.28-.39-.61-.82-1.09-.82C392.8,12.48,392.14,13.68,391.71,14.19Zm-9.85,3.9c-.76,0-1.54,0-2.31,0a.64.64,0,0,1-.56-.18c-.37-.47.57-1.21.82-1.49l.07-.08c.48-.52.95-1,1.42-1.58.95-1.05,1.89-2.12,2.85-3.16l7.79-8.49a2.42,2.42,0,0,1,1.66-1c.74,0,1.31.65,1.75,1.25l.11.16L401.11,11a.69.69,0,0,0,.11.13c.95,1.26,1.92,2.51,2.86,3.8.5.7,1,1.41,1.5,2.14.13.22.56.71.49.94s-.63.39-.87.4a3.07,3.07,0,0,1-2.12-.47,12.66,12.66,0,0,1-1.64-2l-6.15-8.4c-.34-.49-.78-1-1.37-1a1.87,1.87,0,0,0-1.29.82l-6.18,7a32.92,32.92,0,0,1-2.66,2.75c-.34.29-.66.76-1.1.89A2.1,2.1,0,0,1,381.86,18.09ZM286.53,18a.46.46,0,0,1-.26-.15c-.3-.41,1.56-2.5,1.84-2.88a2.92,2.92,0,0,1,.23-.29l5.49-7.23c.95-1.25,1.9-2.51,2.86-3.76.57-.75,1.52-2.68,2.72-2.18a4,4,0,0,1,1.35,1.12c2.54,2.9,5.13,5.76,7.54,8.78,1.57,2,3.1,4,4.84,5.81.13.15.34.29.18.56a1,1,0,0,1-.36.12c-2.89.15-2.88.13-4.8-2s-3.72-4.3-5.54-6.48c-.45-.55-.89-1.09-1.34-1.62a4.71,4.71,0,0,0-1-1.08c-.83-.53-1.57.48-2,1.06C296.1,10.55,294,13.29,291.8,16c-.18.22-.38.42-.54.66a3,3,0,0,1-1.89,1.38A6.48,6.48,0,0,1,286.53,18Zm11.9-.2a1.19,1.19,0,0,1-.61-.08.24.24,0,0,1-.14-.17c-.09-.23.19-.48.33-.67.41-.59.86-1.17,1.28-1.76a1.08,1.08,0,0,1,.78-.56,1.09,1.09,0,0,1,.71.47l1.1,1.26c.25.27,1,.84.95,1.24-.07.57-2.12.3-2.57.3S299,17.81,298.43,17.84Zm7.18,0a3.86,3.86,0,0,1-2-1.55l-.11-.12-2.24-2.49a1.61,1.61,0,0,0-1.19-.71,1.66,1.66,0,0,0-1.06.77l-2,2.59a4.57,4.57,0,0,1-1.36,1.34,4.69,4.69,0,0,1-2.33.28c-.29,0-.62-.06-.78-.31s0-.81.31-1.12l3.51-4.18,1.76-2.09c.4-.47,1.13-1.6,1.85-1.43.57.15,1,.77,1.38,1.18.66.7,1.26,1.45,1.91,2.18,1.23,1.38,2.47,2.77,3.62,4.22.29.36,1.1,1,.49,1.36A2.84,2.84,0,0,1,305.61,17.86Zm85.48.31a1.76,1.76,0,0,1-.33,0,.83.83,0,0,1-.22-.08c-.35-.22-.15-.58,0-.81.81-.91,1.63-1.8,2.45-2.7.16-.18.36-.38.61-.33a.72.72,0,0,1,.4.37c.41.65.84,1.3,1.24,2,.23.39.9,1.14.44,1.57a1,1,0,0,1-.63.14Zm-132.56-1L255.8,13.3c-.28-.39-.62-.82-1.09-.82-.77,0-1.43,1.2-1.86,1.71-.71.78-1.4,1.57-2.09,2.36a6.23,6.23,0,0,1-1.22,1.13,2.75,2.75,0,0,1-2,.33c-.21,0-.57-.15-.65-.4s.33-.55.51-.76c.52-.56,1-1.1,1.53-1.68,1.21-1.44,2.45-2.86,3.69-4.27.52-.58,1.05-1.15,1.57-1.72.15-.14.38-.52.59-.59.5-.19,1.07.48,1.33.81,1.35,1.64,2.64,3.34,3.85,5.09.61.87,1.2,1.76,1.78,2.65.21.33.73.78.33,1.09-.23.18-.52.06-.79.12A2.44,2.44,0,0,1,258.53,17.18ZM243,18.09c-.77,0-1.54,0-2.32,0a.63.63,0,0,1-.55-.18c-.37-.47.57-1.21.82-1.49a.29.29,0,0,1,.07-.08l1.42-1.58c.94-1.05,1.89-2.12,2.85-3.16l7.79-8.49a2.4,2.4,0,0,1,1.66-1c.73,0,1.3.65,1.75,1.25l.11.16L262.25,11a1.47,1.47,0,0,0,.1.13c1,1.26,1.93,2.51,2.86,3.8.51.7,1,1.41,1.51,2.14.13.22.55.71.49.94s-.63.39-.87.4a3.07,3.07,0,0,1-2.12-.47,13.3,13.3,0,0,1-1.65-2l-6.14-8.4c-.34-.49-.79-1-1.37-1a1.87,1.87,0,0,0-1.29.82l-6.18,7a31.51,31.51,0,0,1-2.67,2.75c-.34.29-.65.76-1.09.89A2.1,2.1,0,0,1,243,18.09Zm8.68,0c-.35-.22-.15-.58,0-.81.81-.91,1.62-1.8,2.45-2.7.16-.18.36-.38.6-.33a.66.66,0,0,1,.4.37c.42.65.85,1.3,1.25,2,.23.39.9,1.14.44,1.57a1,1,0,0,1-.63.14l-4-.11a1.76,1.76,0,0,1-.33,0A.72.72,0,0,1,251.68,18.06Zm-77.22-.24a1,1,0,0,1-.37.12c-2.88.15-2.87.13-4.79-2s-3.72-4.3-5.54-6.48l-1.34-1.62a4.71,4.71,0,0,0-1-1.08c-.83-.53-1.57.48-2,1.06-2.15,2.74-4.29,5.48-6.45,8.22a6.76,6.76,0,0,0-.54.66,3,3,0,0,1-1.89,1.38,6.48,6.48,0,0,1-2.84,0,.46.46,0,0,1-.26-.15c-.31-.41,1.56-2.5,1.84-2.88a2.92,2.92,0,0,1,.23-.29L155,7.49l2.85-3.76c.57-.75,1.53-2.68,2.73-2.18a3.9,3.9,0,0,1,1.34,1.12c2.55,2.9,5.14,5.76,7.55,8.78,1.56,2,3.1,4,4.83,5.81C174.41,17.41,174.61,17.55,174.46,17.82Zm-14.89,0a1.19,1.19,0,0,1-.61-.08.24.24,0,0,1-.14-.17c-.09-.23.19-.48.32-.67.42-.59.86-1.17,1.29-1.76.19-.27.45-.56.77-.56a1.14,1.14,0,0,1,.72.47l1.1,1.26c.24.27,1,.84.95,1.24-.08.57-2.12.3-2.57.3C160.8,17.87,160.17,17.81,159.57,17.84Zm7.18,0a3.92,3.92,0,0,1-2-1.55l-.11-.12L162.4,13.7a1.58,1.58,0,0,0-1.18-.71,1.66,1.66,0,0,0-1.06.77l-2,2.59a4.42,4.42,0,0,1-1.35,1.34,4.7,4.7,0,0,1-2.33.28,1,1,0,0,1-.79-.31c-.24-.34.05-.81.32-1.12l3.51-4.18,1.76-2.09c.4-.47,1.12-1.6,1.85-1.43.57.15,1,.77,1.38,1.18.66.7,1.26,1.45,1.9,2.18,1.24,1.38,2.48,2.77,3.63,4.22.29.36,1.1,1,.49,1.36A2.85,2.85,0,0,1,166.75,17.86Zm-37.36,5.65-18.86-.26c-12.36,0-24.65-.08-37-.15-6.26,0-12.49-.07-18.73-.11-6.08,0-12.13.09-18.2.16L1.8,23.62a2.9,2.9,0,0,0-1.31.22c-1.18.61,0,1,1,1.15a6.61,6.61,0,0,0,1,.1l22.65-.32c1.57,0,4.1-.08,5.38,1a5.63,5.63,0,0,1,1,1.23c1.65,2.52,3.24,5.11,5,7.54,2,2.8,3.95,5.73,6.1,8.42.5.69,1.14,1.47,2,1.43a2.56,2.56,0,0,0,1.65-1q4.78-4.75,9.1-9.91c1.45-1.75,2.87-3.53,4.24-5.33.84-1.13,1.4-2.68,2.84-3.15a7.3,7.3,0,0,1,2.09-.25l8-.17c1.72,0,3.79-.13,4.87,1.34,1.27,1.74,2.54,3.47,3.81,5.22,2.55,3.49,5.07,7,7.6,10.5.57.78,1.33,1.65,2.28,1.5a2.6,2.6,0,0,0,1.49-1l8.56-9.8,4.34-5c1.16-1.32,2.06-2.76,4-2.76,3,0,6.09,0,9.13.24,2.39.17,4,.22,5.38,2.4,2.2,3.6,4.66,7,7.13,10.41.85,1.17,1.69,2.35,2.54,3.51s1.46,2.08,2.2,3.11c.38.54.92,1.23,1.65,1.21a2,2,0,0,0,1.39-1c4-5.15,8-10.35,11.67-15.78,3.2-4.82,8.39-3.84,13.39-3.91,1.57,0,4.1-.08,5.38,1a5.67,5.67,0,0,1,1,1.23c1.64,2.52,3.23,5.11,5,7.54,2,2.8,4,5.73,6.11,8.42.49.69,1.13,1.47,2,1.43a2.56,2.56,0,0,0,1.65-1q4.78-4.75,9.1-9.91c1.45-1.75,2.87-3.53,4.24-5.33.85-1.13,1.4-2.68,2.85-3.15a7.23,7.23,0,0,1,2.08-.25l8-.17c1.72,0,3.79-.13,4.87,1.34l3.82,5.22q3.81,5.23,7.59,10.5c.57.78,1.33,1.65,2.28,1.5a2.57,2.57,0,0,0,1.49-1q4.29-4.9,8.56-9.8l4.34-5c1.16-1.32,2.06-2.76,4-2.76,3.05,0,6.09,0,9.13.24,2.39.17,4.05.22,5.38,2.4,2.21,3.6,4.66,7,7.14,10.41.84,1.17,1.68,2.35,2.53,3.51s1.46,2.08,2.2,3.11c.38.54.92,1.23,1.65,1.21a2,2,0,0,0,1.39-1c4-5.15,8.05-10.35,11.67-15.79a7.9,7.9,0,0,1,2.85-2.78c3.11-1.45,7.19-1.06,10.55-1.12,1.56,0,4.09-.08,5.38,1a5.63,5.63,0,0,1,1,1.23c1.65,2.52,3.23,5.11,5,7.54,2,2.8,3.95,5.73,6.11,8.42.49.69,1.14,1.47,2,1.43a2.56,2.56,0,0,0,1.64-1q4.79-4.75,9.1-9.91c1.45-1.75,2.87-3.53,4.24-5.33.85-1.13,1.41-2.68,2.85-3.15a7.23,7.23,0,0,1,2.08-.25l8-.17c1.72,0,3.79-.13,4.87,1.34,1.27,1.74,2.55,3.47,3.82,5.22q3.81,5.23,7.59,10.5c.57.78,1.34,1.65,2.28,1.5a2.57,2.57,0,0,0,1.49-1q4.29-4.9,8.57-9.8l4.33-5c1.17-1.32,2.06-2.76,4-2.76,3.05,0,6.09,0,9.13.24,2.39.17,4.05.22,5.38,2.4,2.21,3.6,4.67,7,7.14,10.41.85,1.17,1.68,2.35,2.53,3.51l2.2,3.11c.38.54.93,1.23,1.65,1.21a2,2,0,0,0,1.39-1c4-5.15,8-10.35,11.67-15.79a7.9,7.9,0,0,1,2.85-2.78,8.09,8.09,0,0,1,3.22-.49c.58,0,1.17.06,1.45-.6a.93.93,0,0,0-.13-1c-.39-.45-1.37-.31-1.9-.3H431l-5.92,0c-6,0-12,0-17.95,0l-18.86-.26c-12.36,0-24.66-.08-37-.15-6.25,0-12.49-.07-18.73-.11-6.08,0-12.12.09-18.19.16l-30.6.42c-5.16,0-10.31,0-15.49-.06l-18.86-.26c-12.35,0-24.65-.08-37-.15-6.25,0-12.49-.07-18.73-.11-6.08,0-12.13.09-18.2.16l-30.59.42C139.72,23.58,134.56,23.59,129.39,23.51Zm299.22,2.11c.81.35-.45,1.6-.75,2-3.51,4.86-7.08,9.72-10.77,14.45-.29.38-.59.76-.88,1.12s-.58.73-1,.73-.73-.44-1-.77a19.11,19.11,0,0,1-1.61-2.25c-1.74-2.42-3.51-4.83-5.18-7.29s-3.2-5-4.91-7.47c-.16-.23-.3-.55-.11-.73a.32.32,0,0,1,.12-.08.69.69,0,0,1,.2,0,10.75,10.75,0,0,1,3.05,0c1,.15,1.22.48,1.73,1.3.76,1.23,1.55,2.46,2.34,3.68,1.57,2.4,3.21,4.76,4.9,7.08.3.38.65.8,1.12.81s.88-.44,1.17-.84c2.78-3.74,5.52-7.45,8.42-11.07.2-.24.27-.5.6-.61a1.79,1.79,0,0,1,.66-.09l1.21-.05A1.78,1.78,0,0,1,428.61,25.62Zm-9.13,0a.44.44,0,0,1,.09.11c.36.61-.62,1.62-.92,2.06-.51.75-1,1.49-1.55,2.24a1,1,0,0,1-.62.51c-.36,0-.63-.33-.81-.64-.47-.85-.92-1.7-1.41-2.55-.27-.49-1.05-1.27-.38-1.75s1.87-.18,2.65-.18h1.73C418.61,25.42,419.21,25.34,419.48,25.62Zm-8,.29a13,13,0,0,1,1.11,1.53l2.88,4.26c.21.29.45.62.8.68.72.13,1.12-.93,1.47-1.39.59-.79,1.17-1.59,1.77-2.36a30.24,30.24,0,0,1,1.83-2.54,2,2,0,0,1,1.15-.7c.52-.07,1.23.22,1,.79a7.92,7.92,0,0,1-1.09,1.68c-.61.89-1.23,1.76-1.84,2.63l-3.63,5.16c-.24.34-.58.73-1,.67a1.1,1.1,0,0,1-.72-.6L409,26.6a1.16,1.16,0,0,1-.28-.87.92.92,0,0,1,.78-.54A2.07,2.07,0,0,1,411.47,25.91ZM232.54,24.7a.35.35,0,0,1,.06.21,1.13,1.13,0,0,1-.21.54c-.57.89-1.11,1.8-1.68,2.67a.59.59,0,0,1-.52.28c-.25,0-.43-.28-.57-.51l-1.56-2.63c-.46-.76.28-.74.87-.81a11,11,0,0,1,1.82-.09C231.21,24.39,232.26,24.22,232.54,24.7Zm-138.86,0a.35.35,0,0,1,.06.21,1.06,1.06,0,0,1-.22.54c-.57.89-1.1,1.8-1.67,2.67a.59.59,0,0,1-.52.28c-.25,0-.44-.28-.57-.51L89.2,25.26c-.46-.76.28-.74.87-.81a11,11,0,0,1,1.82-.09C92.35,24.39,93.4,24.22,93.68,24.7Zm88.41-.28a12.9,12.9,0,0,1,1.39,0c1.27-.05,2.55-.06,3.82-.11a.87.87,0,0,1,.6.13,1,1,0,0,1,.09.13.63.63,0,0,1-.14.54c-.72,1.22-1.57,2.36-2.39,3.53-.25.36-.59.74-1,.68a1.17,1.17,0,0,1-.71-.59l-2-2.87a1.18,1.18,0,0,1-.3-1A.79.79,0,0,1,182.09,24.42Zm-138.86,0a12.84,12.84,0,0,1,1.39,0c1.27-.05,2.54-.06,3.82-.11a.87.87,0,0,1,.6.13,1,1,0,0,1,.09.13.63.63,0,0,1-.14.54c-.72,1.22-1.57,2.36-2.4,3.53-.24.36-.58.74-1,.68a1.17,1.17,0,0,1-.71-.59c-.66-1-1.31-1.92-2-2.87a1.18,1.18,0,0,1-.29-1A.79.79,0,0,1,43.23,24.42ZM38,24.76a4.85,4.85,0,0,1,2.6.26,5,5,0,0,1,1.92,2.25,26.81,26.81,0,0,0,1.79,2.57c.31.42.69.88,1.2.88A1.68,1.68,0,0,0,46.64,30l3.76-4.32a3.76,3.76,0,0,1,1.33-1.12,3.75,3.75,0,0,1,1.53-.13c.37,0,1,.1,1,.59s-.89,1.13-1.16,1.48l-2.38,3.05c-1.58,2-3.15,4-4.73,6.05a1.07,1.07,0,0,1-.71.51c-.35,0-.61-.31-.81-.59-2.29-3.24-4.64-6.45-6.91-9.71-.15-.23-.31-.52-.18-.75S37.73,24.79,38,24.76ZM60,25c.12.34-.82,1.41-1,1.72-.4.6-.82,1.2-1.24,1.78C56.87,29.69,56,30.83,55,32c-1.84,2.25-3.77,4.42-5.7,6.6q-1.68,1.89-3.4,3.74c-.36.39-.92.87-1.51.64s-.94-1-1.26-1.41c-.28-.14-.59-.72-.78-1l-.88-1.1c-.55-.68-1.07-1.38-1.6-2.07-1.51-2-2.89-4-4.22-6.12-.68-1.05-1.33-2.12-2-3.2l-1-1.6c-.18-.3-.77-.85-.64-1.23.2-.56,1.69-.46,2.13-.45a6.14,6.14,0,0,1,.66.05c.82.12,1.32,1.29,1.75,1.9,2.31,3.18,4.6,6.37,7,9.45a2.31,2.31,0,0,0,1.32,1c.79.11,1.43-.58,1.93-1.2l6.36-8a10.77,10.77,0,0,1,2.9-2.85,4.41,4.41,0,0,1,2-.58C58.53,24.5,59.83,24.57,60,25Zm24.76-.46a4.32,4.32,0,0,1,2.08-.16c.6.11.88.63,1.22,1.13.21.3.41.61.62.92l1.54,2.29c.3.44.73,1,1.26.82a1.35,1.35,0,0,0,.67-.56l2.44-3.18a3.69,3.69,0,0,1,1.2-1.16,3.71,3.71,0,0,1,1.59-.23c.73,0,1.46,0,2.2,0,.25,0,.57,0,.69.27s0,.53-.21.73c-1.29,1.7-2.62,3.38-4,5-1.21,1.4-2.47,2.74-3.78,4.05a1.4,1.4,0,0,1-.88.52c-.45,0-.77-.4-1-.75-2-2.85-4-5.68-6.06-8.53C83.82,25.08,84.09,24.79,84.76,24.56Zm21,0c.71.46-.78,1.76-1.07,2.11L102.77,29C100.9,31.19,99,33.39,97,35.52c-1.74,1.86-3.4,3.78-5.11,5.68a1.14,1.14,0,0,1-.69.48c-.4.08-.76-.26-1-.58a91.21,91.21,0,0,1-6.66-9.05c-1.35-2-2.74-3.93-4.21-5.86-.24-.31-.82-.66-.37-1.13a1.17,1.17,0,0,1,.71-.24A4.68,4.68,0,0,1,82,25a4.54,4.54,0,0,1,1.3,1.57l.16.23c1,1.38,2,2.78,3.09,4.18,1.22,1.66,2.53,3.27,3.84,4.85.26.32.57.66,1,.66a1.43,1.43,0,0,0,1-.61c3.09-3.49,6.16-7,9.17-10.54a2,2,0,0,1,.74-.65,2,2,0,0,1,.55-.09l2.37-.12A1.14,1.14,0,0,1,105.75,24.59Zm45.13,1c.81.35-.45,1.6-.75,2-3.5,4.86-7.07,9.72-10.77,14.45-.29.38-.58.76-.87,1.12s-.58.73-1,.73-.72-.44-.95-.77a18.31,18.31,0,0,1-1.61-2.25c-1.75-2.42-3.52-4.83-5.19-7.29s-3.2-5-4.9-7.47c-.16-.23-.31-.55-.11-.73a.25.25,0,0,1,.12-.08.63.63,0,0,1,.19,0,10.74,10.74,0,0,1,3.05,0c1,.15,1.23.48,1.74,1.3.76,1.24,1.55,2.46,2.33,3.68q2.37,3.6,4.91,7.08c.29.38.64.8,1.11.81s.89-.44,1.18-.84c2.77-3.74,5.51-7.45,8.42-11.07.19-.24.27-.5.59-.61a1.87,1.87,0,0,1,.67-.09l1.21-.05A1.71,1.71,0,0,1,150.88,25.62Zm-9.12,0,.09.11c.36.61-.62,1.62-.93,2.06-.5.75-1,1.49-1.55,2.24a1,1,0,0,1-.61.51c-.37,0-.63-.33-.82-.64-.47-.85-.92-1.7-1.4-2.55-.28-.49-1-1.27-.39-1.75s1.88-.18,2.65-.18h1.74C140.89,25.42,141.48,25.34,141.76,25.62Zm-8,.29a13.05,13.05,0,0,1,1.12,1.53c.95,1.42,1.92,2.85,2.88,4.26a1.4,1.4,0,0,0,.8.68c.71.13,1.11-.93,1.46-1.39.6-.79,1.18-1.59,1.77-2.36s1.12-1.78,1.83-2.54a2,2,0,0,1,1.15-.7c.52-.07,1.24.22,1,.79a8.79,8.79,0,0,1-1.09,1.68c-.62.89-1.24,1.76-1.84,2.63l-3.64,5.16c-.24.34-.58.73-1,.67a1.08,1.08,0,0,1-.71-.6c-2.08-3-4.13-6.08-6.21-9.12a1.11,1.11,0,0,1-.27-.87.89.89,0,0,1,.77-.54A2.06,2.06,0,0,1,133.74,25.91Zm43.09-1.15a4.89,4.89,0,0,1,2.61.26,5,5,0,0,1,1.91,2.25,26.81,26.81,0,0,0,1.79,2.57c.32.42.69.88,1.2.88A1.66,1.66,0,0,0,185.5,30l3.76-4.32a3.85,3.85,0,0,1,1.33-1.12,3.77,3.77,0,0,1,1.53-.13c.37,0,1,.1,1,.59s-.89,1.13-1.15,1.48l-2.39,3.05c-1.57,2-3.15,4-4.72,6.05a1.11,1.11,0,0,1-.72.51c-.35,0-.6-.31-.81-.59-2.29-3.24-4.64-6.45-6.91-9.71-.15-.23-.31-.52-.18-.75S176.59,24.79,176.83,24.76Zm22,.26c.12.34-.83,1.41-1,1.72-.4.6-.83,1.2-1.25,1.78-.86,1.17-1.76,2.31-2.69,3.44-1.84,2.25-3.77,4.42-5.69,6.6-1.13,1.26-2.26,2.51-3.41,3.74-.36.39-.92.87-1.51.64s-.94-1-1.26-1.41c-.28-.14-.58-.72-.78-1l-.88-1.1c-.55-.68-1.07-1.38-1.6-2.07-1.5-2-2.88-4-4.22-6.12-.68-1.05-1.33-2.12-2-3.2-.33-.53-.66-1.06-1-1.6-.19-.3-.78-.85-.65-1.23.2-.56,1.69-.46,2.14-.45a5.94,5.94,0,0,1,.65.05c.82.12,1.32,1.29,1.76,1.9,2.3,3.18,4.59,6.37,7,9.45a2.34,2.34,0,0,0,1.32,1c.79.11,1.43-.58,1.93-1.2l6.36-8A10.8,10.8,0,0,1,195,25.09a4.33,4.33,0,0,1,2-.58C197.39,24.5,198.7,24.57,198.87,25Zm24.76-.46a4.27,4.27,0,0,1,2.07-.16c.6.11.88.63,1.22,1.13.21.3.41.61.62.92l1.54,2.29c.3.44.74,1,1.26.82A1.42,1.42,0,0,0,231,29c.81-1.06,1.62-2.13,2.43-3.18a3.69,3.69,0,0,1,1.2-1.16,3.73,3.73,0,0,1,1.59-.23c.74,0,1.46,0,2.2,0,.26,0,.57,0,.69.27s0,.53-.2.73c-1.3,1.7-2.63,3.38-4,5-1.21,1.4-2.47,2.74-3.78,4.05a1.4,1.4,0,0,1-.88.52c-.45,0-.76-.4-1-.75l-6.06-8.53C222.68,25.08,223,24.79,223.63,24.56Zm21,0c.71.46-.78,1.76-1.07,2.11L241.63,29c-1.87,2.21-3.78,4.41-5.76,6.54-1.74,1.86-3.4,3.78-5.11,5.68a1.14,1.14,0,0,1-.69.48c-.4.08-.76-.26-1-.58a92.83,92.83,0,0,1-6.66-9.05c-1.35-2-2.74-3.93-4.2-5.86-.25-.31-.83-.66-.38-1.13a1.17,1.17,0,0,1,.71-.24,4.68,4.68,0,0,1,2.32.18,4.68,4.68,0,0,1,1.31,1.57,1.82,1.82,0,0,1,.15.23c1,1.38,2.05,2.78,3.09,4.18,1.23,1.66,2.54,3.27,3.84,4.85.26.32.57.66,1,.66a1.41,1.41,0,0,0,1-.61c3.09-3.49,6.17-7,9.17-10.54a2,2,0,0,1,.74-.65,2.05,2.05,0,0,1,.56-.09l2.36-.12A1.11,1.11,0,0,1,244.61,24.59Zm45.13,1c.82.35-.44,1.6-.75,2-3.5,4.86-7.07,9.72-10.77,14.45-.29.38-.58.76-.87,1.12s-.58.73-1,.73-.73-.44-1-.77a18.31,18.31,0,0,1-1.61-2.25c-1.75-2.42-3.51-4.83-5.19-7.29s-3.19-5-4.9-7.47c-.16-.23-.31-.55-.11-.73a.25.25,0,0,1,.12-.08.63.63,0,0,1,.19,0,10.82,10.82,0,0,1,3.06,0c1,.15,1.22.48,1.73,1.3.76,1.24,1.55,2.46,2.34,3.68,1.57,2.4,3.21,4.76,4.9,7.08.29.38.64.8,1.12.81s.88-.44,1.17-.84c2.78-3.74,5.51-7.45,8.42-11.07.2-.24.27-.5.59-.61a1.87,1.87,0,0,1,.67-.09l1.21-.05A1.71,1.71,0,0,1,289.74,25.62Zm-9.12,0,.09.11c.36.61-.62,1.62-.92,2.06-.51.75-1,1.49-1.55,2.24a1,1,0,0,1-.62.51c-.36,0-.63-.33-.81-.64-.48-.85-.92-1.7-1.41-2.55-.28-.49-1-1.27-.39-1.75s1.88-.18,2.66-.18h1.73C279.75,25.42,280.34,25.34,280.62,25.62Zm-8,.29a12,12,0,0,1,1.12,1.53c.95,1.42,1.92,2.85,2.88,4.26.21.29.45.62.8.68.72.13,1.11-.93,1.47-1.39.59-.79,1.17-1.59,1.76-2.36s1.12-1.78,1.83-2.54a2,2,0,0,1,1.15-.7c.53-.07,1.24.22,1,.79a8.79,8.79,0,0,1-1.09,1.68l-1.84,2.63-3.63,5.16c-.25.34-.58.73-1,.67a1.11,1.11,0,0,1-.71-.6l-6.2-9.12a1.12,1.12,0,0,1-.28-.87.9.9,0,0,1,.77-.54A2.05,2.05,0,0,1,272.6,25.91Zm43.09-1.15a4.89,4.89,0,0,1,2.61.26,5,5,0,0,1,1.91,2.25A28.74,28.74,0,0,0,322,29.84c.32.42.69.88,1.2.88a1.7,1.7,0,0,0,1.17-.75c1.24-1.44,2.5-2.88,3.75-4.32a3.85,3.85,0,0,1,1.33-1.12A3.77,3.77,0,0,1,331,24.4c.38,0,1,.1,1,.59s-.88,1.13-1.15,1.48c-.8,1-1.6,2-2.39,3.05-1.57,2-3.15,4-4.72,6.05a1.07,1.07,0,0,1-.72.51c-.35,0-.6-.31-.81-.59-2.29-3.24-4.64-6.45-6.9-9.71-.16-.23-.32-.52-.18-.75S315.45,24.79,315.69,24.76Zm22,.26c.12.34-.83,1.41-1,1.72-.4.6-.83,1.2-1.25,1.78-.86,1.17-1.76,2.31-2.69,3.44-1.84,2.25-3.77,4.42-5.69,6.6-1.13,1.26-2.26,2.51-3.41,3.74-.36.39-.92.87-1.51.64s-.93-1-1.26-1.41c-.28-.14-.58-.72-.78-1l-.88-1.1c-.54-.68-1.07-1.38-1.6-2.07-1.5-2-2.88-4-4.21-6.12-.68-1.05-1.34-2.12-2-3.2l-1-1.6c-.18-.3-.78-.85-.64-1.23.19-.56,1.68-.46,2.13-.45a5.94,5.94,0,0,1,.65.05c.83.12,1.32,1.29,1.76,1.9,2.3,3.18,4.59,6.37,7,9.45a2.38,2.38,0,0,0,1.32,1c.79.11,1.43-.58,1.93-1.2l6.36-8a10.8,10.8,0,0,1,2.91-2.85,4.33,4.33,0,0,1,2-.58C336.25,24.5,337.56,24.57,337.73,25Zm45.74-.43c.71.46-.78,1.76-1.07,2.11L380.49,29c-1.87,2.21-3.78,4.41-5.75,6.54-1.75,1.86-3.41,3.78-5.12,5.68a1.14,1.14,0,0,1-.69.48c-.4.08-.76-.26-1-.58a92.83,92.83,0,0,1-6.66-9.05c-1.34-2-2.74-3.93-4.2-5.86-.24-.31-.83-.67-.38-1.13a1.18,1.18,0,0,1,.72-.24,4.65,4.65,0,0,1,2.31.18A4.56,4.56,0,0,1,361,26.57l.16.23c1,1.38,2,2.78,3.09,4.18,1.22,1.66,2.53,3.27,3.84,4.85a1.36,1.36,0,0,0,1,.66,1.41,1.41,0,0,0,1-.61c3.09-3.49,6.17-7,9.17-10.54a2.09,2.09,0,0,1,.74-.65,2.05,2.05,0,0,1,.56-.09l2.36-.12A1.11,1.11,0,0,1,383.47,24.59Zm-12.07.11a.35.35,0,0,1,.07.21,1.06,1.06,0,0,1-.22.54c-.57.89-1.11,1.8-1.67,2.67a.62.62,0,0,1-.53.28c-.25,0-.43-.28-.56-.51l-1.57-2.63c-.46-.76.28-.74.87-.81a11.1,11.1,0,0,1,1.82-.09C370.07,24.39,371.13,24.22,371.4,24.7Zm-6.84-.3c.61.11.88.63,1.22,1.12.21.31.42.62.62.93l1.54,2.29c.3.44.74,1,1.26.82a1.37,1.37,0,0,0,.68-.56l2.43-3.18a2.66,2.66,0,0,1,2.79-1.39l2.2,0c.26,0,.57,0,.69.27s0,.53-.2.73c-1.3,1.7-2.63,3.38-4,5-1.21,1.4-2.47,2.74-3.77,4.05a1.45,1.45,0,0,1-.89.52c-.45,0-.76-.4-1-.75-2-2.85-4-5.68-6.05-8.53-.48-.65-.21-.94.47-1.17A4.28,4.28,0,0,1,364.56,24.4Zm-37.79,0,.08.13a.66.66,0,0,1-.13.54c-.73,1.22-1.58,2.36-2.4,3.53-.24.36-.58.74-1,.68a1.17,1.17,0,0,1-.71-.59l-2-2.87a1.14,1.14,0,0,1-.29-1,.77.77,0,0,1,.59-.45,13,13,0,0,1,1.39,0c1.28-.05,2.55-.06,3.82-.11A.89.89,0,0,1,326.77,24.41Z"/></svg>