<?xml version="1.0" encoding="UTF-8"?><svg id="a" xmlns="http://www.w3.org/2000/svg" viewBox="0 0 492.99 5.95"><defs><style>.b{fill:#d7a621;}.c{fill:#3e342f;}.d{fill:#71a235;}</style></defs><path class="d" d="M4.4,4.03c-.38,.56-1.05,.91-1.72,.87-.67-.04-1.3-.51-1.52-1.14-.03-.08-.04-.15-.05-.23-.19-1.14,1.07-2.44,2.21-2.23,1.31,.25,1.77,1.65,1.07,2.72ZM23.71,1.49c-.38,.2-.62,.5-.74,.82-.19,.52-.11,1.15,.19,1.68,.28,.51,.87,.79,1.45,.78,1.41-.05,2.02-1.97,1.09-2.95-.5-.52-1.35-.66-1.98-.32Zm47.04,2.64c.05,.07,.13,.12,.2,.16,.51,.34,1.22,.35,1.73,.01,.72-.47,1.01-1.77,.39-2.44-.47-.51-1.29-.6-1.92-.31-.97,.46-1.19,1.82-.4,2.57Zm67.28-.15c.28,.51,.87,.79,1.45,.78,1.41-.05,2.02-1.97,1.09-2.95-.5-.52-1.35-.66-1.98-.32-.38,.2-.62,.5-.74,.82-.19,.52-.11,1.15,.19,1.68ZM47.61,1.06c-.68-.21-1.48,.11-1.82,.72-.91,1.64,1.01,2.74,2.15,2.11,.36-.2,.64-.59,.72-1.18,.09-.7-.38-1.43-1.05-1.65ZM115.98,3.53c.01,.08,.03,.15,.05,.23,.21,.63,.84,1.1,1.52,1.14,.67,.04,1.34-.31,1.72-.87,.7-1.07,.24-2.47-1.07-2.72-1.14-.21-2.4,1.09-2.21,2.23Zm-21.59,.75c.67,.75,2.15,.7,2.76-.08,.54-.66,.59-1.78-.05-2.39-.39-.36-.95-.51-1.48-.44-.64,.09-1.23,.51-1.49,1.1-.13,.29-.17,.63-.13,.95,.05,.32,.17,.62,.39,.86Zm68.41-.39c.36-.2,.64-.59,.72-1.18,.09-.7-.38-1.43-1.05-1.65-.68-.21-1.48,.11-1.82,.72-.91,1.64,1.01,2.74,2.15,2.11Zm22.81,.24c.05,.07,.13,.12,.2,.16,.51,.34,1.22,.35,1.73,.01,.72-.47,1.01-1.77,.39-2.44-.47-.51-1.29-.6-1.92-.31-.97,.46-1.19,1.82-.4,2.57Zm23.64,.15c.67,.75,2.15,.7,2.76-.08,.54-.66,.59-1.78-.05-2.39-.39-.36-.95-.51-1.48-.44-.64,.09-1.23,.51-1.49,1.1-.13,.29-.17,.63-.13,.95,.05,.32,.17,.62,.39,.86Zm43.64-.29c.28,.51,.87,.79,1.45,.78,1.41-.05,2.02-1.97,1.09-2.95-.5-.52-1.35-.66-1.98-.32-.38,.2-.62,.5-.74,.82-.19,.52-.11,1.15,.19,1.68Zm-22.05-.46c.01,.08,.03,.15,.05,.23,.21,.63,.84,1.1,1.52,1.14,.67,.04,1.34-.31,1.72-.87,.7-1.07,.24-2.47-1.07-2.72-1.14-.21-2.4,1.09-2.21,2.23Zm136.91,.46c.28,.51,.87,.79,1.45,.78,1.41-.05,2.02-1.97,1.09-2.95-.5-.52-1.35-.66-1.98-.32-.38,.2-.62,.5-.74,.82-.19,.52-.11,1.15,.19,1.68Zm-67.28,.15c.05,.07,.13,.12,.2,.16,.51,.34,1.22,.35,1.73,.01,.72-.47,1.01-1.77,.39-2.44-.47-.51-1.29-.6-1.92-.31-.97,.46-1.19,1.82-.4,2.57Zm23.64,.15c.67,.75,2.15,.7,2.76-.08,.54-.66,.59-1.78-.05-2.39-.39-.36-.95-.51-1.48-.44-.64,.09-1.23,.51-1.49,1.1-.13,.29-.17,.63-.13,.95,.05,.32,.17,.62,.39,.86Zm21.59-.75c.01,.08,.03,.15,.05,.23,.21,.63,.84,1.1,1.52,1.14,.67,.04,1.34-.31,1.72-.87,.7-1.07,.24-2.47-1.07-2.72-1.14-.21-2.4,1.09-2.21,2.23Zm-68.04,.36c.36-.2,.64-.59,.72-1.18,.09-.7-.38-1.43-1.05-1.65-.68-.21-1.48,.11-1.82,.72-.91,1.64,1.01,2.74,2.15,2.11Zm161.32,.39c.67,.75,2.15,.7,2.76-.08,.54-.66,.59-1.78-.05-2.39-.39-.36-.95-.51-1.48-.44-.64,.09-1.23,.51-1.49,1.1-.13,.29-.17,.63-.13,.95,.05,.32,.17,.62,.39,.86Zm-46.45-.39c.36-.2,.64-.59,.72-1.18,.09-.7-.38-1.43-1.05-1.65-.68-.21-1.48,.11-1.82,.72-.91,1.64,1.01,2.74,2.15,2.11Zm68.04-.36c.01,.08,.03,.15,.05,.23,.21,.63,.84,1.1,1.52,1.14,.67,.04,1.34-.31,1.72-.87,.7-1.07,.24-2.47-1.07-2.72-1.14-.21-2.4,1.09-2.21,2.23Zm-45.23,.6c.05,.07,.13,.12,.2,.16,.51,.34,1.22,.35,1.73,.01,.72-.47,1.01-1.77,.39-2.44-.47-.51-1.29-.6-1.92-.31-.97,.46-1.19,1.82-.4,2.57Zm67.28-.15c.28,.51,.87,.79,1.45,.78,1.41-.05,2.03-1.97,1.09-2.95-.5-.52-1.35-.66-1.98-.32-.38,.2-.62,.5-.74,.82-.19,.52-.11,1.15,.19,1.68Z"/><path class="b" d="M15.73,4.07c-.9,.86-2.61,.44-2.88-.8-.12-.55,.08-1.13,.47-1.52,.23-.23,.52-.39,.83-.44,1.39-.25,2.7,1.7,1.58,2.76Zm111.98-.8c.27,1.25,1.98,1.66,2.88,.8,1.11-1.06-.19-3.02-1.58-2.76-.31,.05-.6,.21-.83,.44-.39,.39-.59,.97-.47,1.52Zm-46.12-.01c.04,1.17,1.1,2.05,2.27,1.68,1.15-.38,1.49-2.36,.59-3.12-1.05-.91-2.76-.12-2.86,1.22-.01,.08-.01,.15,0,.23Zm-23.53-.16c.12,.6,.62,1.11,1.22,1.23,1.1,.24,2.24-.8,1.93-1.93-.24-.93-1.64-1.29-2.43-.86-.32,.17-.56,.48-.67,.83-.08,.24-.09,.48-.05,.72Zm-22.73-1.38c-.51-.32-1.26-.2-1.66,.25-.59,.68-.27,1.98,.55,2.32,.23,.09,.48,.13,.72,.08,1.21-.21,1.37-2.04,.39-2.66Zm70.08,2.78c.63,.46,1.54,.51,2.19,.09,1.21-.76,.84-2.58-.34-3.18-.09-.04-.19-.08-.28-.11-.52-.15-1.11-.05-1.54,.25-.97,.72-1.01,2.25-.03,2.94Zm137.17-1.22c.27,1.25,1.98,1.66,2.88,.8,1.11-1.06-.19-3.02-1.58-2.76-.31,.05-.6,.21-.83,.44-.39,.39-.59,.97-.47,1.52Zm-46.12-.01c.04,1.17,1.1,2.05,2.27,1.68,1.15-.38,1.49-2.36,.59-3.12-1.05-.91-2.76-.12-2.86,1.22-.01,.08-.01,.15,0,.23Zm23.82,1.23c.63,.46,1.54,.51,2.19,.09,1.21-.76,.84-2.58-.34-3.18-.09-.04-.19-.08-.28-.11-.52-.15-1.11-.05-1.54,.25-.97,.72-1.01,2.25-.03,2.94Zm-47.35-1.39c.12,.6,.62,1.11,1.22,1.23,1.1,.24,2.24-.8,1.93-1.93-.24-.93-1.64-1.29-2.43-.86-.32,.17-.56,.48-.67,.83-.08,.24-.09,.48-.05,.72Zm-23.84,1.19c.23,.09,.48,.13,.72,.08,1.21-.21,1.37-2.04,.39-2.66-.51-.32-1.26-.2-1.66,.25-.59,.68-.27,1.98,.55,2.32Zm138.71-1.19c.12,.6,.62,1.11,1.22,1.23,1.1,.24,2.24-.8,1.93-1.93-.24-.93-1.64-1.29-2.43-.86-.32,.17-.56,.48-.67,.83-.08,.24-.09,.48-.05,.72Zm69.65,.17c.27,1.25,1.98,1.66,2.88,.8,1.11-1.06-.19-3.02-1.58-2.76-.31,.05-.6,.21-.83,.44-.39,.39-.59,.97-.47,1.52Zm-22.3,1.22c.63,.46,1.54,.51,2.19,.09,1.21-.76,.84-2.57-.34-3.18-.09-.04-.19-.08-.28-.11-.52-.15-1.11-.05-1.54,.25-.97,.72-1.01,2.25-.03,2.94Zm-23.82-1.23c.04,1.17,1.1,2.05,2.27,1.68,1.15-.38,1.49-2.36,.59-3.12-1.05-.91-2.76-.12-2.86,1.22-.01,.08-.01,.15,0,.23Zm-47.38,1.03c.23,.09,.48,.13,.72,.08,1.21-.21,1.37-2.04,.39-2.66-.51-.32-1.26-.2-1.66,.25-.59,.68-.27,1.98,.55,2.32Zm138.71-1.19c.12,.6,.62,1.11,1.22,1.23,1.1,.24,2.24-.8,1.93-1.93-.24-.93-1.64-1.29-2.43-.86-.32,.17-.56,.48-.67,.83-.08,.24-.09,.48-.05,.72Zm47.35,1.39c.63,.46,1.54,.51,2.19,.09,1.21-.76,.85-2.57-.34-3.18-.09-.04-.19-.08-.28-.11-.52-.15-1.11-.05-1.54,.25-.97,.72-1.01,2.25-.03,2.94Zm22.3-1.22c.27,1.25,1.98,1.66,2.88,.8,1.11-1.06-.19-3.02-1.58-2.76-.31,.05-.6,.21-.83,.44-.39,.39-.59,.97-.47,1.52Zm-46.12-.01c.04,1.17,1.1,2.05,2.27,1.68,1.15-.38,1.49-2.36,.59-3.12-1.05-.91-2.76-.12-2.86,1.22-.01,.08-.01,.15,0,.23Zm-47.38,1.03c.23,.09,.48,.13,.72,.08,1.21-.21,1.37-2.04,.39-2.66-.51-.32-1.26-.2-1.66,.25-.59,.68-.27,1.98,.55,2.32Z"/><path class="c" d="M49.42,1.3c-.35-.7-1.07-1.19-1.85-1.29-.78-.09-1.6,.21-2.11,.8-.35,.39-.56,.89-1.01,1.17-.42,.28-.95,.29-1.46,.29h-3c-.84,0-2.15,.27-2.87-.27-.43-.31-.78-.74-1.22-1.03-.98-.63-2.43-.39-3.14,.54-.21,.28-.34,.6-.4,.94-1.05-.16-2.1-.18-3.19-.11-1.25,.08-2.02-.24-2.83-1.19-.91-1.1-3.29-1.1-3.92,.32-.13,.28-.23,.59-.47,.78-.25,.19-.59,.2-.9,.2-1.02,.01-2.04,.03-3.06,.03-.32,0-.68,0-.97-.17-.34-.24-.47-.67-.68-1.03-.86-1.37-3.18-1.23-4,.09-.15,.24-.25,.51-.48,.67-.24,.19-.55,.2-.86,.21-.99,.05-2,.09-3,.13-.72,.04-1.93,.36-2.49-.25-.17-.19-.3-.42-.44-.63C3.91-.12,1.13,.28,.26,2.02c-1,2,1.01,4.15,3.02,3.84,1.13-.17,1.64-1.07,2.23-1.93,.07-.09,.13-.19,.23-.25,.38-.25,1.42-.27,1.88-.28,.95-.04,1.89-.05,2.84-.08,.42,0,.84-.01,1.22,.17,.56,.28,.64,1.09,1.14,1.49,.6,.47,1.41,.52,2.16,.4,.68-.09,1.34-.43,1.7-1.01,.13-.23,.23-.47,.39-.67,.3-.36,.9-.39,1.33-.38,.86,.04,1.72-.08,2.57-.07,.3,0,.59,.03,.84,.16,.46,.25,.32,.67,.47,1.07,.31,.82,1.41,1.25,2.23,1.21,1.01-.05,1.94-.74,2.29-1.66,.08-.23,.13-.47,.3-.64,.47-.54,1.6-.21,2.19-.13,1.01,.15,2.05,.14,3.07,.05,.09,.53,.33,1.03,.74,1.37,.89,.76,2.37,.67,3.16-.19,.34-.36,.56-.84,1.02-1.02,.93-.36,2.16-.01,3.12-.07,.97-.05,1.93-.07,2.91-.09,.39-.01,.79-.01,1.14,.19,.4,.23,.6,.7,.9,1.06,.83,1.01,2.56,1.07,3.46,.12,.43-.46,.68-1.1,1.23-1.38,.31-.16,.64-.19,.98-.2,1.26-.07,2.56-.07,3.81,.04,.72,.07,2-.11,2.53,.43,.17,.17,.28,.4,.4,.6,.4,.6,1.09,1.01,1.8,1.05,.56,.04,1.18-.13,1.6-.51,.4-.35,.51-.93,.99-1.17,.3-.16,.64-.15,.97-.13,1.38,.04,2.76,.09,4.14,.13,.58,.01,1.52-.05,2.01,.3,.38,.25,.52,.83,.84,1.17,.79,.89,2.32,.95,3.19,.15,.4-.39,.67-.91,1.06-1.31,.6-.64,1.27-.44,2.05-.46,.79-.01,1.57-.03,2.35-.05,.55-.01,1.19-.19,1.62,.25,.3,.31,.43,.72,.64,1.07,.47,.78,1.34,1.27,2.25,1.29,.59,0,1.25-.19,1.74-.56,.28-.2,.52-.44,.68-.75,.16-.28,.15-.67,.43-.87,.25-.19,.6-.19,.93-.19,1.1,.01,2.19,.01,3.29,.01,.63,0,1.93-.21,2.49,.08,.32,.17,.46,.55,.6,.89,.24,.58,1.19,1.25,1.8,1.37,.79,.15,1.56-.21,2.2-.63,.63-.39,.68-1.03,1.22-1.46,.3-.23,.71-.24,1.09-.25,.89-.03,1.76-.05,2.64-.07,.4-.01,.82-.03,1.18,.13,.47,.2,.6,1.01,.97,1.38,.39,.4,.91,.68,1.46,.79,.99,.19,2.07-.21,2.7-1.01,.17-.21,.31-.47,.52-.66,.38-.34,1.06-.34,1.54-.34,.35,0,4.32-.13,4.35,.17,.13,1.37,1.82,2.08,3.03,1.88,1.13-.17,1.64-1.07,2.23-1.93,.07-.09,.13-.19,.23-.25,.38-.25,1.42-.27,1.88-.28,.95-.04,1.89-.05,2.84-.08,.42,0,.84-.01,1.22,.17,.56,.28,.64,1.09,1.14,1.49,.6,.47,1.41,.52,2.16,.4,.68-.09,1.34-.43,1.7-1.01,.13-.23,.23-.47,.39-.67,.3-.36,.9-.39,1.33-.38,.86,.04,1.72-.08,2.57-.07,.29,0,.59,.03,.84,.16,.46,.25,.32,.67,.47,1.07,.31,.82,1.41,1.25,2.23,1.21,1.01-.05,1.94-.74,2.29-1.66,.08-.23,.13-.47,.3-.64,.47-.54,1.6-.21,2.19-.13,1.01,.15,2.05,.14,3.07,.05,.09,.53,.33,1.03,.74,1.37,.89,.76,2.37,.67,3.16-.19,.34-.36,.56-.84,1.02-1.02,.93-.36,2.16-.01,3.12-.07,.97-.05,1.93-.07,2.91-.09,.39-.01,.79-.01,1.14,.19,.4,.23,.6,.7,.9,1.06,.83,1.01,2.56,1.07,3.46,.12,.43-.46,.68-1.1,1.23-1.38,.31-.16,.64-.19,.98-.2,1.26-.07,2.56-.07,3.81,.04,.72,.07,2-.11,2.53,.43,.17,.17,.28,.4,.4,.6,.4,.6,1.09,1.01,1.8,1.05,.56,.04,1.18-.13,1.6-.51,.4-.35,.51-.93,.99-1.17,.3-.16,.64-.15,.97-.13,1.38,.04,2.76,.09,4.14,.13,.58,.01,1.52-.05,2.01,.3,.38,.25,.52,.83,.84,1.17,.79,.89,2.32,.95,3.19,.15,.4-.39,.67-.91,1.06-1.31,.6-.64,1.27-.44,2.05-.46,.79-.01,1.57-.03,2.35-.05,.55-.01,1.19-.19,1.62,.25,.3,.31,.43,.72,.64,1.07,.47,.78,1.34,1.27,2.25,1.29,.59,0,1.25-.19,1.74-.56,.28-.2,.52-.44,.68-.75,.16-.28,.15-.67,.43-.87,.25-.19,.6-.19,.93-.19,1.1,.01,2.19,.01,3.29,.01,.63,0,1.93-.21,2.49,.08,.32,.17,.46,.55,.6,.89,.24,.58,1.19,1.25,1.8,1.37,.79,.15,1.56-.21,2.2-.63,.63-.39,.68-1.03,1.22-1.46,.3-.23,.71-.24,1.09-.25,.89-.03,1.76-.05,2.64-.07,.4-.01,.82-.03,1.18,.13,.47,.2,.6,1.01,.97,1.38,.39,.4,.91,.68,1.46,.79,.99,.19,2.07-.21,2.7-1.01,.17-.21,.31-.47,.52-.66,.38-.34,1.06-.34,1.54-.34,.35,0,4.32-.13,4.35,.17,.13,1.37,1.82,2.08,3.03,1.88,1.13-.17,1.64-1.07,2.23-1.93,.07-.09,.13-.19,.23-.25,.38-.25,1.42-.27,1.88-.28,.95-.04,1.89-.05,2.84-.08,.42,0,.84-.01,1.22,.17,.56,.28,.64,1.09,1.14,1.49,.6,.47,1.41,.52,2.16,.4,.68-.09,1.34-.43,1.7-1.01,.13-.23,.23-.47,.39-.67,.3-.36,.9-.39,1.33-.38,.86,.04,1.72-.08,2.57-.07,.3,0,.59,.03,.84,.16,.46,.25,.32,.67,.47,1.07,.31,.82,1.41,1.25,2.23,1.21,1.01-.05,1.94-.74,2.29-1.66,.08-.23,.13-.47,.3-.64,.47-.54,1.6-.21,2.19-.13,1.01,.15,2.05,.14,3.07,.05,.09,.53,.33,1.03,.74,1.37,.89,.76,2.37,.67,3.16-.19,.34-.36,.56-.84,1.02-1.02,.93-.36,2.16-.01,3.12-.07,.97-.05,1.93-.07,2.91-.09,.39-.01,.79-.01,1.14,.19,.4,.23,.6,.7,.9,1.06,.83,1.01,2.56,1.07,3.46,.12,.43-.46,.68-1.1,1.23-1.38,.31-.16,.64-.19,.98-.2,1.26-.07,2.56-.07,3.81,.04,.72,.07,2-.11,2.53,.43,.17,.17,.28,.4,.4,.6,.4,.6,1.09,1.01,1.8,1.05,.56,.04,1.18-.13,1.6-.51,.4-.35,.51-.93,.99-1.17,.29-.16,.64-.15,.97-.13,1.38,.04,2.76,.09,4.14,.13,.58,.01,1.52-.05,2.01,.3,.38,.25,.52,.83,.84,1.17,.79,.89,2.32,.95,3.19,.15,.4-.39,.67-.91,1.06-1.31,.6-.64,1.27-.44,2.05-.46,.79-.01,1.57-.03,2.35-.05,.55-.01,1.19-.19,1.62,.25,.29,.31,.43,.72,.64,1.07,.47,.78,1.34,1.27,2.25,1.29,.59,0,1.25-.19,1.74-.56,.28-.2,.52-.44,.68-.75,.16-.28,.15-.67,.43-.87,.25-.19,.6-.19,.93-.19,1.1,.01,2.19,.01,3.29,.01,.63,0,1.93-.21,2.49,.08,.32,.17,.46,.55,.6,.89,.24,.58,1.19,1.25,1.8,1.37,.79,.15,1.56-.21,2.2-.63,.63-.39,.68-1.03,1.22-1.46,.29-.23,.71-.24,1.09-.25,.89-.03,1.76-.05,2.64-.07,.4-.01,.82-.03,1.18,.13,.47,.2,.6,1.01,.97,1.38,.39,.4,.91,.68,1.46,.79,.99,.19,2.07-.21,2.7-1.01,.17-.21,.31-.47,.52-.66,.38-.34,1.06-.34,1.54-.34,.35,0,4.32-.13,4.34,.17,.13,1.37,1.82,2.08,3.03,1.88,1.13-.17,1.64-1.07,2.23-1.93,.07-.09,.13-.19,.23-.25,.38-.25,1.42-.27,1.88-.28,.95-.04,1.89-.05,2.84-.08,.42,0,.84-.01,1.22,.17,.56,.28,.64,1.09,1.14,1.49,.6,.47,1.41,.52,2.16,.4,.68-.09,1.34-.43,1.7-1.01,.13-.23,.23-.47,.39-.67,.3-.36,.9-.39,1.33-.38,.86,.04,1.72-.08,2.57-.07,.3,0,.59,.03,.84,.16,.46,.25,.32,.67,.47,1.07,.31,.82,1.41,1.25,2.23,1.21,1.01-.05,1.94-.74,2.29-1.66,.08-.23,.13-.47,.3-.64,.47-.54,1.6-.21,2.19-.13,1.01,.15,2.05,.14,3.07,.05,.09,.53,.33,1.03,.74,1.37,.89,.76,2.37,.67,3.16-.19,.34-.36,.56-.84,1.02-1.02,.93-.36,2.16-.01,3.12-.07,.97-.05,1.93-.07,2.91-.09,.39-.01,.79-.01,1.14,.19,.4,.23,.6,.7,.9,1.06,.83,1.01,2.56,1.07,3.46,.12,.43-.46,.68-1.1,1.23-1.38,.31-.16,.64-.19,.98-.2,1.26-.07,2.56-.07,3.81,.04,.72,.07,2-.11,2.53,.43,.17,.17,.28,.4,.4,.6,.4,.6,1.09,1.01,1.8,1.05,.56,.04,1.18-.13,1.6-.51,.4-.35,.51-.93,.99-1.17,.3-.16,.64-.15,.97-.13,1.38,.04,2.76,.09,4.14,.13,.58,.01,1.52-.05,2.01,.3,.38,.25,.52,.83,.84,1.17,.79,.89,2.32,.95,3.19,.15,.4-.39,.67-.91,1.06-1.31,.6-.64,1.27-.44,2.05-.46,.79-.01,1.57-.03,2.35-.05,.55-.01,1.19-.19,1.62,.25,.3,.31,.43,.72,.64,1.07,.47,.78,1.34,1.27,2.25,1.29,.59,0,1.25-.19,1.74-.56,.28-.2,.52-.44,.68-.75,.16-.28,.15-.67,.43-.87,.25-.19,.6-.19,.93-.19,1.1,.01,2.19,.01,3.29,.01,.63,0,1.93-.21,2.49,.08,.32,.17,.46,.55,.6,.89,.24,.58,1.19,1.25,1.8,1.37,.79,.15,1.56-.21,2.2-.63,.63-.39,.68-1.03,1.22-1.46,.29-.23,.71-.24,1.09-.25,.88-.03,1.76-.05,2.64-.07,.4-.01,.82-.03,1.18,.13,.47,.2,.6,1.01,.97,1.38,.39,.4,.91,.68,1.46,.79,.99,.19,2.07-.21,2.7-1.01,.17-.21,.31-.47,.52-.66,.38-.34,1.06-.34,1.54-.34,.35,0,4.32-.13,4.35,.17,.13,1.37,1.82,2.08,3.03,1.88,1.13-.17,1.64-1.07,2.23-1.93,.07-.09,.13-.19,.23-.25,.38-.25,1.42-.27,1.88-.28,.95-.04,1.89-.05,2.84-.08,.42,0,.84-.01,1.22,.17,.56,.28,.64,1.09,1.14,1.49,.6,.47,1.41,.52,2.16,.4,.68-.09,1.34-.43,1.7-1.01,.13-.23,.23-.47,.39-.67,.29-.36,.9-.39,1.33-.38,.86,.04,1.72-.08,2.57-.07,.3,0,.59,.03,.84,.16,.46,.25,.32,.67,.47,1.07,.31,.82,1.41,1.25,2.23,1.21,1.01-.05,1.94-.74,2.29-1.66,.08-.23,.13-.47,.3-.64,.47-.54,1.6-.21,2.19-.13,1.18,.17,2.41,.15,3.59,0,.05,0,.12-.01,.17-.01,.21-.03,.51-.15,.47-.38-.03-.16-.21-.23-.38-.27-1.31-.31-2.61-.34-3.97-.25-1.25,.08-2.02-.24-2.83-1.19-.91-1.1-3.29-1.1-3.92,.32-.13,.28-.23,.59-.47,.78-.25,.19-.59,.2-.9,.2-1.02,.01-2.04,.03-3.06,.03-.32,0-.68,0-.97-.17-.34-.24-.47-.67-.68-1.03-.86-1.37-3.18-1.23-4,.09-.15,.24-.25,.51-.48,.67-.24,.19-.55,.2-.86,.21-.99,.05-2,.09-3,.13-.72,.04-1.93,.36-2.49-.25-.17-.19-.29-.42-.44-.63-1.05-1.45-3.62-1.37-4.48,.2-.13,.24-.23,.5-.4,.68-.52,.56-1.31,.28-1.97,.31-.91,.05-1.84,.09-2.75,.11-.43,0-.79,.12-1.11-.24-.2-.23-.31-.51-.46-.78-.46-.8-1.33-1.34-2.25-1.38-.66-.03-1.3,.2-1.82,.6-.48,.38-.68,.99-1.15,1.34-.24,.19-.58,.2-.88,.21-1.05,.03-2.08,.05-3.11,.08-.32,.01-.7,0-.91-.24-.12-.13-.17-.32-.25-.48-.35-.75-1.43-1.33-2.21-1.45-1.05-.15-2.17,.34-2.76,1.22-.16,.24-.29,.52-.54,.66-.21,.12-.47,.13-.71,.12-1.77-.01-3.53-.05-5.3,.03-.31,.01-.66,.03-.93-.13-.34-.19-.5-.56-.71-.89-.43-.63-1.17-1.05-1.93-1.09-.78-.03-1.56,.32-2.04,.91-.23,.28-.4,.6-.68,.83-.67,.54-1.52,.21-2.28,.2-.9-.01-1.82,0-2.74-.01-.39-.01-.8-.03-1.14-.23-.39-.24-.59-.71-.9-1.06-1.13-1.27-3.49-.64-4.06,.9-.07,.19-.13,.42-.32,.51-.47,.21-1.86-.09-2.4-.11-1.01-.01-2.01-.03-3.02-.05-.39,0-1.01,.01-1.31-.23-.2-.16-.34-.38-.5-.58-.46-.58-1.14-1.01-1.89-1.11-.74-.09-1.54,.15-2.05,.68-.27,.27-.46,.6-.74,.83-.59,.48-2.09,.19-2.82,.2-1.25,.03-2.48,.05-3.71,.07-.28,.01-.6,.01-.83-.16-.21-.16-.31-.44-.44-.68-.35-.7-1.07-1.19-1.85-1.29-.78-.09-1.6,.21-2.11,.8-.35,.39-.56,.89-1.01,1.17-.42,.28-.95,.29-1.46,.29h-3c-.84,0-2.15,.27-2.87-.27-.43-.31-.78-.74-1.22-1.03-.98-.63-2.43-.39-3.14,.54-.21,.28-.34,.6-.4,.94-1.05-.16-2.1-.18-3.19-.11-1.25,.08-2.02-.24-2.83-1.19-.91-1.1-3.29-1.1-3.92,.32-.13,.28-.23,.59-.47,.78-.25,.19-.59,.2-.9,.2-1.02,.01-2.04,.03-3.06,.03-.32,0-.68,0-.97-.17-.34-.24-.47-.67-.68-1.03-.86-1.37-3.18-1.23-4,.09-.15,.24-.25,.51-.48,.67-.24,.19-.55,.2-.86,.21-.99,.05-2,.09-3,.13-.72,.04-1.93,.36-2.49-.25-.17-.19-.29-.42-.44-.63-1.05-1.45-3.62-1.37-4.48,.2-.13,.24-.23,.5-.4,.68-.52,.56-1.31,.28-1.97,.31-.91,.05-1.84,.09-2.75,.11-.43,0-.79,.12-1.11-.24-.2-.23-.31-.51-.46-.78-.46-.8-1.33-1.34-2.25-1.38-.66-.03-1.3,.2-1.82,.6-.48,.38-.68,.99-1.15,1.34-.24,.19-.58,.2-.89,.21-1.05,.03-2.08,.05-3.11,.08-.32,.01-.7,0-.91-.24-.12-.13-.17-.32-.25-.48-.35-.75-1.43-1.33-2.21-1.45-1.05-.15-2.17,.34-2.76,1.22-.16,.24-.29,.52-.54,.66-.21,.12-.47,.13-.71,.12-1.77-.01-3.53-.05-5.3,.03-.31,.01-.66,.03-.93-.13-.34-.19-.5-.56-.71-.89-.43-.63-1.17-1.05-1.93-1.09-.78-.03-1.56,.32-2.04,.91-.23,.28-.4,.6-.68,.83-.67,.54-1.52,.21-2.28,.2-.9-.01-1.82,0-2.74-.01-.39-.01-.8-.03-1.14-.23-.39-.24-.59-.71-.9-1.06-1.13-1.27-3.49-.64-4.06,.9-.07,.19-.13,.42-.32,.51-.47,.21-1.86-.09-2.4-.11-1.01-.01-2.01-.03-3.02-.05-.39,0-1.01,.01-1.31-.23-.2-.16-.34-.38-.5-.58-.46-.58-1.14-1.01-1.89-1.11-.74-.09-1.54,.15-2.05,.68-.27,.27-.46,.6-.74,.83-.59,.48-2.09,.19-2.82,.2-1.25,.03-2.48,.05-3.71,.07-.28,.01-.6,.01-.83-.16-.21-.16-.31-.44-.44-.68-.35-.7-1.07-1.19-1.85-1.29-.78-.09-1.6,.21-2.11,.8-.35,.39-.56,.89-1.01,1.17-.42,.28-.95,.29-1.46,.29h-3c-.84,0-2.15,.27-2.87-.27-.43-.31-.78-.74-1.22-1.03-.98-.63-2.43-.39-3.14,.54-.21,.28-.34,.6-.4,.94-1.05-.16-2.1-.18-3.19-.11-1.25,.08-2.02-.24-2.83-1.19-.91-1.1-3.29-1.1-3.92,.32-.13,.28-.23,.59-.47,.78-.25,.19-.59,.2-.9,.2-1.02,.01-2.04,.03-3.06,.03-.32,0-.68,0-.97-.17-.34-.24-.47-.67-.68-1.03-.86-1.37-3.18-1.23-4,.09-.15,.24-.25,.51-.48,.67-.24,.19-.55,.2-.86,.21-.99,.05-2,.09-3,.13-.72,.04-1.93,.36-2.49-.25-.17-.19-.3-.42-.44-.63-1.05-1.45-3.62-1.37-4.48,.2-.13,.24-.23,.5-.4,.68-.52,.56-1.31,.28-1.97,.31-.91,.05-1.84,.09-2.75,.11-.43,0-.79,.12-1.11-.24-.2-.23-.31-.51-.46-.78-.46-.8-1.33-1.34-2.25-1.38-.66-.03-1.3,.2-1.82,.6-.48,.38-.68,.99-1.15,1.34-.24,.19-.58,.2-.89,.21-1.05,.03-2.08,.05-3.11,.08-.32,.01-.7,0-.91-.24-.12-.13-.17-.32-.25-.48-.35-.75-1.43-1.33-2.21-1.45-1.05-.15-2.17,.34-2.76,1.22-.16,.24-.3,.52-.54,.66-.21,.12-.47,.13-.71,.12-1.77-.01-3.53-.05-5.3,.03-.31,.01-.66,.03-.93-.13-.34-.19-.5-.56-.71-.89-.43-.63-1.17-1.05-1.93-1.09-.78-.03-1.56,.32-2.04,.91-.23,.28-.4,.6-.68,.83-.67,.54-1.52,.21-2.28,.2-.9-.01-1.82,0-2.74-.01-.39-.01-.8-.03-1.14-.23-.39-.24-.59-.71-.9-1.06-1.13-1.27-3.49-.64-4.06,.9-.07,.19-.13,.42-.32,.51-.47,.21-1.86-.09-2.4-.11-1.01-.01-2.01-.03-3.02-.05-.39,0-1.01,.01-1.31-.23-.2-.16-.34-.38-.5-.58-.46-.58-1.14-1.01-1.89-1.11-.74-.09-1.54,.15-2.05,.68-.27,.27-.46,.6-.74,.83-.59,.48-2.09,.19-2.82,.2-1.25,.03-2.48,.05-3.71,.07-.28,.01-.6,.01-.83-.16-.21-.16-.31-.44-.44-.68-.35-.7-1.07-1.19-1.85-1.29-.78-.09-1.6,.21-2.11,.8-.35,.39-.56,.89-1.01,1.17-.42,.28-.95,.29-1.46,.29h-3c-.84,0-2.15,.27-2.87-.27-.43-.31-.78-.74-1.22-1.03-.98-.63-2.43-.39-3.14,.54-.21,.28-.34,.6-.4,.94-1.05-.16-2.1-.18-3.19-.11-1.25,.08-2.02-.24-2.83-1.19-.91-1.1-3.29-1.1-3.92,.32-.13,.28-.23,.59-.47,.78-.25,.19-.59,.2-.9,.2-1.02,.01-2.04,.03-3.06,.03-.32,0-.68,0-.97-.17-.34-.24-.47-.67-.68-1.03-.86-1.37-3.18-1.23-4,.09-.15,.24-.25,.51-.48,.67-.24,.19-.55,.2-.86,.21-.99,.05-2,.09-3,.13-.72,.04-1.93,.36-2.49-.25-.17-.19-.3-.42-.44-.63-1.05-1.45-3.62-1.37-4.48,.2-.13,.24-.23,.5-.4,.68-.52,.56-1.31,.28-1.97,.31-.91,.05-1.84,.09-2.75,.11-.43,0-.79,.12-1.11-.24-.2-.23-.31-.51-.46-.78-.46-.8-1.33-1.34-2.25-1.38-.66-.03-1.3,.2-1.82,.6-.48,.38-.68,.99-1.15,1.34-.24,.19-.58,.2-.89,.21-1.05,.03-2.08,.05-3.11,.08-.32,.01-.7,0-.91-.24-.12-.13-.17-.32-.25-.48-.35-.75-1.43-1.33-2.21-1.45-1.05-.15-2.17,.34-2.76,1.22-.16,.24-.3,.52-.54,.66-.21,.12-.47,.13-.71,.12-1.77-.01-3.53-.05-5.3,.03-.31,.01-.66,.03-.93-.13-.34-.19-.5-.56-.71-.89-.43-.63-1.17-1.05-1.93-1.09-.78-.03-1.56,.32-2.04,.91-.23,.28-.4,.6-.68,.83-.67,.54-1.52,.21-2.28,.2-.9-.01-1.82,0-2.74-.01-.39-.01-.8-.03-1.14-.23-.39-.24-.59-.71-.9-1.06-1.13-1.27-3.49-.64-4.06,.9-.07,.19-.13,.42-.32,.51-.47,.21-1.86-.09-2.4-.11-1.01-.01-2.01-.03-3.02-.05-.39,0-1.01,.01-1.31-.23-.2-.16-.34-.38-.5-.58-.46-.58-1.14-1.01-1.89-1.11-.74-.09-1.54,.15-2.05,.68-.27,.27-.46,.6-.74,.83-.59,.48-2.09,.19-2.82,.2-1.25,.03-2.48,.05-3.71,.07-.28,.01-.6,.01-.83-.16-.21-.16-.31-.44-.44-.68ZM4.4,4.03c-.38,.56-1.05,.91-1.72,.87-.67-.04-1.3-.51-1.52-1.14-.03-.08-.04-.15-.05-.23-.19-1.14,1.07-2.44,2.21-2.23,1.31,.25,1.77,1.65,1.07,2.72Zm11.33,.04c-.9,.86-2.61,.44-2.88-.8-.12-.55,.08-1.13,.47-1.52,.23-.23,.52-.39,.83-.44,1.39-.25,2.7,1.7,1.58,2.76Zm8.88,.7c-.58,.01-1.17-.27-1.45-.78-.3-.52-.38-1.15-.19-1.68,.12-.32,.36-.62,.74-.82,.63-.34,1.49-.2,1.98,.32,.94,.98,.32,2.9-1.09,2.95Zm10.33-.4c-.24,.05-.5,.01-.72-.08-.82-.34-1.14-1.64-.55-2.32,.4-.46,1.15-.58,1.66-.25,.98,.62,.82,2.44-.39,2.66ZM482.44,2.31c.12-.32,.36-.62,.74-.82,.63-.34,1.49-.2,1.98,.32,.94,.98,.32,2.9-1.09,2.95-.58,.01-1.17-.27-1.45-.78-.29-.52-.38-1.15-.19-1.68Zm-9.66-.56c.23-.23,.52-.39,.83-.44,1.39-.25,2.7,1.7,1.58,2.76-.9,.86-2.61,.44-2.88-.8-.12-.55,.08-1.13,.47-1.52Zm-9.99-.44c1.31,.25,1.77,1.65,1.07,2.72-.38,.56-1.05,.91-1.72,.87-.67-.04-1.3-.51-1.52-1.14-.03-.08-.04-.15-.05-.23-.19-1.14,1.07-2.44,2.21-2.23Zm-12.75,.24c.43-.31,1.02-.4,1.54-.25,.09,.03,.19,.07,.28,.11,1.18,.6,1.54,2.41,.34,3.18-.64,.42-1.56,.36-2.19-.09-.98-.68-.94-2.21,.03-2.94Zm-11.3,.93c.25-.59,.84-1.01,1.49-1.1,.52-.07,1.09,.08,1.48,.44,.64,.6,.59,1.73,.05,2.39-.62,.78-2.09,.83-2.76,.08-.21-.24-.34-.54-.39-.86-.04-.32,0-.66,.13-.95Zm-9.68-.67c.9,.76,.56,2.75-.59,3.12-1.17,.38-2.23-.51-2.27-1.68-.01-.08-.01-.15,0-.23,.09-1.34,1.81-2.13,2.86-1.22Zm-13.3-.24c.63-.29,1.45-.2,1.92,.31,.62,.67,.34,1.97-.39,2.44-.51,.34-1.22,.32-1.73-.01-.07-.04-.15-.09-.2-.16-.79-.75-.56-2.12,.4-2.57Zm-12.36-.03c.79-.43,2.19-.07,2.43,.86,.31,1.13-.83,2.17-1.93,1.93-.6-.12-1.1-.63-1.22-1.23-.04-.24-.03-.48,.05-.72,.11-.35,.35-.66,.67-.83Zm-12.99,.25c.35-.62,1.14-.94,1.82-.72,.67,.21,1.14,.95,1.05,1.65-.08,.59-.36,.98-.72,1.18-1.14,.63-3.06-.47-2.15-2.11Zm-12.12,.17c.4-.46,1.15-.58,1.66-.25,.98,.62,.82,2.44-.39,2.66-.24,.05-.5,.01-.72-.08-.82-.34-1.14-1.64-.55-2.32Zm-10.7,.35c.12-.32,.36-.62,.74-.82,.63-.34,1.49-.2,1.98,.32,.94,.98,.32,2.9-1.09,2.95-.58,.01-1.17-.27-1.45-.78-.29-.52-.38-1.15-.19-1.68Zm-9.66-.56c.23-.23,.52-.39,.83-.44,1.39-.25,2.7,1.7,1.58,2.76-.9,.86-2.61,.44-2.88-.8-.12-.55,.08-1.13,.47-1.52Zm-9.99-.44c1.31,.25,1.77,1.65,1.07,2.72-.38,.56-1.05,.91-1.72,.87-.67-.04-1.3-.51-1.52-1.14-.03-.08-.04-.15-.05-.23-.19-1.14,1.07-2.44,2.21-2.23Zm-12.75,.24c.43-.31,1.02-.4,1.54-.25,.09,.03,.19,.07,.28,.11,1.18,.6,1.54,2.41,.34,3.18-.64,.42-1.56,.36-2.19-.09-.98-.68-.94-2.21,.03-2.94Zm-11.3,.93c.25-.59,.84-1.01,1.49-1.1,.52-.07,1.09,.08,1.48,.44,.64,.6,.59,1.73,.05,2.39-.62,.78-2.09,.83-2.76,.08-.21-.24-.34-.54-.39-.86-.04-.32,0-.66,.13-.95Zm-9.68-.67c.9,.76,.56,2.75-.59,3.12-1.17,.38-2.23-.51-2.27-1.68-.01-.08-.01-.15,0-.23,.09-1.34,1.81-2.13,2.86-1.22Zm-13.3-.24c.63-.29,1.45-.2,1.92,.31,.62,.67,.34,1.97-.39,2.44-.51,.34-1.22,.32-1.73-.01-.07-.04-.15-.09-.2-.16-.79-.75-.56-2.12,.4-2.57Zm-12.36-.03c.79-.43,2.19-.07,2.43,.86,.31,1.13-.83,2.17-1.93,1.93-.6-.12-1.1-.63-1.22-1.23-.04-.24-.03-.48,.05-.72,.11-.35,.35-.66,.67-.83Zm-12.99,.25c.35-.62,1.14-.94,1.82-.72,.67,.21,1.14,.95,1.05,1.65-.08,.59-.36,.98-.72,1.18-1.14,.63-3.06-.47-2.15-2.11Zm-12.12,.17c.4-.46,1.15-.58,1.66-.25,.98,.62,.82,2.44-.39,2.66-.24,.05-.5,.01-.72-.08-.82-.34-1.14-1.64-.55-2.32Zm-10.7,.35c.12-.32,.36-.62,.74-.82,.63-.34,1.49-.2,1.98,.32,.94,.98,.32,2.9-1.09,2.95-.58,.01-1.17-.27-1.45-.78-.3-.52-.38-1.15-.19-1.68Zm-9.66-.56c.23-.23,.52-.39,.83-.44,1.39-.25,2.7,1.7,1.58,2.76-.9,.86-2.61,.44-2.88-.8-.12-.55,.08-1.13,.47-1.52Zm-9.99-.44c1.31,.25,1.77,1.65,1.07,2.72-.38,.56-1.05,.91-1.72,.87-.67-.04-1.3-.51-1.52-1.14-.03-.08-.04-.15-.05-.23-.19-1.14,1.07-2.44,2.21-2.23Zm-12.75,.24c.43-.31,1.02-.4,1.54-.25,.09,.03,.19,.07,.28,.11,1.18,.6,1.54,2.41,.34,3.18-.64,.42-1.56,.36-2.19-.09-.98-.68-.94-2.21,.03-2.94Zm-11.3,.93c.25-.59,.84-1.01,1.49-1.1,.52-.07,1.09,.08,1.48,.44,.64,.6,.59,1.73,.05,2.39-.62,.78-2.09,.83-2.76,.08-.21-.24-.34-.54-.39-.86-.04-.32,0-.66,.13-.95Zm-9.68-.67c.9,.76,.56,2.75-.59,3.12-1.17,.38-2.23-.51-2.27-1.68-.01-.08-.01-.15,0-.23,.09-1.34,1.81-2.13,2.86-1.22Zm-13.3-.24c.63-.29,1.45-.2,1.92,.31,.62,.67,.34,1.97-.39,2.44-.51,.34-1.22,.32-1.73-.01-.07-.04-.15-.09-.2-.16-.79-.75-.56-2.12,.4-2.57Zm-12.36-.03c.79-.43,2.19-.07,2.43,.86,.31,1.13-.83,2.17-1.93,1.93-.6-.12-1.1-.63-1.22-1.23-.04-.24-.03-.48,.05-.72,.11-.35,.35-.66,.67-.83Zm-12.99,.25c.35-.62,1.14-.94,1.82-.72,.67,.21,1.14,.95,1.05,1.65-.08,.59-.36,.98-.72,1.18-1.14,.63-3.06-.47-2.15-2.11Zm-12.12,.17c.4-.46,1.15-.58,1.66-.25,.98,.62,.82,2.44-.39,2.66-.24,.05-.5,.01-.72-.08-.82-.34-1.14-1.64-.55-2.32Zm-10.7,.35c.12-.32,.36-.62,.74-.82,.63-.34,1.49-.2,1.98,.32,.94,.98,.32,2.9-1.09,2.95-.58,.01-1.17-.27-1.45-.78-.3-.52-.38-1.15-.19-1.68Zm-9.66-.56c.23-.23,.52-.39,.83-.44,1.39-.25,2.7,1.7,1.58,2.76-.9,.86-2.61,.44-2.88-.8-.12-.55,.08-1.13,.47-1.52Zm-9.99-.44c1.31,.25,1.77,1.65,1.07,2.72-.38,.56-1.05,.91-1.72,.87-.67-.04-1.3-.51-1.52-1.14-.03-.08-.04-.15-.05-.23-.19-1.14,1.07-2.44,2.21-2.23Zm-12.75,.24c.43-.31,1.02-.4,1.54-.25,.09,.03,.19,.07,.28,.11,1.18,.6,1.54,2.41,.34,3.18-.64,.42-1.56,.36-2.19-.09-.98-.68-.94-2.21,.03-2.94Zm-11.3,.93c.25-.59,.84-1.01,1.49-1.1,.52-.07,1.09,.08,1.48,.44,.64,.6,.59,1.73,.05,2.39-.62,.78-2.09,.83-2.76,.08-.21-.24-.34-.54-.39-.86-.04-.32,0-.66,.13-.95Zm-9.68-.67c.9,.76,.56,2.75-.59,3.12-1.17,.38-2.23-.51-2.27-1.68-.01-.08-.01-.15,0-.23,.09-1.34,1.81-2.13,2.86-1.22Zm-13.3-.24c.63-.29,1.45-.2,1.92,.31,.62,.67,.34,1.97-.39,2.44-.51,.34-1.22,.32-1.73-.01-.07-.04-.15-.09-.2-.16-.79-.75-.56-2.12,.4-2.57Zm-12.36-.03c.79-.43,2.19-.07,2.43,.86,.31,1.13-.83,2.17-1.93,1.93-.6-.12-1.1-.63-1.22-1.23-.04-.24-.03-.48,.05-.72,.11-.35,.35-.66,.67-.83Zm-10.12,1.18c-.08,.59-.36,.98-.72,1.18-1.14,.63-3.06-.47-2.15-2.11,.35-.62,1.14-.94,1.82-.72,.67,.21,1.14,.95,1.05,1.65Z"/></svg>