<svg id="bcc0729b-6187-47f1-87c5-0e9fb4a909a1" data-name="Layer 1" xmlns="http://www.w3.org/2000/svg" viewBox="0 0 466.63 25.37"><defs><style>.ef9b617d-33fd-4e23-ba88-e90917dfdf03{fill:#c76749;}.b3a4f804-b3b3-4c60-9805-dba4c9e46d7b{fill:#d29f6f;}.a9a0433d-3a56-45d7-9753-d52a9afeb2b6{fill:#3e342f;}</style></defs><path class="ef9b617d-33fd-4e23-ba88-e90917dfdf03" d="M325.89,13.93c-.44.38.9,1.45,1.11,1.7.59.73,1.2,1.44,1.8,2.15l3.59,4.3c.19.24.45.5.74.47a.49.49,0,0,0,.16-.05c.3-.14.43-.48.61-.74s.54-.71.81-1.07c.55-.71,1.08-1.44,1.6-2.17a42.27,42.27,0,0,0,2.84-4.68c.06-.11.11-.26,0-.35s-.2-.11-.31-.11l-12.31.38A1.13,1.13,0,0,0,325.89,13.93Zm9.05,1.37a.66.66,0,0,1,.51.24.7.7,0,0,1-.11.6,18.63,18.63,0,0,1-1.86,3c-1.21,1.45-2.8-1.86-3.3-2.6a1,1,0,0,1-.09-.13.8.8,0,0,1-.14-.67.89.89,0,0,1,.71-.39A14.29,14.29,0,0,1,334.94,15.3Zm110.22-1.49-2.16.08c-1.42,0-2.83.08-4.24.16a1.36,1.36,0,0,1-.57-.07c-.75-.28,0-1,.21-1.39.39-.74.7-1.52,1.07-2.27L441.59,6c.14-.26.34-.56.62-.55s.4.26.52.46c.74,1.3,1.48,2.6,2.19,3.92.35.65.7,1.31,1,2,.19.36.84,1.16.73,1.57a.13.13,0,0,1,0,.05C446.5,14,445.59,13.8,445.16,13.81ZM393.92,3.59c.5.87,1,1.72,1.54,2.55A55.26,55.26,0,0,0,399,11.05c.16.2.38.43.64.37s.31-.23.4-.39c.94-1.57,1.81-3.17,2.8-4.72s1.89-2.76,2.69-4.26a.62.62,0,0,0,.08-.43.36.36,0,0,0-.1-.11.69.69,0,0,0-.41-.09c-3.78,0-7.58,0-11.36,0a1,1,0,0,0-.67.17C392.69,1.93,393.72,3.24,393.92,3.59Zm7.63-.35c.24,0,.51,0,.62.23a.68.68,0,0,1-.11.58c-.63,1.11-1.33,2.17-2,3.26a3,3,0,0,1-.17.28c-.09.18-.24.39-.46.37-.53,0-1-1.29-1.2-1.67l-1.13-2C397,4,396.8,3.64,397,3.4a.73.73,0,0,1,.59-.16ZM324.6,12.11c1.33-1.84,2.74-3.61,4.09-5.44a17,17,0,0,0,2.24-3.2.89.89,0,0,0,.1-.56c-.15-.5-2.19-.23-2.63-.23-1.06,0-2.12,0-3.17-.05-2.12-.06-4.24,0-6.34,0h-2.12a.9.9,0,0,0-.75.23c-.5.57,1.05,2.12,1.39,2.56.57.71,1.13,1.43,1.75,2.1q2.18,2.42,4.57,4.6c.16.15.38.31.58.24A.66.66,0,0,0,324.6,12.11Zm-1.86-4.19c-.47-.91-1.08-1.75-1.6-2.65A1.51,1.51,0,0,1,321,5a.41.41,0,0,1,0-.27c.08-.26.43-.32.7-.32l3.51-.11a.63.63,0,0,1,.52.13c.42.4-.37,1.18-.59,1.48L323.76,8c-.12.19-.28.39-.5.39S322.86,8.14,322.74,7.92Zm78.38,5.84c-.08.09,0,.24.07.34,2,2.66,4.09,5.31,6.37,7.78a1.08,1.08,0,0,0,.67.43c.36,0,.64-.32.84-.62l2.3-3.43c.8-1.22,1.7-2.37,2.46-3.61a.66.66,0,0,0,.15-.59c-.09-.22-.39-.26-.64-.28-1.64-.06-3.27-.15-4.91-.21a36,36,0,0,0-7.12.09C401.24,13.68,401.16,13.69,401.12,13.76Zm9.36,1.3h.19c.17,0,.32.09.36.24a.47.47,0,0,1-.13.4c-.81,1.16-1.69,2.27-2.5,3.41-.17.24-.43.5-.69.42-.54-.17-1-1.32-1.28-1.77-.44-.69-.88-1.39-1.33-2.07-.1-.16-.21-.38-.12-.54a.6.6,0,0,1,.53-.2ZM409.05,2.24a96.05,96.05,0,0,0,4.76,9.92,1.25,1.25,0,0,0,.36.46.83.83,0,0,0,.9-.1,4.33,4.33,0,0,0,.83-1.06c2-2.72,3.77-5.58,5.66-8.37.09-.14.2-.33.08-.46a.33.33,0,0,0-.28-.1h-.14l-11.8-.75c-.15,0-.35,0-.41.14A.48.48,0,0,0,409.05,2.24Zm9,2.14a1,1,0,0,1,.38.1.16.16,0,0,1,.09.12c.07.13,0,.29-.1.43-.79,1.23-1.52,2.56-2.38,3.74a.7.7,0,0,1-.47.33c-.22,0-.39-.21-.51-.41-.72-1.21-1.15-2.58-1.87-3.76-.12-.19-.23-.45-.07-.62a.56.56,0,0,1,.39-.09ZM334.65,4l1.69,2.48,3.33,4.89a1.14,1.14,0,0,0,.33.36.79.79,0,0,0,.88-.16,7,7,0,0,0,.67-.92q.46-.56.9-1.14c.58-.75,1.14-1.48,1.69-2.26s1.26-1.77,1.92-2.64a16.16,16.16,0,0,0,1-1.32c.54-.9-.07-1-.92-.94s-1.43,0-2.15,0c-1.31,0-2.63,0-3.93,0-1.84,0-3.66,0-5.51,0C333.35,2.3,334.31,3.51,334.65,4Zm7.85.66a.6.6,0,0,1,.54.2c.13.2,0,.47-.13.67A13.93,13.93,0,0,1,341,8.12c-1.05.94-2.2-2.1-2.46-2.71a.19.19,0,0,1,0-.09.64.64,0,0,1,0-.6c.15-.23.47-.23.74-.23Zm32.7,6.64c.13.83-1.77.43-2.31.43-.86,0-1.73,0-2.59,0l-5.19,0a1,1,0,0,1-.59-.16c-.36-.35.9-1.77,1.12-2.1l1.73-2.62c.49-.76,1-1.51,1.5-2.26.21-.33.67-1.42,1.18-1.45a.27.27,0,0,1,.17,0c.54.25.82,1.12,1.1,1.6.46.78.9,1.56,1.36,2.33s1,1.71,1.5,2.55C374.49,10.11,375.12,10.68,375.2,11.29Zm-80,2.52-2.16.08c-1.42,0-2.83.08-4.24.16a1.36,1.36,0,0,1-.57-.07c-.76-.28,0-1,.21-1.39.39-.74.7-1.52,1.07-2.27L291.63,6c.14-.26.34-.56.62-.55s.4.26.52.46c.74,1.3,1.48,2.6,2.19,3.92.35.65.69,1.31,1,2,.19.36.84,1.16.73,1.57,0,0,0,0,0,.05C296.54,14,295.63,13.8,295.2,13.81ZM259.09,2.24a96.05,96.05,0,0,0,4.76,9.92,1.25,1.25,0,0,0,.36.46.83.83,0,0,0,.9-.1,4.33,4.33,0,0,0,.83-1.06c2-2.72,3.77-5.58,5.66-8.37.09-.14.2-.33.08-.46a.33.33,0,0,0-.28-.1h-.14l-11.8-.75c-.15,0-.35,0-.41.14A.43.43,0,0,0,259.09,2.24Zm9,2.14a1,1,0,0,1,.38.1.16.16,0,0,1,.09.12c.07.13,0,.29-.1.43-.8,1.23-1.52,2.56-2.38,3.74a.7.7,0,0,1-.47.33c-.23,0-.39-.21-.51-.41-.72-1.21-1.15-2.58-1.87-3.76-.13-.19-.23-.45-.07-.62a.56.56,0,0,1,.39-.09Zm-93.44,7.73c1.33-1.84,2.74-3.61,4.09-5.44A17,17,0,0,0,181,3.47a.82.82,0,0,0,.09-.56c-.14-.5-2.18-.23-2.62-.23-1.06,0-2.12,0-3.17-.05-2.12-.06-4.24,0-6.34,0h-2.12a.9.9,0,0,0-.75.23c-.5.57,1,2.12,1.39,2.56.57.71,1.13,1.43,1.75,2.1a64,64,0,0,0,4.57,4.6c.16.15.37.31.58.24A.66.66,0,0,0,174.64,12.11Zm-1.86-4.19c-.47-.91-1.08-1.75-1.6-2.65a1.51,1.51,0,0,1-.12-.26.41.41,0,0,1,0-.27c.08-.26.43-.32.69-.32l3.52-.11a.63.63,0,0,1,.52.13c.42.4-.37,1.18-.59,1.48L173.8,8c-.12.19-.29.39-.5.39S172.9,8.14,172.78,7.92ZM184.69,4l1.68,2.48,3.34,4.89a1,1,0,0,0,.33.36.79.79,0,0,0,.88-.16,7,7,0,0,0,.67-.92c.31-.37.6-.75.9-1.14.58-.75,1.14-1.48,1.69-2.26s1.26-1.77,1.92-2.64a16.16,16.16,0,0,0,1-1.32c.54-.9-.07-1-.93-.94-.71,0-1.42,0-2.14,0l-3.93,0c-1.84,0-3.66,0-5.51,0C183.38,2.3,184.35,3.51,184.69,4Zm7.85.66a.61.61,0,0,1,.54.2c.13.2,0,.47-.13.67A13.54,13.54,0,0,1,191,8.12c-1,.94-2.19-2.1-2.45-2.71a.19.19,0,0,1,0-.09.64.64,0,0,1,0-.6c.15-.23.47-.23.74-.23Zm-16.61,9.28c-.44.38.9,1.45,1.11,1.7.59.73,1.19,1.44,1.8,2.15l3.59,4.3c.19.24.44.5.74.47a.49.49,0,0,0,.16-.05c.3-.14.43-.48.6-.74s.55-.71.82-1.07c.55-.71,1.08-1.44,1.6-2.17a42.27,42.27,0,0,0,2.84-4.68c.05-.11.11-.26,0-.35a.36.36,0,0,0-.31-.11l-12.31.38A1.13,1.13,0,0,0,175.93,13.93Zm9,1.37a.66.66,0,0,1,.51.24.7.7,0,0,1-.11.6,18.63,18.63,0,0,1-1.86,3c-1.21,1.45-2.8-1.86-3.3-2.6a1,1,0,0,1-.09-.13.8.8,0,0,1-.14-.67.87.87,0,0,1,.71-.39A14.29,14.29,0,0,1,185,15.3ZM243.8,1.4a1,1,0,0,0-.67.17c-.41.36.63,1.67.83,2,.49.87,1,1.72,1.54,2.55a57.24,57.24,0,0,0,3.55,4.91c.17.2.39.43.65.37s.31-.23.4-.39c.94-1.57,1.81-3.17,2.8-4.72s1.89-2.76,2.69-4.26a.62.62,0,0,0,.08-.43.36.36,0,0,0-.1-.11.71.71,0,0,0-.41-.09Q249.48,1.38,243.8,1.4Zm7.79,1.84c.24,0,.51,0,.62.23a.68.68,0,0,1-.11.58c-.63,1.11-1.33,2.17-2,3.26a3,3,0,0,1-.17.28c-.09.18-.24.39-.46.37-.53,0-1-1.29-1.2-1.67l-1.13-2c-.16-.27-.31-.65-.09-.89a.73.73,0,0,1,.59-.16Zm-26.35,8c.13.83-1.77.43-2.31.43-.86,0-1.73,0-2.59,0l-5.19,0a1,1,0,0,1-.59-.16c-.36-.35.9-1.77,1.12-2.1l1.73-2.62c.49-.76,1-1.51,1.5-2.26.21-.33.67-1.42,1.18-1.45a.27.27,0,0,1,.17,0c.54.25.82,1.12,1.1,1.6.46.78.9,1.56,1.36,2.33s1,1.71,1.5,2.55C224.53,10.11,225.16,10.68,225.24,11.29Zm25.92,2.47c-.08.09,0,.24.07.34,2,2.66,4.09,5.31,6.37,7.78a1.05,1.05,0,0,0,.67.43c.36,0,.64-.32.84-.62l2.3-3.43c.8-1.22,1.7-2.37,2.46-3.61a.66.66,0,0,0,.15-.59c-.09-.22-.39-.26-.64-.28-1.64-.06-3.28-.15-4.91-.21a36,36,0,0,0-7.12.09C251.28,13.68,251.2,13.69,251.16,13.76Zm9.36,1.3h.19c.17,0,.32.09.36.24a.47.47,0,0,1-.13.4c-.81,1.16-1.69,2.27-2.5,3.41-.17.24-.43.5-.7.42-.53-.17-1-1.32-1.27-1.77-.44-.69-.88-1.39-1.33-2.07-.1-.16-.21-.38-.12-.54a.59.59,0,0,1,.52-.2ZM75.28,11.29c.13.83-1.77.43-2.31.43-.86,0-1.73,0-2.59,0l-5.19,0a1,1,0,0,1-.59-.16c-.36-.35.9-1.77,1.12-2.1L67.45,6.8c.49-.76,1-1.51,1.5-2.26.21-.33.67-1.42,1.18-1.45a.27.27,0,0,1,.17,0c.54.25.82,1.12,1.1,1.6.46.78.9,1.56,1.36,2.33s1,1.71,1.5,2.55C74.57,10.11,75.2,10.68,75.28,11.29Zm70,2.52-2.16.08c-1.42,0-2.83.08-4.24.16a1.43,1.43,0,0,1-.58-.07c-.75-.28,0-1,.22-1.39.39-.74.7-1.52,1.07-2.27L141.67,6c.14-.26.34-.56.62-.55s.4.26.52.46c.74,1.3,1.48,2.6,2.19,3.92.35.65.69,1.31,1,2,.19.36.83,1.16.73,1.57,0,0,0,0,0,.05C146.58,14,145.67,13.8,145.24,13.81ZM26,13.93c-.45.38.9,1.45,1.11,1.7.59.73,1.19,1.44,1.8,2.15,1.19,1.43,2.38,2.87,3.59,4.3.19.24.44.5.74.47a.49.49,0,0,0,.16-.05c.29-.14.43-.48.6-.74s.55-.71.82-1.07c.55-.71,1.07-1.44,1.6-2.17a42.27,42.27,0,0,0,2.84-4.68c.05-.11.11-.26,0-.35a.36.36,0,0,0-.31-.11l-12.31.38A1.13,1.13,0,0,0,26,13.93ZM35,15.3a.66.66,0,0,1,.51.24.7.7,0,0,1-.11.6,18.63,18.63,0,0,1-1.86,3c-1.21,1.45-2.81-1.86-3.3-2.6l-.1-.13a.8.8,0,0,1-.13-.67.87.87,0,0,1,.71-.39A14.29,14.29,0,0,1,35,15.3ZM100.14,11c.94-1.57,1.81-3.17,2.8-4.72s1.89-2.76,2.68-4.26a.53.53,0,0,0,.08-.43.24.24,0,0,0-.09-.11.71.71,0,0,0-.41-.09q-5.69,0-11.36,0a1,1,0,0,0-.67.17c-.41.36.63,1.67.83,2,.49.87,1,1.72,1.54,2.55a57.24,57.24,0,0,0,3.55,4.91c.16.2.39.43.65.37S100.05,11.19,100.14,11ZM98.32,6.29c-.38-.67-.76-1.33-1.13-2C97,4,96.88,3.64,97.1,3.4a.73.73,0,0,1,.59-.16h3.94c.24,0,.51,0,.61.23s0,.4-.1.58c-.63,1.11-1.33,2.17-2,3.26a3,3,0,0,1-.17.28c-.1.18-.24.39-.46.37C99,7.94,98.54,6.67,98.32,6.29ZM34.72,4l1.69,2.48,3.34,4.89a1,1,0,0,0,.33.36.79.79,0,0,0,.88-.16,7,7,0,0,0,.67-.92c.31-.37.6-.75.9-1.14.58-.75,1.14-1.48,1.69-2.26s1.26-1.77,1.92-2.64a16.16,16.16,0,0,0,1-1.32c.54-.9-.07-1-.93-.94s-1.42,0-2.14,0l-3.93,0c-1.84,0-3.66,0-5.51,0C33.42,2.3,34.39,3.51,34.72,4Zm7.86.66a.61.61,0,0,1,.54.2c.13.2,0,.47-.13.67a13.54,13.54,0,0,1-1.94,2.6c-1,.94-2.2-2.1-2.45-2.71a.19.19,0,0,1,0-.09.64.64,0,0,1,0-.6c.15-.23.47-.23.74-.23Zm-17.9,7.46C26,10.27,27.42,8.5,28.77,6.67A17,17,0,0,0,31,3.47a.82.82,0,0,0,.09-.56c-.14-.5-2.18-.23-2.62-.23-1.06,0-2.12,0-3.17-.05-2.12-.06-4.24,0-6.34,0H16.85a.9.9,0,0,0-.75.23c-.5.57,1,2.12,1.39,2.56.57.71,1.13,1.43,1.75,2.1a64,64,0,0,0,4.57,4.6c.16.15.37.31.58.24A.66.66,0,0,0,24.68,12.11ZM22.82,7.92c-.47-.91-1.08-1.75-1.6-2.65A1.51,1.51,0,0,1,21.1,5a.41.41,0,0,1,0-.27c.08-.26.43-.32.69-.32l3.52-.11a.64.64,0,0,1,.52.13c.42.4-.38,1.18-.59,1.48L23.84,8c-.13.19-.29.39-.5.39S22.94,8.14,22.82,7.92Zm78.38,5.84c-.08.09,0,.24.07.34,2,2.66,4.09,5.31,6.37,7.78a1.05,1.05,0,0,0,.67.43c.36,0,.64-.32.84-.62l2.29-3.43c.81-1.22,1.71-2.37,2.47-3.61a.66.66,0,0,0,.15-.59c-.09-.22-.39-.26-.64-.28-1.64-.06-3.28-.15-4.91-.21a36,36,0,0,0-7.12.09C101.32,13.68,101.24,13.69,101.2,13.76Zm9.36,1.3h.19c.17,0,.32.09.36.24a.47.47,0,0,1-.13.4c-.81,1.16-1.69,2.27-2.5,3.41-.17.24-.43.5-.7.42-.53-.17-1-1.32-1.27-1.77l-1.33-2.07c-.11-.16-.21-.38-.12-.54s.34-.2.52-.2ZM121.3,2.52l-11.8-.75c-.15,0-.35,0-.42.14a.48.48,0,0,0,0,.33,96.13,96.13,0,0,0,4.77,9.92,1.25,1.25,0,0,0,.36.46.83.83,0,0,0,.9-.1,4.33,4.33,0,0,0,.83-1.06c2-2.72,3.77-5.58,5.66-8.37.09-.14.2-.33.08-.46a.33.33,0,0,0-.28-.1Zm-3.18,1.86a1,1,0,0,1,.38.1.16.16,0,0,1,.09.12c.07.13,0,.29-.11.43-.79,1.23-1.51,2.56-2.37,3.74a.7.7,0,0,1-.47.33c-.23,0-.39-.21-.51-.41-.72-1.21-1.15-2.58-1.88-3.76-.12-.19-.22-.45-.06-.62a.56.56,0,0,1,.39-.09Z"/><path class="b3a4f804-b3b3-4c60-9805-dba4c9e46d7b" d="M364.5,14.14c1.53,2.4,3,4.81,4.56,7.22a1.72,1.72,0,0,0,.81.79.77.77,0,0,0,.25,0c.76-.08,1.35-1.68,1.66-2.16.45-.7.92-1.38,1.35-2.09l1.47-2.37c.25-.41.49-.82.75-1.22s.53-.62.68-.94a.46.46,0,0,0-.15-.57.66.66,0,0,0-.28,0l-11.06.08C363.85,12.88,364.34,13.88,364.5,14.14Zm8,.57c.21.27,0,.65-.19.94a28.49,28.49,0,0,0-1.77,2.61c-.12.22-.3.46-.54.46s-.35-.22-.47-.39c-.4-.65-.83-1.24-1.27-1.84-.3-.45-.52-1-.81-1.49a.34.34,0,0,1-.06-.25.11.11,0,0,1,0-.06.42.42,0,0,1,.35-.12l4-.06A.79.79,0,0,1,372.48,14.71Zm-9-4.33c1.07-1.34,2.09-2.73,3.07-4.13.36-.54.75-1.06,1.12-1.6a6.48,6.48,0,0,0,.81-1.29.67.67,0,0,0-.2-.79.94.94,0,0,0-.55-.11h-9.83a1.08,1.08,0,0,0-.75.19c-.55.46.82,2,1.09,2.33l2.05,2.87c.44.63.88,1.25,1.33,1.86.28.39.76,1.22,1.35,1.1A1,1,0,0,0,363.49,10.38Zm-1.3-2.52c-.35-.65-.68-1.28-1-1.91-.14-.25-.82-1-.51-1.33.11-.16.33-.17.53-.18a10.11,10.11,0,0,1,3.56.13.45.45,0,0,1,.31.32.68.68,0,0,1-.19.55c-.62.86-1.25,1.7-1.89,2.54a.62.62,0,0,1-.26.22.07.07,0,0,1-.06,0C362.43,8.24,362.28,8,362.19,7.86Zm-24,3.7a.57.57,0,0,1,.11.51c-.1.16-.31.17-.49.18l-6.11.1c-1.66,0-3.31.05-5,0-.15,0-.31,0-.4-.14s0-.37.07-.55C328,9,330.22,6.57,332.06,4a1.34,1.34,0,0,1,.23-.29.54.54,0,0,1,.36-.16c.25,0,.45.22.6.43C335.05,6.39,336.59,9,338.16,11.56Zm36-9.55-1.57.07c-.32,0-.83-.11-1.09.16s0,1.06.24,1.39L376,10.7c.17.29.39.61.71.68.52.14.61-.51.8-.8.28-.47.66-.91,1-1.37.61-.93,1.19-1.88,1.74-2.84s.93-1.67,1.4-2.51c.26-.5,1.26-1.64.59-2a1.3,1.3,0,0,0-.29-.08,28.18,28.18,0,0,0-4.5.08Zm5.29,1.61a.33.33,0,0,1,.27.21.49.49,0,0,1-.12.38c-.79,1.2-1.61,2.41-2.39,3.62-.1.15-.21.31-.39.33s-.41-.2-.53-.4c-.39-.62-.85-1.21-1.19-1.85s-.7-1-1-1.53a.61.61,0,0,1-.12-.45.45.45,0,0,1,.35-.29,6.76,6.76,0,0,1,.9,0c1.34,0,2.67,0,4,0A1.07,1.07,0,0,1,379.5,3.62Zm32.17,9-5.21-.33c-1.54-.08-3.1,0-4.66,0a.91.91,0,0,1-.68-.18c-.31-.29-.11-.8.11-1.16,1.27-2.11,2.55-4.24,3.9-6.31.44-.67,1.49-2.92,2.58-2.38a1.35,1.35,0,0,1,.54.71l.07.13c1.38,3,2.62,5.89,3.94,8.85a.59.59,0,0,1,.09.42C412.26,12.64,411.93,12.67,411.67,12.66Zm25.7,2.4c-.15,0-.32,0-.36.18a.26.26,0,0,0,.08.23l2.41,4c.74,1.21,1.33,2.49,2,3.75.05.11.11.2.16.31a.9.9,0,0,0,.44.5c.39.15.77-.28,1-.65,1.57-2.61,3.27-5.12,5-7.65.16-.23.32-.53.18-.77s-.48-.28-.77-.27l-7.38.3Zm7.33,1.28h.39a.62.62,0,0,1,.53.18c.13.19,0,.45-.14.66-.8,1.22-1.59,2.44-2.48,3.6a.83.83,0,0,1-.47.38c-.6.09-1.19-1.41-1.46-1.81l-1.65-2.51c-.08-.12-.16-.28-.07-.4s.19-.11.31-.11Zm-15.19-13c-.08.12,0,.26.05.38l3.3,5.34q.83,1.35,1.65,2.67c.24.4.86,1.93,1.45,1.86.24,0,.4-.25.51-.46.83-1.48,1.6-3,2.55-4.4a41.34,41.34,0,0,0,2.29-4.5.68.68,0,0,0,.1-.65.54.54,0,0,0-.51-.2l-.46,0c-3.53,0-7.08-.09-10.62-.16C429.71,3.28,429.56,3.28,429.51,3.38Zm8.58,1.56a.72.72,0,0,1,.62.22c.15.23,0,.54-.13.76l-1.49,2.51c-.22.38-.77,1.8-1.25,1.87-.23,0-.42-.18-.55-.37-.52-.75-1-1.53-1.48-2.33A8.28,8.28,0,0,0,432.74,6a1.1,1.1,0,0,1-.29-.66.54.54,0,0,1,.06-.25,1,1,0,0,1,1-.33Zm5-1.09a.81.81,0,0,0,.15.53L447.91,13a1.31,1.31,0,0,0,.51.6c.44.23,1-.1,1.29-.49,1.11-1.45,2.3-2.86,3.39-4.35s2.21-3.16,3.34-4.73a.42.42,0,0,0,.12-.38c-.07-.13-.24-.16-.4-.17-2.89-.12-5.7,0-8.6,0a28,28,0,0,1-3.67-.07C443.55,3.42,443.13,3.52,443.05,3.85Zm10.3,1.55c.22.42,0,.75-.24,1.09-1,1.24-1.86,2.59-2.93,3.74a1.09,1.09,0,0,1-.69.41c-.4,0-.67-.41-.86-.79L446.92,6.3c-.07-.12-.12-.23-.18-.35s-.15-.31-.09-.46.4-.3.67-.3c1.68-.06,3.35-.08,5-.23A.93.93,0,0,1,453.35,5.4ZM261.71,12.66l-5.21-.33c-1.55-.08-3.1,0-4.66,0a.89.89,0,0,1-.68-.18c-.31-.29-.11-.8.11-1.16,1.27-2.11,2.55-4.24,3.9-6.31.44-.67,1.49-2.92,2.57-2.38a1.32,1.32,0,0,1,.55.71s0,.09.07.13C259.74,6.07,261,9,262.3,12a.58.58,0,0,1,.08.42C262.3,12.64,262,12.67,261.71,12.66Zm-48.18-2.28c1.07-1.34,2.09-2.73,3.07-4.13.36-.54.75-1.06,1.11-1.6a6.1,6.1,0,0,0,.82-1.29.67.67,0,0,0-.2-.79.94.94,0,0,0-.55-.11H208a1.08,1.08,0,0,0-.75.19c-.55.46.82,2,1.09,2.33l2.05,2.87c.44.63.88,1.25,1.33,1.86.28.39.76,1.22,1.35,1.1A1,1,0,0,0,213.53,10.38Zm-1.3-2.52c-.35-.65-.68-1.28-1-1.91-.14-.25-.82-1-.51-1.33.1-.16.33-.17.53-.18a10.12,10.12,0,0,1,3.56.13.45.45,0,0,1,.31.32.68.68,0,0,1-.19.55c-.62.86-1.25,1.7-1.89,2.54a.62.62,0,0,1-.26.22.07.07,0,0,1-.06,0C212.47,8.24,212.32,8,212.23,7.86Zm2.31,6.28c1.53,2.4,3,4.81,4.56,7.22a1.72,1.72,0,0,0,.81.79.69.69,0,0,0,.25,0c.76-.08,1.35-1.68,1.66-2.16.45-.7.92-1.38,1.35-2.09s1-1.58,1.46-2.37c.26-.41.5-.82.76-1.22s.53-.62.68-.94a.46.46,0,0,0-.15-.57.66.66,0,0,0-.28,0l-11.06.08C213.89,12.88,214.38,13.88,214.54,14.14Zm8,.57c.21.27,0,.65-.19.94a28.49,28.49,0,0,0-1.77,2.61c-.12.22-.3.46-.54.46s-.35-.22-.47-.39c-.4-.65-.83-1.24-1.27-1.84-.3-.45-.53-1-.81-1.49a.34.34,0,0,1-.06-.25.11.11,0,0,1,0-.06.42.42,0,0,1,.35-.12l4-.06A.8.8,0,0,1,222.52,14.71ZM224.25,2l-1.57.07c-.33,0-.84-.11-1.09.16s0,1.06.24,1.39l4.23,7.07c.17.29.38.61.71.68.52.14.61-.51.8-.8.28-.47.66-.91,1-1.37.61-.93,1.19-1.88,1.74-2.84s.93-1.67,1.39-2.51c.27-.5,1.27-1.64.59-2a1.07,1.07,0,0,0-.28-.08,28.18,28.18,0,0,0-4.5.08Zm5.29,1.61a.33.33,0,0,1,.27.21.49.49,0,0,1-.12.38c-.79,1.2-1.61,2.41-2.39,3.62-.1.15-.21.31-.39.33s-.41-.2-.53-.4c-.39-.62-.85-1.21-1.2-1.85s-.69-1-1-1.53a.61.61,0,0,1-.12-.45.45.45,0,0,1,.35-.29,6.76,6.76,0,0,1,.9,0c1.34,0,2.67,0,4,0A1.07,1.07,0,0,1,229.54,3.62ZM188.2,11.56a.57.57,0,0,1,.11.51c-.1.16-.31.17-.49.18l-6.11.1c-1.66,0-3.31.05-5,0-.15,0-.31,0-.4-.14s0-.37.06-.55C178,9,180.26,6.57,182.1,4a1.3,1.3,0,0,1,.22-.29.59.59,0,0,1,.37-.16c.25,0,.45.22.6.43C185.09,6.39,186.63,9,188.2,11.56ZM293.09,3.85a.81.81,0,0,0,.15.53L298,13a1.31,1.31,0,0,0,.51.6c.44.23,1-.1,1.29-.49,1.11-1.45,2.3-2.86,3.39-4.35s2.21-3.16,3.34-4.73a.42.42,0,0,0,.12-.38c-.07-.13-.24-.16-.4-.17-2.89-.12-5.7,0-8.6,0a28,28,0,0,1-3.67-.07C293.59,3.42,293.17,3.52,293.09,3.85Zm10.3,1.55c.22.42,0,.75-.24,1.09-1,1.24-1.86,2.59-2.94,3.74a1,1,0,0,1-.68.41c-.4,0-.67-.41-.86-.79L297,6.3c-.07-.12-.12-.23-.18-.35a.6.6,0,0,1-.09-.46c.08-.25.4-.3.67-.3,1.67-.06,3.35-.08,5-.23A.93.93,0,0,1,303.39,5.4Zm-23.84-2c-.08.12,0,.26.05.38l3.3,5.34q.83,1.35,1.65,2.67c.24.4.86,1.93,1.45,1.86.24,0,.4-.25.51-.46.83-1.48,1.6-3,2.55-4.4a41.34,41.34,0,0,0,2.29-4.5.67.67,0,0,0,.09-.65c-.1-.18-.3-.2-.51-.2l-.45,0c-3.53,0-7.08-.09-10.62-.16C279.75,3.28,279.6,3.28,279.55,3.38Zm8.58,1.56a.73.73,0,0,1,.62.22c.15.23,0,.54-.14.76l-1.48,2.51c-.22.38-.77,1.8-1.25,1.87-.23,0-.42-.18-.55-.37-.52-.75-1-1.53-1.48-2.33A8.28,8.28,0,0,0,282.78,6a1.1,1.1,0,0,1-.29-.66.54.54,0,0,1,.06-.25,1,1,0,0,1,1-.33Zm-.72,10.12c-.15,0-.32,0-.36.18a.26.26,0,0,0,.08.23l2.41,4c.74,1.21,1.33,2.49,2,3.75,0,.11.11.2.16.31a.9.9,0,0,0,.44.5c.39.15.77-.28,1-.65,1.57-2.61,3.27-5.12,5-7.65.16-.23.32-.53.18-.77s-.48-.28-.77-.27l-7.38.3Zm7.33,1.28h.39c.19,0,.42,0,.52.18s0,.45-.13.66c-.8,1.22-1.59,2.44-2.48,3.6a.83.83,0,0,1-.47.38c-.6.09-1.19-1.41-1.46-1.81l-1.65-2.51c-.08-.12-.16-.28-.07-.4s.19-.11.31-.11Zm-231.17-6C64.64,9,65.66,7.65,66.64,6.25c.36-.54.75-1.06,1.11-1.6a6.53,6.53,0,0,0,.82-1.29.67.67,0,0,0-.2-.79.94.94,0,0,0-.55-.11H58a1.08,1.08,0,0,0-.75.19c-.55.46.82,2,1.09,2.33.68,1,1.36,1.92,2.05,2.87.44.63.88,1.25,1.33,1.86.28.39.76,1.22,1.35,1.1A1,1,0,0,0,63.57,10.38Zm-1.3-2.52c-.35-.65-.68-1.28-1-1.91-.14-.25-.82-1-.51-1.33.1-.16.33-.17.53-.18a10.12,10.12,0,0,1,3.56.13.47.47,0,0,1,.31.32.68.68,0,0,1-.19.55c-.62.86-1.25,1.7-1.89,2.54a.62.62,0,0,1-.26.22.08.08,0,0,1-.07,0C62.51,8.24,62.36,8,62.27,7.86Zm75.18,7.2c-.15,0-.33,0-.37.18a.29.29,0,0,0,.09.23q1.2,2,2.41,4c.74,1.21,1.33,2.49,2,3.75,0,.11.1.2.16.31a.9.9,0,0,0,.44.5c.39.15.77-.28,1-.65,1.57-2.61,3.27-5.12,5-7.65.17-.23.33-.53.19-.77s-.48-.28-.78-.27l-7.37.3Zm7.33,1.28h.39c.19,0,.42,0,.52.18s0,.45-.13.66c-.8,1.22-1.6,2.44-2.48,3.6a.83.83,0,0,1-.47.38c-.6.09-1.19-1.41-1.46-1.81l-1.65-2.51c-.08-.12-.16-.28-.07-.4s.19-.11.31-.11ZM129.64,3.76l3.3,5.34q.83,1.35,1.65,2.67c.24.4.86,1.93,1.45,1.86.24,0,.4-.25.51-.46.83-1.48,1.59-3,2.55-4.4a43.2,43.2,0,0,0,2.29-4.5.67.67,0,0,0,.09-.65c-.1-.18-.31-.2-.51-.2l-.45,0c-3.53,0-7.08-.09-10.62-.16-.11,0-.26,0-.31.1S129.58,3.64,129.64,3.76Zm8.53,1.18a.73.73,0,0,1,.62.22c.15.23,0,.54-.14.76l-1.48,2.51c-.22.38-.77,1.8-1.25,1.87-.23,0-.42-.18-.55-.37-.52-.75-1-1.53-1.48-2.33A8.28,8.28,0,0,0,132.82,6a1.1,1.1,0,0,1-.29-.66.54.54,0,0,1,.06-.25,1,1,0,0,1,.95-.33Zm5-1.09a.81.81,0,0,0,.15.53L148,13a1.31,1.31,0,0,0,.51.6c.44.23,1-.1,1.28-.49,1.12-1.45,2.31-2.86,3.4-4.35s2.21-3.16,3.34-4.73a.42.42,0,0,0,.12-.38c-.07-.13-.24-.16-.41-.17-2.88-.12-5.69,0-8.59,0A28.23,28.23,0,0,1,144,3.47C143.63,3.42,143.21,3.52,143.13,3.85Zm10.3,1.55c.22.42,0,.75-.24,1.09-1,1.24-1.86,2.59-2.94,3.74a1,1,0,0,1-.68.41c-.4,0-.67-.41-.86-.79L147,6.3c-.06-.12-.12-.23-.17-.35a.6.6,0,0,1-.09-.46c.08-.25.4-.3.67-.3,1.67-.06,3.35-.08,5-.23A.93.93,0,0,1,153.43,5.4ZM74.28,2l-1.56.07c-.33,0-.84-.11-1.09.16s0,1.06.24,1.39C73.28,6,74.69,8.34,76.09,10.7c.18.29.39.61.72.68.52.14.61-.51.8-.8.28-.47.66-.91,1-1.37.61-.93,1.19-1.88,1.74-2.84s.92-1.67,1.39-2.51c.27-.5,1.26-1.64.59-2A1.07,1.07,0,0,0,82,1.81a28.18,28.18,0,0,0-4.5.08Zm5.3,1.61a.33.33,0,0,1,.27.21.49.49,0,0,1-.12.38c-.79,1.2-1.61,2.41-2.39,3.62-.11.15-.21.31-.39.33s-.41-.2-.53-.4c-.39-.62-.85-1.21-1.2-1.85s-.69-1-1-1.53a.61.61,0,0,1-.12-.45.45.45,0,0,1,.35-.29,6.76,6.76,0,0,1,.9,0c1.34,0,2.67,0,4,0A1.07,1.07,0,0,1,79.58,3.62Zm32.17,9-5.21-.33c-1.55-.08-3.1,0-4.66,0a.89.89,0,0,1-.68-.18c-.31-.29-.11-.8.11-1.16,1.27-2.11,2.54-4.24,3.9-6.31.44-.67,1.49-2.92,2.57-2.38a1.32,1.32,0,0,1,.55.71s0,.09.07.13c1.38,3,2.62,5.89,3.94,8.85a.58.58,0,0,1,.08.42C112.34,12.64,112,12.67,111.75,12.66ZM64.58,14.14l4.56,7.22a1.72,1.72,0,0,0,.81.79.67.67,0,0,0,.24,0c.77-.08,1.36-1.68,1.67-2.16.45-.7.92-1.38,1.35-2.09s1-1.58,1.46-2.37c.26-.41.5-.82.75-1.22s.54-.62.69-.94a.46.46,0,0,0-.15-.57.66.66,0,0,0-.28,0l-11.06.08C63.93,12.88,64.41,13.88,64.58,14.14Zm8,.57c.22.27,0,.65-.18.94a28.49,28.49,0,0,0-1.77,2.61c-.12.22-.3.46-.54.46s-.35-.22-.47-.39c-.4-.65-.83-1.24-1.27-1.84-.3-.45-.53-1-.81-1.49a.34.34,0,0,1-.06-.25.11.11,0,0,1,0-.06.42.42,0,0,1,.35-.12l4-.06A.77.77,0,0,1,72.55,14.71ZM38.24,11.56a.57.57,0,0,1,.11.51c-.1.16-.31.17-.49.18l-6.11.1c-1.67,0-3.32.05-5,0-.15,0-.31,0-.4-.14s0-.37.06-.55C28.06,9,30.3,6.57,32.14,4a1.3,1.3,0,0,1,.22-.29.59.59,0,0,1,.37-.16c.25,0,.45.22.6.43C35.13,6.39,36.67,9,38.24,11.56Z"/><path class="a9a0433d-3a56-45d7-9753-d52a9afeb2b6" d="M439.42,16.84l1.65,2.51c.27.4.86,1.9,1.46,1.81a.83.83,0,0,0,.47-.38c.89-1.16,1.68-2.38,2.48-3.6.14-.21.27-.47.14-.66a.62.62,0,0,0-.53-.18h-5.43c-.12,0-.25,0-.31.11S439.34,16.72,439.42,16.84Zm4.68.34c0,.12,0,.25-.09.36-.46.65-.92,1.32-1.36,2-.06.08-.15.18-.25.16s-.58-.69-.69-.81a11.07,11.07,0,0,1-1-1.29c-.1-.13-.18-.33-.08-.45A.44.44,0,0,1,441,17l1.85,0C443.12,17.08,444,16.93,444.1,17.18ZM374.34,3.64a.45.45,0,0,0-.35.29.61.61,0,0,0,.12.45c.34.54.74,1,1,1.53s.8,1.23,1.19,1.85c.12.2.31.43.53.4s.29-.18.39-.33c.78-1.21,1.6-2.42,2.39-3.62a.49.49,0,0,0,.12-.38.33.33,0,0,0-.27-.21,1.07,1.07,0,0,0-.25,0c-1.34,0-2.67,0-4,0A6.76,6.76,0,0,0,374.34,3.64Zm4.21.76a.29.29,0,0,1-.07.3c-.3.45-.6.9-.92,1.33-.12.19-.44.77-.67.81a.4.4,0,0,1-.31-.15l-.08-.1c-.2-.25-1.46-1.95-1.19-2.18a.45.45,0,0,1,.28-.07l2.69,0C378.38,4.3,378.5,4.31,378.55,4.4ZM367.74,14.57a.42.42,0,0,0-.35.12.11.11,0,0,0,0,.06.34.34,0,0,0,.06.25c.29.49.51,1,.81,1.49.44.6.87,1.19,1.27,1.84.12.17.26.37.47.39s.42-.24.54-.46a28.49,28.49,0,0,1,1.77-2.61c.2-.29.4-.67.19-.94a.79.79,0,0,0-.7-.2Zm3.11.82c.93.22-.13,1.2-.48,1.56-.8.79-1.15-.31-1.59-.95a.52.52,0,0,1-.13-.31.38.38,0,0,1,.33-.34A6.18,6.18,0,0,1,370.85,15.39ZM363,8c.64-.84,1.27-1.68,1.89-2.54a.68.68,0,0,0,.19-.55.45.45,0,0,0-.31-.32,10.11,10.11,0,0,0-3.56-.13c-.2,0-.42,0-.53.18-.31.31.37,1.08.51,1.33.35.63.68,1.26,1,1.91.09.17.24.38.46.36a.07.07,0,0,0,.06,0A.62.62,0,0,0,363,8ZM362.39,7c-.17-.28-.29-.58-.44-.86a2.43,2.43,0,0,0-.3-.52c-.08-.12-.16-.29-.09-.41a.37.37,0,0,1,.32-.12,15.87,15.87,0,0,1,1.93-.23.39.39,0,0,1,.35.29.48.48,0,0,1-.13.37L363.12,7c-.11.15-.26.34-.45.29S362.47,7.13,362.39,7Zm70.12-1.93a.54.54,0,0,0-.06.25,1.1,1.1,0,0,0,.29.66,8.28,8.28,0,0,1,1.07,1.58c.46.8,1,1.58,1.48,2.33.13.19.32.41.55.37.48-.07,1-1.49,1.25-1.87l1.49-2.51c.14-.22.28-.53.13-.76a.72.72,0,0,0-.62-.22l-4.62-.16A1,1,0,0,0,432.51,5.11Zm4.43.64a.5.5,0,0,1,.43.16c.09.15,0,.35-.11.5-.33.53-.7,1.06-1,1.58-.14.19-.26.37-.39.58a.45.45,0,0,1-.23.2c-.19.09-1.44-2.12-1.6-2.39s-.19-.32-.12-.47.31-.19.5-.19C435.22,5.74,436.08,5.74,436.94,5.75Zm-98.45-.43a.19.19,0,0,0,0,.09c.26.61,1.41,3.65,2.46,2.71a13.93,13.93,0,0,0,1.93-2.6c.13-.2.26-.47.13-.67a.6.6,0,0,0-.54-.2l-3.28-.16c-.27,0-.59,0-.74.23A.64.64,0,0,0,338.49,5.32Zm3.17.08c.27.38-.68,1.41-.9,1.74-.11.17-.28.35-.45.27-.38-.17-.73-1.19-.94-1.66,0,0,0-.09-.06-.12a.39.39,0,0,1-.06-.31c.05-.11.2-.13.32-.15C340,5.15,341.39,5,341.66,5.4Zm105.66-.21c-.27,0-.59,0-.67.3s0,.31.09.46.11.23.18.35l1.71,3.55c.19.38.46.79.86.79a1.09,1.09,0,0,0,.69-.41c1.07-1.15,2-2.5,2.93-3.74.26-.34.46-.67.24-1.09a.93.93,0,0,0-1-.44C450.67,5.11,449,5.13,447.32,5.19Zm4.85.75c.08.1,0,.28-.09.4a18.06,18.06,0,0,1-1.37,1.85c-.24.24-.79,1-1.19,1a.32.32,0,0,1-.24-.2,9.08,9.08,0,0,1-.94-1.7c-.14-.28-.27-.57-.4-.85,0-.09-.1-.2-.06-.29s.24-.18.39-.18c1.21,0,2.4-.09,3.61-.08C452,5.84,452.11,5.84,452.17,5.94ZM405.1,15.7c.45.68.89,1.38,1.33,2.07.28.45.74,1.6,1.28,1.77.26.08.52-.18.69-.42.81-1.14,1.69-2.25,2.5-3.41a.47.47,0,0,0,.13-.4c0-.15-.19-.21-.36-.24h-.19l-5-.1a.6.6,0,0,0-.53.2C404.89,15.32,405,15.54,405.1,15.7Zm3.5.17h.55a.37.37,0,0,1,.26.08c.11.13,0,.3-.1.42a17.44,17.44,0,0,0-1.14,1.86c-.08.14-.18.29-.33.27a.41.41,0,0,1-.27-.13,9.36,9.36,0,0,1-1.33-2c-.06-.12-.13-.28-.05-.39a.39.39,0,0,1,.32-.1ZM323.76,8l1.39-2.08c.22-.3,1-1.08.59-1.48a.63.63,0,0,0-.52-.13l-3.51.11c-.27,0-.62.06-.7.32A.41.41,0,0,0,321,5a1.51,1.51,0,0,0,.12.26c.52.9,1.13,1.74,1.6,2.65.12.22.28.47.52.47S323.64,8.19,323.76,8Zm-1.32-1.92c-.13-.24-.18-.59,0-.76a.79.79,0,0,1,.46-.11h1.2c.15,0,.31,0,.38.13s0,.27-.08.39A4.14,4.14,0,0,1,323.52,7C322.93,7.35,322.68,6.53,322.44,6.08ZM330,15.77a.8.8,0,0,0,.14.67,1,1,0,0,0,.09.13c.5.74,2.09,4.05,3.3,2.6a18.63,18.63,0,0,0,1.86-3,.7.7,0,0,0,.11-.6.66.66,0,0,0-.51-.24,14.29,14.29,0,0,0-4.28.08A.89.89,0,0,0,330,15.77Zm4.39.27c.12.1.08.3,0,.45a7,7,0,0,1-1.15,2,.51.51,0,0,1-.39.21c-.18,0-.3-.15-.4-.29-.33-.41-2.19-2.4-.65-2.4l2.31-.06A.43.43,0,0,1,334.34,16ZM397.11,4.29l1.13,2c.23.38.67,1.65,1.2,1.67.22,0,.37-.19.46-.37a3,3,0,0,0,.17-.28c.66-1.09,1.36-2.15,2-3.26a.68.68,0,0,0,.11-.58c-.11-.2-.38-.23-.62-.23h-3.94a.73.73,0,0,0-.59.16C396.8,3.64,397,4,397.11,4.29Zm3.82-.16c.11.09,0,.27-.05.4-.44.68-.72,1.43-1.18,2.13a.36.36,0,0,1-.15.15c-.16.08-.35-.07-.43-.23-.35-.64-.75-1.25-1.07-1.92-.07-.16-.12-.36,0-.47a.4.4,0,0,1,.27-.06h.27l2.13-.06A.27.27,0,0,1,400.93,4.13Zm12.25.8c.72,1.18,1.15,2.55,1.87,3.76.12.2.29.41.51.41a.7.7,0,0,0,.47-.33c.86-1.18,1.59-2.51,2.38-3.74.08-.14.17-.3.1-.43a.16.16,0,0,0-.09-.12,1,1,0,0,0-.38-.1l-4.54-.16a.56.56,0,0,0-.39.09C413,4.48,413.06,4.74,413.18,4.93Zm1.71.07,2.19.13a.28.28,0,0,1,.21.07c.08.09,0,.23-.06.32-.57.69-.82,1.54-1.33,2.24-.1.14-.26.28-.4.22s-.14-.14-.18-.23c-.32-.75-.56-1.54-.94-2.27-.06-.12-.12-.25-.06-.36a.42.42,0,0,1,.39-.12ZM247.15,4.29l1.13,2c.22.38.67,1.65,1.2,1.67.22,0,.37-.19.46-.37a3,3,0,0,0,.17-.28c.66-1.09,1.36-2.15,2-3.26a.68.68,0,0,0,.11-.58c-.11-.2-.38-.23-.62-.23h-3.94a.73.73,0,0,0-.59.16C246.84,3.64,247,4,247.15,4.29ZM251,4.13c.11.09,0,.27-.05.4-.44.68-.73,1.43-1.18,2.13a.36.36,0,0,1-.15.15c-.16.08-.35-.07-.43-.23-.35-.64-.75-1.25-1.07-1.92-.07-.16-.12-.36,0-.47a.4.4,0,0,1,.27-.06h.27l2.13-.06A.29.29,0,0,1,251,4.13Zm38.49,12.71,1.65,2.51c.27.4.86,1.9,1.46,1.81a.83.83,0,0,0,.47-.38c.89-1.16,1.68-2.38,2.48-3.6.13-.21.27-.47.13-.66s-.33-.18-.52-.18H289.7c-.12,0-.25,0-.31.11S289.38,16.72,289.46,16.84Zm4.68.34c.05.12,0,.25-.09.36-.46.65-.92,1.32-1.36,2-.07.08-.15.18-.25.16s-.58-.69-.69-.81a11.07,11.07,0,0,1-1-1.29c-.1-.13-.18-.33-.08-.45a.43.43,0,0,1,.35-.11l1.85,0C293.16,17.08,294,16.93,294.14,17.18ZM224.38,3.64a.45.45,0,0,0-.35.29.61.61,0,0,0,.12.45c.34.54.74,1,1,1.53s.81,1.23,1.2,1.85c.12.2.31.43.53.4s.29-.18.39-.33c.78-1.21,1.6-2.42,2.39-3.62a.49.49,0,0,0,.12-.38.33.33,0,0,0-.27-.21,1.07,1.07,0,0,0-.25,0c-1.34,0-2.67,0-4,0A6.76,6.76,0,0,0,224.38,3.64Zm4.21.76a.29.29,0,0,1-.07.3c-.31.45-.6.9-.92,1.33-.12.19-.44.77-.67.81a.4.4,0,0,1-.31-.15l-.08-.1c-.2-.25-1.46-1.95-1.19-2.18a.45.45,0,0,1,.28-.07l2.69,0C228.42,4.3,228.54,4.31,228.59,4.4ZM217.78,14.57a.42.42,0,0,0-.35.12.11.11,0,0,0,0,.06.34.34,0,0,0,.06.25c.28.49.51,1,.81,1.49.44.6.87,1.19,1.27,1.84.12.17.26.37.47.39s.42-.24.54-.46a28.49,28.49,0,0,1,1.77-2.61c.2-.29.4-.67.19-.94a.8.8,0,0,0-.7-.2Zm3.11.82c.93.22-.13,1.2-.48,1.56-.8.79-1.15-.31-1.6-.95a.57.57,0,0,1-.12-.31.37.37,0,0,1,.33-.34A6.18,6.18,0,0,1,220.89,15.39Zm34.25.31c.45.68.89,1.38,1.33,2.07.28.45.74,1.6,1.27,1.77.27.08.53-.18.7-.42.81-1.14,1.69-2.25,2.5-3.41a.47.47,0,0,0,.13-.4c0-.15-.19-.21-.36-.24h-.19l-5-.1a.59.59,0,0,0-.52.2C254.93,15.32,255,15.54,255.14,15.7Zm3.5.17h.55a.37.37,0,0,1,.26.08c.1.13,0,.3-.1.42a17.44,17.44,0,0,0-1.14,1.86c-.08.14-.18.29-.33.27a.41.41,0,0,1-.27-.13,9.36,9.36,0,0,1-1.33-2c-.06-.12-.13-.28,0-.39a.39.39,0,0,1,.32-.1ZM297.36,5.19c-.27,0-.59,0-.67.3a.6.6,0,0,0,.09.46c.06.12.11.23.18.35l1.71,3.55c.19.38.46.79.86.79a1,1,0,0,0,.68-.41c1.08-1.15,2-2.5,2.94-3.74.26-.34.46-.67.24-1.09a.93.93,0,0,0-1-.44C300.71,5.11,299,5.13,297.36,5.19Zm4.85.75c.08.1,0,.28-.09.4a18.06,18.06,0,0,1-1.37,1.85c-.24.24-.79,1-1.19,1a.32.32,0,0,1-.24-.2,9.08,9.08,0,0,1-.94-1.7c-.14-.28-.27-.57-.41-.85a.38.38,0,0,1-.05-.29c.05-.15.24-.18.39-.18,1.21,0,2.4-.09,3.61-.08C302,5.84,302.15,5.84,302.21,5.94Zm-19.66-.83a.54.54,0,0,0-.06.25,1.1,1.1,0,0,0,.29.66,8.28,8.28,0,0,1,1.07,1.58c.46.8,1,1.58,1.48,2.33.13.19.32.41.55.37.48-.07,1-1.49,1.25-1.87l1.48-2.51c.15-.22.29-.53.14-.76a.73.73,0,0,0-.62-.22l-4.62-.16A1,1,0,0,0,282.55,5.11Zm4.43.64a.5.5,0,0,1,.43.16c.09.15,0,.35-.11.5-.33.53-.7,1.06-1.05,1.58-.13.19-.25.37-.38.58a.5.5,0,0,1-.23.2c-.19.09-1.44-2.12-1.6-2.39s-.19-.32-.12-.47.31-.19.5-.19C285.26,5.74,286.12,5.74,287,5.75Zm-107,10a.8.8,0,0,0,.14.67,1,1,0,0,0,.09.13c.5.74,2.09,4.05,3.3,2.6a18.63,18.63,0,0,0,1.86-3,.7.7,0,0,0,.11-.6.66.66,0,0,0-.51-.24,14.29,14.29,0,0,0-4.28.08A.87.87,0,0,0,180,15.77Zm4.39.27c.12.1.08.3,0,.45a7,7,0,0,1-1.15,2,.51.51,0,0,1-.39.21c-.18,0-.3-.15-.4-.29-.33-.41-2.19-2.4-.65-2.4l2.31-.06A.43.43,0,0,1,184.38,16ZM263.22,4.93c.72,1.18,1.15,2.55,1.87,3.76.12.2.28.41.51.41a.7.7,0,0,0,.47-.33c.86-1.18,1.58-2.51,2.38-3.74.08-.14.17-.3.1-.43a.16.16,0,0,0-.09-.12,1,1,0,0,0-.38-.1l-4.54-.16a.56.56,0,0,0-.39.09C263,4.48,263.09,4.74,263.22,4.93Zm1.71.07,2.19.13a.28.28,0,0,1,.21.07c.08.09,0,.23-.06.32-.57.69-.82,1.54-1.33,2.24-.1.14-.26.28-.4.22s-.14-.14-.18-.23c-.32-.75-.56-1.54-.94-2.27-.06-.12-.12-.25-.06-.36a.41.41,0,0,1,.38-.12ZM213,8c.64-.84,1.27-1.68,1.89-2.54a.68.68,0,0,0,.19-.55.45.45,0,0,0-.31-.32,10.12,10.12,0,0,0-3.56-.13c-.2,0-.43,0-.53.18-.31.31.37,1.08.51,1.33.35.63.68,1.26,1,1.91.09.17.24.38.46.36a.07.07,0,0,0,.06,0A.62.62,0,0,0,213,8ZM212.43,7c-.17-.28-.29-.58-.44-.86a2.43,2.43,0,0,0-.3-.52c-.08-.12-.16-.29-.09-.41a.37.37,0,0,1,.32-.12,15.87,15.87,0,0,1,1.93-.23.4.4,0,0,1,.35.29.48.48,0,0,1-.13.37L213.16,7c-.11.15-.26.34-.45.29S212.51,7.13,212.43,7ZM271.5.87l-.25,0c-1.48,0-2.95-.09-4.43-.16-9.1-.33-18.22-.8-27.3-.67L211.67.4c-5.08,0-10.27-.2-15.31.28-2,.19-4.06,0-6.11,0-4.76,0-9.52.36-14.27.54-8.59.32-17.25-.22-25.9.17-4,.18-8,.2-12,.07L121.54.87l-.25,0c-1.48,0-3-.09-4.43-.16-9.1-.33-18.22-.8-27.3-.67L61.71.4C52.48.52,43.25.33,34,.24S15.9.59,6.86.59H1.35C.84.59.19.68,0,1.16a.45.45,0,0,0,0,.23.9.9,0,0,0,.56.75c1.08.47,3.08.06,4.26.06,1.67,0,3.33,0,5,.08A15.56,15.56,0,0,1,12,2.4a3.24,3.24,0,0,1,1.66.48,5.13,5.13,0,0,1,1,1.07C16.29,6,18.18,7.86,19.87,9.88c.73.87,1.51,1.73,2.28,2.59l4.55,5.17,3.46,3.93c.57.65,1.12,1.36,1.73,2,.38.36.92,1,1.52.81a1.37,1.37,0,0,0,.52-.47c2.82-3.58,5.26-7.51,7.89-11.27,2.2-3.15,4.46-6.26,6.64-9.44A1.94,1.94,0,0,1,50,2.25a23.64,23.64,0,0,1,2.66-.09c.46,0,.93,0,1.4,0s.6-.11.95.07a1.91,1.91,0,0,1,.63.6c.38.48.63,1,1,1.54.64.94,1.28,1.87,1.93,2.8,1.3,1.91,2.6,3.81,3.86,5.73,1.41,2.12,2.84,4.21,4.29,6.29.5.71,1,1.42,1.49,2.15a16.25,16.25,0,0,1,1.42,2.05c.2.28.47.6.81.56a1,1,0,0,0,.63-.5c1-1.48,1.9-3.09,2.89-4.62,1.8-2.78,3.61-5.55,5.34-8.37.87-1.42,1.7-2.84,2.51-4.28s1.42-2.84,2.33-4.14a2.34,2.34,0,0,1,.62-.67,2.81,2.81,0,0,1,1.57-.24c.63,0,1.24-.1,1.86-.12,1.25-.07,2.32-.31,3.1.83l1,1.47C94.1,6,95.75,8.75,97.7,11.3c1.21,1.6,2.44,3.19,3.67,4.76,1.52,2,3,4.05,4.64,5.86.62.67,1.14,1.45,1.8,2.09a.71.71,0,0,0,.63.29.78.78,0,0,0,.39-.33c1.3-1.73,2.53-3.5,3.81-5.25,2.06-2.86,4-5.8,6-8.73,1.45-2.13,2.83-4.29,4.24-6.45.26-.41.48-.79,1.07-.83a6.55,6.55,0,0,1,2.65.12,3.63,3.63,0,0,1,1.2.93,47.7,47.7,0,0,1,3.51,5.11q1.8,2.76,3.54,5.53c1.73,2.73,3.33,5.56,5,8.31.33.53.65,1.06.94,1.61s.61,1,1.17,1.05,1.11-.5,1.47-1c1.2-1.66,2.35-3.35,3.52-5,1.84-2.68,3.69-5.36,5.64-8,1-1.31,2-2.55,3-3.83s2-3.27,3.32-4.17c1.66-1.11,4.42-.89,5.6.59,1.64,2.08,3.53,3.91,5.22,5.93.73.87,1.51,1.73,2.28,2.59l4.56,5.17c1.15,1.32,2.3,2.62,3.46,3.93.56.65,1.11,1.36,1.73,2,.37.36.91,1,1.51.81a1.31,1.31,0,0,0,.52-.47c2.82-3.58,5.26-7.51,7.89-11.27,2.2-3.15,4.46-6.26,6.64-9.44A2,2,0,0,1,200,2.25a23.64,23.64,0,0,1,2.66-.09c.46,0,.93,0,1.4,0s.6-.11.95.07a1.91,1.91,0,0,1,.63.6c.38.48.63,1,1,1.54.64.94,1.28,1.87,1.93,2.8,1.3,1.91,2.6,3.81,3.86,5.73,1.41,2.12,2.84,4.21,4.29,6.29.5.71,1,1.42,1.49,2.15a16.25,16.25,0,0,1,1.42,2.05c.2.28.47.6.81.56a1,1,0,0,0,.63-.5c1-1.48,1.9-3.09,2.89-4.62,1.8-2.78,3.61-5.55,5.34-8.37.87-1.42,1.7-2.84,2.51-4.28s1.42-2.84,2.33-4.14a2.34,2.34,0,0,1,.62-.67,2.81,2.81,0,0,1,1.57-.24c.63,0,1.25-.1,1.86-.12,1.25-.07,2.32-.31,3.1.83l1,1.47c1.81,2.64,3.46,5.39,5.4,7.94,1.21,1.6,2.44,3.19,3.67,4.76,1.52,2,3,4.05,4.64,5.86.62.67,1.14,1.45,1.8,2.09a.71.71,0,0,0,.63.29c.18,0,.28-.19.39-.33,1.3-1.73,2.53-3.5,3.81-5.25,2.06-2.86,4-5.8,6-8.73,1.45-2.13,2.83-4.29,4.24-6.45.27-.41.48-.79,1.07-.83a6.61,6.61,0,0,1,2.66.12,3.59,3.59,0,0,1,1.19.93,47.7,47.7,0,0,1,3.51,5.11q1.8,2.76,3.54,5.53c1.73,2.73,3.33,5.56,5.05,8.31.32.53.64,1.06.93,1.61s.61,1,1.17,1.05,1.11-.5,1.48-1c1.19-1.66,2.34-3.35,3.51-5,1.84-2.68,3.69-5.36,5.64-8,1-1.31,2-2.55,3-3.83s2-3.32,3.29-4.34a4.3,4.3,0,0,1,5.63.76c1.64,2.08,3.53,3.91,5.22,5.93.74.87,1.51,1.73,2.28,2.59l4.56,5.17c1.15,1.32,2.3,2.62,3.46,3.93.56.65,1.11,1.36,1.73,2,.37.36.91,1,1.51.81a1.31,1.31,0,0,0,.52-.47c2.82-3.58,5.26-7.51,7.89-11.27,2.2-3.15,4.47-6.26,6.64-9.44A2,2,0,0,1,350,2.25a23.74,23.74,0,0,1,2.67-.09c.45,0,.92,0,1.39,0s.6-.11.95.07a1.91,1.91,0,0,1,.63.6c.38.48.63,1,1,1.54.64.94,1.29,1.87,1.93,2.8,1.3,1.91,2.6,3.81,3.86,5.73,1.41,2.12,2.84,4.21,4.29,6.29.5.71,1,1.42,1.49,2.15a16.25,16.25,0,0,1,1.42,2.05c.2.28.47.6.81.56a1,1,0,0,0,.63-.5c1-1.48,1.9-3.09,2.89-4.62,1.8-2.78,3.61-5.55,5.34-8.37.87-1.42,1.7-2.84,2.51-4.28s1.42-2.84,2.33-4.14a2.34,2.34,0,0,1,.62-.67,2.81,2.81,0,0,1,1.57-.24c.63,0,1.25-.1,1.86-.12,1.25-.07,2.32-.31,3.1.83l1,1.47c1.81,2.64,3.46,5.39,5.4,7.94q1.81,2.4,3.68,4.76c1.51,2,3,4.05,4.63,5.86.62.67,1.14,1.45,1.8,2.09a.71.71,0,0,0,.63.29c.18,0,.28-.19.39-.33,1.3-1.73,2.54-3.5,3.81-5.25,2.06-2.86,4.05-5.8,6-8.73,1.45-2.13,2.83-4.29,4.24-6.45.27-.41.48-.79,1.07-.83a6.59,6.59,0,0,1,2.66.12,3.59,3.59,0,0,1,1.19.93,47.7,47.7,0,0,1,3.51,5.11q1.8,2.76,3.54,5.53c1.73,2.73,3.33,5.56,5,8.31.32.53.64,1.06.93,1.61s.61,1,1.17,1.05,1.11-.5,1.48-1c1.19-1.66,2.34-3.35,3.51-5,1.84-2.68,3.69-5.36,5.65-8,1-1.31,2-2.55,3-3.83a25,25,0,0,1,2.67-3.35c.85-.79,2.21-.5,3.28-.5h4c.41,0,.9-.06,1-.44a.7.7,0,0,0-.3-.8,1.89,1.89,0,0,0-.88-.27,40.66,40.66,0,0,0-6.8-.14c-2.21.09-4.47-.08-6.68-.14Q445,1.71,438,1.46L421.46.87l-.25,0c-1.48,0-2.95-.09-4.43-.16-9.1-.33-18.22-.8-27.3-.67L361.63.4c-6.06.08-12,.42-18.1.42-8.77,0-17.53.75-26.29.4-5-.2-10,.18-14.94.34-4.76.15-9.46.06-14.24-.1ZM39.27,13.49c.07.09,0,.24,0,.35a42.27,42.27,0,0,1-2.84,4.68c-.53.73-1,1.46-1.6,2.17-.27.36-.56.71-.82,1.07s-.31.6-.6.74a.49.49,0,0,1-.16.05c-.3,0-.55-.23-.74-.47-1.21-1.43-2.4-2.87-3.59-4.3-.61-.71-1.21-1.42-1.8-2.15-.21-.25-1.56-1.32-1.11-1.7a1.13,1.13,0,0,1,.68-.17L39,13.38A.36.36,0,0,1,39.27,13.49ZM23.81,12.13a64,64,0,0,1-4.57-4.6c-.62-.67-1.18-1.39-1.75-2.1-.35-.44-1.89-2-1.39-2.56a.9.9,0,0,1,.75-.23H19c2.1,0,4.22-.06,6.34,0,1.05,0,2.11.05,3.17.05.44,0,2.48-.27,2.62.23a.82.82,0,0,1-.09.56,17,17,0,0,1-2.24,3.2c-1.35,1.83-2.76,3.6-4.09,5.44a.66.66,0,0,1-.29.26C24.18,12.44,24,12.28,23.81,12.13Zm14.54-.06c-.1.16-.31.17-.49.18l-6.11.1c-1.67,0-3.32.05-5,0-.15,0-.31,0-.4-.14s0-.37.06-.55C28.06,9,30.3,6.57,32.14,4a1.3,1.3,0,0,1,.22-.29.59.59,0,0,1,.37-.16c.25,0,.45.22.6.43,1.8,2.44,3.34,5,4.91,7.61A.57.57,0,0,1,38.35,12.07Zm1.82-9.78,3.93,0c.72,0,1.43,0,2.14,0s1.47,0,.93.94a16.16,16.16,0,0,1-1,1.32c-.66.87-1.29,1.75-1.92,2.64S43.11,8.75,42.53,9.5c-.3.39-.59.77-.9,1.14a7,7,0,0,1-.67.92.79.79,0,0,1-.88.16,1,1,0,0,1-.33-.36L36.41,6.47,34.72,4c-.33-.48-1.3-1.69-.06-1.7C36.51,2.28,38.33,2.28,40.17,2.29Zm21.54,7.4c-.45-.61-.89-1.23-1.33-1.86C59.69,6.88,59,5.92,58.33,5c-.27-.36-1.64-1.87-1.09-2.33A1.08,1.08,0,0,1,58,2.44h9.83a.94.94,0,0,1,.55.11.67.67,0,0,1,.2.79,6.53,6.53,0,0,1-.82,1.29c-.36.54-.75,1.06-1.11,1.6-1,1.4-2,2.79-3.07,4.13a1,1,0,0,1-.51.41C62.47,10.91,62,10.08,61.71,9.69ZM76,12.84a.46.46,0,0,1,.15.57c-.15.32-.5.63-.69.94s-.49.81-.75,1.22c-.48.79-1,1.58-1.46,2.37s-.9,1.39-1.35,2.09c-.31.48-.9,2.08-1.67,2.16a.67.67,0,0,1-.24,0,1.72,1.72,0,0,1-.81-.79l-4.56-7.22c-.17-.26-.65-1.26,0-1.26l11.06-.08A.66.66,0,0,1,76,12.84Zm-3-1.12c-.86,0-1.73,0-2.59,0l-5.19,0a1,1,0,0,1-.59-.16c-.36-.35.9-1.77,1.12-2.1L67.45,6.8c.49-.76,1-1.51,1.5-2.26.21-.33.67-1.42,1.18-1.45a.27.27,0,0,1,.17,0c.54.25.82,1.12,1.1,1.6.46.78.9,1.56,1.36,2.33s1,1.71,1.5,2.55c.31.5.94,1.07,1,1.68C75.41,12.12,73.51,11.72,73,11.72Zm9-9.91a1.07,1.07,0,0,1,.28.08c.67.33-.32,1.47-.59,2-.47.84-.92,1.68-1.39,2.51s-1.13,1.91-1.74,2.84c-.31.46-.69.9-1,1.37-.19.29-.28.94-.8.8-.33-.07-.54-.39-.72-.68C74.69,8.34,73.28,6,71.87,3.63c-.2-.33-.59-1-.24-1.39s.76-.16,1.09-.16L74.28,2l3.24-.12A28.18,28.18,0,0,1,82,1.81Zm66.3,13.11c.14.24,0,.54-.19.77-1.7,2.53-3.4,5-5,7.65-.21.37-.59.8-1,.65a.9.9,0,0,1-.44-.5c-.06-.11-.11-.2-.16-.31-.67-1.26-1.26-2.54-2-3.75s-1.61-2.64-2.41-4a.29.29,0,0,1-.09-.23c0-.14.22-.17.37-.18l2.72-.11,7.37-.3C147.84,14.64,148.19,14.67,148.32,14.92Zm-5.24-1c-1.42,0-2.83.08-4.24.16a1.43,1.43,0,0,1-.58-.07c-.75-.28,0-1,.22-1.39.39-.74.7-1.52,1.07-2.27L141.67,6c.14-.26.34-.56.62-.55s.4.26.52.46c.74,1.3,1.48,2.6,2.19,3.92.35.65.69,1.31,1,2,.19.36.83,1.16.73,1.57,0,0,0,0,0,.05-.17.52-1.08.34-1.51.35Zm4.56-10.35c2.9,0,5.71-.15,8.59,0,.17,0,.34,0,.41.17a.42.42,0,0,1-.12.38c-1.13,1.57-2.22,3.16-3.34,4.73s-2.28,2.9-3.4,4.35c-.3.39-.84.72-1.28.49A1.31,1.31,0,0,1,148,13l-4.71-8.65a.81.81,0,0,1-.15-.53c.08-.33.5-.43.83-.38A28.23,28.23,0,0,0,147.64,3.54Zm-7.12-.1.45,0c.2,0,.41,0,.51.2a.67.67,0,0,1-.09.65,43.2,43.2,0,0,1-2.29,4.5c-1,1.38-1.72,2.92-2.55,4.4-.11.21-.27.45-.51.46-.59.07-1.21-1.46-1.45-1.86q-.83-1.32-1.65-2.67l-3.3-5.34c-.06-.12-.13-.26,0-.38s.2-.1.31-.1C133.44,3.35,137,3.46,140.52,3.44Zm48.71,10.05c.07.09,0,.24,0,.35a42.27,42.27,0,0,1-2.84,4.68c-.52.73-1,1.46-1.6,2.17-.27.36-.56.71-.82,1.07s-.3.6-.6.74a.49.49,0,0,1-.16.05c-.3,0-.55-.23-.74-.47l-3.59-4.3c-.61-.71-1.21-1.42-1.8-2.15-.21-.25-1.55-1.32-1.11-1.7a1.13,1.13,0,0,1,.68-.17l12.31-.38A.36.36,0,0,1,189.23,13.49ZM99.09,11.05a57.24,57.24,0,0,1-3.55-4.91C95,5.31,94.49,4.46,94,3.59c-.2-.35-1.24-1.66-.83-2a1,1,0,0,1,.67-.17q5.67,0,11.36,0a.71.71,0,0,1,.41.09.24.24,0,0,1,.09.11.53.53,0,0,1-.08.43c-.79,1.5-1.77,2.85-2.68,4.26s-1.86,3.15-2.8,4.72c-.09.16-.22.35-.4.39S99.25,11.25,99.09,11.05Zm7.45,1.28c-1.55-.08-3.1,0-4.66,0a.89.89,0,0,1-.68-.18c-.31-.29-.11-.8.11-1.16,1.27-2.11,2.54-4.24,3.9-6.31.44-.67,1.49-2.92,2.57-2.38a1.32,1.32,0,0,1,.55.71s0,.09.07.13c1.38,3,2.62,5.89,3.94,8.85a.58.58,0,0,1,.08.42c-.08.25-.41.28-.67.27Zm2,1.24c1.63.06,3.27.15,4.91.21.25,0,.55.06.64.28a.66.66,0,0,1-.15.59c-.76,1.24-1.66,2.39-2.47,3.61l-2.29,3.43c-.2.3-.48.65-.84.62a1.05,1.05,0,0,1-.67-.43c-2.28-2.47-4.34-5.12-6.37-7.78-.07-.1-.15-.25-.07-.34s.12-.08.19-.1A36,36,0,0,1,108.51,13.57ZM121.64,3.09C119.75,5.88,118,8.74,116,11.46a4.33,4.33,0,0,1-.83,1.06.83.83,0,0,1-.9.1,1.25,1.25,0,0,1-.36-.46,96.13,96.13,0,0,1-4.77-9.92.48.48,0,0,1,0-.33c.07-.13.27-.14.42-.14l11.8.75h.14a.33.33,0,0,1,.28.1C121.84,2.76,121.73,3,121.64,3.09Zm52.13,9a64,64,0,0,1-4.57-4.6c-.62-.67-1.18-1.39-1.75-2.1-.35-.44-1.89-2-1.39-2.56a.9.9,0,0,1,.75-.23h2.12c2.1,0,4.22-.06,6.34,0,1,0,2.11.05,3.17.05.44,0,2.48-.27,2.62.23a.82.82,0,0,1-.09.56,17,17,0,0,1-2.24,3.2c-1.35,1.83-2.76,3.6-4.09,5.44a.66.66,0,0,1-.29.26C174.14,12.44,173.93,12.28,173.77,12.13Zm14.54-.06c-.1.16-.31.17-.49.18l-6.11.1c-1.66,0-3.31.05-5,0-.15,0-.31,0-.4-.14s0-.37.06-.55C178,9,180.26,6.57,182.1,4a1.3,1.3,0,0,1,.22-.29.59.59,0,0,1,.37-.16c.25,0,.45.22.6.43,1.8,2.44,3.34,5,4.91,7.61A.57.57,0,0,1,188.31,12.07Zm1.82-9.78,3.93,0c.72,0,1.43,0,2.14,0,.86,0,1.47,0,.93.94a16.16,16.16,0,0,1-1,1.32c-.66.87-1.29,1.75-1.92,2.64s-1.11,1.51-1.69,2.26c-.3.39-.59.77-.9,1.14a7,7,0,0,1-.67.92.79.79,0,0,1-.88.16,1,1,0,0,1-.33-.36l-3.34-4.89L184.69,4c-.34-.48-1.31-1.69-.07-1.7C186.47,2.28,188.29,2.28,190.13,2.29Zm21.54,7.4c-.45-.61-.89-1.23-1.33-1.86L208.29,5c-.27-.36-1.64-1.87-1.09-2.33a1.08,1.08,0,0,1,.75-.19h9.83a.94.94,0,0,1,.55.11.67.67,0,0,1,.2.79,6.1,6.1,0,0,1-.82,1.29c-.36.54-.75,1.06-1.11,1.6-1,1.4-2,2.79-3.07,4.13a1,1,0,0,1-.51.41C212.43,10.91,212,10.08,211.67,9.69Zm14.25,3.15a.46.46,0,0,1,.15.57c-.15.32-.5.63-.68.94s-.5.81-.76,1.22c-.48.79-1,1.58-1.46,2.37s-.9,1.39-1.35,2.09c-.31.48-.9,2.08-1.66,2.16a.69.69,0,0,1-.25,0,1.72,1.72,0,0,1-.81-.79c-1.52-2.41-3-4.82-4.56-7.22-.16-.26-.65-1.26,0-1.26l11.06-.08A.66.66,0,0,1,225.92,12.84Zm-3-1.12c-.86,0-1.73,0-2.59,0l-5.19,0a1,1,0,0,1-.59-.16c-.36-.35.9-1.77,1.12-2.1l1.73-2.62c.49-.76,1-1.51,1.5-2.26.21-.33.67-1.42,1.18-1.45a.27.27,0,0,1,.17,0c.54.25.82,1.12,1.1,1.6.46.78.9,1.56,1.36,2.33s1,1.71,1.5,2.55c.31.5.94,1.07,1,1.68C225.37,12.12,223.47,11.72,222.93,11.72Zm9-9.91a1.07,1.07,0,0,1,.28.08c.68.33-.32,1.47-.59,2-.46.84-.92,1.68-1.39,2.51s-1.13,1.91-1.74,2.84c-.31.46-.69.9-1,1.37-.19.29-.28.94-.8.8-.33-.07-.54-.39-.71-.68l-4.23-7.07c-.2-.33-.59-1-.24-1.39s.76-.16,1.09-.16L224.25,2l3.23-.12A28.18,28.18,0,0,1,232,1.81Zm66.3,13.11c.14.24,0,.54-.18.77-1.71,2.53-3.41,5-5,7.65-.21.37-.59.8-1,.65a.9.9,0,0,1-.44-.5c-.05-.11-.11-.2-.16-.31-.67-1.26-1.26-2.54-2-3.75l-2.41-4a.26.26,0,0,1-.08-.23c0-.14.21-.17.36-.18l2.72-.11,7.38-.3C297.8,14.64,298.15,14.67,298.28,14.92Zm-5.24-1c-1.42,0-2.83.08-4.24.16a1.36,1.36,0,0,1-.57-.07c-.76-.28,0-1,.21-1.39.39-.74.7-1.52,1.07-2.27L291.63,6c.14-.26.34-.56.62-.55s.4.26.52.46c.74,1.3,1.48,2.6,2.19,3.92.35.65.69,1.31,1,2,.19.36.84,1.16.73,1.57,0,0,0,0,0,.05-.17.52-1.08.34-1.51.35ZM297.6,3.54c2.9,0,5.71-.15,8.6,0,.16,0,.33,0,.4.17a.42.42,0,0,1-.12.38c-1.13,1.57-2.22,3.16-3.34,4.73s-2.28,2.9-3.39,4.35c-.31.39-.85.72-1.29.49A1.31,1.31,0,0,1,298,13l-4.71-8.65a.81.81,0,0,1-.15-.53c.08-.33.5-.43.84-.38A28,28,0,0,0,297.6,3.54Zm-6.67-.12c.21,0,.41,0,.51.2a.67.67,0,0,1-.09.65,41.34,41.34,0,0,1-2.29,4.5c-.95,1.38-1.72,2.92-2.55,4.4-.11.21-.27.45-.51.46-.59.07-1.21-1.46-1.45-1.86q-.82-1.32-1.65-2.67l-3.3-5.34c-.06-.12-.13-.26-.05-.38s.2-.1.31-.1c3.54.07,7.09.18,10.62.16Zm48.26,10.07c.07.09,0,.24,0,.35a42.27,42.27,0,0,1-2.84,4.68c-.52.73-1.05,1.46-1.6,2.17-.27.36-.56.71-.81,1.07s-.31.6-.61.74a.49.49,0,0,1-.16.05c-.29,0-.55-.23-.74-.47l-3.59-4.3c-.6-.71-1.21-1.42-1.8-2.15-.21-.25-1.55-1.32-1.11-1.7a1.13,1.13,0,0,1,.68-.17l12.31-.38C339,13.38,339.13,13.39,339.19,13.49Zm109.05,1.43c.14.24,0,.54-.18.77-1.71,2.53-3.41,5-5,7.65-.21.37-.59.8-1,.65a.9.9,0,0,1-.44-.5c-.05-.11-.11-.2-.16-.31-.67-1.26-1.26-2.54-2-3.75l-2.41-4a.26.26,0,0,1-.08-.23c0-.14.21-.17.36-.18l2.72-.11,7.38-.3C447.76,14.64,448.11,14.67,448.24,14.92Zm-5.24-1c-1.42,0-2.83.08-4.24.16a1.36,1.36,0,0,1-.57-.07c-.75-.28,0-1,.21-1.39.39-.74.7-1.52,1.07-2.27L441.59,6c.14-.26.34-.56.62-.55s.4.26.52.46c.74,1.3,1.48,2.6,2.19,3.92.35.65.7,1.31,1,2,.19.36.84,1.16.73,1.57a.13.13,0,0,1,0,.05c-.18.52-1.09.34-1.52.35Zm4.56-10.35c2.9,0,5.71-.15,8.6,0,.16,0,.33,0,.4.17a.42.42,0,0,1-.12.38c-1.13,1.57-2.21,3.16-3.34,4.73s-2.28,2.9-3.39,4.35c-.31.39-.85.72-1.29.49a1.31,1.31,0,0,1-.51-.6L443.2,4.38a.81.81,0,0,1-.15-.53c.08-.33.5-.43.84-.38A28,28,0,0,0,447.56,3.54Zm-6.66-.12a.54.54,0,0,1,.51.2.68.68,0,0,1-.1.65A41.34,41.34,0,0,1,439,8.77c-.95,1.38-1.72,2.92-2.55,4.4-.11.21-.27.45-.51.46-.59.07-1.21-1.46-1.45-1.86q-.83-1.32-1.65-2.67l-3.3-5.34c-.06-.12-.13-.26-.05-.38s.2-.1.31-.1c3.54.07,7.09.18,10.62.16Zm-34.44,8.91c-1.54-.08-3.1,0-4.66,0a.91.91,0,0,1-.68-.18c-.31-.29-.11-.8.11-1.16,1.27-2.11,2.55-4.24,3.9-6.31.44-.67,1.49-2.92,2.58-2.38a1.35,1.35,0,0,1,.54.71l.07.13c1.38,3,2.62,5.89,3.94,8.85a.59.59,0,0,1,.09.42c-.09.25-.42.28-.68.27Zm2,1.24c1.64.06,3.27.15,4.91.21.25,0,.55.06.64.28a.66.66,0,0,1-.15.59c-.76,1.24-1.66,2.39-2.46,3.61l-2.3,3.43c-.2.3-.48.65-.84.62a1.08,1.08,0,0,1-.67-.43c-2.28-2.47-4.33-5.12-6.37-7.78-.07-.1-.15-.25-.07-.34s.12-.08.19-.1A36,36,0,0,1,408.43,13.57Zm12.79-11h.14a.33.33,0,0,1,.28.1c.12.13,0,.32-.08.46-1.89,2.79-3.66,5.65-5.66,8.37a4.33,4.33,0,0,1-.83,1.06.83.83,0,0,1-.9.1,1.25,1.25,0,0,1-.36-.46,96.05,96.05,0,0,1-4.76-9.92.48.48,0,0,1,0-.33c.06-.13.26-.14.41-.14Zm-16.1-1.1a.69.69,0,0,1,.41.09.36.36,0,0,1,.1.11.62.62,0,0,1-.08.43c-.8,1.5-1.77,2.85-2.69,4.26S401,9.46,400.06,11c-.09.16-.21.35-.4.39s-.48-.17-.64-.37a55.26,55.26,0,0,1-3.56-4.91c-.53-.83-1-1.68-1.54-2.55-.2-.35-1.23-1.66-.83-2a1,1,0,0,1,.67-.17C397.54,1.38,401.34,1.39,405.12,1.42ZM256.5,12.33c-1.55-.08-3.1,0-4.66,0a.89.89,0,0,1-.68-.18c-.31-.29-.11-.8.11-1.16,1.27-2.11,2.55-4.24,3.9-6.31.44-.67,1.49-2.92,2.57-2.38a1.32,1.32,0,0,1,.55.71s0,.09.07.13C259.74,6.07,261,9,262.3,12a.58.58,0,0,1,.08.42c-.08.25-.41.28-.67.27Zm2,1.24c1.63.06,3.27.15,4.91.21.25,0,.55.06.64.28a.66.66,0,0,1-.15.59c-.76,1.24-1.66,2.39-2.46,3.61l-2.3,3.43c-.2.3-.48.65-.84.62a1.05,1.05,0,0,1-.67-.43c-2.28-2.47-4.33-5.12-6.37-7.78-.07-.1-.15-.25-.07-.34s.12-.08.19-.1A36,36,0,0,1,258.47,13.57Zm65.26-1.44q-2.4-2.19-4.57-4.6c-.62-.67-1.18-1.39-1.75-2.1-.34-.44-1.89-2-1.39-2.56a.9.9,0,0,1,.75-.23h2.12c2.1,0,4.22-.06,6.34,0,1,0,2.11.05,3.17.05.44,0,2.48-.27,2.63.23a.89.89,0,0,1-.1.56,17,17,0,0,1-2.24,3.2c-1.35,1.83-2.76,3.6-4.09,5.44a.66.66,0,0,1-.29.26C324.11,12.44,323.89,12.28,323.73,12.13Zm14.54-.06c-.1.16-.31.17-.49.18l-6.11.1c-1.66,0-3.31.05-5,0-.15,0-.31,0-.4-.14s0-.37.07-.55C328,9,330.22,6.57,332.06,4a1.34,1.34,0,0,1,.23-.29.54.54,0,0,1,.36-.16c.25,0,.45.22.6.43,1.8,2.44,3.34,5,4.91,7.61A.57.57,0,0,1,338.27,12.07Zm1.82-9.78c1.3,0,2.62,0,3.93,0,.72,0,1.43,0,2.15,0s1.46,0,.92.94a16.16,16.16,0,0,1-1,1.32c-.66.87-1.29,1.75-1.92,2.64S343,8.75,342.45,9.5q-.43.59-.9,1.14a7,7,0,0,1-.67.92.79.79,0,0,1-.88.16,1.14,1.14,0,0,1-.33-.36l-3.33-4.89L334.65,4c-.34-.48-1.3-1.69-.07-1.7C336.43,2.28,338.25,2.28,340.09,2.29Zm21.54,7.4c-.45-.61-.89-1.23-1.33-1.86L358.25,5c-.27-.36-1.64-1.87-1.09-2.33a1.08,1.08,0,0,1,.75-.19h9.83a.94.94,0,0,1,.55.11.67.67,0,0,1,.2.79,6.48,6.48,0,0,1-.81,1.29c-.37.54-.76,1.06-1.12,1.6-1,1.4-2,2.79-3.07,4.13a1,1,0,0,1-.51.41C362.39,10.91,361.91,10.08,361.63,9.69Zm14.25,3.15a.46.46,0,0,1,.15.57c-.15.32-.5.63-.68.94s-.5.81-.75,1.22l-1.47,2.37c-.43.71-.9,1.39-1.35,2.09-.31.48-.9,2.08-1.66,2.16a.77.77,0,0,1-.25,0,1.72,1.72,0,0,1-.81-.79c-1.52-2.41-3-4.82-4.56-7.22-.16-.26-.65-1.26,0-1.26l11.06-.08A.66.66,0,0,1,375.88,12.84Zm-3-1.12c-.86,0-1.73,0-2.59,0l-5.19,0a1,1,0,0,1-.59-.16c-.36-.35.9-1.77,1.12-2.1l1.73-2.62c.49-.76,1-1.51,1.5-2.26.21-.33.67-1.42,1.18-1.45a.27.27,0,0,1,.17,0c.54.25.82,1.12,1.1,1.6.46.78.9,1.56,1.36,2.33s1,1.71,1.5,2.55c.31.5.94,1.07,1,1.68C375.33,12.12,373.43,11.72,372.89,11.72Zm9.05-9.91a1.3,1.3,0,0,1,.29.08c.67.33-.33,1.47-.59,2-.47.84-.93,1.68-1.4,2.51s-1.13,1.91-1.74,2.84c-.31.46-.69.9-1,1.37-.19.29-.28.94-.8.8-.32-.07-.54-.39-.71-.68l-4.23-7.07c-.2-.33-.59-1-.24-1.39s.77-.16,1.09-.16L374.21,2l3.23-.12A28.18,28.18,0,0,1,381.94,1.81Zm-110.68.71h.14a.33.33,0,0,1,.28.1c.12.13,0,.32-.08.46-1.89,2.79-3.66,5.65-5.66,8.37a4.33,4.33,0,0,1-.83,1.06.83.83,0,0,1-.9.1,1.25,1.25,0,0,1-.36-.46,96.05,96.05,0,0,1-4.76-9.92.43.43,0,0,1,0-.33c.06-.13.26-.14.41-.14Zm-15.59-.9a.62.62,0,0,1-.08.43c-.8,1.5-1.77,2.85-2.69,4.26S251,9.46,250.1,11c-.09.16-.21.35-.4.39s-.48-.17-.65-.37a57.24,57.24,0,0,1-3.55-4.91c-.54-.83-1.05-1.68-1.54-2.55-.2-.35-1.24-1.66-.83-2a1,1,0,0,1,.67-.17q5.67,0,11.36,0a.71.71,0,0,1,.41.09A.36.36,0,0,1,255.67,1.62Zm-67.14,3.7a.19.19,0,0,0,0,.09C188.82,6,190,9.06,191,8.12A13.54,13.54,0,0,0,193,5.52c.13-.2.26-.47.13-.67a.61.61,0,0,0-.54-.2l-3.28-.16c-.27,0-.59,0-.74.23A.64.64,0,0,0,188.53,5.32Zm3.17.08c.27.38-.69,1.41-.9,1.74-.11.17-.28.35-.46.27-.37-.17-.72-1.19-.93-1.66,0,0,0-.09-.06-.12s-.11-.22-.07-.31.21-.13.33-.15C190,5.15,191.43,5,191.7,5.4ZM173.8,8l1.39-2.08c.22-.3,1-1.08.59-1.48a.63.63,0,0,0-.52-.13l-3.52.11c-.26,0-.61.06-.69.32a.41.41,0,0,0,0,.27,1.51,1.51,0,0,0,.12.26c.52.9,1.13,1.74,1.6,2.65.12.22.28.47.52.47S173.68,8.19,173.8,8Zm-1.32-1.92c-.13-.24-.19-.59,0-.76a.77.77,0,0,1,.45-.11h1.21c.15,0,.31,0,.38.13a.41.41,0,0,1-.08.39A4,4,0,0,1,173.55,7C173,7.35,172.72,6.53,172.48,6.08ZM38.57,5.32a.19.19,0,0,0,0,.09C38.85,6,40,9.06,41.05,8.12A13.54,13.54,0,0,0,43,5.52c.13-.2.26-.47.13-.67a.61.61,0,0,0-.54-.2L39.3,4.49c-.27,0-.59,0-.74.23A.64.64,0,0,0,38.57,5.32Zm3.17.08c.27.38-.69,1.41-.9,1.74-.11.17-.28.35-.46.27-.37-.17-.72-1.19-.94-1.66l0-.12c0-.09-.11-.22-.07-.31s.21-.13.33-.15C40.05,5.15,41.47,5,41.74,5.4ZM147.4,5.19c-.27,0-.59,0-.67.3a.6.6,0,0,0,.09.46c.05.12.11.23.17.35l1.72,3.55c.19.38.46.79.86.79a1,1,0,0,0,.68-.41c1.08-1.15,2-2.5,2.94-3.74.26-.34.46-.67.24-1.09a.93.93,0,0,0-1-.44C150.75,5.11,149.07,5.13,147.4,5.19Zm4.85.75c.08.1,0,.28-.09.4a18.06,18.06,0,0,1-1.37,1.85c-.24.24-.79,1-1.19,1a.32.32,0,0,1-.24-.2,8.55,8.55,0,0,1-.94-1.7L148,6.39a.38.38,0,0,1,0-.29c0-.15.24-.18.39-.18,1.21,0,2.4-.09,3.61-.08A.32.32,0,0,1,152.25,5.94ZM74.42,3.64a.45.45,0,0,0-.35.29.61.61,0,0,0,.12.45c.34.54.74,1,1,1.53s.81,1.23,1.2,1.85c.12.2.31.43.53.4s.28-.18.39-.33c.78-1.21,1.6-2.42,2.39-3.62a.49.49,0,0,0,.12-.38.33.33,0,0,0-.27-.21,1.07,1.07,0,0,0-.25,0c-1.34,0-2.67,0-4,0A6.76,6.76,0,0,0,74.42,3.64Zm4.21.76a.29.29,0,0,1-.07.3c-.31.45-.6.9-.92,1.33-.12.19-.45.77-.67.81a.4.4,0,0,1-.31-.15.39.39,0,0,1-.08-.1c-.2-.25-1.46-1.95-1.2-2.18a.48.48,0,0,1,.29-.07l2.69,0C78.46,4.3,78.58,4.31,78.63,4.4ZM30,15.77a.8.8,0,0,0,.13.67l.1.13c.49.74,2.09,4.05,3.3,2.6a18.63,18.63,0,0,0,1.86-3,.7.7,0,0,0,.11-.6A.66.66,0,0,0,35,15.3a14.29,14.29,0,0,0-4.28.08A.87.87,0,0,0,30,15.77Zm4.39.27c.12.1.08.3,0,.45a7.29,7.29,0,0,1-1.15,2,.53.53,0,0,1-.39.21c-.18,0-.3-.15-.41-.29C32.16,18,30.3,16,31.84,16L34.15,16A.43.43,0,0,1,34.42,16ZM113.25,4.93c.73,1.18,1.16,2.55,1.88,3.76.12.2.28.41.51.41a.7.7,0,0,0,.47-.33c.86-1.18,1.58-2.51,2.37-3.74.09-.14.18-.3.11-.43a.16.16,0,0,0-.09-.12,1,1,0,0,0-.38-.1l-4.54-.16a.56.56,0,0,0-.39.09C113,4.48,113.13,4.74,113.25,4.93ZM115,5l2.19.13a.28.28,0,0,1,.21.07c.08.09,0,.23-.07.32-.56.69-.81,1.54-1.32,2.24-.1.14-.26.28-.41.22s-.13-.14-.17-.23c-.32-.75-.56-1.54-.94-2.27a.41.41,0,0,1-.07-.36.43.43,0,0,1,.39-.12ZM23.84,8l1.39-2.08c.21-.3,1-1.08.59-1.48a.64.64,0,0,0-.52-.13l-3.52.11c-.26,0-.61.06-.69.32a.41.41,0,0,0,0,.27,1.51,1.51,0,0,0,.12.26c.52.9,1.13,1.74,1.6,2.65.12.22.28.47.52.47S23.71,8.19,23.84,8ZM22.52,6.08c-.13-.24-.19-.59,0-.76A.77.77,0,0,1,23,5.21h1.21c.15,0,.31,0,.38.13a.41.41,0,0,1-.08.39A4,4,0,0,1,23.59,7C23,7.35,22.76,6.53,22.52,6.08Zm117,10.76,1.65,2.51c.27.4.86,1.9,1.46,1.81a.83.83,0,0,0,.47-.38c.88-1.16,1.68-2.38,2.48-3.6.13-.21.27-.47.13-.66s-.33-.18-.52-.18h-5.43c-.12,0-.25,0-.31.11S139.42,16.72,139.5,16.84Zm4.68.34c0,.12,0,.25-.1.36-.45.65-.91,1.32-1.35,2-.07.08-.15.18-.25.16s-.58-.69-.69-.81a11.07,11.07,0,0,1-1-1.29c-.1-.13-.18-.33-.08-.45a.42.42,0,0,1,.34-.11l1.86,0C143.2,17.08,144.06,16.93,144.18,17.18ZM132.59,5.11a.54.54,0,0,0-.06.25,1.1,1.1,0,0,0,.29.66,8.28,8.28,0,0,1,1.07,1.58c.46.8,1,1.58,1.48,2.33.13.19.32.41.55.37.48-.07,1-1.49,1.25-1.87l1.48-2.51c.15-.22.29-.53.14-.76a.73.73,0,0,0-.62-.22l-4.63-.16A1,1,0,0,0,132.59,5.11Zm4.43.64a.5.5,0,0,1,.43.16c.09.15,0,.35-.11.5-.34.53-.7,1.06-1.05,1.58l-.39.58a.43.43,0,0,1-.22.2c-.19.09-1.44-2.12-1.6-2.39s-.19-.32-.12-.47.31-.19.5-.19C135.3,5.74,136.16,5.74,137,5.75Zm-69.2,8.82a.42.42,0,0,0-.35.12.11.11,0,0,0,0,.06.34.34,0,0,0,.06.25c.28.49.51,1,.81,1.49.44.6.87,1.19,1.27,1.84.12.17.26.37.47.39s.42-.24.54-.46a28.49,28.49,0,0,1,1.77-2.61c.2-.29.4-.67.18-.94a.77.77,0,0,0-.69-.2Zm3.11.82c.93.22-.13,1.2-.48,1.56-.81.79-1.15-.31-1.6-.95a.57.57,0,0,1-.12-.31.37.37,0,0,1,.32-.34A6.24,6.24,0,0,1,70.93,15.39ZM100,7.59a3,3,0,0,0,.17-.28c.66-1.09,1.36-2.15,2-3.26.09-.18.2-.39.1-.58s-.37-.23-.61-.23H97.69a.73.73,0,0,0-.59.16c-.22.24-.07.62.09.89.37.67.75,1.33,1.13,2,.22.38.67,1.65,1.2,1.67C99.74,8,99.88,7.77,100,7.59Zm-.78-1c-.35-.64-.75-1.25-1.07-1.92-.07-.16-.12-.36,0-.47a.4.4,0,0,1,.27-.06h.26l2.14-.06a.3.3,0,0,1,.21.06c.11.09,0,.27-.05.4-.44.68-.73,1.43-1.18,2.13a.36.36,0,0,1-.15.15C99.47,6.89,99.28,6.74,99.2,6.58Zm6,9.12,1.33,2.07c.28.45.74,1.6,1.27,1.77.27.08.53-.18.7-.42.81-1.14,1.69-2.25,2.5-3.41a.47.47,0,0,0,.13-.4c0-.15-.19-.21-.36-.24h-.19l-5-.1c-.18,0-.43,0-.52.2S105.07,15.54,105.18,15.7Zm3.5.17h.55a.37.37,0,0,1,.26.08c.1.13,0,.3-.1.42a17.44,17.44,0,0,0-1.14,1.86c-.08.14-.19.29-.33.27a.41.41,0,0,1-.27-.13,9.36,9.36,0,0,1-1.33-2c-.07-.12-.13-.28,0-.39a.39.39,0,0,1,.32-.1ZM63.05,8c.64-.84,1.27-1.68,1.89-2.54a.68.68,0,0,0,.19-.55.47.47,0,0,0-.31-.32,10.12,10.12,0,0,0-3.56-.13c-.2,0-.43,0-.53.18-.31.31.37,1.08.51,1.33.35.63.68,1.26,1,1.91.09.17.24.38.45.36a.08.08,0,0,0,.07,0A.62.62,0,0,0,63.05,8ZM62.47,7c-.17-.28-.29-.58-.44-.86a2.43,2.43,0,0,0-.3-.52c-.08-.12-.16-.29-.09-.41A.37.37,0,0,1,62,5.13a15.87,15.87,0,0,1,1.93-.23.4.4,0,0,1,.35.29.48.48,0,0,1-.13.37c-.3.47-.61.94-.92,1.41-.1.15-.25.34-.44.29S62.55,7.13,62.47,7Z"/></svg>