<svg id="e16e9c5b-123d-47bf-8878-f7fa178a65b1" data-name="Layer 1" xmlns="http://www.w3.org/2000/svg" viewBox="0 0 453.16 32.43"><defs><style>.ba930a89-04cd-492a-91c0-5886aa199fb6{fill:#d7a621;}.b1cf6f83-d856-4a8d-9a0b-d4a5f751abfb{fill:#d7d284;}.e733d551-6017-49f5-b16a-941173e5cd50{fill:#3e342f;}</style></defs><path class="ba930a89-04cd-492a-91c0-5886aa199fb6" d="M446.76,17.61a1.29,1.29,0,0,1,.93.12,1,1,0,0,1,.36.38,1.56,1.56,0,0,1,0,1,10.59,10.59,0,0,1-4.79,6.24c-4.52,2.74-10.6,2.21-15.13-.22a16.24,16.24,0,0,1-3.82-2.81,7.19,7.19,0,0,1-1.41-1.8c-.34-.66-.93-2.38,0-2.76a1.83,1.83,0,0,1,1-.08A5.37,5.37,0,0,1,426.47,19c.75.65,1.41,1.38,2.15,2a11.55,11.55,0,0,0,7.67,2.79c3.12,0,6.66-1.39,8.32-4.14C445.14,18.8,445.66,17.89,446.76,17.61Zm-69.1,4a19,19,0,0,0,10.95,8.73,17.59,17.59,0,0,0,2.95.62,19.56,19.56,0,0,0,6.24-.23A14.43,14.43,0,0,0,406,26.17a19.75,19.75,0,0,0,3.33-6.36,1.83,1.83,0,0,0-.14-2c-1-1-2.95-.28-3.82.55a8.91,8.91,0,0,0-1.63,2.47,8.76,8.76,0,0,1-1.55,2.12,12.44,12.44,0,0,1-4.48,2.81,11.88,11.88,0,0,1-12.32-3,12.17,12.17,0,0,1-2-2.75,8.3,8.3,0,0,0-1.68-2.33,5.82,5.82,0,0,0-4-1.08C375.37,16.65,377.07,20.58,377.66,21.62Zm1.9-7,.05-.07c.58-1-.35-1.61-.94-2.19s-1.29-1.47-2-2.11a13.81,13.81,0,0,0-5.18-2.86,11.22,11.22,0,0,0-8.9,1.08A7.08,7.08,0,0,0,360,11.11c-.58,1.14-1.17,4,.8,4,1.48,0,2.7-.35,3.41-2,1.6-3.66,6.5-3.38,9-.86.57.57,1,1.25,1.63,1.77a5.43,5.43,0,0,0,2,.94C377.59,15.19,379,15.47,379.56,14.63ZM357.92,18c-1.9,2.26-3.45,4.85-5.76,6.68a13,13,0,0,1-13.3,1.41,14.29,14.29,0,0,1-3.19-2.28A12,12,0,0,1,333,20.44a10.28,10.28,0,0,0-1.19-2c-.79-.89-3.95-1.87-4.28,0a3,3,0,0,0,.4,1.68,19.85,19.85,0,0,0,7.09,7.82A20.28,20.28,0,0,0,342,30.67a16.58,16.58,0,0,0,7.21-.3,17.4,17.4,0,0,0,4.62-1.88,16.61,16.61,0,0,0,7.75-9.64,2.26,2.26,0,0,0-.09-1.75,1.62,1.62,0,0,0-1.91-.47A4.12,4.12,0,0,0,357.92,18Zm-44.56-1.75A4,4,0,0,0,315.48,15c.59-.58,1.09-1.26,1.72-1.8a5.9,5.9,0,0,1,5.65-.7,12.44,12.44,0,0,1,3.84,2.55,4.29,4.29,0,0,0,1.25.84,1.34,1.34,0,0,0,1.4-.24c.06-.07.11-.15.16-.22a1.52,1.52,0,0,0,0-1.15A6.94,6.94,0,0,0,327.67,12a10.68,10.68,0,0,0-13.62-.58,8.92,8.92,0,0,0-1.9,2,3.43,3.43,0,0,0-.56,1,1.58,1.58,0,0,0,.11,1.15A1.61,1.61,0,0,0,313.36,16.25Zm-1.74,2.39a11.91,11.91,0,0,0-.79,1.5,12.71,12.71,0,0,1-3.65,4.63,8.83,8.83,0,0,1-5.93,1.94,11.17,11.17,0,0,1-6-2.28,11.83,11.83,0,0,1-3.72-4.82,6,6,0,0,0-.64-1.35,2.57,2.57,0,0,0-2.1-.83H288c-1,0-3-.27-3.28,1.14a3,3,0,0,0,.33,1.74,17.82,17.82,0,0,0,11.8,10.21,16.35,16.35,0,0,0,4.51.45c5-.2,9.69-2.47,12-7a15.37,15.37,0,0,0,1.37-4,2.29,2.29,0,0,0-.24-2.11,1.51,1.51,0,0,0-1.56-.33A2.61,2.61,0,0,0,311.62,18.64Zm99-4.53A5.72,5.72,0,0,1,419.38,13a24.56,24.56,0,0,1,1.67,2,2.79,2.79,0,0,0,2.19,1.22,1.56,1.56,0,0,0,1.65-.74c.37-.6.15-1-.1-1.61a6.33,6.33,0,0,0-1.73-1.91c-2.26-2.12-4.74-3.86-8.15-3.49a11.49,11.49,0,0,0-3,.26c-3.2.28-5.05,2.27-6.31,5a1.43,1.43,0,0,0,1,2.18A3.25,3.25,0,0,0,410.61,14.11ZM269,18.31a8.69,8.69,0,0,0-1.63,2.47,8.76,8.76,0,0,1-1.55,2.12,12.44,12.44,0,0,1-4.48,2.81,11.88,11.88,0,0,1-12.32-3A12.17,12.17,0,0,1,247,20a8.3,8.3,0,0,0-1.68-2.33,5.82,5.82,0,0,0-4-1.08c-2.39.06-.69,4-.1,5a19,19,0,0,0,10.95,8.73,17.59,17.59,0,0,0,3,.62,19.56,19.56,0,0,0,6.24-.23,14.43,14.43,0,0,0,8.21-4.57,19.75,19.75,0,0,0,3.33-6.36,1.83,1.83,0,0,0-.14-2C271.77,16.75,269.84,17.48,269,18.31Zm-92-2.06A4,4,0,0,0,179.07,15c.59-.58,1.09-1.26,1.72-1.8a5.9,5.9,0,0,1,5.65-.7,12.44,12.44,0,0,1,3.84,2.55,4.29,4.29,0,0,0,1.25.84,1.34,1.34,0,0,0,1.4-.24c.06-.07.11-.15.16-.22a1.48,1.48,0,0,0,0-1.15A6.79,6.79,0,0,0,191.26,12a10.68,10.68,0,0,0-13.62-.58,8.92,8.92,0,0,0-1.9,2,3.43,3.43,0,0,0-.56,1,1.58,1.58,0,0,0,.11,1.15A1.61,1.61,0,0,0,177,16.25Zm66.2-1.62,0-.07c.58-1-.35-1.61-.94-2.19s-1.29-1.47-2-2.11A13.81,13.81,0,0,0,235,7.4a11.21,11.21,0,0,0-8.9,1.08,7.08,7.08,0,0,0-2.58,2.63c-.58,1.14-1.18,4,.8,4,1.48,0,2.7-.35,3.41-2,1.6-3.66,6.49-3.38,9-.86.57.57,1,1.25,1.63,1.77a5.43,5.43,0,0,0,2,.94C241.18,15.19,242.57,15.47,243.15,14.63Zm-68,4a13.3,13.3,0,0,0-.78,1.5,12.71,12.71,0,0,1-3.65,4.63,8.83,8.83,0,0,1-5.93,1.94,11.17,11.17,0,0,1-6-2.28,11.67,11.67,0,0,1-3.72-4.82,6,6,0,0,0-.64-1.35,2.57,2.57,0,0,0-2.1-.83h-.87c-1,0-3-.27-3.28,1.14a2.9,2.9,0,0,0,.33,1.74,17.82,17.82,0,0,0,11.8,10.21,16.31,16.31,0,0,0,4.51.45c5-.2,9.69-2.47,12-7a15.37,15.37,0,0,0,1.37-4A2.29,2.29,0,0,0,178,17.9a1.51,1.51,0,0,0-1.56-.33A2.67,2.67,0,0,0,175.2,18.64ZM221.51,18c-1.9,2.26-3.45,4.85-5.76,6.68a13,13,0,0,1-13.3,1.41,14.58,14.58,0,0,1-3.2-2.28,12.4,12.4,0,0,1-2.64-3.37,9.76,9.76,0,0,0-1.18-2c-.79-.89-4-1.87-4.28,0a3,3,0,0,0,.4,1.68,19.85,19.85,0,0,0,7.09,7.82,20.28,20.28,0,0,0,6.94,2.74,16.58,16.58,0,0,0,7.21-.3,17.4,17.4,0,0,0,4.62-1.88,16.61,16.61,0,0,0,7.75-9.64,2.26,2.26,0,0,0-.09-1.75,1.62,1.62,0,0,0-1.91-.47A4.12,4.12,0,0,0,221.51,18Zm52.69-3.89A5.72,5.72,0,0,1,283,13a24.56,24.56,0,0,1,1.67,2,2.79,2.79,0,0,0,2.19,1.22,1.56,1.56,0,0,0,1.65-.74,1.53,1.53,0,0,0-.1-1.61,6.33,6.33,0,0,0-1.73-1.91c-2.26-2.12-4.74-3.86-8.15-3.49a11.49,11.49,0,0,0-3,.26c-3.2.28-5.05,2.27-6.31,5a1.43,1.43,0,0,0,1,2.18A3.25,3.25,0,0,0,274.2,14.11ZM85.57,18c-1.9,2.26-3.45,4.85-5.76,6.68a13,13,0,0,1-13.3,1.41,14.58,14.58,0,0,1-3.2-2.28,12.4,12.4,0,0,1-2.64-3.37,9.76,9.76,0,0,0-1.18-2c-.79-.89-4-1.87-4.28,0a3,3,0,0,0,.4,1.68,19.85,19.85,0,0,0,7.09,7.82,20.28,20.28,0,0,0,6.94,2.74,16.58,16.58,0,0,0,7.21-.3,17.4,17.4,0,0,0,4.62-1.88,16.61,16.61,0,0,0,7.75-9.64,2.26,2.26,0,0,0-.09-1.75,1.62,1.62,0,0,0-1.91-.47A4.12,4.12,0,0,0,85.57,18Zm-46.31.64a13.3,13.3,0,0,0-.78,1.5,12.71,12.71,0,0,1-3.65,4.63,8.83,8.83,0,0,1-5.93,1.94,11.17,11.17,0,0,1-6-2.28,11.83,11.83,0,0,1-3.72-4.82,6,6,0,0,0-.64-1.35,2.57,2.57,0,0,0-2.1-.83H15.6c-1,0-3-.27-3.28,1.14a2.9,2.9,0,0,0,.33,1.74,17.82,17.82,0,0,0,11.8,10.21A16.31,16.31,0,0,0,29,31c5-.2,9.69-2.47,12-7a15.37,15.37,0,0,0,1.37-4,2.29,2.29,0,0,0-.24-2.11,1.51,1.51,0,0,0-1.56-.33A2.67,2.67,0,0,0,39.26,18.64Zm67.95-4,.05-.07c.58-1-.35-1.61-.94-2.19s-1.29-1.47-2-2.11A13.81,13.81,0,0,0,99.1,7.4a11.21,11.21,0,0,0-8.9,1.08,7.08,7.08,0,0,0-2.58,2.63c-.58,1.14-1.18,4,.8,4,1.48,0,2.7-.35,3.41-2,1.6-3.66,6.49-3.38,9-.86.57.57,1,1.25,1.63,1.77a5.43,5.43,0,0,0,2,.94C105.24,15.19,106.63,15.47,107.21,14.63ZM43.13,15c.59-.58,1.09-1.26,1.72-1.8a5.9,5.9,0,0,1,5.65-.7,12.44,12.44,0,0,1,3.84,2.55,4.29,4.29,0,0,0,1.25.84,1.34,1.34,0,0,0,1.4-.24c.06-.07.11-.15.16-.22a1.48,1.48,0,0,0,0-1.15A6.79,6.79,0,0,0,55.32,12a10.68,10.68,0,0,0-13.62-.58,8.92,8.92,0,0,0-1.9,2,3.43,3.43,0,0,0-.56,1,1.58,1.58,0,0,0,.11,1.15,1.61,1.61,0,0,0,1.66.65A4,4,0,0,0,43.13,15ZM133,18.31a8.69,8.69,0,0,0-1.63,2.47,8.76,8.76,0,0,1-1.55,2.12,12.44,12.44,0,0,1-4.48,2.81,11.88,11.88,0,0,1-12.32-3,12.17,12.17,0,0,1-2-2.75,8.3,8.3,0,0,0-1.68-2.33,5.82,5.82,0,0,0-4-1.08c-2.39.06-.69,4-.1,5a19,19,0,0,0,11,8.73,17.59,17.59,0,0,0,2.95.62,19.56,19.56,0,0,0,6.24-.23,14.43,14.43,0,0,0,8.21-4.57A19.75,19.75,0,0,0,137,19.81a1.83,1.83,0,0,0-.14-2C135.83,16.75,133.9,17.48,133,18.31Zm5.23-4.2A5.72,5.72,0,0,1,147,13a24.56,24.56,0,0,1,1.67,2,2.79,2.79,0,0,0,2.19,1.22,1.56,1.56,0,0,0,1.65-.74,1.53,1.53,0,0,0-.1-1.61,6.33,6.33,0,0,0-1.73-1.91c-2.26-2.12-4.74-3.86-8.15-3.49a11.49,11.49,0,0,0-3,.26c-3.2.28-5,2.27-6.31,5a1.43,1.43,0,0,0,1,2.18A3.25,3.25,0,0,0,138.26,14.11Z"/><path class="b1cf6f83-d856-4a8d-9a0b-d4a5f751abfb" d="M308.64,15.89a1.55,1.55,0,0,1-1.88-.42,2.22,2.22,0,0,1,.25-2.19,16.05,16.05,0,0,1,5-5.6A15.35,15.35,0,0,1,321.73,5a12.69,12.69,0,0,1,2.67.49,17.86,17.86,0,0,1,6.54,3.63,35,35,0,0,1,2.8,2.64c.71.75,1.84,1.82,1.72,2.95a1.88,1.88,0,0,1-1,1.43,2.43,2.43,0,0,1-2.45-.34,7.15,7.15,0,0,1-1.65-2.2,11.63,11.63,0,0,0-1.79-2.11A12.13,12.13,0,0,0,317,8.75a14.12,14.12,0,0,0-6.88,5.72A3.47,3.47,0,0,1,308.64,15.89Zm25.17,2.28a1.87,1.87,0,0,0,.17,1.57,11.23,11.23,0,0,0,9.15,6.4A12,12,0,0,0,353,22.47a8.06,8.06,0,0,0,2.29-3.78,2,2,0,0,0-.13-1.31c-.53-.93-1.7-.63-2.58-.65a6.74,6.74,0,0,0-3.35.75,7,7,0,0,0-1.63,1.12c-.44.4-.74,1-1.17,1.4a5.9,5.9,0,0,1-4.89,2,6.61,6.61,0,0,1-4.18-2.74,5.29,5.29,0,0,0-1.56-1.53,1.63,1.63,0,0,0-1.68.11A1.65,1.65,0,0,0,333.81,18.17Zm-27.72.14a12.4,12.4,0,0,1-.88,1.49c-1.56,2.25-5.1,3.28-7.57-.32a4.76,4.76,0,0,0-2.36-2.09c-.82-.23-2.44-.2-2.71.83a2.5,2.5,0,0,0,.31,1.7A10,10,0,0,0,302,25.58a8,8,0,0,0,3.24-.78l.31-.15a8.37,8.37,0,0,0,4.13-5.44,1.44,1.44,0,0,0-1.32-1.87A2.33,2.33,0,0,0,306.09,18.31Zm79.25-2.95a1.09,1.09,0,0,0,.56-.52,1.6,1.6,0,0,0,.18-.67,4,4,0,0,0-1.18-2.6A30.16,30.16,0,0,0,380,6.69a24,24,0,0,0-11.61-5,15.71,15.71,0,0,0-12.83,3.4,19.46,19.46,0,0,0-6.32,8.66c-.44,1.3-.16,1.72,1.24,1.69s2.76-.11,4.14-.12a1.93,1.93,0,0,0,1.62-.83,26,26,0,0,0,2.41-3.87c2.7-4.9,9.2-5.76,14.06-4a18.12,18.12,0,0,1,5.76,3.57,20.67,20.67,0,0,1,2.35,2.42,10.63,10.63,0,0,0,2.45,2.12C383.83,15.08,384.66,15.62,385.34,15.36Zm-1,2.25c-.75,1.15.74,3.06,1.52,3.85a12.05,12.05,0,0,0,7.78,3.73h.61a9.78,9.78,0,0,0,6.27-2.81,9.63,9.63,0,0,0,1.71-2.3,2.84,2.84,0,0,0,.4-1.59c-.11-.71-.64-.95-1.27-1a6.32,6.32,0,0,0-3.32.58c-1.57.73-2.57,2.29-4.21,2.94a4,4,0,0,1-3.33-.11,2.49,2.49,0,0,1-1.19-1.14,7,7,0,0,0-1.1-1.61,3.11,3.11,0,0,0-2.51-.93C385.17,17.22,384.67,17.08,384.32,17.61Zm20-5a7,7,0,0,1,5.31-5c6.72-1.67,11,0,16,5.2a24.84,24.84,0,0,1,2.12,2.67,2.52,2.52,0,0,0,2.64,1c.89-.09,1.1-.4,1-1.3a1,1,0,0,0-.05-.22,16.64,16.64,0,0,0-4.93-7.24,12.71,12.71,0,0,0-3.16-1.9c-2.93-1.42-5.89-2.81-9.09-2.66a19,19,0,0,0-4.74.41A12.66,12.66,0,0,0,401.58,8a28,28,0,0,0-3.27,5.89c-.54,1.19-.16,1.71,1.17,1.85A4.29,4.29,0,0,0,404.3,12.65Zm27,5.52a1.54,1.54,0,0,0-.74-.06,1.19,1.19,0,0,0-.8.49,1.27,1.27,0,0,0,0,1.17,2.75,2.75,0,0,0,.81.89,8.45,8.45,0,0,0,1.56,1c3.49,1.71,9.54,1.45,11.34-2.67a.88.88,0,0,0,0-.83c-.2-.34-.7-.33-1.07-.2-1.09.39-1.83,1.41-2.79,2.05-2.19,1.44-5,.46-6.93-1A5.83,5.83,0,0,0,431.26,18.17ZM267.89,12.65a7,7,0,0,1,5.31-5c6.72-1.67,11,0,16,5.2a26.15,26.15,0,0,1,2.12,2.67,2.52,2.52,0,0,0,2.64,1c.88-.09,1.1-.4,1-1.3a1,1,0,0,0-.05-.22,16.72,16.72,0,0,0-4.93-7.24,12.71,12.71,0,0,0-3.16-1.9c-2.93-1.42-5.89-2.81-9.09-2.66a19,19,0,0,0-4.74.41A12.66,12.66,0,0,0,265.17,8a28,28,0,0,0-3.27,5.89c-.55,1.19-.16,1.71,1.17,1.85A4.29,4.29,0,0,0,267.89,12.65Zm-98.21,5.66a13.88,13.88,0,0,1-.88,1.49c-1.56,2.25-5.1,3.28-7.57-.32a4.76,4.76,0,0,0-2.36-2.09c-.83-.23-2.44-.2-2.71.83a2.5,2.5,0,0,0,.31,1.7,10,10,0,0,0,9.13,5.66,8,8,0,0,0,3.23-.78,2.3,2.3,0,0,0,.32-.15,8.37,8.37,0,0,0,4.13-5.44A1.44,1.44,0,0,0,172,17.34,2.33,2.33,0,0,0,169.68,18.31Zm4-3.84a14.12,14.12,0,0,1,6.88-5.72,12.13,12.13,0,0,1,11.59,2.73A11.63,11.63,0,0,1,194,13.59a7.15,7.15,0,0,0,1.65,2.2,2.43,2.43,0,0,0,2.45.34,1.88,1.88,0,0,0,1-1.43c.12-1.13-1-2.2-1.72-2.95a36.73,36.73,0,0,0-2.8-2.64A17.86,17.86,0,0,0,188,5.48,12.81,12.81,0,0,0,185.32,5a15.35,15.35,0,0,0-9.74,2.69,16.05,16.05,0,0,0-5,5.6,2.19,2.19,0,0,0-.25,2.19,1.55,1.55,0,0,0,1.88.42A3.52,3.52,0,0,0,173.7,14.47Zm23.7,3.7a1.87,1.87,0,0,0,.17,1.57,11.2,11.2,0,0,0,9.14,6.4,12,12,0,0,0,9.83-3.67,8,8,0,0,0,2.28-3.78,2,2,0,0,0-.12-1.31c-.53-.93-1.7-.63-2.58-.65a6.74,6.74,0,0,0-3.35.75,7.33,7.33,0,0,0-1.64,1.12c-.43.4-.73,1-1.16,1.4a5.9,5.9,0,0,1-4.89,2,6.61,6.61,0,0,1-4.18-2.74,5.29,5.29,0,0,0-1.56-1.53,1.63,1.63,0,0,0-1.68.11A1.35,1.35,0,0,0,197.4,18.17Zm51.53-2.81a1.09,1.09,0,0,0,.56-.52,1.6,1.6,0,0,0,.18-.67,4.09,4.09,0,0,0-1.18-2.6,30.16,30.16,0,0,0-4.9-4.88,24,24,0,0,0-11.61-5,15.71,15.71,0,0,0-12.83,3.4,19.46,19.46,0,0,0-6.32,8.66c-.44,1.3-.16,1.72,1.23,1.69s2.77-.11,4.15-.12a1.93,1.93,0,0,0,1.62-.83,26,26,0,0,0,2.41-3.87c2.7-4.9,9.2-5.76,14.06-4a18.12,18.12,0,0,1,5.76,3.57,20.67,20.67,0,0,1,2.35,2.42,10.63,10.63,0,0,0,2.45,2.12C247.42,15.08,248.25,15.62,248.93,15.36Zm-1,2.25c-.75,1.15.74,3.06,1.52,3.85a12,12,0,0,0,7.78,3.73h.61a9.78,9.78,0,0,0,6.27-2.81,9.63,9.63,0,0,0,1.71-2.3,2.84,2.84,0,0,0,.4-1.59c-.11-.71-.64-.95-1.27-1a6.32,6.32,0,0,0-3.32.58c-1.58.73-2.57,2.29-4.22,2.94a4,4,0,0,1-3.33-.11,2.51,2.51,0,0,1-1.18-1.14,7.29,7.29,0,0,0-1.1-1.61,3.11,3.11,0,0,0-2.51-.93C248.76,17.22,248.26,17.08,247.91,17.61Zm-172.72,1c-.43.4-.73,1-1.16,1.4a5.9,5.9,0,0,1-4.89,2A6.61,6.61,0,0,1,65,19.27a5.29,5.29,0,0,0-1.56-1.53,1.63,1.63,0,0,0-1.68.11,1.35,1.35,0,0,0-.26.32,1.87,1.87,0,0,0,.17,1.57,11.2,11.2,0,0,0,9.14,6.4,12,12,0,0,0,9.83-3.67,8,8,0,0,0,2.28-3.78,2,2,0,0,0-.12-1.31c-.53-.93-1.7-.63-2.58-.65a6.74,6.74,0,0,0-3.35.75A7.33,7.33,0,0,0,75.19,18.6ZM63.11,14.7c.12-1.13-1-2.2-1.72-2.95a36.73,36.73,0,0,0-2.8-2.64,17.86,17.86,0,0,0-6.54-3.63A12.81,12.81,0,0,0,49.38,5a15.35,15.35,0,0,0-9.74,2.69,16.05,16.05,0,0,0-5,5.6,2.19,2.19,0,0,0-.25,2.19,1.55,1.55,0,0,0,1.88.42,3.52,3.52,0,0,0,1.47-1.42,14.12,14.12,0,0,1,6.88-5.72,12.13,12.13,0,0,1,11.59,2.73A11.63,11.63,0,0,1,58,13.59a7.15,7.15,0,0,0,1.65,2.2,2.43,2.43,0,0,0,2.45.34A1.88,1.88,0,0,0,63.11,14.7Zm68.84-2a7,7,0,0,1,5.31-5c6.72-1.67,11,0,16,5.2a26.15,26.15,0,0,1,2.12,2.67,2.52,2.52,0,0,0,2.64,1c.88-.09,1.1-.4,1-1.3a1,1,0,0,0-.05-.22A16.72,16.72,0,0,0,154,7.75a12.71,12.71,0,0,0-3.16-1.9c-2.93-1.42-5.89-2.81-9.09-2.66A19,19,0,0,0,137,3.6,12.66,12.66,0,0,0,129.23,8,28,28,0,0,0,126,13.93c-.55,1.19-.16,1.71,1.17,1.85A4.29,4.29,0,0,0,132,12.65Zm-19,2.71a1.09,1.09,0,0,0,.56-.52,1.6,1.6,0,0,0,.18-.67,4.09,4.09,0,0,0-1.18-2.6,30.16,30.16,0,0,0-4.9-4.88A24,24,0,0,0,96,1.66a15.71,15.71,0,0,0-12.83,3.4,19.46,19.46,0,0,0-6.32,8.66c-.44,1.3-.16,1.72,1.24,1.69s2.76-.11,4.14-.12a1.93,1.93,0,0,0,1.62-.83,26,26,0,0,0,2.41-3.87c2.7-4.9,9.2-5.76,14.06-4a18.12,18.12,0,0,1,5.76,3.57,20.67,20.67,0,0,1,2.35,2.42,10.63,10.63,0,0,0,2.45,2.12C111.48,15.08,112.31,15.62,113,15.36Zm-1,2.25c-.75,1.15.74,3.06,1.52,3.85a12,12,0,0,0,7.78,3.73h.61a9.78,9.78,0,0,0,6.27-2.81,9.63,9.63,0,0,0,1.71-2.3,2.84,2.84,0,0,0,.4-1.59c-.11-.71-.64-.95-1.27-1a6.32,6.32,0,0,0-3.32.58c-1.58.73-2.57,2.29-4.22,2.94a4,4,0,0,1-3.33-.11,2.51,2.51,0,0,1-1.18-1.14,7.29,7.29,0,0,0-1.1-1.61,3.11,3.11,0,0,0-2.51-.93C112.82,17.22,112.32,17.08,112,17.61Zm-78.23.7a13.88,13.88,0,0,1-.88,1.49c-1.56,2.25-5.1,3.28-7.57-.32a4.76,4.76,0,0,0-2.36-2.09c-.83-.23-2.44-.2-2.71.83a2.5,2.5,0,0,0,.31,1.7,10,10,0,0,0,9.13,5.66,8,8,0,0,0,3.23-.78,2.3,2.3,0,0,0,.32-.15,8.37,8.37,0,0,0,4.13-5.44A1.44,1.44,0,0,0,36,17.34,2.33,2.33,0,0,0,33.74,18.31Z"/><path class="e733d551-6017-49f5-b16a-941173e5cd50" d="M251.57,14.23a7.79,7.79,0,0,1-.93-1.43c-.34-.55-.73-1.1-1.12-1.63a29.82,29.82,0,0,0-5.39-5.77A23.89,23.89,0,0,0,242,3.82,22.88,22.88,0,0,0,234.46.64c-4.13-.9-9.06-1-12.94.88a13,13,0,0,0-2.76,1.86c-.43.39-.84.79-1.24,1.22-.88.94-1.75,1.8-2.53,2.81s-1.69,2.28-2.45,3.47a19.38,19.38,0,0,1-2.65,3.56c-1.44,1.35-3,1.56-4.9,1.63a6,6,0,0,1-3.56-1,12.59,12.59,0,0,1-2.21-2.58c-.75-.92-1.54-1.81-2.36-2.67a21.3,21.3,0,0,0-5.49-4.27,15.75,15.75,0,0,0-18.89,3.3,15.11,15.11,0,0,0-2.12,2.84c-.77,1.32-1.28,2.69-2.59,3.64a5.4,5.4,0,0,1-5.53.16c-2-.94-2.52-2.45-3.62-4.2A20.7,20.7,0,0,0,150.68,4a20,20,0,0,0-12-2.1,16.57,16.57,0,0,0-7.4,2.35,13.57,13.57,0,0,0-4.12,4.31,35.83,35.83,0,0,0-2.06,3.54c-.48,1-.75,2.26-1.64,3a3.58,3.58,0,0,1-2,.8,9.71,9.71,0,0,1-2.85-.18,5.53,5.53,0,0,1-3-1.55,7.79,7.79,0,0,1-.93-1.43c-.34-.55-.73-1.1-1.12-1.63a29.82,29.82,0,0,0-5.39-5.77A23.89,23.89,0,0,0,106,3.82,22.88,22.88,0,0,0,98.52.64c-4.13-.9-9.06-1-12.94.88a13,13,0,0,0-2.76,1.86c-.43.39-.84.79-1.24,1.22-.88.94-1.75,1.8-2.53,2.81s-1.69,2.28-2.45,3.47A19.38,19.38,0,0,1,74,14.44c-1.44,1.35-3,1.56-4.9,1.63a6,6,0,0,1-3.56-1,12.59,12.59,0,0,1-2.21-2.58c-.75-.92-1.54-1.81-2.36-2.67a21.3,21.3,0,0,0-5.49-4.27,15.75,15.75,0,0,0-18.89,3.3,15.11,15.11,0,0,0-2.12,2.84c-.77,1.32-1.28,2.69-2.59,3.64a4.37,4.37,0,0,1-4.51.44c-.87-.43-1.89-1.4-2.93-1.11s-1.51,1.57-2.5,1.51c-.72,0-1-.86-1.46-1.29a2.19,2.19,0,0,0-1.4-.62,3.67,3.67,0,0,0-2.22,1.17c-.89.78-1.83,1.23-2.93.6-.85-.49-1.39-1.55-2.42-1.7a3.1,3.1,0,0,0-2.19,1,3.06,3.06,0,0,1-2,.92c-.89,0-1.8,0-2.7,0L2,16.3c-.44,0-1.52-.2-1.86.16a.49.49,0,0,0-.09.45.69.69,0,0,0,.48.53,5.39,5.39,0,0,0,1.45,0l2.87-.05c1.8,0,3.91-.41,5.15,1.2a11.39,11.39,0,0,1,1.16,2.25,19.83,19.83,0,0,0,12.49,11,17.35,17.35,0,0,0,10.26-.34,15.43,15.43,0,0,0,9.26-9.61c.41-1.24.71-2.62,1.71-3.48s2.71-1,4.16-.91a7.29,7.29,0,0,1,3.76.83c1.32.87,1.89,2.49,2.61,3.9a17.06,17.06,0,0,0,5.52,6.08,19.86,19.86,0,0,0,14,3.6,19.83,19.83,0,0,0,14.2-9.34c.56-.94.84-2,1.32-3A5.48,5.48,0,0,1,92.58,17a6.42,6.42,0,0,1,2.68-.53,12.9,12.9,0,0,1,4.68.4,5.39,5.39,0,0,1,2.37,1.59,14.81,14.81,0,0,1,1.35,2.4A24,24,0,0,0,108.07,27a19.62,19.62,0,0,0,6.13,4,20.36,20.36,0,0,0,13.56.43,16.5,16.5,0,0,0,6.89-4.63,14.14,14.14,0,0,0,2.9-4.49c.65-1.61.7-3.23,2.4-4.13a8.55,8.55,0,0,1,4.36-.66,3,3,0,0,1,1.6,1.06,11.39,11.39,0,0,1,1.16,2.25,19.83,19.83,0,0,0,12.49,11,17.35,17.35,0,0,0,10.26-.34,15.43,15.43,0,0,0,9.26-9.61c.41-1.24.71-2.62,1.71-3.48s2.71-1,4.16-.91a7.29,7.29,0,0,1,3.76.83c1.32.87,1.89,2.49,2.61,3.9a17.06,17.06,0,0,0,5.52,6.08,19.86,19.86,0,0,0,14,3.6A19.83,19.83,0,0,0,225,22.55c.56-.94.84-2,1.32-3A5.48,5.48,0,0,1,228.52,17a6.42,6.42,0,0,1,2.68-.53,12.9,12.9,0,0,1,4.68.4,5.39,5.39,0,0,1,2.37,1.59,14.81,14.81,0,0,1,1.35,2.4A24,24,0,0,0,244,27a19.62,19.62,0,0,0,6.13,4,20.36,20.36,0,0,0,13.56.43,16.5,16.5,0,0,0,6.89-4.63,14.14,14.14,0,0,0,2.9-4.49c.65-1.61.7-3.23,2.4-4.13a9.61,9.61,0,0,1,4.87-.65,3,3,0,0,1,1.56,1,11.39,11.39,0,0,1,1.16,2.25,19.83,19.83,0,0,0,12.49,11,17.35,17.35,0,0,0,10.26-.34,15.43,15.43,0,0,0,9.26-9.61c.41-1.24.71-2.62,1.71-3.48s2.71-1,4.16-.91a7.29,7.29,0,0,1,3.76.83c1.32.87,1.89,2.49,2.61,3.9a17,17,0,0,0,5.53,6.08,19.82,19.82,0,0,0,14,3.6,19.89,19.89,0,0,0,14.21-9.34c.55-.94.83-2,1.32-3A5.37,5.37,0,0,1,364.94,17a6.34,6.34,0,0,1,2.67-.53,12.88,12.88,0,0,1,4.68.4,5.39,5.39,0,0,1,2.37,1.59,15.65,15.65,0,0,1,1.36,2.4,23.71,23.71,0,0,0,4.4,6.17,19.62,19.62,0,0,0,6.13,4,20.36,20.36,0,0,0,13.56.43A16.6,16.6,0,0,0,407,26.8a14.29,14.29,0,0,0,2.89-4.49c.65-1.61.7-3.23,2.4-4.13a9.49,9.49,0,0,1,5-.62,4.49,4.49,0,0,1,2.32.57,4.91,4.91,0,0,1,1.27,1.61,18,18,0,0,0,7.46,6.81,5.42,5.42,0,0,0,.69.32C434,29,440.15,29,444.64,25.76a12.29,12.29,0,0,0,3.7-4.37,11.31,11.31,0,0,0,.94-2.71c.21-1,.29-1.57,1.47-1.67l1.4-.15c.41,0,.92-.16,1-.57a.7.7,0,0,0-.44-.69c-.9-.39-1.86.15-2.76-.38-.49-.29-1-.78-1.53-.59s-.74,1.16-1.35,1.25c-.43.06-.77-.33-1-.66s-.67-.67-1.07-.52-.51,1.12-1.07,1.29a.59.59,0,0,1-.35,0,1.51,1.51,0,0,1-.63-.6c-.23-.36-.49-.78-.92-.78a.94.94,0,0,0-.76.5,3.28,3.28,0,0,1-.56.8c-.61.54-1.78.35-2.54.41a8.92,8.92,0,0,1-3.09-.18,4.56,4.56,0,0,1-2.43-1.52c-.78-1-1-2.24-1.65-3.3A20.7,20.7,0,0,0,423,4a20,20,0,0,0-12-2.1,16.61,16.61,0,0,0-7.4,2.35,13.57,13.57,0,0,0-4.12,4.31,35.83,35.83,0,0,0-2.06,3.54c-.48,1-.75,2.26-1.64,3a3.58,3.58,0,0,1-2,.8,9.71,9.71,0,0,1-2.85-.18,5.53,5.53,0,0,1-3-1.55,7.79,7.79,0,0,1-.93-1.43c-.34-.55-.73-1.1-1.12-1.63a29.82,29.82,0,0,0-5.39-5.77,23.89,23.89,0,0,0-2.16-1.58A22.79,22.79,0,0,0,370.87.64c-4.13-.9-9.06-1-12.93.88a12.8,12.8,0,0,0-2.77,1.86c-.43.39-.84.79-1.24,1.22-.87.94-1.75,1.8-2.53,2.81s-1.69,2.28-2.45,3.47a18.93,18.93,0,0,1-2.65,3.56c-1.44,1.35-3,1.56-4.89,1.63a6,6,0,0,1-3.56-1,12.33,12.33,0,0,1-2.22-2.58c-.75-.92-1.54-1.81-2.36-2.67a21.3,21.3,0,0,0-5.49-4.27,15.75,15.75,0,0,0-18.89,3.3,15.11,15.11,0,0,0-2.12,2.84c-.77,1.32-1.28,2.69-2.59,3.64-1.54,1.11-2.87.85-4.55.42a5.76,5.76,0,0,1-3.06-1.29,19.55,19.55,0,0,1-2-3.17A20.7,20.7,0,0,0,286.62,4a20,20,0,0,0-12-2.1,16.57,16.57,0,0,0-7.4,2.35,13.57,13.57,0,0,0-4.12,4.31,35.83,35.83,0,0,0-2.06,3.54c-.48,1-.75,2.26-1.64,3a3.58,3.58,0,0,1-2,.8,9.8,9.8,0,0,1-2.86-.18A5.54,5.54,0,0,1,251.57,14.23Zm-22.1.5a.82.82,0,0,1-.34-.35,1.35,1.35,0,0,1,.21-1.37,2.94,2.94,0,0,1,1.18-.84,5.08,5.08,0,0,1,3.27-.42,3.19,3.19,0,0,1,2.11,1.59,1,1,0,0,1-.88,1.5h-3.46A4.79,4.79,0,0,1,229.47,14.73Zm8.92-.74c-.6-.52-1.06-1.2-1.63-1.77-2.5-2.52-7.39-2.8-9,.86-.71,1.65-1.93,2-3.41,2-2,0-1.38-2.83-.8-4a7.08,7.08,0,0,1,2.58-2.63A11.21,11.21,0,0,1,235,7.4a13.81,13.81,0,0,1,5.18,2.86c.75.64,1.33,1.43,2,2.11s1.52,1.22.94,2.19l0,.07c-.58.84-2,.56-2.79.3A5.43,5.43,0,0,1,238.39,14Zm8.47.73a10.63,10.63,0,0,1-2.45-2.12,20.67,20.67,0,0,0-2.35-2.42,18.12,18.12,0,0,0-5.76-3.57c-4.86-1.78-11.36-.92-14.06,4a26,26,0,0,1-2.41,3.87,1.93,1.93,0,0,1-1.62.83c-1.38,0-2.76.08-4.15.12s-1.67-.39-1.23-1.69a19.46,19.46,0,0,1,6.32-8.66A15.71,15.71,0,0,1,232,1.66a24,24,0,0,1,11.61,5,30.16,30.16,0,0,1,4.9,4.88,4.09,4.09,0,0,1,1.18,2.6,1.6,1.6,0,0,1-.18.67,1.09,1.09,0,0,1-.56.52C248.25,15.62,247.42,15.08,246.86,14.72Zm-153.33,0a.82.82,0,0,1-.34-.35A1.35,1.35,0,0,1,93.4,13a2.94,2.94,0,0,1,1.18-.84,5.08,5.08,0,0,1,3.27-.42A3.19,3.19,0,0,1,100,13.34a1,1,0,0,1-.88,1.5H95.62A4.79,4.79,0,0,1,93.53,14.73Zm8.92-.74c-.6-.52-1.06-1.2-1.63-1.77-2.5-2.52-7.39-2.8-9,.86-.71,1.65-1.93,2-3.41,2-2,0-1.38-2.83-.8-4A7.08,7.08,0,0,1,90.2,8.48,11.21,11.21,0,0,1,99.1,7.4a13.81,13.81,0,0,1,5.18,2.86c.75.64,1.33,1.43,2,2.11s1.52,1.22.94,2.19l-.05.07c-.58.84-2,.56-2.79.3A5.43,5.43,0,0,1,102.45,14Zm8.47.73a10.63,10.63,0,0,1-2.45-2.12,20.67,20.67,0,0,0-2.35-2.42,18.12,18.12,0,0,0-5.76-3.57C95.5,4.83,89,5.69,86.3,10.59a26,26,0,0,1-2.41,3.87,1.93,1.93,0,0,1-1.62.83c-1.38,0-2.76.08-4.14.12s-1.68-.39-1.24-1.69a19.46,19.46,0,0,1,6.32-8.66A15.71,15.71,0,0,1,96,1.66a24,24,0,0,1,11.61,5,30.16,30.16,0,0,1,4.9,4.88,4.09,4.09,0,0,1,1.18,2.6,1.6,1.6,0,0,1-.18.67,1.09,1.09,0,0,1-.56.52C112.31,15.62,111.48,15.08,110.92,14.72Zm-30.74,2c.88,0,2-.28,2.58.65a2,2,0,0,1,.12,1.31,8,8,0,0,1-2.28,3.78,12,12,0,0,1-9.83,3.67,11.2,11.2,0,0,1-9.14-6.4,1.87,1.87,0,0,1-.17-1.57,1.35,1.35,0,0,1,.26-.32,1.63,1.63,0,0,1,1.68-.11A5.29,5.29,0,0,1,65,19.27,6.61,6.61,0,0,0,69.14,22,5.9,5.9,0,0,0,74,20c.43-.44.73-1,1.16-1.4a7.33,7.33,0,0,1,1.64-1.12A6.74,6.74,0,0,1,80.18,16.73Zm-12,.77c.86,0,1.73-.06,2.6-.05.51,0,1.92-.21,2.4.23a.79.79,0,0,1,.15.25,1.23,1.23,0,0,1-.14.77,4,4,0,0,1-5,1.94,3.51,3.51,0,0,1-1.84-1.87,1,1,0,0,1,0-.88C66.69,17.43,67.75,17.53,68.23,17.5ZM29.1,17.24c.95,0,1.75,0,2.52.14,1.13.16.68,1.26.31,1.91a3.16,3.16,0,0,1-2.37,1.52,3.55,3.55,0,0,1-3.19-1.55A1.67,1.67,0,0,1,26,17.82C26.35,16.84,28.34,17.24,29.1,17.24Zm13,.66A2.29,2.29,0,0,1,42.34,20,15.37,15.37,0,0,1,41,24c-2.32,4.51-7,6.78-12,7a16.31,16.31,0,0,1-4.51-.45,17.82,17.82,0,0,1-11.8-10.21,2.9,2.9,0,0,1-.33-1.74c.3-1.41,2.25-1.1,3.28-1.14h.87a2.57,2.57,0,0,1,2.1.83,6,6,0,0,1,.64,1.35,11.83,11.83,0,0,0,3.72,4.82,11.17,11.17,0,0,0,6,2.28,8.83,8.83,0,0,0,5.93-1.94,12.71,12.71,0,0,0,3.65-4.63,13.3,13.3,0,0,1,.78-1.5,2.67,2.67,0,0,1,1.28-1.07A1.51,1.51,0,0,1,42.1,17.9Zm-4.76,1.31a8.37,8.37,0,0,1-4.13,5.44,2.3,2.3,0,0,1-.32.15,8,8,0,0,1-3.23.78,10,10,0,0,1-9.13-5.66,2.5,2.5,0,0,1-.31-1.7c.27-1,1.88-1.06,2.71-.83a4.76,4.76,0,0,1,2.36,2.09c2.47,3.6,6,2.57,7.57.32a13.88,13.88,0,0,0,.88-1.49,2.33,2.33,0,0,1,2.28-1A1.44,1.44,0,0,1,37.34,19.21ZM89.13,17.1a2.26,2.26,0,0,1,.09,1.75,16.61,16.61,0,0,1-7.75,9.64,17.4,17.4,0,0,1-4.62,1.88,16.58,16.58,0,0,1-7.21.3,20.28,20.28,0,0,1-6.94-2.74,19.85,19.85,0,0,1-7.09-7.82,3,3,0,0,1-.4-1.68c.33-1.85,3.49-.87,4.28,0a9.76,9.76,0,0,1,1.18,2,12.4,12.4,0,0,0,2.64,3.37,14.58,14.58,0,0,0,3.2,2.28,13,13,0,0,0,13.3-1.41c2.31-1.83,3.86-4.42,5.76-6.68a4.12,4.12,0,0,1,1.65-1.37A1.62,1.62,0,0,1,89.13,17.1Zm358.56.63a1,1,0,0,1,.36.38,1.56,1.56,0,0,1,0,1,10.59,10.59,0,0,1-4.79,6.24c-4.52,2.74-10.6,2.21-15.13-.22a16.24,16.24,0,0,1-3.82-2.81,7.19,7.19,0,0,1-1.41-1.8c-.34-.66-.93-2.38,0-2.76a1.83,1.83,0,0,1,1-.08A5.37,5.37,0,0,1,426.47,19c.75.65,1.41,1.38,2.15,2a11.55,11.55,0,0,0,7.67,2.79c3.12,0,6.66-1.39,8.32-4.14.53-.88,1.05-1.79,2.15-2.07A1.29,1.29,0,0,1,447.69,17.73ZM439.64,20c1-.64,1.7-1.66,2.79-2.05.37-.13.87-.14,1.07.2a.88.88,0,0,1,0,.83c-1.8,4.12-7.85,4.38-11.34,2.67a8.45,8.45,0,0,1-1.56-1,2.75,2.75,0,0,1-.81-.89,1.27,1.27,0,0,1,0-1.17,1.19,1.19,0,0,1,.8-.49,1.54,1.54,0,0,1,.74.06,5.83,5.83,0,0,1,1.45.89C434.68,20.47,437.45,21.45,439.64,20ZM439,17.89c.26,0,.58.06.68.3a.68.68,0,0,1-.17.57,3.39,3.39,0,0,1-1.84,1,3.35,3.35,0,0,1-2.28-.35.72.72,0,0,1-.42-.48.56.56,0,0,1,.37-.59,3.32,3.32,0,0,1,.69-.24A11.51,11.51,0,0,1,439,17.89Zm-53.31-.68a3.11,3.11,0,0,1,2.51.93,7,7,0,0,1,1.1,1.61,2.49,2.49,0,0,0,1.19,1.14,4,4,0,0,0,3.33.11c1.64-.65,2.64-2.21,4.21-2.94a6.32,6.32,0,0,1,3.32-.58c.63.06,1.16.3,1.27,1a2.84,2.84,0,0,1-.4,1.59,9.63,9.63,0,0,1-1.71,2.3,9.78,9.78,0,0,1-6.27,2.81h-.61a12.05,12.05,0,0,1-7.78-3.73c-.78-.79-2.27-2.7-1.52-3.85C384.67,17.08,385.17,17.22,385.68,17.21Zm5.85.23h1.1l1.48,0a1.35,1.35,0,0,1,.74.15.88.88,0,0,1,.26,1,2.75,2.75,0,0,1-2.45,1.78A3,3,0,0,1,390,19a1,1,0,0,1-.16-1C390.15,17.48,391,17.44,391.53,17.44Zm-9.77.23A8.3,8.3,0,0,1,383.44,20a12.17,12.17,0,0,0,2,2.75,11.88,11.88,0,0,0,12.32,3,12.44,12.44,0,0,0,4.48-2.81,8.76,8.76,0,0,0,1.55-2.12,8.91,8.91,0,0,1,1.63-2.47c.87-.83,2.8-1.56,3.82-.55a1.83,1.83,0,0,1,.14,2A19.75,19.75,0,0,1,406,26.17a14.43,14.43,0,0,1-8.21,4.57,19.56,19.56,0,0,1-6.24.23,17.59,17.59,0,0,1-2.95-.62,19,19,0,0,1-10.95-8.73c-.59-1-2.29-5,.1-5A5.82,5.82,0,0,1,381.76,17.67Zm-15.88-2.94a.82.82,0,0,1-.34-.35,1.35,1.35,0,0,1,.21-1.37,3,3,0,0,1,1.18-.84,5.08,5.08,0,0,1,3.27-.42,3.19,3.19,0,0,1,2.11,1.59,1,1,0,0,1-.88,1.5H368A4.79,4.79,0,0,1,365.88,14.73ZM374.8,14c-.6-.52-1.06-1.2-1.63-1.77-2.49-2.52-7.39-2.8-9,.86-.71,1.65-1.93,2-3.41,2-2,0-1.38-2.83-.8-4a7.08,7.08,0,0,1,2.58-2.63,11.22,11.22,0,0,1,8.9-1.08,13.81,13.81,0,0,1,5.18,2.86c.75.64,1.34,1.43,2,2.11s1.52,1.22.94,2.19l-.05.07c-.58.84-2,.56-2.79.3A5.43,5.43,0,0,1,374.8,14Zm8.47.73a10.63,10.63,0,0,1-2.45-2.12,20.67,20.67,0,0,0-2.35-2.42,18.12,18.12,0,0,0-5.76-3.57c-4.86-1.78-11.36-.92-14.06,4a26,26,0,0,1-2.41,3.87,1.93,1.93,0,0,1-1.62.83c-1.38,0-2.76.08-4.14.12s-1.68-.39-1.24-1.69a19.46,19.46,0,0,1,6.32-8.66,15.71,15.71,0,0,1,12.83-3.4,24,24,0,0,1,11.61,5,30.16,30.16,0,0,1,4.9,4.88,4,4,0,0,1,1.18,2.6,1.6,1.6,0,0,1-.18.67,1.09,1.09,0,0,1-.56.52C384.66,15.62,383.83,15.08,383.27,14.72Zm-100.78-.17a1.16,1.16,0,0,1-.31.83c-1,1.23-3.83.69-5.17.69a1.31,1.31,0,0,1-1.37-.85c-.27-.66.25-1,.66-1.45a4.38,4.38,0,0,1,4.31-.85C281.37,13.15,282.43,13.75,282.49,14.55Zm-83.15,3.19a5.29,5.29,0,0,1,1.56,1.53A6.61,6.61,0,0,0,205.08,22,5.9,5.9,0,0,0,210,20c.43-.44.73-1,1.16-1.4a7.33,7.33,0,0,1,1.64-1.12,6.74,6.74,0,0,1,3.35-.75c.88,0,2-.28,2.58.65a2,2,0,0,1,.12,1.31,8,8,0,0,1-2.28,3.78,12,12,0,0,1-9.83,3.67,11.2,11.2,0,0,1-9.14-6.4,1.87,1.87,0,0,1-.17-1.57,1.35,1.35,0,0,1,.26-.32A1.63,1.63,0,0,1,199.34,17.74Zm4.83-.24c.86,0,1.73-.06,2.6-.05.51,0,1.92-.21,2.4.23a.79.79,0,0,1,.15.25,1.23,1.23,0,0,1-.14.77,4,4,0,0,1-5,1.94,3.51,3.51,0,0,1-1.84-1.87,1,1,0,0,1,0-.88C202.63,17.43,203.69,17.53,204.17,17.5ZM165,17.24c1,0,1.75,0,2.52.14,1.13.16.68,1.26.31,1.91a3.16,3.16,0,0,1-2.37,1.52,3.55,3.55,0,0,1-3.19-1.55,1.67,1.67,0,0,1-.34-1.44C162.29,16.84,164.28,17.24,165,17.24Zm-49.2.9a7.29,7.29,0,0,1,1.1,1.61,2.51,2.51,0,0,0,1.18,1.14,4,4,0,0,0,3.33.11c1.65-.65,2.64-2.21,4.22-2.94a6.32,6.32,0,0,1,3.32-.58c.63.06,1.16.3,1.27,1a2.84,2.84,0,0,1-.4,1.59,9.63,9.63,0,0,1-1.71,2.3,9.78,9.78,0,0,1-6.27,2.81h-.61a12,12,0,0,1-7.78-3.73c-.78-.79-2.27-2.7-1.52-3.85.35-.53.85-.39,1.36-.4A3.11,3.11,0,0,1,115.84,18.14Zm3.34-.7h1.1l1.48,0a1.35,1.35,0,0,1,.74.15.88.88,0,0,1,.26,1,2.76,2.76,0,0,1-2.46,1.78A3,3,0,0,1,117.66,19a1,1,0,0,1-.15-1C117.8,17.48,118.66,17.44,119.18,17.44Zm51.17-2a2.19,2.19,0,0,1,.25-2.19,16.05,16.05,0,0,1,5-5.6A15.35,15.35,0,0,1,185.32,5a12.81,12.81,0,0,1,2.67.49,17.86,17.86,0,0,1,6.54,3.63,36.73,36.73,0,0,1,2.8,2.64c.71.75,1.84,1.82,1.72,2.95a1.88,1.88,0,0,1-1,1.43,2.43,2.43,0,0,1-2.45-.34,7.15,7.15,0,0,1-1.65-2.2,11.63,11.63,0,0,0-1.79-2.11,12.13,12.13,0,0,0-11.59-2.73,14.12,14.12,0,0,0-6.88,5.72,3.52,3.52,0,0,1-1.47,1.42A1.55,1.55,0,0,1,170.35,15.47Zm11.08.46a.93.93,0,0,1-.39-.22.81.81,0,0,1,0-1.19,4.81,4.81,0,0,1,7,.14c.24.29.43.56.23.95a.8.8,0,0,1-.74.39h-4.74A4.09,4.09,0,0,1,181.43,15.93Zm-6.14-.33a1.58,1.58,0,0,1-.11-1.15,3.43,3.43,0,0,1,.56-1,8.92,8.92,0,0,1,1.9-2,10.68,10.68,0,0,1,13.62.58,6.79,6.79,0,0,1,1.85,2.32,1.48,1.48,0,0,1,0,1.15c-.05.07-.1.15-.16.22a1.34,1.34,0,0,1-1.4.24,4.29,4.29,0,0,1-1.25-.84,12.44,12.44,0,0,0-3.84-2.55,5.9,5.9,0,0,0-5.65.7c-.63.54-1.13,1.22-1.72,1.8A4,4,0,0,1,177,16.25,1.61,1.61,0,0,1,175.29,15.6Zm-48.16.18c-1.33-.14-1.72-.66-1.17-1.85A28,28,0,0,1,129.23,8,12.66,12.66,0,0,1,137,3.6a19,19,0,0,1,4.74-.41c3.2-.15,6.16,1.24,9.09,2.66A12.71,12.71,0,0,1,154,7.75,16.72,16.72,0,0,1,158.92,15a1,1,0,0,1,.05.22c.12.9-.1,1.21-1,1.3a2.52,2.52,0,0,1-2.64-1,26.15,26.15,0,0,0-2.12-2.67c-4.93-5.24-9.25-6.87-16-5.2a7,7,0,0,0-5.31,5A4.29,4.29,0,0,1,127.13,15.78Zm7.17.07a1.43,1.43,0,0,1-1-2.18c1.26-2.7,3.11-4.69,6.31-5a11.49,11.49,0,0,1,3-.26c3.41-.37,5.89,1.37,8.15,3.49a6.33,6.33,0,0,1,1.73,1.91,1.53,1.53,0,0,1,.1,1.61,1.56,1.56,0,0,1-1.65.74A2.79,2.79,0,0,1,148.7,15,24.56,24.56,0,0,0,147,13a5.72,5.72,0,0,0-8.77,1.14A3.25,3.25,0,0,1,134.3,15.85Zm5.4-.63c-.27-.66.25-1,.66-1.45A4.58,4.58,0,0,1,145,13c1.06.44,1.78,2.32.38,2.93s-3,.19-4.29.19A1.31,1.31,0,0,1,139.7,15.22ZM39.35,15.6a1.58,1.58,0,0,1-.11-1.15,3.43,3.43,0,0,1,.56-1,8.92,8.92,0,0,1,1.9-2A10.68,10.68,0,0,1,55.32,12a6.79,6.79,0,0,1,1.85,2.32,1.48,1.48,0,0,1,0,1.15c0,.07-.1.15-.16.22a1.34,1.34,0,0,1-1.4.24,4.29,4.29,0,0,1-1.25-.84,12.44,12.44,0,0,0-3.84-2.55,5.9,5.9,0,0,0-5.65.7c-.63.54-1.13,1.22-1.72,1.8A4,4,0,0,1,41,16.25,1.61,1.61,0,0,1,39.35,15.6Zm6.14.33a.93.93,0,0,1-.39-.22.81.81,0,0,1,0-1.19,4.81,4.81,0,0,1,7,.14c.24.29.43.56.23.95a.8.8,0,0,1-.74.39H46.84A4.09,4.09,0,0,1,45.49,15.93Zm14.18-.14A7.15,7.15,0,0,1,58,13.59a11.63,11.63,0,0,0-1.79-2.11A12.13,12.13,0,0,0,44.64,8.75a14.12,14.12,0,0,0-6.88,5.72,3.52,3.52,0,0,1-1.47,1.42,1.55,1.55,0,0,1-1.88-.42,2.19,2.19,0,0,1,.25-2.19,16.05,16.05,0,0,1,5-5.6A15.35,15.35,0,0,1,49.38,5a12.81,12.81,0,0,1,2.67.49,17.86,17.86,0,0,1,6.54,3.63,36.73,36.73,0,0,1,2.8,2.64c.71.75,1.84,1.82,1.72,2.95a1.88,1.88,0,0,1-1,1.43A2.43,2.43,0,0,1,59.67,15.79Zm77.18,2a1.83,1.83,0,0,1,.14,2,19.75,19.75,0,0,1-3.33,6.36,14.43,14.43,0,0,1-8.21,4.57,19.56,19.56,0,0,1-6.24.23,17.59,17.59,0,0,1-2.95-.62,19,19,0,0,1-11-8.73c-.59-1-2.29-5,.1-5a5.82,5.82,0,0,1,4,1.08A8.3,8.3,0,0,1,111.09,20a12.17,12.17,0,0,0,2,2.75,11.88,11.88,0,0,0,12.32,3,12.44,12.44,0,0,0,4.48-2.81,8.76,8.76,0,0,0,1.55-2.12A8.69,8.69,0,0,1,133,18.31C133.9,17.48,135.83,16.75,136.85,17.76ZM178,17.9a2.29,2.29,0,0,1,.24,2.11,15.37,15.37,0,0,1-1.37,4c-2.32,4.51-7,6.78-12,7a16.31,16.31,0,0,1-4.51-.45,17.82,17.82,0,0,1-11.8-10.21,2.9,2.9,0,0,1-.33-1.74c.3-1.41,2.25-1.1,3.28-1.14h.87a2.57,2.57,0,0,1,2.1.83,6,6,0,0,1,.64,1.35,11.67,11.67,0,0,0,3.72,4.82,11.17,11.17,0,0,0,6,2.28,8.83,8.83,0,0,0,5.93-1.94,12.71,12.71,0,0,0,3.65-4.63,13.3,13.3,0,0,1,.78-1.5,2.67,2.67,0,0,1,1.28-1.07A1.51,1.51,0,0,1,178,17.9Zm-4.76,1.31a8.37,8.37,0,0,1-4.13,5.44,2.3,2.3,0,0,1-.32.15,8,8,0,0,1-3.23.78,10,10,0,0,1-9.13-5.66,2.5,2.5,0,0,1-.31-1.7c.27-1,1.88-1.06,2.71-.83a4.76,4.76,0,0,1,2.36,2.09c2.47,3.6,6,2.57,7.57.32a13.88,13.88,0,0,0,.88-1.49,2.33,2.33,0,0,1,2.28-1A1.44,1.44,0,0,1,173.28,19.21Zm51.79-2.11a2.26,2.26,0,0,1,.09,1.75,16.61,16.61,0,0,1-7.75,9.64,17.4,17.4,0,0,1-4.62,1.88,16.58,16.58,0,0,1-7.21.3,20.28,20.28,0,0,1-6.94-2.74,19.85,19.85,0,0,1-7.09-7.82,3,3,0,0,1-.4-1.68c.33-1.85,3.49-.87,4.28,0a9.76,9.76,0,0,1,1.18,2,12.4,12.4,0,0,0,2.64,3.37,14.58,14.58,0,0,0,3.2,2.28,13,13,0,0,0,13.3-1.41c2.31-1.83,3.86-4.42,5.76-6.68a4.12,4.12,0,0,1,1.65-1.37A1.62,1.62,0,0,1,225.07,17.1Zm110.68.64a5.29,5.29,0,0,1,1.56,1.53A6.61,6.61,0,0,0,341.49,22a5.9,5.9,0,0,0,4.89-2c.43-.44.73-1,1.17-1.4a7,7,0,0,1,1.63-1.12,6.74,6.74,0,0,1,3.35-.75c.88,0,2.05-.28,2.58.65a2,2,0,0,1,.13,1.31A8.06,8.06,0,0,1,353,22.47a12,12,0,0,1-9.82,3.67,11.23,11.23,0,0,1-9.15-6.4,1.87,1.87,0,0,1-.17-1.57,1.65,1.65,0,0,1,.26-.32A1.63,1.63,0,0,1,335.75,17.74Zm4.83-.24c.86,0,1.73-.06,2.61-.05.5,0,1.91-.21,2.39.23a.79.79,0,0,1,.15.25,1.29,1.29,0,0,1-.13.77,4.05,4.05,0,0,1-5,1.94,3.51,3.51,0,0,1-1.84-1.87,1,1,0,0,1,0-.88C339,17.43,340.1,17.53,340.58,17.5Zm-39.13-.26c.95,0,1.75,0,2.52.14,1.13.16.68,1.26.31,1.91a3.16,3.16,0,0,1-2.37,1.52,3.55,3.55,0,0,1-3.19-1.55,1.67,1.67,0,0,1-.34-1.44C298.71,16.84,300.69,17.24,301.45,17.24Zm-49.67.9a7.29,7.29,0,0,1,1.1,1.61,2.51,2.51,0,0,0,1.18,1.14,4,4,0,0,0,3.33.11c1.65-.65,2.64-2.21,4.22-2.94a6.32,6.32,0,0,1,3.32-.58c.63.06,1.16.3,1.27,1a2.84,2.84,0,0,1-.4,1.59,9.63,9.63,0,0,1-1.71,2.3,9.78,9.78,0,0,1-6.27,2.81h-.61a12,12,0,0,1-7.78-3.73c-.78-.79-2.27-2.7-1.52-3.85.35-.53.85-.39,1.36-.4A3.11,3.11,0,0,1,251.78,18.14Zm3.34-.7h1.1l1.48,0a1.35,1.35,0,0,1,.74.15.88.88,0,0,1,.26,1,2.76,2.76,0,0,1-2.46,1.78A3,3,0,0,1,253.6,19a1,1,0,0,1-.15-1C253.74,17.48,254.6,17.44,255.12,17.44Zm17.67.32a1.83,1.83,0,0,1,.14,2,19.75,19.75,0,0,1-3.33,6.36,14.43,14.43,0,0,1-8.21,4.57,19.56,19.56,0,0,1-6.24.23,17.59,17.59,0,0,1-3-.62,19,19,0,0,1-10.95-8.73c-.59-1-2.29-5,.1-5a5.82,5.82,0,0,1,4,1.08A8.3,8.3,0,0,1,247,20a12.17,12.17,0,0,0,2,2.75,11.88,11.88,0,0,0,12.32,3,12.44,12.44,0,0,0,4.48-2.81,8.76,8.76,0,0,0,1.55-2.12A8.69,8.69,0,0,1,269,18.31C269.84,17.48,271.77,16.75,272.79,17.76Zm41.66.14a2.29,2.29,0,0,1,.24,2.11,15.37,15.37,0,0,1-1.37,4c-2.32,4.51-7,6.78-12,7a16.35,16.35,0,0,1-4.51-.45A17.82,17.82,0,0,1,285,20.31a3,3,0,0,1-.33-1.74c.3-1.41,2.25-1.1,3.28-1.14h.87a2.57,2.57,0,0,1,2.1.83,6,6,0,0,1,.64,1.35,11.83,11.83,0,0,0,3.72,4.82,11.17,11.17,0,0,0,6,2.28,8.83,8.83,0,0,0,5.93-1.94,12.71,12.71,0,0,0,3.65-4.63,11.91,11.91,0,0,1,.79-1.5,2.61,2.61,0,0,1,1.27-1.07A1.51,1.51,0,0,1,314.45,17.9Zm-4.76,1.31a8.37,8.37,0,0,1-4.13,5.44l-.31.15a8,8,0,0,1-3.24.78,10,10,0,0,1-9.13-5.66,2.5,2.5,0,0,1-.31-1.7c.27-1,1.89-1.06,2.71-.83a4.76,4.76,0,0,1,2.36,2.09c2.47,3.6,6,2.57,7.57.32a12.4,12.4,0,0,0,.88-1.49,2.33,2.33,0,0,1,2.28-1A1.44,1.44,0,0,1,309.69,19.21Zm51.79-2.11a2.26,2.26,0,0,1,.09,1.75,16.61,16.61,0,0,1-7.75,9.64,17.4,17.4,0,0,1-4.62,1.88,16.58,16.58,0,0,1-7.21.3,20.28,20.28,0,0,1-6.94-2.74A19.85,19.85,0,0,1,328,20.11a3,3,0,0,1-.4-1.68c.33-1.85,3.49-.87,4.28,0a10.28,10.28,0,0,1,1.19,2,12,12,0,0,0,2.64,3.37,14.29,14.29,0,0,0,3.19,2.28,13,13,0,0,0,13.3-1.41c2.31-1.83,3.86-4.42,5.76-6.68a4.12,4.12,0,0,1,1.65-1.37A1.62,1.62,0,0,1,361.48,17.1Zm38-1.32c-1.33-.14-1.71-.66-1.17-1.85A28,28,0,0,1,401.58,8a12.66,12.66,0,0,1,7.77-4.44,19,19,0,0,1,4.74-.41c3.2-.15,6.16,1.24,9.09,2.66a12.71,12.71,0,0,1,3.16,1.9A16.64,16.64,0,0,1,431.27,15a1,1,0,0,1,.05.22c.12.9-.09,1.21-1,1.3a2.52,2.52,0,0,1-2.64-1,24.84,24.84,0,0,0-2.12-2.67c-4.93-5.24-9.25-6.87-16-5.2a7,7,0,0,0-5.31,5A4.29,4.29,0,0,1,399.48,15.78Zm7.17.07a1.43,1.43,0,0,1-1-2.18C406.9,11,408.75,9,412,8.7a11.49,11.49,0,0,1,3-.26c3.41-.37,5.89,1.37,8.15,3.49a6.33,6.33,0,0,1,1.73,1.91c.25.56.47,1,.1,1.61a1.56,1.56,0,0,1-1.65.74A2.79,2.79,0,0,1,421.05,15a24.56,24.56,0,0,0-1.67-2,5.72,5.72,0,0,0-8.77,1.14A3.25,3.25,0,0,1,406.65,15.85Zm5.41-.63c-.28-.66.24-1,.65-1.45,1.8-1.84,6.16-1.32,6.94,1.71a1.16,1.16,0,0,1-1,.67c-1.73,0-3.46-.09-5.2-.08A1.31,1.31,0,0,1,412.06,15.22Zm-105.3.25a2.22,2.22,0,0,1,.25-2.19,16.05,16.05,0,0,1,5-5.6A15.35,15.35,0,0,1,321.73,5a12.69,12.69,0,0,1,2.67.49,17.86,17.86,0,0,1,6.54,3.63,35,35,0,0,1,2.8,2.64c.71.75,1.84,1.82,1.72,2.95a1.88,1.88,0,0,1-1,1.43,2.43,2.43,0,0,1-2.45-.34,7.15,7.15,0,0,1-1.65-2.2,11.63,11.63,0,0,0-1.79-2.11A12.13,12.13,0,0,0,317,8.75a14.12,14.12,0,0,0-6.88,5.72,3.47,3.47,0,0,1-1.47,1.42A1.55,1.55,0,0,1,306.76,15.47Zm11.08.46a.93.93,0,0,1-.39-.22.81.81,0,0,1,0-1.19,4.81,4.81,0,0,1,7,.14c.24.29.44.56.23.95a.8.8,0,0,1-.74.39H319.2A4.15,4.15,0,0,1,317.84,15.93Zm-6.14-.33a1.58,1.58,0,0,1-.11-1.15,3.43,3.43,0,0,1,.56-1,8.92,8.92,0,0,1,1.9-2,10.68,10.68,0,0,1,13.62.58,6.94,6.94,0,0,1,1.86,2.32,1.52,1.52,0,0,1,0,1.15c-.05.07-.1.15-.16.22a1.34,1.34,0,0,1-1.4.24,4.29,4.29,0,0,1-1.25-.84,12.44,12.44,0,0,0-3.84-2.55,5.9,5.9,0,0,0-5.65.7c-.63.54-1.13,1.22-1.72,1.8a4,4,0,0,1-2.12,1.21A1.61,1.61,0,0,1,311.7,15.6Zm-48.63.18c-1.33-.14-1.72-.66-1.17-1.85A28,28,0,0,1,265.17,8a12.66,12.66,0,0,1,7.77-4.44,19,19,0,0,1,4.74-.41c3.2-.15,6.16,1.24,9.09,2.66a12.71,12.71,0,0,1,3.16,1.9A16.72,16.72,0,0,1,294.86,15a1,1,0,0,1,.05.22c.12.9-.1,1.21-1,1.3a2.52,2.52,0,0,1-2.64-1,26.15,26.15,0,0,0-2.12-2.67c-4.93-5.24-9.25-6.87-16-5.2a7,7,0,0,0-5.31,5A4.29,4.29,0,0,1,263.07,15.78Zm7.17.07a1.43,1.43,0,0,1-1-2.18c1.26-2.7,3.11-4.69,6.31-5a11.49,11.49,0,0,1,3-.26c3.41-.37,5.89,1.37,8.15,3.49a6.33,6.33,0,0,1,1.73,1.91,1.53,1.53,0,0,1,.1,1.61,1.56,1.56,0,0,1-1.65.74A2.79,2.79,0,0,1,284.64,15,24.56,24.56,0,0,0,283,13a5.72,5.72,0,0,0-8.77,1.14A3.25,3.25,0,0,1,270.24,15.85Z"/></svg>