<svg id="aa413f48-d2cf-429f-b2c0-d30c95a42e26" data-name="Layer 1" xmlns="http://www.w3.org/2000/svg" viewBox="0 0 476.46 24.84"><defs><style>.fb4926d8-b7fd-470d-a68a-ca4c45ec1fa0{fill:#b7d685;}.a6302099-fe5b-490f-8fb1-64389627052b{fill:#649297;}.b6c546ff-7a9a-495b-a8fe-7b24a1e46a71{fill:#3e342f;}</style></defs><path class="fb4926d8-b7fd-470d-a68a-ca4c45ec1fa0" d="M420.35,2c.64,0,1.41-.13,2-.07a.34.34,0,0,1,.3.22c.05.15,0,.28-.12.41a12.25,12.25,0,0,1-1.53,2,57.37,57.37,0,0,0-3.48,4.75c-.64.88-1.3,1.76-2,2.63s-1.19,1.53-1.8,2.28c-.48.59-1.06-.34-1.34-.69s-.57-.88-.88-1.3c-.77-1-1.52-2.09-2.26-3.15s-1.61-2.31-2.4-3.47c-.28-.43-2.31-2.81-1.93-3.4,0,0,.05-.06.09-.09.3-.16.84,0,1.17,0l1.18,0C407.94,2,408.47,2,409,2Zm14.55.32c-.15,0-.32,0-.37.18a.33.33,0,0,0,.1.32c1.45,2.05,3.09,4.05,4.4,6.16.12.18.26.39.46.45a1,1,0,0,0,.84-.21L442,8.12c.15-.1.29-.19.33-.35a.62.62,0,0,0-.09-.4c-.71-1.51-1.45-3-2.13-4.51a1.53,1.53,0,0,0-.28-.46c-.5-.51-1.52-.25-2.14-.22Zm20.86,1.1c-.36.61-.84,1.17-1.22,1.77C454,6,453,7,454.17,7.8c.36.25.76.35,1.12.6a3.26,3.26,0,0,0,.47.32.72.72,0,0,0,.62,0,2.09,2.09,0,0,0,.67-.74l3.54-5.46c.22-.33-.51-.24-.7-.24-.51,0-1,0-1.51-.06a4,4,0,0,0-1.59.1C456.2,2.5,456.06,2.89,455.76,3.38Zm-85,4.34a22.86,22.86,0,0,0-1.83-2.39,6.62,6.62,0,0,0-1.71-2.05c-.92-.61-2.14-.38-3.22-.25l-.44,0c-.19,0-.39.06-.47.22a.5.5,0,0,0,.15.48c1.37,1.83,2.73,3.65,4.1,5.46a2.28,2.28,0,0,0,.94.86c.67.26,1.32-.54,1.83-.87C370.78,8.75,371.21,8.6,370.75,7.72ZM336,3.07c-.37,0-1.49-.2-1.74.17-.39.55,1.1,2.49,1.41,3,1.86,3,3.81,5.94,5.9,8.81.21.3.52.64.88.58a.93.93,0,0,0,.51-.36,29,29,0,0,0,2.35-3.18c.93-1.37,1.85-2.73,2.78-4.08s1.77-2.93,2.82-4.31a.43.43,0,0,0,.13-.35c0-.13-.15-.22-.29-.25l-.18,0c-.54,0-1.17.09-1.69.1l-2.15,0c-1.43,0-2.85,0-4.29,0s-2.86,0-4.28-.07C337.42,3.14,336.69,3.12,336,3.07Zm52.41-.87a5.61,5.61,0,0,0-1.75,2.07c-.46.78-.94,1.49-1.43,2.24a1.62,1.62,0,0,0-.33.87c0,.55,1.85,1.8,2.33,1.69a1.18,1.18,0,0,0,.67-.63c1-1.53,2-3,2.86-4.63.23-.4.68-.87.71-1.35.07-.79-1.63-.65-2.14-.58A2.51,2.51,0,0,0,388.39,2.2Zm62.78,9.22a3.23,3.23,0,0,0-1.27,1.27q-.76,1.17-1.56,2.34a.77.77,0,0,1-.56.44c-.27,0-.47-.23-.62-.46l-1.73-2.56a1.41,1.41,0,0,0-.61-.6c-.41-.15-.76.28-1.05.49-.48.35-1,.67-1.5,1a.69.69,0,0,0-.26.25.67.67,0,0,0,.15.61c.79,1.22,1.6,2.38,2.43,3.56.4.61.84,1.18,1.27,1.77l.65.88c.12.17.63.67.63.87s.22.4.41.33a.53.53,0,0,0,.22-.2.24.24,0,0,0,.06-.1c.35-.49.67-1,1-1.48s.74-1.07,1.11-1.61c.69-1,1.37-2,2-3,.31-.44.53-.93.82-1.38s.62-.65.58-1.14-.55-.71-.83-1A1.24,1.24,0,0,0,451.17,11.42Zm-69.58,0A40.64,40.64,0,0,0,379,15.15c-.28.45-.68,1-1.21.9a1.41,1.41,0,0,1-.84-.7c-.65-.91-1.29-1.83-1.93-2.74a1.48,1.48,0,0,0-.9-.72c-.47-.07-1,.45-1.33.68l-1.56,1c-.17.11-.36.23-.39.43a.74.74,0,0,0,.23.56L374.76,19l1.87,2.25c.39.47.95,1.46,1.61,1.58a.53.53,0,0,0,.39-.05,1.16,1.16,0,0,0,.43-.47l5.72-9.11a1.3,1.3,0,0,0,.27-.6c.07-.51-.37-.94-.82-1.18C383.19,10.9,382.5,10.27,381.59,11.41ZM267.29,5.56c.8,1.16,1.59,2.33,2.41,3.47s1.48,2.11,2.25,3.15c.31.42.56.89.88,1.3s.86,1.28,1.35.69c.6-.75,1.2-1.5,1.79-2.28s1.33-1.75,2-2.63a55.07,55.07,0,0,1,3.47-4.75,11.71,11.71,0,0,0,1.53-2c.08-.13.17-.26.12-.41a.34.34,0,0,0-.29-.22c-.62-.06-1.39.07-2,.07H269.43c-.55,0-1.09,0-1.63.06l-1.18,0c-.33,0-.87-.13-1.16,0,0,0-.08.05-.1.09C265,2.75,267,5.13,267.29,5.56Zm-70.9-2.49c-.38,0-1.49-.2-1.75.17-.39.55,1.1,2.49,1.41,3,1.86,3,3.81,5.94,5.9,8.81.22.3.53.64.89.58a1,1,0,0,0,.51-.36,28.89,28.89,0,0,0,2.34-3.18L208.47,8c1-1.44,1.77-2.93,2.82-4.31a.43.43,0,0,0,.13-.35c0-.13-.14-.22-.29-.25l-.18,0c-.53,0-1.16.09-1.69.1-.71,0-1.43,0-2.14,0-1.44,0-2.86,0-4.3,0s-2.85,0-4.28-.07C197.82,3.14,197.1,3.12,196.39,3.07Zm34.77,4.65a22.94,22.94,0,0,0-1.84-2.39,6.62,6.62,0,0,0-1.71-2.05c-.92-.61-2.14-.38-3.22-.25l-.44,0c-.19,0-.39.06-.47.22a.52.52,0,0,0,.15.48l4.11,5.46a2.2,2.2,0,0,0,.93.86c.67.26,1.32-.54,1.83-.87C231.18,8.75,231.61,8.6,231.16,7.72Zm71.28.4c.15-.1.3-.19.34-.35a.72.72,0,0,0-.1-.4c-.71-1.5-1.45-3-2.13-4.51a1.53,1.53,0,0,0-.28-.46c-.5-.51-1.52-.25-2.14-.22l-2.83.1c-.14,0-.32,0-.37.18a.34.34,0,0,0,.11.32c1.44,2.05,3.08,4.05,4.4,6.16.12.18.25.39.45.45a1,1,0,0,0,.85-.21Zm9.14,3.3a3.19,3.19,0,0,0-1.28,1.27c-.51.78-1,1.56-1.55,2.34-.14.21-.31.43-.57.44s-.47-.23-.61-.46l-1.74-2.56a1.36,1.36,0,0,0-.61-.6c-.4-.15-.75.28-1.05.49-.48.35-1,.67-1.5,1a.77.77,0,0,0-.26.25.67.67,0,0,0,.15.61c.79,1.22,1.6,2.38,2.43,3.56.4.61.84,1.18,1.27,1.77l.65.88c.12.17.63.67.63.87s.23.4.41.33a.48.48,0,0,0,.22-.2.26.26,0,0,0,.07-.1c.34-.49.67-1,1-1.48s.74-1.07,1.12-1.61c.68-1,1.36-2,2-3,.31-.44.53-.93.82-1.38s.62-.65.58-1.14-.55-.71-.83-1A1.23,1.23,0,0,0,311.58,11.42Zm-69.59,0a44.89,44.89,0,0,0-2.64,3.74c-.28.45-.68,1-1.21.9a1.41,1.41,0,0,1-.84-.7l-1.93-2.74a1.48,1.48,0,0,0-.9-.72c-.47-.07-1,.45-1.33.68l-1.55,1c-.18.11-.37.23-.39.43a.73.73,0,0,0,.22.56L235.17,19q.92,1.13,1.86,2.25c.39.47.95,1.46,1.61,1.58a.53.53,0,0,0,.39-.05,1.16,1.16,0,0,0,.43-.47l5.73-9.11a1.55,1.55,0,0,0,.27-.6,1.32,1.32,0,0,0-.82-1.18C243.59,10.9,242.91,10.27,242,11.41ZM248.8,2.2A5.54,5.54,0,0,0,247,4.27c-.46.78-.94,1.49-1.42,2.24a1.55,1.55,0,0,0-.34.87c0,.55,1.85,1.8,2.34,1.69a1.21,1.21,0,0,0,.67-.63c1-1.53,2-3,2.85-4.63.23-.4.69-.87.71-1.35.07-.79-1.63-.65-2.14-.58A2.4,2.4,0,0,0,248.8,2.2Zm71.5,0c-.51,0-1,0-1.52-.06a4,4,0,0,0-1.58.1c-.59.22-.74.61-1,1.1s-.84,1.17-1.22,1.77c-.52.82-1.5,1.87-.37,2.65.36.25.76.35,1.12.6a3.93,3.93,0,0,0,.47.32.72.72,0,0,0,.62,0,2,2,0,0,0,.67-.74L321,2.48C321.21,2.15,320.48,2.24,320.3,2.24ZM56.79,3.07c-.38,0-1.49-.2-1.75.17-.39.55,1.1,2.49,1.41,3,1.87,3,3.81,5.94,5.9,8.81.22.3.53.64.89.58a1,1,0,0,0,.51-.36,29,29,0,0,0,2.35-3.18C67,10.71,68,9.35,68.87,8s1.78-2.93,2.82-4.31a.47.47,0,0,0,.14-.35.35.35,0,0,0-.3-.25l-.17,0c-.54,0-1.17.09-1.69.1-.72,0-1.44,0-2.15,0-1.44,0-2.86,0-4.29,0s-2.86,0-4.28-.07C58.22,3.14,57.5,3.12,56.79,3.07ZM127.7,5.56c.79,1.16,1.58,2.33,2.4,3.47s1.49,2.11,2.25,3.15c.31.42.57.89.89,1.3s.86,1.28,1.34.69c.6-.75,1.21-1.5,1.8-2.28s1.32-1.75,2-2.63a55.07,55.07,0,0,1,3.47-4.75,11.71,11.71,0,0,0,1.53-2c.08-.13.18-.26.12-.41s-.16-.2-.29-.22c-.62-.06-1.38.07-2,.07H129.83c-.55,0-1.09,0-1.62.06L127,2c-.34,0-.88-.13-1.17,0,0,0-.08.05-.09.09C125.39,2.75,127.42,5.13,127.7,5.56Zm35.14,2.56c.15-.1.3-.19.34-.35a.7.7,0,0,0-.09-.4c-.72-1.5-1.45-3-2.14-4.51a1.53,1.53,0,0,0-.28-.46c-.5-.51-1.52-.25-2.13-.22l-2.83.1a.39.39,0,0,0-.38.18.34.34,0,0,0,.11.32c1.45,2.05,3.08,4.05,4.4,6.16.12.18.25.39.45.45a1,1,0,0,0,.85-.21Zm-71.28-.4a22.94,22.94,0,0,0-1.84-2.39A6.59,6.59,0,0,0,88,3.28c-.93-.61-2.15-.38-3.22-.25l-.45,0c-.18,0-.38.06-.46.22a.52.52,0,0,0,.14.48q2.06,2.74,4.11,5.46a2.16,2.16,0,0,0,.94.86c.67.26,1.31-.54,1.82-.87C91.59,8.75,92,8.6,91.56,7.72ZM172,11.42a3.25,3.25,0,0,0-1.28,1.27c-.51.78-1,1.56-1.55,2.34-.14.21-.31.43-.56.44s-.47-.23-.62-.46l-1.73-2.56a1.38,1.38,0,0,0-.62-.6c-.4-.15-.75.28-1.05.49-.48.35-1,.67-1.5,1a.67.67,0,0,0-.25.25.64.64,0,0,0,.14.61c.8,1.22,1.6,2.38,2.43,3.56.4.61.85,1.18,1.28,1.77.21.29.43.58.64.88s.63.67.63.87.23.4.42.33a.51.51,0,0,0,.21-.2.18.18,0,0,0,.07-.1c.35-.49.67-1,1-1.48l1.12-1.61c.68-1,1.37-2,2-3,.31-.44.52-.93.82-1.38s.61-.65.57-1.14-.55-.71-.83-1A1.23,1.23,0,0,0,172,11.42ZM109.2,2.2a5.63,5.63,0,0,0-1.76,2.07c-.45.78-.94,1.49-1.42,2.24a1.63,1.63,0,0,0-.34.87c0,.55,1.86,1.8,2.34,1.69a1.18,1.18,0,0,0,.67-.63c1-1.53,2-3,2.86-4.63.22-.4.68-.87.71-1.35.06-.79-1.64-.65-2.15-.58A2.53,2.53,0,0,0,109.2,2.2Zm-6.8,9.21a42.76,42.76,0,0,0-2.65,3.74c-.28.45-.68,1-1.2.9a1.43,1.43,0,0,1-.85-.7l-1.93-2.74a1.48,1.48,0,0,0-.9-.72c-.47-.07-1,.45-1.33.68l-1.55,1c-.18.11-.36.23-.39.43a.71.71,0,0,0,.23.56L95.57,19c.62.75,1.23,1.5,1.86,2.25.39.47,1,1.46,1.61,1.58a.53.53,0,0,0,.39-.05,1.16,1.16,0,0,0,.43-.47l5.73-9.11a1.55,1.55,0,0,0,.27-.6c.07-.51-.38-.94-.82-1.18C104,10.9,103.31,10.27,102.4,11.41Zm78.3-9.17c-.51,0-1,0-1.52-.06a4,4,0,0,0-1.58.1c-.59.22-.74.61-1,1.1s-.85,1.17-1.22,1.77C174.82,6,173.84,7,175,7.8c.36.25.77.35,1.13.6a3.26,3.26,0,0,0,.47.32.7.7,0,0,0,.61,0,1.92,1.92,0,0,0,.67-.74q1.78-2.73,3.55-5.46C181.61,2.15,180.89,2.24,180.7,2.24ZM32.38,11.42a3.23,3.23,0,0,0-1.27,1.27c-.51.78-1,1.56-1.56,2.34a.77.77,0,0,1-.56.44c-.27,0-.47-.23-.62-.46l-1.73-2.56a1.38,1.38,0,0,0-.62-.6c-.4-.15-.75.28-1,.49-.49.35-1,.68-1.51,1a.67.67,0,0,0-.25.25.67.67,0,0,0,.15.61c.79,1.22,1.59,2.38,2.43,3.56.4.61.84,1.18,1.27,1.77.21.29.43.58.64.88s.63.67.63.87.23.4.42.33a.51.51,0,0,0,.21-.2.18.18,0,0,0,.07-.1c.35-.49.67-1,1-1.48s.74-1.07,1.11-1.61c.69-1,1.37-2,2-3,.31-.45.52-.94.82-1.39s.62-.65.58-1.14-.55-.71-.84-1A1.23,1.23,0,0,0,32.38,11.42Zm-9.13-3.3c.14-.1.29-.19.33-.35a.7.7,0,0,0-.09-.4c-.71-1.5-1.45-3-2.14-4.51a1.36,1.36,0,0,0-.28-.46c-.49-.51-1.51-.25-2.13-.22l-2.83.1a.39.39,0,0,0-.38.18.34.34,0,0,0,.11.32c1.45,2.05,3.09,4.05,4.4,6.16.12.18.26.39.46.45a1,1,0,0,0,.84-.21ZM41.1,2.24c-.51,0-1,0-1.51-.06a4,4,0,0,0-1.59.1c-.59.22-.74.61-1,1.1s-.85,1.17-1.22,1.77C35.23,6,34.25,7,35.37,7.8c.37.25.77.35,1.13.6a3.26,3.26,0,0,0,.47.32.72.72,0,0,0,.62,0,2.09,2.09,0,0,0,.67-.74L41.8,2.48C42,2.15,41.29,2.24,41.1,2.24Z"/><path class="a6302099-fe5b-490f-8fb1-64389627052b" d="M346.66,13a9.9,9.9,0,0,1,1,.65c.39.21.94.24.93.84a1.88,1.88,0,0,1-.5,1c-1.67,2.18-3.16,4.48-4.67,6.8a1,1,0,0,1-.57.53.19.19,0,0,1-.1,0c-.39,0-.72-.32-1-.66l-3.3-4.38-1.61-2.16c-.38-.5-.93-1-.36-1.57a2,2,0,0,1,.57-.4L338.2,13a.75.75,0,0,1,.37-.13.53.53,0,0,1,.47.25c.75,1,1.4,2.07,2.24,3,.32.38.74.77,1.22.7a1.56,1.56,0,0,0,.9-.69c.73-.89,1.45-1.81,2.17-2.72C345.92,13,346.07,12.76,346.66,13Zm59.9-5.56c-.08-.49-.53-.87-.78-1.26-.34-.55-.69-1.09-1-1.65s-.67-1.75-1.42-2.07a2.7,2.7,0,0,0-.9-.15c-1.15-.06-2.29-.13-3.45-.18a.81.81,0,0,0-.53.08.24.24,0,0,0-.08.06c-.23.26,0,.66.18.93L403,9a1,1,0,0,0,.62.48,1,1,0,0,0,.67-.22C404.91,8.9,406.69,8.25,406.56,7.41ZM329.17,2.73c-.32,0-.83.17-.83.57a1.33,1.33,0,0,0,.3.69l4.61,6.17a1.55,1.55,0,0,0,.53.55,1.37,1.37,0,0,0,1.14,0,3.8,3.8,0,0,0,1-.65c.26-.2.53-.44.53-.76a1.09,1.09,0,0,0-.22-.55c-.68-1.13-1.48-2.11-2.09-3.29C333.1,3.54,331.6,2.26,329.17,2.73Zm22.41,1.51L349,8.57a1.37,1.37,0,0,0-.22.58c0,.54,1,1.12,1.46,1.33a.92.92,0,0,0,.84,0,1.36,1.36,0,0,0,.43-.49c1.21-1.86,2.4-3.73,3.61-5.59.22-.34.46-.75.12-1a0,0,0,0,1,0,0A4.11,4.11,0,0,0,353.72,3a2.13,2.13,0,0,0-1.51.4A3.64,3.64,0,0,0,351.58,4.24ZM368.69,2.9c-.15.22,0,.51.19.71,1.46,1.87,2.92,3.73,4.37,5.6,1.34,1.7,2.75,3.28,4.06,5,.11.13.23.28.41.28s.3-.15.4-.29l4.24-5.64c1.42-1.89,2.69-3.84,3.95-5.82a.93.93,0,0,0,.17-.46c-.05-.72-2.14-.35-2.59-.31-3.26.3-6.56.43-9.85.54-1.6.07-3.21.11-4.8.18C369,2.7,368.79,2.73,368.69,2.9Zm73.39-.52a.53.53,0,0,0-.31.08.22.22,0,0,0-.09.1.75.75,0,0,0,0,.47,19.29,19.29,0,0,0,2.49,5.63c.58,1,1.21,1.95,1.87,2.88.27.36,1.43,2.31,1.86,2.17a.73.73,0,0,0,.37-.4,14.17,14.17,0,0,1,.84-1.41c.94-1.5,1.85-3,2.75-4.55s1.88-2.88,2.8-4.33a.55.55,0,0,0,.14-.47c-.14-.35-.81-.21-1.09-.25a7.42,7.42,0,0,0-1.49,0h-7.46C443.85,2.27,443,2.34,442.08,2.38Zm-18.84.67a34.34,34.34,0,0,0-2.17,3.23,1.1,1.1,0,0,0-.17.52v.12c.05.34.69.74,1,.93.65.44,1.3.82,1.92.24a9.83,9.83,0,0,0,1.05-1.42c.48-.63.94-1.29,1.37-2a16.88,16.88,0,0,0,1.26-2c.39-.86-.73-.68-1.26-.73a3.32,3.32,0,0,0-2.22.25A3.49,3.49,0,0,0,423.24,3.05Zm-5.76,8.09c-.7.86-1.32,1.79-2,2.67-.39.49-1.34,2.36-2.16,2-.36-.18-.63-.75-.89-1.07-.68-.88-1.3-1.76-2-2.65a1.13,1.13,0,0,0-.63-.49,1.23,1.23,0,0,0-.7.22c-.51.33-1,.63-1.53.94a2.16,2.16,0,0,0-.9.79c-.34.66.41,1.36.77,1.87.58.8,1.22,1.54,1.8,2.35,1.06,1.5,2.1,3,3.16,4.48a1.74,1.74,0,0,0,.4.41.48.48,0,0,0,.47.08.76.76,0,0,0,.34-.3q2.78-3.77,5.54-7.5a3.5,3.5,0,0,0,.8-1.64c.1-.75-.36-1.09-.89-1.45C418.83,11.63,417.85,10.68,417.48,11.14ZM212,4.24c-.88,1.45-1.73,2.9-2.59,4.33a1.27,1.27,0,0,0-.23.58c0,.54,1.05,1.12,1.46,1.33a.94.94,0,0,0,.85,0,1.47,1.47,0,0,0,.43-.49l3.6-5.59c.22-.34.46-.75.13-1,0,0,0,0,0,0A4.06,4.06,0,0,0,214.12,3a2.11,2.11,0,0,0-1.5.4A3.14,3.14,0,0,0,212,4.24Zm65.89,6.9c-.7.86-1.32,1.79-2,2.67-.39.49-1.34,2.36-2.16,2-.36-.18-.63-.75-.89-1.07-.68-.88-1.3-1.76-2-2.65a1.13,1.13,0,0,0-.63-.49,1.23,1.23,0,0,0-.7.22c-.5.33-1,.63-1.52.94a2.1,2.1,0,0,0-.9.79c-.35.66.4,1.36.76,1.87.58.8,1.22,1.54,1.8,2.35l3.16,4.48a1.6,1.6,0,0,0,.41.41.48.48,0,0,0,.47.08.79.79,0,0,0,.33-.3q2.77-3.77,5.54-7.5a3.62,3.62,0,0,0,.81-1.64c.09-.75-.36-1.09-.9-1.45C279.23,11.63,278.25,10.68,277.88,11.14ZM189.57,2.73c-.32,0-.83.17-.83.57a1.27,1.27,0,0,0,.31.69l4.6,6.17a1.67,1.67,0,0,0,.54.55,1.37,1.37,0,0,0,1.14,0,3.75,3.75,0,0,0,1-.65c.26-.2.53-.44.53-.76a1.09,1.09,0,0,0-.22-.55c-.68-1.13-1.47-2.11-2.09-3.29C193.5,3.54,192,2.26,189.57,2.73ZM206,13.47c-.73.91-1.45,1.83-2.18,2.72a1.56,1.56,0,0,1-.9.69c-.48.07-.89-.32-1.22-.7-.84-.95-1.49-2-2.24-3a.52.52,0,0,0-.47-.25.75.75,0,0,0-.37.13l-1.11.65a1.88,1.88,0,0,0-.58.4c-.57.57,0,1.07.36,1.57.54.71,1.07,1.43,1.61,2.16l3.3,4.38c.24.34.58.7,1,.66a.19.19,0,0,0,.09,0,1,1,0,0,0,.58-.53c1.5-2.32,3-4.62,4.67-6.8a1.86,1.86,0,0,0,.49-1c0-.6-.54-.63-.92-.84a9,9,0,0,0-1-.65C206.47,12.76,206.33,13,206,13.47Zm61-6.06c-.08-.49-.52-.87-.78-1.26-.33-.55-.68-1.09-1-1.65s-.68-1.75-1.43-2.07a2.7,2.7,0,0,0-.9-.15c-1.15-.06-2.29-.13-3.44-.18a.83.83,0,0,0-.54.08s-.05,0-.08.06c-.23.26,0,.66.19.93L263.44,9a1,1,0,0,0,.62.48,1,1,0,0,0,.67-.22C265.31,8.9,267.09,8.25,267,7.41Zm17.42-5.19a3.25,3.25,0,0,0-.73.83,32.6,32.6,0,0,0-2.18,3.23,1.1,1.1,0,0,0-.17.52v.12c.05.34.7.74,1,.93.64.44,1.3.82,1.91.24a9.14,9.14,0,0,0,1.05-1.42c.48-.63.94-1.29,1.37-2a16.88,16.88,0,0,0,1.26-2c.39-.86-.73-.68-1.26-.73A3.32,3.32,0,0,0,284.38,2.22Zm18.1.16a.53.53,0,0,0-.31.08s-.06.06-.09.11a.78.78,0,0,0,0,.46,19.06,19.06,0,0,0,2.5,5.63c.57,1,1.2,1.95,1.86,2.88.27.36,1.44,2.31,1.87,2.17a.75.75,0,0,0,.36-.4,14.17,14.17,0,0,1,.84-1.41c.94-1.5,1.85-3,2.75-4.55S314.11,4.47,315,3a.55.55,0,0,0,.13-.47c-.13-.35-.8-.21-1.09-.25a7.31,7.31,0,0,0-1.48,0h-7.46C304.25,2.27,303.38,2.34,302.48,2.38Zm-73.39.52c-.15.22,0,.51.19.71,1.46,1.87,2.92,3.73,4.37,5.6,1.34,1.7,2.75,3.28,4.07,5,.1.13.22.28.4.28a.54.54,0,0,0,.4-.29l4.24-5.64c1.42-1.89,2.7-3.84,4-5.82a.91.91,0,0,0,.16-.46c0-.72-2.14-.35-2.59-.31-3.26.3-6.56.43-9.85.54-1.59.07-3.2.11-4.8.18A.67.67,0,0,0,229.09,2.9ZM127.36,7.41c-.08-.49-.52-.87-.78-1.26-.33-.55-.68-1.09-1-1.65s-.67-1.75-1.42-2.07a2.74,2.74,0,0,0-.9-.15l-3.45-.18a.84.84,0,0,0-.54.08l-.08.06c-.23.26,0,.66.19.93L123.85,9a1,1,0,0,0,.61.48,1,1,0,0,0,.68-.22C125.71,8.9,127.5,8.25,127.36,7.41Zm10.92,3.73c-.7.86-1.31,1.79-2,2.67-.39.49-1.34,2.36-2.16,2-.36-.18-.63-.75-.88-1.07-.69-.88-1.3-1.76-2-2.65a1.2,1.2,0,0,0-.63-.49,1.19,1.19,0,0,0-.7.22c-.51.33-1,.63-1.53.94a2.16,2.16,0,0,0-.9.79c-.35.66.4,1.36.76,1.87.58.8,1.22,1.54,1.8,2.35l3.17,4.48a1.42,1.42,0,0,0,.4.41.48.48,0,0,0,.47.08.74.74,0,0,0,.33-.3c1.86-2.51,3.69-5,5.55-7.5a3.6,3.6,0,0,0,.8-1.64c.09-.75-.36-1.09-.9-1.45C139.64,11.63,138.66,10.68,138.28,11.14ZM72.39,4.24,69.8,8.57a1.39,1.39,0,0,0-.23.58c0,.54,1.05,1.12,1.46,1.33a.94.94,0,0,0,.85,0,1.36,1.36,0,0,0,.43-.49c1.21-1.86,2.4-3.73,3.61-5.59.21-.34.45-.75.12-1,0,0,0,0,0,0A4.06,4.06,0,0,0,74.52,3a2.12,2.12,0,0,0-1.5.4A3.14,3.14,0,0,0,72.39,4.24Zm72.4-2a3.11,3.11,0,0,0-.74.83,30.87,30.87,0,0,0-2.17,3.23,1,1,0,0,0-.18.52v.12c.06.34.7.74,1,.93.64.44,1.3.82,1.92.24a9.77,9.77,0,0,0,1-1.42c.49-.63.94-1.29,1.37-2a15.69,15.69,0,0,0,1.26-2c.39-.86-.72-.68-1.26-.73A3.29,3.29,0,0,0,144.79,2.22ZM66.38,13.47c-.73.91-1.45,1.83-2.17,2.72a1.63,1.63,0,0,1-.9.69c-.49.07-.9-.32-1.22-.7-.85-.95-1.49-2-2.24-3a.54.54,0,0,0-.47-.25A.75.75,0,0,0,59,13l-1.11.65a2.16,2.16,0,0,0-.58.4c-.56.58,0,1.07.36,1.57.54.71,1.08,1.43,1.61,2.16l3.3,4.38c.24.34.58.7,1,.66a.14.14,0,0,0,.09,0,1,1,0,0,0,.58-.53c1.5-2.32,3-4.62,4.67-6.8a1.86,1.86,0,0,0,.49-1c0-.6-.53-.63-.92-.84a9.9,9.9,0,0,0-1-.65C66.88,12.76,66.73,13,66.38,13.47ZM89.49,2.9c-.14.22,0,.51.19.71,1.46,1.87,2.92,3.73,4.37,5.6,1.35,1.7,2.75,3.28,4.07,5,.11.13.23.28.4.28a.52.52,0,0,0,.4-.29c1.43-1.88,2.83-3.76,4.24-5.64s2.7-3.84,4-5.82a.91.91,0,0,0,.16-.46c0-.72-2.13-.35-2.59-.31-3.26.3-6.56.43-9.84.54-1.6.07-3.21.11-4.81.18A.67.67,0,0,0,89.49,2.9ZM50,2.73c-.32,0-.83.17-.83.57a1.27,1.27,0,0,0,.31.69l4.6,6.17a1.67,1.67,0,0,0,.54.55,1.37,1.37,0,0,0,1.14,0,4,4,0,0,0,1-.65c.25-.2.52-.44.52-.76A1.17,1.17,0,0,0,57,8.79c-.69-1.13-1.48-2.11-2.1-3.29C53.9,3.54,52.4,2.26,50,2.73Zm112.91-.35a.52.52,0,0,0-.3.08.27.27,0,0,0-.1.11.78.78,0,0,0,0,.46A19.06,19.06,0,0,0,165,8.66c.58,1,1.21,1.95,1.86,2.88.27.36,1.44,2.31,1.87,2.17a.75.75,0,0,0,.36-.4,12.56,12.56,0,0,1,.85-1.41c.94-1.5,1.85-3,2.75-4.55s1.87-2.88,2.8-4.33a.55.55,0,0,0,.13-.47c-.13-.35-.8-.21-1.08-.25a7.42,7.42,0,0,0-1.49,0h-7.46C164.65,2.27,163.78,2.34,162.88,2.38Zm-139.59,0a.53.53,0,0,0-.31.08.27.27,0,0,0-.1.11.79.79,0,0,0,0,.46,19.29,19.29,0,0,0,2.49,5.63c.58,1,1.21,1.95,1.87,2.88.27.36,1.43,2.31,1.86,2.17a.71.71,0,0,0,.36-.4,14.25,14.25,0,0,1,.85-1.41c.94-1.5,1.85-3,2.75-4.55S34.92,4.47,35.84,3A.55.55,0,0,0,36,2.55c-.14-.35-.81-.21-1.09-.25a7.42,7.42,0,0,0-1.49,0H25.94C25.06,2.27,24.19,2.34,23.29,2.38Z"/><path class="b6c546ff-7a9a-495b-a8fe-7b24a1e46a71" d="M197.16.87c-3-.08-6.1-.22-9.16-.21-3.24,0-6.49-.36-9.76-.36l-17,0c-17,0-34-.41-50.91,0-7.52.22-15,.47-22.57.62-4.65.08-9.29.19-13.94.25-4.16.07-8.21-.26-12.34-.25s-8.63.1-12.8-.3C45.31.31,42,.31,38.65.3c-5.68,0-11.35,0-17,0-6.54,0-13.3-.59-19.81,0C.73.35-.86.91.57,1.77c.93.56,3.31.33,4.37.34,2.5,0,5,0,7.48,0a3.41,3.41,0,0,1,1.28.12,1.27,1.27,0,0,1,.42.38A46.69,46.69,0,0,1,17,6.47c.95,1.33,1.93,2.67,2.83,4,1.52,2.28,3,4.6,4.52,6.88.78,1.14,1.56,2.28,2.36,3.41a14.73,14.73,0,0,1,1.21,1.67c.22.4.43.78,1,.4a4.42,4.42,0,0,0,.73-.91l.91-1.23c.63-.86,1.22-1.75,1.84-2.62,1.26-1.75,2.5-3.53,3.67-5.36s2.38-3.54,3.62-5.28c.62-.87,1.25-1.73,1.85-2.6a13.33,13.33,0,0,1,1.59-2.12,2.89,2.89,0,0,1,2.13-.49A3.37,3.37,0,0,1,47.83,3.5c3.06,4.42,6.23,8.79,9.36,13.16,1,1.37,2,2.71,3,4.06l1.52,2a14,14,0,0,0,1,1.56.9.9,0,0,0,.49.31.82.82,0,0,0,.69-.36c1.64-2,3-4.28,4.47-6.4,1.8-2.59,3.56-5.21,5.31-7.82,1.3-1.92,2.49-3.92,3.83-5.83a2.12,2.12,0,0,1,1.12-1,4.67,4.67,0,0,1,1.73-.26,3.36,3.36,0,0,1,1.53.34,3.59,3.59,0,0,1,1.29,1.36c.34.55.78,1,1.17,1.53.91,1.16,1.81,2.32,2.73,3.48,3.83,4.8,7.07,10,11.35,14.43.31.32.55.85,1.24.63a12.54,12.54,0,0,0,1.43-2.28c.59-.88,1.18-1.77,1.76-2.67,1.89-2.85,3.77-5.74,5.62-8.64s3.44-5.7,5.31-8.42a1.84,1.84,0,0,1,1.8-.9,2.84,2.84,0,0,1,1.65.43,6.87,6.87,0,0,1,1.22,1.64l2.64,3.79c1.77,2.56,3.57,5.11,5.41,7.62,1,1.33,1.93,2.66,2.91,4,1.25,1.69,2.48,3.39,3.73,5.09a1,1,0,0,0,.55.47c.47.11,1-1,1.22-1.32.44-.62.91-1.24,1.38-1.86.94-1.22,1.89-2.44,2.81-3.68,2-2.75,3.95-5.52,5.89-8.31,1-1.39,1.91-2.79,2.87-4.2l1.42-2.1c.28-.45.56-1.17,1.17-1.2s1.05-.05,1.58,0a3.36,3.36,0,0,1,1.27.12,1.21,1.21,0,0,1,.43.38c1.07,1.21,2,2.55,2.9,3.85s1.93,2.67,2.83,4c1.52,2.28,3,4.6,4.52,6.88.78,1.14,1.56,2.28,2.36,3.41a16.08,16.08,0,0,1,1.21,1.67c.21.4.43.78,1,.4a4.07,4.07,0,0,0,.72-.91c.31-.4.62-.82.91-1.23.64-.86,1.23-1.75,1.84-2.62,1.26-1.75,2.51-3.53,3.68-5.36s2.37-3.54,3.62-5.28c.62-.87,1.25-1.73,1.85-2.6a13.28,13.28,0,0,1,1.58-2.12,2.93,2.93,0,0,1,2.14-.49,3.37,3.37,0,0,1,2.56,1.24c3.06,4.42,6.24,8.79,9.37,13.16,1,1.37,2,2.71,3,4.06l1.52,2a12.75,12.75,0,0,0,1,1.56.91.91,0,0,0,.48.31.82.82,0,0,0,.7-.36c1.64-2,3-4.28,4.47-6.4,1.8-2.59,3.55-5.21,5.31-7.82,1.3-1.92,2.48-3.92,3.82-5.83a2.11,2.11,0,0,1,1.13-1,4.64,4.64,0,0,1,1.73-.26,3.39,3.39,0,0,1,1.53.34,3.74,3.74,0,0,1,1.29,1.36,17.2,17.2,0,0,0,1.17,1.53c.91,1.16,1.81,2.32,2.73,3.48,3.83,4.8,7.07,10,11.35,14.43.31.32.55.85,1.23.63a12.06,12.06,0,0,0,1.44-2.28c.59-.88,1.18-1.77,1.76-2.67,1.89-2.85,3.77-5.74,5.62-8.64s3.43-5.7,5.31-8.42a1.83,1.83,0,0,1,1.8-.9,2.84,2.84,0,0,1,1.65.43A6.87,6.87,0,0,1,258,3.87l2.64,3.79c1.77,2.56,3.57,5.11,5.41,7.62q1.44,2,2.91,4c1.25,1.69,2.48,3.39,3.73,5.09a1,1,0,0,0,.55.47c.47.11,1-1,1.22-1.32.44-.62.91-1.24,1.38-1.86.94-1.22,1.89-2.44,2.8-3.69q3-4.12,5.89-8.3c1-1.39,1.92-2.79,2.87-4.2l1.43-2.1c.28-.45.56-1.17,1.16-1.2s1.06-.05,1.59,0a3.38,3.38,0,0,1,1.27.12,1.3,1.3,0,0,1,.43.38c1.07,1.21,2,2.55,2.9,3.85s1.93,2.67,2.83,4c1.51,2.28,3,4.6,4.52,6.88.78,1.14,1.55,2.28,2.36,3.41a17.7,17.7,0,0,1,1.21,1.67c.21.4.43.78,1,.4a4.38,4.38,0,0,0,.72-.91c.31-.4.62-.82.91-1.23.63-.86,1.22-1.75,1.84-2.62,1.26-1.75,2.51-3.53,3.68-5.36s2.37-3.54,3.62-5.28c.61-.87,1.24-1.73,1.85-2.6a12.7,12.7,0,0,1,1.58-2.12,2.93,2.93,0,0,1,2.14-.49A3.37,3.37,0,0,1,327,3.5c3.06,4.42,6.24,8.79,9.36,13.16,1,1.37,2,2.71,3,4.06l1.52,2a11.69,11.69,0,0,0,1,1.56.68.68,0,0,0,1.18-.05c1.64-2,3-4.28,4.47-6.4,1.79-2.59,3.55-5.21,5.31-7.82,1.3-1.92,2.48-3.92,3.82-5.83a2.11,2.11,0,0,1,1.13-1,4.64,4.64,0,0,1,1.73-.26,3.39,3.39,0,0,1,1.53.34,3.74,3.74,0,0,1,1.29,1.36,17.09,17.09,0,0,0,1.16,1.53c.91,1.16,1.81,2.32,2.74,3.48,3.82,4.8,7.07,10,11.35,14.43.31.32.55.85,1.23.63a12.06,12.06,0,0,0,1.44-2.28c.59-.88,1.18-1.77,1.75-2.67,1.9-2.85,3.77-5.74,5.63-8.64s3.43-5.7,5.31-8.42a1.83,1.83,0,0,1,1.8-.9,2.84,2.84,0,0,1,1.65.43,7.15,7.15,0,0,1,1.22,1.64c.88,1.27,1.75,2.53,2.64,3.79,1.77,2.56,3.57,5.11,5.4,7.62l2.92,4,3.72,5.09a1,1,0,0,0,.55.47c.47.11,1-1,1.23-1.32.44-.62.91-1.24,1.38-1.86.94-1.22,1.89-2.44,2.8-3.69q3-4.12,5.89-8.3c1-1.39,1.92-2.79,2.87-4.2l1.42-2.1c.28-.45.57-1.17,1.17-1.2s1.06-.05,1.58,0a3.41,3.41,0,0,1,1.28.12,1.3,1.3,0,0,1,.43.38c1.07,1.21,1.95,2.55,2.89,3.85s1.94,2.67,2.83,4c1.52,2.28,3,4.6,4.53,6.88.77,1.14,1.55,2.28,2.36,3.41a16,16,0,0,1,1.2,1.67c.22.4.43.78,1,.4a4.11,4.11,0,0,0,.73-.91c.31-.4.61-.82.91-1.23.63-.86,1.22-1.75,1.84-2.62,1.26-1.75,2.51-3.53,3.67-5.36s2.38-3.54,3.62-5.28c.62-.87,1.25-1.73,1.86-2.6a12.7,12.7,0,0,1,1.58-2.12,3.23,3.23,0,0,1,2.36-.48c3.33.27,6.72.17,10.07.2a3.11,3.11,0,0,0,1.49-.24A1,1,0,0,0,476.39,1c-.23-.53-.92-.61-1.5-.61-5.82-.08-11.63,0-17.45,0s-11.35,0-17,0c-17,0-34-.41-50.91,0-7.53.22-15,.47-22.58.62-4.64.08-9.28.19-13.94.25-4.16.07-8.21-.26-12.34-.25-3.39,0-6.73-.1-10.13-.14C326.23.74,322.15.3,317.84.3l-17,0c-17,0-34-.41-50.91,0-7.53.22-15,.47-22.58.62-4.64.08-9.28.19-13.94.25-4.15.07-8.2-.26-12.34-.25C199.75.93,198.46.91,197.16.87Zm206.5,8.6A1,1,0,0,1,403,9l-4.47-5.82c-.21-.27-.41-.67-.18-.93a.24.24,0,0,1,.08-.06A.81.81,0,0,1,399,2.1c1.16,0,2.3.12,3.45.18a2.7,2.7,0,0,1,.9.15c.75.32,1,1.44,1.42,2.07s.67,1.1,1,1.65c.25.39.7.77.78,1.26.13.84-1.65,1.49-2.23,1.84A1,1,0,0,1,403.66,9.47Zm.83,2a.73.73,0,0,1-.23-.48.31.31,0,0,1,.08-.18,5.27,5.27,0,0,1,1-.61c.44-.28.89-.54,1.3-.86s.45-.46.9-.35a1.44,1.44,0,0,1,.77.56c.19.27.54.76.41,1.09a1,1,0,0,1-.38.4,12.93,12.93,0,0,1-2.78,1.71C405.46,12.76,404.58,11.54,404.49,11.43ZM420,13.27a3.5,3.5,0,0,1-.8,1.64q-2.78,3.73-5.54,7.5a.76.76,0,0,1-.34.3.48.48,0,0,1-.47-.08,1.74,1.74,0,0,1-.4-.41c-1.06-1.49-2.1-3-3.16-4.48-.58-.81-1.22-1.55-1.8-2.35-.36-.51-1.11-1.21-.77-1.87a2.16,2.16,0,0,1,.9-.79c.51-.31,1-.61,1.53-.94a1.23,1.23,0,0,1,.7-.22,1.13,1.13,0,0,1,.63.49c.67.89,1.29,1.77,2,2.65.26.32.53.89.89,1.07.82.39,1.77-1.48,2.16-2,.68-.88,1.3-1.81,2-2.67.37-.46,1.35.49,1.61.68C419.62,12.18,420.08,12.52,420,13.27Zm2.15-3.93a2,2,0,0,1,.42.87,1.46,1.46,0,0,1-.47,1,1.38,1.38,0,0,1-1,.6c-.72,0-1.6-1.19-2.09-1.66a1.17,1.17,0,0,1,0-1.72C419.84,7.57,421.38,8.37,422.13,9.34Zm18.78,2.53a5.61,5.61,0,0,1-.54-1,.82.82,0,0,1-.08-.48c.06-.22.39-.3.55-.4.55-.39,1.12-.77,1.67-1.14a.34.34,0,0,1,.29-.11c.1,0,.16.09.22.17l.6.78c.2.26.55.66.54,1a.85.85,0,0,1,0,.23,1.57,1.57,0,0,1-.66.59c-.43.25-.84.52-1.27.78a1.15,1.15,0,0,1-.45.18C441.38,12.49,441.1,12.18,440.91,11.87ZM453.68,2.3c.28,0,.95-.1,1.09.25a.55.55,0,0,1-.14.47c-.92,1.45-1.94,2.86-2.8,4.33S450,10.4,449.08,11.9a14.17,14.17,0,0,0-.84,1.41.73.73,0,0,1-.37.4c-.43.14-1.59-1.81-1.86-2.17-.66-.93-1.29-1.89-1.87-2.88A19.29,19.29,0,0,1,441.65,3a.75.75,0,0,1,0-.47.22.22,0,0,1,.09-.1.53.53,0,0,1,.31-.08c.9,0,1.77-.11,2.65-.11h7.46A7.42,7.42,0,0,1,453.68,2.3Zm-.29,10.39c0,.49-.32.79-.58,1.14s-.51.94-.82,1.38c-.67,1-1.35,2-2,3-.37.54-.75,1.07-1.11,1.61s-.66,1-1,1.48a.24.24,0,0,1-.06.1.53.53,0,0,1-.22.2c-.19.07-.32-.21-.41-.33s-.51-.7-.63-.87l-.65-.88c-.43-.59-.87-1.16-1.27-1.77-.83-1.18-1.64-2.34-2.43-3.56a.67.67,0,0,1-.15-.61.69.69,0,0,1,.26-.25c.51-.33,1-.65,1.5-1,.29-.21.64-.64,1.05-.49a1.41,1.41,0,0,1,.61.6L447.16,15c.15.23.35.47.62.46a.77.77,0,0,0,.56-.44q.8-1.17,1.56-2.34a3.23,3.23,0,0,1,1.27-1.27,1.24,1.24,0,0,1,1.39.31C452.84,12,453.35,12.26,453.39,12.69Zm2-3.18a.57.57,0,0,1,.14.35,1,1,0,0,1-.22.51c-.29.38-.57.75-.85,1.14a.73.73,0,0,1-.36.31c-.35.09-.86-.37-1.12-.56a9.61,9.61,0,0,0-1.27-.89.52.52,0,0,1-.2-.19.46.46,0,0,1,.09-.4c.3-.47.58-.92.86-1.39.12-.18.26-.37.46-.38a.77.77,0,0,1,.33.12c.61.36,1.17.82,1.8,1.14A1.31,1.31,0,0,1,455.43,9.51Zm2.95-7.33c.51,0,1,0,1.51.06.19,0,.92-.09.7.24l-3.54,5.46a2.09,2.09,0,0,1-.67.74.72.72,0,0,1-.62,0,3.26,3.26,0,0,1-.47-.32c-.36-.25-.76-.35-1.12-.6C453,7,454,6,454.54,5.15c.38-.6.86-1.16,1.22-1.77s.44-.88,1-1.1A4,4,0,0,1,458.38,2.18Zm-18.51.22a1.53,1.53,0,0,1,.28.46c.68,1.52,1.42,3,2.13,4.51a.62.62,0,0,1,.09.4c0,.16-.18.25-.33.35l-1.71,1.06a1,1,0,0,1-.84.21c-.2-.06-.34-.27-.46-.45-1.31-2.11-2.95-4.11-4.4-6.16a.33.33,0,0,1-.1-.32c.05-.14.22-.18.37-.18l2.83-.1C438.35,2.15,439.37,1.89,439.87,2.4ZM426.2,2c.53.05,1.65-.13,1.26.73a16.88,16.88,0,0,1-1.26,2c-.43.67-.89,1.33-1.37,2a9.83,9.83,0,0,1-1.05,1.42c-.62.58-1.27.2-1.92-.24-.27-.19-.91-.59-1-.93V6.8a1.1,1.1,0,0,1,.17-.52,34.34,34.34,0,0,1,2.17-3.23,3.49,3.49,0,0,1,.74-.83A3.32,3.32,0,0,1,426.2,2Zm-3.83-.08a.34.34,0,0,1,.3.22c.05.15,0,.28-.12.41a12.25,12.25,0,0,1-1.53,2,57.37,57.37,0,0,0-3.48,4.75c-.64.88-1.3,1.76-2,2.63s-1.19,1.53-1.8,2.28c-.48.59-1.06-.34-1.34-.69s-.57-.88-.88-1.3c-.77-1-1.52-2.09-2.26-3.15s-1.61-2.31-2.4-3.47c-.28-.43-2.31-2.81-1.93-3.4,0,0,.05-.06.09-.09.3-.16.84,0,1.17,0l1.18,0C407.94,2,408.47,2,409,2h11.33C421,2,421.76,1.83,422.37,1.89ZM20.7,9.39c-.2-.06-.34-.27-.46-.45-1.31-2.11-2.95-4.11-4.4-6.16a.34.34,0,0,1-.11-.32.39.39,0,0,1,.38-.18l2.83-.1c.62,0,1.64-.29,2.13.22a1.36,1.36,0,0,1,.28.46c.69,1.52,1.43,3,2.14,4.51a.7.7,0,0,1,.09.4c0,.16-.19.25-.33.35L21.54,9.18A1,1,0,0,1,20.7,9.39ZM34.89,2.3c.28,0,1-.1,1.09.25a.55.55,0,0,1-.14.47C34.92,4.47,33.9,5.88,33,7.35s-1.81,3.05-2.75,4.55a14.25,14.25,0,0,0-.85,1.41.71.71,0,0,1-.36.4c-.43.14-1.59-1.81-1.86-2.17-.66-.93-1.29-1.89-1.87-2.88A19.29,19.29,0,0,1,22.86,3a.79.79,0,0,1,0-.46.27.27,0,0,1,.1-.11.53.53,0,0,1,.31-.08c.9,0,1.77-.11,2.65-.11H33.4A7.42,7.42,0,0,1,34.89,2.3ZM22.12,11.87a5.06,5.06,0,0,1-.54-1,.82.82,0,0,1-.08-.48c.06-.22.39-.3.55-.4.55-.39,1.12-.77,1.67-1.14A.33.33,0,0,1,24,8.71a.36.36,0,0,1,.22.17l.6.78c.2.26.55.66.54,1a.85.85,0,0,1,0,.23,1.64,1.64,0,0,1-.66.59c-.43.25-.85.52-1.28.78a1.23,1.23,0,0,1-.44.19C22.59,12.49,22.31,12.18,22.12,11.87Zm12.48.82c0,.49-.33.79-.58,1.14s-.51.94-.82,1.39c-.67,1-1.35,2-2,3-.37.54-.75,1.07-1.11,1.61s-.66,1-1,1.48a.18.18,0,0,1-.07.1.51.51,0,0,1-.21.2c-.19.07-.32-.21-.42-.33s-.51-.7-.63-.87-.43-.59-.64-.88c-.43-.59-.87-1.16-1.27-1.77-.84-1.18-1.64-2.34-2.43-3.56a.67.67,0,0,1-.15-.61.67.67,0,0,1,.25-.25c.51-.32,1-.65,1.51-1,.29-.21.64-.64,1-.49a1.38,1.38,0,0,1,.62.6L28.37,15c.15.23.35.47.62.46a.77.77,0,0,0,.56-.44c.52-.78,1.05-1.56,1.56-2.34a3.23,3.23,0,0,1,1.27-1.27,1.23,1.23,0,0,1,1.38.31C34.05,12,34.55,12.26,34.6,12.69Zm2-3.18a.58.58,0,0,1,.15.35,1,1,0,0,1-.23.51l-.84,1.14c-.1.12-.2.27-.36.31-.35.1-.86-.37-1.12-.56A10.31,10.31,0,0,0,33,10.37a.46.46,0,0,1-.2-.19.43.43,0,0,1,.09-.4c.3-.47.58-.92.86-1.39.12-.18.25-.37.46-.38a.82.82,0,0,1,.33.12c.6.36,1.17.82,1.8,1.14A1.12,1.12,0,0,1,36.63,9.51Zm5.17-7L38.26,7.94a2.09,2.09,0,0,1-.67.74.72.72,0,0,1-.62,0,3.26,3.26,0,0,1-.47-.32c-.36-.25-.76-.35-1.13-.6C34.25,7,35.23,6,35.75,5.15c.37-.6.86-1.16,1.22-1.77s.44-.88,1-1.1a4,4,0,0,1,1.59-.1c.51,0,1,0,1.51.06C41.29,2.24,42,2.15,41.8,2.48ZM104.69,2c.46,0,2.55-.41,2.59.31a.91.91,0,0,1-.16.46c-1.26,2-2.54,3.93-4,5.82s-2.81,3.76-4.24,5.64a.52.52,0,0,1-.4.29c-.17,0-.29-.15-.4-.28-1.32-1.72-2.72-3.3-4.07-5-1.45-1.87-2.91-3.73-4.37-5.6-.16-.2-.33-.49-.19-.71A.67.67,0,0,1,90,2.69c1.6-.07,3.21-.11,4.81-.18C98.13,2.4,101.43,2.27,104.69,2Zm-49,10.58a.82.82,0,0,1-.11-.58.84.84,0,0,1,.43-.5l1.22-.82a1.13,1.13,0,0,1,.45-.2.69.69,0,0,1,.52.24c.27.3.79.93.59,1.35a.94.94,0,0,1-.38.33c-.42.3-.87.59-1.3.87a.81.81,0,0,1-.45.19C56.25,13.44,55.86,12.87,55.7,12.55ZM67.52,3.2c.71,0,1.43,0,2.15,0,.52,0,1.15-.12,1.69-.1l.17,0a.35.35,0,0,1,.3.25.47.47,0,0,1-.14.35c-1,1.38-1.84,2.87-2.82,4.31S67,10.71,66.1,12.08a29,29,0,0,1-2.35,3.18,1,1,0,0,1-.51.36c-.36.06-.67-.28-.89-.58-2.09-2.87-4-5.78-5.9-8.81-.31-.5-1.8-2.44-1.41-3,.26-.37,1.37-.18,1.75-.17.71.05,1.43.07,2.16.1,1.42.05,2.85.07,4.28.07S66.08,3.22,67.52,3.2Zm1.86,11.26a1.86,1.86,0,0,1-.49,1c-1.68,2.18-3.17,4.48-4.67,6.8a1,1,0,0,1-.58.53.14.14,0,0,1-.09,0c-.39,0-.73-.32-1-.66l-3.3-4.38c-.53-.73-1.07-1.45-1.61-2.16-.37-.5-.92-1-.36-1.57a2.16,2.16,0,0,1,.58-.4L59,13a.75.75,0,0,1,.38-.13.54.54,0,0,1,.47.25c.75,1,1.39,2.07,2.24,3,.32.38.73.77,1.22.7a1.63,1.63,0,0,0,.9-.69c.72-.89,1.44-1.81,2.17-2.72.35-.43.5-.71,1.09-.5a9.9,9.9,0,0,1,1,.65C68.85,13.83,69.4,13.86,69.38,14.46Zm1.87-2.68a.86.86,0,0,1-.26.66l-.61.82a.63.63,0,0,1-.3.24.57.57,0,0,1-.39-.15l-.88-.62c-.16-.12-.34-.22-.5-.35-.67-.46-.83-.85-.35-1.58a1.53,1.53,0,0,1,.73-.6c.45-.16.64.08.94.32s.83.48,1.22.76A.93.93,0,0,1,71.25,11.78ZM74.52,3A4.06,4.06,0,0,1,76,3.36s0,0,0,0c.33.3.09.71-.12,1-1.21,1.86-2.4,3.73-3.61,5.59a1.36,1.36,0,0,1-.43.49.94.94,0,0,1-.85,0c-.41-.21-1.48-.79-1.46-1.33a1.39,1.39,0,0,1,.23-.58l2.59-4.33A3.14,3.14,0,0,1,73,3.41,2.12,2.12,0,0,1,74.52,3ZM54.92,5.5c.62,1.18,1.41,2.16,2.1,3.29a1.17,1.17,0,0,1,.21.55c0,.32-.27.56-.52.76a4,4,0,0,1-1,.65,1.37,1.37,0,0,1-1.14,0,1.67,1.67,0,0,1-.54-.55L49.45,4a1.27,1.27,0,0,1-.31-.69c0-.4.51-.52.83-.57C52.4,2.26,53.9,3.54,54.92,5.5Zm34.16,4.59a2.16,2.16,0,0,1-.94-.86Q86.09,6.52,84,3.77a.52.52,0,0,1-.14-.48c.08-.16.28-.2.46-.22l.45,0c1.07-.13,2.29-.36,3.22.25a6.59,6.59,0,0,1,1.7,2.05,22.94,22.94,0,0,1,1.84,2.39c.45.88,0,1-.66,1.5C90.39,9.55,89.75,10.35,89.08,10.09Zm1.53,2.59a5.36,5.36,0,0,0-.33-.43c-.37-.51-.59-.9,0-1.5a9.85,9.85,0,0,1,2.14-1.37,1,1,0,0,1,.33-.09.76.76,0,0,1,.49.34c.22.26.47.49.66.74a.6.6,0,0,1,.13.57c-.06.21-.28.34-.47.45L91.22,12.8a.36.36,0,0,1-.61-.12Zm15.25,0a1.55,1.55,0,0,1-.27.6l-5.73,9.11a1.16,1.16,0,0,1-.43.47.53.53,0,0,1-.39.05c-.65-.12-1.22-1.11-1.61-1.58-.63-.75-1.24-1.5-1.86-2.25l-3.74-4.51A.71.71,0,0,1,91.6,14c0-.2.21-.32.39-.43l1.55-1c.37-.23.86-.75,1.33-.68a1.48,1.48,0,0,1,.9.72l1.93,2.74a1.43,1.43,0,0,0,.85.7c.52.06.92-.45,1.2-.9a42.76,42.76,0,0,1,2.65-3.74c.91-1.14,1.59-.51,2.64.05C105.48,11.7,105.93,12.13,105.86,12.64Zm1.65-2.5a.82.82,0,0,1-.2.7c-.18.26-.41.53-.7.5a1.11,1.11,0,0,1-.34-.14c-.12-.06-.22-.14-.34-.21l-1.31-.77c-.48-.28-.77-.6-.61-1.18a.85.85,0,0,1,.91-.69c.29,0,.64.41.9.57.45.31.91.61,1.37.9A.82.82,0,0,1,107.51,10.14Zm4.75-7.68c0,.48-.49,1-.71,1.35-.88,1.59-1.91,3.1-2.86,4.63a1.18,1.18,0,0,1-.67.63c-.48.11-2.31-1.14-2.34-1.69a1.63,1.63,0,0,1,.34-.87c.48-.75,1-1.46,1.42-2.24A5.63,5.63,0,0,1,109.2,2.2a2.53,2.53,0,0,1,.91-.32C110.62,1.81,112.32,1.67,112.26,2.46ZM127,2l1.18,0c.53,0,1.07-.06,1.62-.06h11.32c.65,0,1.41-.13,2-.07.13,0,.27.1.29.22s0,.28-.12.41a11.71,11.71,0,0,1-1.53,2,55.07,55.07,0,0,0-3.47,4.75c-.65.88-1.3,1.76-2,2.63s-1.2,1.53-1.8,2.28c-.48.59-1.06-.34-1.34-.69s-.58-.88-.89-1.3Q131.21,10.62,130.1,9c-.82-1.14-1.61-2.31-2.4-3.47-.28-.43-2.31-2.81-1.93-3.4,0,0,0-.06.09-.09C126.15,1.91,126.69,2.06,127,2Zm-2.57,7.43a1,1,0,0,1-.61-.48l-4.47-5.82c-.21-.27-.42-.67-.19-.93l.08-.06a.84.84,0,0,1,.54-.08l3.45.18a2.74,2.74,0,0,1,.9.15c.75.32,1,1.44,1.42,2.07s.67,1.1,1,1.65c.26.39.7.77.78,1.26.14.84-1.65,1.49-2.22,1.84A1,1,0,0,1,124.46,9.47Zm.84,2a.69.69,0,0,1-.23-.48.31.31,0,0,1,.08-.18,5.22,5.22,0,0,1,1-.61,14.62,14.62,0,0,0,1.3-.86c.3-.23.46-.46.9-.35a1.46,1.46,0,0,1,.78.56c.19.27.54.76.4,1.09a1.1,1.1,0,0,1-.37.4,12.93,12.93,0,0,1-2.78,1.71C126.26,12.76,125.39,11.54,125.3,11.43Zm15.49,1.84a3.6,3.6,0,0,1-.8,1.64c-1.86,2.49-3.69,5-5.55,7.5a.74.74,0,0,1-.33.3.48.48,0,0,1-.47-.08,1.42,1.42,0,0,1-.4-.41l-3.17-4.48c-.58-.81-1.22-1.55-1.8-2.35-.36-.51-1.11-1.21-.76-1.87a2.16,2.16,0,0,1,.9-.79c.51-.31,1-.61,1.53-.94a1.19,1.19,0,0,1,.7-.22,1.2,1.2,0,0,1,.63.49c.67.89,1.28,1.77,2,2.65.25.32.52.89.88,1.07.82.39,1.77-1.48,2.16-2,.69-.88,1.3-1.81,2-2.67.38-.46,1.36.49,1.61.68C140.43,12.18,140.88,12.52,140.79,13.27Zm2.15-3.93a2.08,2.08,0,0,1,.41.87,1.38,1.38,0,0,1-.47,1,1.34,1.34,0,0,1-.95.6c-.72,0-1.61-1.19-2.09-1.66a1.16,1.16,0,0,1,0-1.72C140.64,7.57,142.19,8.37,142.94,9.34Zm5.32-6.64a15.69,15.69,0,0,1-1.26,2c-.43.67-.88,1.33-1.37,2a9.77,9.77,0,0,1-1,1.42c-.62.58-1.28.2-1.92-.24-.27-.19-.91-.59-1-.93V6.8a1,1,0,0,1,.18-.52,30.87,30.87,0,0,1,2.17-3.23,3.11,3.11,0,0,1,.74-.83A3.29,3.29,0,0,1,147,2C147.54,2,148.65,1.84,148.26,2.7Zm12,6.69c-.2-.06-.33-.27-.45-.45-1.32-2.11-3-4.11-4.4-6.16a.34.34,0,0,1-.11-.32.39.39,0,0,1,.38-.18l2.83-.1c.61,0,1.63-.29,2.13.22a1.53,1.53,0,0,1,.28.46c.69,1.52,1.42,3,2.14,4.51a.7.7,0,0,1,.09.4c0,.16-.19.25-.34.35l-1.7,1.06A1,1,0,0,1,160.29,9.39Zm14.2-7.09c.28,0,.95-.1,1.08.25a.55.55,0,0,1-.13.47c-.93,1.45-1.95,2.86-2.8,4.33s-1.81,3.05-2.75,4.55a12.56,12.56,0,0,0-.85,1.41.75.75,0,0,1-.36.4c-.43.14-1.6-1.81-1.87-2.17-.65-.93-1.28-1.89-1.86-2.88A19.06,19.06,0,0,1,162.45,3a.78.78,0,0,1,0-.46.27.27,0,0,1,.1-.11.52.52,0,0,1,.3-.08c.9,0,1.77-.11,2.66-.11H173A7.42,7.42,0,0,1,174.49,2.3Zm-12.77,9.57a4.61,4.61,0,0,1-.54-1,.75.75,0,0,1-.08-.48c.05-.22.39-.3.55-.4.55-.39,1.11-.77,1.66-1.14a.35.35,0,0,1,.3-.11.32.32,0,0,1,.21.17l.61.78c.2.26.55.66.53,1a.59.59,0,0,1,0,.23,1.55,1.55,0,0,1-.65.59c-.43.25-.85.52-1.28.78a1.31,1.31,0,0,1-.44.19A1,1,0,0,1,161.72,11.87Zm12.47.82c0,.49-.32.79-.57,1.14s-.51.94-.82,1.38c-.67,1-1.36,2-2,3l-1.12,1.61c-.33.5-.65,1-1,1.48a.18.18,0,0,1-.07.1.51.51,0,0,1-.21.2c-.19.07-.32-.21-.42-.33s-.51-.7-.63-.87-.43-.59-.64-.88c-.43-.59-.88-1.16-1.28-1.77-.83-1.18-1.63-2.34-2.43-3.56a.64.64,0,0,1-.14-.61.67.67,0,0,1,.25-.25c.51-.33,1-.65,1.5-1,.3-.21.65-.64,1.05-.49a1.38,1.38,0,0,1,.62.6L168,15c.15.23.35.47.62.46s.42-.23.56-.44c.52-.78,1-1.56,1.55-2.34A3.25,3.25,0,0,1,172,11.42a1.23,1.23,0,0,1,1.38.31C173.64,12,174.15,12.26,174.19,12.69Zm2-3.18a.58.58,0,0,1,.15.35,1,1,0,0,1-.23.51l-.84,1.14a.8.8,0,0,1-.37.31c-.35.09-.85-.37-1.11-.56a10.31,10.31,0,0,0-1.27-.89.48.48,0,0,1-.21-.19.46.46,0,0,1,.1-.4c.29-.47.58-.92.86-1.39.12-.18.25-.37.45-.38a.87.87,0,0,1,.34.12c.6.36,1.17.82,1.8,1.14A1.12,1.12,0,0,1,176.23,9.51Zm5.17-7q-1.77,2.73-3.55,5.46a1.92,1.92,0,0,1-.67.74.7.7,0,0,1-.61,0,3.26,3.26,0,0,1-.47-.32c-.36-.25-.77-.35-1.13-.6-1.13-.78-.15-1.83.38-2.65.37-.6.85-1.16,1.22-1.77s.44-.88,1-1.1a4,4,0,0,1,1.58-.1c.51,0,1,0,1.52.06C180.89,2.24,181.61,2.15,181.4,2.48ZM244.29,2c.45,0,2.55-.41,2.59.31a.91.91,0,0,1-.16.46c-1.26,2-2.54,3.93-4,5.82l-4.24,5.64a.54.54,0,0,1-.4.29c-.18,0-.3-.15-.4-.28-1.32-1.72-2.73-3.3-4.07-5-1.45-1.87-2.91-3.73-4.37-5.6-.16-.2-.34-.49-.19-.71a.67.67,0,0,1,.55-.21c1.6-.07,3.21-.11,4.8-.18C237.73,2.4,241,2.27,244.29,2Zm-49,10.58a.82.82,0,0,1-.11-.58.84.84,0,0,1,.43-.5l1.22-.82a1.09,1.09,0,0,1,.44-.2.71.71,0,0,1,.53.24c.27.3.79.93.59,1.35a.94.94,0,0,1-.38.33c-.43.3-.87.59-1.3.87a.84.84,0,0,1-.46.19C195.85,13.44,195.46,12.87,195.3,12.55ZM207.12,3.2c.71,0,1.43,0,2.14,0,.53,0,1.16-.12,1.69-.1l.18,0c.15,0,.28.12.29.25a.43.43,0,0,1-.13.35c-1,1.38-1.84,2.87-2.82,4.31l-2.78,4.08a28.89,28.89,0,0,1-2.34,3.18,1,1,0,0,1-.51.36c-.36.06-.67-.28-.89-.58-2.09-2.87-4-5.78-5.9-8.81-.31-.5-1.8-2.44-1.41-3,.26-.37,1.37-.18,1.75-.17.71.05,1.43.07,2.15.1,1.43.05,2.86.07,4.28.07S205.68,3.22,207.12,3.2ZM209,14.46a1.86,1.86,0,0,1-.49,1c-1.68,2.18-3.17,4.48-4.67,6.8a1,1,0,0,1-.58.53.19.19,0,0,1-.09,0c-.39,0-.73-.32-1-.66l-3.3-4.38c-.54-.73-1.07-1.45-1.61-2.16-.38-.5-.93-1-.36-1.57a1.88,1.88,0,0,1,.58-.4L198.6,13a.75.75,0,0,1,.37-.13.52.52,0,0,1,.47.25c.75,1,1.4,2.07,2.24,3,.33.38.74.77,1.22.7a1.56,1.56,0,0,0,.9-.69c.73-.89,1.45-1.81,2.18-2.72.35-.43.49-.71,1.08-.5a9,9,0,0,1,1,.65C208.44,13.83,209,13.86,209,14.46Zm1.87-2.68a.86.86,0,0,1-.26.66l-.62.82a.61.61,0,0,1-.29.24.55.55,0,0,1-.39-.15l-.89-.62c-.16-.12-.33-.22-.49-.35-.67-.47-.83-.85-.35-1.58a1.5,1.5,0,0,1,.72-.6c.46-.16.65.08.94.32s.83.48,1.22.76A.91.91,0,0,1,210.85,11.78ZM214.12,3a4.06,4.06,0,0,1,1.49.35s0,0,0,0c.33.3.09.71-.13,1L211.91,10a1.47,1.47,0,0,1-.43.49.94.94,0,0,1-.85,0c-.41-.21-1.49-.79-1.46-1.33a1.27,1.27,0,0,1,.23-.58c.86-1.43,1.71-2.88,2.59-4.33a3.14,3.14,0,0,1,.63-.83A2.11,2.11,0,0,1,214.12,3ZM194.52,5.5c.62,1.18,1.41,2.16,2.09,3.29a1.09,1.09,0,0,1,.22.55c0,.32-.27.56-.53.76a3.75,3.75,0,0,1-1,.65,1.37,1.37,0,0,1-1.14,0,1.67,1.67,0,0,1-.54-.55L189.05,4a1.27,1.27,0,0,1-.31-.69c0-.4.51-.52.83-.57C192,2.26,193.5,3.54,194.52,5.5Zm34.15,4.59a2.2,2.2,0,0,1-.93-.86l-4.11-5.46a.52.52,0,0,1-.15-.48c.08-.16.28-.2.47-.22l.44,0c1.08-.13,2.3-.36,3.22.25a6.62,6.62,0,0,1,1.71,2.05,22.94,22.94,0,0,1,1.84,2.39c.45.88,0,1-.66,1.5C230,9.55,229.34,10.35,228.67,10.09Zm1.53,2.59a3.7,3.7,0,0,0-.32-.43c-.37-.51-.59-.9,0-1.5A10.16,10.16,0,0,1,232,9.38a1,1,0,0,1,.32-.09.78.78,0,0,1,.5.34c.21.26.47.49.66.74a.6.6,0,0,1,.13.57.94.94,0,0,1-.47.45l-2.36,1.41a.52.52,0,0,1-.35.11A.55.55,0,0,1,230.2,12.68Zm15.26,0a1.55,1.55,0,0,1-.27.6l-5.73,9.11a1.16,1.16,0,0,1-.43.47.53.53,0,0,1-.39.05c-.66-.12-1.22-1.11-1.61-1.58q-.94-1.12-1.86-2.25l-3.75-4.51a.73.73,0,0,1-.22-.56c0-.2.21-.32.39-.43l1.55-1c.36-.23.86-.75,1.33-.68a1.48,1.48,0,0,1,.9.72l1.93,2.74a1.41,1.41,0,0,0,.84.7c.53.06.93-.45,1.21-.9A44.89,44.89,0,0,1,242,11.41c.92-1.14,1.6-.51,2.65.05A1.32,1.32,0,0,1,245.46,12.64Zm1.65-2.5a.8.8,0,0,1-.21.7c-.17.26-.4.52-.69.5a1.11,1.11,0,0,1-.34-.14c-.12-.06-.23-.14-.35-.21l-1.3-.77c-.48-.28-.78-.6-.62-1.18a.87.87,0,0,1,.92-.69c.29,0,.64.41.9.57.45.31.91.61,1.36.9A.85.85,0,0,1,247.11,10.14Zm4.74-7.68c0,.48-.48,1-.71,1.35-.87,1.59-1.9,3.1-2.85,4.63a1.21,1.21,0,0,1-.67.63c-.49.11-2.31-1.14-2.34-1.69a1.55,1.55,0,0,1,.34-.87c.48-.75,1-1.46,1.42-2.24A5.54,5.54,0,0,1,248.8,2.2a2.4,2.4,0,0,1,.91-.32C250.22,1.81,251.92,1.67,251.85,2.46ZM266.62,2l1.18,0c.54,0,1.08-.06,1.63-.06h11.32c.64,0,1.41-.13,2-.07a.34.34,0,0,1,.29.22c.05.15,0,.28-.12.41a11.71,11.71,0,0,1-1.53,2A55.07,55.07,0,0,0,278,9.26c-.65.88-1.31,1.76-2,2.63s-1.19,1.53-1.79,2.28c-.49.59-1.06-.34-1.35-.69s-.57-.88-.88-1.3Q270.8,10.62,269.7,9c-.82-1.14-1.61-2.31-2.41-3.47-.28-.43-2.3-2.81-1.93-3.4,0,0,.06-.06.1-.09C265.75,1.91,266.29,2.06,266.62,2Zm-2.56,7.43a1,1,0,0,1-.62-.48L259,3.17c-.22-.27-.42-.67-.19-.93,0,0,0-.05.08-.06a.83.83,0,0,1,.54-.08c1.15,0,2.29.12,3.44.18a2.7,2.7,0,0,1,.9.15c.75.32,1.05,1.44,1.43,2.07s.67,1.1,1,1.65c.26.39.7.77.78,1.26.13.84-1.65,1.49-2.23,1.84A1,1,0,0,1,264.06,9.47Zm.83,2a.72.72,0,0,1-.22-.48.26.26,0,0,1,.08-.18,5,5,0,0,1,1-.61,14.62,14.62,0,0,0,1.3-.86c.3-.23.46-.46.9-.35a1.46,1.46,0,0,1,.78.56c.18.27.53.76.4,1.09a1,1,0,0,1-.38.4A12.62,12.62,0,0,1,266,12.71C265.86,12.76,265,11.54,264.89,11.43Zm15.5,1.84a3.62,3.62,0,0,1-.81,1.64q-2.77,3.73-5.54,7.5a.79.79,0,0,1-.33.3.48.48,0,0,1-.47-.08,1.6,1.6,0,0,1-.41-.41l-3.16-4.48c-.58-.81-1.22-1.55-1.8-2.35-.36-.51-1.11-1.21-.76-1.87a2.1,2.1,0,0,1,.9-.79c.51-.31,1-.61,1.52-.94a1.23,1.23,0,0,1,.7-.22,1.13,1.13,0,0,1,.63.49c.67.89,1.29,1.77,2,2.65.26.32.53.89.89,1.07.82.39,1.77-1.48,2.16-2,.68-.88,1.3-1.81,2-2.67.37-.46,1.35.49,1.61.68C280,12.18,280.48,12.52,280.39,13.27Zm2.14-3.93a2,2,0,0,1,.42.87c.07.39-.22.74-.47,1a1.34,1.34,0,0,1-1,.6c-.73,0-1.61-1.19-2.1-1.66a1.16,1.16,0,0,1,.05-1.72C280.24,7.57,281.78,8.37,282.53,9.34Zm5.33-6.64a16.88,16.88,0,0,1-1.26,2c-.43.67-.89,1.33-1.37,2a9.14,9.14,0,0,1-1.05,1.42c-.61.58-1.27.2-1.91-.24-.27-.19-.92-.59-1-.93V6.8a1.1,1.1,0,0,1,.17-.52,32.6,32.6,0,0,1,2.18-3.23,3.25,3.25,0,0,1,.73-.83A3.32,3.32,0,0,1,286.6,2C287.13,2,288.25,1.84,287.86,2.7Zm12,6.69c-.2-.06-.33-.27-.45-.45-1.32-2.11-3-4.11-4.4-6.16a.34.34,0,0,1-.11-.32c.05-.14.23-.18.37-.18l2.83-.1c.62,0,1.64-.29,2.14.22a1.53,1.53,0,0,1,.28.46c.68,1.52,1.42,3,2.13,4.51a.72.72,0,0,1,.1.4c0,.16-.19.25-.34.35l-1.7,1.06A1,1,0,0,1,299.89,9.39ZM314.08,2.3c.29,0,1-.1,1.09.25A.55.55,0,0,1,315,3c-.93,1.45-2,2.86-2.81,4.33s-1.81,3.05-2.75,4.55a14.17,14.17,0,0,0-.84,1.41.75.75,0,0,1-.36.4c-.43.14-1.6-1.81-1.87-2.17-.66-.93-1.29-1.89-1.86-2.88A19.06,19.06,0,0,1,302.05,3a.78.78,0,0,1,0-.46s.05-.09.09-.11a.53.53,0,0,1,.31-.08c.9,0,1.77-.11,2.66-.11h7.46A7.31,7.31,0,0,1,314.08,2.3Zm-12.77,9.57a5,5,0,0,1-.53-1,.75.75,0,0,1-.08-.48c.05-.22.39-.3.55-.4.55-.39,1.11-.77,1.66-1.14a.35.35,0,0,1,.3-.11.32.32,0,0,1,.21.17l.6.78a1.89,1.89,0,0,1,.54,1,.59.59,0,0,1,0,.23,1.52,1.52,0,0,1-.66.59c-.43.25-.84.52-1.27.78a1.31,1.31,0,0,1-.44.19A1,1,0,0,1,301.31,11.87Zm12.48.82c0,.49-.32.79-.58,1.14s-.51.94-.82,1.38c-.67,1-1.35,2-2,3-.38.54-.76,1.07-1.12,1.61s-.66,1-1,1.48a.26.26,0,0,1-.07.1.48.48,0,0,1-.22.2c-.18.07-.32-.21-.41-.33s-.51-.7-.63-.87l-.65-.88c-.43-.59-.87-1.16-1.27-1.77-.83-1.18-1.64-2.34-2.43-3.56a.67.67,0,0,1-.15-.61.77.77,0,0,1,.26-.25c.51-.33,1-.65,1.5-1,.3-.21.65-.64,1.05-.49a1.36,1.36,0,0,1,.61.6L307.57,15c.14.23.34.47.61.46s.43-.23.57-.44c.52-.78,1-1.56,1.55-2.34a3.19,3.19,0,0,1,1.28-1.27,1.23,1.23,0,0,1,1.38.31C313.24,12,313.75,12.26,313.79,12.69Zm2-3.18a.58.58,0,0,1,.15.35,1,1,0,0,1-.23.51c-.28.38-.57.75-.85,1.14a.73.73,0,0,1-.36.31c-.35.09-.86-.37-1.11-.56a9.72,9.72,0,0,0-1.28-.89.46.46,0,0,1-.2-.19.46.46,0,0,1,.1-.4c.29-.47.57-.92.85-1.39.13-.18.26-.37.46-.38a.87.87,0,0,1,.34.12c.6.36,1.16.82,1.79,1.14A1.31,1.31,0,0,1,315.83,9.51Zm5.16-7-3.54,5.46a2,2,0,0,1-.67.74.72.72,0,0,1-.62,0,3.93,3.93,0,0,1-.47-.32c-.36-.25-.76-.35-1.12-.6-1.13-.78-.15-1.83.37-2.65.38-.6.86-1.16,1.22-1.77s.45-.88,1-1.1a4,4,0,0,1,1.58-.1c.51,0,1,0,1.52.06C320.48,2.24,321.21,2.15,321,2.48ZM383.89,2c.45,0,2.54-.41,2.59.31a.93.93,0,0,1-.17.46c-1.26,2-2.53,3.93-3.95,5.82l-4.24,5.64c-.1.14-.23.29-.4.29s-.3-.15-.41-.28c-1.31-1.72-2.72-3.3-4.06-5-1.45-1.87-2.91-3.73-4.37-5.6-.17-.2-.34-.49-.19-.71s.35-.2.55-.21c1.59-.07,3.2-.11,4.8-.18C377.33,2.4,380.63,2.27,383.89,2Zm-49,10.58a.82.82,0,0,1-.11-.58.84.84,0,0,1,.43-.5c.4-.27.8-.55,1.22-.82a1,1,0,0,1,.44-.2.69.69,0,0,1,.52.24c.27.3.8.93.59,1.35a.91.91,0,0,1-.37.33c-.43.3-.87.59-1.3.87a.87.87,0,0,1-.46.19C335.45,13.44,335.06,12.87,334.9,12.55ZM346.71,3.2l2.15,0c.52,0,1.15-.12,1.69-.1l.18,0c.14,0,.28.12.29.25a.43.43,0,0,1-.13.35c-1.05,1.38-1.84,2.87-2.82,4.31s-1.85,2.71-2.78,4.08a29,29,0,0,1-2.35,3.18.93.93,0,0,1-.51.36c-.36.06-.67-.28-.88-.58-2.09-2.87-4-5.78-5.9-8.81-.31-.5-1.8-2.44-1.41-3,.25-.37,1.37-.18,1.74-.17.71.05,1.44.07,2.16.1,1.42.05,2.86.07,4.28.07S345.28,3.22,346.71,3.2Zm1.87,11.26a1.88,1.88,0,0,1-.5,1c-1.67,2.18-3.16,4.48-4.67,6.8a1,1,0,0,1-.57.53.19.19,0,0,1-.1,0c-.39,0-.72-.32-1-.66l-3.3-4.38-1.61-2.16c-.38-.5-.93-1-.36-1.57a2,2,0,0,1,.57-.4L338.2,13a.75.75,0,0,1,.37-.13.53.53,0,0,1,.47.25c.75,1,1.4,2.07,2.24,3,.32.38.74.77,1.22.7a1.56,1.56,0,0,0,.9-.69c.73-.89,1.45-1.81,2.17-2.72.35-.43.5-.71,1.09-.5a9.9,9.9,0,0,1,1,.65C348,13.83,348.59,13.86,348.58,14.46Zm1.86-2.68a.82.82,0,0,1-.25.66c-.22.28-.42.55-.62.82a.61.61,0,0,1-.29.24.55.55,0,0,1-.39-.15l-.89-.62c-.16-.12-.33-.22-.49-.35-.68-.47-.84-.85-.35-1.58a1.5,1.5,0,0,1,.72-.6c.46-.16.65.08.94.32s.83.48,1.22.76A.89.89,0,0,1,350.44,11.78ZM353.72,3a4.11,4.11,0,0,1,1.49.35,0,0,0,0,0,0,0c.34.3.1.71-.12,1-1.21,1.86-2.4,3.73-3.61,5.59a1.36,1.36,0,0,1-.43.49.92.92,0,0,1-.84,0c-.42-.21-1.49-.79-1.46-1.33a1.37,1.37,0,0,1,.22-.58l2.59-4.33a3.64,3.64,0,0,1,.63-.83A2.13,2.13,0,0,1,353.72,3ZM334.12,5.5c.61,1.18,1.41,2.16,2.09,3.29a1.09,1.09,0,0,1,.22.55c0,.32-.27.56-.53.76a3.8,3.8,0,0,1-1,.65,1.37,1.37,0,0,1-1.14,0,1.55,1.55,0,0,1-.53-.55L328.64,4a1.33,1.33,0,0,1-.3-.69c0-.4.51-.52.83-.57C331.6,2.26,333.1,3.54,334.12,5.5Zm34.15,4.59a2.28,2.28,0,0,1-.94-.86c-1.37-1.81-2.73-3.63-4.1-5.46a.5.5,0,0,1-.15-.48c.08-.16.28-.2.47-.22L364,3c1.08-.13,2.3-.36,3.22.25a6.62,6.62,0,0,1,1.71,2.05,22.86,22.86,0,0,1,1.83,2.39c.46.88,0,1-.65,1.5C369.59,9.55,368.94,10.35,368.27,10.09Zm1.53,2.59a5.34,5.34,0,0,0-.32-.43c-.38-.51-.59-.9,0-1.5a9.92,9.92,0,0,1,2.15-1.37,1,1,0,0,1,.32-.09.8.8,0,0,1,.5.34c.21.26.47.49.65.74a.58.58,0,0,1,.14.57.94.94,0,0,1-.47.45l-2.36,1.41a.52.52,0,0,1-.35.11A.55.55,0,0,1,369.8,12.68Zm15.25,0a1.3,1.3,0,0,1-.27.6l-5.72,9.11a1.16,1.16,0,0,1-.43.47.53.53,0,0,1-.39.05c-.66-.12-1.22-1.11-1.61-1.58L374.76,19,371,14.53a.74.74,0,0,1-.23-.56c0-.2.22-.32.39-.43l1.56-1c.36-.23.86-.75,1.33-.68a1.48,1.48,0,0,1,.9.72c.64.91,1.28,1.83,1.93,2.74a1.41,1.41,0,0,0,.84.7c.53.06.93-.45,1.21-.9a40.64,40.64,0,0,1,2.64-3.74c.91-1.14,1.6-.51,2.64.05C384.68,11.7,385.12,12.13,385.05,12.64Zm1.65-2.5c.1.23-.05.49-.2.7s-.4.52-.7.5a1.06,1.06,0,0,1-.33-.14c-.12-.06-.23-.14-.35-.21l-1.3-.77c-.48-.28-.78-.6-.62-1.18a.85.85,0,0,1,.91-.69c.3,0,.65.41.9.57.46.31.91.61,1.37.9A.76.76,0,0,1,386.7,10.14Zm4.75-7.68c0,.48-.48,1-.71,1.35-.87,1.59-1.9,3.1-2.86,4.63a1.18,1.18,0,0,1-.67.63c-.48.11-2.3-1.14-2.33-1.69a1.62,1.62,0,0,1,.33-.87c.49-.75,1-1.46,1.43-2.24a5.61,5.61,0,0,1,1.75-2.07,2.51,2.51,0,0,1,.92-.32C389.82,1.81,391.52,1.67,391.45,2.46Z"/></svg>