<svg id="a1701a41-4da1-4118-943c-dc3cbeb24d21" data-name="Layer 1" xmlns="http://www.w3.org/2000/svg" viewBox="0 0 497.85 23.66"><defs><style>.f47daf92-6c0c-4ccf-adcb-fd0f98c02ddf{fill:#d7d284;}.a4938a45-0e4d-46cd-b1f3-c1540b6c64ee{fill:#649297;}.a6240f80-b7f0-40a8-b7f0-069729563d25{fill:#b7d685;}.b2f19f2d-8179-4603-8b3d-d1302fa231e9{fill:#3e342f;}</style></defs><path class="f47daf92-6c0c-4ccf-adcb-fd0f98c02ddf" d="M108.23,20.56c-.29.2-1,.06-1.3.08s-.65-.15-.69-.65c-.12-1.44-.17-2.88-.17-4.31,0-2.32-.11-4.65-.23-7-.09-1.89,0-3.78,0-5.66a1,1,0,0,1,.13-.53l.07-.07a1.1,1.1,0,0,1,.72-.18c3.15,0,6.29.05,9.44.07s6.07-.11,9.09-.12c.48,0,1,0,1.45,0,.29,0,.62-.15.84.11a1.24,1.24,0,0,1,.22.71,159,159,0,0,1,.65,17,.63.63,0,0,1-.13.47.63.63,0,0,1-.46.12c-.62,0-1.38.22-1.58-.49a7,7,0,0,1,0-1.44c-.14-3.14-.27-6.28-.42-9.41,0-.78-.06-1.57-.1-2.35a4.71,4.71,0,0,0-.09-1.59c-.48-1.2-2.09-.92-3.1-.92h-4.31c-2.83,0-5.67,0-8.47-.09-1.59,0-1.73.08-1.74,1.66,0,2.3.08,4.61.24,6.89s.13,4.57.18,6.86A.85.85,0,0,1,108.23,20.56Zm-53.36.78a.45.45,0,0,0,.34-.1.47.47,0,0,0,.09-.35L55,13.52a1.38,1.38,0,0,0-.3-1,.26.26,0,0,0-.1-.07,1.47,1.47,0,0,0-.77-.17,40.63,40.63,0,0,0-4.42.13,1.67,1.67,0,0,0-.89.27c-.34.26-.2.64-.18,1s0,.91,0,1.35c0,1.76,0,3.53.05,5.28a1.15,1.15,0,0,0,.16.71,1.14,1.14,0,0,0,.89.3,1,1,0,0,0,.81-.24.88.88,0,0,0,.1-.63c-.11-1.35-.22-2.68-.34-4a1.56,1.56,0,0,1,.23-1.21c.32-.36,1.37-.21,1.82-.22a1,1,0,0,1,.29,0,.52.52,0,0,1,.29.42c.23,1.78.17,3.62.28,5.42,0,.58.35.48.81.48Zm66.52-1.77c-.07-1.85-.13-3.72-.2-5.57,0-.91-.06-1.82-.1-2.74,0-.57.12-1.51-.45-1.87a2.19,2.19,0,0,0-1.22-.23c-2.07,0-4.13,0-6.2,0-.27,0-.6,0-.72.27a.24.24,0,0,0,0,.09,1,1,0,0,0,0,.3c.3,3.24.38,6.5.63,9.76a1.29,1.29,0,0,0,.17.69,1.39,1.39,0,0,0,1.15.4,1.7,1.7,0,0,0,.92-.16c.62-.39.24-2,.2-2.59-.08-1.67-.08-3.32-.12-5a.85.85,0,0,1,.11-.52.87.87,0,0,1,.69-.2l1.68,0a1,1,0,0,1,.45.08c.37.21.31.86.33,1.24,0,.65-.05,1.31,0,2,.06,1.38.21,2.76.14,4.15a1.56,1.56,0,0,0,.1.83c.23.42.75.27,1.14.32s.92.12,1.17-.25A1.65,1.65,0,0,0,121.39,19.57ZM63.47,20.7a8.94,8.94,0,0,0-.08-1.46c0-.83-.1-1.68-.15-2.53-.08-1.69-.17-3.39-.24-5.08,0-1.17,0-2.34-.09-3.52,0-.82,0-1.64-.08-2.47,0-.55.12-1.76-.41-2.1-.33-.22-.84,0-1.21,0H59.69L40.8,3.72a.5.5,0,0,0-.41.12.47.47,0,0,0-.07.39c.13,2.7.2,5.4.26,8.11.06,2.52.12,5,.15,7.56a1.6,1.6,0,0,0,.17.87.79.79,0,0,0,.3.3,2.43,2.43,0,0,0,1.26.24,1.22,1.22,0,0,0,1-.32,1.12,1.12,0,0,0,.14-.72c0-2.29-.06-4.57-.1-6.88A37.63,37.63,0,0,1,43.66,8a.93.93,0,0,1,.16-.51c.29-.32.88-.2,1.26-.2.66,0,1.32,0,2,0,1.34,0,2.7,0,4,0,1.75,0,3.5-.07,5.25-.13a7.24,7.24,0,0,1,2.58-.06c.6.24.64,1.13.65,1.68.07,3.88.24,7.74.52,11.61.1,1.33,1.66,1,2.58,1C63.2,21.31,63.4,21.24,63.47,20.7Zm130.33,0a8.94,8.94,0,0,0-.08-1.46c-.05-.83-.1-1.68-.15-2.53-.08-1.69-.17-3.39-.24-5.08-.05-1.17-.05-2.34-.09-3.52,0-.82,0-1.64-.08-2.47,0-.55.12-1.76-.41-2.1-.33-.22-.84,0-1.21,0H190q-9.44.12-18.89.21a.5.5,0,0,0-.41.12.55.55,0,0,0-.07.39c.13,2.7.2,5.4.26,8.11.06,2.52.13,5,.15,7.56a1.6,1.6,0,0,0,.17.87.79.79,0,0,0,.3.3,2.43,2.43,0,0,0,1.26.24,1.21,1.21,0,0,0,1-.32,1.12,1.12,0,0,0,.14-.72c0-2.29-.06-4.57-.1-6.88A39.13,39.13,0,0,1,174,8a.93.93,0,0,1,.16-.51c.29-.32.88-.2,1.26-.2.66,0,1.32,0,2,0,1.34,0,2.7,0,4.05,0,1.74,0,3.5-.07,5.24-.13a7.24,7.24,0,0,1,2.58-.06c.6.24.64,1.13.65,1.68.08,3.88.24,7.74.52,11.61.1,1.33,1.66,1,2.58,1C193.54,21.31,193.73,21.24,193.8,20.7Zm-8.6.64a.45.45,0,0,0,.34-.1.47.47,0,0,0,.09-.35l-.32-7.37a1.38,1.38,0,0,0-.3-1,.26.26,0,0,0-.1-.07,1.47,1.47,0,0,0-.77-.17,40.63,40.63,0,0,0-4.42.13,1.69,1.69,0,0,0-.89.27c-.34.26-.2.64-.18,1s0,.91,0,1.35c0,1.76,0,3.53.05,5.28a1.15,1.15,0,0,0,.16.71,1.16,1.16,0,0,0,.89.3,1,1,0,0,0,.81-.24.83.83,0,0,0,.1-.63c-.11-1.35-.22-2.68-.34-4a1.61,1.61,0,0,1,.23-1.21c.32-.36,1.37-.21,1.82-.22a.94.94,0,0,1,.29,0,.5.5,0,0,1,.29.42c.23,1.78.17,3.62.28,5.42,0,.58.35.48.81.48Zm117.5-1.55c-.05-2.29,0-4.58-.18-6.86s-.27-4.59-.25-6.89c0-1.58.16-1.69,1.75-1.66,2.79.07,5.64.08,8.46.09h4.31c1,0,2.63-.28,3.1.92A4.47,4.47,0,0,1,320,7c0,.78.06,1.57.1,2.35l.42,9.41a6.34,6.34,0,0,0,.05,1.44c.19.71,1,.49,1.57.49a.62.62,0,0,0,.46-.12.63.63,0,0,0,.14-.47,161.68,161.68,0,0,0-.66-17,1.17,1.17,0,0,0-.22-.71c-.21-.26-.54-.14-.83-.11-.47,0-1,0-1.45,0-3,0-6.06.13-9.1.12s-6.28-.06-9.43-.07a1.11,1.11,0,0,0-.73.18l-.06.07a1,1,0,0,0-.13.53c-.08,1.88-.15,3.77-.05,5.66.12,2.31.22,4.64.23,7,0,1.43.05,2.87.17,4.31,0,.5.23.67.69.65s1,.12,1.29-.08A.83.83,0,0,0,302.7,19.79Zm-53.6,1.55a.46.46,0,0,0,.34-.1.51.51,0,0,0,.08-.35l-.31-7.37a1.39,1.39,0,0,0-.31-1,.24.24,0,0,0-.09-.07,1.49,1.49,0,0,0-.78-.17,40.78,40.78,0,0,0-4.42.13,1.66,1.66,0,0,0-.88.27c-.34.26-.21.64-.18,1s0,.91,0,1.35c0,1.76,0,3.53,0,5.28a1.22,1.22,0,0,0,.16.71,1.18,1.18,0,0,0,.9.3,1,1,0,0,0,.81-.24.93.93,0,0,0,.1-.63c-.11-1.35-.22-2.68-.34-4a1.56,1.56,0,0,1,.23-1.21c.31-.36,1.36-.21,1.81-.22a.93.93,0,0,1,.29,0,.5.5,0,0,1,.29.42c.23,1.78.17,3.62.28,5.42,0,.58.35.48.81.48Zm66.52-1.77c-.07-1.85-.13-3.72-.21-5.57l-.09-2.74c0-.57.12-1.51-.45-1.87a2.21,2.21,0,0,0-1.23-.23c-2.07,0-4.13,0-6.2,0-.26,0-.59,0-.71.27a.24.24,0,0,0,0,.09.75.75,0,0,0,0,.3c.31,3.24.39,6.5.63,9.76a1.5,1.5,0,0,0,.17.69,1.4,1.4,0,0,0,1.15.4,1.67,1.67,0,0,0,.92-.16c.62-.39.25-2,.21-2.59-.09-1.67-.09-3.32-.12-5a.85.85,0,0,1,.11-.52.84.84,0,0,1,.69-.2l1.68,0a1,1,0,0,1,.45.08c.36.21.3.86.33,1.24,0,.65-.05,1.31,0,2,.06,1.38.22,2.76.15,4.15a1.55,1.55,0,0,0,.09.83c.23.42.75.27,1.14.32s.92.12,1.18-.25A1.65,1.65,0,0,0,315.62,19.57ZM257.7,20.7a8,8,0,0,0-.09-1.46c-.05-.83-.1-1.68-.14-2.53-.09-1.69-.17-3.39-.25-5.08,0-1.17,0-2.34-.08-3.52,0-.82-.05-1.64-.09-2.47,0-.55.13-1.76-.41-2.1-.32-.22-.83,0-1.21,0h-1.51L235,3.72a.52.52,0,0,0-.42.12.55.55,0,0,0-.07.39c.14,2.7.21,5.4.27,8.11.06,2.52.12,5,.14,7.56a1.7,1.7,0,0,0,.17.87.81.81,0,0,0,.31.3,2.42,2.42,0,0,0,1.26.24,1.22,1.22,0,0,0,1-.32,1.18,1.18,0,0,0,.13-.72c0-2.29-.06-4.57-.1-6.88A39.13,39.13,0,0,1,237.88,8a1,1,0,0,1,.16-.51c.29-.32.89-.2,1.26-.2.67,0,1.32,0,2,0,1.34,0,2.7,0,4,0,1.74,0,3.5-.07,5.24-.13a7.24,7.24,0,0,1,2.58-.06c.61.24.64,1.13.66,1.68.07,3.88.24,7.74.52,11.61.09,1.33,1.66,1,2.58,1C257.43,21.31,257.62,21.24,257.7,20.7ZM388,20.7a8,8,0,0,0-.09-1.46c-.05-.83-.09-1.68-.14-2.53-.09-1.69-.17-3.39-.24-5.08-.05-1.17-.05-2.34-.09-3.52,0-.82-.05-1.64-.08-2.47,0-.55.12-1.76-.42-2.1-.32-.22-.83,0-1.21,0h-1.51l-18.89.21c-.15,0-.32,0-.41.12a.51.51,0,0,0-.08.39c.14,2.7.21,5.4.27,8.11.06,2.52.12,5,.15,7.56a1.69,1.69,0,0,0,.16.87.89.89,0,0,0,.31.3,2.42,2.42,0,0,0,1.26.24,1.22,1.22,0,0,0,1-.32,1.06,1.06,0,0,0,.13-.72c0-2.29-.06-4.57-.09-6.88A37.63,37.63,0,0,1,368.22,8a.92.92,0,0,1,.15-.51c.29-.32.89-.2,1.26-.2.67,0,1.32,0,2,0,1.34,0,2.7,0,4,0,1.75,0,3.5-.07,5.24-.13a7.25,7.25,0,0,1,2.58-.06c.61.24.65,1.13.66,1.68.07,3.88.24,7.74.52,11.61.1,1.33,1.66,1,2.58,1C387.76,21.31,388,21.24,388,20.7Zm-8.6.64a.46.46,0,0,0,.34-.1.51.51,0,0,0,.08-.35l-.31-7.37a1.43,1.43,0,0,0-.3-1,.37.37,0,0,0-.1-.07,1.49,1.49,0,0,0-.78-.17,40.78,40.78,0,0,0-4.42.13,1.66,1.66,0,0,0-.88.27c-.34.26-.21.64-.18,1s0,.91.05,1.35c0,1.76,0,3.53,0,5.28a1.22,1.22,0,0,0,.16.71,1.18,1.18,0,0,0,.9.3,1,1,0,0,0,.81-.24.93.93,0,0,0,.1-.63c-.11-1.35-.22-2.68-.34-4a1.56,1.56,0,0,1,.23-1.21c.31-.36,1.37-.21,1.81-.22a.93.93,0,0,1,.29,0,.53.53,0,0,1,.3.42c.23,1.78.17,3.62.27,5.42,0,.58.36.48.82.48Zm63.89,0a.43.43,0,0,0,.34-.1.47.47,0,0,0,.09-.35l-.32-7.37a1.38,1.38,0,0,0-.3-1,.26.26,0,0,0-.1-.07,1.47,1.47,0,0,0-.77-.17,40.63,40.63,0,0,0-4.42.13,1.69,1.69,0,0,0-.89.27c-.33.26-.2.64-.18,1s0,.91.05,1.35c0,1.76,0,3.53.05,5.28A1.15,1.15,0,0,0,437,21a1.16,1.16,0,0,0,.89.3,1,1,0,0,0,.81-.24.83.83,0,0,0,.1-.63c-.11-1.35-.22-2.68-.34-4a1.61,1.61,0,0,1,.23-1.21c.32-.36,1.37-.21,1.82-.22a.94.94,0,0,1,.29,0,.5.5,0,0,1,.29.42c.23,1.78.17,3.62.28,5.42,0,.58.35.48.81.48Zm8.6-.64a8.94,8.94,0,0,0-.08-1.46c0-.83-.1-1.68-.15-2.53-.08-1.69-.17-3.39-.24-5.08-.05-1.17-.05-2.34-.08-3.52,0-.82-.05-1.64-.09-2.47,0-.55.12-1.76-.41-2.1-.33-.22-.84,0-1.21,0h-1.52q-9.43.12-18.89.21a.5.5,0,0,0-.41.12.55.55,0,0,0-.07.39c.13,2.7.2,5.4.26,8.11.06,2.52.13,5,.15,7.56a1.6,1.6,0,0,0,.17.87.79.79,0,0,0,.3.3,2.43,2.43,0,0,0,1.26.24,1.21,1.21,0,0,0,1-.32,1.12,1.12,0,0,0,.14-.72c0-2.29-.06-4.57-.1-6.88A39.13,39.13,0,0,1,432.11,8a.93.93,0,0,1,.16-.51c.29-.32.88-.2,1.26-.2.66,0,1.32,0,2,0q2,0,4.05,0c1.74,0,3.5-.07,5.24-.13a7.24,7.24,0,0,1,2.58-.06c.6.24.64,1.13.65,1.68.08,3.88.24,7.74.52,11.61.1,1.33,1.66,1,2.58,1C451.66,21.31,451.85,21.24,451.92,20.7Z"/><path class="a4938a45-0e4d-46cd-b1f3-c1540b6c64ee" d="M118,20.27a.52.52,0,0,1-.36.12l-.95.08a.39.39,0,0,1-.24,0c-.12-.07-.13-.24-.13-.38,0-1.16,0-2.28,0-3.43,0-1-.17-1.9-.21-2.87a.75.75,0,0,1,.09-.45.75.75,0,0,1,.59-.24c.44,0,1,0,1.19.37A1,1,0,0,1,118,14c.06,2,.14,4,.07,5.91A.5.5,0,0,1,118,20.27Zm-65.73.45-.33-4a1.14,1.14,0,0,0-.1-.47.52.52,0,0,0-.36-.3.51.51,0,0,0-.46.31,1.68,1.68,0,0,0-.07.59c0,1.23.14,2.45.2,3.69a1.09,1.09,0,0,0,.17.62.45.45,0,0,0,.61.14A.61.61,0,0,0,52.26,20.72Zm6.58.17a.94.94,0,0,0,0-.37c-.08-1.94-.17-3.88-.24-5.81a34.78,34.78,0,0,0-.28-5.4,1.2,1.2,0,0,0-.21-.54A1.32,1.32,0,0,0,57,8.42c-3.83,0-7.67.05-11.51.17a.92.92,0,0,0-.75.25,1.1,1.1,0,0,0-.12.51c-.14,3.51,0,7.07.05,10.6A1.56,1.56,0,0,0,45,21a1.62,1.62,0,0,0,1.35.37,1.53,1.53,0,0,0,1.1-.3.92.92,0,0,0,.13-.24,4,4,0,0,0,.06-1.62c0-.72,0-1.45,0-2.16,0-1.4-.06-2.82-.1-4.23,0-.48-.06-1.11.53-1.24a8.65,8.65,0,0,1,1.53,0c.6,0,1.21,0,1.81-.07,1.19,0,2.39-.06,3.58-.07a1.6,1.6,0,0,1,.78.14c.39.22.32.78.33,1.16l.18,7.1a1.67,1.67,0,0,0,.26,1.05,1.65,1.65,0,0,0,1.3.45C58.18,21.33,58.7,21.28,58.84,20.89Zm65.87,0c.38-.15.39-.7.39-1-.12-4.54-.22-9.07-.5-13.61a.81.81,0,0,0-.14-.5.87.87,0,0,0-.65-.21c-2.89-.13-5.77-.17-8.67-.15-1.44,0-2.88,0-4.32.07-.47,0-1.07-.09-1.43.27a.9.9,0,0,0-.25.39A2.66,2.66,0,0,0,109,7.23c0,2,0,4,.11,6.06s.23,4.1.32,6.16a1.67,1.67,0,0,0,.18.85c.23.35.51.24.83.29.56.07,1.4.39,1.63-.34a2,2,0,0,0,.05-.69c-.08-1.91-.16-3.83-.23-5.74q-.06-1.37-.15-2.73c0-.64-.42-2.33.22-2.75a1.83,1.83,0,0,1,1-.18q4,.12,8,.21a1.62,1.62,0,0,1,.62.11c.62.31.38,1.6.38,2.14,0,1,0,2.06,0,3.1,0,2.06.12,4.12.24,6.19a1.23,1.23,0,0,0,.21.76C122.71,21,124.34,21.06,124.71,20.9ZM15.26,20.54a1.66,1.66,0,0,0,.11-.91q-.24-3.72-.47-7.45a2,2,0,0,1,.09-1c.25-.55.75-.45,1.25-.43s1.2,0,1.81,0a1.09,1.09,0,0,1,1.24,1.16c.21,2.83.41,5.64.67,8.48a.38.38,0,0,0,.12.31.43.43,0,0,0,.25.05l2.37-.05a.66.66,0,0,0,.49-.16.63.63,0,0,0,.09-.47c-.21-3.56-.47-7.09-.74-10.66a1.37,1.37,0,0,0-.39-1,.88.88,0,0,0-.5-.19h-.38l-8.87.22a1.06,1.06,0,0,0-.58.13.91.91,0,0,0-.2,1,12.23,12.23,0,0,1,.18,1.72c.07,1,.14,2,.2,3,.15,2,.29,4.09.44,6.14,0,.15,0,.34.16.43a.51.51,0,0,0,.42.07C13.61,20.88,14.92,21.18,15.26,20.54Zm140.91.68a1.85,1.85,0,0,0,.18-1.09c-.08-2.74-.15-5.49-.23-8.22,0-1.35-.08-2.71-.12-4.06,0-.66,0-1.35-.06-2-.05-.38,0-.9-.32-1.16a.45.45,0,0,0-.14-.1,2.09,2.09,0,0,0-1.21-.22c-2.42,0-4.84.09-7.27.12l-3.68.06a7.7,7.7,0,0,1-1.36,0c-.32,0-.79-.14-1,.19a1.17,1.17,0,0,0-.13.64A33.6,33.6,0,0,0,141,9c.09,1.15.06,2.27.12,3.42.12,2.54.25,5.1.38,7.65a1.08,1.08,0,0,0,.12.59,1,1,0,0,0,.7.39,1.28,1.28,0,0,0,.9-.17c.26-.23.22-.49.23-.83.06-1.65-.12-3.3-.17-5,0-1.84,0-3.69-.05-5.53,0-.57-.07-1.18.4-1.57a61.75,61.75,0,0,1,8.28.06,1.19,1.19,0,0,1,1.3,1.13,12.24,12.24,0,0,1,0,2.49v2.92c0,1.92,0,3.85.06,5.76a1.41,1.41,0,0,0,.2.86,1.47,1.47,0,0,0,1.23.42C155.14,21.59,155.87,21.75,156.17,21.22Zm-65-.37a.6.6,0,0,0,0-.38c-.23-2.13-.31-4.33-.35-6.48,0-1.92-.11-3.83-.25-5.74a1.35,1.35,0,0,0-.24-.8,1.33,1.33,0,0,0-1-.28L77.71,7.3a.66.66,0,0,0-.49.15.24.24,0,0,0,0,.1.68.68,0,0,0,0,.35c.06,1.92.25,3.84.4,5.77l.54,6.87a.77.77,0,0,0,.19.52.72.72,0,0,0,.51.12h1.59a.7.7,0,0,0,.43-.09.69.69,0,0,0,.12-.56c-.27-3.19-.52-6.37-.79-9.56-.05-.5,0-1.12.39-1.39a1.24,1.24,0,0,1,.63-.17,50.66,50.66,0,0,1,5.78,0,1.91,1.91,0,0,1,.75.12,1.22,1.22,0,0,1,.61.9c.08.4,0,.8.1,1.2a11.9,11.9,0,0,1,.18,1.59c.17,2.6.35,5.2.52,7.81C89.1,21.29,91,21.17,91.18,20.85ZM85.76,15a1.74,1.74,0,0,0-.2-.93,1.11,1.11,0,0,0-1.14-.26.33.33,0,0,0-.17.16,1.14,1.14,0,0,0-.1.64c.13,1.9.27,3.78.4,5.68a.93.93,0,0,0,.12.43,1.35,1.35,0,0,0,.83.18.46.46,0,0,0,.43-.5C85.83,18.6,85.81,16.82,85.76,15Zm63.11,5.66c.06-.75,0-1.54,0-2.27,0-1.48,0-3,0-4.44a1.7,1.7,0,0,0-.21-1,.58.58,0,0,0-.31-.23,1.18,1.18,0,0,0-1.28.34,1.75,1.75,0,0,0-.15.88c0,2.11.08,4.2.1,6.31a1,1,0,0,0,.23.76,1,1,0,0,0,.59.17C148.36,21.23,148.81,21.29,148.87,20.67Zm29,.15a4.43,4.43,0,0,0,.06-1.62c0-.72,0-1.45-.05-2.16,0-1.4-.06-2.82-.1-4.23,0-.48-.06-1.11.53-1.24a8.65,8.65,0,0,1,1.53,0c.6,0,1.21,0,1.82-.07,1.18,0,2.38-.06,3.57-.07a1.66,1.66,0,0,1,.79.14c.38.22.31.78.32,1.16l.18,7.1a1.67,1.67,0,0,0,.26,1.05,1.66,1.66,0,0,0,1.31.45c.42,0,.94,0,1.09-.41a1.16,1.16,0,0,0,0-.37c-.08-1.94-.17-3.88-.24-5.81a34.78,34.78,0,0,0-.28-5.4,1.18,1.18,0,0,0-.2-.54,1.35,1.35,0,0,0-1.13-.35c-3.83,0-7.67.05-11.51.17a.92.92,0,0,0-.75.25,1.1,1.1,0,0,0-.12.51c-.14,3.51,0,7.07.05,10.6a1.51,1.51,0,0,0,.26,1,1.6,1.6,0,0,0,1.34.37,1.53,1.53,0,0,0,1.1-.3A1.38,1.38,0,0,0,177.87,20.82Zm4.72-.1-.33-4a1.14,1.14,0,0,0-.1-.47.43.43,0,0,0-.82,0,1.68,1.68,0,0,0-.07.59c0,1.23.14,2.45.2,3.69a1.18,1.18,0,0,0,.17.62.45.45,0,0,0,.61.14A.61.61,0,0,0,182.59,20.72Zm129.75-.85c.07-1.95,0-3.94-.08-5.91a1,1,0,0,0-.11-.52c-.2-.38-.75-.41-1.18-.37a.78.78,0,0,0-.6.24.83.83,0,0,0-.08.45c0,1,.16,1.9.21,2.87,0,1.15.06,2.27,0,3.43,0,.14,0,.31.14.38a.38.38,0,0,0,.24,0l.94-.08a.43.43,0,0,0,.49-.52Zm-65.86.85c-.11-1.33-.22-2.66-.32-4a1.58,1.58,0,0,0-.1-.47.54.54,0,0,0-.36-.3.5.5,0,0,0-.46.31,1.48,1.48,0,0,0-.08.59c0,1.23.15,2.45.21,3.69a1,1,0,0,0,.17.62.44.44,0,0,0,.6.14A.6.6,0,0,0,246.48,20.72Zm6.59.17a.94.94,0,0,0,0-.37q-.13-2.91-.25-5.81a34.77,34.77,0,0,0-.27-5.4,1.33,1.33,0,0,0-.21-.54,1.33,1.33,0,0,0-1.13-.35c-3.82,0-7.66.05-11.5.17a.91.91,0,0,0-.75.25,1,1,0,0,0-.12.51c-.15,3.51,0,7.07.05,10.6a1.56,1.56,0,0,0,.25,1,1.6,1.6,0,0,0,1.34.37,1.56,1.56,0,0,0,1.11-.3,2.6,2.6,0,0,0,.13-.24,4.43,4.43,0,0,0,.06-1.62c0-.72,0-1.45,0-2.16,0-1.41-.06-2.82-.1-4.23,0-.48-.06-1.11.54-1.24a8.54,8.54,0,0,1,1.52,0c.61,0,1.21,0,1.82-.07,1.19,0,2.39-.06,3.57-.07a1.61,1.61,0,0,1,.79.14c.39.22.31.78.33,1.16l.18,7.1a1.66,1.66,0,0,0,.25,1.05,1.68,1.68,0,0,0,1.31.45C252.4,21.33,252.92,21.28,253.07,20.89Zm65.87,0c.37-.15.38-.7.38-1-.12-4.54-.21-9.07-.49-13.61a.82.82,0,0,0-.15-.5.83.83,0,0,0-.64-.21c-2.89-.13-5.78-.17-8.67-.15-1.44,0-2.88,0-4.32.07-.48,0-1.07-.09-1.43.27a.93.93,0,0,0-.26.39,2.82,2.82,0,0,0-.13,1.11c0,2,0,4,.11,6.06s.23,4.1.31,6.16a1.79,1.79,0,0,0,.19.85c.23.35.5.24.83.29.56.07,1.39.39,1.62-.34a1.78,1.78,0,0,0,0-.69c-.07-1.91-.16-3.83-.23-5.74,0-.91-.08-1.82-.14-2.73,0-.64-.43-2.33.21-2.75a1.86,1.86,0,0,1,1-.18c2.68.08,5.34.15,8,.21a1.69,1.69,0,0,1,.62.11c.61.31.37,1.6.37,2.14,0,1,0,2.06,0,3.1q.06,3.09.25,6.19a1.22,1.22,0,0,0,.2.76C316.94,21,318.56,21.06,318.94,20.9Zm-109.45-.36a1.75,1.75,0,0,0,.11-.91l-.48-7.45a2.18,2.18,0,0,1,.1-1c.24-.55.75-.45,1.25-.43s1.2,0,1.8,0a1.09,1.09,0,0,1,1.25,1.16c.2,2.83.41,5.64.67,8.48a.38.38,0,0,0,.12.31.43.43,0,0,0,.25.05l2.36-.05a.69.69,0,0,0,.5-.16.59.59,0,0,0,.08-.47c-.2-3.56-.47-7.1-.74-10.66a1.33,1.33,0,0,0-.38-1,.94.94,0,0,0-.5-.19h-.39l-8.86.22a1,1,0,0,0-.58.13.93.93,0,0,0-.21,1,10.9,10.9,0,0,1,.18,1.72c.08,1,.15,2,.21,3,.14,2,.29,4.09.43,6.14,0,.15,0,.34.16.43a.53.53,0,0,0,.43.07C207.84,20.88,209.15,21.18,209.49,20.54ZM335.19,4.7a1.18,1.18,0,0,0-.14.64A33.6,33.6,0,0,0,335.19,9c.08,1.15.06,2.27.12,3.42.12,2.54.24,5.1.37,7.65a1.09,1.09,0,0,0,.13.59.94.94,0,0,0,.7.39,1.26,1.26,0,0,0,.89-.17c.27-.23.22-.49.23-.83.06-1.65-.12-3.3-.17-5,0-1.84,0-3.69,0-5.53,0-.57-.08-1.18.4-1.58A63.48,63.48,0,0,1,346.1,8a1.18,1.18,0,0,1,1.29,1.13,12.22,12.22,0,0,1,0,2.49v2.91c0,1.93,0,3.86.06,5.77a1.41,1.41,0,0,0,.19.86,1.51,1.51,0,0,0,1.24.42c.52,0,1.25.16,1.55-.37a2,2,0,0,0,.18-1.09c-.09-2.74-.16-5.49-.23-8.23,0-1.34-.09-2.7-.12-4.05,0-.66,0-1.35-.06-2-.05-.38,0-.9-.33-1.16a.41.41,0,0,0-.13-.1,2.09,2.09,0,0,0-1.21-.22l-7.27.12-3.68.06a7.82,7.82,0,0,1-1.37,0C335.87,4.47,335.39,4.37,335.19,4.7ZM285.4,20.85a.68.68,0,0,0,0-.38c-.23-2.13-.31-4.33-.35-6.48,0-1.92-.11-3.83-.26-5.74a1.23,1.23,0,0,0-.24-.8,1.3,1.3,0,0,0-1-.28l-11.62.13a.68.68,0,0,0-.5.15.31.31,0,0,0-.05.1.59.59,0,0,0,0,.35c.06,1.92.25,3.84.4,5.77l.54,6.87a.77.77,0,0,0,.18.52.75.75,0,0,0,.51.12h1.6a.68.68,0,0,0,.42-.09.62.62,0,0,0,.12-.56L274.35,11c-.05-.5,0-1.12.38-1.39a1.29,1.29,0,0,1,.63-.17,50.66,50.66,0,0,1,5.78,0,1.88,1.88,0,0,1,.75.12,1.23,1.23,0,0,1,.62.9c.07.4,0,.8.1,1.2s.14,1,.18,1.58c.17,2.61.35,5.21.52,7.82C283.32,21.29,285.22,21.17,285.4,20.85ZM280,15a1.66,1.66,0,0,0-.21-.93,1.09,1.09,0,0,0-1.13-.26.27.27,0,0,0-.17.16,1.14,1.14,0,0,0-.1.64c.12,1.9.27,3.78.4,5.68a.74.74,0,0,0,.12.43,1.32,1.32,0,0,0,.82.18.47.47,0,0,0,.44-.5C280.05,18.6,280,16.82,280,15Zm63.09,3.39c0-1.48,0-3,0-4.44a1.63,1.63,0,0,0-.22-1,.52.52,0,0,0-.3-.23,1.17,1.17,0,0,0-1.28.34,1.75,1.75,0,0,0-.15.88c0,2.11.07,4.2.1,6.31a1,1,0,0,0,.23.76.91.91,0,0,0,.59.17c.56,0,1,.1,1.07-.52S343.08,19.13,343.08,18.4Zm29,2.42a4.22,4.22,0,0,0,.06-1.62c0-.72,0-1.45,0-2.16L372,12.81c0-.48-.06-1.11.53-1.24a8.54,8.54,0,0,1,1.52,0c.61,0,1.22,0,1.82-.07,1.19,0,2.39-.06,3.57-.07a1.61,1.61,0,0,1,.79.14c.39.22.32.78.33,1.16l.18,7.1a1.66,1.66,0,0,0,.25,1.05,1.68,1.68,0,0,0,1.31.45c.43,0,.95,0,1.09-.41a.94.94,0,0,0,0-.37q-.13-2.91-.24-5.81a36.06,36.06,0,0,0-.28-5.4,1.33,1.33,0,0,0-.21-.54,1.32,1.32,0,0,0-1.12-.35c-3.83,0-7.67.05-11.51.17a.91.91,0,0,0-.75.25,1,1,0,0,0-.12.51c-.15,3.51,0,7.07.05,10.6a1.56,1.56,0,0,0,.25,1,1.61,1.61,0,0,0,1.35.37,1.54,1.54,0,0,0,1.1-.3A1.36,1.36,0,0,0,372.09,20.82Zm4.72-.1-.32-4a1.58,1.58,0,0,0-.1-.47A.54.54,0,0,0,376,16a.5.5,0,0,0-.46.31,1.48,1.48,0,0,0-.08.59c0,1.23.15,2.45.21,3.69a1.09,1.09,0,0,0,.17.62.44.44,0,0,0,.6.14A.58.58,0,0,0,376.81,20.72Zm63.9,0-.33-4a1.14,1.14,0,0,0-.1-.47.43.43,0,0,0-.82,0,1.68,1.68,0,0,0-.07.59c0,1.23.14,2.45.2,3.69a1.18,1.18,0,0,0,.17.62.45.45,0,0,0,.61.14A.6.6,0,0,0,440.71,20.72Zm6.59.17a1.16,1.16,0,0,0,0-.37c-.08-1.94-.17-3.88-.24-5.81a34.78,34.78,0,0,0-.28-5.4,1.18,1.18,0,0,0-.2-.54,1.35,1.35,0,0,0-1.13-.35c-3.83,0-7.67.05-11.5.17a.93.93,0,0,0-.76.25,1.23,1.23,0,0,0-.12.51c-.14,3.51,0,7.07,0,10.6a1.51,1.51,0,0,0,.26,1,1.6,1.6,0,0,0,1.34.37,1.53,1.53,0,0,0,1.1-.3,1.38,1.38,0,0,0,.14-.24,4.43,4.43,0,0,0,.06-1.62c0-.72,0-1.45-.05-2.16,0-1.41-.06-2.82-.1-4.23,0-.48-.06-1.11.53-1.24a8.65,8.65,0,0,1,1.53,0c.6,0,1.21,0,1.82-.07,1.18,0,2.38-.06,3.57-.07a1.64,1.64,0,0,1,.79.14c.38.22.31.78.32,1.16l.18,7.1a1.67,1.67,0,0,0,.26,1.05,1.66,1.66,0,0,0,1.31.45C446.63,21.33,447.15,21.28,447.3,20.89Zm-43.59-.35a1.57,1.57,0,0,0,.11-.91c-.16-2.48-.31-5-.47-7.45a1.93,1.93,0,0,1,.1-1c.24-.55.75-.45,1.24-.43s1.2,0,1.81,0a1.1,1.1,0,0,1,1.25,1.16c.2,2.83.41,5.64.66,8.48a.41.41,0,0,0,.12.31.45.45,0,0,0,.26.05l2.36-.05a.66.66,0,0,0,.49-.16.63.63,0,0,0,.09-.47c-.21-3.56-.47-7.1-.74-10.66a1.3,1.3,0,0,0-.39-1,.88.88,0,0,0-.49-.19h-.39l-8.87.22a1.06,1.06,0,0,0-.58.13.91.91,0,0,0-.2,1,12.23,12.23,0,0,1,.18,1.72c.07,1,.14,2,.2,3q.23,3.06.44,6.14c0,.15,0,.34.16.43a.51.51,0,0,0,.42.07C402.07,20.88,403.37,21.18,403.71,20.54Zm75.92.31a.68.68,0,0,0,0-.38c-.23-2.13-.32-4.33-.35-6.48,0-1.92-.11-3.83-.26-5.74a1.29,1.29,0,0,0-.24-.8,1.31,1.31,0,0,0-1-.28l-11.63.13a.66.66,0,0,0-.49.15.19.19,0,0,0-.05.1.68.68,0,0,0,0,.35c.06,1.92.26,3.84.4,5.77.18,2.29.37,4.58.55,6.87a.77.77,0,0,0,.18.52.74.74,0,0,0,.51.12h1.6a.46.46,0,0,0,.54-.65c-.27-3.19-.52-6.37-.79-9.56-.05-.5,0-1.12.39-1.39a1.24,1.24,0,0,1,.63-.17,50.66,50.66,0,0,1,5.78,0,1.91,1.91,0,0,1,.75.12,1.26,1.26,0,0,1,.62.9c.07.4,0,.8.09,1.2a11.94,11.94,0,0,1,.18,1.58c.17,2.61.36,5.21.52,7.82C477.55,21.29,479.45,21.17,479.63,20.85ZM474.22,15a1.84,1.84,0,0,0-.21-.93,1.11,1.11,0,0,0-1.14-.26.33.33,0,0,0-.17.16,1.06,1.06,0,0,0-.09.64c.12,1.9.26,3.78.4,5.68a.74.74,0,0,0,.12.43c.09.14.64.21.82.18a.47.47,0,0,0,.44-.5C474.28,18.6,474.27,16.82,474.22,15Z"/><path class="a6240f80-b7f0-40a8-b7f0-069729563d25" d="M9.75,21a8.16,8.16,0,0,0-1.1.09A1,1,0,0,1,8.1,21a.89.89,0,0,1-.25-.7c-.13-2.73-.27-5.44-.4-8.15-.06-1.21-.18-2.41-.24-3.62S7,6.17,6.9,5A.63.63,0,0,1,7,4.49a.6.6,0,0,1,.37-.09Q16.76,4,26.14,3.83c1.38,0,1.29,1.39,1.34,2.41.08,1.55.16,3.09.23,4.62.16,3.12.31,6.23.46,9.35a.81.81,0,0,1-.08.49.48.48,0,0,1-.17.12,1.34,1.34,0,0,1-.44.06l-2,0c-.61,0-.95.07-1-.64-.06-1.13-.13-2.24-.23-3.34C24,13.9,24,11,23.64,8a1.18,1.18,0,0,0-.34-.86A1.08,1.08,0,0,0,22.64,7c-1.51,0-3-.06-4.52-.06-2.38,0-4.76.21-7.15.34a.81.81,0,0,0-.75.9,11.6,11.6,0,0,0,.15,1.29l.36,6.64c.06,1.12.13,2.25.21,3.38a2.44,2.44,0,0,1,0,1.17C10.63,21.12,10.2,21,9.75,21Zm9-2.38c0-.79-.1-1.58-.15-2.35-.07-1.1-.13-2.21-.21-3.31a1.19,1.19,0,0,0-.18-.69c-.24-.35-.74-.36-1.16-.35a1.72,1.72,0,0,0-.86.16c-.52.28-.3.75-.29,1.21,0,.62,0,1.23,0,1.85,0,1,.07,1.93.13,2.88.05.57-.12,2.28.49,2.58a1.11,1.11,0,0,0,.57.1l.89,0a.81.81,0,0,0,.53-.12.2.2,0,0,0,.07-.06C19,20.12,18.76,19,18.74,18.58ZM88.05,20.3c-.34-2.8-.42-5.63-.58-8.47A1.51,1.51,0,0,0,87,10.56a1.49,1.49,0,0,0-.7-.14c-1.27,0-2.54-.05-3.82-.06a2,2,0,0,0-1.05.2.74.74,0,0,0-.25.36,5.18,5.18,0,0,0,.14,1.64c.07.92.11,1.83.18,2.75.12,1.52.25,3,.37,4.59a1.31,1.31,0,0,0,.21.75c.28.35.8.31,1.2.31s.52,0,.5-.51c-.07-2.13-.21-4.23-.34-6.35a1.58,1.58,0,0,1,.15-.92c.4-.65,1.5-.39,2.14-.39a.58.58,0,0,1,.41.1.62.62,0,0,1,.14.41c.08,1.09.12,2.18.2,3.26.1,1.27.17,2.5.18,3.76a.44.44,0,0,0,.09.34c.15.18.63.05.85.05S88.11,20.75,88.05,20.3Zm72,1.11a1.68,1.68,0,0,0,.15-.93q-.19-9.19-.4-18.38a1,1,0,0,0-.17-.67,1,1,0,0,0-.72-.24C158,1.14,157,1,156,1c-6.18.21-12.4.17-18.58.17a.83.83,0,0,0-.74.27.78.78,0,0,0-.08.48q.49,8.93,1,17.83a1.57,1.57,0,0,0,.19.81c.32.46,1,.46,1.52.41a1.35,1.35,0,0,0,.89-.3c.23-.27.11-.64.11-1,0-1.79-.15-3.6-.17-5.4,0-3.12-.25-6.22-.31-9.34a1.68,1.68,0,0,1,.26-1.17c.57-.68,2.19-.46,3-.46l3.94,0c3,0,6-.06,9,0a1.72,1.72,0,0,1,.87.2c.39.28.29.94.31,1.35l0,2.18c0,2.57.12,5.2.18,7.79,0,1.32,0,2.64,0,4a17.2,17.2,0,0,0,0,1.9c0,.22,0,.63.22.8s.84.12,1.15.14.95.09,1.23-.25A.07.07,0,0,1,160,21.41Zm-8.53.11a.67.67,0,0,0,.47-.28,1,1,0,0,0,.07-.45c0-2.47-.09-4.94-.13-7.41a25.9,25.9,0,0,0-.07-3.74c-.13-.8-.79-.77-1.47-.79l-4.77-.07a2,2,0,0,0-1.17.23c-.43.3-.29.78-.24,1.2.06.62,0,1.25,0,1.86,0,1.29,0,2.57.06,3.86,0,.9,0,1.81.08,2.72,0,.53,0,1.07,0,1.59.11.67.29.78.92.91a.76.76,0,0,0,.75-.19.83.83,0,0,0,.11-.52L146,13a1.21,1.21,0,0,1,.16-.76,1.24,1.24,0,0,1,1-.3l1.57,0a1.34,1.34,0,0,1,.72.15c.48.3.25,1.2.23,1.65-.05.75-.07,1.5-.07,2.26,0,1.08.05,2.17.11,3.26a11,11,0,0,1,0,1.41.73.73,0,0,0,.49.8,2.29,2.29,0,0,0,1,.08Zm-74.9-.34a.76.76,0,0,0,.1-.52l-.42-7.53c-.07-1.26-.13-2.51-.18-3.77A16.36,16.36,0,0,0,76,7.51c-.06-.39-.17-.73.13-1a.9.9,0,0,0,.12-.1,2.3,2.3,0,0,1,1.19-.28c4.2-.19,8.43-.17,12.64-.14a2.33,2.33,0,0,1,1,.16c.87.43.65,1.9.69,2.69.06,1.31.12,2.63.17,3.95.12,2.66.23,5.3.34,7.94a.61.61,0,0,0,.17.47.64.64,0,0,0,.4.06c.58,0,1.16-.06,1.74-.1a1.34,1.34,0,0,0,1-.32,1.27,1.27,0,0,0,.18-.94Q95.37,12,94.85,4.2a1.31,1.31,0,0,0-.16-.65c-.33-.51-1.45-.45-2-.5-1.08-.07-2.21,0-3.3.05-2.26,0-4.53.09-6.79.12l-4.72.07-2.36,0c-.62,0-1.48-.16-2,.3-.25.25-.07,1.46-.07,1.76l0,2.25c.08,3.51,0,7,.18,10.5,0,.74.06,1.48.1,2.22a1.46,1.46,0,0,0,.2.83c.32.42,1.64.2,2.08.17A.67.67,0,0,0,76.61,21.18Zm128.5-.52a2.21,2.21,0,0,0,0-1.17c-.07-1.13-.14-2.26-.2-3.38-.12-2.22-.24-4.42-.37-6.64a11.55,11.55,0,0,1-.14-1.29.81.81,0,0,1,.75-.9c2.39-.13,4.77-.33,7.14-.34,1.52,0,3,0,4.52.06a1.12,1.12,0,0,1,.67.15,1.22,1.22,0,0,1,.34.86c.31,2.94.36,5.89.61,8.85.1,1.1.17,2.21.23,3.34,0,.71.38.63,1,.64l2,0a1.24,1.24,0,0,0,.43-.06.48.48,0,0,0,.17-.12.75.75,0,0,0,.09-.49c-.15-3.12-.31-6.23-.46-9.35-.08-1.53-.15-3.07-.23-4.62-.05-1,0-2.44-1.35-2.41Q211,4,201.6,4.4a.57.57,0,0,0-.36.09.63.63,0,0,0-.11.51c.11,1.16.24,2.32.3,3.48s.18,2.41.25,3.62c.13,2.71.26,5.42.4,8.15a.86.86,0,0,0,.25.7.92.92,0,0,0,.54.1A8.3,8.3,0,0,1,204,21C204.42,21,204.86,21.12,205.11,20.66ZM213,18.58c-.05-.79-.09-1.58-.14-2.35-.08-1.1-.14-2.21-.21-3.31a1.27,1.27,0,0,0-.18-.69c-.24-.35-.74-.36-1.16-.35a1.7,1.7,0,0,0-.86.16c-.52.28-.31.75-.29,1.21,0,.62,0,1.23,0,1.85,0,1,.08,1.93.14,2.88,0,.57-.12,2.28.48,2.58a1.13,1.13,0,0,0,.57.1l.9,0a.82.82,0,0,0,.53-.12s.05,0,.06-.06C213.18,20.12,213,19,213,18.58Zm69.32,1.72c-.34-2.8-.42-5.63-.58-8.47,0-.47-.11-1-.52-1.27a1.51,1.51,0,0,0-.7-.14l-3.82-.07a2,2,0,0,0-1.05.21.7.7,0,0,0-.26.36,5.18,5.18,0,0,0,.15,1.64c.07.92.11,1.83.18,2.75q.18,2.28.36,4.59a1.25,1.25,0,0,0,.22.75c.28.35.8.31,1.2.31s.52,0,.5-.51c-.08-2.13-.21-4.23-.34-6.35a1.5,1.5,0,0,1,.14-.92c.4-.65,1.5-.39,2.15-.39a.59.59,0,0,1,.41.1.56.56,0,0,1,.13.41c.09,1.09.12,2.18.21,3.26.09,1.27.17,2.5.18,3.76a.48.48,0,0,0,.08.34c.16.18.63.05.85.05S282.34,20.75,282.28,20.3Zm51.26.71a1.38,1.38,0,0,0,.9-.3c.23-.27.11-.64.11-1,0-1.79-.15-3.6-.17-5.4,0-3.12-.26-6.22-.32-9.34a1.68,1.68,0,0,1,.27-1.17c.57-.68,2.19-.46,3-.46,1.31,0,2.61,0,3.93,0,3,0,6-.06,9,0a1.74,1.74,0,0,1,.87.2c.39.28.29.94.3,1.35l0,2.18c0,2.57.12,5.2.18,7.79,0,1.32,0,2.64,0,4a17.2,17.2,0,0,0,0,1.9c0,.22,0,.63.22.8s.85.12,1.15.14,1,.09,1.24-.25a.11.11,0,0,1,0-.05,1.62,1.62,0,0,0,.16-.93q-.19-9.19-.4-18.38a1,1,0,0,0-.17-.67,1.06,1.06,0,0,0-.73-.24c-.94-.05-1.93-.18-2.88-.15-6.19.21-12.4.17-18.59.17a.84.84,0,0,0-.74.27.86.86,0,0,0-.07.48q.5,8.93,1,17.83a1.68,1.68,0,0,0,.2.81C332.34,21.06,333,21.06,333.54,21Zm10.91.47a2.35,2.35,0,0,0,1,.08l.27,0a.7.7,0,0,0,.47-.28,1,1,0,0,0,.07-.45c0-2.47-.1-4.94-.13-7.41a25.89,25.89,0,0,0-.08-3.74c-.13-.8-.78-.77-1.46-.79l-4.77-.07a2.06,2.06,0,0,0-1.18.23c-.42.3-.29.78-.24,1.2.06.62,0,1.25.05,1.86l.06,3.86c0,.9,0,1.81.07,2.72,0,.53,0,1.07,0,1.59.11.67.29.78.92.9a.74.74,0,0,0,.75-.18.83.83,0,0,0,.11-.52L340.24,13a1.21,1.21,0,0,1,.16-.76,1.24,1.24,0,0,1,1-.31L343,12a1.3,1.3,0,0,1,.71.15c.49.3.26,1.2.23,1.65-.05.75-.06,1.5-.06,2.26,0,1.08.05,2.17.11,3.26,0,.48,0,.94,0,1.41A.72.72,0,0,0,344.45,21.48Zm-74.16-.12a.7.7,0,0,0,.55-.18.81.81,0,0,0,.09-.52c-.13-2.52-.28-5-.41-7.53-.07-1.26-.13-2.51-.18-3.77,0-.59,0-1.26-.09-1.85-.06-.39-.17-.73.14-1l.12-.1a2.28,2.28,0,0,1,1.19-.28c4.2-.19,8.42-.17,12.64-.14a2.27,2.27,0,0,1,1,.16c.88.43.66,1.9.69,2.68.06,1.32.12,2.64.17,4,.12,2.66.23,5.3.34,7.94a.65.65,0,0,0,.17.47.67.67,0,0,0,.4.06c.58,0,1.16-.06,1.75-.1a1.34,1.34,0,0,0,1-.32,1.37,1.37,0,0,0,.18-.94Q289.6,12,289.07,4.2a1.3,1.3,0,0,0-.15-.65c-.33-.51-1.46-.45-2-.5-1.07-.07-2.2,0-3.29.05l-6.79.12-4.73.07-2.36,0c-.62,0-1.48-.16-2,.3-.25.25-.07,1.46-.07,1.76l0,2.25c.09,3.51,0,7,.18,10.5,0,.74.07,1.48.1,2.22a1.47,1.47,0,0,0,.21.83C268.52,21.61,269.84,21.39,270.29,21.36Zm129-.7a2.44,2.44,0,0,0,.05-1.17c-.07-1.13-.15-2.26-.21-3.38l-.36-6.64c0-.42-.17-.88-.15-1.29a.83.83,0,0,1,.76-.9c2.38-.13,4.77-.33,7.14-.34,1.51,0,3,0,4.52.06a1.08,1.08,0,0,1,.66.15,1.14,1.14,0,0,1,.34.86c.32,2.94.37,5.89.62,8.85.1,1.1.17,2.21.23,3.34,0,.71.38.63,1,.64l2,0a1.3,1.3,0,0,0,.44-.06.48.48,0,0,0,.17-.12.81.81,0,0,0,.08-.49c-.14-3.12-.3-6.23-.46-9.35-.07-1.53-.14-3.07-.23-4.62-.05-1,0-2.44-1.34-2.41q-9.37.12-18.76.57a.56.56,0,0,0-.36.09.57.57,0,0,0-.11.51c.11,1.16.24,2.32.3,3.48s.18,2.41.24,3.62c.13,2.71.27,5.42.4,8.15a.86.86,0,0,0,.26.7.91.91,0,0,0,.54.1,8.16,8.16,0,0,1,1.1-.09C398.65,21,399.09,21.12,399.34,20.66Zm7.85-2.08c-.05-.79-.1-1.58-.15-2.35-.07-1.1-.13-2.21-.2-3.31a1.37,1.37,0,0,0-.18-.69,1.33,1.33,0,0,0-1.17-.35,1.72,1.72,0,0,0-.86.16c-.52.28-.3.75-.29,1.21,0,.62,0,1.23.05,1.85,0,1,.07,1.93.13,2.88.05.57-.12,2.28.49,2.58a1.11,1.11,0,0,0,.57.1l.89,0a.83.83,0,0,0,.54-.12.34.34,0,0,0,.06-.06C407.41,20.12,407.21,19,407.19,18.58Zm69.32,1.72c-.34-2.8-.43-5.63-.59-8.47,0-.47-.1-1-.52-1.27a1.49,1.49,0,0,0-.7-.14l-3.81-.07a2,2,0,0,0-1.06.21.74.74,0,0,0-.25.36,5.49,5.49,0,0,0,.14,1.64c.08.92.11,1.83.19,2.75l.36,4.59a1.25,1.25,0,0,0,.22.75c.28.35.8.31,1.2.31s.52,0,.49-.51c-.07-2.13-.2-4.23-.34-6.35a1.58,1.58,0,0,1,.15-.92c.4-.65,1.5-.39,2.14-.39a.58.58,0,0,1,.41.1.62.62,0,0,1,.14.41c.08,1.09.12,2.18.2,3.26.1,1.27.17,2.5.18,3.76a.44.44,0,0,0,.09.34c.16.18.63.05.85.05S476.57,20.75,476.51,20.3Zm-12,1.06a.66.66,0,0,0,.54-.18.76.76,0,0,0,.1-.52c-.13-2.52-.28-5-.41-7.53-.08-1.26-.14-2.51-.19-3.77a16.36,16.36,0,0,0-.08-1.85c-.06-.39-.17-.73.13-1a.53.53,0,0,0,.12-.1,2.3,2.3,0,0,1,1.19-.28c4.2-.19,8.43-.17,12.64-.14a2.33,2.33,0,0,1,1,.16c.87.43.65,1.9.69,2.68.06,1.32.12,2.64.17,4,.12,2.66.23,5.3.34,7.94a.61.61,0,0,0,.17.47.66.66,0,0,0,.4.06c.58,0,1.16-.06,1.74-.1a1.34,1.34,0,0,0,1-.32,1.27,1.27,0,0,0,.18-.94q-.4-7.85-.94-15.67a1.31,1.31,0,0,0-.16-.65c-.33-.51-1.45-.45-2-.5-1.08-.07-2.2,0-3.29.05-2.27,0-4.53.09-6.8.12l-4.72.07-2.36,0c-.62,0-1.48-.16-2,.3-.26.25-.08,1.46-.08,1.76l0,2.25c.08,3.51,0,7,.18,10.5,0,.74.06,1.48.1,2.22a1.46,1.46,0,0,0,.2.83C462.75,21.61,464.07,21.39,464.52,21.36Z"/><path class="b2f19f2d-8179-4603-8b3d-d1302fa231e9" d="M302.29,23.19q12.58.11,25.16.24c5,0,10,.08,15,.1,4.16,0,8.39.23,12.55.06s8.19-.31,12.3-.29a7.58,7.58,0,0,0,1.43-.07h68.85c15.45,0,31-.3,46.4-.16,2.9,0,5.73-.13,8.62-.05,1.18,0,4.73.43,5.24-1.14.93-2.89-11.46-.28-12.1-1.1a1.43,1.43,0,0,1-.22-.79c0-.19,0-.37,0-.56-.22-3.13-.43-6.27-.58-9.4-.06-1.56-.11-3.14-.13-4.7,0-.92.3-2.91-.74-3.43a2.76,2.76,0,0,0-1.25-.18l-6.42.11L466.88,2l-4.71.07c-1.12,0-1.69.08-1.71,1.34-.09,5.8.19,11.64.34,17.45a.7.7,0,0,1-.06.38c-.14.22-.84.05-1.07.06l-1.67,0-3.11.07c-.38,0-1.09,0-1.33-.24s-.2-1-.22-1.42c-.06-.69-.11-1.37-.15-2.06-.08-1.34-.14-2.69-.2-4-.11-2.67-.18-5.32-.33-8,0-.68-.07-1.37-.13-2s.11-1.25-.64-1.34c-1.41-.16-2.92,0-4.33,0-6.26,0-12.51,0-18.77,0a1.23,1.23,0,0,0-.82.2,1.23,1.23,0,0,0-.26.91c-.06,4,0,8.09.05,12.16,0,1.37,0,2.75,0,4.13a2.2,2.2,0,0,1-.16,1c-.28.59-.92.55-1.47.55h-2.24c-1.49,0-3,0-4.46,0s-1.55-.22-1.67-1.69c-.28-3.66-.35-7.32-.46-11,0-1.17-.07-2.34-.1-3.5,0-.78.27-2.3-.75-2.55a8.12,8.12,0,0,0-1.31,0,8.71,8.71,0,0,0-1.35,0l-17.88.53a3.56,3.56,0,0,0-1.08.14c-1,.39-.73,1.54-.64,2.39.52,4.63.43,9.28.64,13.93,0,.58.15,1.44-.52,1.74a1.94,1.94,0,0,1-.8.11c-1.07,0-2.13.06-3.19.14a1.07,1.07,0,0,1-.65-.21c-.31-.32-.19-1-.22-1.42-.06-.69-.1-1.37-.14-2.06-.09-1.34-.15-2.69-.21-4-.11-2.67-.18-5.32-.32-8,0-.68-.08-1.37-.14-2s.11-1.25-.64-1.34c-1.4-.16-2.92,0-4.32,0-6.26,0-12.51,0-18.77,0a1.26,1.26,0,0,0-.83.2,1.23,1.23,0,0,0-.25.91c-.06,4,0,8.09.05,12.16,0,1.37,0,2.75,0,4.13a2.35,2.35,0,0,1-.16,1c-.28.59-.92.55-1.48.55-1.84,0-3.73.1-5.56.21-.79,0-.61-.66-.63-1.29,0-.46,0-.93,0-1.39,0-.9-.06-1.81-.08-2.71-.09-3.14-.15-6.29-.2-9.44,0-1.58,0-3.15,0-4.72,0-.44.21-1.12-.09-1.49A1.68,1.68,0,0,0,354.31,0c-1.55,0-3.11.11-4.67.11H330.88a1.57,1.57,0,0,0-.78.13c-1,.56-.56,2.7-.51,3.56.06,1.58.14,3.15.21,4.74l.42,9.44.08,1.8a1.61,1.61,0,0,1-.11.82c-.22.38-.46.24-.78.21a11.85,11.85,0,0,0-1.46,0l-3.1,0a.73.73,0,0,1-.48-.11.68.68,0,0,1-.18-.51c-.28-3.06-.16-6.14-.37-9.2-.09-1.06-.2-2.12-.27-3.18-.13-2-.28-4.06-.41-6.08a1.12,1.12,0,0,0-.32-.86,1.11,1.11,0,0,0-.67-.15c-2.26,0-4.5.06-6.75.2-2,.12-4.12,0-6.19,0L299.89,1a1.36,1.36,0,0,0-.84.21,1.3,1.3,0,0,0-.33,1.06c0,1.35.15,2.65.25,4,.11,1.48.06,3,.09,4.44.06,2.93.12,5.85.2,8.76a2,2,0,0,1-.14.92c-.27.6-1.15.46-1.69.5-.78.05-1.56.07-2.35.09s-1.45,0-2.19,0c-.39,0-1.15.17-1.42-.17a1.51,1.51,0,0,1-.22-.79l0-.56c-.22-3.13-.44-6.27-.58-9.4-.07-1.56-.11-3.14-.14-4.7,0-.92.3-2.91-.74-3.43a2.72,2.72,0,0,0-1.24-.18l-6.42.11L272.65,2l-4.71.07c-1.11,0-1.68.08-1.71,1.34-.08,5.8.2,11.64.34,17.45a.7.7,0,0,1-.06.38c-.13.22-.83.05-1.06.06l-1.67,0-3.12.07c-.37,0-1.09,0-1.33-.24s-.19-1-.22-1.42c-.06-.69-.11-1.37-.14-2.06-.09-1.34-.15-2.69-.21-4-.11-2.67-.18-5.32-.33-8,0-.68-.07-1.37-.13-2s.11-1.25-.64-1.34c-1.4-.16-2.92,0-4.32,0-6.26,0-12.51,0-18.77,0a1.26,1.26,0,0,0-.83.2,1.23,1.23,0,0,0-.25.91c-.06,4,0,8.09,0,12.16,0,1.37,0,2.75,0,4.13a2.34,2.34,0,0,1-.15,1c-.28.59-.92.55-1.48.55h-2.24c-1.49,0-3,0-4.46,0s-1.55-.22-1.67-1.69c-.28-3.66-.35-7.32-.46-11,0-1.17-.07-2.34-.1-3.5,0-.78.27-2.3-.75-2.55a8,8,0,0,0-1.3,0,8.82,8.82,0,0,0-1.36,0l-17.87.53a3.52,3.52,0,0,0-1.08.14c-1,.39-.74,1.54-.64,2.39.52,4.63.42,9.28.64,13.93,0,.58.14,1.44-.52,1.74a2,2,0,0,1-.8.11c-1.07,0-2.14.06-3.2.14a1,1,0,0,1-.64-.21c-.32-.32-.2-1-.22-1.42-.06-.69-.11-1.37-.15-2.06-.08-1.34-.14-2.69-.2-4-.11-2.67-.18-5.32-.33-8,0-.68-.07-1.37-.13-2s.11-1.25-.64-1.34c-1.41-.16-2.92,0-4.33,0-6.26,0-12.51,0-18.77,0a1.23,1.23,0,0,0-.82.2,1.23,1.23,0,0,0-.26.91c-.06,4,0,8.09,0,12.16,0,1.37,0,2.75,0,4.13a2.2,2.2,0,0,1-.16,1c-.28.59-.92.55-1.47.55h-3.6v.1l-.83,0-1.14.07c-.78,0-.6-.66-.63-1.29l0-1.39c0-.9-.06-1.81-.09-2.71q-.12-4.71-.19-9.44c0-1.58,0-3.15-.05-4.72,0-.44.22-1.12-.08-1.49A1.69,1.69,0,0,0,160.08,0c-1.55,0-3.11.11-4.67.11H136.65a1.53,1.53,0,0,0-.77.13c-1,.56-.56,2.7-.51,3.56.06,1.58.13,3.15.2,4.74L136,18l.07,1.8a1.61,1.61,0,0,1-.11.82c-.22.38-.46.24-.77.21a12,12,0,0,0-1.47,0l-3.1,0a.69.69,0,0,1-.47-.11.64.64,0,0,1-.18-.51c-.28-3.06-.16-6.14-.38-9.2-.08-1.06-.19-2.12-.27-3.18q-.19-3-.41-6.08A1.12,1.12,0,0,0,128.6.9a1.16,1.16,0,0,0-.68-.15c-2.25,0-4.49.06-6.75.2-2,.12-4.11,0-6.18,0L105.66,1a1.33,1.33,0,0,0-.83.21,1.27,1.27,0,0,0-.33,1.06c0,1.35.14,2.65.24,4,.11,1.48.06,3,.1,4.44q.09,4.39.19,8.76a2.14,2.14,0,0,1-.13.92c-.28.6-1.15.46-1.7.5-.77.05-1.56.07-2.35.09l-2.19,0c-.39,0-1.15.17-1.41-.17A1.43,1.43,0,0,1,97,20c0-.19,0-.37,0-.56-.22-3.13-.44-6.27-.58-9.4-.06-1.56-.11-3.14-.13-4.7,0-.92.3-2.91-.74-3.43a2.78,2.78,0,0,0-1.25-.18l-6.42.11L78.43,2l-4.71.07C72.6,2.07,72,2.14,72,3.4c-.09,5.8.19,11.64.34,17.45a.7.7,0,0,1-.06.38c-.14.22-.84.05-1.07.06l-1.67,0-3.11.07c-.38,0-1.09,0-1.33-.24s-.2-1-.22-1.42c-.06-.69-.11-1.37-.15-2.06-.08-1.34-.14-2.69-.2-4-.11-2.67-.19-5.32-.33-8,0-.68-.07-1.37-.13-2s.1-1.25-.65-1.34c-1.4-.16-2.91,0-4.32,0-6.26,0-12.51,0-18.77,0a1.22,1.22,0,0,0-.82.2,1.23,1.23,0,0,0-.26.91c-.06,4,0,8.09.05,12.16,0,1.37,0,2.75,0,4.13a2.2,2.2,0,0,1-.16,1c-.28.59-.92.55-1.48.55H35.42c-1.49,0-3,0-4.45,0S29.42,21,29.3,19.49c-.28-3.66-.36-7.32-.46-11,0-1.17-.08-2.33-.1-3.5,0-.78.27-2.3-.75-2.55a8.16,8.16,0,0,0-1.31,0,8.82,8.82,0,0,0-1.36,0L7.45,2.92a3.56,3.56,0,0,0-1.08.14c-1,.39-.74,1.54-.64,2.39.52,4.63.42,9.28.64,13.93,0,.58.15,1.44-.52,1.74a1.94,1.94,0,0,1-.8.11,37.78,37.78,0,0,0-4.12.22,1.29,1.29,0,0,0-.63.17A.91.91,0,0,0,.23,22.9c.83.93,3.6.33,4.7.33H49.08c15.46,0,31-.3,46.41-.16,4.19,0,8.38.07,12.57.12q12.59.11,25.16.24c5,0,10,.08,15,.1,4.17,0,8.39.23,12.56.06s8.18-.31,12.29-.29a7.68,7.68,0,0,0,1.44-.07h68.84c15.45,0,31-.3,46.41-.16C293.9,23.11,298.1,23.14,302.29,23.19Zm99.18-2.28a.51.51,0,0,1-.42-.07c-.14-.09-.15-.28-.16-.43q-.21-3.07-.44-6.14c-.06-1-.13-2-.2-3a12.23,12.23,0,0,0-.18-1.72.91.91,0,0,1,.2-1,1.06,1.06,0,0,1,.58-.13l8.87-.22h.39a.88.88,0,0,1,.49.19,1.3,1.3,0,0,1,.39,1c.27,3.56.53,7.1.74,10.66a.63.63,0,0,1-.09.47.66.66,0,0,1-.49.16l-2.36.05a.45.45,0,0,1-.26-.05.41.41,0,0,1-.12-.31c-.25-2.84-.46-5.65-.66-8.48a1.1,1.1,0,0,0-1.25-1.16c-.61,0-1.21,0-1.81,0s-1-.12-1.24.43a1.93,1.93,0,0,0-.1,1c.16,2.49.31,5,.47,7.45a1.57,1.57,0,0,1-.11.91C403.37,21.18,402.07,20.88,401.47,20.91Zm5-.23-.89,0a1.11,1.11,0,0,1-.57-.1c-.61-.3-.44-2-.49-2.58-.06-.95-.11-1.92-.13-2.88,0-.62,0-1.23-.05-1.85,0-.46-.23-.93.29-1.21a1.72,1.72,0,0,1,.86-.16,1.33,1.33,0,0,1,1.17.35,1.37,1.37,0,0,1,.18.69c.07,1.1.13,2.21.2,3.31,0,.77.1,1.56.15,2.35,0,.43.22,1.54-.12,1.92a.34.34,0,0,1-.06.06A.83.83,0,0,1,406.47,20.68Zm-9.91.27a.86.86,0,0,1-.26-.7c-.13-2.73-.27-5.44-.4-8.15-.06-1.21-.18-2.41-.24-3.62s-.19-2.32-.3-3.48a.57.57,0,0,1,.11-.51.56.56,0,0,1,.36-.09q9.38-.44,18.76-.57c1.38,0,1.29,1.39,1.34,2.41.09,1.55.16,3.09.23,4.62.16,3.12.32,6.23.46,9.35a.81.81,0,0,1-.08.49.48.48,0,0,1-.17.12,1.3,1.3,0,0,1-.44.06l-2,0c-.6,0-.94.07-1-.64-.06-1.13-.13-2.24-.23-3.34-.25-3-.3-5.91-.62-8.85a1.14,1.14,0,0,0-.34-.86,1.08,1.08,0,0,0-.66-.15c-1.5,0-3-.06-4.52-.06-2.37,0-4.76.21-7.14.34a.83.83,0,0,0-.76.9c0,.41.13.87.15,1.29l.36,6.64c.06,1.12.14,2.25.21,3.38a2.44,2.44,0,0,1-.05,1.17c-.25.46-.69.33-1.14.3a8.16,8.16,0,0,0-1.1.09A.91.91,0,0,1,396.56,21Zm-189.31,0a.53.53,0,0,1-.43-.07c-.13-.09-.14-.28-.16-.43-.14-2.05-.29-4.1-.43-6.14-.06-1-.13-2-.21-3a10.9,10.9,0,0,0-.18-1.72.93.93,0,0,1,.21-1,1,1,0,0,1,.58-.13l8.86-.22h.39a.94.94,0,0,1,.5.19,1.33,1.33,0,0,1,.38,1c.27,3.56.54,7.1.74,10.66a.59.59,0,0,1-.08.47.69.69,0,0,1-.5.16l-2.36.05a.43.43,0,0,1-.25-.05.38.38,0,0,1-.12-.31c-.26-2.84-.47-5.65-.67-8.48a1.09,1.09,0,0,0-1.25-1.16c-.6,0-1.21,0-1.8,0s-1-.12-1.25.43a2.18,2.18,0,0,0-.1,1l.48,7.45a1.75,1.75,0,0,1-.11.91C209.15,21.18,207.84,20.88,207.25,20.91Zm5-.23-.9,0a1.13,1.13,0,0,1-.57-.1c-.6-.3-.43-2-.48-2.58-.06-.95-.11-1.92-.14-2.88,0-.62,0-1.23,0-1.85,0-.46-.23-.93.29-1.21a1.7,1.7,0,0,1,.86-.16c.42,0,.92,0,1.16.35a1.27,1.27,0,0,1,.18.69c.07,1.1.13,2.21.21,3.31.05.77.09,1.56.14,2.35,0,.43.22,1.54-.12,1.92,0,0,0,0-.06.06A.82.82,0,0,1,212.25,20.68Zm-9.92.27a.86.86,0,0,1-.25-.7c-.14-2.73-.27-5.44-.4-8.15-.07-1.21-.19-2.41-.25-3.62s-.19-2.32-.3-3.48a.63.63,0,0,1,.11-.51.57.57,0,0,1,.36-.09Q211,4,220.36,3.83c1.38,0,1.3,1.39,1.35,2.41.08,1.55.15,3.09.23,4.62.15,3.12.31,6.23.46,9.35a.75.75,0,0,1-.09.49.48.48,0,0,1-.17.12,1.24,1.24,0,0,1-.43.06l-2,0c-.61,0-.95.07-1-.64-.06-1.13-.13-2.24-.23-3.34-.25-3-.3-5.91-.61-8.85a1.22,1.22,0,0,0-.34-.86,1.12,1.12,0,0,0-.67-.15c-1.5,0-3-.06-4.52-.06-2.37,0-4.75.21-7.14.34a.81.81,0,0,0-.75.9,11.55,11.55,0,0,0,.14,1.29c.13,2.22.25,4.42.37,6.64.06,1.12.13,2.25.2,3.38a2.21,2.21,0,0,1,0,1.17c-.25.46-.69.33-1.13.3a8.3,8.3,0,0,0-1.11.09A.92.92,0,0,1,202.33,21ZM13,20.91a.51.51,0,0,1-.42-.07c-.14-.09-.15-.28-.16-.43-.15-2.05-.29-4.1-.44-6.14-.06-1-.13-2-.2-3a12.23,12.23,0,0,0-.18-1.72.91.91,0,0,1,.2-1,1.06,1.06,0,0,1,.58-.13l8.87-.22h.38a.88.88,0,0,1,.5.19,1.37,1.37,0,0,1,.39,1c.27,3.57.53,7.1.74,10.66a.63.63,0,0,1-.09.47.66.66,0,0,1-.49.16l-2.37.05a.43.43,0,0,1-.25-.05.38.38,0,0,1-.12-.31c-.26-2.84-.46-5.65-.67-8.48a1.09,1.09,0,0,0-1.24-1.16c-.61,0-1.22,0-1.81,0s-1-.12-1.25.43a2,2,0,0,0-.09,1q.22,3.73.47,7.45a1.66,1.66,0,0,1-.11.91C14.92,21.18,13.61,20.88,13,20.91Zm5-.23-.89,0a1.11,1.11,0,0,1-.57-.1c-.61-.3-.44-2-.49-2.58C16,17,16,16.06,15.94,15.1c0-.62,0-1.23,0-1.85,0-.46-.23-.93.29-1.21a1.72,1.72,0,0,1,.86-.16c.42,0,.92,0,1.16.35a1.19,1.19,0,0,1,.18.69c.08,1.1.14,2.21.21,3.31.05.77.1,1.56.15,2.35,0,.43.21,1.54-.12,1.92a.2.2,0,0,1-.07.06A.81.81,0,0,1,18,20.68ZM8.1,21a.89.89,0,0,1-.25-.7c-.13-2.73-.27-5.44-.4-8.15-.06-1.21-.18-2.41-.24-3.62S7,6.17,6.9,5A.63.63,0,0,1,7,4.49a.6.6,0,0,1,.37-.09Q16.76,4,26.14,3.83c1.38,0,1.29,1.39,1.34,2.41.08,1.55.16,3.09.23,4.62.16,3.12.31,6.23.46,9.35a.81.81,0,0,1-.08.49.48.48,0,0,1-.17.12,1.34,1.34,0,0,1-.44.06l-2,0c-.61,0-.95.07-1-.64-.06-1.13-.13-2.24-.23-3.34C24,13.9,24,11,23.64,8a1.18,1.18,0,0,0-.34-.86A1.08,1.08,0,0,0,22.64,7c-1.51,0-3-.06-4.52-.06-2.38,0-4.76.21-7.15.34a.81.81,0,0,0-.75.9,11.6,11.6,0,0,0,.15,1.29l.36,6.64c.06,1.12.13,2.25.21,3.38a2.44,2.44,0,0,1,0,1.17c-.26.46-.69.33-1.14.3a8.16,8.16,0,0,0-1.1.09A1,1,0,0,1,8.1,21ZM53,20.87c-.11-1.8-.05-3.64-.28-5.42a.52.52,0,0,0-.29-.42,1,1,0,0,0-.29,0c-.45,0-1.5-.14-1.82.22A1.56,1.56,0,0,0,50,16.45c.12,1.34.23,2.67.34,4a.88.88,0,0,1-.1.63,1,1,0,0,1-.81.24,1.14,1.14,0,0,1-.89-.3,1.15,1.15,0,0,1-.16-.71c0-1.75,0-3.52-.05-5.28,0-.44,0-.9,0-1.35s-.16-.72.18-1a1.67,1.67,0,0,1,.89-.27,40.63,40.63,0,0,1,4.42-.13,1.47,1.47,0,0,1,.77.17.26.26,0,0,1,.1.07,1.38,1.38,0,0,1,.3,1l.32,7.37a.47.47,0,0,1-.09.35.45.45,0,0,1-.34.1H53.76C53.3,21.35,53,21.45,53,20.87Zm-1.64.29a1.09,1.09,0,0,1-.17-.62c-.06-1.24-.17-2.46-.2-3.69a1.68,1.68,0,0,1,.07-.59.51.51,0,0,1,.46-.31.52.52,0,0,1,.36.3,1.14,1.14,0,0,1,.1.47l.33,4a.61.61,0,0,1-.34.58A.45.45,0,0,1,51.31,21.16Zm6.44.14a1.65,1.65,0,0,1-1.3-.45,1.67,1.67,0,0,1-.26-1.05L56,12.7c0-.38.06-.94-.33-1.16a1.6,1.6,0,0,0-.78-.14c-1.19,0-2.39,0-3.58.07-.6,0-1.21.06-1.81.07a8.65,8.65,0,0,0-1.53,0c-.59.13-.54.76-.53,1.24,0,1.41.06,2.83.1,4.23,0,.71,0,1.44,0,2.16a4,4,0,0,1-.06,1.62.92.92,0,0,1-.13.24,1.53,1.53,0,0,1-1.1.3A1.62,1.62,0,0,1,45,21a1.56,1.56,0,0,1-.25-1c-.05-3.53-.19-7.09-.05-10.6a1.1,1.1,0,0,1,.12-.51.92.92,0,0,1,.75-.25c3.84-.12,7.68-.17,11.51-.17a1.32,1.32,0,0,1,1.12.35,1.2,1.2,0,0,1,.21.54,34.78,34.78,0,0,1,.28,5.4c.07,1.93.16,3.87.24,5.81a.94.94,0,0,1,0,.37C58.7,21.28,58.18,21.33,57.75,21.3Zm2.34-.95c-.28-3.87-.45-7.73-.52-11.61,0-.55,0-1.44-.65-1.68a7.24,7.24,0,0,0-2.58.06c-1.75.06-3.5.11-5.25.13-1.34,0-2.7,0-4,0-.65,0-1.31,0-2,0-.38,0-1-.12-1.26.2a.93.93,0,0,0-.16.51,37.63,37.63,0,0,0-.17,5.41c0,2.31.07,4.59.1,6.88a1.12,1.12,0,0,1-.14.72,1.22,1.22,0,0,1-1,.32,2.43,2.43,0,0,1-1.26-.24.79.79,0,0,1-.3-.3,1.6,1.6,0,0,1-.17-.87c0-2.52-.09-5-.15-7.56-.06-2.71-.13-5.41-.26-8.11a.47.47,0,0,1,.07-.39.5.5,0,0,1,.41-.12l18.89-.21h1.52c.37,0,.88-.18,1.21,0,.53.34.38,1.55.41,2.1,0,.83.06,1.65.08,2.47,0,1.18,0,2.35.09,3.52.07,1.69.16,3.39.24,5.08,0,.85.1,1.7.15,2.53a8.94,8.94,0,0,1,.08,1.46c-.07.54-.27.61-.8.61C61.75,21.33,60.19,21.68,60.09,20.35ZM344,20.68c0-.47,0-.93,0-1.41-.06-1.09-.11-2.18-.11-3.26,0-.76,0-1.51.06-2.26,0-.45.26-1.35-.23-1.65A1.3,1.3,0,0,0,343,12l-1.58,0a1.24,1.24,0,0,0-1,.31,1.21,1.21,0,0,0-.16.76l.18,7.47a.83.83,0,0,1-.11.52.74.74,0,0,1-.75.18c-.63-.12-.81-.23-.92-.9-.07-.52,0-1.06,0-1.59,0-.91-.06-1.82-.07-2.72l-.06-3.86c0-.61,0-1.24-.05-1.86-.05-.42-.18-.9.24-1.2a2.06,2.06,0,0,1,1.18-.23l4.77.07c.68,0,1.33,0,1.46.79a25.89,25.89,0,0,1,.08,3.74c0,2.47.08,4.94.13,7.41a1,1,0,0,1-.07.45.7.7,0,0,1-.47.28l-.27,0a2.35,2.35,0,0,1-1-.08A.72.72,0,0,1,344,20.68Zm-1.94.51a.91.91,0,0,1-.59-.17,1,1,0,0,1-.23-.76c0-2.11-.06-4.2-.1-6.31a1.75,1.75,0,0,1,.15-.88,1.17,1.17,0,0,1,1.28-.34.52.52,0,0,1,.3.23,1.63,1.63,0,0,1,.22,1c0,1.48,0,3,0,4.44,0,.73.08,1.52,0,2.27S342.59,21.23,342,21.19ZM337.55,4.55l3.68-.06,7.27-.12a2.09,2.09,0,0,1,1.21.22.41.41,0,0,1,.13.1c.29.26.28.78.33,1.16.07.65.05,1.34.06,2,0,1.35.08,2.71.12,4.05.07,2.74.14,5.49.23,8.23a2,2,0,0,1-.18,1.09c-.3.53-1,.37-1.55.37a1.51,1.51,0,0,1-1.24-.42,1.41,1.41,0,0,1-.19-.86c0-1.91-.06-3.84-.06-5.77V11.63a12.22,12.22,0,0,0,0-2.49A1.18,1.18,0,0,0,346.1,8a63.48,63.48,0,0,0-8.28-.07c-.48.4-.42,1-.4,1.58.06,1.84,0,3.69,0,5.53.05,1.66.23,3.31.17,5,0,.34,0,.6-.23.83a1.26,1.26,0,0,1-.89.17.94.94,0,0,1-.7-.39,1.09,1.09,0,0,1-.13-.59c-.13-2.55-.25-5.11-.37-7.65-.06-1.15,0-2.27-.12-3.42a33.6,33.6,0,0,1-.14-3.62,1.18,1.18,0,0,1,.14-.64c.2-.33.68-.23,1-.19A7.82,7.82,0,0,0,337.55,4.55ZM462.43,21.19a1.46,1.46,0,0,1-.2-.83c0-.74-.06-1.48-.1-2.22-.14-3.51-.1-7-.18-10.5l0-2.25c0-.3-.18-1.51.08-1.76.48-.46,1.34-.29,2-.3l2.36,0L471,3.22c2.27,0,4.53-.07,6.8-.12,1.09,0,2.21-.12,3.29-.05.57.05,1.69,0,2,.5a1.31,1.31,0,0,1,.16.65q.52,7.83.94,15.67a1.27,1.27,0,0,1-.18.94,1.34,1.34,0,0,1-1,.32c-.58,0-1.16.08-1.74.1a.66.66,0,0,1-.4-.06.61.61,0,0,1-.17-.47c-.11-2.64-.22-5.28-.34-7.94-.05-1.32-.11-2.64-.17-4,0-.78.18-2.25-.69-2.68a2.33,2.33,0,0,0-1-.16c-4.21,0-8.44,0-12.64.14a2.3,2.3,0,0,0-1.19.28.53.53,0,0,1-.12.1c-.3.3-.19.64-.13,1a16.36,16.36,0,0,1,.08,1.85c.05,1.26.11,2.51.19,3.77.13,2.5.28,5,.41,7.53a.76.76,0,0,1-.1.52.66.66,0,0,1-.54.18C464.07,21.39,462.75,21.61,462.43,21.19Zm12.72-.53a.44.44,0,0,1-.09-.34c0-1.26-.08-2.49-.18-3.76-.08-1.08-.12-2.17-.2-3.26a.62.62,0,0,0-.14-.41.58.58,0,0,0-.41-.1c-.64,0-1.74-.26-2.14.39a1.58,1.58,0,0,0-.15.92c.14,2.12.27,4.22.34,6.35,0,.49-.11.51-.49.51s-.92,0-1.2-.31a1.25,1.25,0,0,1-.22-.75l-.36-4.59c-.08-.92-.11-1.83-.19-2.75a5.49,5.49,0,0,1-.14-1.64.74.74,0,0,1,.25-.36,2,2,0,0,1,1.06-.21l3.81.07a1.49,1.49,0,0,1,.7.14c.42.24.49.8.52,1.27.16,2.84.25,5.67.59,8.47.06.45-.2.4-.51.41S475.31,20.84,475.15,20.66Zm-1.2.25c-.18,0-.73,0-.82-.18a.74.74,0,0,1-.12-.43c-.14-1.9-.28-3.78-.4-5.68a1.06,1.06,0,0,1,.09-.64.33.33,0,0,1,.17-.16,1.11,1.11,0,0,1,1.14.26,1.84,1.84,0,0,1,.21.93c0,1.81.06,3.59.17,5.4A.47.47,0,0,1,474,20.91ZM477,13.22a11.94,11.94,0,0,0-.18-1.58c-.07-.4,0-.8-.09-1.2a1.26,1.26,0,0,0-.62-.9,1.91,1.91,0,0,0-.75-.12,50.66,50.66,0,0,0-5.78,0,1.24,1.24,0,0,0-.63.17c-.42.27-.44.89-.39,1.39.27,3.19.52,6.37.79,9.56a.46.46,0,0,1-.54.65h-1.6a.74.74,0,0,1-.51-.12.77.77,0,0,1-.18-.52c-.18-2.29-.37-4.58-.55-6.87-.14-1.93-.34-3.85-.4-5.77a.68.68,0,0,1,0-.35.19.19,0,0,1,.05-.1.66.66,0,0,1,.49-.15l11.63-.13a1.31,1.31,0,0,1,1,.28,1.29,1.29,0,0,1,.24.8c.15,1.91.23,3.82.26,5.74,0,2.15.12,4.35.35,6.48a.68.68,0,0,1,0,.38c-.18.32-2.08.44-2.1.19C477.37,18.43,477.18,15.83,477,13.22ZM441.4,20.87c-.11-1.8,0-3.64-.28-5.42a.5.5,0,0,0-.29-.42.94.94,0,0,0-.29,0c-.45,0-1.5-.14-1.82.22a1.61,1.61,0,0,0-.23,1.21c.12,1.34.23,2.67.34,4a.83.83,0,0,1-.1.63,1,1,0,0,1-.81.24A1.16,1.16,0,0,1,437,21a1.15,1.15,0,0,1-.16-.71c0-1.75,0-3.52-.05-5.28,0-.44,0-.9-.05-1.35s-.15-.72.18-1a1.69,1.69,0,0,1,.89-.27,40.63,40.63,0,0,1,4.42-.13,1.47,1.47,0,0,1,.77.17.26.26,0,0,1,.1.07,1.38,1.38,0,0,1,.3,1l.32,7.37a.47.47,0,0,1-.09.35.43.43,0,0,1-.34.1h-1.11C441.75,21.35,441.43,21.45,441.4,20.87Zm-1.64.29a1.18,1.18,0,0,1-.17-.62c-.06-1.24-.17-2.46-.2-3.69a1.68,1.68,0,0,1,.07-.59.43.43,0,0,1,.82,0,1.14,1.14,0,0,1,.1.47l.33,4a.6.6,0,0,1-.34.58A.45.45,0,0,1,439.76,21.16Zm6.45.14a1.66,1.66,0,0,1-1.31-.45,1.67,1.67,0,0,1-.26-1.05l-.18-7.1c0-.38.06-.94-.32-1.16a1.64,1.64,0,0,0-.79-.14c-1.19,0-2.39,0-3.57.07-.61,0-1.22.06-1.82.07a8.65,8.65,0,0,0-1.53,0c-.59.13-.54.76-.53,1.24,0,1.41.06,2.82.1,4.23,0,.71,0,1.44.05,2.16a4.43,4.43,0,0,1-.06,1.62,1.38,1.38,0,0,1-.14.24,1.53,1.53,0,0,1-1.1.3,1.6,1.6,0,0,1-1.34-.37,1.51,1.51,0,0,1-.26-1c0-3.53-.19-7.09,0-10.6a1.23,1.23,0,0,1,.12-.51.93.93,0,0,1,.76-.25c3.83-.12,7.67-.17,11.5-.17a1.35,1.35,0,0,1,1.13.35,1.18,1.18,0,0,1,.2.54,34.78,34.78,0,0,1,.28,5.4c.07,1.93.16,3.87.24,5.81a1.16,1.16,0,0,1,0,.37C447.15,21.28,446.63,21.33,446.21,21.3Zm2.33-.95c-.28-3.87-.44-7.73-.52-11.61,0-.55,0-1.44-.65-1.68a7.24,7.24,0,0,0-2.58.06c-1.74.06-3.5.11-5.24.13q-2,0-4.05,0c-.65,0-1.31,0-2,0-.38,0-1-.12-1.26.2a.93.93,0,0,0-.16.51,39.13,39.13,0,0,0-.17,5.41c0,2.31.07,4.59.1,6.88a1.12,1.12,0,0,1-.14.72,1.21,1.21,0,0,1-1,.32,2.43,2.43,0,0,1-1.26-.24.79.79,0,0,1-.3-.3,1.6,1.6,0,0,1-.17-.87c0-2.52-.09-5-.15-7.56-.06-2.71-.13-5.41-.26-8.11a.55.55,0,0,1,.07-.39.5.5,0,0,1,.41-.12q9.45-.11,18.89-.21h1.52c.37,0,.88-.18,1.21,0,.53.34.39,1.55.41,2.1,0,.83.06,1.65.09,2.47,0,1.18,0,2.35.08,3.52.07,1.69.16,3.39.24,5.08.05.85.1,1.7.15,2.53a8.94,8.94,0,0,1,.08,1.46c-.07.54-.26.61-.8.61C450.2,21.33,448.64,21.68,448.54,20.35Zm-79,.64a1.56,1.56,0,0,1-.25-1c-.05-3.53-.2-7.09-.05-10.6a1,1,0,0,1,.12-.51.91.91,0,0,1,.75-.25c3.84-.12,7.68-.17,11.51-.17a1.32,1.32,0,0,1,1.12.35,1.33,1.33,0,0,1,.21.54,36.06,36.06,0,0,1,.28,5.4q.1,2.89.24,5.81a.94.94,0,0,1,0,.37c-.14.39-.66.44-1.09.41a1.68,1.68,0,0,1-1.31-.45,1.66,1.66,0,0,1-.25-1.05l-.18-7.1c0-.38.06-.94-.33-1.16a1.61,1.61,0,0,0-.79-.14c-1.18,0-2.38,0-3.57.07-.6,0-1.21.06-1.82.07a8.54,8.54,0,0,0-1.52,0c-.59.13-.55.76-.53,1.24L372.1,17c0,.71,0,1.44,0,2.16a4.22,4.22,0,0,1-.06,1.62,1.36,1.36,0,0,1-.13.24,1.54,1.54,0,0,1-1.1.3A1.61,1.61,0,0,1,369.51,21Zm8-.12c-.1-1.8,0-3.64-.27-5.42a.53.53,0,0,0-.3-.42.93.93,0,0,0-.29,0c-.44,0-1.5-.14-1.81.22a1.56,1.56,0,0,0-.23,1.21c.12,1.34.23,2.67.34,4a.93.93,0,0,1-.1.63,1,1,0,0,1-.81.24,1.18,1.18,0,0,1-.9-.3,1.22,1.22,0,0,1-.16-.71c0-1.75,0-3.52,0-5.28,0-.44,0-.9-.05-1.35s-.16-.72.18-1a1.66,1.66,0,0,1,.88-.27,40.78,40.78,0,0,1,4.42-.13,1.49,1.49,0,0,1,.78.17.37.37,0,0,1,.1.07,1.43,1.43,0,0,1,.3,1l.31,7.37a.51.51,0,0,1-.08.35.46.46,0,0,1-.34.1h-1.11C377.86,21.35,377.54,21.45,377.5,20.87Zm-1.63.29a1.09,1.09,0,0,1-.17-.62c-.06-1.24-.17-2.46-.21-3.69a1.48,1.48,0,0,1,.08-.59A.5.5,0,0,1,376,16a.54.54,0,0,1,.36.3,1.58,1.58,0,0,1,.1.47l.32,4a.58.58,0,0,1-.34.58A.44.44,0,0,1,375.87,21.16Zm8.78-.81c-.28-3.87-.45-7.73-.52-11.61,0-.55-.05-1.44-.66-1.68a7.25,7.25,0,0,0-2.58.06c-1.74.06-3.49.11-5.24.13-1.34,0-2.7,0-4,0-.66,0-1.31,0-2,0-.37,0-1-.12-1.26.2a.92.92,0,0,0-.15.51,37.63,37.63,0,0,0-.17,5.41c0,2.31.07,4.59.09,6.88A1.06,1.06,0,0,1,368,21a1.22,1.22,0,0,1-1,.32,2.42,2.42,0,0,1-1.26-.24.89.89,0,0,1-.31-.3,1.69,1.69,0,0,1-.16-.87c0-2.52-.09-5-.15-7.56-.06-2.71-.13-5.41-.27-8.11a.51.51,0,0,1,.08-.39c.09-.12.26-.12.41-.12l18.89-.21h1.51c.38,0,.89-.18,1.21,0,.54.34.39,1.55.42,2.1,0,.83.06,1.65.08,2.47,0,1.18,0,2.35.09,3.52.07,1.69.15,3.39.24,5.08.05.85.09,1.7.14,2.53A8,8,0,0,1,388,20.7c-.07.54-.27.61-.8.61C386.31,21.33,384.75,21.68,384.65,20.35ZM332,20.6a1.68,1.68,0,0,1-.2-.81q-.48-8.91-1-17.83a.86.86,0,0,1,.07-.48.84.84,0,0,1,.74-.27c6.19,0,12.4,0,18.59-.17.95,0,1.94.1,2.88.15a1.06,1.06,0,0,1,.73.24,1,1,0,0,1,.17.67q.19,9.18.4,18.38a1.62,1.62,0,0,1-.16.93.11.11,0,0,0,0,.05c-.28.34-.85.29-1.24.25s-.92.06-1.15-.14-.19-.58-.22-.8a17.2,17.2,0,0,1,0-1.9c0-1.31,0-2.63,0-4-.06-2.59-.16-5.22-.18-7.79l0-2.18c0-.41.09-1.07-.3-1.35a1.74,1.74,0,0,0-.87-.2c-3-.07-6,0-9,0-1.32,0-2.62,0-3.93,0-.79,0-2.41-.22-3,.46A1.68,1.68,0,0,0,334.06,5c.06,3.12.29,6.22.32,9.34,0,1.8.17,3.61.17,5.4,0,.34.12.71-.11,1a1.38,1.38,0,0,1-.9.3C333,21.06,332.34,21.06,332,20.6Zm-30.87,0c-.46,0-.65-.15-.69-.65-.12-1.44-.17-2.88-.17-4.31,0-2.32-.11-4.65-.23-7-.1-1.89,0-3.78.05-5.66a1,1,0,0,1,.13-.53l.06-.07a1.11,1.11,0,0,1,.73-.18c3.15,0,6.28.05,9.43.07s6.08-.11,9.1-.12c.48,0,1,0,1.45,0,.29,0,.62-.15.83.11a1.17,1.17,0,0,1,.22.71,161.68,161.68,0,0,1,.66,17,.63.63,0,0,1-.14.47.62.62,0,0,1-.46.12c-.61,0-1.38.22-1.57-.49a6.34,6.34,0,0,1-.05-1.44l-.42-9.41c0-.78-.06-1.57-.1-2.35a4.47,4.47,0,0,0-.1-1.59c-.47-1.2-2.08-.92-3.1-.92h-4.31c-2.82,0-5.67,0-8.46-.09-1.59,0-1.73.08-1.75,1.66,0,2.3.09,4.61.25,6.89s.13,4.57.18,6.86a.83.83,0,0,1-.25.77C302.16,20.76,301.51,20.62,301.16,20.64Zm13.1.17c-.39,0-.91.1-1.14-.32a1.55,1.55,0,0,1-.09-.83c.07-1.39-.09-2.77-.15-4.15,0-.66.05-1.32,0-2,0-.38,0-1-.33-1.24a1,1,0,0,0-.45-.08l-1.68,0a.84.84,0,0,0-.69.2.85.85,0,0,0-.11.52c0,1.66,0,3.31.12,5,0,.58.41,2.2-.21,2.59a1.67,1.67,0,0,1-.92.16,1.4,1.4,0,0,1-1.15-.4,1.5,1.5,0,0,1-.17-.69c-.24-3.26-.32-6.52-.63-9.76a.75.75,0,0,1,0-.3.24.24,0,0,1,0-.09c.12-.24.45-.27.71-.27,2.07,0,4.13,0,6.2,0a2.21,2.21,0,0,1,1.23.23c.57.36.42,1.3.45,1.87l.09,2.74c.08,1.85.14,3.72.21,5.57a1.65,1.65,0,0,1-.18,1C315.18,20.93,314.64,20.84,314.26,20.81Zm-3.35-.34a.38.38,0,0,1-.24,0c-.13-.07-.14-.24-.14-.38,0-1.16,0-2.28,0-3.43-.05-1-.17-1.9-.21-2.87a.83.83,0,0,1,.08-.45.78.78,0,0,1,.6-.24c.43,0,1,0,1.18.37a1,1,0,0,1,.11.52c.06,2,.15,4,.08,5.91a.43.43,0,0,1-.49.52Zm5.76.2a1.22,1.22,0,0,1-.2-.76q-.2-3.11-.25-6.19c0-1,0-2.07,0-3.1,0-.54.24-1.83-.37-2.14a1.69,1.69,0,0,0-.62-.11c-2.68-.06-5.34-.13-8-.21a1.86,1.86,0,0,0-1,.18c-.64.42-.25,2.11-.21,2.75.06.91.11,1.82.14,2.73.07,1.91.16,3.83.23,5.74a1.78,1.78,0,0,1,0,.69c-.23.73-1.06.41-1.62.34-.33-.05-.6.06-.83-.29a1.79,1.79,0,0,1-.19-.85c-.08-2.06-.21-4.11-.31-6.16s-.07-4-.11-6.06a2.82,2.82,0,0,1,.13-1.11.93.93,0,0,1,.26-.39c.36-.36.95-.26,1.43-.27,1.44,0,2.88-.06,4.32-.07,2.89,0,5.78,0,8.67.15a.83.83,0,0,1,.64.21.82.82,0,0,1,.15.5c.28,4.54.37,9.07.49,13.61,0,.34,0,.89-.38,1S316.94,21,316.67,20.67Zm-48.46.52a1.47,1.47,0,0,1-.21-.83c0-.74-.06-1.48-.1-2.22-.14-3.51-.09-7-.18-10.5l0-2.25c0-.3-.18-1.51.07-1.76.48-.46,1.34-.29,2-.3l2.36,0,4.73-.07,6.79-.12c1.09,0,2.22-.12,3.29-.05.57.05,1.7,0,2,.5a1.3,1.3,0,0,1,.15.65q.53,7.83.95,15.67a1.37,1.37,0,0,1-.18.94,1.34,1.34,0,0,1-1,.32c-.59,0-1.17.08-1.75.1a.67.67,0,0,1-.4-.06.65.65,0,0,1-.17-.47c-.11-2.64-.22-5.28-.34-7.94-.05-1.32-.11-2.64-.17-4,0-.78.19-2.25-.69-2.68a2.27,2.27,0,0,0-1-.16c-4.22,0-8.44,0-12.64.14a2.28,2.28,0,0,0-1.19.28l-.12.1c-.31.3-.2.64-.14,1,.1.59.05,1.26.09,1.85.05,1.26.11,2.51.18,3.77.13,2.5.28,5,.41,7.53a.81.81,0,0,1-.09.52.7.7,0,0,1-.55.18C269.84,21.39,268.52,21.61,268.21,21.19Zm12.71-.53a.48.48,0,0,1-.08-.34c0-1.26-.09-2.49-.18-3.76-.09-1.08-.12-2.17-.21-3.26a.56.56,0,0,0-.13-.41.59.59,0,0,0-.41-.1c-.65,0-1.75-.26-2.15.39a1.5,1.5,0,0,0-.14.92c.13,2.12.26,4.22.34,6.35,0,.49-.11.51-.5.51s-.92,0-1.2-.31a1.25,1.25,0,0,1-.22-.75q-.18-2.31-.36-4.59c-.07-.92-.11-1.83-.18-2.75a5.18,5.18,0,0,1-.15-1.64.7.7,0,0,1,.26-.36,2,2,0,0,1,1.05-.21l3.82.07a1.51,1.51,0,0,1,.7.14c.41.24.48.8.52,1.27.16,2.84.24,5.67.58,8.47.06.45-.19.4-.51.41S281.08,20.84,280.92,20.66Zm-1.2.25a1.32,1.32,0,0,1-.82-.18.74.74,0,0,1-.12-.43c-.13-1.9-.28-3.78-.4-5.68a1.14,1.14,0,0,1,.1-.64.27.27,0,0,1,.17-.16,1.09,1.09,0,0,1,1.13.26A1.66,1.66,0,0,1,280,15c.05,1.81.06,3.59.17,5.4A.47.47,0,0,1,279.72,20.91Zm3.07-7.69c0-.53-.09-1.06-.18-1.58s0-.8-.1-1.2a1.23,1.23,0,0,0-.62-.9,1.88,1.88,0,0,0-.75-.12,50.66,50.66,0,0,0-5.78,0,1.29,1.29,0,0,0-.63.17c-.42.27-.43.89-.38,1.39l.78,9.56a.62.62,0,0,1-.12.56.68.68,0,0,1-.42.09H273a.75.75,0,0,1-.51-.12.77.77,0,0,1-.18-.52l-.54-6.87c-.15-1.93-.34-3.85-.4-5.77a.59.59,0,0,1,0-.35.31.31,0,0,1,.05-.1.68.68,0,0,1,.5-.15l11.62-.13a1.3,1.3,0,0,1,1,.28,1.23,1.23,0,0,1,.24.8c.15,1.91.23,3.82.26,5.74,0,2.15.12,4.35.35,6.48a.68.68,0,0,1,0,.38c-.18.32-2.08.44-2.09.19C283.14,18.43,283,15.83,282.79,13.22Zm-35.62,7.65c-.11-1.8,0-3.64-.28-5.42a.5.5,0,0,0-.29-.42.93.93,0,0,0-.29,0c-.45,0-1.5-.14-1.81.22a1.56,1.56,0,0,0-.23,1.21c.12,1.34.23,2.67.34,4a.93.93,0,0,1-.1.63,1,1,0,0,1-.81.24,1.18,1.18,0,0,1-.9-.3,1.22,1.22,0,0,1-.16-.71c0-1.75,0-3.52,0-5.28,0-.44,0-.9,0-1.35s-.16-.72.18-1a1.66,1.66,0,0,1,.88-.27,40.78,40.78,0,0,1,4.42-.13,1.49,1.49,0,0,1,.78.17.24.24,0,0,1,.09.07,1.39,1.39,0,0,1,.31,1l.31,7.37a.51.51,0,0,1-.08.35.46.46,0,0,1-.34.1H248C247.52,21.35,247.21,21.45,247.17,20.87Zm-1.63.29a1,1,0,0,1-.17-.62c-.06-1.24-.17-2.46-.21-3.69a1.48,1.48,0,0,1,.08-.59.5.5,0,0,1,.46-.31.54.54,0,0,1,.36.3,1.58,1.58,0,0,1,.1.47c.1,1.34.21,2.67.32,4a.6.6,0,0,1-.34.58A.44.44,0,0,1,245.54,21.16Zm6.44.14a1.68,1.68,0,0,1-1.31-.45,1.66,1.66,0,0,1-.25-1.05l-.18-7.1c0-.38.06-.94-.33-1.16a1.61,1.61,0,0,0-.79-.14c-1.18,0-2.38,0-3.57.07-.61,0-1.21.06-1.82.07a8.54,8.54,0,0,0-1.52,0c-.6.13-.55.76-.54,1.24,0,1.41.07,2.82.1,4.23,0,.71,0,1.44,0,2.16a4.43,4.43,0,0,1-.06,1.62,2.6,2.6,0,0,1-.13.24,1.56,1.56,0,0,1-1.11.3,1.6,1.6,0,0,1-1.34-.37,1.56,1.56,0,0,1-.25-1c-.05-3.53-.2-7.09-.05-10.6a1,1,0,0,1,.12-.51.91.91,0,0,1,.75-.25c3.84-.12,7.68-.17,11.5-.17a1.33,1.33,0,0,1,1.13.35,1.33,1.33,0,0,1,.21.54,34.77,34.77,0,0,1,.27,5.4q.12,2.89.25,5.81a.94.94,0,0,1,0,.37C252.92,21.28,252.4,21.33,252,21.3Zm2.34-.95c-.28-3.87-.45-7.73-.52-11.61,0-.55-.05-1.44-.66-1.68a7.24,7.24,0,0,0-2.58.06c-1.74.06-3.5.11-5.24.13-1.34,0-2.7,0-4,0-.66,0-1.31,0-2,0-.37,0-1-.12-1.26.2a1,1,0,0,0-.16.51,39.13,39.13,0,0,0-.17,5.41c0,2.31.08,4.59.1,6.88a1.18,1.18,0,0,1-.13.72,1.22,1.22,0,0,1-1,.32,2.42,2.42,0,0,1-1.26-.24.81.81,0,0,1-.31-.3,1.7,1.7,0,0,1-.17-.87c0-2.52-.08-5-.14-7.56-.06-2.71-.13-5.41-.27-8.11a.55.55,0,0,1,.07-.39.52.52,0,0,1,.42-.12l18.89-.21h1.51c.38,0,.89-.18,1.21,0,.54.34.39,1.55.41,2.1,0,.83.06,1.65.09,2.47,0,1.18,0,2.35.08,3.52.08,1.69.16,3.39.25,5.08,0,.85.09,1.7.14,2.53a8,8,0,0,1,.09,1.46c-.08.54-.27.61-.8.61C256,21.33,254.41,21.68,254.32,20.35Zm-79,.64a1.51,1.51,0,0,1-.26-1c-.05-3.53-.19-7.09-.05-10.6a1.1,1.1,0,0,1,.12-.51.92.92,0,0,1,.75-.25c3.84-.12,7.68-.17,11.51-.17a1.35,1.35,0,0,1,1.13.35,1.18,1.18,0,0,1,.2.54,34.78,34.78,0,0,1,.28,5.4c.07,1.93.16,3.87.24,5.81a1.16,1.16,0,0,1,0,.37c-.15.39-.67.44-1.09.41a1.66,1.66,0,0,1-1.31-.45,1.67,1.67,0,0,1-.26-1.05l-.18-7.1c0-.38.06-.94-.32-1.16a1.66,1.66,0,0,0-.79-.14c-1.19,0-2.39,0-3.57.07-.61,0-1.22.06-1.82.07a8.65,8.65,0,0,0-1.53,0c-.59.13-.54.76-.53,1.24,0,1.41.06,2.83.1,4.23,0,.71,0,1.44.05,2.16a4.43,4.43,0,0,1-.06,1.62,1.38,1.38,0,0,1-.14.24,1.53,1.53,0,0,1-1.1.3A1.6,1.6,0,0,1,175.29,21Zm8-.12c-.11-1.8-.05-3.64-.28-5.42a.5.5,0,0,0-.29-.42.94.94,0,0,0-.29,0c-.45,0-1.5-.14-1.82.22a1.61,1.61,0,0,0-.23,1.21c.12,1.34.23,2.67.34,4a.83.83,0,0,1-.1.63,1,1,0,0,1-.81.24,1.16,1.16,0,0,1-.89-.3,1.15,1.15,0,0,1-.16-.71c0-1.75,0-3.52-.05-5.28,0-.44,0-.9,0-1.35s-.16-.72.18-1a1.69,1.69,0,0,1,.89-.27,40.63,40.63,0,0,1,4.42-.13,1.47,1.47,0,0,1,.77.17.26.26,0,0,1,.1.07,1.38,1.38,0,0,1,.3,1l.32,7.37a.47.47,0,0,1-.09.35.45.45,0,0,1-.34.1h-1.11C183.63,21.35,183.31,21.45,183.28,20.87Zm-1.64.29a1.18,1.18,0,0,1-.17-.62c-.06-1.24-.17-2.46-.2-3.69a1.68,1.68,0,0,1,.07-.59.43.43,0,0,1,.82,0,1.14,1.14,0,0,1,.1.47l.33,4a.61.61,0,0,1-.34.58A.45.45,0,0,1,181.64,21.16Zm8.78-.81c-.28-3.87-.44-7.73-.52-11.61,0-.55-.05-1.44-.65-1.68a7.24,7.24,0,0,0-2.58.06c-1.74.06-3.5.11-5.24.13-1.35,0-2.71,0-4.05,0-.65,0-1.31,0-2,0-.38,0-1-.12-1.26.2A.93.93,0,0,0,174,8a39.13,39.13,0,0,0-.17,5.41c0,2.31.07,4.59.1,6.88a1.12,1.12,0,0,1-.14.72,1.21,1.21,0,0,1-1,.32,2.43,2.43,0,0,1-1.26-.24.79.79,0,0,1-.3-.3,1.6,1.6,0,0,1-.17-.87c0-2.52-.09-5-.15-7.56-.06-2.71-.13-5.41-.26-8.11a.55.55,0,0,1,.07-.39.5.5,0,0,1,.41-.12q9.45-.11,18.89-.21h1.52c.37,0,.88-.18,1.21,0,.53.34.39,1.55.41,2.1,0,.83.06,1.65.08,2.47,0,1.18,0,2.35.09,3.52.07,1.69.16,3.39.24,5.08.05.85.1,1.7.15,2.53a8.94,8.94,0,0,1,.08,1.46c-.07.54-.26.61-.8.61C192.08,21.33,190.52,21.68,190.42,20.35Zm-83.49.29c-.46,0-.65-.15-.69-.65-.12-1.44-.17-2.88-.17-4.31,0-2.32-.11-4.65-.23-7-.09-1.89,0-3.78,0-5.66a1,1,0,0,1,.13-.53l.07-.07a1.1,1.1,0,0,1,.72-.18c3.15,0,6.29.05,9.44.07s6.07-.11,9.09-.12c.48,0,1,0,1.45,0,.29,0,.62-.15.84.11a1.24,1.24,0,0,1,.22.71,159,159,0,0,1,.65,17,.63.63,0,0,1-.13.47.63.63,0,0,1-.46.12c-.62,0-1.38.22-1.58-.49a7,7,0,0,1,0-1.44c-.14-3.14-.27-6.28-.42-9.41,0-.78-.06-1.57-.1-2.35a4.71,4.71,0,0,0-.09-1.59c-.48-1.2-2.09-.92-3.1-.92h-4.31c-2.83,0-5.67,0-8.47-.09-1.59,0-1.73.08-1.74,1.66,0,2.3.08,4.61.24,6.89s.13,4.57.18,6.86a.85.85,0,0,1-.24.77C107.94,20.76,107.28,20.62,106.93,20.64Zm13.11.17c-.39,0-.91.1-1.14-.32a1.56,1.56,0,0,1-.1-.83c.07-1.39-.08-2.77-.14-4.15,0-.66,0-1.32,0-2,0-.38,0-1-.33-1.24a1,1,0,0,0-.45-.08l-1.68,0a.87.87,0,0,0-.69.2.85.85,0,0,0-.11.52c0,1.66,0,3.31.12,5,0,.58.42,2.2-.2,2.59a1.7,1.7,0,0,1-.92.16,1.39,1.39,0,0,1-1.15-.4,1.29,1.29,0,0,1-.17-.69c-.25-3.26-.33-6.52-.63-9.76a1,1,0,0,1,0-.3.24.24,0,0,1,0-.09c.12-.24.45-.27.72-.27,2.07,0,4.13,0,6.2,0a2.19,2.19,0,0,1,1.22.23c.57.36.43,1.3.45,1.87,0,.92.06,1.83.1,2.74.07,1.85.13,3.72.2,5.57a1.65,1.65,0,0,1-.18,1C121,20.93,120.41,20.84,120,20.81Zm-3.36-.34a.39.39,0,0,1-.24,0c-.12-.07-.13-.24-.13-.38,0-1.16,0-2.28,0-3.43,0-1-.17-1.9-.21-2.87a.75.75,0,0,1,.09-.45.75.75,0,0,1,.59-.24c.44,0,1,0,1.19.37A1,1,0,0,1,118,14c.06,2,.14,4,.07,5.91a.5.5,0,0,1-.12.4.52.52,0,0,1-.36.12Zm5.77.2a1.23,1.23,0,0,1-.21-.76c-.12-2.07-.21-4.13-.24-6.19,0-1,0-2.07,0-3.1,0-.54.24-1.83-.38-2.14a1.62,1.62,0,0,0-.62-.11q-4-.09-8-.21a1.83,1.83,0,0,0-1,.18c-.64.42-.26,2.11-.22,2.75q.09,1.37.15,2.73c.07,1.91.15,3.83.23,5.74a2,2,0,0,1-.05.69c-.23.73-1.07.41-1.63.34-.32-.05-.6.06-.83-.29a1.67,1.67,0,0,1-.18-.85c-.09-2.06-.22-4.11-.32-6.16s-.07-4-.11-6.06a2.66,2.66,0,0,1,.14-1.11.9.9,0,0,1,.25-.39c.36-.36,1-.26,1.43-.27,1.44,0,2.88-.06,4.32-.07,2.9,0,5.78,0,8.67.15a.87.87,0,0,1,.65.21.81.81,0,0,1,.14.5c.28,4.54.38,9.07.5,13.61,0,.34,0,.89-.39,1S122.71,21,122.45,20.67ZM74,21.19a1.46,1.46,0,0,1-.2-.83c0-.74-.06-1.48-.1-2.22-.15-3.51-.1-7-.18-10.5l0-2.25c0-.3-.18-1.51.07-1.76.49-.46,1.35-.29,2-.3l2.36,0,4.72-.07c2.26,0,4.53-.07,6.79-.12,1.09,0,2.22-.12,3.3-.05.57.05,1.69,0,2,.5a1.31,1.31,0,0,1,.16.65q.53,7.83.94,15.67a1.27,1.27,0,0,1-.18.94,1.34,1.34,0,0,1-1,.32c-.58,0-1.16.08-1.74.1a.64.64,0,0,1-.4-.06.61.61,0,0,1-.17-.47c-.11-2.64-.22-5.28-.34-7.94,0-1.32-.11-2.64-.17-3.95,0-.79.18-2.26-.69-2.69a2.33,2.33,0,0,0-1-.16c-4.21,0-8.44,0-12.64.14a2.3,2.3,0,0,0-1.19.28.9.9,0,0,1-.12.1c-.3.3-.19.64-.13,1a16.36,16.36,0,0,1,.08,1.85c0,1.26.11,2.51.18,3.77l.42,7.53a.76.76,0,0,1-.1.52.67.67,0,0,1-.55.18C75.62,21.39,74.3,21.61,74,21.19Zm73.82,0a1,1,0,0,1-.59-.17,1,1,0,0,1-.23-.76c0-2.11-.06-4.2-.1-6.31a1.75,1.75,0,0,1,.15-.88,1.18,1.18,0,0,1,1.28-.34.58.58,0,0,1,.31.23,1.7,1.7,0,0,1,.21,1c0,1.48,0,3,0,4.44,0,.73.07,1.52,0,2.27S148.36,21.23,147.8,21.19Zm-61.1-.53a.44.44,0,0,1-.09-.34c0-1.26-.08-2.49-.18-3.76-.08-1.08-.12-2.17-.2-3.26a.62.62,0,0,0-.14-.41.58.58,0,0,0-.41-.1c-.64,0-1.74-.26-2.14.39a1.58,1.58,0,0,0-.15.92c.13,2.12.27,4.22.34,6.35,0,.49-.11.51-.5.51s-.92,0-1.2-.31a1.31,1.31,0,0,1-.21-.75c-.12-1.54-.25-3.07-.37-4.59-.07-.92-.11-1.83-.18-2.75a5.18,5.18,0,0,1-.14-1.64.74.74,0,0,1,.25-.36,2,2,0,0,1,1.05-.2c1.28,0,2.55,0,3.82.06a1.49,1.49,0,0,1,.7.14,1.51,1.51,0,0,1,.52,1.27c.16,2.84.24,5.67.58,8.47.06.45-.19.4-.5.41S86.85,20.84,86.7,20.66Zm-1.2.25a1.35,1.35,0,0,1-.83-.18.93.93,0,0,1-.12-.43c-.13-1.9-.27-3.78-.4-5.68a1.14,1.14,0,0,1,.1-.64.33.33,0,0,1,.17-.16,1.11,1.11,0,0,1,1.14.26,1.74,1.74,0,0,1,.2.93c0,1.81.07,3.59.17,5.4A.46.46,0,0,1,85.5,20.91Zm3.06-7.68a11.9,11.9,0,0,0-.18-1.59c-.07-.4,0-.8-.1-1.2a1.22,1.22,0,0,0-.61-.9,1.91,1.91,0,0,0-.75-.12,50.66,50.66,0,0,0-5.78,0,1.24,1.24,0,0,0-.63.17c-.42.27-.44.89-.39,1.39.27,3.19.52,6.37.79,9.56a.69.69,0,0,1-.12.56.7.7,0,0,1-.43.09H78.77a.72.72,0,0,1-.51-.12.77.77,0,0,1-.19-.52l-.54-6.87c-.15-1.93-.34-3.85-.4-5.77a.68.68,0,0,1,0-.35.24.24,0,0,1,0-.1.66.66,0,0,1,.49-.15l11.63-.13a1.33,1.33,0,0,1,1,.28,1.35,1.35,0,0,1,.24.8c.14,1.91.23,3.82.25,5.74,0,2.15.12,4.35.35,6.48a.6.6,0,0,1,0,.38c-.18.32-2.08.44-2.1.19C88.91,18.43,88.73,15.83,88.56,13.23Zm61.67,8.25a.73.73,0,0,1-.49-.8,11,11,0,0,0,0-1.41c-.06-1.09-.11-2.18-.11-3.26,0-.76,0-1.51.07-2.26,0-.45.25-1.35-.23-1.65a1.34,1.34,0,0,0-.72-.15l-1.57,0a1.24,1.24,0,0,0-1,.3A1.21,1.21,0,0,0,146,13l.18,7.47a.83.83,0,0,1-.11.52.76.76,0,0,1-.75.19c-.63-.13-.81-.24-.92-.91-.07-.52,0-1.06,0-1.59,0-.91-.06-1.82-.08-2.72,0-1.29,0-2.57-.06-3.86,0-.61,0-1.24,0-1.86,0-.42-.19-.9.24-1.2a2,2,0,0,1,1.17-.23l4.77.07c.68,0,1.34,0,1.47.79a25.9,25.9,0,0,1,.07,3.74c0,2.47.09,4.94.13,7.41a1,1,0,0,1-.07.45.67.67,0,0,1-.47.28l-.27,0A2.29,2.29,0,0,1,150.23,21.48Zm4.39.11a1.47,1.47,0,0,1-1.23-.42,1.41,1.41,0,0,1-.2-.86c0-1.91-.06-3.84-.06-5.76V11.63a12.24,12.24,0,0,0,0-2.49A1.19,1.19,0,0,0,151.87,8,61.75,61.75,0,0,0,143.59,8c-.47.39-.41,1-.4,1.57.06,1.84,0,3.69.05,5.53,0,1.66.23,3.31.17,5,0,.34,0,.6-.23.83a1.28,1.28,0,0,1-.9.17,1,1,0,0,1-.7-.39,1.08,1.08,0,0,1-.12-.59c-.13-2.55-.26-5.11-.38-7.65-.06-1.15,0-2.27-.12-3.42a33.6,33.6,0,0,1-.13-3.62A1.17,1.17,0,0,1,141,4.7c.21-.33.68-.23,1-.19a7.7,7.7,0,0,0,1.36,0L147,4.49c2.43,0,4.85-.08,7.27-.12a2.09,2.09,0,0,1,1.21.22.45.45,0,0,1,.14.1c.29.26.27.78.32,1.16.07.65.05,1.34.06,2,0,1.35.09,2.71.12,4.06.08,2.73.15,5.48.23,8.22a1.85,1.85,0,0,1-.18,1.09C155.87,21.75,155.14,21.59,154.62,21.59Zm4.16.12c-.31,0-.92.06-1.15-.14s-.2-.58-.22-.8a17.2,17.2,0,0,1,0-1.9c0-1.31,0-2.63,0-4-.06-2.59-.15-5.22-.18-7.79l0-2.18c0-.41.08-1.07-.31-1.35a1.72,1.72,0,0,0-.87-.2c-3-.07-6,0-9,0l-3.94,0c-.79,0-2.41-.22-3,.46A1.68,1.68,0,0,0,139.84,5c.06,3.12.29,6.22.31,9.34,0,1.8.17,3.61.17,5.4,0,.34.12.71-.11,1a1.35,1.35,0,0,1-.89.3c-.55,0-1.2,0-1.52-.41a1.57,1.57,0,0,1-.19-.81q-.5-8.91-1-17.83a.78.78,0,0,1,.08-.48.83.83,0,0,1,.74-.27c6.18,0,12.4,0,18.58-.17,1,0,1.94.1,2.89.15a1,1,0,0,1,.72.24,1,1,0,0,1,.17.67q.21,9.18.4,18.38a1.68,1.68,0,0,1-.15.93.07.07,0,0,0,0,.05C159.73,21.8,159.16,21.75,158.78,21.71Z"/></svg>