<svg id="ac58a4bf-9d35-4a67-828d-fa1413c98d9e" data-name="Layer 1" xmlns="http://www.w3.org/2000/svg" xmlns:xlink="http://www.w3.org/1999/xlink" viewBox="0 0 671.62 544.15"><defs><style>.a9d83e18-4b65-48ba-ba1f-38d12cc79f3f{fill:#ead7bb;}.e70740f5-efb3-49ed-b141-9059c8f7a548{fill:#f6f1eb;}.a448791a-c7a3-4273-8c10-16de3c3386f5{fill:#f0e8de;}.f3ad23ab-cab1-48aa-a967-ec03cd1cb6e8{fill:#d9cdba;}.a63f0034-9b47-46b6-8272-079b51877eaa{fill:#efe2cf;}.a2b093dd-0320-475f-9567-b8af19bc06c0{fill:#6a3018;}.ac32d2b7-6f40-44ac-b3d2-26f6c591606d{fill:url(#b31e164c-d257-44fc-afe7-5c843e26687d);}.ebbf5b5a-6e8c-4d51-b5e5-25ab335ec018{fill:#6b3119;}.fed6e67a-1d71-4c60-b69c-c9f115d45f08{fill:#d6bda3;}.b5bc57d1-ed7b-4ed2-8672-cc2438c3aa61{fill:#d1b89e;}.bdf105fd-0285-49c5-8cfd-1514a699c901{fill:#c1a288;}.b2a213a2-42fd-4f51-9af6-ae0f24baaedf{fill:#c3a58a;}.a33a921d-ab71-4291-a9e3-77d3c0355832{fill:#fad64a;}.a71a45f4-800e-459f-9649-2987a57d892f{fill:#fefefe;}.fee9c5b0-eb44-4ed7-b906-adbe30c1deb5{fill:#fefdfd;}.f5066485-ba7b-4e25-978c-7aae5d08453c{fill:#e9d6ba;}.e4f85ce5-9826-4b08-bcc1-cb1faf2c4791{fill:#e9d7bb;}.a5fb091b-ada4-4c87-81bc-6a7b0b0d3fa3{fill:#e6d2b6;}.f50d343b-fb95-42cf-9643-3aaaa3f80786{fill:#e7d4b8;}.f9770f62-24d5-47d6-9a34-3e8a89aa4e66{fill:#f9f8f7;}.e53a2fb9-d13c-4168-b8c4-0ce150e84a50{fill:#e5d1b5;}.ad998d88-8ef1-4838-bfaf-d3a47d0003be{fill:#e5d0b5;}.b82b9062-523a-4cba-b01d-a0e535669f5c{fill:#faf7f1;}.aa0c2e7d-cecd-43b7-9e5d-60cd1406366e{fill:#e1ccb0;}.f9d58861-2705-44c3-82ed-6ef8cb915f96{fill:#f9f7ef;}.f6cef45a-6b88-48f9-8145-9b25c48fedd0{fill:#e4d0b5;}.f806f1a9-17f9-4994-9d1f-1c6e44ba8c35{fill:#f3f0ee;}.e06b6c3d-e234-4844-947d-dfec340b6f10{fill:#e5d1b7;}.a0d0a670-e520-47d9-89cb-b804fa994cfc{fill:#f8f4ed;}.e12b06fe-20b8-4fa8-8a77-e3120c8b3ad9{fill:#f3d34d;}.a259bdad-aee8-46ee-b843-89538e4ce602{fill:#dfc9ae;}.ba9fab6a-86e4-490c-b5f6-22d72947995b{fill:#ddc7ac;}.bfb37ef9-4026-4c97-a9fe-1de26a393807{fill:#d5bda2;}.be8be75b-f6a6-47ed-b0a7-1a5865c50935{fill:#784329;}.f9f2ef81-f9ec-49d6-8074-9f076f9d001a{fill:#bd9d82;}.bcdd07f2-6bb5-4b56-a7a1-09cdbacf4fcb{fill:#d9c6b1;}.a0bc17b8-220f-466a-a65a-2392791f62cd{fill:#6f371e;}.b8309f15-8023-46b1-9d5e-ee882108d646{fill:#dbc4a9;}.b0eb1cc9-e408-40e7-b15f-7c703d8f0a1b{fill:#f1e94c;}.a89ac453-0176-4c03-a074-7e65850a82c3{fill:#ec3e3e;}.ab75615a-b1ba-456e-bc2a-36d682de3d7a{fill:#be2b2e;}.ad92a3e5-d0bb-4704-82cc-99f32eee9024{fill:#bd2b2e;}.bb49d279-5fdc-4449-91be-2ee56efa6d90{fill:#f5ea4d;}.ba2c42a5-1d1f-4823-b02c-7e38f928caef{fill:#fefdfc;}.affa914a-64b0-42c1-96a1-db8b5bd9a73e{fill:#fcfbfa;}.a8201ad1-9d49-471b-95bb-58616ea77934{fill:#fbfaf7;}.adcb199b-70b6-480e-9366-ec485ea04d9d{fill:#a17028;}.adba0f2f-1513-4acb-bea7-e5926fd1bf83{fill:#6a3119;}.b67cb73d-18fb-439e-aa89-e5c2318102d2{fill:#6b321a;}.f822af47-5a45-4d1d-8751-250a2638b7c2{fill:#ead7bc;}.b1f69be6-45e8-42ce-8832-4a1968c2d88a{fill:#753f28;}.b4ffbb9e-72b6-41d4-8644-d8afcd13d522{fill:#713b23;}.a6222f65-dee0-4bfe-a404-bd017ddeabec{fill:#7c4932;}.f98f8d44-c4ff-4b2f-953e-932baade9f7b{fill:#78442d;}.ad175ae7-c9b4-4a73-85bf-10e19a475373{fill:#7e4c35;}.afd9beca-e591-49ca-bb4e-ec65fb699c7f{fill:#c9b8ae;}.b514235d-9d0f-4f4e-ac58-f3e224b87aae{fill:#956d57;}.b512647d-cc34-484c-bc9d-01a0ee1c706e{fill:#a58574;}.a8cef926-c5fc-414b-b682-881ef2a4d1c0{fill:#865841;}.a0f89d03-2cd9-4073-85b3-eda4d55ce5a3{fill:#d7cac4;}.b4dcf683-6849-4ad9-aafb-cba6b0f4917d{fill:#956c58;}.eeb2af71-16c7-4de1-85fe-945ba53deb48{fill:#ddd3cd;}.ae14c2ed-4312-4e66-8b7e-fb6959263021{fill:url(#ea37846d-ec2a-41b5-a3cb-80c8f41a2380);}.af9725eb-b056-4e56-b40f-d39f07de990a{fill:#6b3219;}.a11589f6-1d61-4746-afb5-21d15e8b75ac{fill:url(#bfadcfd6-aed9-47df-8794-0afa7c044a82);}.a72bd952-1434-4641-955b-e9c988cd063a{fill:#6c3319;}.bb7dfd4f-bf20-4047-b227-f5314a6cbd0c{fill:#6b3118;}.b15214e6-65b1-4fa6-b6e3-62e789e77a15{fill:#cbbbb3;}.f7d32002-2136-445e-bbd2-24a16e311934{fill:#d7bfa4;}.f649c96c-782b-4b71-b563-4aab6a4824b9{fill:#e0caaf;}.a50e7506-3c88-4db0-8007-00e2635b7587{fill:#d6bda2;}.a6ec36b0-e09e-4875-83b4-96aaa2e4939b{fill:#c3d346;}.f431c254-622f-434e-9b5a-f1b0ef120eb9{fill:#6c331a;}.a6481e33-d901-4718-a207-9f137e51a8c5{fill:#c4d447;}.a3623c96-879e-44c3-b9d8-be990ca94137{fill:#6d341c;}.fc7e835f-9aba-44cb-8897-3cf236cbacf8{fill:#c8d74e;}.ad1dbfec-ff84-4451-9ca3-009603f81dd3{fill:#79472c;}.bc536f6b-5a29-4f96-8730-dcabbf78d648{fill:#d5d1aa;}.a7e5de03-0fdc-4079-a63a-d1c51a3ee90f{fill:url(#b2493e00-e978-4b3e-89b0-02805bafea6c);}.bdfb7261-a2fa-45c0-aa25-8b6f4383bd29{fill:url(#eef3949f-ea62-4dbc-a1c8-7e5899b59c6a);}.f0c9a545-552c-407e-9783-3508daae645d{fill:url(#b3ab7d53-3cac-48cf-91c9-d98488812087);}.bc08f666-18d6-433c-81b0-87e69815687f{fill:url(#a8c54a46-6f1f-4b39-9e5c-b2bbf5164ddd);}.faaea11f-e4f6-45e3-a7c7-febc254e673b{fill:url(#acfae605-3d96-4295-abe0-25c8924da569);}.aff96635-400e-4093-b510-540c0f67c268{fill:url(#a0a8cb42-3a75-4723-9396-71fe5c34c6ed);}</style><linearGradient id="b31e164c-d257-44fc-afe7-5c843e26687d" x1="557.59" y1="314.65" x2="557.59" y2="379.81" gradientUnits="userSpaceOnUse"><stop offset="0" stop-color="#f8ee4e"/><stop offset="1" stop-color="#7bc042"/></linearGradient><linearGradient id="ea37846d-ec2a-41b5-a3cb-80c8f41a2380" x1="127.44" y1="310.65" x2="127.44" y2="387.25" xlink:href="#b31e164c-d257-44fc-afe7-5c843e26687d"/><linearGradient id="bfadcfd6-aed9-47df-8794-0afa7c044a82" x1="215.6" y1="320.28" x2="215.6" y2="383.17" gradientUnits="userSpaceOnUse"><stop offset="0.13" stop-color="#f8ee4e"/><stop offset="1" stop-color="#7bc042"/></linearGradient><linearGradient id="b2493e00-e978-4b3e-89b0-02805bafea6c" x1="627.59" y1="318.76" x2="627.59" y2="375.41" xlink:href="#b31e164c-d257-44fc-afe7-5c843e26687d"/><linearGradient id="eef3949f-ea62-4dbc-a1c8-7e5899b59c6a" x1="496" y1="314.92" x2="496" y2="373.33" xlink:href="#b31e164c-d257-44fc-afe7-5c843e26687d"/><linearGradient id="b3ab7d53-3cac-48cf-91c9-d98488812087" x1="424.17" y1="312.32" x2="424.17" y2="379.29" xlink:href="#b31e164c-d257-44fc-afe7-5c843e26687d"/><linearGradient id="a8c54a46-6f1f-4b39-9e5c-b2bbf5164ddd" x1="50.39" y1="311.32" x2="50.39" y2="385.48" xlink:href="#b31e164c-d257-44fc-afe7-5c843e26687d"/><linearGradient id="acfae605-3d96-4295-abe0-25c8924da569" x1="325.52" y1="323.14" x2="325.52" y2="392.85" gradientUnits="userSpaceOnUse"><stop offset="0" stop-color="#d9da46"/><stop offset="1" stop-color="#3e8c4b"/></linearGradient><linearGradient id="a0a8cb42-3a75-4723-9396-71fe5c34c6ed" x1="328.72" y1="315.86" x2="328.72" y2="398.66" xlink:href="#b31e164c-d257-44fc-afe7-5c843e26687d"/></defs><path class="a9d83e18-4b65-48ba-ba1f-38d12cc79f3f" d="M328.65,543.55c-9.83-2-19-5.33-26.92-11.86-5.74-4.74-6.29-4.8-11.17.88-11,12.74-37.31,10.36-43.4-5.21-1.14-2.91-3.09-3.16-5.56-1.67-3,1.8-6,3.56-8.93,5.44-14.57,9.39-27.86,2.53-34.54-10.22a25.59,25.59,0,0,1-2.22-7.11c-1-5.59-.86-5.52-5.61-2.11-12.41,8.92-30.1,7.34-39-5.09-5.95-8.27-6.24-17.09-2.71-26.39,3.21-8.46,8.81-15.59,13-23.49,1.42-2.68,1.14-3.72-1.5-4.83-14.36-6.07-18.27-18.94-9.89-32.7,2.05-3.37,4.53-6.49,7.1-10.16-8.1.51-15.46-.9-21.84-5.87-1.72-1.34-3.53-2.53-4.62-4.46-2.24-4-4.93-3.19-7.7-.72-2.48,2.21-4.77,4.58-7.47,6.59-8.13,6.05-24.62,7.1-32.58-3.09-2.29-2.93-4.23-2.41-7.08-.6-19.85,12.57-49,6.69-63.19-12C4.34,377.65-.75,365.18.09,351.44c1.57-25.82,11.93-47.6,35.56-60.2,14.9-7.94,30.89-8.95,45.77,1.59,11.85,8.39,20.85,30.47,10.53,46.69a24.33,24.33,0,0,0-1.13,2.22c-.93,1.41-2,2.68-3.1,4l-1.91,1c-1.18.92-2.63,1.59-2.88,3.31.76,3.31,2.15,3.09,3.92.7,2.69-4.5,7.71-6.59,10.79-10.91a42.39,42.39,0,0,0,8.17-24.58c0-1.67.11-3.34,0-5-.7-9.5,1.77-17.62,10.61-22.45,9.34-5.11,18.77-3.64,27.61,1.21,11.81,6.47,16.23,17.39,16.83,30.28.57,12.17,3.2,23.59,12.5,33.16.93-4-.54-7.42-1.14-10.78-1.35-7.49-3.55-14.79-3.47-22.54.12-11.15,7.6-24.91,20.55-26.34,1.94-.21,2.52-.9,2.1-2.91a39.07,39.07,0,0,1,.68-18.74c1.26-4.52,0-8.09-2.18-11.76-4.26-7.28-9.63-14-11.3-22.59-1.57-8.11-1.43-15.89,3.59-22.88,1.85-2.57,1.41-4-1.5-5.17-12.81-5.32-18.07-23.61-7.44-35,7.85-8.45,10.12-18.91,10.73-30.23,1.58-28.84,8-56.45,23.3-81.42,8.45-13.79,20.41-23.89,34.24-31.95a218.65,218.65,0,0,1,24.7-11.84c2.35-1,4.14-2.18,5.08-4.94,1.7-5,6.18-6.65,11-7.27a20.19,20.19,0,0,1,5.49,0c6.49,1,12.28-.18,17-5,4.48-1.08,9-.22,13.55-.5,3.47-.27,7,.58,10.44-.51h1a5.39,5.39,0,0,0,5,0h8c7.26,6.54,16,6.58,25,6,7.11-.49,13,1.24,14.85,9.21.42,1.77,1.86,2.24,3.19,2.84,34.46,15.64,55.87,42.85,68.63,77.61,6,16.48,8.08,33.74,9.36,51.15.85,11.46,2.93,22.45,10.64,32s5.42,23-4.53,30.93c-1.87,1.48-2.71,2.82-1.76,5,4.69,10.88,1.08,20.67-4.88,29.52a29.9,29.9,0,0,0-4.41,25.52c1.46,5.73,1.69,11.57-.37,17.16-1.18,3.17,1.16,4.12,2.59,5.75s2.74,1,4.38.05c15.22-9,41.49-3.56,45.31,19.39a6.3,6.3,0,0,0,.86,1.72,74.47,74.47,0,0,1-2,29.85c1.82-5.19,1-11,4.09-15.85,2.9-8.5,5.88-17,11.5-24.17,9.06-11.57,20.67-17.29,35.6-15,4.9.75,5.29.39,4.16-4.43-2.17-9.26,1.32-18,8.91-22.46,8.61-5,19.06-3.55,27.07,3.88,6.68,6.19,9.85,14.09,10.37,23,.23,4,1.75,3.52,4.6,2.67,13.59-4.06,26.27-2.12,37.36,7,12.49,10.21,17.45,28.8,6.21,43-2.38,3-1.49,4.49.7,6.57A35.87,35.87,0,0,1,671.6,373c.63,16.77-11.31,30.95-29.07,35.62-5.9,1.55-11.87,1.05-17.84,1.1-7.06-1.92-14.46-3-20.53-7.55-3.38-2.56-7.08-4.78-9.5-8.42-1.76-1.45-3.18-2.38-5.41-.15a44.22,44.22,0,0,1-54.52,6c-2.64-1.65-4.2-1.93-6.86.17-5.9,4.64-13,4.85-20,3.4-6.58-1.36-13-1.74-18.92.38,1.91,2.18,3.66,4.41,5.63,6.39,8.41,8.42,10.42,18.26,6.28,29.25-1,2.55-.29,3.33,1.77,4.54,7.24,4.26,13.65,9.31,17.35,17.29,5.18,11.15,3.34,26.3-4.76,35.58-16.48,18.87-41.4,22.52-62.48,8.91-3.23-2.09-3.92-1.43-5.57,1.79-7.69,14.95-17.86,27.18-35.67,30.57-12.27,2.34-23-1-32.85-8-3-2.11-5.48-6.16-8.52-6.51-3.66-.42-4.42,5-6.93,7.56a41,41,0,0,1-22.63,11.68c-1,.18-2,0-2.71,1A18.08,18.08,0,0,1,328.65,543.55Z"/><path class="e70740f5-efb3-49ed-b141-9059c8f7a548" d="M318.75,1l-14,.05V0h14c.33.22.44.44.33.65S318.87,1,318.75,1Z"/><path class="a448791a-c7a3-4273-8c10-16de3c3386f5" d="M318.75,1c0-.32,0-.64,0-1h10C325.6,2,322.09.58,318.75,1Z"/><path class="f3ad23ab-cab1-48aa-a967-ec03cd1cb6e8" d="M334.77,0a3.37,3.37,0,0,1-5,0Z"/><path class="a63f0034-9b47-46b6-8272-079b51877eaa" d="M594.66,393.76c8,7.16,16.46,13.28,27.61,14.37.85.08,1.61,1.05,2.42,1.6C612.35,408.79,602,404.15,594.66,393.76Z"/><path class="a2b093dd-0320-475f-9567-b8af19bc06c0" d="M215.6,301.68c.31-.87.46-1.68-.8-1.89a5.68,5.68,0,0,1-5,0c-6.52-1.59-11.33-7.84-11.87-15.36a27.86,27.86,0,0,1,1.47-11.33C201.55,267.14,200,262,197,257s-6.12-9.93-8.79-15.09c-3.24-6.26-4.4-12.92-2-19.81a15.1,15.1,0,0,1,5.05-7.29c4.36-3.36,3.67-8.09-1.58-10.19a39.58,39.58,0,0,1-8.11-3.83c-6.41-4.43-9.53-13.34-4.71-18.68,13.81-15.31,14.22-34.1,16-52.83a154.19,154.19,0,0,1,17.32-57.48c8.67-16.53,21.92-28.32,38.14-37a163.56,163.56,0,0,1,25.51-11.38c2-.66,3.82-1.4,3.78-3.93-.1-5.46,3.55-6.11,7.73-6s8.65.27,13,.34c3.07.05,6.4.67,7.16-3.88.23-1.34,1.86-1.78,3.29-1.79,10.32-.12,20.64-.26,31-.34,2.28,0,4.4.39,4.7,3.29.25,2.39,2,2.25,3.7,2.23,6.5-.1,13,0,19.49-.32,4.93-.22,8.24,1,7.94,6.75-.09,1.91.77,2.85,2.7,3.53C402,31.7,419.46,47.9,433,68.6c13.9,21.23,20.69,44.87,22.73,70,.66,8.13,1,16.29,2.95,24.26,1.52,6.38,3.84,12.4,7.9,17.64,8.15,10.52,5.92,20.28-6.07,26.45-.59.31-1.2.59-1.8.88-2.16,1.36-4.79-.38-7,1-.24,1.21.34,1.57,1.46,2,8.18,3.42,11.17,9.71,9,18.36a38.11,38.11,0,0,1-5.86,12c-5.91,8.59-7.73,17.73-5,27.91,2,7.59,2.57,15.17-3.64,21.47-2.78,2.95-6.59,1.1-9.77,2.08a8.57,8.57,0,0,1-3.39-.55c-.21-.08-1-.68-.79.25.06.33.88.25,1.39.3,6-.16,12-.92,17.53,2.21,4.44,3.38,6.57,8.21,8.28,14,5.91-11.1,14.69-14.76,26.18-12.3,9.38,2,14.68,8,16.57,17.19,1.54,7.52.52,14.91-1.28,22.24-.79,3.23-1.79,6.42-1.83,9.79-.07,6,3.6,9.71,9.58,9.58,8-.18,7.94-.18,8.43-8.32.65-10.72,2.69-21.16,7.47-30.86,5.88-11.92,14.48-20.61,28.75-20.62,15.7,0,29.17,4.93,37.48,19.45.81,1.42,1.54,2.88,2.7,5.07,4.46-12.07,13.08-18.78,24.39-22.17,17.86-5.36,36.26,5.64,38.62,22.9,1.18,8.57-2.24,15.89-9.91,20.07-2.84,1.55-2.89,2.48-.58,4.48a65.08,65.08,0,0,1,11,11.6c10.9,15.47,5,35.61-12.52,42.65-19.58,7.86-43.49.44-51.52-20.07a8.63,8.63,0,0,0-1.11-1.64c-16.06,26.81-49.93,26.81-63.15,6.49-7,12.17-10.28,13.8-24.22,10.95-6.08-1.25-11.92-.43-17.84.54-2,.33-3.94.69-5.92.93-12.86,1.59-16.36-.23-22.49-11.94-1.49,2.2-2.86,4.21-4.22,6.23-4.8,7.15-11.31,9.92-19.83,8.07-8.79-1.9-17.53-1.05-26.67.71,2.28,2.88,5.23,3.27,8.14,3.61,5.44.65,6.56,2.87,3.72,7.62-4.81,8-12.23,12.21-21.21,13.41-11.59,1.54-22.65-.25-32.21-7.55-2.18-1.66-3.8-1.59-6.26-.64-24.8,9.59-49.42,9.5-73.61-2.08-2.7-1.28-4.49,0-6.52.88-10.86,4.86-21.87,8.06-33.87,4.47a28.84,28.84,0,0,1-13.81-8.56c-4.28-4.83-3.71-6.84,2.4-9,.84-.3,2.07-.15,2.52-2.13-14-.3-18.77-11.66-25.18-21.76-2,11.55-4.69,22.07-18.79,22.7-9.37.43-15.92-3.91-19.86-13-3.8,7.08-9,11.75-16.66,13.37-9.12,1.93-18.18-1.6-22.71-9.74-1.88-3.38-3.84-3.71-7.16-3.15-4.54.77-8.29,2.08-11.61,5.81-9.57,10.75-25.74,12.14-34.07-7.17a17.67,17.67,0,0,0-2,1.4c-25.46,23.91-63.89,9.68-71-24.23-5.2-24.88,3.33-46.09,23-62.2,9.87-8.07,21.63-11,34.31-8.12,20.58,4.74,29.43,30.51,16,45.84-3.93,4.46-8.54,6.77-14.55,6a46.1,46.1,0,0,0-6-.6c-2.61,0-5.66-.37-6.24,3.34-.51,3.28,2.66,7.13,6,7.37a10.62,10.62,0,0,0,3.47-.26c7.55-2,13.12.86,16.94,7.25,1.84,3.09,3.11,2.51,5,.25,5.08-5.95,10.41-11.69,15.4-17.71A43.54,43.54,0,0,0,113,317.88c.07-3.66,0-7.33.08-11,.3-9.33,6.1-14.83,15.36-14.67a24.6,24.6,0,0,1,23.73,19.19c1.58,6.51,1.58,13.21,2.52,19.8a40.67,40.67,0,0,0,5,15.07c5.13,8.72,12,16.42,15.32,26.72,5.65-11.55,7.66-22.69,4.22-34.57a94.72,94.72,0,0,1-2.75-14.2c-2.29-17.75,7.22-26.49,25.22-23.35,1.55,1.07,3.56-.27,5.07,1h0C209.72,302.47,212.67,302.79,215.6,301.68Z"/><path class="ac32d2b7-6f40-44ac-b3d2-26f6c591606d" d="M525,349.77c.22-12.82,2.24-22.69,7.51-31.67,11.93-20.29,36.37-21,49.47-1.47,12,17.83,10.65,47.74-2.82,64.44-10.39,12.9-27.55,14.2-39.52,2.68A47.34,47.34,0,0,1,525,349.77Z"/><path class="a2b093dd-0320-475f-9567-b8af19bc06c0" d="M364.66,506.83c.28,22.51-21.21,31.35-38.42,28.36-13.19-2.3-22.53-10.08-29.86-20.81-1-1.47-1.49-3.37-3.28-4.27-1,3.38-1.69,6.82-3,10-3.23,7.91-9.12,12.69-17.77,13.26s-15.15-2.42-19.23-10.55c-2.93-5.83-7.68-7.22-13.82-4.38-3.6,1.67-6.88,4-10.26,6.14-10.49,6.52-21.72,2.34-25.11-9.62-2.91-10.27-.47-19.57,6.76-27.29,4.66-5,9.87-9.43,15-13.93,8.68-7.63,13.94-16.86,14-28.67,0-.49.06-1,.09-1.49.72-10.67,3.37-14.68,10.76-16.26,9.7-2.08,18.9,1.79,23.14,9.72,3.26,6.11,3.93,12.78,3.24,19.44-1.49,14.5,4.38,27,9.93,39.67a14.84,14.84,0,0,0,1.58,2.53,15.48,15.48,0,0,0,1.9,1.6,117.36,117.36,0,0,1,.41-21.25c1.95-14.92,7.63-27.85,19.63-37.48,9-7.25,19.38-10.06,30.85-8.84,7.56.81,12.93,5,16.68,11.38,2.35,4,4.27,8.21,6.55,12.64,2.47-3.52,4.66-7,7.23-10.23,12.9-16,29.33-19.36,45.94-9.44,9.77,5.84,16.41,14.47,21.21,24.61,1.83,3.86,3.36,7.86,5.38,12.6C449.8,461,460,463,471.38,466.08c-3.54-4.59-7.48-5.39-11.31-6.24s-7.57-1.21-11.28-2.14c-10.38-2.61-16.27-11.65-14.7-22.26,3-20.09,25.84-33.9,45-27.08,8.82,3.14,14.62,9.24,16.3,18.58,1.39,7.7-2.29,13.46-8.6,18,4.75,2.11,9.12,3.71,13.16,5.91,19.2,10.4,21.24,32.14,4.43,46.08-15.45,12.83-36.87,12.45-52.09-1.05-2.07-1.84-3.61-4.26-6.06-7.21-3.11,9.95-6.33,18.13-11.63,25.31-6.9,9.37-15.5,16-27.56,17a33.9,33.9,0,0,1-23.45-6.75,58.87,58.87,0,0,1-17.77-20.6c-1.73-1.35-1.84-3.52-2.73-5.3a22.56,22.56,0,0,1-2.65-12.47,42.13,42.13,0,0,0-1-9.92c-4.29,6.73-11.2,6.13-17.56,7.05-2.35.33-5.62-.26-5.26,3.54.31,3.32,2.78,4.69,6,4.53a19.94,19.94,0,0,0,3.42-.61c9.06-1.95,13.34.24,17.35,8.87C364.81,501.66,363.93,504.38,364.66,506.83Z"/><path class="a2b093dd-0320-475f-9567-b8af19bc06c0" d="M234,442.48c0,7.58-2.64,14-8.54,18.9-6.22,5.15-13.72,6.08-20.38,1.86-3.58-2.28-4.36-.87-5.42,2.17-2.38,6.85-2.52,14.06-3.66,21.1a40.47,40.47,0,0,1-3.05,11,22,22,0,0,1-28.39,10.58c-8.22-3.61-12.41-12.41-10.23-21.54,1.09-4.6,3.34-8.67,5.71-12.69,3.21-5.45,6.61-10.81,9.48-16.43,2.77-5.4,1-9.39-4.5-11.58-12.07-4.8-14.57-12.21-7.94-23.57a35.24,35.24,0,0,1,8.88-10c5.92-4.62,12.35-5.55,19.2-2.38a86.3,86.3,0,0,1,8.81,4.68,51.69,51.69,0,0,0,18.43,7.33,38.87,38.87,0,0,1,11.33,3.77C230.85,429.33,234,434.49,234,442.48Z"/><path class="ebbf5b5a-6e8c-4d51-b5e5-25ab335ec018" d="M603.77,289.32a17.85,17.85,0,0,1-5.29,13.53c-3.1,3-5.33,2.85-7.64-.81a29.06,29.06,0,0,1-2.39-5.44c-1.29-3.45-2.83-5.83-7.34-6-6.2-.26-10.41-7.31-9.28-14.14,1.09-6.52,8.06-11.22,15-10.09C596.24,267.91,603.79,278.11,603.77,289.32Z"/><path class="fed6e67a-1d71-4c60-b69c-c9f115d45f08" d="M436.75,291.77c3.72.36,7.43.65,10.95-1.07-.12.87-.82,1.94.9,2.09s3.22.53,4.07,2.2c-6.22-2-12.56-1.91-18.94-1.12C433.39,291.23,436.14,293,436.75,291.77Z"/><path class="b5bc57d1-ed7b-4ed2-8672-cc2438c3aa61" d="M363.75,498.69a10.32,10.32,0,0,1,2.06,4.94c-1.27.75-.8,2.12-1.15,3.2-.58-2.41-1.15-4.82-1.73-7.23A1.29,1.29,0,0,1,363.75,498.69Z"/><path class="bdf105fd-0285-49c5-8cfd-1514a699c901" d="M215.6,301.68c-2.92,1.58-5.87,1.33-8.84.17Z"/><path class="b2a213a2-42fd-4f51-9af6-ae0f24baaedf" d="M451.78,208.89c2.05-2.14,4.66-.52,7-1C456.67,209.88,454.11,208.63,451.78,208.89Z"/><path class="bdf105fd-0285-49c5-8cfd-1514a699c901" d="M209.81,299.78h5C213.13,301.34,211.47,301.31,209.81,299.78Z"/><path class="bdf105fd-0285-49c5-8cfd-1514a699c901" d="M206.78,301.85c-1.8.24-3.57.36-5.07-1C203.48,300.8,205.34,300.21,206.78,301.85Z"/><path class="a33a921d-ab71-4291-a9e3-77d3c0355832" d="M423.7,136.14c3.47,2.83,6.47,6.22,10.41,8.48,3.13,1.8,6.49,3.18,10,2.15s3.68.58,3.95,3.3c.8,8,1.77,15.88,4.64,23.43a40.14,40.14,0,0,0,9.15,14.73c1.95,1.92,2.88,4.08,2.09,6.74-.91,3.06-4.3,4.17-6.08,1.79C447,182.31,432.6,181,416.62,185.18a58.28,58.28,0,0,1-14.83,1.6q-80.21-.09-160.42-.1a23.14,23.14,0,0,1-11.85-3.3c-13.43-7.76-34.23-2.48-42.22,10.73-1,1.62-1.57,1.76-2.94.61-2.85-2.39-3.71-6.95-.9-9.21,12.83-10.31,15.15-24.81,16.53-39.78.13-1.48.08-3,1.12-4.42,4.19,2,5.48,5.23,4.65,9.72a43.06,43.06,0,0,1-4.51,13.13c-3.43,6.25-2.26,8,4.66,7.85,5-.11,10-.3,15,.49a15.25,15.25,0,0,0,4.94-.25c1.52-.27,2.95-1.06,2.87-2.91-.08-1.55-1.38-2.14-2.69-2.6-4.62-1.61-9.26-.51-13.85,0-3.54.44-4.38-.4-3.26-3.91a39.13,39.13,0,0,0,1.67-12.8c0-1.36-.54-2.8,1.74-2.55,8,.89,14.08-3.16,19.83-7.88,18.37-15.07,27.17-44.43,19.68-65.56-1.82-5.11-4.32-9.83-9.17-12.7-3.78-2.24-7.63-2.62-12.33,1.22,12.7.66,15.85,9.1,16.93,18.35,2.53,21.62-4,40.06-21,54.26a28.55,28.55,0,0,1-3.73,2.5c-8.13,4.78-14.41,2.34-16.65-6.72a47.11,47.11,0,0,1-.51-22.24c7.78-33.52,25.61-59.19,57.53-74.08,7.05-3.29,14.39-6.13,20.76-10.78a78.37,78.37,0,0,0,11.36.77A12.6,12.6,0,0,0,303.75,22c3.36-.54,5.61-2.13,5.79-5.86.08-1.85,1.16-2.56,3-2,2.09,3.27,5.48,3.33,8.8,3.55,6.17.42,12.1-1.89,18.26-1.69.73,3.38,3.17,4.19,6.2,4.12,1,1.31,2.19,2.58.7,4.3-5.47.21-10.79-1.46-16.31-1.06C309.9,24.76,293.25,33,283.39,51s-8.55,36.38,2.37,53.57c4.23,6.67,3.12,13.78,4.16,20.69.76,5.06,1.26,10.22,1.87,15.89,2.3-6.77,1.33-13.29,1.73-19.68.09-1.47.14-3.22,1.82-3.81,1.85-.65,3.19.27,3.92,2.07,1.24,8.41.73,16.9,1,25.35.12,4.08.9,4.32,4.8,2,2.19-5.66,2.36-11.56,2.08-17.48-.26-5.68.58-6.57,6.1-5.55,10.54,2,21.06,2.51,31.57-.31a43.81,43.81,0,0,0,11.87-5c1.63-1,3.16-2.57,5.42-1.73,2.17,2.46,1.94,5.52,2.15,8.49.51,7.28.94,14.56,1.58,21.83a6.76,6.76,0,0,0,3.52,5.56c.31.59,0-.19.29.41,3.4,7.38,2.08,9.71-5.81,9.06-33-2.71-65.49,1-97.95,6.14-2.46.38-4.81,1.34-7.22,1.73-.58-.19.22,0-.42.11s-.56.32.05.14c4.56-1.38,9.44-.18,14-1.77,11.7-1.46,23.42-2.13,35.21-2.47,10.26-.29,20.52-1.06,30.8-.8,2.38.06,5.09-.56,6.7,2.1-1.42,2.26-3.77,1.88-5.84,1.86-20.66-.15-41.15,2.1-61.66,4.16-1.54.15-3.36-.05-4.71,2.89,42.53-2.49,84.45-.42,127.09,2.35-2.36-4.87-7.39-3.86-9.27-7.25,1.38-2.56,3.67-1.63,5.7-1.39,4.78.55,9.54,1.38,14.35,1.76,1,.08,2.15.34,2.59-.85.51-1.38-.56-2.21-1.56-2.76a17.89,17.89,0,0,0-8.18-1.92,98.05,98.05,0,0,1-13.37-1.52c-8.68-1.44-12.56-5.22-14.14-13.79a86.13,86.13,0,0,1-1.61-14.35c-.14-9.46.45-18.93-.87-28.37-.65-4.65.41-9.14,1.94-13.66,5.18-15.26,6.6-30.46-1.54-45.37a51.78,51.78,0,0,0-22.13-21.58c-1.68-.87-4-1.13-4.16-3.71,1.72-1.62,3.71-.83,5.64-.65,5.84.54,11.56.37,16.66-3.08C375.22,27.63,384,30.31,391,35.42c9.66,7,18.79,14.61,25.89,24.34.37.92-.16,1.46-.81,2A18.17,18.17,0,0,0,405.75,72c-7.75,19.1-6.78,37.49,4.87,54.87A22.06,22.06,0,0,0,423.7,136.14Z"/><path class="a71a45f4-800e-459f-9649-2987a57d892f" d="M303.86,287.8a9.07,9.07,0,0,1,1.49-7.11c.49-.68,1-1.45.25-2.21s-1.56-.19-2.26.14a14.68,14.68,0,0,0-6.75,5.71A50.86,50.86,0,0,1,288,294.6c-6.37,6.2-13.7,9.74-22.88,9-4.65-.38-5.58.93-3.72,5,1.47,3.22-1,5.75-.83,8.68.15,2.22-1.13,5.65,1.24,6.27,3,.77,3.08-3,3.43-4.92,1.52-8.34,7.69-9.77,15.1-10.28-16.66,18.08-19,41.16-23.11,64.2-1.9-1.43-2.46-3.29-3.34-4.91-3-6.64-6.22-13.23-3-20.75,2.71-6,4.89-12.21,5.39-18.93a29.74,29.74,0,0,0-5.53-20.06c-1-5.63-4.28-9.12-9.49-11.72-6.68-3.34-9.38-9.89-9.67-17-.67-16.17,1.75-32.13,4.35-48a29.35,29.35,0,0,1,5-11.88c1.46-2.13,3.15-3.46,5.81-1.93a7.94,7.94,0,0,0,4.89-.22c11.37-3.48,22.66-1.46,34,.44,4.13,1.43,8.78,1.1,12.24,4.78,7.75,8.25,10.16,18,8.92,28.88-.4,3.46-.71,6.93-.95,10.4-.17,2.43.46,4.8,3.16,5.58,3.06.89,4.13-1.51,4.94-3.7a50.07,50.07,0,0,0,3.57-18.43c.38-6.34-1.37-12.17-4.34-17.7-3.16-5.85-7.25-11.17-9.82-17.36-.76-1.83-2.56-2.53-4.2-3.35-3.26-1.68-6.8-1.35-10.28-1.54-1.45-.08-3.55,0-3.73-1.71-.19-1.94,1.9-2.47,3.48-2.81a140.25,140.25,0,0,1,20.75-2.93,210.15,210.15,0,0,1,30.42.2c9.44.77,18.94.69,28.4,1.42,2.15.17,4.34,0,6.43.63,1.24.4,2.85.71,3,2.23.19,1.69-1.69,1.73-2.64,2.51-5.85,2.1-12,2.45-18.11,2.45-1.64,0-3.32-.4-4.91.32a3.86,3.86,0,0,0-2.42,2.95c-.28,1.72,1,2.31,2.23,2.87a17.37,17.37,0,0,0,7.13,2.05c8.28,0,16.57.63,24.85-.51a45.44,45.44,0,0,1,20.62,2.06c1.84.61,3.82,2,5.51.12s-.21-3.68-.95-5.43c-.36-1.64-2.33-3.31-.62-4.91,1.47-1.38,3.44-.35,5.16.06a5.68,5.68,0,0,1,4.16,3.14c10.85,26.07,14.82,53,10.46,81.07-.48,3.08-1.28,4.68-4.58,5.21-5.09.81-10.13,1.79-15.34,1.77a35.62,35.62,0,0,0-17.28,4c-8.35,4.42-22,.68-26.4-8.87C359,281.3,351.2,270.76,347,258.44c-3.38-9.82-4.91-19.61-1.46-29.79.9-2.67,1.72-5.65.59-9.52-8.52,8-11.43,17.36-9.84,27.8,1.72,11.2,4.7,22.15,12.34,31.14a22.19,22.19,0,0,1,2.14,3.82c1.32,5.36-.43,8.39-5.72,9.07a14.42,14.42,0,0,0-7.53,3.31c-5.29,4.26-12,3.89-17.2-.66-1.37-1.21-2.61-2.55-4-3.77-2.38-2.15-5-3-8.23-2.08C306.71,288.18,305.27,289,303.86,287.8Z"/><path class="a9d83e18-4b65-48ba-ba1f-38d12cc79f3f" d="M373.83,204c.45-1.41,2-.8,3.88-2.56-31.29-1.18-61.55-5.84-91.78,2.39,2.46,0,4.93-.13,7.38,0s5.26.26,7.39,2.13c-6.18,1.84-12.35,0-18.51-.19-5.1-.16-10.16-1.38-15.28-1.46-7-.12-12.88,2.2-16.91,8.43-1.33,2.05-2.46,4.3-4.22,6.08-1.16-1.11-1.86-1.69-3.21.24a36.73,36.73,0,0,0-6.49,18c-1.16,13.65-3.94,27.19-3.28,41,.39,8.16,3.37,15.06,11.35,18.26,5.65,2.27,7.59,5.88,6.56,11.56-6.72-5.69-14.57-7.8-23.21-7-3,.28-4-.81-4.58-3.66-3.57-18.3-3.18-36.73-1.84-55.16.53-7.35,3.27-14.22,6.65-20.79,4.42-8.59,8.71-17.25,10-27,.25-2,1.11-2.36,3-2.3,56.23,2,112.49,1.92,168.74,1.62,3.19,0,4.57,1.48,5.25,4.15,1,4,1.95,8.05,2.92,12.08-2.55-1.86-5.65-2.07-9.14-3.22.56,1.67,1,2.88,1.36,4.09a2,2,0,0,1-2.29-.32c-7.92-7.15-17.46-6.61-27.07-5.74C378.16,204.88,375.86,205.72,373.83,204Z"/><path class="a33a921d-ab71-4291-a9e3-77d3c0355832" d="M416.64,91.67a45.18,45.18,0,0,1,2.48-15.54c.81-2.42,2.25-4.81,5-5,2.41-.19,2.82,2.5,3.79,4.12C438.5,93,444,112.36,446.44,132.73c.5,4.17-2.21,6.11-6.31,4.34-5.7-2.48-9.5-7.25-13.11-12C420.18,116,416.63,104.34,416.64,91.67Z"/><path class="a71a45f4-800e-459f-9649-2987a57d892f" d="M305.79,397.8a87.57,87.57,0,0,0,11.78-18.92c1-2.25,1.75-3,4.31-1.74a19.78,19.78,0,0,0,18.21-.26c2.5-1.26,3.64-1.2,4.38,1.76,1.72,6.92,4.54,13.46,7.4,20,.75,4.1-2.77,4.05-5,4.68-9.08,2.59-18.4,2.34-27.68,1.49-3.44-.32-7-.4-10.3-1.61C306.43,402.29,304.14,401.14,305.79,397.8Z"/><path class="a9d83e18-4b65-48ba-ba1f-38d12cc79f3f" d="M305.79,397.8c-.11,2,.43,3.52,2.76,3.93,13.09,2.33,26.17,3.44,39.21-.17,1.6-.45,3.8-.5,4.11-2.94,1,1.67,2.08,3.36,3.14,5,3.73,5.81,3.81,6.07-2.65,8a88.62,88.62,0,0,1-54.89-.89c-3.31-1.1-4.1-2.13-.8-4.61S302.77,400.61,305.79,397.8Z"/><path class="fee9c5b0-eb44-4ed7-b906-adbe30c1deb5" d="M423.7,136.14c-2.25,1.89-4.1.29-5.86-.82-7.2-4.55-11.79-11.18-14.47-19.11-5.42-16.06-5.8-32,2.5-47.28,2.12-3.9,4.62-7.79,9.9-8,2.84,1.76,1.27,3.73.05,5.38-4.5,6.16-6.28,13.18-6.9,20.62C407.26,105.32,411.71,121.86,423.7,136.14Z"/><path class="f5066485-ba7b-4e25-978c-7aae5d08453c" d="M456.69,327.64c.75-.79,1.5-1.59,2.39-2.55,3.68,14.47,4,33.55.57,46.63-4.7-5.47-8.22-12.15-17.67-11,3.54-4.22,6.61-7,8.17-10.85,3.11-7.74,1.23-14-5.39-17.3-1.08-3.12,1.38-2.32,2.74-2.28C450.9,330.45,454.11,330.18,456.69,327.64Z"/><path class="f5066485-ba7b-4e25-978c-7aae5d08453c" d="M197.77,231c8.73,7.56,15.74,16.15,16.09,28.39.24,8.16.74,16.29,1.59,24.4.28,2.63.91,5.82-2.6,6.64-3.7.85-5.14-2.32-5.57-5-.94-5.9-2.88-11.8.66-17.8,2-3.38-.09-7.14-1.44-10.51-2.37-5.93-6.78-10.63-9.94-16.09C198,237.78,195.08,234.05,197.77,231Z"/><path class="f5066485-ba7b-4e25-978c-7aae5d08453c" d="M451.62,232.81c-1.65,2.86-3.27,5.74-5,8.58-4.94,8.32-5.87,17.14-3.39,26.41,1.08,4,2.21,8,1.56,12.26s-3.29,6.05-7.38,5.14c-2.26-.51-3.06-1.61-2.57-3.87a143.25,143.25,0,0,0,2.78-32.68c-.1-6.3,3.29-11.31,7.39-15.88,2.05-2.28,4.9-4.19,4.61-7.87C454,226.63,451.06,230.15,451.62,232.81Z"/><path class="e4f85ce5-9826-4b08-bcc1-cb1faf2c4791" d="M303.86,287.8c6.93-3.87,11.94-1.34,16.76,4.23s11.67,5.43,17,.39c1.61-1.52,3.11-2.65,5.55-2.69,5.86-.11,7.1-1.56,7.52-7.84,3.47,3.48,2.7,7.53,1.07,11.35-.94,2.23-2.91,3.48-5.72,2.21-3.63-1.63-6.22-.05-8.57,2.88-6.42,8-13.26,7.9-19.66-.26-2.5-3.2-4.49-6.64-8.83-2.14-1.28,1.33-2.47-.17-3.23-1.17A8.64,8.64,0,0,1,303.86,287.8Z"/><path class="a5fb091b-ada4-4c87-81bc-6a7b0b0d3fa3" d="M388.9,353.65c-2.09-10.41-3.48-21-7.85-30.82a70.73,70.73,0,0,0-8.77-14.7c4.2.24,7.55.48,10.91.59,1.5,0,2.27.53,1.72,2.07-2.9,8.14.5,15.3,3.4,22.57a49.63,49.63,0,0,1,1.61,6.24c.67,4.17.18,8.37.29,12.56C390.23,353,390,353.77,388.9,353.65Z"/><path class="f50d343b-fb95-42cf-9643-3aaaa3f80786" d="M207.8,195.34a3.5,3.5,0,0,1,2.72,2.77q4.14,13.26,8.12,26.57c.32,1.07.7,2.44-.64,3.08s-2.09-.57-2.68-1.54c-5-8.34-7.86-17.47-9.87-26.89C205,197.44,205.44,195.64,207.8,195.34Z"/><path class="f9770f62-24d5-47d6-9a34-3e8a89aa4e66" d="M197.77,231c.22,2.89-.23,5.79.78,8.65.73,2.08-1,1.36-2,1.34a39.33,39.33,0,0,1-4.62-9.18,3.74,3.74,0,0,1-.12-.48c-1.29-5.06,1.66-14.39,4.72-13.85,4.37.78,4.36,6.1,6.49,9.16C201.32,228.59,195.13,224.37,197.77,231Z"/><path class="a5fb091b-ada4-4c87-81bc-6a7b0b0d3fa3" d="M440,197c1.52-.44,3-1.86,4.63-.55s1,3.32.52,5A84.22,84.22,0,0,1,437,220.55c-.61,1.08-1.19,2.9-2.79,2-1.4-.77-.51-2.38-.07-3.58,1.19-3.25,2.61-6.43,2.7-10,1.11-1.7-.66-3.47.11-5.18C437.79,201.5,437.5,198.63,440,197Z"/><path class="e53a2fb9-d13c-4168-b8c4-0ce150e84a50" d="M223.14,212.3c.17,1.91,0,3.06-1.4,3.44-1.19.32-1.87-.5-2.33-1.42a50.82,50.82,0,0,1-5.61-21.53c0-1.22.37-2.39,1.79-2.6s2.17.85,2.45,2C219.72,199.13,220.71,206.23,223.14,212.3Z"/><path class="ad998d88-8ef1-4838-bfaf-d3a47d0003be" d="M609.57,351.83c-4.17-.42-7.76,1.22-11.66,3.7v-17a114,114,0,0,0,13.79,11.39c.75.37,1.46,1,.84,1.76C611.75,352.64,610.59,352.35,609.57,351.83Z"/><path class="b82b9062-523a-4cba-b01d-a0e535669f5c" d="M339.57,16a46.55,46.55,0,0,1-24.77,2.16c-2.58-.46-3.53-1.54-2.29-4q12.62.3,25.23.62C338.58,14.73,339.38,14.91,339.57,16Z"/><path class="aa0c2e7d-cecd-43b7-9e5d-60cd1406366e" d="M435.76,206.87c-.82,2.16-1.61,4.33-2.47,6.47-.41,1-.56,2.61-2.15,2.14-1.39-.4-1.12-1.78-1-3q.92-8.64,1.77-17.29c.61-2,1.85-3.12,4-2.73,2.39.43,2,2.51,2.51,4.21.55,2.1-.81,3.81-.79,5.76C437,203.9,436.9,205.62,435.76,206.87Z"/><path class="f9d58861-2705-44c3-82ed-6ef8cb915f96" d="M346.65,23.77a4.31,4.31,0,0,1-.88-3.7c8-.63,16.08,0,24.12.17.1,3-2.27,3.15-4.34,3.72-5.92,1.62-11.84.66-17.76.13A.82.82,0,0,1,346.65,23.77Z"/><path class="f6cef45a-6b88-48f9-8145-9b25c48fedd0" d="M228.78,201.86c0,1.16,0,2.33,0,3.49,0,.9-.4,1.75-1.29,1.89s-1.46-.61-1.8-1.43c-2.23-5.3-2.88-10.9-3-16.57a2.33,2.33,0,0,1,2.5-2.52,2.51,2.51,0,0,1,2.87,2.7c.22,4.15.4,8.3.59,12.44Z"/><path class="f806f1a9-17f9-4994-9d1f-1c6e44ba8c35" d="M451.62,232.81c-2.25-2.24.64-5.76-2-7.92-1.39-1.37-3.13.25-4.91-.56.71-1.75,1.31-3.45,2.1-5.06.64-1.29.83-3.4,2.45-3.46,2-.08,3.13,1.78,3.95,3.42C455.69,224.08,454.58,228.57,451.62,232.81Z"/><path class="e06b6c3d-e234-4844-947d-dfec340b6f10" d="M250.85,346.9c-1.22,7.23,2,13.83,3,20.75-2.83-2.95-5.61-6-8.54-8.81-1.24-1.2-1.83-2-.51-3.64C247,352.54,248.84,349.68,250.85,346.9Z"/><path class="a0d0a670-e520-47d9-89cb-b804fa994cfc" d="M303.75,22c-.34.91-.44,2.06-1.07,2.68-2.48,2.44-16.45,1.78-19.05-.77a2.72,2.72,0,0,1,.11-.85,2.62,2.62,0,0,1,2.37-1.51c5.9.22,11.83-.63,17.71.47Z"/><path class="e12b06fe-20b8-4fa8-8a77-e3120c8b3ad9" d="M408.92,86.94c-.45-8.14,1.16-15.7,6.52-22.08,1.19-1.42,1.26-2.52.33-3.92l1.08-1.18c1.17,1.36,2.39,2.68,3.5,4.08.6.75,1.32,1.69-.08,2.38-8.14,4-9,11.94-10.7,19.42A6.32,6.32,0,0,1,408.92,86.94Z"/><path class="a259bdad-aee8-46ee-b843-89538e4ce602" d="M426.6,211c-2.44-6.74-.94-12.17-1-17.54a2,2,0,0,1,2.12-2.26c1.43,0,2.07,1,2.07,2.26C429.85,199,429.81,204.53,426.6,211Z"/><path class="ba9fab6a-86e4-490c-b5f6-22d72947995b" d="M456.69,327.64c-1.48,3-4.26,3-7.07,3.21-1.72.13-4.11-1.16-4.86,1.77a12,12,0,0,0-5-1.87,41.56,41.56,0,0,0-4.24,0c-3.49,0-3.45,0-4.39.06-1.67.15-2.12.36-3.93.42a4.86,4.86,0,0,1-3.27-.73,3.86,3.86,0,0,1-.61-.6,2.08,2.08,0,0,1,0-.85c.23-1.25,1.73-1.9,2.53-2.25,2.8-1.21,6.05-.46,7.39-.08l2.11.64c2.19.67,2.81.86,3.74,1.06.78.17,1.42.27,1.84.32l3.68.7,1.29.23A19.47,19.47,0,0,0,456.69,327.64Z"/><path class="bfb37ef9-4026-4c97-a9fe-1de26a393807" d="M609.57,351.83c.89-.44,3.3.8,2.13-1.92,4.15,1.81,8.82,3,10.43,9.58Z"/><path class="be8be75b-f6a6-47ed-b0a7-1a5865c50935" d="M436.74,202.86c.29-1.61.66-3.2.87-4.82s.91-3.75-1.24-4.8-3.31.56-4.46,2c-.23-2.37,1-3.31,3.22-3.36,1.87,0,3.26.6,3.57,2.63.16,1,.29,2,1.28,2.53q-1,3.55-2.06,7.11C437.22,204,437.1,203.31,436.74,202.86Z"/><path class="a33a921d-ab71-4291-a9e3-77d3c0355832" d="M303.82,22c-6.71.1-13.5-1.45-20.08,1-.08-.69.07-1.51.77-1.54C291,21.25,297.43,20.17,303.82,22Z"/><path class="f9f2ef81-f9ec-49d6-8074-9f076f9d001a" d="M388.9,353.65c2-4.56.25-9.4,1-14,1.78,5,.74,10.1.53,15.17,0,.54-.27,1.52-1.1,1.11S388.8,354.46,388.9,353.65Z"/><path class="bcdd07f2-6bb5-4b56-a7a1-09cdbacf4fcb" d="M436.75,291.77l-3,2.1c-2.62,1.11-2.32-.61-2.05-2.17.21-1.22.67-2.41,2.23-1.61C434.88,290.59,435.46,291.78,436.75,291.77Z"/><path class="a0bc17b8-220f-466a-a65a-2392791f62cd" d="M436.74,202.86c.39.43.78.85,1.18,1.27-.09,1.69,0,3.42-1.12,4.88-.1-.84-.18-1.68-1-2.14A7.06,7.06,0,0,1,436.74,202.86Z"/><path class="b8309f15-8023-46b1-9d5e-ee882108d646" d="M423.31,329.91l8.6,0a.54.54,0,0,1-.17.91C428.89,330.93,426,331.88,423.31,329.91Z"/><path class="b0eb1cc9-e408-40e7-b15f-7c703d8f0a1b" d="M540.61,309.44a6.61,6.61,0,0,1-4.1,4.26A7.1,7.1,0,0,1,540.61,309.44Z"/><path class="b8309f15-8023-46b1-9d5e-ee882108d646" d="M435.49,327.78c-1.94-.32-4.17.85-5.79-1.13C431.72,326.57,433.77,326.36,435.49,327.78Z"/><path class="a89ac453-0176-4c03-a074-7e65850a82c3" d="M371.82,491.66c-3.82-13.51-3.56-26.72,4-39,10.13-16.51,29.64-18.8,44-5.57,10.4,9.61,14.48,22,16,35.57a92.24,92.24,0,0,1,0,10,36.07,36.07,0,0,1-20.48,20.49c-7.13,3-14,1.66-20.77-1.3C384.77,507.6,377.49,500.52,371.82,491.66Z"/><path class="a89ac453-0176-4c03-a074-7e65850a82c3" d="M296.88,492.67c-.92-16.81,4-31.57,16.1-43.46a32,32,0,0,1,23.85-9.63,21.35,21.35,0,0,1,21,23.42c-.75,7.76-5.58,12-13.25,11.84a28.26,28.26,0,0,0-6.4.75c-7,1.53-9.17,4.57-8.42,11.69.67,6.37,4,9.33,10.57,9.4,1.66,0,3.33,0,5,0,9.63,0,12.94,3.44,12.41,13-4.59,6.6-12.09,7.82-19,9.93-7.21,2.21-14.29.85-20.67-2.93C308.51,511,300.22,504,296.88,492.67Z"/><path class="a89ac453-0176-4c03-a074-7e65850a82c3" d="M249.78,508.7c-4.38-.56-8.64.49-12.94,1-4.28,1.21-8.32,3.23-12.91,3.38-9.89.32-14.41-5.84-11-15.14a10.6,10.6,0,0,1,.8-2.34c2.67-5.28,6.86-9.25,11.25-13.07a78,78,0,0,0,17.48-20.89c2.59-4.66,2.46-9.52,2.39-14.5-.1-7.25,2.87-12.05,8.06-13.27,5.5-1.29,12.45,2.22,15.45,7.75,2.46,4.53,3,9.66,3.05,14.49.12,15.94,4.45,30.73,10.77,45.13a17.45,17.45,0,0,1,.66,2.38c-2.39,11.21-14.62,16.89-22.13,10.28A20.17,20.17,0,0,0,249.78,508.7Z"/><path class="a89ac453-0176-4c03-a074-7e65850a82c3" d="M450.75,473.72c3-3.58,6.71-4.61,11.13-3.17,2.84.93,5.64,2,8.54,2.77,4.08,1.05,7.93.3,9.78-3.79,1.94-4.31-.81-7.37-4.17-9.58-4.53-3-10-3.57-15-5.18-3-1-6.08-1.7-9-2.84-12-4.7-15.42-17.79-7.25-27.7,7.57-9.17,23.78-13,34.65-8.08a15.33,15.33,0,0,1,9.12,11.73c.89,4.82-2.09,8.16-7,7.74-3.42-.3-7-1-8.28,3.28s1.12,7.32,4.59,9.55c3,1.92,6.46,2.51,9.83,3.42,10,2.68,17.06,8.6,20.13,18.76,1.57,5.77-.42,10.19-4.75,14.12-16.08,14.6-35.24,12.27-48.2-3.19C453,479.35,449.63,477.62,450.75,473.72Z"/><path class="ab75615a-b1ba-456e-bc2a-36d682de3d7a" d="M296.88,492.67c7.6,12.92,16.82,23.78,32.75,26.49,3.6.61,6.94-.32,10.2-1.17a50.79,50.79,0,0,0,17.91-8.35c-.57,9.2-7.95,17.45-16.85,19C315.3,532.91,298.67,514.23,296.88,492.67Z"/><path class="ab75615a-b1ba-456e-bc2a-36d682de3d7a" d="M371.82,491.66c5.29,3.27,7.94,9.12,13,12.83,19,14,34.13,11.83,47.76-7.45,1-1.47,2.14-2.91,3.21-4.36-.25,17.1-15.06,32.51-30.39,30.8-12.89-1.44-22.09-9.07-28.62-20C374.56,499.84,372.51,496,371.82,491.66Z"/><path class="ab75615a-b1ba-456e-bc2a-36d682de3d7a" d="M450.75,473.72c12.88,22.19,37.21,27.39,55.81,5.55,2.23-2.61.71-5.78,1.25-8.64,2.12,4.29.88,8.41-.81,12.4-8,19-33.39,23.84-48.12,9.32-3.69-3.63-7.19-7.38-8.58-12.56C449.74,477.72,449,475.62,450.75,473.72Z"/><path class="f5066485-ba7b-4e25-978c-7aae5d08453c" d="M363.75,498.69l-.82.91c-5.13-8.6-8.4-10-18-7.34-3.52,1-6.53.9-8.86-2.39-1.23-1.73-2-3.53-1.3-5.59.77-2.38,2.92-2.41,4.92-2.58,1.82-.16,3.65-.4,5.47-.42,5.92-.07,11.22-1.41,14.87-8.06C362.63,482.37,360.57,491,363.75,498.69Z"/><path class="ab75615a-b1ba-456e-bc2a-36d682de3d7a" d="M249.78,508.7a13.79,13.79,0,0,1,11,3.49c5.57,4.77,12.49,4.27,17.07-1.31,1.86-2.25,3.32-4.83,5-7.26,1.9,6.33,1.88,12.43-3,17.46-4,4.1-8.9,6-14.76,4.63-3.85-.9-5.86-3.55-6.76-7.1C257.08,513.85,254.67,510.25,249.78,508.7Z"/><path class="ad92a3e5-d0bb-4704-82cc-99f32eee9024" d="M213.74,495.6c.13,2.67-1.28,5.12-.94,7.87.85,6.84,5.89,9.72,14.3,7.9,3.22-.7,6.32-2.11,9.74-1.67-4,1.83-6.16,5.79-9.68,8.23-6.37,4.43-12.51,3-15.74-4.22C208.5,507.23,209.54,501.2,213.74,495.6Z"/><path class="a89ac453-0176-4c03-a074-7e65850a82c3" d="M164.82,479.69c3.53-6,7.36-11.86,10.52-18.05,5.25-10.28,3.13-15.92-7.21-20.78-7.78-3.65-9.09-6.38-5.48-13.94,6.45-13.49,14.08-15.52,24.23-8.13,8.34,6.07,17.73,8.59,27.72,10,7.61,1.09,11.94,6.28,12.28,13.46.39,8-3.58,13.7-10.82,15.82a9.54,9.54,0,0,1-8.51-1.16c-5.91-3.86-9.16-2.63-11.73,4.06-2.7,7-2.83,14.63-4.82,21.81-.44,1.6-.87,3.2-1.31,4.8-5.18,5.34-11.34,7.3-18.5,4.91C165.11,490.47,163,486,164.82,479.69Z"/><path class="ab75615a-b1ba-456e-bc2a-36d682de3d7a" d="M164.82,479.69c-1.92,9.75,8.37,16.2,20.54,10.16,1.46-.72,2.89-1.5,4.33-2.25-1.92,5.28-3.36,10.86-9,13.69-5.08,2.54-15.43.33-18.59-4.31C157.63,490.47,161.69,485.11,164.82,479.69Z"/><path class="bb49d279-5fdc-4449-91be-2ee56efa6d90" d="M595.15,298.28c-1.92-1.54-2-3.69-2.85-5.42-1.51-3-3-5.59-6.75-6.66-4.48-1.26-7-6.53-5.4-9.73s7.16-3.81,11.18-1.55C597.94,278.63,601.55,291.45,595.15,298.28Z"/><path class="a2b093dd-0320-475f-9567-b8af19bc06c0" d="M346.65,23.77l1.14.32C360.18,29.6,369.86,38,376,50.26c7.31,14.59,6.06,29.33,1,44.06a34.81,34.81,0,0,0-2.11,13.11c.6,13.11,1,26.24,1.81,39.33.79,12.12,4.88,16,17.05,17.13,4.63.45,9.27.91,13.88,1.52a19.87,19.87,0,0,1,5.25,1.45c2.16.95,3.61,2.78,2.79,5.19s-3,1.56-4.76,1.36c-6.59-.76-13.17-1.58-19.75-2.37-4.17,2.18-8.43.35-12.59.1-9.2-.55-18.38-1.46-27.61-1.72-2.26-.06-4.69.33-6.45-1.7-9.77-1.3-19.56-.56-29.34-.39-14.83.26-29.6,1.41-44.37,2.58-4.57,1.16-9.4-.37-13.93,1.4-.69.27-2.16.32-2-1.15.08-.86,1.33-.72,1.95-1.21a392,392,0,0,1,38.84-6.26c22.22-2.39,44.47-3.58,66.82-2.08,8.21.54,8.21.46,6-7.5-2.15-2.24-2.15-5.08-2.28-7.93-.41-9.17,1.17-18.24,1.26-27.37-.06-1.73,1.69-3.31.42-5.11-1.92,1.72-3.07,4.43-6.11,4.56-15.52,10.43-32.38,12.23-50.15,7.66-3.1-.8-3.94-.08-3.4,3,1,5.64-.43,11.27-.29,16.92,0,1.45-.28,2.66-2,2.92-2.14-1-2.18-3.11-2.76-5-2.39-7.6-2.27-15.69-4.59-23.3-2.49-2.19-3.58-1.8-3.51,1.69.15,7.32-.16,14.62-2,21.76-.23.85.12,2.06-1.62,2.5-2.33-9.17-2.83-18.54-3.43-27.86a26.19,26.19,0,0,0-4-13c-20.38-32.28-2.16-73.25,36.08-81.64A55.26,55.26,0,0,1,346.65,23.77Z"/><path class="ba2c42a5-1d1f-4823-b02c-7e38f928caef" d="M344.52,167.72c15.59.55,31.18,1,46.64,3.32,2.72,1.17,5.45,2.3,8.13,3.54,1.66.76,3.66,1.61,3,3.92s-2.63,1.85-4.57,1.71c-33.67-2.39-67.37-4.08-101.14-3.29-7.14.17-14.27.62-21.41.86-2.07.07-4.85.7-5-2.47-.14-2.71,2.5-2.85,4.39-3,11.88-1.2,23.76-2.55,35.68-3.32C321.6,168.21,333.07,168.11,344.52,167.72Z"/><path class="affa914a-64b0-42c1-96a1-db8b5bd9a73e" d="M368.92,116.1c-.11,12.33-2,24.65-.41,37-3,.06-3.82-1.64-4-4.38-.8-10.5-1.77-21-2.68-31.47l6.13-6.2C370.46,112.31,369,114.35,368.92,116.1Z"/><path class="a8201ad1-9d49-471b-95bb-58616ea77934" d="M298.62,119.48c3.36,1.23,2.64,4.39,2.93,6.82A140.75,140.75,0,0,0,306,147.75c-1.26,2.19-3.07,3.84-5.64,3-2.74-.93-1.67-3.65-1.73-5.65-.22-7.6.59-15.24-.68-22.81A3,3,0,0,1,298.62,119.48Z"/><path class="adcb199b-70b6-480e-9366-ec485ea04d9d" d="M256.81,169c-.79,1-2.18,2.41.7,1.71,4.41-1.08,8.84-.91,13.3-.76-4.69,1.77-9.76.67-14.53,1.89-.92.24-2.29.12-2.31-1.15C253.93,168.78,255.43,168.81,256.81,169Z"/><path class="a2b093dd-0320-475f-9567-b8af19bc06c0" d="M245.78,218.83c.14-4.39,7.28-13.47,11.93-14.63,4.16-1,8.35-1.81,12.78-1.28,10.05,1.2,20.14,2.05,30.21,3.05a8.39,8.39,0,0,1,4.62,5.16c1.83,4.73,4.93,9,7.6,13.35,3.79,6.21,6.35,12.74,5.73,20.19a69.45,69.45,0,0,1-4.07,17.82c-.87,2.17-2,4.61-4.94,3.87s-2.65-3.39-2.28-5.72c.81-5.1,2.38-10,3.37-15.08,1.51-7.6-1.08-14.28-5.32-20.12-3.56-4.9-10-4.58-15.28-6.08-1.39-.39-3,.48-4.31-.59a220.22,220.22,0,0,0-23.79-2.2,26.9,26.9,0,0,0-10.67,2.1C249.57,219.33,247.69,220.59,245.78,218.83Z"/><path class="adba0f2f-1513-4acb-bea7-e5926fd1bf83" d="M373.83,204c2.34.42,4.54-.42,6.8-.76,10.76-1.57,21-1,29.15,7.53a27.51,27.51,0,0,1,2.7,3.53c1,1.77-.32,3.18-1.28,4.48a3.31,3.31,0,0,1-4.5.82c-8-4.28-16.62-3.77-25.25-3.11-6.45.49-12.9,1.06-19.38.66-3.5-.21-7-.57-10.1-2.31-1.83-1-5.88-.05-4.64-4.19,1-3.39,3-5.7,7.25-5.24A58.1,58.1,0,0,0,373.83,204Z"/><path class="b67cb73d-18fb-439e-aa89-e5c2318102d2" d="M293.4,235c-5.66,5.94-8.92,6.2-17.17,2.28-3.45-1.64-7.17.26-10.77.36-2,.06-4.68,1.74-5.52-1.33s1.77-4.16,4.26-5c5-1.65,10-3.68,15.1-5,6.19-1.58,12.26-1.15,17.27,3.49a12.24,12.24,0,0,1,2.88,4c.9,2,1.33,4.54-1.11,5.68s-2.84-1.46-3.76-2.91C294.23,236,293.8,235.53,293.4,235Z"/><path class="b67cb73d-18fb-439e-aa89-e5c2318102d2" d="M372.53,238.78a7.5,7.5,0,0,1-7.28-2.49c-2.07-2.21-4.31-.74-6.47,0-1.91.63-3.95,1.57-5.18-1-1.13-2.31.42-3.84,2-5.07,6.37-4.89,13.31-7.53,21.42-4.81,4.72,1.58,9.43,3.23,14.17,4.77,1.81.59,3.05,1.56,2.52,3.58s-2.28,2.25-4,1.94c-1.3-.23-2.55-.75-3.84-1.07-.92-.24-2.37-1.08-2.73-.08C381.34,239.6,377,238.11,372.53,238.78Z"/><path class="f822af47-5a45-4d1d-8751-250a2638b7c2" d="M285.82,218.77c5.56-.43,10.86,1.12,16.23,2.09a7.45,7.45,0,0,1,4.94,3.9c4.81,8,7.29,16.31,4.18,25.66-1.25,3.76-1.88,7.73-2.77,11.62-.34,1.5-.64,3.17,1.21,3.81s2.67-.85,3.39-2.2c2.84-5.37,3.79-11.29,4.95-17.16a10.35,10.35,0,0,1,.7-1.82c.5,7.1-1.49,13.73-3.92,20.26-1.09,2.91-3,5-6.36,4.07s-4.36-4.07-4.28-7.1c.1-3.6,1-7.17,1.39-10.77,1.09-10.67-1.18-20.17-8.91-28.25C293.38,219.54,289.06,221,285.82,218.77Z"/><path class="b1f69be6-45e8-42ce-8832-4a1968c2d88a" d="M266,247.7l1.77.19c1.58,1.08,3.55-.13,5.14.87a90.94,90.94,0,0,0,17.92.18c2.1-.2,4.33-.1,4.53,2.58s-2,3.1-4.08,3.3c-9.33.9-18-1.43-26.5-5.06C264.21,248.48,264,247.45,266,247.7Z"/><path class="b4ffbb9e-72b6-41d4-8644-d8afcd13d522" d="M238.73,235c-.54-2.82.42-4.46,3.42-3.49a101.42,101.42,0,0,1,10.65,4.19c2.55,1.16,3.46,2.72.21,4.41-2.79,1.46-5.52,3.06-8.27,4.61-1.83,1-3.83,2-5.26-.3-1.57-2.49.71-3.44,2.33-4.53,2.88-1.11,2.88-1.11,1.56-2.52A6.93,6.93,0,0,1,238.73,235Z"/><path class="a6222f65-dee0-4bfe-a404-bd017ddeabec" d="M384.75,244.8c4.56-1.2,8.95-3.25,15-3-6.5,8.06-14.44,6.3-22,6.05-.65-1.14.53-1.47,1-2.13l0,0C380.58,244.67,382.89,246.13,384.75,244.8Z"/><path class="f98f8d44-c4ff-4b2f-953e-932baade9f7b" d="M410.74,230.81c2.1-.44,4.2-.84,6.28-1.35,1.53-.37,3-.5,4.06.88,1.23,1.55.95,3-.4,4.4-4.89.38-9.78,2.91-14.66,0-.62-.93-1.81-1.29-2.44-2.46C405.67,230.22,408.61,232.34,410.74,230.81Z"/><path class="ad175ae7-c9b4-4a73-85bf-10e19a475373" d="M414.74,237.86c1.17,1.2,2.62,2.36,1.11,4.22-1.17,1.45-2.75,1.07-4.12.45-3.33-1.5-6.6-3.15-9.89-4.75-1.17-1.77,0-2.05,1.41-2.44,2.46-.68,4.71.58,7.08.52A5,5,0,0,1,414.74,237.86Z"/><path class="afd9beca-e591-49ca-bb4e-ec65fb699c7f" d="M410.8,236.75c-2.11-.25-4.22-.53-6.34-.74-1.32-.13-2.77-.33-2.62,1.77-1.36-2.12-1.36-2.12,2.8-3.77q.38-.88,1.14-.3c4.85,2.11,9.9,1.17,14.9,1-1.53,2-3.8.9-5.71,1.35C413.72,237.17,412.08,235.79,410.8,236.75Z"/><path class="b514235d-9d0f-4f4e-ac58-f3e224b87aae" d="M405.78,233.71l-1.14.3c-.92-.37-2-.72-1.76-2,.18-1,1.16-1,2-1,2-.08,3.92-.13,5.88-.2-1.39,1.73-3.41.7-5.08,1.17C403.38,232.62,406,233.11,405.78,233.71Z"/><path class="b512647d-cc34-484c-bc9d-01a0ee1c706e" d="M243.69,237c1.09,0,2.94-.39,2.62,1.11-.46,2.15-2.7,1.87-4.5,1.77l1.75-1.86A.64.64,0,0,1,243.69,237Z"/><path class="a8cef926-c5fc-414b-b682-881ef2a4d1c0" d="M266,247.7a2,2,0,0,0-1.22,2.06,6,6,0,0,1-4.12-3C262.81,246.86,264.47,245.63,266,247.7Z"/><path class="a0f89d03-2cd9-4073-85b3-eda4d55ce5a3" d="M243.69,237c-.05.34-.09.68-.13,1-2-.4-4.24-.4-4.83-3Z"/><path class="b4dcf683-6849-4ad9-aafb-cba6b0f4917d" d="M384.75,244.8c-1.8,1.76-4,1-6.07.95C380.58,244.66,382.67,244.73,384.75,244.8Z"/><path class="eeb2af71-16c7-4de1-85fe-945ba53deb48" d="M410.8,236.75c1.22-1.33,2.72-.8,4.17-.66-.08.59-.16,1.18-.23,1.77Z"/><path class="b4dcf683-6849-4ad9-aafb-cba6b0f4917d" d="M378.7,245.73l-1,2.13c-.86.14-1.75,0-1.6-1.05C376.36,245.28,377.59,245.5,378.7,245.73Z"/><path class="a8cef926-c5fc-414b-b682-881ef2a4d1c0" d="M272.93,248.76c-1.77.05-3.64.65-5.14-.87A6.4,6.4,0,0,1,272.93,248.76Z"/><path class="ae14c2ed-4312-4e66-8b7e-fb6959263021" d="M118.53,317c0-1,0-2.49,0-4,0-6.62,3.2-11,9.11-12.72a13.2,13.2,0,0,1,15.13,5.89,31.06,31.06,0,0,1,4.43,15.21,73.33,73.33,0,0,0,12.46,37.42,37.83,37.83,0,0,1,6.11,15.72c1,7.09-1.6,12.81-7.46,16.85-6.79,4.68-14.67,2.75-18.78-4.39-6-10.47-17.4-12.23-26.51-4.12a5.73,5.73,0,0,0-1.77,2.92c-1.39,5.16-4.94,7.22-10.08,7a12.1,12.1,0,0,1-11.37-8.24c-1.68-5-.83-9.86,1.31-14.56,2.51-5.52,6.29-10.18,10.2-14.73a118.29,118.29,0,0,0,12.92-17.74C117.82,331.28,120,324.77,118.53,317Z"/><path class="af9725eb-b056-4e56-b40f-d39f07de990a" d="M121.87,348.77a12.86,12.86,0,0,0,1-6,6.93,6.93,0,0,0,1-3.94h0c.73-1.18.59-3.25,2.59-3.16,1.55.07,1.81,1.76,2.46,2.87.41.71.71,1.49,1.19,2.18.37,2.62,1.83,4.79,3,7.06.05,2.13,1.79,3.81,1.62,6,.35,4,2.73,7.94.05,11.93-4.75,1-9.56,2.78-13.93-1.09,0-2.62,0-5.25-.07-7.87,0-.33.07-.66.1-1C122,353.53,122,351.15,121.87,348.77Z"/><path class="a11589f6-1d61-4746-afb5-21d15e8b75ac" d="M249.81,331c.12,6.9-2.1,12.7-7.75,17a37.39,37.39,0,0,0-4.76,4.4c-2.76,3-2.89,6.35-.29,9.47,1.9,2.28,4.22,4.23,6.31,6.36a37.06,37.06,0,0,1,3.69,4.05c3.78,5.3,3.34,13.18-.83,17-4,3.67-10.73,3.24-16-1-3.52-2.78-5.36-6.71-7.43-10.5s-3.93-7.41-7.83-9.47c-4.78-2.51-8.11-1-9.24,4.26-.88,4.06-1.42,8.22-2.64,12.17-1.78,5.73-6.85,9-12.06,8.39s-8.92-5-9.47-11.23a27.36,27.36,0,0,1,1.63-11.78c4.29-11.95,4.38-24.08,2.19-36.42-1-5.55-1.86-11.17-.7-16.86a14.69,14.69,0,0,1,6.78-10c2.08-1.3,4.16-1.95,6.56-.76,8.29,4.08,16.88,4,25.83,2.47C239.73,305.88,249.82,314.79,249.81,331Z"/><path class="a72bd952-1434-4641-955b-e9c988cd063a" d="M219.5,327.91l3.34,5.87c.52,4.61,1.73,9.39-3.17,12.64a5.72,5.72,0,0,0-2.88,2.27c-3,2.2-5.85,2.53-8.46-.6-1.05-1.65-.45-3.57-.88-5.33a20.3,20.3,0,0,1-.15-3c.2-2.49.21-5,.23-7.48a7.26,7.26,0,0,1,.4-2.26,3.44,3.44,0,0,1,.94-1.2.69.69,0,0,0,0-.79c.88-3.18,3-3.6,5.71-2.47C216.29,326.24,217.88,327.12,219.5,327.91Z"/><path class="ebbf5b5a-6e8c-4d51-b5e5-25ab335ec018" d="M393.79,476.93c0-6.59,3-10.52,8-10.36,6,.2,11.55,7.27,10.8,13.8-.73,6.31-4,10.31-8.25,10.16C398.64,490.33,393.83,484.14,393.79,476.93Z"/><path class="bb7dfd4f-bf20-4047-b227-f5314a6cbd0c" d="M241.79,489.62c1.08-5.88,2.54-12.64,5.56-19,.49-1,.91-2.38,2.21-2.45,1.49-.08,1.65,1.46,2,2.46a85.52,85.52,0,0,1,5.09,19.1c.63,5-1.92,7.88-6.47,7.89C244.16,497.68,241.6,495.54,241.79,489.62Z"/><path class="a71a45f4-800e-459f-9649-2987a57d892f" d="M282.6,74.66c.24-26.22,19.27-46.86,44.74-48.54,24.47-1.62,46.23,16.19,50,40.87,2.94,19.56-10.5,40.86-30.15,47.53a60.88,60.88,0,0,1-27.09,2.82C297,114.58,282.38,97.82,282.6,74.66Z"/><path class="b15214e6-65b1-4fa6-b6e3-62e789e77a15" d="M368.92,116.1c-.78-1.59.54-3.59-1-5,.47-.73.94-2.88,1.78-.58A6.81,6.81,0,0,1,368.92,116.1Z"/><path class="f7d32002-2136-445e-bbd2-24a16e311934" d="M126.63,351.67c2.1,2.66,2.15,5.36,3,7.73.37,1,.94,2.56-.52,2.93a2.54,2.54,0,0,1-3.28-2.15A15.21,15.21,0,0,1,126.63,351.67Z"/><path class="f649c96c-782b-4b71-b563-4aab6a4824b9" d="M213.65,338.62a8.25,8.25,0,0,1,.18-1.95c.69-1.59-.93-4.93,1.81-4.63,2.89.32,3.69,3.36,3.16,6.29a1.49,1.49,0,0,1-.13.47c-1,1.85-1.92,4.64-4.17,4.17C212.56,342.56,214.1,339.8,213.65,338.62Z"/><path class="a2b093dd-0320-475f-9567-b8af19bc06c0" d="M549.23,346.12c.15-1.56.21-2.89.43-4.19,1.24-7.08,5.47-11.16,10.5-10.19,5.45,1.05,9.56,8.46,7.94,14.66a31.4,31.4,0,0,1-2.58,6.44c-1.78,3.46-4.39,6-8.65,5.38s-6.12-3.61-7-7.41A45.55,45.55,0,0,1,549.23,346.12Z"/><path class="ad998d88-8ef1-4838-bfaf-d3a47d0003be" d="M563.72,343c-.78,3.35-.71,8.23-4.89,8.64-3.87.37-4.73-4.1-4.85-7.4s1.2-6.36,5.18-6.64C562.75,337.37,563.41,340,563.72,343Z"/><path class="ad998d88-8ef1-4838-bfaf-d3a47d0003be" d="M407.62,481.07c-.11,2-.78,4.15-3.77,4.38-3.15.24-6-2.86-5.79-6.64.15-3,.84-6.13,4.12-7.26C404.2,470.85,407.56,476.61,407.62,481.07Z"/><path class="a50e7506-3c88-4db0-8007-00e2635b7587" d="M249.07,481.88c.71,3.79,1.22,6.33,1.65,8.88.22,1.3-.19,2.41-1.67,2.5s-2.11-.88-2.28-2.15A12.1,12.1,0,0,1,249.07,481.88Z"/><path class="a6ec36b0-e09e-4875-83b4-96aaa2e4939b" d="M316.74,37.09c3.11-.58,6.23-1,9.3-1.75,2.64-.6,4.82-.17,5.59,2.59s-.52,4.36-3.15,5.34c-9.89,3.69-15.33,11.22-17.82,21.15-2.39,9.52.85,18,8.92,23.47,2.61,1.77,5.34,3.37,8.09,4.92,3.53,2,5.67,4.83,4.85,8.94-.87,4.36-4.08,6.19-8.36,6.42-1.48.08-3,.42-4.42.63-8.5.18-15-4.13-20.14-10.11-10.77-12.47-12.06-31.89-3.25-46.21,3.09-5,5.75-10.6,11.45-13.49.94-.27,1.9-.49,2.83-.78C312.66,37.77,314.55,36.61,316.74,37.09Z"/><path class="f431c254-622f-434e-9b5a-f1b0ef120eb9" d="M308.74,39.89a40.82,40.82,0,0,0-15.66,24.44c-2.68,11.86-.78,23.08,6.73,33,5,6.57,12.56,8.94,19.93,11.53.82,3-.69,3.94-3.43,3.66a24.31,24.31,0,0,1-12.36-4.9c-13.9-10.52-18.67-24.84-15.57-41.43,2.16-11.58,7.55-21.83,18.32-28.2C308.73,37.19,309.53,37.71,308.74,39.89Z"/><path class="a6481e33-d901-4718-a207-9f137e51a8c5" d="M355.55,57q-4.17-4.91-8.34-9.82c-1.49-1.77-2.43-3.69-.62-5.76s3.81-1.72,5.9-.66c9,4.6,13.48,12.52,15.22,22,.86,4.66.9,9.57-1,14.18-2.52,4.87-3.61,10.39-6.93,14.88l-4.05,4.09c-1.51.78-2.24.43-1.86-1.35a10.2,10.2,0,0,1,2.55-4.22C364,81.21,362.15,65.56,355.55,57Z"/><path class="b67cb73d-18fb-439e-aa89-e5c2318102d2" d="M316.52,73.12A12.77,12.77,0,0,1,319,64.7a8.06,8.06,0,0,1,7.83-3.37c3,.43,4.49,2.63,5.42,5.24,1.58,4.42,1.79,9.1,2.43,13.68.37,2.73-1.53,4.16-4,4.94C323.27,87.55,316.55,81.85,316.52,73.12Z"/><path class="a3623c96-879e-44c3-b9d8-be990ca94137" d="M328.78,52.06C344.64,52,355.35,67,350.31,81a12.45,12.45,0,0,1-2,3.43c-1,1.21-2.34,2.06-3.94,1.2s-1.65-2.38-1.27-3.93c.28-1.13.7-2.22,1-3.34,3.63-13.07-5.91-23.53-19.28-21.23-1.9.33-4.93,2.26-5.53-.33-.55-2.33,2.82-3.25,5-3.9A33.31,33.31,0,0,1,328.78,52.06Z"/><path class="fc7e835f-9aba-44cb-8897-3cf236cbacf8" d="M355.55,57c3,1.51,3.52,4.59,4.43,7.33,3.26,9.8,2.71,19.08-3.74,27.62-.74,1-3.78,2.23-.53,4a7.55,7.55,0,0,1-1.06,1.62c-.94.89-2,2.18-3.38.94s-.27-2.37.65-3.4c.77-.87,1.49-1.78,2.21-2.69,7.93-9.93,8.52-20.53,3-31.72C356.52,59.49,356.07,58.24,355.55,57Z"/><path class="ad1dbfec-ff84-4451-9ca3-009603f81dd3" d="M308.74,39.89c0-1.39-.87-1.81-2-2,3.46-1.22,6-6.14,10.63-2.53.05,0,0,.3-.1.4a1.71,1.71,0,0,1-.41.27c-1.77,1.46-4.1,1.78-6,3A1.94,1.94,0,0,1,308.74,39.89Z"/><path class="fc7e835f-9aba-44cb-8897-3cf236cbacf8" d="M359.76,91.84c2.32-5,3.55-10.41,6.93-14.88C365.36,82.38,364,87.78,359.76,91.84Z"/><path class="bc536f6b-5a29-4f96-8730-dcabbf78d648" d="M310.82,39c1.48-2,3.64-2.7,6-3,0,.33-.05.67-.08,1A9.12,9.12,0,0,1,310.82,39Z"/><path class="a7e5de03-0fdc-4079-a63a-d1c51a3ee90f" d="M627.33,302.76a30.38,30.38,0,0,1,14.89,3.63,16.66,16.66,0,0,1,9,13.54c.35,3.63-.28,7.13-3.61,9.29-3.15,2-6.47,1.2-9.47-.5-2.69-1.53-5.16-3.38-7.86-.12s-1.41,6.29.6,9.13c4.18,5.92,10.09,10.09,15.44,14.83,7.21,6.39,10.86,14.39,9.12,24-2.14,11.88-14.11,20.18-27.21,19.39-15.84-1-29-14.08-29-28.93,0-8.07,4.83-11.24,12.18-7.71,3,1.43,5.55,3.66,8.37,5.41,4.78,3,8.3,2.62,11.05-1s2.19-7.26-1.91-11a64.07,64.07,0,0,0-7.65-5.59c-5.14-3.42-10.2-6.93-14.22-11.69-8.1-9.6-6.6-20.79,3.73-28A28,28,0,0,1,627.33,302.76Z"/><path class="bdfb7261-a2fa-45c0-aa25-8b6f4383bd29" d="M467.93,372.44c2.08-13.89.56-29.63-.81-45.38a47.32,47.32,0,0,1,.12-11.95c1.16-6.87,4.83-10.46,11.4-11.33,8-1.06,14.11,1.62,16.82,7.74a23.23,23.23,0,0,1,1.77,15.07c-1.67,7.11-3.7,14.18-3.5,21.61.26,9.46,4.5,13.64,13.89,13.64.66,0,1.33,0,2,0,5.29-.18,10.67-.14,13.52,5.33,3,5.86,2.6,12-.39,17.74-2.41,4.64-6.43,6.73-11.24,4.71-8.74-3.68-17.07-2.48-25.8-.18C472.11,393,467.37,388.76,467.93,372.44Z"/><path class="f0c9a545-552c-407e-9783-3508daae645d" d="M431.69,369.43c5.38-.34,9.36-.73,13.35-.79,3.66-.05,7,1,8.75,4.63a10.69,10.69,0,0,1-1,11.35,14.66,14.66,0,0,1-11.75,6.62,45.11,45.11,0,0,1-9.44-.53,49.61,49.61,0,0,0-21.24.66c-11.19,2.82-17.06-2.09-16.63-13.59A36.53,36.53,0,0,1,395.3,368c3.77-11.67,3.19-23.26.2-34.95-1.41-5.47-2.84-11-2.7-16.7.19-7.76,3.35-11.76,10.92-13.16a62.57,62.57,0,0,1,10.42-.91,85,85,0,0,0,20.76-2.44,22.34,22.34,0,0,1,10.38-.66,12.82,12.82,0,0,1,10,15.42c-1.43,6.93-6.73,10.25-14.31,8.68-4.39-.9-8.63-2.64-13-3.26-6.56-.93-11.61,3.52-11.44,9.43.14,4.56,2.51,7,7.08,7.13,4.15.11,8.34-.16,12.41.94,3.8,1,6.95,3,7,7.32s-3.17,6.49-6.9,7.41c-3.2.8-6.6.76-9.86,1.34-3.65.64-7.45,1.35-7.7,6.25-.22,4.41,2.36,7.76,7.15,8.87A45.29,45.29,0,0,0,431.69,369.43Z"/><path class="bc08f666-18d6-433c-81b0-87e69815687f" d="M58.2,300.08c12.83.14,23,8.17,25.24,19.92,2.29,12-5.9,20.33-17.87,18.19-9.74-1.74-16.2,4.69-14.46,14.38a10.6,10.6,0,0,0,9.38,9,12.51,12.51,0,0,0,3,.12c12.62-1.33,17.42,7.35,12,19.21s-20.1,17-33.3,11.21C28.39,386,19.89,375,17.67,360.29c-2.9-19.24,2.94-36.22,16.82-50.08A33.12,33.12,0,0,1,58.2,300.08Z"/><path class="faaea11f-e4f6-45e3-a7c7-febc254e673b" d="M239.35,405.35a35.46,35.46,0,0,0,7.61-2.07,28.73,28.73,0,0,0,6.93-3.69c2.48-1.93,4.44-4.53,7.15-11.08a107.34,107.34,0,0,0,5.08-16.39c1.15-4.66,2.59-10.56,4.15-19.15,2.2-12.13,1.43-12,3-17.08a65.32,65.32,0,0,1,8.08-17.3,53,53,0,0,1,7.61-9c2.26-2.14,3.43-3.23,5.31-4.16a18.27,18.27,0,0,1,12-1.15,24.57,24.57,0,0,1,8.31,3.69c2.53,1.7,2.81,2.56,5.08,3.46a21.5,21.5,0,0,0,6.92,1.16,37.23,37.23,0,0,0,4.84,0,16.48,16.48,0,0,0,5.31-.93,17.44,17.44,0,0,0,4.62-3c1.84-1.45,1.7-1.63,3.23-2.77a14.4,14.4,0,0,1,5.08-2.77,10.24,10.24,0,0,1,4.61-.23c2.12.42,3.43,1.5,5.08,2.77,6.69,5.18,6.38,3.87,8.3,6,1.15,1.27,2.54,3.85,5.31,9,1.46,2.7,2.18,4.06,2.54,4.85,2.35,5.22,2.25,8.3,4.15,16.84.82,3.65.7,2.45,1.85,7.39,2.31,9.85,1.88,10.7,3.53,17.5.61,2.52.79,5.12,1.32,7.65a8.65,8.65,0,0,1-.23,4.62,19.6,19.6,0,0,0-.63,5.62,17.8,17.8,0,0,0,.63,5.92,11.58,11.58,0,0,0,1.39,3.22A13.39,13.39,0,0,0,397,400a7,7,0,0,1,3.24.79c1,.56,1.11,1.05,2.31,2.08a31.58,31.58,0,0,0,3.23,2.07,28,28,0,0,0,4.16,2.31c1.54.46,2.35.27,2.76.92.57.9-.22,2.35-.46,2.77-2.11,3.86-11.67,6.71-21.69,6A31.06,31.06,0,0,1,368.58,407c-4.52-4.57-6.66-9-9.69-15.23-1.85-3.8-5.75-12.47-7.39-16.15-1.07-2.4-2.91-4.39-4.11-6.72-.45-.87-1-2.07-2.12-2.28-.9-.19-1.53.44-3,1.38a30.44,30.44,0,0,1-5.77,2.77,16.9,16.9,0,0,1-4.61.92,18,18,0,0,1-8.77-1.84c-2.36-1.18-2.66-2-4.85-2.54a6.73,6.73,0,0,0-4.61.23,6.13,6.13,0,0,0-2.31,2.08,18.87,18.87,0,0,0-3,6.46c-.52,1.74-1.89,4-4.62,8.54a65.6,65.6,0,0,1-8.54,11.76,55.43,55.43,0,0,1-12.92,10.16,58.6,58.6,0,0,1-17.54,6.92,37.92,37.92,0,0,1-9.92.92,33.13,33.13,0,0,1-9.23-1.84A15.52,15.52,0,0,1,240.5,410a14.19,14.19,0,0,1-2.31-2.31"/><path class="aff96635-400e-4093-b510-540c0f67c268" d="M324.09,363.14a17.63,17.63,0,0,0,4.93.91c.73.06,1.72.05,3.68,0a10.73,10.73,0,0,0,3.68-.39A7.86,7.86,0,0,0,338,363c2.33-1.34,2.67-2.71,5-4.67s3-1.91,3.29-1.91c.66,0,1.74.24,4.15,2.94a30.85,30.85,0,0,1,3.64,5c4.17,7.74,5.19,10,5.19,10,4.81,10.92,4,10,5.71,13.33a50.9,50.9,0,0,0,8.48,12.63,37.78,37.78,0,0,0,8.48,6.93,21.77,21.77,0,0,0,9.69,3.46c3.87.27,8.14-.7,8.14-1.39,0-.26-.63-.45-.87-.52-4.77-1.54-11.11-9.85-11.77-10.73a44.24,44.24,0,0,1-5.88-10.73,115.52,115.52,0,0,1-3.46-11.94c-1.34-5.12-2-7.68-2.43-9.69-1.38-6.76-.88-8.36-1.9-16.27s-1.53-11.93-3.11-16.62c-1.64-4.84-2.16-10-3.64-14.88-.22-.73-.89-3,.17-4.15.5-.55,1.17-.66,1.29-1.27.06-.33-.08-.61-1-1.9-.74-1-1.11-1.5-1.52-1.95a17,17,0,0,0-2-1.94,16.28,16.28,0,0,0-3.79-2.17c-3.45-1.55-6.26-2.81-9.73-2.2-.57.1-5,.93-7.27,4.16a13.23,13.23,0,0,1-1.91,2.42,12.12,12.12,0,0,1-3.63,2.25,19.54,19.54,0,0,1-7.44,1.38,24.38,24.38,0,0,1-5-.34,12.49,12.49,0,0,1-5.2-1.91,9.86,9.86,0,0,1-1.38-1.21c-2.07-2.12-9.53-6.93-18-5.71a18,18,0,0,0-7.89,3.06c-.23.18-.05.06-2.31,2.07-1.18,1.06-1.48,1.31-1.57,1.79-.17,1,.71,1.36,1.32,2.67.41.89.55,2.07-.45,5.3a29.41,29.41,0,0,1-2.77,6.57c-3.37,6-5.53,15.94-6.58,20.77-.24,1.11-.91,6.22-2.25,16.44-1.07,8.19-1.61,12.58-2.94,18.87-1.85,8.71-3.1,11-3.64,11.94-1.12,1.95-4.26,7.41-10.38,10.21-1.8.82-3.17,1.1-3.12,1.39.12.63,7.2.61,13.85-1.73A36.72,36.72,0,0,0,282.77,396c8.78-7.26,14.21-16.26,19.56-25.1,4-6.7,7.48-13.68,11.59-13.33a13,13,0,0,1,4,1.52C321.21,360.81,321.31,362.1,324.09,363.14Z"/></svg>