<svg id="b5cdc53e-9014-4351-b20f-8f774468c078" data-name="Layer 1" xmlns="http://www.w3.org/2000/svg" viewBox="0 0 483.4 19.41"><defs><style>.ff7bcbe6-593c-403f-bf51-a8b4ed926065{fill:#3e342f;}</style></defs><path class="ff7bcbe6-593c-403f-bf51-a8b4ed926065" d="M324,0c.44,0,1,.05,1.14.46a1.05,1.05,0,0,1-.26.88c-1.25,1.85-2.66,3.56-4,5.31s-2.56,3.52-3.95,5.22a.9.9,0,0,1-.54.4c-.31,0-.56-.25-.73-.51a20.49,20.49,0,0,1-1.84-3.42c-.22-.51-1.46-2.55-1-3a1.33,1.33,0,0,1,.9-.26l4.18-.19c.3,0,.69,0,.78.32a.48.48,0,0,1-.26.52,1.5,1.5,0,0,1-.6.13L315.27,6c-.32,0-.7.08-.83.37a.9.9,0,0,0,.14.78c.42.77.84,1.55,1.25,2.33.13.24.31.51.57.51s.42-.19.57-.37l3.23-4c.67-.84,2.65-2.57,2.52-3.77-.08-.75-2.62-.35-3.26-.34q-5.15,0-10.29.15c-.28,0-.63.05-.75.31a.78.78,0,0,0,.14.68c1.35,2.37,2.74,4.72,4,7.13q1.19,2.22,2.35,4.44c.29.54,1.18,3.42,1.93,3.3a.77.77,0,0,0,.42-.32c.87-1.07,1.69-2.17,2.56-3.25l3.4-4.23q3.45-4.27,6.89-8.56a.68.68,0,0,1,.5-.32.43.43,0,0,1,.34.5,1.29,1.29,0,0,1-.29.6c-2.14,2.9-4.32,5.77-6.59,8.58S320,16,317.73,18.62a1.74,1.74,0,0,1-.69.55l-.17,0c-.59.07-1-.54-1.3-1.07Q313.29,13.94,311,9.7c-1.46-2.72-2.95-5.42-4.42-8.14a.82.82,0,0,1-.12-.73c.13-.24.44-.27.71-.28Zm19.9,4.71a.85.85,0,0,0-.57.29c-.19.26-.07.62.05.92.52,1.22,1,2.45,1.57,3.66.26.59.81,1.32,1.54,1a2.16,2.16,0,0,0,.73-.58,119.12,119.12,0,0,0,7.91-9c.11-.15.22-.33.14-.49A.5.5,0,0,0,355,.28a46.45,46.45,0,0,0-8.67-.15c-3,.06-5.94.1-8.9.19a2.33,2.33,0,0,0-1.5.38c-.66.57,0,1.47.24,2.06.49,1,1,2,1.53,3,1.06,1.94,2.21,3.83,3.32,5.73q2,3.44,4.18,6.78c.16.24.36.5.64.53s.55-.22.75-.44c3.2-3.63,6.2-7.44,9-11.36.68-.94,1.35-1.89,2-2.85a8.21,8.21,0,0,0,1.57-2.47.49.49,0,0,0-.29-.56c-.24-.06-.46.15-.62.34-2,2.36-3.57,5.09-5.49,7.5l-3.19,4c-1,1.23-1.88,2.47-2.93,3.62s-2.37-1.77-2.82-2.49c-1.15-1.87-2.23-3.79-3.28-5.72-.53-1-1.06-2-1.58-3-.27-.5-.5-1-.8-1.51a6,6,0,0,1-.65-1,.85.85,0,0,1,.26-1,1.29,1.29,0,0,1,.65-.13l14.06-.28a.72.72,0,0,1,.59.16c.45.52-1.66,2.27-2,2.55-1.63,1.52-2.95,3.24-4.48,4.85-.12.13-.28.27-.45.23a.56.56,0,0,1-.3-.27c-.45-.71-.78-1.54-1.16-2.3a2.59,2.59,0,0,1-.2-.53c-.28-1.28,2-.41,2.69-.85a.46.46,0,0,0,.19-.62.6.6,0,0,0-.68-.13C345.86,4.78,344.87,4.5,343.94,4.71Zm118.8-.63Q464.83,7.58,467,11q1.28,2,2.58,4c.45.68.94,1.35,1.35,2a8.62,8.62,0,0,0,.93,1.58.82.82,0,0,0,.82.26,1.14,1.14,0,0,0,.58-.62c1.53-2.71,3-5.44,4.62-8.13,1.69-2.86,3.44-5.69,5.31-8.44a1,1,0,0,0,.21-.59A.45.45,0,0,0,483,.7c-.64,0-1.13,1.24-1.43,1.67C480.29,4.2,479.07,6,477.9,7.9l-2.61,4.25c-.75,1.22-1.44,2.46-2.18,3.67l-.31.5c-.1.17-.25.36-.45.35-.42,0-.88-1.29-1.06-1.6L470,12.78c-1.1-1.91-2.34-3.84-3.5-5.75-.62-1-1.24-2-1.82-3.06-.33-.6-1.7-2.17-.42-2.25,2.48-.14,5-.44,7.47-.43.59,0,3.91-.43,4.06.42a.79.79,0,0,1-.17.54l-2.84,4.69c-.14.24-.35.52-.63.49a.72.72,0,0,1-.48-.35c-.39-.49-.75-1-1.09-1.52-.73-1.13.9-1.15,1.67-1.33a.67.67,0,0,0,.45-.24.44.44,0,0,0-.24-.57,1.3,1.3,0,0,0-.68-.06l-2,.18a2.07,2.07,0,0,0-.61.12.65.65,0,0,0-.39.45c-.06.36.34,1,.48,1.29a21.74,21.74,0,0,0,1,2.06,10.89,10.89,0,0,0,1.13,2.07.93.93,0,0,0,1,.32,1.37,1.37,0,0,0,.58-.61l3.6-5.75c.43-.68,2.8-3.45.6-3.48-5-.06-10,.09-15,.17C459.49.23,462.24,3.24,462.74,4.08ZM399.26,18.9a17.39,17.39,0,0,0,1.08-2.26c.39-.84.77-1.67,1.15-2.51.52-1.13,1-2.28,1.57-3.39a88.33,88.33,0,0,0,4.09-9.56c.13-.37.23-.86-.08-1.09a.64.64,0,0,0-.78.1,1.91,1.91,0,0,0-.42.73q-3,7.73-6.68,15.16c-.13.27-.32.57-.61.56s-.46-.31-.58-.57q-1.58-3.5-2.9-7.1c-.71-1.92-1.41-3.82-2.2-5.72a1.44,1.44,0,0,1-.11-1.19c.23-.41.78-.48,1.25-.5,2.11-.1,4.22-.14,6.33-.17.16,0,.35,0,.43.15a.47.47,0,0,1,0,.35q-.66,2.6-1.5,5.13c-.07.22-.21.49-.44.47s-.32-.25-.38-.44c-.27-.78-.53-1.57-.8-2.35a.66.66,0,0,1,0-.6c.2-.24.59-.07.88-.16.55-.15.39-.68.06-.95a.59.59,0,0,0-.17-.1,2,2,0,0,0-1.42.14c-1,.35-1,1-.7,1.94.41,1.46.88,2.9,1.35,4.35.15.47.42.87,1,.82a1,1,0,0,0,.9-.67c.86-2.42,2-4.75,2.6-7.25.39-1.5.15-2-1.36-2.1-2.72-.13-5.47-.14-8.2,0-1.37.06-1.68.71-1.36,2.17a32.67,32.67,0,0,0,1.25,3.61c.49,1.44,1,2.87,1.49,4.3,1,2.8,2.16,5.57,3.38,8.29.17.37.39.79.78.91A1,1,0,0,0,399.26,18.9ZM413.77.17a19.4,19.4,0,0,0-2,0,.75.75,0,0,0-.59.46,1.07,1.07,0,0,0,.09.72c.51,1.39,1,2.77,1.49,4.16s1.11,2.88,1.69,4.31c1.14,2.82,2.34,5.62,3.52,8.42a1.53,1.53,0,0,0,.61.85.89.89,0,0,0,.62.06,1.81,1.81,0,0,0,.94-.73c1.81-2.64,3.77-5.21,5.75-7.74C426.94,9.32,428,8,429.05,6.55A28.46,28.46,0,0,1,432,2.75c.54-.52.94-.86.35-1.6-.29-.36-.74-.21-1.07.06A7.41,7.41,0,0,0,430,2.36l-5.39,7.09c-1.8,2.38-3.63,4.66-5.27,7.15-.1.14-.21.29-.38.31s-.28-.5-.35-.67L413.19,2.67a1,1,0,0,1-.12-.6c.11-.77,4.37-.42,5.11-.43l5.93-.09c.28,0,.94,0,1,.42a.88.88,0,0,1-.24.58c-.74,1-1.5,2-2.21,3.08l-1.09,1.56c-.25.36-.51.72-.75,1.09a10.68,10.68,0,0,1-.56,1.07.46.46,0,0,1-.6.11.62.62,0,0,1-.2-.34c-.34-1-.68-2-1-3-.05-.13-.09-.28,0-.38a.36.36,0,0,1,.32-.11c.85,0,1.72-.21,2.57-.21a.57.57,0,0,0,.55-.65.63.63,0,0,0-.67-.55,28.49,28.49,0,0,0-3.32.16,1.07,1.07,0,0,0-.72.27,1,1,0,0,0,0,1c.55,1.88,1.4,3.61,2.09,5.43.09.26.24.56.52.58s.43-.21.57-.42q2.46-3.55,4.93-7.12l1.26-1.84c.23-.33.72-.74.71-1.17,0-.78-1.13-.76-1.69-.79C424,.19,422.56.06,421.1,0c-1.62,0-3.23,0-4.84,0Q415,.08,413.77.17ZM452,8.78c0-.41.74-1.28,1-1.66l.95-1.66c.6-1,1.25-2,1.9-3A7.48,7.48,0,0,0,456.69,1a.83.83,0,0,0-.32-1c-.52-.25-1.05.3-1.36.78q-4.65,7.16-8.9,14.57c-.13.23-.33.5-.59.46s-.34-.22-.45-.39A119.16,119.16,0,0,1,439.12,3a1.93,1.93,0,0,1-.18-.56.62.62,0,0,1,.19-.55.94.94,0,0,1,.58-.15c1.46-.05,2.92-.09,4.38-.09a27.31,27.31,0,0,0,4-.13c.31-.05.7,0,.84.27a.88.88,0,0,1-.12.76l-2.55,5.08c-.09.18-.2.38-.4.43-.6.15-1-1.14-1.19-1.52-.28-.7-.75-1.6.2-2,.44-.19,1.29.06,1.57-.42a.39.39,0,0,0-.15-.54.69.69,0,0,0-.25,0,17,17,0,0,0-3.1.32,1.12,1.12,0,0,0-.44.17.37.37,0,0,0-.13.17.76.76,0,0,0,.07.51c.78,1.89,1.59,3.77,2.39,5.64.18.42.48.92.93.87s.59-.4.75-.72L449.78,4c.5-1,2.53-3.67.26-3.87C448.6,0,447.15,0,445.71,0c-2.57,0-5.14.08-7.7.1-.75,0-1,.4-.93,1.06a4.93,4.93,0,0,0,.29,1.16c2.24,5.57,4.36,11.13,7.52,16.25.19.3.47.65.82.59s.43-.3.56-.53ZM373.48.07H365a1.35,1.35,0,0,0-.91.22.66.66,0,0,0-.21.31,1.08,1.08,0,0,0,0,.59c.13.56.42,1.16.6,1.73.26.77.54,1.54.83,2.31.78,2.06,1.62,4.1,2.54,6.12q1,2.21,2.12,4.38c.33.65,1.24,3.31,2.14,3.26a1,1,0,0,0,.64-.43c2.5-2.91,5-5.79,7.48-8.76q1.83-2.24,3.57-4.54c.57-.77,1.13-1.54,1.68-2.32.32-.46,1.45-1.57,1-2.17a.7.7,0,0,0-.88-.09,2,2,0,0,0-.63.71,99.82,99.82,0,0,1-12.13,15.13,1,1,0,0,1-.55.34c-.36,0-.61-.37-.76-.71q-1.77-3.91-3.42-7.9c-.55-1.34-1.1-2.69-1.63-4-.38-1-1.46-2.37.21-2.52,2.15-.21,4.3-.41,6.47-.46.8,0,5.46-.4,5.59.64.05.35-.92,1.19-1.14,1.47-.47.59-.95,1.18-1.43,1.76-1,1.15-2,2.29-3,3.39-.15.16-.33.34-.55.32s-.42-.32-.52-.58c-.26-.7-.53-1.4-.8-2.1s-.42-1.44.11-1.85a1.43,1.43,0,0,1,1.15-.13,2.51,2.51,0,0,0,1.18.09c.32-.1.68-.51.51-.86S373.39,3,373.11,3a9.42,9.42,0,0,0-2.65.08c-.43.06-.94.21-1.07.63a1.26,1.26,0,0,0,.07.74c.59,1.89,1.18,3.77,1.76,5.66.14.43.35.93.79,1s.79-.28,1.07-.6L377.81,5l2.37-2.72c.43-.49,1.46-1.36,1.11-2.08-.19-.39-3.43-.19-3.9-.19C376.08.07,374.78.07,373.48.07ZM262.71,6.52c-.28-.7-.75-1.6.2-2,.44-.19,1.29.06,1.57-.41a.4.4,0,0,0-.15-.55.66.66,0,0,0-.25,0,17,17,0,0,0-3.1.32,1.12,1.12,0,0,0-.44.17.49.49,0,0,0-.13.18.74.74,0,0,0,.07.5c.78,1.89,1.59,3.77,2.39,5.64.18.42.48.92.93.87s.59-.4.75-.72L267.87,4c.5-1,2.53-3.67.26-3.87C266.69,0,265.24,0,263.8,0c-2.57,0-5.13.08-7.7.1-.75,0-1,.4-.93,1.06a4.93,4.93,0,0,0,.29,1.16c2.24,5.57,4.36,11.13,7.52,16.25.19.3.47.65.82.59s.43-.3.56-.53q2.85-4.94,5.69-9.88c0-.41.74-1.28,1-1.66l1-1.66c.59-1,1.24-2,1.89-3A7.48,7.48,0,0,0,274.78,1a.83.83,0,0,0-.32-1c-.52-.25-1,.3-1.36.78Q268.45,8,264.2,15.41c-.13.23-.33.5-.59.46s-.34-.22-.44-.39A115.29,115.29,0,0,1,257.22,3a1.69,1.69,0,0,1-.19-.56.65.65,0,0,1,.19-.55,1,1,0,0,1,.58-.15c1.46-.05,2.92-.09,4.38-.09a28.82,28.82,0,0,0,3.95-.12c.31-.06.7,0,.84.26a.88.88,0,0,1-.12.76L264.3,7.61c-.09.18-.2.38-.4.43C263.3,8.19,262.87,6.9,262.71,6.52ZM217.36,18.9a18.75,18.75,0,0,0,1.07-2.26l1.16-2.51c.51-1.13,1-2.28,1.56-3.39a88.33,88.33,0,0,0,4.09-9.56c.13-.37.23-.86-.08-1.09a.64.64,0,0,0-.78.1,2,2,0,0,0-.42.73q-3,7.73-6.68,15.16c-.13.27-.32.57-.61.56s-.46-.31-.58-.57q-1.58-3.5-2.9-7.1c-.71-1.92-1.41-3.82-2.19-5.72a1.41,1.41,0,0,1-.12-1.19c.23-.41.78-.48,1.25-.5,2.11-.1,4.22-.14,6.33-.17.16,0,.35,0,.43.15a.47.47,0,0,1,0,.35q-.66,2.6-1.5,5.13c-.07.22-.21.49-.44.47s-.32-.25-.38-.44c-.27-.78-.53-1.57-.8-2.35a.66.66,0,0,1,0-.6c.2-.24.59-.07.88-.16.55-.15.39-.68.07-.95l-.17-.1a2,2,0,0,0-1.43.14c-1,.35-1,1-.7,1.94.41,1.46.88,2.9,1.35,4.35.15.47.42.87,1,.82a1,1,0,0,0,.9-.67c.86-2.42,2-4.75,2.6-7.25.39-1.5.15-2-1.36-2.1-2.72-.13-5.47-.14-8.2,0-1.37.06-1.68.71-1.36,2.17a32.67,32.67,0,0,0,1.25,3.61c.49,1.44,1,2.87,1.49,4.3,1,2.8,2.16,5.57,3.38,8.29.17.37.39.79.78.91A1,1,0,0,0,217.36,18.9ZM125.29.55c-.26,0-.58,0-.71.28a.82.82,0,0,0,.12.73c1.47,2.72,3,5.42,4.42,8.14s3,5.64,4.54,8.45c.28.53.71,1.14,1.3,1.07l.17,0a1.67,1.67,0,0,0,.69-.55c2.29-2.59,4.19-5.45,6.35-8.12s4.45-5.68,6.59-8.58a1.29,1.29,0,0,0,.29-.6.43.43,0,0,0-.34-.5.68.68,0,0,0-.5.32q-3.44,4.29-6.89,8.56l-3.4,4.23c-.87,1.08-1.69,2.18-2.56,3.25a.74.74,0,0,1-.42.32c-.75.12-1.64-2.76-1.93-3.3q-1.17-2.22-2.35-4.44c-1.27-2.41-2.66-4.76-4-7.13a.78.78,0,0,1-.14-.68c.12-.26.47-.31.75-.31q5.14-.1,10.29-.15c.64,0,3.18-.41,3.26.34.13,1.2-1.85,2.93-2.52,3.77l-3.23,4c-.15.18-.33.38-.57.37s-.44-.27-.56-.51l-1.26-2.33a.9.9,0,0,1-.14-.78c.13-.29.51-.35.83-.37l2.55-.15a1.5,1.5,0,0,0,.6-.13.48.48,0,0,0,.26-.52c-.09-.29-.48-.33-.78-.32l-4.18.19a1.29,1.29,0,0,0-.9.27c-.45.45.79,2.49,1,3a20.49,20.49,0,0,0,1.84,3.42c.18.26.42.54.73.51a1,1,0,0,0,.55-.4c1.39-1.7,2.58-3.49,3.94-5.22s2.79-3.46,4-5.31a1.05,1.05,0,0,0,.26-.88c-.15-.41-.7-.47-1.14-.46ZM234.35.05c-.83,0-1.66.06-2.48.12a19.61,19.61,0,0,0-2,0,.76.76,0,0,0-.59.46,1.07,1.07,0,0,0,.09.72c.51,1.39,1,2.77,1.49,4.16s1.11,2.88,1.69,4.31c1.14,2.82,2.34,5.62,3.52,8.42a1.58,1.58,0,0,0,.61.85.89.89,0,0,0,.62.06,1.78,1.78,0,0,0,.94-.73C240,15.79,242,13.22,244,10.69,245,9.32,246.11,8,247.14,6.55a28.46,28.46,0,0,1,2.93-3.8c.54-.52.94-.86.35-1.6-.29-.36-.74-.21-1.07.06a7.83,7.83,0,0,0-1.22,1.15l-5.39,7.09c-1.8,2.38-3.62,4.66-5.27,7.15-.1.14-.21.29-.38.31s-.28-.5-.35-.67L231.28,2.67a1.14,1.14,0,0,1-.12-.6c.12-.77,4.37-.42,5.11-.43l5.93-.09c.28,0,.94,0,1,.42a.88.88,0,0,1-.24.58c-.74,1-1.5,2-2.21,3.08l-1.09,1.56c-.25.36-.51.72-.75,1.09a8.94,8.94,0,0,1-.56,1.07.46.46,0,0,1-.6.11.62.62,0,0,1-.2-.34c-.34-1-.68-2-1-3,0-.13-.09-.28,0-.38a.36.36,0,0,1,.32-.11c.85,0,1.73-.21,2.57-.21a.57.57,0,0,0,.55-.65.63.63,0,0,0-.67-.55,28.49,28.49,0,0,0-3.32.16,1.07,1.07,0,0,0-.72.27,1,1,0,0,0-.05,1c.55,1.88,1.4,3.61,2.09,5.43.09.26.24.56.52.58s.43-.21.58-.42l4.92-7.12c.42-.62.84-1.23,1.27-1.84.22-.33.71-.74.7-1.17,0-.78-1.12-.76-1.69-.79-1.47-.07-2.93-.2-4.39-.23C237.57,0,236,0,234.35.05ZM162,4.71a.85.85,0,0,0-.57.29c-.19.26-.07.62,0,.92.52,1.22,1,2.45,1.58,3.66.25.59.8,1.32,1.54,1a2.22,2.22,0,0,0,.72-.58,117,117,0,0,0,7.91-9c.11-.15.22-.33.14-.49A.5.5,0,0,0,173,.28a46.45,46.45,0,0,0-8.67-.15c-3,.06-5.94.1-8.9.19A2.33,2.33,0,0,0,154,.7c-.66.57,0,1.47.24,2.06.49,1,1,2,1.53,3,1.06,1.94,2.21,3.83,3.33,5.73,1.33,2.29,2.73,4.55,4.17,6.78.16.24.36.51.64.53s.55-.22.75-.44c3.2-3.63,6.2-7.44,9-11.36.68-.94,1.35-1.89,2-2.85a8.21,8.21,0,0,0,1.57-2.47.48.48,0,0,0-.29-.56c-.24-.06-.46.15-.62.34-2,2.36-3.57,5.09-5.49,7.5l-3.19,4c-1,1.23-1.88,2.47-2.93,3.62s-2.37-1.77-2.81-2.49c-1.16-1.87-2.24-3.79-3.29-5.72-.53-1-1.06-2-1.58-3-.27-.5-.5-1-.8-1.51a5.33,5.33,0,0,1-.64-1,.84.84,0,0,1,.25-1,1.29,1.29,0,0,1,.65-.13l14.06-.28a.72.72,0,0,1,.59.16c.45.53-1.66,2.27-2,2.55-1.63,1.52-2.95,3.24-4.48,4.85-.12.13-.28.27-.45.23A.56.56,0,0,1,164,9c-.45-.71-.77-1.54-1.16-2.3a2.39,2.39,0,0,1-.2-.53c-.28-1.28,2-.41,2.7-.85a.47.47,0,0,0,.18-.62.6.6,0,0,0-.68-.13C164,4.78,163,4.5,162,4.71ZM191.57.07h-8.49a1.35,1.35,0,0,0-.91.22A.66.66,0,0,0,182,.6a1.08,1.08,0,0,0,0,.59c.13.56.42,1.16.61,1.73.25.77.53,1.54.82,2.31.78,2.06,1.62,4.1,2.54,6.12q1,2.21,2.12,4.38c.33.65,1.24,3.31,2.14,3.26a1,1,0,0,0,.64-.43c2.5-2.91,5-5.79,7.48-8.76q1.83-2.24,3.57-4.54c.57-.77,1.13-1.54,1.68-2.32.32-.46,1.45-1.57,1-2.17a.7.7,0,0,0-.88-.09,2.06,2.06,0,0,0-.63.71,99.82,99.82,0,0,1-12.13,15.13,1,1,0,0,1-.55.34c-.36,0-.61-.37-.76-.71q-1.77-3.91-3.42-7.9c-.55-1.34-1.1-2.69-1.63-4-.38-1-1.46-2.37.21-2.52,2.15-.21,4.3-.41,6.47-.46.8,0,5.46-.4,5.59.64.05.35-.92,1.19-1.14,1.47-.47.59-1,1.18-1.43,1.76-1,1.15-2,2.29-3,3.39-.15.16-.33.34-.55.32s-.42-.32-.52-.58c-.26-.7-.53-1.4-.8-2.1s-.42-1.44.11-1.85a1.43,1.43,0,0,1,1.15-.13,2.51,2.51,0,0,0,1.18.09c.32-.1.68-.51.51-.86S191.48,3,191.2,3a9,9,0,0,0-2.64.07c-.44.06-.95.21-1.08.63a1.35,1.35,0,0,0,.07.74c.59,1.89,1.18,3.77,1.76,5.66.14.43.35.93.79,1s.79-.28,1.07-.6L195.9,5l2.37-2.72c.43-.49,1.46-1.36,1.11-2.08-.19-.39-3.43-.19-3.9-.19C194.18.07,192.87.07,191.57.07Zm98.16,7c-.39-.49-.75-1-1.09-1.52-.73-1.13.9-1.15,1.67-1.33a.67.67,0,0,0,.45-.24.44.44,0,0,0-.24-.57,1.29,1.29,0,0,0-.68-.06l-2,.18a2.07,2.07,0,0,0-.61.12.65.65,0,0,0-.39.45c-.06.36.34,1,.48,1.29a21.74,21.74,0,0,0,1,2.06,10.89,10.89,0,0,0,1.13,2.07.93.93,0,0,0,1,.32,1.37,1.37,0,0,0,.58-.61l3.6-5.75c.43-.68,2.81-3.45.6-3.48-5-.06-10,.09-15,.17-2.62.05.13,3.06.63,3.9q2.09,3.5,4.26,6.93,1.28,2,2.58,4c.45.68.94,1.35,1.35,2a8.62,8.62,0,0,0,.93,1.58.83.83,0,0,0,.83.26,1.18,1.18,0,0,0,.57-.61c1.53-2.72,3-5.45,4.62-8.14,1.69-2.86,3.44-5.69,5.31-8.44a1,1,0,0,0,.21-.59.45.45,0,0,0-.4-.44c-.64,0-1.13,1.24-1.43,1.67C298.39,4.2,297.16,6,296,7.9l-2.61,4.25c-.75,1.22-1.44,2.46-2.18,3.67l-.31.5c-.1.17-.25.36-.45.35-.42,0-.88-1.29-1.06-1.6l-1.32-2.29c-1.1-1.91-2.33-3.84-3.5-5.75-.62-1-1.23-2-1.82-3.06-.33-.6-1.7-2.17-.42-2.25,2.48-.14,5-.44,7.47-.43.59,0,3.91-.43,4.06.42a.79.79,0,0,1-.17.54l-2.84,4.69c-.14.24-.35.52-.63.49A.72.72,0,0,1,289.73,7.08ZM35.45,18.9a17.34,17.34,0,0,0,1.07-2.26l1.16-2.51c.51-1.13,1-2.28,1.56-3.39a88.33,88.33,0,0,0,4.09-9.56c.13-.37.23-.86-.08-1.09a.64.64,0,0,0-.78.1,2,2,0,0,0-.42.73q-3,7.73-6.68,15.16c-.13.27-.32.57-.61.56s-.46-.31-.58-.57c-1-2.33-2-4.7-2.9-7.1-.71-1.92-1.41-3.82-2.19-5.72A1.41,1.41,0,0,1,29,2.06c.23-.41.78-.48,1.25-.5,2.11-.1,4.22-.14,6.33-.17.16,0,.35,0,.43.15a.47.47,0,0,1,0,.35q-.66,2.6-1.5,5.13c-.07.22-.21.49-.44.47s-.32-.25-.38-.44c-.27-.78-.53-1.57-.79-2.35a.64.64,0,0,1,0-.6c.2-.24.59-.07.88-.16.55-.15.39-.68.07-.95a.75.75,0,0,0-.17-.1A2,2,0,0,0,33.23,3c-1,.35-1,1-.69,1.94.4,1.46.87,2.9,1.34,4.35.15.47.42.87,1,.82a1,1,0,0,0,.9-.67c.86-2.42,2-4.75,2.61-7.25.39-1.5.14-2-1.36-2.1C34.33,0,31.59,0,28.86.1c-1.38.06-1.69.71-1.37,2.17a32.67,32.67,0,0,0,1.25,3.61c.49,1.44,1,2.87,1.49,4.3,1,2.8,2.16,5.57,3.38,8.29.17.37.39.79.78.91A1,1,0,0,0,35.45,18.9ZM52.44.05c-.83,0-1.66.06-2.48.12a19.61,19.61,0,0,0-2,0,.76.76,0,0,0-.59.46,1.07,1.07,0,0,0,.09.72c.51,1.39,1,2.77,1.49,4.16S50,8.4,50.61,9.83c1.14,2.82,2.34,5.62,3.52,8.42a1.55,1.55,0,0,0,.62.85.81.81,0,0,0,.61.06,1.78,1.78,0,0,0,.94-.73c1.81-2.64,3.77-5.21,5.75-7.74C63.12,9.32,64.2,8,65.23,6.55a28.46,28.46,0,0,1,2.93-3.8c.54-.52.94-.86.35-1.6-.28-.36-.74-.21-1.07.06a7.83,7.83,0,0,0-1.22,1.15L60.83,9.45c-1.79,2.38-3.62,4.66-5.27,7.15-.1.14-.21.29-.38.31s-.28-.5-.35-.67L49.37,2.67a1.14,1.14,0,0,1-.12-.6c.12-.77,4.37-.42,5.11-.43l5.93-.09c.28,0,.94,0,1,.42a.88.88,0,0,1-.24.58c-.74,1-1.5,2-2.21,3.08L57.72,7.19c-.25.36-.51.72-.75,1.09a8.94,8.94,0,0,1-.56,1.07.46.46,0,0,1-.6.11.62.62,0,0,1-.2-.34l-1-3a.39.39,0,0,1,0-.38.36.36,0,0,1,.32-.11c.85,0,1.73-.21,2.57-.21A.57.57,0,0,0,58,4.75a.63.63,0,0,0-.67-.55,28.49,28.49,0,0,0-3.32.16,1.07,1.07,0,0,0-.72.27,1,1,0,0,0,0,1c.54,1.88,1.4,3.61,2.08,5.43.09.26.24.56.52.58s.43-.21.58-.42l4.92-7.12c.42-.62.84-1.23,1.27-1.84.22-.33.72-.74.7-1.17,0-.78-1.12-.76-1.69-.79C60.2.19,58.75.06,57.28,0S54.05,0,52.44.05ZM80.81,6.52c-.29-.7-.76-1.6.19-2,.44-.19,1.3.06,1.57-.41a.4.4,0,0,0-.15-.55.66.66,0,0,0-.25,0,17,17,0,0,0-3.1.32,1,1,0,0,0-.43.17.42.42,0,0,0-.14.18.74.74,0,0,0,.07.5c.78,1.89,1.59,3.77,2.39,5.64.18.42.48.92.93.87s.59-.4.75-.72L86,4c.5-1,2.53-3.67.26-3.87C84.79,0,83.34,0,81.89,0c-2.57,0-5.13.08-7.7.1-.75,0-1,.4-.93,1.06a4.5,4.5,0,0,0,.3,1.16c2.23,5.57,4.35,11.13,7.51,16.25.19.3.47.65.82.59s.43-.3.56-.53q2.85-4.94,5.69-9.88c0-.41.74-1.28,1-1.66l1-1.66c.59-1,1.24-2,1.89-3A7.48,7.48,0,0,0,92.87,1a.83.83,0,0,0-.32-1c-.52-.25-1,.3-1.36.78Q86.54,8,82.29,15.41c-.13.23-.33.5-.59.46s-.34-.22-.44-.39a115.29,115.29,0,0,1-6-12.5,1.62,1.62,0,0,1-.19-.56.65.65,0,0,1,.19-.55,1,1,0,0,1,.58-.15c1.46-.05,2.92-.09,4.38-.09a28.77,28.77,0,0,0,4-.12c.31-.06.7,0,.84.26a.88.88,0,0,1-.12.76L82.39,7.61c-.09.18-.2.38-.4.43C81.39,8.19,81,6.9,80.81,6.52ZM8.9,18.56c2.5-2.91,5-5.79,7.48-8.76C17.6,8.31,18.8,6.8,20,5.26c.57-.77,1.13-1.54,1.68-2.32.32-.46,1.45-1.57,1-2.17a.7.7,0,0,0-.88-.09,2.06,2.06,0,0,0-.63.71A99.82,99.82,0,0,1,9,16.52a1,1,0,0,1-.54.34c-.37,0-.61-.37-.77-.71q-1.77-3.91-3.42-7.9c-.55-1.34-1.1-2.69-1.63-4-.38-1-1.46-2.37.21-2.52C5,1.47,7.13,1.27,9.29,1.22c.8,0,5.46-.4,5.59.64,0,.35-.92,1.19-1.14,1.47-.47.59-1,1.18-1.43,1.76-1,1.15-2,2.29-3,3.39-.15.16-.33.34-.55.32s-.42-.32-.52-.58c-.26-.7-.53-1.4-.8-2.1S7,4.68,7.56,4.27a1.43,1.43,0,0,1,1.15-.13,2.51,2.51,0,0,0,1.18.09c.32-.1.68-.51.51-.86S9.57,3,9.29,3A9,9,0,0,0,6.65,3c-.44.06-1,.21-1.08.63a1.27,1.27,0,0,0,.08.74c.58,1.89,1.17,3.77,1.76,5.66.13.43.34.93.78,1s.79-.28,1.07-.6L14,5l2.37-2.72C16.79,1.83,17.82,1,17.47.24,17.28-.15,14,.05,13.57.05c-1.3,0-2.61,0-3.91,0H1.17A1.35,1.35,0,0,0,.26.29.66.66,0,0,0,.05.6a1.18,1.18,0,0,0,0,.59c.13.56.42,1.16.61,1.73.25.77.53,1.54.82,2.31Q2.63,8.32,4,11.35q1,2.21,2.12,4.38C6.46,16.38,7.36,19,8.27,19A1,1,0,0,0,8.9,18.56ZM107.82,7.08c-.39-.49-.75-1-1.09-1.52-.73-1.13.9-1.15,1.68-1.33a.65.65,0,0,0,.44-.24.44.44,0,0,0-.24-.57,1.29,1.29,0,0,0-.68-.06l-2,.18a2.13,2.13,0,0,0-.61.12.67.67,0,0,0-.39.45c-.06.36.35,1,.48,1.29a21.74,21.74,0,0,0,1,2.06,11.47,11.47,0,0,0,1.13,2.07.93.93,0,0,0,1,.32,1.4,1.4,0,0,0,.58-.6l3.6-5.76c.43-.68,2.81-3.45.6-3.48-5-.06-10,.09-15,.17-2.62.05.13,3.06.63,3.9Q101,7.58,103.18,11q1.27,2,2.58,4c.45.68.94,1.35,1.35,2a8.14,8.14,0,0,0,.94,1.58.8.8,0,0,0,.82.26,1.18,1.18,0,0,0,.57-.61c1.53-2.72,3-5.45,4.62-8.14,1.69-2.86,3.44-5.69,5.31-8.44a1,1,0,0,0,.21-.59.45.45,0,0,0-.4-.44c-.64,0-1.13,1.24-1.43,1.67-1.27,1.83-2.5,3.63-3.67,5.53l-2.61,4.25c-.75,1.22-1.43,2.46-2.18,3.67l-.31.5c-.1.17-.25.36-.45.35-.41,0-.88-1.29-1.06-1.6l-1.32-2.29c-1.1-1.91-2.33-3.84-3.5-5.75C102,6,101.42,5,100.83,4c-.33-.6-1.69-2.17-.41-2.25,2.47-.14,5-.44,7.46-.43.59,0,3.91-.43,4.07.42a.85.85,0,0,1-.17.54l-2.85,4.69c-.14.25-.35.52-.62.49A.72.72,0,0,1,107.82,7.08Z"/></svg>