<svg id="a8a24be4-a82d-4125-a815-366815a0238d" data-name="Layer 1" xmlns="http://www.w3.org/2000/svg" viewBox="0 0 498.97 35.81"><defs><style>.a3d641f7-e4ad-4223-aea3-9eb858d29f66{fill:#3e342f;}</style></defs><path class="a3d641f7-e4ad-4223-aea3-9eb858d29f66" d="M472.12,10.76a3.13,3.13,0,0,0,2.07,1.07,3.32,3.32,0,0,0,3.11-2.41A2.36,2.36,0,0,0,476.46,7a1.47,1.47,0,0,0-1.41-.21,1,1,0,0,0-.5,1.25c.12.22.35.39.39.64a.58.58,0,0,1-.59.61.93.93,0,0,1-.76-.51,2.31,2.31,0,0,1,.22-2.54,2,2,0,0,1,1-.57,2.93,2.93,0,0,1,2.36.38,3.84,3.84,0,0,1,.85,5.07c-1.06,1.73-3.66,2-5.41,1.27a3.94,3.94,0,0,1-1.39-1,1.37,1.37,0,0,1-.3-.45.53.53,0,0,1,.09-.5.54.54,0,0,1,.63,0,1,1,0,0,1,.26.21C472,10.59,472,10.68,472.12,10.76Zm-126.51-.24a1,1,0,0,0-.26-.21.54.54,0,0,0-.63,0,.53.53,0,0,0-.09.5,1.37,1.37,0,0,0,.3.45,3.94,3.94,0,0,0,1.39,1c1.75.76,4.35.46,5.41-1.27A3.84,3.84,0,0,0,350.88,6a2.93,2.93,0,0,0-2.36-.38,1.94,1.94,0,0,0-1,.57,2.31,2.31,0,0,0-.22,2.54.93.93,0,0,0,.76.51.58.58,0,0,0,.59-.61c0-.25-.27-.42-.39-.64a1,1,0,0,1,.5-1.25,1.47,1.47,0,0,1,1.41.21A2.38,2.38,0,0,1,351,9.42a3.33,3.33,0,0,1-3.11,2.41,3.13,3.13,0,0,1-2.07-1.07C345.76,10.68,345.69,10.59,345.61,10.52Zm-126.28,0a1.09,1.09,0,0,0-.27-.21.46.46,0,0,0-.71.54,1.37,1.37,0,0,0,.3.45,3.94,3.94,0,0,0,1.39,1c1.75.76,4.35.46,5.41-1.27A3.84,3.84,0,0,0,224.6,6a2.93,2.93,0,0,0-2.36-.38,1.94,1.94,0,0,0-1,.57A2.31,2.31,0,0,0,221,8.73a.93.93,0,0,0,.76.51.58.58,0,0,0,.59-.61c0-.25-.27-.42-.39-.64a1,1,0,0,1,.5-1.25A1.47,1.47,0,0,1,223.9,7a2.38,2.38,0,0,1,.84,2.47,3.33,3.33,0,0,1-3.11,2.41,3.18,3.18,0,0,1-2.08-1.07A2.5,2.5,0,0,0,219.33,10.52ZM148.3,16a1.23,1.23,0,0,1-.83-.22,1.25,1.25,0,0,1-.29-.89,33.83,33.83,0,0,0-.56-7,10,10,0,0,0-3-5A11.23,11.23,0,0,0,136.49,0a8.69,8.69,0,0,0-6.89,3.2,5.47,5.47,0,0,0-.87,2.49c-.7,4.24,2.26,8.63,6.71,8.84a6.23,6.23,0,0,0,3.39-.8,5,5,0,0,0,2.33-3.22,7.2,7.2,0,0,0,.15-1.31,5.23,5.23,0,0,0-2.51-4.43,5.41,5.41,0,0,0-6.4.81c-1.53,1.51-.67,4.09,1.11,5a2.83,2.83,0,0,0,2.71-.05,1.07,1.07,0,0,0,.44-.43.51.51,0,0,0-.06-.58c-.23-.25-.64-.11-1,0a2.22,2.22,0,0,1-1.25,0,2,2,0,0,1-1.27-2.4,2.71,2.71,0,0,1,2-1.84,3.52,3.52,0,0,1,3.35.89,4.22,4.22,0,0,1,1.07,4.12,4,4,0,0,1-2.84,2.74A5.67,5.67,0,0,1,132.2,12a5.64,5.64,0,0,1-1.95-3.21,6.27,6.27,0,0,1,.1-3.64,6.31,6.31,0,0,1,5-3.63A8.68,8.68,0,0,1,143.73,5a13,13,0,0,1,1.69,4.14,16.38,16.38,0,0,1,.49,3.11,12.51,12.51,0,0,1,0,1.62,3.57,3.57,0,0,1-.11,1.22c-.27.73-1,.76-1.67.86a18.4,18.4,0,0,1-3.71,0h-1.25l-12.34.21a1.65,1.65,0,0,1-1.36-.4,1.59,1.59,0,0,1-.24-1c0-1.53.18-3,.23-4.54a12,12,0,0,0-.67-4.33A7.93,7.93,0,0,0,117.33.56a7,7,0,0,0-5.69,2.66,6.61,6.61,0,0,0-.6,7.32A5.76,5.76,0,0,0,118,12.59a4.76,4.76,0,0,0,2.92-5,3.79,3.79,0,0,0-.71-1.6,4.22,4.22,0,0,0-3.12-1.78,3.35,3.35,0,0,0-3.07,5,2,2,0,0,0,3.21,0,1.15,1.15,0,0,0,.32-1.06c-.11-.37-.63-.6-.91-.33s-.17.44-.29.64a.83.83,0,0,1-1.13.24,1.37,1.37,0,0,1-.6-1.09,2.18,2.18,0,0,1,1.48-2.11,2.64,2.64,0,0,1,2.58.6,3.33,3.33,0,0,1,1,2.5,3.05,3.05,0,0,1-1.83,2.6,4.36,4.36,0,0,1-5.19-.5c-1.59-1.69-1.35-4.64-.22-6.5a5.71,5.71,0,0,1,4.11-2.56A6.42,6.42,0,0,1,122.37,4a11.73,11.73,0,0,1,2,6.45c0,1.28-.33,4.76-1.63,5.45-1,.52-3.8.28-4.91.25-2.1-.05-4.2-.18-6.3-.37-1.52-.14-6,.3-5.63-2.12a16.31,16.31,0,0,0,.07-2,19,19,0,0,0-.32-4.06,8.88,8.88,0,0,0-3-5.27,9.06,9.06,0,0,0-10.09-.48c-2.08,1.38-2.49,4.44-1.82,6.7.16.56.52,1.19,1.1,1.2s.23-1.17.1-1.5A4.89,4.89,0,0,1,92.26,4,5.58,5.58,0,0,1,97.2,1.84,7.75,7.75,0,0,1,103,4.89a9.6,9.6,0,0,1,1.66,4.63,19.26,19.26,0,0,1,.07,3.13c0,.53-.06,1-.1,1.57,0,.3,0,.78-.18,1a.77.77,0,0,1-.59.17l-17.15.38a.53.53,0,0,1-.46-.13.49.49,0,0,1-.09-.33,43.09,43.09,0,0,0-.3-6.53,9.32,9.32,0,0,0-5-7,10.15,10.15,0,0,0-7.58-.35,6.91,6.91,0,0,0-3.83,3.24,7.52,7.52,0,0,0-.16,5.71,6.28,6.28,0,0,0,2.84,3.54c3.57,2.2,8.88-1.55,7.49-5.66a4.12,4.12,0,0,0-.9-1.52,3.56,3.56,0,0,0-3-1.16,3,3,0,0,0-2.42,2,2.57,2.57,0,0,0,1.18,3.16,1.53,1.53,0,0,0,1.12.18c.25-.07.5-.26.5-.52s-.25-.46-.49-.59A3.19,3.19,0,0,1,74.54,9a1.41,1.41,0,0,1,0-1.62,1.84,1.84,0,0,1,1.49-.73,2.64,2.64,0,0,1,1.59.59c1.91,1.49,1.11,4.35-.83,5.37a4.71,4.71,0,0,1-4.6-.14,5.36,5.36,0,0,1-2-3.5,5.62,5.62,0,0,1,2-5.66,6.15,6.15,0,0,1,1.81-1,8.51,8.51,0,0,1,6.11.44,8.31,8.31,0,0,1,1.34.74,8.45,8.45,0,0,1,3.25,5.23,19,19,0,0,1,.23,5.53,2.71,2.71,0,0,1-.41,1.53c-.31.3-.92.25-1.32.27-6.08.34-12.18,0-18.27.21a1.35,1.35,0,0,1-1-.23c-.43-.39-.23-1.38-.23-1.91,0-1.24.07-2.49,0-3.73-.06-2.28-.21-5-1.6-7a6.69,6.69,0,0,0-3.64-2.41A11.67,11.67,0,0,0,54.13.77a10.27,10.27,0,0,0-3.61,1A5.36,5.36,0,0,0,48,4.34a8.48,8.48,0,0,0-.5,2.4A6.32,6.32,0,0,0,50,12.42a5.47,5.47,0,0,0,6.38.22,3.35,3.35,0,0,0,.49-.43A4.8,4.8,0,0,0,58,7.7a4,4,0,0,0-.32-.84,3.69,3.69,0,0,0-.93-1.18A3.57,3.57,0,0,0,53.23,5a3.06,3.06,0,0,0-1.92,3,2.65,2.65,0,0,0,2.51,2.38,1.17,1.17,0,0,0,.77-.23.58.58,0,0,0,.14-.74c-.19-.27-.59-.25-.92-.3a1.49,1.49,0,0,1-1.28-1.73A1.76,1.76,0,0,1,54.42,6.3a3,3,0,0,1,2.16,1.24,2.91,2.91,0,0,1-1.09,4.31,3.37,3.37,0,0,1-2.53.37,4.92,4.92,0,0,1-3.44-2A6.19,6.19,0,0,1,49,6a4.6,4.6,0,0,1,1.56-2.67,5.62,5.62,0,0,1,1.68-.88,9.36,9.36,0,0,1,7,.43,5.55,5.55,0,0,1,.94.56c2,1.47,2.22,4.29,2.25,6.55,0,1.48.07,3,0,4.45s-.16,1.7-1.78,1.73c-6,.09-12,0-18-.19a1.1,1.1,0,0,1-.54-.12,1,1,0,0,1-.33-.72A17.25,17.25,0,0,1,42,11.51,14.71,14.71,0,0,0,41.8,5.6a7.34,7.34,0,0,0-3.3-4.27A8.62,8.62,0,0,0,37.3.79a10.92,10.92,0,0,0-7.39-.2A7.49,7.49,0,0,0,25.08,6a9.84,9.84,0,0,0-.15,1.33,6.13,6.13,0,0,0,7.36,6.3,4.51,4.51,0,0,0,2.91-1.95,5.12,5.12,0,0,0,.42-4,3.67,3.67,0,0,0-.72-1.14A3.91,3.91,0,0,0,31.81,5.2C29.61,5.37,28,8.12,30,9.7a1,1,0,0,0,.51.24A.63.63,0,0,0,31.1,9c-.12-.21-.35-.33-.51-.51a1,1,0,0,1-.28-.76,1.24,1.24,0,0,1,.54-.93,2,2,0,0,1,1-.33,2.8,2.8,0,0,1,2.19,1,3,3,0,0,1-.38,4.18,4.46,4.46,0,0,1-3.08.86,4.83,4.83,0,0,1-2.84-1,5.18,5.18,0,0,1-1.55-4.51,7,7,0,0,1,.26-1.29,6.5,6.5,0,0,1,3.71-3.89,9,9,0,0,1,5.44-.35,6,6,0,0,1,3.42,2,8.34,8.34,0,0,1,1.69,3.47A10.41,10.41,0,0,1,41,9.61c0,.85-.26,1.66-.32,2.49a23.1,23.1,0,0,1-.44,2.62c-.1.52-.22,1-.79,1.09a8.53,8.53,0,0,1-2.14.07c-1.81-.08-3.62.12-5.43.19-1.47.06-2.94,0-4.41,0L22,16a1.27,1.27,0,0,1-.84-.22,1.24,1.24,0,0,1-.28-.89,33.83,33.83,0,0,0-.56-7,10.09,10.09,0,0,0-3-5A11.23,11.23,0,0,0,10.21,0,8.69,8.69,0,0,0,3.32,3.2a5.47,5.47,0,0,0-.87,2.49c-.7,4.24,2.26,8.63,6.71,8.84a6.2,6.2,0,0,0,3.38-.8,5,5,0,0,0,2.34-3.22A7.2,7.2,0,0,0,15,9.2a5.23,5.23,0,0,0-2.51-4.43,5.41,5.41,0,0,0-6.4.81c-1.53,1.51-.67,4.09,1.1,5a2.85,2.85,0,0,0,2.72-.05,1.07,1.07,0,0,0,.44-.43.51.51,0,0,0-.06-.58c-.23-.25-.64-.11-1,0a2.21,2.21,0,0,1-1.25,0,2,2,0,0,1-1.26-2.4,2.71,2.71,0,0,1,2-1.84,3.52,3.52,0,0,1,3.35.89,4.24,4.24,0,0,1,1.07,4.12,4,4,0,0,1-2.84,2.74A5.67,5.67,0,0,1,5.92,12,5.64,5.64,0,0,1,4,8.77a6.27,6.27,0,0,1,.1-3.64A6.31,6.31,0,0,1,9,1.5,8.68,8.68,0,0,1,17.45,5a13,13,0,0,1,1.69,4.14,17.21,17.21,0,0,1,.49,3.11,12.51,12.51,0,0,1,0,1.62,3.57,3.57,0,0,1-.11,1.22c-.27.73-1,.76-1.67.86a18.51,18.51,0,0,1-3.72,0H12.87c-2.83.05-5.66.21-8.49.29-.9,0-3-.36-3.77,0-1.39.66-.07,1.39.67,1.5a24.13,24.13,0,0,0,4.5.05c1.71-.1,3.41-.11,5.12-.08,3.32.06,6.64.28,10,.28,1.6,0,3.2,0,4.8,0,1.22,0,1.28.1,1.6,1.32.09.35.15.71.21,1.07a23.81,23.81,0,0,1,.22,6.42,10.15,10.15,0,0,1-1.14,4.29,6.85,6.85,0,0,1-3.18,2.56,6.22,6.22,0,0,1-3.71.54,7.08,7.08,0,0,1-3-1.1c-2.44-1.66-3.68-5.78-1.36-8,2-2,6.67-2.45,7.82.76.72,2-1.05,5.34-3.53,4.26A1.64,1.64,0,0,1,18.75,28a.75.75,0,0,1,.72-.44c.49.08.67.82,1.17.85.95.05.46-1.19.1-1.52-1.45-1.3-3.68.23-3.42,2a3.57,3.57,0,0,0,1,1.95,2.28,2.28,0,0,0,.46.36c1.37.8,3.28.15,4.33-.85a5.11,5.11,0,0,0,1.3-4.6,4.58,4.58,0,0,0-2.19-3.18,5.84,5.84,0,0,0-3-.61,7.75,7.75,0,0,0-3.88,1.1,5.9,5.9,0,0,0-2.65,4.74,10.72,10.72,0,0,0,.74,4.11,5.68,5.68,0,0,0,2.42,2.66,9.67,9.67,0,0,0,9.41,0c2.38-1.25,3.71-4,4.18-6.57a17.21,17.21,0,0,0,.15-4.42,38,38,0,0,0-.32-4,2.43,2.43,0,0,1-.08-1c.13-.67.67-.66,1.22-.7l2.26-.11c1.53-.05,3.07-.06,4.6-.06,3.05,0,6.09.11,9.13.14,1.57,0,1.64.14,1.85,1.78A29.71,29.71,0,0,1,48.49,23c.07,2.82-.42,5.48-2.46,7.63a6.62,6.62,0,0,1-10.37-.95,5.35,5.35,0,0,1-1-3.49,5.05,5.05,0,0,1,2.83-4.36,4.6,4.6,0,0,1,4-.13,4.08,4.08,0,0,1,2.23,2.53A3.57,3.57,0,0,1,43,27.46a2.8,2.8,0,0,1-1.75,1,2.23,2.23,0,0,1-1.9-.6A2.06,2.06,0,0,1,38.79,26c.12-.5.57-1,1.07-.88s.73.63,1.17.56.53-.56.41-.92a1.46,1.46,0,0,0-1-.87,3,3,0,0,0-1.86,0c-1.75.86-1.53,3.8-.27,5a3.31,3.31,0,0,0,1.51.75,4.59,4.59,0,0,0,5.36-3.46,6.22,6.22,0,0,0-1-4.11,6.1,6.1,0,0,0-7.72-1.45,8.87,8.87,0,0,0-2.11,1.86,5.69,5.69,0,0,0-1.33,4,7.91,7.91,0,0,0,.19,2.17,6.89,6.89,0,0,0,2,3.48,8.69,8.69,0,0,0,8.45,1.67,10.1,10.1,0,0,0,6.65-9.33c.08-1.88,0-3.78,0-5.66a.87.87,0,0,1,.07-.42c.25-.46,1.34-.25,1.75-.25,5.45,0,10.9.08,16.35.09.69,0,1.09.22,1.24.91.66,3.09.73,6.63-.9,9.44A7.54,7.54,0,0,1,63.43,32a7.92,7.92,0,0,1-3.62-.26,6.1,6.1,0,0,1-4.22-6.2,3.6,3.6,0,0,1,.82-2c1.55-1.73,5.28-1.88,7-.3a2.73,2.73,0,0,1,.45,3.45,2.35,2.35,0,0,1-2.2,1.17A1.87,1.87,0,0,1,60,26.09c0-.3.16-.67.47-.68s.55.38.87.36a.44.44,0,0,0,.37-.31.72.72,0,0,0-.06-.5,1.29,1.29,0,0,0-1.21-.64,1.77,1.77,0,0,0-1.72,1.8,3.14,3.14,0,0,0,2,2.65,3.37,3.37,0,0,0,2.42.12,4,4,0,0,0,2.42-5.06A4.81,4.81,0,0,0,62.46,21,7.93,7.93,0,0,0,58.19,21a5.1,5.1,0,0,0-3.8,3.29,6.63,6.63,0,0,0,.22,5c1.18,2.65,4.31,4.95,7.3,4.75a12.32,12.32,0,0,0,5.62-1.69,9.12,9.12,0,0,0,4-5.58,23.17,23.17,0,0,0,.28-8c0-.37,0-.61.41-.66A12.62,12.62,0,0,1,73.56,18c.89,0,1.76,0,2.64,0l4.71-.06,4.72-.07,2.37,0c.4,0,1.44-.22,1.75.11a.77.77,0,0,1,.17.53l.12,2c.17,2.71.21,5.68-1.3,8.06a6.49,6.49,0,0,1-9.24,1.93A5.82,5.82,0,0,1,77,26.93c-.34-1.56-.28-3.57.92-4.78l.13-.12c1.39-1.24,4.49-1.15,5.68.37.94,1.19,1,3.77-1,3.77a1.63,1.63,0,0,1-1.55-1.25.64.64,0,0,1,.2-.69c.39-.24.91.28,1.32.09s.32-.58.17-.88a1.43,1.43,0,0,0-1.76-.6A1.88,1.88,0,0,0,80,24.43a2.89,2.89,0,0,0,1.42,2.65A2.76,2.76,0,0,0,85.49,26a4.45,4.45,0,0,0,.32-2.81,3.54,3.54,0,0,0-.65-1.53,4,4,0,0,0-1.06-.85,6.8,6.8,0,0,0-3.36-.85,4.8,4.8,0,0,0-3.18.91,6.88,6.88,0,0,0-2.15,4.67,7.54,7.54,0,0,0,2.2,5.09,7.12,7.12,0,0,0,3.29,2.1,9.86,9.86,0,0,0,2.17.29,7.51,7.51,0,0,0,2.31-.28c4.26-1.09,6.51-4.42,6.63-8.79,0-1.07.06-2.14,0-3.21,0-.87-.11-1.72-.11-2.6a.61.61,0,0,1,0-.27.57.57,0,0,1,.52-.2L96,17.5l3.26-.11c1.73,0,3.48.1,5.16.15,2,.06,3.9.29,5.85.38a7.09,7.09,0,0,1,.17,1.26,15.15,15.15,0,0,1,.13,2.52,16.27,16.27,0,0,1-1,5,8.2,8.2,0,0,1-3.35,4.33,7.54,7.54,0,0,1-6.32.57,5.58,5.58,0,0,1-3.14-3.91,7.25,7.25,0,0,1-.18-3.64A5.79,5.79,0,0,1,97,23a3.33,3.33,0,0,1,1.9-1.63,5.85,5.85,0,0,1,2.53-.26,6,6,0,0,1,2.28.59,2.9,2.9,0,0,1,.36,5.11,2.67,2.67,0,0,1-3.12-.62,1.54,1.54,0,0,1-.38-1.3.68.68,0,0,1,.23-.38.65.65,0,0,1,.58,0,.82.82,0,0,1,.51.5c.11.34-.11.84.38.92,1.32.2.89-2,.27-2.52a2.08,2.08,0,0,0-3,.07c-1.09,1.17-.24,3.15.82,4a4.73,4.73,0,0,0,3.18.93,4.55,4.55,0,0,0,.74-.11,3.66,3.66,0,0,0,2.43-2.17,5,5,0,0,0,.13-3.32,4.61,4.61,0,0,0-.57-1.26,4.76,4.76,0,0,0-2.62-1.73,8.07,8.07,0,0,0-6.29.61,5.83,5.83,0,0,0-2.59,4.71,11.24,11.24,0,0,0,.77,4.26c0,.14.1.29.16.43,1.48,3.36,5.44,4.1,8.71,3.37a9.69,9.69,0,0,0,5.87-4.1,11,11,0,0,0,1.64-4.23,23.93,23.93,0,0,0,.16-4.4,5.63,5.63,0,0,1,.1-2.47c1.72.06,3.45.13,5.17.16,4.21.07,8.42,0,12.64,0,1.74,0,2,.25,2.35,1.87A31.78,31.78,0,0,1,133,24.6a9.7,9.7,0,0,1-.27,4c-1.65,4.06-7.23,5.81-11,3.65-3-1.72-4.29-5.91-1.92-8.65a4.37,4.37,0,0,1,4-1.5,4.42,4.42,0,0,1,3.42,2.37c1,2,.31,5.06-2.25,5.3a2.46,2.46,0,0,1-2.62-1.72,1.94,1.94,0,0,1-.13-1,.9.9,0,0,1,.63-.72c.67-.14.71.32,1.21.51a.7.7,0,0,0,.89-.71c0-1.08-1.64-1.5-2.47-1.12a2.5,2.5,0,0,0-1.39,2.5,3.78,3.78,0,0,0,3.08,3.26,3.74,3.74,0,0,0,4.33-2.34,5.86,5.86,0,0,0-.82-5.95A6.27,6.27,0,0,0,120,21.26a6.44,6.44,0,0,0-2.63,4.12,7.75,7.75,0,0,0,1.73,6.8,9,9,0,0,0,1.31,1.23c2.59,1.88,6.46,1.76,9.28.43a8.07,8.07,0,0,0,4.46-5,11.77,11.77,0,0,0,.52-2.89c.15-2.31-.2-4.61-.28-6.92a1.59,1.59,0,0,1,.07-.65c.23-.52.92-.37,1.36-.37,3.78,0,7.56,0,11.34,0,1.6,0,3.2,0,4.8,0,1.22,0,1.28.1,1.6,1.32.09.35.15.71.21,1.07a23.81,23.81,0,0,1,.22,6.42,10.15,10.15,0,0,1-1.14,4.29,6.85,6.85,0,0,1-3.18,2.56,6.22,6.22,0,0,1-3.71.54,7.08,7.08,0,0,1-3-1.1c-2.44-1.66-3.68-5.78-1.36-8,2-2,6.67-2.45,7.82.76.72,2-1,5.34-3.52,4.26A1.65,1.65,0,0,1,145,28a.75.75,0,0,1,.72-.44c.49.08.67.82,1.17.85,1,.05.46-1.19.1-1.52-1.45-1.3-3.68.23-3.41,2a3.49,3.49,0,0,0,1,1.95,2.09,2.09,0,0,0,.47.36c1.36.8,3.27.15,4.32-.85a5.08,5.08,0,0,0,1.3-4.6,4.58,4.58,0,0,0-2.19-3.18,5.82,5.82,0,0,0-3-.61,7.79,7.79,0,0,0-3.89,1.1,5.9,5.9,0,0,0-2.65,4.74,10.91,10.91,0,0,0,.74,4.11,5.68,5.68,0,0,0,2.42,2.66,9.68,9.68,0,0,0,9.42,0c2.37-1.25,3.7-4,4.17-6.57a17.21,17.21,0,0,0,.15-4.42,38,38,0,0,0-.32-4,2.43,2.43,0,0,1-.08-1c.13-.67.67-.66,1.22-.7l2.26-.11c1.53-.05,3.07-.06,4.61-.06,3,0,6.08.11,9.12.14,1.57,0,1.64.14,1.85,1.78a29.71,29.71,0,0,1,.29,3.25c.07,2.82-.42,5.48-2.46,7.63a6.62,6.62,0,0,1-10.37-.95,5.35,5.35,0,0,1-1-3.49,5,5,0,0,1,2.84-4.36,4.57,4.57,0,0,1,3.94-.13,4.08,4.08,0,0,1,2.23,2.53,3.57,3.57,0,0,1-.68,3.27,2.8,2.8,0,0,1-1.75,1,2.24,2.24,0,0,1-1.9-.6,2,2,0,0,1-.52-1.88c.11-.5.56-1,1.06-.88s.73.63,1.17.56.54-.56.41-.92a1.46,1.46,0,0,0-1-.87,3,3,0,0,0-1.86,0c-1.75.86-1.53,3.8-.27,5a3.31,3.31,0,0,0,1.51.75,4.59,4.59,0,0,0,5.36-3.46,6.22,6.22,0,0,0-1-4.11,6.1,6.1,0,0,0-7.72-1.45,8.87,8.87,0,0,0-2.11,1.86,5.79,5.79,0,0,0-1.33,4,7.91,7.91,0,0,0,.19,2.17,6.89,6.89,0,0,0,2,3.48A8.69,8.69,0,0,0,170,33.73a10.1,10.1,0,0,0,6.65-9.33c.08-1.88,0-3.78,0-5.66a.87.87,0,0,1,.07-.42c.25-.46,1.34-.25,1.75-.25,5.45,0,10.9.08,16.35.09.69,0,1.09.22,1.24.91.66,3.09.73,6.63-.9,9.44A7.54,7.54,0,0,1,189.71,32a7.86,7.86,0,0,1-3.61-.26,6.1,6.1,0,0,1-4.23-6.2,3.6,3.6,0,0,1,.82-2c1.55-1.73,5.28-1.88,7-.3a2.73,2.73,0,0,1,.45,3.45,2.34,2.34,0,0,1-2.2,1.17,1.87,1.87,0,0,1-1.66-1.74c0-.3.16-.67.47-.68s.55.38.87.36a.44.44,0,0,0,.37-.31.72.72,0,0,0-.06-.5,1.28,1.28,0,0,0-1.21-.64,1.77,1.77,0,0,0-1.72,1.8,3.14,3.14,0,0,0,2,2.65,3.37,3.37,0,0,0,2.42.12,4,4,0,0,0,2.42-5.06A4.81,4.81,0,0,0,188.74,21a7.93,7.93,0,0,0-4.27-.05,5.1,5.1,0,0,0-3.8,3.29,6.63,6.63,0,0,0,.22,5c1.19,2.65,4.31,4.95,7.3,4.75a12.32,12.32,0,0,0,5.62-1.69,9.12,9.12,0,0,0,4-5.58,23.17,23.17,0,0,0,.28-8c0-.37,0-.61.41-.66a12.77,12.77,0,0,1,1.38-.08c.89,0,1.76,0,2.64,0l4.71-.06,4.72-.07,2.37,0c.4,0,1.44-.22,1.76.11a.81.81,0,0,1,.16.53l.12,2c.17,2.71.21,5.68-1.3,8.06a6.49,6.49,0,0,1-9.24,1.93,5.86,5.86,0,0,1-2.46-3.49c-.34-1.56-.28-3.57.92-4.78l.13-.12c1.39-1.24,4.49-1.15,5.68.37.94,1.19,1,3.77-1,3.77a1.63,1.63,0,0,1-1.56-1.25.64.64,0,0,1,.2-.69c.39-.24.91.28,1.32.09s.32-.58.17-.88a1.43,1.43,0,0,0-1.76-.6,1.88,1.88,0,0,0-1.12,1.59,2.91,2.91,0,0,0,1.42,2.65A2.76,2.76,0,0,0,211.77,26a4.38,4.38,0,0,0,.32-2.81,3.42,3.42,0,0,0-.65-1.53,3.82,3.82,0,0,0-1.06-.85,6.8,6.8,0,0,0-3.36-.85,4.82,4.82,0,0,0-3.18.91,6.88,6.88,0,0,0-2.15,4.67,7.54,7.54,0,0,0,2.2,5.09,7.12,7.12,0,0,0,3.29,2.1,9.94,9.94,0,0,0,2.17.29,7.51,7.51,0,0,0,2.31-.28c4.26-1.09,6.51-4.42,6.63-8.79,0-1.07.06-2.14,0-3.21,0-.87-.11-1.72-.11-2.6a.5.5,0,0,1,.05-.27c.09-.17.32-.2.51-.2l3.56-.12,3.26-.11c2.65-.06,5.38.25,8,.39l3,.14a7.09,7.09,0,0,1,.17,1.26,15.15,15.15,0,0,1,.13,2.52,16,16,0,0,1-1,5,8.24,8.24,0,0,1-3.35,4.33,7.54,7.54,0,0,1-6.32.57,5.58,5.58,0,0,1-3.14-3.91,7.25,7.25,0,0,1-.18-3.64,5.79,5.79,0,0,1,.34-1.07,3.33,3.33,0,0,1,1.9-1.63,5.85,5.85,0,0,1,2.53-.26,6,6,0,0,1,2.28.59,2.89,2.89,0,0,1,.36,5.11,2.67,2.67,0,0,1-3.12-.62,1.54,1.54,0,0,1-.38-1.3.68.68,0,0,1,.23-.38.65.65,0,0,1,.58,0,.82.82,0,0,1,.51.5c.11.34-.11.84.38.92,1.32.2.89-2,.27-2.52a2.08,2.08,0,0,0-2.95.07c-1.09,1.17-.24,3.15.82,4a4.73,4.73,0,0,0,3.18.93,4.55,4.55,0,0,0,.74-.11A3.66,3.66,0,0,0,233,26.11a5,5,0,0,0,.13-3.32,4.61,4.61,0,0,0-.57-1.26A4.76,4.76,0,0,0,230,19.8a8.07,8.07,0,0,0-6.29.61,5.83,5.83,0,0,0-2.59,4.71,11.44,11.44,0,0,0,.77,4.26c0,.14.1.29.16.43,1.48,3.36,5.44,4.1,8.71,3.37a9.69,9.69,0,0,0,5.87-4.1,11,11,0,0,0,1.64-4.23,23.09,23.09,0,0,0,.16-4.4,5.63,5.63,0,0,1,.1-2.47c1.72.06,3.45.13,5.17.16,4.21.07,8.42,0,12.64,0,1.74,0,2,.25,2.35,1.87a31.78,31.78,0,0,1,.59,4.56,9.53,9.53,0,0,1-.27,4c-1.65,4.06-7.23,5.81-11,3.65-3-1.72-4.29-5.91-1.92-8.65a4.37,4.37,0,0,1,4.05-1.5,4.42,4.42,0,0,1,3.42,2.37c1,2,.31,5.06-2.25,5.3a2.46,2.46,0,0,1-2.62-1.72,1.83,1.83,0,0,1-.12-1,.87.87,0,0,1,.62-.72c.67-.14.71.32,1.21.51a.7.7,0,0,0,.89-.71c0-1.08-1.64-1.5-2.47-1.12a2.5,2.5,0,0,0-1.39,2.5,3.78,3.78,0,0,0,3.08,3.26,3.74,3.74,0,0,0,4.33-2.34,5.86,5.86,0,0,0-.82-5.95,6.27,6.27,0,0,0-7.73-1.29,6.44,6.44,0,0,0-2.63,4.12,7.75,7.75,0,0,0,1.73,6.8,9,9,0,0,0,1.31,1.23c2.6,1.88,6.46,1.76,9.28.43a8.07,8.07,0,0,0,4.46-5,11.77,11.77,0,0,0,.52-2.89,66.72,66.72,0,0,0-.28-6.92,1.44,1.44,0,0,1,.08-.65c.22-.52.91-.37,1.35-.37,3.78,0,7.56,0,11.34,0,1.6,0,3.2,0,4.8,0,1.22,0,1.28.1,1.6,1.32.09.35.15.71.21,1.07a23.81,23.81,0,0,1,.22,6.42,10.15,10.15,0,0,1-1.14,4.29,6.88,6.88,0,0,1-3.17,2.56,6.27,6.27,0,0,1-3.72.54,7,7,0,0,1-3-1.1c-2.45-1.66-3.69-5.78-1.37-8,2-2,6.67-2.45,7.82.76.72,2-1.05,5.34-3.52,4.26a1.65,1.65,0,0,1-.87-2.16.75.75,0,0,1,.72-.44c.49.08.67.82,1.17.85.95.05.46-1.19.1-1.52-1.45-1.3-3.68.23-3.41,2a3.49,3.49,0,0,0,1,1.95,2.35,2.35,0,0,0,.47.36c1.36.8,3.27.15,4.32-.85a5.08,5.08,0,0,0,1.3-4.6,4.58,4.58,0,0,0-2.19-3.18,5.8,5.8,0,0,0-3-.61,7.79,7.79,0,0,0-3.89,1.1,5.9,5.9,0,0,0-2.65,4.74,10.91,10.91,0,0,0,.74,4.11,5.68,5.68,0,0,0,2.42,2.66,9.68,9.68,0,0,0,9.42,0c2.37-1.26,3.7-4,4.17-6.57a16.77,16.77,0,0,0,.15-4.42,38,38,0,0,0-.32-4,2.43,2.43,0,0,1-.08-1c.13-.67.67-.66,1.22-.7l2.26-.11c1.53-.05,3.07-.06,4.61-.06,3,0,6.08.11,9.12.14,1.57,0,1.64.14,1.85,1.78a29.71,29.71,0,0,1,.29,3.25c.07,2.82-.42,5.48-2.46,7.63a6.62,6.62,0,0,1-10.37-.95,5.35,5.35,0,0,1-1-3.49A5.06,5.06,0,0,1,290,21.79a4.57,4.57,0,0,1,3.94-.13,4.08,4.08,0,0,1,2.23,2.53,3.57,3.57,0,0,1-.68,3.27,2.8,2.8,0,0,1-1.75,1,2.24,2.24,0,0,1-1.9-.6,2,2,0,0,1-.52-1.88c.11-.5.56-1,1.06-.88s.73.63,1.17.56.54-.56.41-.92a1.46,1.46,0,0,0-1-.87,3,3,0,0,0-1.86,0c-1.75.86-1.53,3.8-.27,5a3.31,3.31,0,0,0,1.51.75,4.59,4.59,0,0,0,5.36-3.46,6.22,6.22,0,0,0-1-4.11A6.1,6.1,0,0,0,289,20.57a8.87,8.87,0,0,0-2.11,1.86,5.79,5.79,0,0,0-1.33,4,7.91,7.91,0,0,0,.19,2.17,7,7,0,0,0,2,3.48,8.69,8.69,0,0,0,8.45,1.67,10.08,10.08,0,0,0,6.65-9.33c.08-1.88,0-3.78,0-5.66a1,1,0,0,1,.07-.42c.25-.46,1.34-.25,1.75-.25,5.45,0,10.9.08,16.35.09.69,0,1.09.22,1.24.91.66,3.09.73,6.63-.89,9.44A7.58,7.58,0,0,1,316,32a7.86,7.86,0,0,1-3.61-.26,6.1,6.1,0,0,1-4.23-6.2,3.6,3.6,0,0,1,.82-2c1.55-1.73,5.28-1.88,7-.3a2.75,2.75,0,0,1,.46,3.45,2.36,2.36,0,0,1-2.2,1.17,1.87,1.87,0,0,1-1.67-1.74c0-.3.16-.67.47-.68s.55.38.87.36a.44.44,0,0,0,.37-.31.72.72,0,0,0-.06-.5,1.28,1.28,0,0,0-1.21-.64,1.77,1.77,0,0,0-1.72,1.8,3.14,3.14,0,0,0,2,2.65,3.37,3.37,0,0,0,2.42.12,4,4,0,0,0,2.42-5.06A4.81,4.81,0,0,0,315,21a7.93,7.93,0,0,0-4.27-.05,5.1,5.1,0,0,0-3.8,3.29,6.63,6.63,0,0,0,.22,5c1.19,2.65,4.31,4.95,7.3,4.75a12.32,12.32,0,0,0,5.62-1.69,9.12,9.12,0,0,0,4-5.58,23.17,23.17,0,0,0,.28-8c0-.37,0-.61.41-.66a12.77,12.77,0,0,1,1.38-.08c.89,0,1.76,0,2.64,0l4.71-.06,4.72-.07,2.37,0c.4,0,1.44-.22,1.76.11a.81.81,0,0,1,.16.53l.12,2c.17,2.71.21,5.68-1.3,8.06a6.49,6.49,0,0,1-9.24,1.93,5.86,5.86,0,0,1-2.46-3.49c-.34-1.56-.28-3.57.92-4.78l.13-.12c1.39-1.24,4.49-1.15,5.68.37.94,1.19,1,3.77-1,3.77a1.63,1.63,0,0,1-1.56-1.25.64.64,0,0,1,.2-.69c.39-.24.91.28,1.32.09s.32-.58.17-.88a1.43,1.43,0,0,0-1.76-.6,1.9,1.9,0,0,0-1.12,1.59A2.91,2.91,0,0,0,334,27.08,2.76,2.76,0,0,0,338.05,26a4.38,4.38,0,0,0,.32-2.81,3.42,3.42,0,0,0-.65-1.53,3.82,3.82,0,0,0-1.06-.85,6.8,6.8,0,0,0-3.36-.85,4.82,4.82,0,0,0-3.18.91A6.88,6.88,0,0,0,328,25.49a7.54,7.54,0,0,0,2.2,5.09,7.12,7.12,0,0,0,3.29,2.1,9.94,9.94,0,0,0,2.17.29,7.51,7.51,0,0,0,2.31-.28c4.26-1.09,6.51-4.42,6.63-8.79,0-1.07.06-2.14,0-3.21,0-.87-.11-1.72-.11-2.6a.5.5,0,0,1,0-.27c.09-.17.32-.2.51-.2l3.57-.12,3.25-.11c2.69-.06,5.34.25,8,.39l3,.14a7.09,7.09,0,0,1,.17,1.26,15.15,15.15,0,0,1,.13,2.52,15.71,15.71,0,0,1-1,5,8.19,8.19,0,0,1-3.35,4.33,7.5,7.5,0,0,1-6.32.56,5.54,5.54,0,0,1-3.14-3.9,7.14,7.14,0,0,1-.17-3.64,5.09,5.09,0,0,1,.33-1.07,3.33,3.33,0,0,1,1.9-1.63,5.85,5.85,0,0,1,2.53-.26,6,6,0,0,1,2.28.59,2.89,2.89,0,0,1,.36,5.11,2.67,2.67,0,0,1-3.12-.62,1.54,1.54,0,0,1-.38-1.3.68.68,0,0,1,.23-.38.65.65,0,0,1,.58,0,.82.82,0,0,1,.51.5c.11.34-.11.84.38.92,1.32.2.9-2,.27-2.52a2.08,2.08,0,0,0-2.95.07c-1.09,1.17-.24,3.15.83,4a4.68,4.68,0,0,0,3.17.93,4.55,4.55,0,0,0,.74-.11,3.7,3.7,0,0,0,2.44-2.17,5.1,5.1,0,0,0,.12-3.32,4.61,4.61,0,0,0-.57-1.26,4.76,4.76,0,0,0-2.62-1.73,8.07,8.07,0,0,0-6.29.61,5.83,5.83,0,0,0-2.59,4.71,11.44,11.44,0,0,0,.77,4.26c.05.14.1.29.16.43,1.48,3.36,5.44,4.1,8.71,3.37a9.69,9.69,0,0,0,5.87-4.1,11,11,0,0,0,1.64-4.23,23.09,23.09,0,0,0,.16-4.4,5.63,5.63,0,0,1,.1-2.47c1.72.06,3.45.13,5.17.16,4.21.07,8.42,0,12.64,0,1.75,0,2,.25,2.35,1.87a31.78,31.78,0,0,1,.59,4.56,9.53,9.53,0,0,1-.27,4c-1.65,4.06-7.23,5.81-11,3.65-3-1.72-4.29-5.91-1.92-8.65a4.59,4.59,0,0,1,7.47.87c1,2,.31,5.06-2.25,5.3a2.46,2.46,0,0,1-2.62-1.72,1.83,1.83,0,0,1-.12-1,.87.87,0,0,1,.62-.72c.67-.14.71.32,1.21.51a.7.7,0,0,0,.89-.71c0-1.08-1.64-1.5-2.47-1.12a2.52,2.52,0,0,0-1.39,2.5,3.78,3.78,0,0,0,3.08,3.26,3.74,3.74,0,0,0,4.33-2.34,5.86,5.86,0,0,0-.82-5.95,6.27,6.27,0,0,0-7.73-1.29,6.44,6.44,0,0,0-2.63,4.12,7.75,7.75,0,0,0,1.73,6.8A9,9,0,0,0,373,33.41c2.6,1.88,6.46,1.76,9.29.43a8.13,8.13,0,0,0,4.46-5,12.25,12.25,0,0,0,.51-2.89,66.72,66.72,0,0,0-.28-6.92,1.44,1.44,0,0,1,.08-.65c.22-.52.91-.37,1.35-.37,3.78,0,7.56,0,11.34,0,1.6,0,3.2,0,4.8,0,1.22,0,1.28.1,1.6,1.32.09.35.15.71.21,1.07a23.81,23.81,0,0,1,.22,6.42,10.15,10.15,0,0,1-1.14,4.29,6.88,6.88,0,0,1-3.17,2.56,6.27,6.27,0,0,1-3.72.54,7,7,0,0,1-3-1.1c-2.45-1.66-3.69-5.78-1.37-8,2-2,6.67-2.45,7.82.76.72,2-1.05,5.34-3.52,4.26a1.65,1.65,0,0,1-.87-2.16.75.75,0,0,1,.72-.44c.49.08.68.82,1.17.85.95.05.46-1.19.1-1.52-1.45-1.3-3.68.23-3.41,2a3.49,3.49,0,0,0,1,1.95,2.35,2.35,0,0,0,.47.36c1.36.8,3.27.15,4.32-.85a5.08,5.08,0,0,0,1.3-4.6A4.58,4.58,0,0,0,401,22.56a5.8,5.8,0,0,0-3-.61,7.79,7.79,0,0,0-3.89,1.1,5.9,5.9,0,0,0-2.65,4.74,10.73,10.73,0,0,0,.75,4.11,5.61,5.61,0,0,0,2.41,2.66,9.68,9.68,0,0,0,9.42,0c2.37-1.26,3.7-4,4.17-6.57a16.77,16.77,0,0,0,.15-4.42,38,38,0,0,0-.32-4,2.43,2.43,0,0,1-.08-1c.14-.67.67-.66,1.22-.7l2.26-.11c1.53-.05,3.07-.06,4.61-.06,3,0,6.08.11,9.12.14,1.57,0,1.64.14,1.85,1.78a29.71,29.71,0,0,1,.29,3.25c.07,2.82-.42,5.48-2.46,7.63a6.62,6.62,0,0,1-10.37-.95,5.41,5.41,0,0,1-1-3.49,5.06,5.06,0,0,1,2.84-4.36,4.57,4.57,0,0,1,3.94-.13,4.08,4.08,0,0,1,2.23,2.53,3.59,3.59,0,0,1-.67,3.27,2.85,2.85,0,0,1-1.76,1,2.24,2.24,0,0,1-1.9-.6,2,2,0,0,1-.52-1.88c.11-.5.56-1,1.06-.88s.73.63,1.17.56.54-.56.41-.92a1.46,1.46,0,0,0-1-.87,3,3,0,0,0-1.86,0c-1.75.86-1.53,3.8-.27,5a3.31,3.31,0,0,0,1.51.75A4.59,4.59,0,0,0,424,26.13,6.22,6.22,0,0,0,423,22a6.1,6.1,0,0,0-7.72-1.45,9.07,9.07,0,0,0-2.11,1.86,5.79,5.79,0,0,0-1.33,4,7.91,7.91,0,0,0,.19,2.17,7,7,0,0,0,2,3.48,8.69,8.69,0,0,0,8.45,1.67,10.08,10.08,0,0,0,6.65-9.33c.08-1.88,0-3.78,0-5.66a1,1,0,0,1,.07-.42c.25-.46,1.34-.25,1.75-.25,5.45,0,10.9.08,16.35.09.69,0,1.09.22,1.24.91.66,3.09.73,6.63-.89,9.44A7.58,7.58,0,0,1,442.27,32a7.87,7.87,0,0,1-3.61-.26,6.08,6.08,0,0,1-4.22-6.2,3.52,3.52,0,0,1,.81-2c1.55-1.73,5.28-1.88,7-.3a2.76,2.76,0,0,1,.45,3.45,2.36,2.36,0,0,1-2.2,1.17,1.87,1.87,0,0,1-1.67-1.74c0-.3.16-.67.47-.68s.55.38.87.36a.44.44,0,0,0,.37-.31.72.72,0,0,0-.06-.5,1.27,1.27,0,0,0-1.2-.64,1.77,1.77,0,0,0-1.73,1.8,3.16,3.16,0,0,0,2,2.65,3.37,3.37,0,0,0,2.42.12,4.07,4.07,0,0,0,2-1.52,4,4,0,0,0,.45-3.54A4.78,4.78,0,0,0,441.3,21,7.93,7.93,0,0,0,437,21a5.07,5.07,0,0,0-3.79,3.29,6.63,6.63,0,0,0,.21,5c1.19,2.65,4.31,4.95,7.31,4.75a12.32,12.32,0,0,0,5.61-1.69,9.08,9.08,0,0,0,4-5.58,23.17,23.17,0,0,0,.28-8c0-.37,0-.61.41-.66A12.77,12.77,0,0,1,452.4,18c.89,0,1.76,0,2.64,0l4.71-.06,4.72-.07,2.37,0c.4,0,1.44-.22,1.76.11a.81.81,0,0,1,.16.53l.12,2c.17,2.71.21,5.68-1.3,8.06a6.49,6.49,0,0,1-9.24,1.93,5.86,5.86,0,0,1-2.46-3.49c-.34-1.56-.28-3.57.92-4.78l.13-.12c1.39-1.24,4.49-1.15,5.68.37.94,1.19,1,3.77-1,3.77A1.63,1.63,0,0,1,460,24.92a.64.64,0,0,1,.2-.69c.39-.24.91.28,1.32.09s.32-.58.17-.88a1.43,1.43,0,0,0-1.76-.6,1.9,1.9,0,0,0-1.12,1.59,2.91,2.91,0,0,0,1.42,2.65A2.76,2.76,0,0,0,464.33,26a4.38,4.38,0,0,0,.32-2.81,3.42,3.42,0,0,0-.65-1.53,3.82,3.82,0,0,0-1.06-.85,6.8,6.8,0,0,0-3.36-.85,4.82,4.82,0,0,0-3.18.91,6.92,6.92,0,0,0-2.15,4.67,7.54,7.54,0,0,0,2.2,5.09,7.12,7.12,0,0,0,3.29,2.1,9.94,9.94,0,0,0,2.17.29,7.51,7.51,0,0,0,2.31-.28c4.26-1.09,6.51-4.42,6.63-8.79,0-1.07.06-2.14,0-3.21,0-.87-.11-1.72-.11-2.6a.5.5,0,0,1,.05-.27c.09-.17.32-.2.51-.2l3.57-.12,3.25-.11c3.33-.08,6.66.07,10,0a1.41,1.41,0,0,1,.7.1c.49.25.44,1.26.5,1.73a15.15,15.15,0,0,1,.13,2.52,15.71,15.71,0,0,1-1,5,8.19,8.19,0,0,1-3.35,4.33,7.48,7.48,0,0,1-6.31.56,5.49,5.49,0,0,1-3.14-3.9,7,7,0,0,1-.18-3.64,5.09,5.09,0,0,1,.33-1.07,3.36,3.36,0,0,1,1.9-1.63,5.85,5.85,0,0,1,2.53-.26,6,6,0,0,1,2.28.59,2.89,2.89,0,0,1,.36,5.11,2.67,2.67,0,0,1-3.12-.62,1.54,1.54,0,0,1-.38-1.3.68.68,0,0,1,.23-.38.65.65,0,0,1,.58,0,.82.82,0,0,1,.51.5c.11.34-.11.84.38.92,1.32.2.9-2,.27-2.52a2.08,2.08,0,0,0-3,.07c-1.09,1.17-.24,3.15.83,4a4.68,4.68,0,0,0,3.17.93,4.55,4.55,0,0,0,.74-.11,3.7,3.7,0,0,0,2.44-2.17,5.1,5.1,0,0,0,.12-3.32,4.61,4.61,0,0,0-.57-1.26,4.76,4.76,0,0,0-2.62-1.73,8.07,8.07,0,0,0-6.29.61,5.88,5.88,0,0,0-2.59,4.71,11.44,11.44,0,0,0,.77,4.26c.05.14.1.29.16.43,1.48,3.36,5.45,4.1,8.71,3.37a9.69,9.69,0,0,0,5.87-4.1,11,11,0,0,0,1.64-4.23,23.09,23.09,0,0,0,.16-4.4c0-.79-.48-2.86.8-2.9l3.7-.08c.89,0,2.55.28,3.24-.43a.93.93,0,0,0,.16-1.13c-.54-.81-2.59-.47-3.39-.47l-4.23,0-3.79,0c-.67,0-2.17.35-2.66-.27-.32-.41-.11-1,0-1.45a14.51,14.51,0,0,0,.07-2,18.4,18.4,0,0,0-.32-4.06,8.88,8.88,0,0,0-3-5.27,9.06,9.06,0,0,0-10.09-.48c-2.07,1.38-2.48,4.44-1.82,6.7.16.56.52,1.19,1.11,1.2s.22-1.17.09-1.5A4.89,4.89,0,0,1,471.1,4,5.58,5.58,0,0,1,476,1.84a7.75,7.75,0,0,1,5.83,3.05,9.5,9.5,0,0,1,1.66,4.63,19.26,19.26,0,0,1,.07,3.13c0,.52-.06,1-.1,1.57,0,.3.05.78-.18,1a.77.77,0,0,1-.59.17l-17.15.38a.54.54,0,0,1-.46-.13.55.55,0,0,1-.09-.33,43.09,43.09,0,0,0-.3-6.53,9.33,9.33,0,0,0-5-7,10.17,10.17,0,0,0-7.59-.35,6.91,6.91,0,0,0-3.83,3.24,7.48,7.48,0,0,0-.15,5.71A6.26,6.26,0,0,0,451,13.88c3.57,2.2,8.88-1.55,7.49-5.66a4.12,4.12,0,0,0-.9-1.52,3.56,3.56,0,0,0-3-1.16,3,3,0,0,0-2.42,2,2.59,2.59,0,0,0,1.18,3.16,1.53,1.53,0,0,0,1.12.18c.25-.07.5-.26.5-.52s-.25-.46-.49-.59A3.15,3.15,0,0,1,453.39,9a1.41,1.41,0,0,1,0-1.62,1.84,1.84,0,0,1,1.49-.73,2.69,2.69,0,0,1,1.6.59c1.91,1.49,1.11,4.35-.84,5.37a4.69,4.69,0,0,1-4.59-.14A5.33,5.33,0,0,1,449,9a5.6,5.6,0,0,1,2-5.66,6,6,0,0,1,1.8-1,8.51,8.51,0,0,1,6.11.44,8.86,8.86,0,0,1,1.35.74,8.48,8.48,0,0,1,3.24,5.23,19,19,0,0,1,.23,5.53,2.63,2.63,0,0,1-.41,1.53c-.3.3-.92.25-1.31.27-6.09.34-12.19,0-18.28.21a1.35,1.35,0,0,1-1-.23c-.43-.39-.22-1.38-.22-1.91,0-1.24.06-2.49,0-3.73-.06-2.28-.21-5-1.6-7a6.7,6.7,0,0,0-3.63-2.41A11.74,11.74,0,0,0,433,.77a10.27,10.27,0,0,0-3.61,1,5.36,5.36,0,0,0-2.57,2.62,8.48,8.48,0,0,0-.5,2.4,6.31,6.31,0,0,0,2.53,5.68,5.46,5.46,0,0,0,6.37.22,3.35,3.35,0,0,0,.49-.43,4.77,4.77,0,0,0,1.19-4.51,4,4,0,0,0-.32-.84,3.8,3.8,0,0,0-.92-1.18A3.59,3.59,0,0,0,432.07,5a3,3,0,0,0-1.91,3,2.63,2.63,0,0,0,2.5,2.38,1.17,1.17,0,0,0,.77-.23.58.58,0,0,0,.14-.74c-.19-.27-.59-.25-.92-.3a1.49,1.49,0,0,1-1.28-1.73,1.77,1.77,0,0,1,1.89-1.07,3,3,0,0,1,2.16,1.24,2.91,2.91,0,0,1-1.09,4.31,3.36,3.36,0,0,1-2.53.37,4.92,4.92,0,0,1-3.44-2A6.19,6.19,0,0,1,427.82,6a4.56,4.56,0,0,1,1.57-2.67,5.46,5.46,0,0,1,1.67-.88,9.36,9.36,0,0,1,7,.43,6.07,6.07,0,0,1,1,.56c2,1.47,2.21,4.29,2.24,6.55,0,1.48.07,3,0,4.45s-.17,1.7-1.79,1.73c-6,.09-12,0-18-.19a1.12,1.12,0,0,1-.54-.12,1,1,0,0,1-.33-.72,17.25,17.25,0,0,1,.17-3.66,14.71,14.71,0,0,0-.22-5.91,7.34,7.34,0,0,0-3.3-4.27,8.62,8.62,0,0,0-1.2-.54,10.92,10.92,0,0,0-7.39-.2A7.49,7.49,0,0,0,403.92,6a11.76,11.76,0,0,0-.15,1.33,6.13,6.13,0,0,0,7.36,6.3A4.51,4.51,0,0,0,414,11.63a5.12,5.12,0,0,0,.42-4,3.34,3.34,0,0,0-.72-1.14,3.89,3.89,0,0,0-3.09-1.31c-2.19.17-3.84,2.92-1.83,4.5a1,1,0,0,0,.52.24.65.65,0,0,0,.59-.29.63.63,0,0,0,0-.65c-.12-.21-.35-.33-.51-.51a1.06,1.06,0,0,1-.28-.76,1.27,1.27,0,0,1,.54-.93,2,2,0,0,1,1.05-.33,2.82,2.82,0,0,1,2.2,1,3,3,0,0,1-.39,4.18,4.45,4.45,0,0,1-3.07.86,4.84,4.84,0,0,1-2.85-1,5.18,5.18,0,0,1-1.55-4.51,7,7,0,0,1,.26-1.29,6.5,6.5,0,0,1,3.71-3.89,9.05,9.05,0,0,1,5.45-.35,6,6,0,0,1,3.41,2,8.36,8.36,0,0,1,1.69,3.46,10.52,10.52,0,0,1,.25,2.74c0,.85-.26,1.66-.32,2.49a23.1,23.1,0,0,1-.44,2.62c-.1.52-.21,1-.79,1.09a8.53,8.53,0,0,1-2.14.07c-1.81-.08-3.62.12-5.43.19-1.47.06-2.94,0-4.41,0L400.86,16a1.24,1.24,0,0,1-.83-.22,1.26,1.26,0,0,1-.29-.89,33.15,33.15,0,0,0-.56-7,10,10,0,0,0-3-5A11.23,11.23,0,0,0,389.05,0a8.66,8.66,0,0,0-6.88,3.2,5.37,5.37,0,0,0-.88,2.49c-.7,4.24,2.26,8.63,6.71,8.84a6.15,6.15,0,0,0,3.39-.81,4.93,4.93,0,0,0,2.33-3.21,6.42,6.42,0,0,0,.15-1.31,5.23,5.23,0,0,0-2.51-4.43,5.41,5.41,0,0,0-6.4.81c-1.53,1.51-.67,4.09,1.11,5a2.83,2.83,0,0,0,2.71-.05,1,1,0,0,0,.44-.43.51.51,0,0,0-.06-.58c-.23-.25-.64-.11-1,0a2.22,2.22,0,0,1-1.25,0,2,2,0,0,1-1.27-2.4,2.71,2.71,0,0,1,2-1.84,3.52,3.52,0,0,1,3.35.89,4.24,4.24,0,0,1,1.08,4.12,4.08,4.08,0,0,1-2.84,2.74A5.69,5.69,0,0,1,384.76,12a5.64,5.64,0,0,1-1.95-3.21,6.27,6.27,0,0,1,.1-3.64,6.31,6.31,0,0,1,5-3.63A8.68,8.68,0,0,1,396.29,5,13,13,0,0,1,398,9.15a16.38,16.38,0,0,1,.49,3.11,12.51,12.51,0,0,1,0,1.62,3.57,3.57,0,0,1-.11,1.22c-.27.73-1,.76-1.67.86a18.4,18.4,0,0,1-3.71,0h-1.25l-12.34.21a1.65,1.65,0,0,1-1.36-.4,1.59,1.59,0,0,1-.24-1c0-1.53.18-3,.24-4.54a12.27,12.27,0,0,0-.68-4.33A7.93,7.93,0,0,0,369.89.56a7,7,0,0,0-5.69,2.66,6.61,6.61,0,0,0-.6,7.32,5.76,5.76,0,0,0,6.94,2.05,4.76,4.76,0,0,0,2.92-5,3.79,3.79,0,0,0-.71-1.6,4.22,4.22,0,0,0-3.12-1.78,3.35,3.35,0,0,0-3.07,5,2,2,0,0,0,3.21,0,1.19,1.19,0,0,0,.33-1.06c-.12-.37-.64-.6-.91-.33s-.18.44-.3.64a.83.83,0,0,1-1.13.24,1.37,1.37,0,0,1-.6-1.09,2.19,2.19,0,0,1,1.48-2.11,2.64,2.64,0,0,1,2.58.6,3.37,3.37,0,0,1,1,2.5,3.08,3.08,0,0,1-1.84,2.6,4.36,4.36,0,0,1-5.19-.5c-1.59-1.69-1.35-4.64-.22-6.5A5.71,5.71,0,0,1,369.1,1.7,6.42,6.42,0,0,1,374.93,4a9.25,9.25,0,0,1,1.65,5.17c0,1.45.12,4.41-.63,5.68-1.11,1.86-4.27.83-6.07.92-2.22.12-4.43-.08-6.65-.09-1,0-4,.35-4.74-.58-.32-.4-.11-1-.05-1.44a16.31,16.31,0,0,0,.07-2,18.4,18.4,0,0,0-.32-4.06,8.88,8.88,0,0,0-3-5.27,9.06,9.06,0,0,0-10.09-.48c-2.07,1.38-2.48,4.44-1.82,6.7.16.56.52,1.19,1.1,1.2s.23-1.17.1-1.5A4.89,4.89,0,0,1,344.82,4a5.58,5.58,0,0,1,4.94-2.17,7.75,7.75,0,0,1,5.83,3.05,9.5,9.5,0,0,1,1.66,4.63,19.26,19.26,0,0,1,.07,3.13c0,.52-.06,1-.1,1.57,0,.3,0,.78-.18,1a.77.77,0,0,1-.59.17l-17.15.38a.54.54,0,0,1-.46-.13.55.55,0,0,1-.09-.33,43.09,43.09,0,0,0-.3-6.53,9.33,9.33,0,0,0-5-7,10.17,10.17,0,0,0-7.59-.35A6.91,6.91,0,0,0,322,4.63a7.48,7.48,0,0,0-.15,5.71,6.26,6.26,0,0,0,2.83,3.54c3.57,2.2,8.88-1.55,7.49-5.66a4.12,4.12,0,0,0-.9-1.52,3.56,3.56,0,0,0-3-1.16,3,3,0,0,0-2.42,2,2.59,2.59,0,0,0,1.18,3.16,1.53,1.53,0,0,0,1.12.18c.25-.07.5-.26.5-.52s-.25-.46-.49-.59A3.06,3.06,0,0,1,327.11,9a1.41,1.41,0,0,1,0-1.62,1.84,1.84,0,0,1,1.49-.73,2.69,2.69,0,0,1,1.6.59c1.9,1.49,1.1,4.35-.84,5.37a4.71,4.71,0,0,1-4.6-.14,5.36,5.36,0,0,1-2-3.5,5.62,5.62,0,0,1,2-5.66,6.15,6.15,0,0,1,1.81-1,8.51,8.51,0,0,1,6.11.44,8.31,8.31,0,0,1,1.34.74,8.45,8.45,0,0,1,3.25,5.23,19,19,0,0,1,.23,5.53,2.71,2.71,0,0,1-.41,1.53c-.3.3-.92.25-1.31.27-6.09.34-12.19,0-18.28.21a1.35,1.35,0,0,1-1-.23c-.43-.39-.22-1.38-.22-1.91,0-1.24.06-2.49,0-3.73-.06-2.28-.21-5-1.6-7a6.7,6.7,0,0,0-3.63-2.41,11.74,11.74,0,0,0-4.42-.28,10.27,10.27,0,0,0-3.61,1,5.36,5.36,0,0,0-2.57,2.62,8.48,8.48,0,0,0-.5,2.4,6.31,6.31,0,0,0,2.53,5.68,5.46,5.46,0,0,0,6.37.22,3.35,3.35,0,0,0,.49-.43,4.77,4.77,0,0,0,1.19-4.51,4,4,0,0,0-.32-.84,3.8,3.8,0,0,0-.92-1.18A3.59,3.59,0,0,0,305.79,5a3.07,3.07,0,0,0-1.92,3,2.65,2.65,0,0,0,2.51,2.38,1.17,1.17,0,0,0,.77-.23.58.58,0,0,0,.14-.74c-.19-.27-.59-.25-.92-.3a1.49,1.49,0,0,1-1.28-1.73A1.77,1.77,0,0,1,307,6.3a3,3,0,0,1,2.16,1.24,2.91,2.91,0,0,1-1.09,4.31,3.36,3.36,0,0,1-2.53.37,4.92,4.92,0,0,1-3.44-2A6.19,6.19,0,0,1,301.54,6a4.6,4.6,0,0,1,1.56-2.67,5.62,5.62,0,0,1,1.68-.88,9.36,9.36,0,0,1,7,.43,6.07,6.07,0,0,1,.95.56c2,1.47,2.21,4.29,2.24,6.55,0,1.48.07,3,0,4.45s-.17,1.7-1.79,1.73c-6,.09-12,0-18-.19a1.1,1.1,0,0,1-.54-.12,1,1,0,0,1-.33-.72,17.25,17.25,0,0,1,.17-3.66,14.71,14.71,0,0,0-.22-5.91,7.34,7.34,0,0,0-3.3-4.27,8.62,8.62,0,0,0-1.2-.54,10.92,10.92,0,0,0-7.39-.2A7.49,7.49,0,0,0,277.64,6a11.76,11.76,0,0,0-.15,1.33,6.13,6.13,0,0,0,7.36,6.3,4.51,4.51,0,0,0,2.91-1.95,5.12,5.12,0,0,0,.42-4,3.34,3.34,0,0,0-.72-1.14,3.91,3.91,0,0,0-3.09-1.31c-2.19.17-3.84,2.92-1.83,4.5a1,1,0,0,0,.52.24.63.63,0,0,0,.58-.29.61.61,0,0,0,0-.65c-.12-.21-.35-.33-.51-.51a1.06,1.06,0,0,1-.28-.76,1.24,1.24,0,0,1,.54-.93,2,2,0,0,1,1-.33,2.82,2.82,0,0,1,2.2,1,3,3,0,0,1-.39,4.18,4.45,4.45,0,0,1-3.07.86,4.84,4.84,0,0,1-2.85-1,5.18,5.18,0,0,1-1.55-4.51,7,7,0,0,1,.26-1.29,6.5,6.5,0,0,1,3.71-3.89,9.05,9.05,0,0,1,5.45-.35,6,6,0,0,1,3.41,2,8.36,8.36,0,0,1,1.69,3.46,10.52,10.52,0,0,1,.25,2.74c0,.85-.26,1.66-.32,2.49a23.1,23.1,0,0,1-.44,2.62c-.1.52-.21,1-.79,1.09a8.53,8.53,0,0,1-2.14.07c-1.81-.08-3.62.12-5.43.19-1.47.06-2.94,0-4.41,0L274.58,16a1.24,1.24,0,0,1-.83-.22,1.26,1.26,0,0,1-.29-.89,33.83,33.83,0,0,0-.56-7,10,10,0,0,0-3-5A11.23,11.23,0,0,0,262.77,0a8.66,8.66,0,0,0-6.88,3.2A5.37,5.37,0,0,0,255,5.69c-.7,4.24,2.26,8.63,6.71,8.84a6.15,6.15,0,0,0,3.39-.81,5,5,0,0,0,2.33-3.21,6.42,6.42,0,0,0,.15-1.31,5.23,5.23,0,0,0-2.51-4.43,5.41,5.41,0,0,0-6.4.81c-1.53,1.51-.67,4.09,1.11,5a2.83,2.83,0,0,0,2.71-.05,1,1,0,0,0,.44-.43.51.51,0,0,0-.06-.58c-.23-.25-.64-.11-1,0a2.22,2.22,0,0,1-1.25,0,2,2,0,0,1-1.27-2.4,2.71,2.71,0,0,1,2-1.84,3.52,3.52,0,0,1,3.35.89,4.24,4.24,0,0,1,1.08,4.12A4.07,4.07,0,0,1,263,13.05,5.67,5.67,0,0,1,258.48,12a5.64,5.64,0,0,1-2-3.21,6.27,6.27,0,0,1,.1-3.64,6.31,6.31,0,0,1,5-3.63A8.68,8.68,0,0,1,270,5a13,13,0,0,1,1.69,4.14,16.38,16.38,0,0,1,.49,3.11,12.51,12.51,0,0,1,0,1.62,3.57,3.57,0,0,1-.11,1.22c-.27.73-1,.76-1.67.86a18.4,18.4,0,0,1-3.71,0h-1.25l-12.34.21a1.65,1.65,0,0,1-1.36-.4,1.59,1.59,0,0,1-.24-1c0-1.53.18-3,.23-4.54a12,12,0,0,0-.67-4.33A7.93,7.93,0,0,0,243.61.56a7,7,0,0,0-5.69,2.66,6.61,6.61,0,0,0-.6,7.32,5.76,5.76,0,0,0,6.94,2.05,4.76,4.76,0,0,0,2.92-5,3.79,3.79,0,0,0-.71-1.6,4.22,4.22,0,0,0-3.12-1.78,3.35,3.35,0,0,0-3.07,5,2,2,0,0,0,3.21,0,1.19,1.19,0,0,0,.33-1.06c-.12-.37-.64-.6-.91-.33s-.18.44-.3.64a.83.83,0,0,1-1.13.24,1.37,1.37,0,0,1-.6-1.09,2.18,2.18,0,0,1,1.48-2.11,2.64,2.64,0,0,1,2.58.6,3.37,3.37,0,0,1,1,2.5,3.08,3.08,0,0,1-1.84,2.6,4.36,4.36,0,0,1-5.19-.5c-1.59-1.69-1.35-4.64-.22-6.5a5.71,5.71,0,0,1,4.11-2.56A6.42,6.42,0,0,1,248.65,4,9.5,9.5,0,0,1,250.3,9.7c0,1.39.07,4.28-.86,5.42-1.38,1.69-5.65,1-7.56.93s-3.61-.15-5.42-.26c-1-.07-3.62.1-4.25-.69-.32-.41-.11-1-.05-1.45a16.31,16.31,0,0,0,.07-2,19,19,0,0,0-.32-4.06,8.88,8.88,0,0,0-3-5.27,9.06,9.06,0,0,0-10.09-.48c-2.08,1.38-2.48,4.44-1.82,6.7.16.56.52,1.19,1.1,1.2s.23-1.17.1-1.5A4.89,4.89,0,0,1,218.54,4a5.58,5.58,0,0,1,4.94-2.17,7.75,7.75,0,0,1,5.83,3.05A9.5,9.5,0,0,1,231,9.52a19.26,19.26,0,0,1,.07,3.13c0,.52-.06,1-.1,1.57,0,.3.05.78-.18,1a.77.77,0,0,1-.59.17L213,15.78a.53.53,0,0,1-.46-.13.49.49,0,0,1-.09-.33,43.09,43.09,0,0,0-.3-6.53,9.32,9.32,0,0,0-5-7,10.15,10.15,0,0,0-7.58-.35,6.91,6.91,0,0,0-3.83,3.24,7.48,7.48,0,0,0-.15,5.71,6.26,6.26,0,0,0,2.83,3.54c3.57,2.2,8.88-1.55,7.49-5.66A4.12,4.12,0,0,0,205,6.7a3.56,3.56,0,0,0-3-1.16,3,3,0,0,0-2.42,2,2.57,2.57,0,0,0,1.18,3.16,1.53,1.53,0,0,0,1.12.18c.25-.07.5-.26.5-.52s-.25-.46-.49-.59A3.06,3.06,0,0,1,200.83,9a1.4,1.4,0,0,1,0-1.62,1.84,1.84,0,0,1,1.49-.73,2.64,2.64,0,0,1,1.59.59c1.91,1.49,1.11,4.35-.83,5.37a4.71,4.71,0,0,1-4.6-.14,5.36,5.36,0,0,1-2-3.5,5.62,5.62,0,0,1,2-5.66,6.15,6.15,0,0,1,1.81-1,8.51,8.51,0,0,1,6.11.44,8.31,8.31,0,0,1,1.34.74A8.45,8.45,0,0,1,211,8.75a19,19,0,0,1,.23,5.53,2.71,2.71,0,0,1-.41,1.53c-.3.3-.92.25-1.31.27-6.09.34-12.19,0-18.28.21a1.35,1.35,0,0,1-1-.23c-.43-.39-.22-1.38-.22-1.91,0-1.24.06-2.49,0-3.73-.06-2.28-.21-5-1.6-7a6.7,6.7,0,0,0-3.63-2.41,11.74,11.74,0,0,0-4.42-.28,10.27,10.27,0,0,0-3.61,1,5.36,5.36,0,0,0-2.57,2.62,8.48,8.48,0,0,0-.5,2.4,6.31,6.31,0,0,0,2.53,5.68,5.46,5.46,0,0,0,6.37.22,3.35,3.35,0,0,0,.49-.43,4.77,4.77,0,0,0,1.19-4.51,4,4,0,0,0-.32-.84,3.69,3.69,0,0,0-.93-1.18A3.57,3.57,0,0,0,179.51,5a3.06,3.06,0,0,0-1.92,3,2.65,2.65,0,0,0,2.51,2.38,1.17,1.17,0,0,0,.77-.23A.58.58,0,0,0,181,9.4c-.19-.27-.59-.25-.92-.3a1.49,1.49,0,0,1-1.28-1.73A1.76,1.76,0,0,1,180.7,6.3a3,3,0,0,1,2.16,1.24,2.91,2.91,0,0,1-1.09,4.31,3.36,3.36,0,0,1-2.53.37,4.92,4.92,0,0,1-3.44-2A6.19,6.19,0,0,1,175.26,6a4.6,4.6,0,0,1,1.56-2.67,5.62,5.62,0,0,1,1.68-.88,9.36,9.36,0,0,1,7,.43,6.07,6.07,0,0,1,.95.56c2,1.47,2.21,4.29,2.24,6.55,0,1.48.07,3,0,4.45s-.17,1.7-1.79,1.73c-6,.09-12,0-18-.19a1.1,1.1,0,0,1-.54-.12,1,1,0,0,1-.33-.72,17.25,17.25,0,0,1,.17-3.66,14.71,14.71,0,0,0-.22-5.91,7.34,7.34,0,0,0-3.3-4.27,8.62,8.62,0,0,0-1.2-.54,10.92,10.92,0,0,0-7.39-.2A7.49,7.49,0,0,0,151.36,6a9.84,9.84,0,0,0-.15,1.33,6.13,6.13,0,0,0,7.36,6.3,4.51,4.51,0,0,0,2.91-1.95,5.12,5.12,0,0,0,.42-4,3.5,3.5,0,0,0-.72-1.14,3.91,3.91,0,0,0-3.09-1.31c-2.2.17-3.84,2.92-1.83,4.5a1,1,0,0,0,.51.24.63.63,0,0,0,.59-.29.61.61,0,0,0,0-.65c-.12-.21-.35-.33-.51-.51a1,1,0,0,1-.28-.76,1.24,1.24,0,0,1,.54-.93,2,2,0,0,1,1.05-.33,2.82,2.82,0,0,1,2.2,1A3,3,0,0,1,160,11.6a4.45,4.45,0,0,1-3.07.86,4.84,4.84,0,0,1-2.85-1,5.18,5.18,0,0,1-1.55-4.51,7,7,0,0,1,.26-1.29,6.5,6.5,0,0,1,3.71-3.89,9.05,9.05,0,0,1,5.45-.35,6,6,0,0,1,3.41,2A8.34,8.34,0,0,1,167,6.88a10.41,10.41,0,0,1,.25,2.73c0,.85-.26,1.66-.32,2.49a23.1,23.1,0,0,1-.44,2.62c-.1.52-.22,1-.79,1.09a8.53,8.53,0,0,1-2.14.07c-1.81-.08-3.62.12-5.43.19-1.47.06-2.94,0-4.41,0ZM93.05,10.52a1.09,1.09,0,0,0-.27-.21.46.46,0,0,0-.71.54,1.37,1.37,0,0,0,.3.45,3.94,3.94,0,0,0,1.39,1c1.75.76,4.35.46,5.41-1.27A3.84,3.84,0,0,0,98.32,6,2.93,2.93,0,0,0,96,5.62a1.94,1.94,0,0,0-1,.57,2.31,2.31,0,0,0-.22,2.54.93.93,0,0,0,.76.51.58.58,0,0,0,.59-.61c0-.25-.27-.42-.39-.64a1,1,0,0,1,.5-1.25A1.47,1.47,0,0,1,97.62,7a2.38,2.38,0,0,1,.84,2.47,3.33,3.33,0,0,1-3.11,2.41,3.18,3.18,0,0,1-2.08-1.07A2.5,2.5,0,0,0,93.05,10.52Z"/></svg>