<svg id="e480ec89-a8dc-456e-9dfc-a118c0c39ff8" data-name="Layer 1" xmlns="http://www.w3.org/2000/svg" viewBox="0 0 491.35 22.86"><defs><style>.e67c646f-6171-4e53-80f9-aa1c5fef1449{fill:#3e342f;}</style></defs><path class="e67c646f-6171-4e53-80f9-aa1c5fef1449" d="M391.39.28A2.18,2.18,0,0,1,392.7,0h16.42a.94.94,0,0,1,.55.11c.28.17.32.55.34.87.15,3,.31,6,.46,8.93.08,1.49.15,3,.23,4.47a15.25,15.25,0,0,1,.17,2.7c-.18,1.48-1.44,1.24-2.66,1.32s-2.21.13-3.32.16c-2.17.06-4.34,0-6.51-.1a1.92,1.92,0,0,1-1.22-.37,1.92,1.92,0,0,1-.42-1.35c-.15-3.25-.29-6.5-.44-9.75a1.13,1.13,0,0,1,.09-.63c.19-.33.63-.39,1-.41,2.4-.13,4.8-.22,7.22-.12a1.6,1.6,0,0,1,1.23.4,1.62,1.62,0,0,1,.28,1,48.3,48.3,0,0,1,.39,5.36c0,1.06-1.25,1-2,1.07-1.13.09-2.26.13-3.39.13a1.66,1.66,0,0,1-1.22-.35,1.63,1.63,0,0,1-.32-1c-.1-.88-.19-1.77-.28-2.65a1.08,1.08,0,0,1,.15-.85,1.09,1.09,0,0,1,.77-.26c.76,0,2.35-.4,2.95.19.74.74-.2,1.38-.95,1.19a1.36,1.36,0,0,0-.91,0c-.5.25-.46,1-.33,1.52a1.08,1.08,0,0,0,.31.65,1.16,1.16,0,0,0,.78.16l2.11-.1a1.2,1.2,0,0,0,.62-.14c.34-.23.35-.72.32-1.14-.07-1-.13-2-.2-3a1,1,0,0,0-.32-.79,1,1,0,0,0-.56-.08l-4.64.24a2.52,2.52,0,0,0-1.46.39c-.72.58-.16,2.67-.11,3.46.1,1.52.2,3,.29,4.56a1.8,1.8,0,0,0,.32,1.1,1.83,1.83,0,0,0,1.4.4l7.07,0c.79,0,1.88.18,2.31-.65a3.07,3.07,0,0,0,.19-1.65l-.78-11.93a1.79,1.79,0,0,0-.45-1.32A1.8,1.8,0,0,0,407,1.46l-13,.21a1.65,1.65,0,0,0-.8.14c-.88.47-.51,2.54-.44,3.39.13,1.71.29,3.43.43,5.14.29,3.44.57,6.87.86,10.3a1.27,1.27,0,0,0,.26.79,1.25,1.25,0,0,0,.91.24l16.55-.15a2.79,2.79,0,0,0,1.46-.27,1.07,1.07,0,0,0,.29-.26c.31-.4.18-.92.13-1.44-.09-.87-.08-1.76-.11-2.64-.06-1.71-.09-3.43-.2-5.13q-.33-5.14-.67-10.27c.19-.33.72-.27,1,0a1.79,1.79,0,0,1,.3,1.07c.07,1.11.15,2.22.22,3.33l.6,9.31.3,4.59c.05.83.3,1.89-.62,2.35a3.17,3.17,0,0,1-1.37.24q-9.58.28-19.19.43a1.29,1.29,0,0,1-1.09-.32,1.28,1.28,0,0,1-.2-.72c0-3.5-.47-7.06-.7-10.55l-.36-5.41c-.07-1.15-.07-2.29-.15-3.43C391.3,1.8,390.78.74,391.39.28Zm86.51.88h-8.17c-1.05,0-1.3.08-1.27,1.22.09,3.4.18,6.79.26,10.19,0,1.72.09,3.45.13,5.17,0,1.12-.35,3,.77,3.74a2.75,2.75,0,0,0,1.45.3q9,.16,17.95-.28A2.72,2.72,0,0,0,490.9,21a2.4,2.4,0,0,0,.4-2c-.07-.81-.07-1.64-.07-2.45V13.16c0-3.47,0-6.95,0-10.42,0-.28,0-.61-.28-.74a.52.52,0,0,0-.65.26,1.56,1.56,0,0,0-.14.77q0,4,0,8c0,1.35,0,2.7,0,4,0,.6,0,1.21,0,1.82s.19,1.13.15,1.7a1.75,1.75,0,0,1-.73,1.37,2.61,2.61,0,0,1-1.35.28l-15.67.37a2.49,2.49,0,0,1-1.55-.29,2.56,2.56,0,0,1-.81-1.88,63.23,63.23,0,0,1-.45-8.59c0-1.31.05-2.56,0-3.88,0-.28-.32-2.95-.08-3.06a2.21,2.21,0,0,1,.63-.28c2.35-.14,4.71-.08,7.06,0,1.16,0,2.31.06,3.46.07.93,0,1.94-.12,2.84,0a1.29,1.29,0,0,1,1,.6,1.78,1.78,0,0,1,.17.82c.09,1.6.05,3.2,0,4.8a24.21,24.21,0,0,0-.07,4.42,1.38,1.38,0,0,1-.32,1.31,1.51,1.51,0,0,1-.91.2h-8.64a53.46,53.46,0,0,1-.19-7.7,1,1,0,0,1,.19-.62,1,1,0,0,1,.54-.21,24.54,24.54,0,0,1,5.68-.18c.07,1.15.14,2.29.2,3.43,0,.43.3,1,0,1.42s-1.18.31-1.68.28c-.24,0-.61,0-.78-.13-.43-.39-.2-1.46-.23-2a.86.86,0,0,0-.23-.63c-1.08-.8-.87,2.59-.84,2.94a1.18,1.18,0,0,0,.41,1,1.15,1.15,0,0,0,.64.12c.85,0,1.7,0,2.56-.05a1.62,1.62,0,0,0,1-.28c.59-.51.32-2,.3-2.67,0-1.14-.11-2.27-.11-3.4A1.46,1.46,0,0,0,482,4.88a1.36,1.36,0,0,0-.87-.2c-1.78,0-3.57,0-5.36.19-1.05.08-3.21-.13-2.8,1.53a18.58,18.58,0,0,1,.33,4.08c.05,1.6.14,3.2.21,4.8.05,1.08.81,1.1,1.69,1.09l3.33-.05,6.52-.11a1.52,1.52,0,0,0,1-.25.9.9,0,0,0,.31-.58,2.27,2.27,0,0,0-.05-.82,28.17,28.17,0,0,1-.08-5.2c0-1.88,0-3.76,0-5.65a3.71,3.71,0,0,0-.4-2.06c-.65-1-2.33-.51-3.35-.51Zm-35.67.13a1.43,1.43,0,0,0-.14.85c.28,4.63.6,9.18.56,13.83,0,1.67,0,3.34-.06,5a.9.9,0,0,0,.15.67.92.92,0,0,0,.69.23q5.4.33,10.8.3c1.8,0,3.6,0,5.4-.11l2.77-.13c.5,0,1.64.21,2.05-.08a1,1,0,0,0,.28-.94c-.08-.89.09-1.79.07-2.7s0-2-.05-3c-.06-3.94-.15-7.87-.4-11.8a1.84,1.84,0,0,0-.18-.84.64.64,0,0,0-.73-.3c-.34.14-.38.59-.37,1,.09,2.67.12,5.35.16,8s.24,5.5.14,8.28a1.16,1.16,0,0,1-.21.75c-.36.42-1.57.3-2.08.3l-3.17,0-6.36.1-3.33.05c-.93,0-1.9.07-2.82,0a1.37,1.37,0,0,1-1.1-.55,1.25,1.25,0,0,1-.18-.45,3.45,3.45,0,0,1-.05-.64c-.05-2.65-.11-5.3-.16-7.95,0-1.35-.06-2.7-.08-4,0-.67,0-1.34,0-2a8.12,8.12,0,0,1-.14-2.25c.22-.84,1.07-.63,1.7-.62l12.87,0a1.22,1.22,0,0,1,.71.15,1.18,1.18,0,0,1,.34,1q.25,5.64.5,11.3a1.93,1.93,0,0,1-.3,1.4c-.45.51-1,.33-1.61.29-.86-.06-1.76,0-2.62,0l-5.38.05a1.4,1.4,0,0,1-.76-.14,1.41,1.41,0,0,1-.47-1.2c-.07-1.25-.13-2.5-.2-3.75a14.82,14.82,0,0,0-.22-2.32c-.1-.48-.23-1.51.15-1.93s.9-.24,1.35-.26l3.14-.12a14.91,14.91,0,0,0,1.5-.1c.27-.05.46-.31.72,0a1.3,1.3,0,0,1,.19.77,33.91,33.91,0,0,1,0,4.94.76.76,0,0,1-.36.58,1.1,1.1,0,0,1-.57.07c-.64,0-1.92.26-2.27-.43s0-1.56-.08-2.28c0-.46-.39-1.47-1-.87-.24.23-.16.65-.15.95,0,1,0,2,0,3.06a.56.56,0,0,0,.17.49.54.54,0,0,0,.31.06h3.34a2.7,2.7,0,0,0,1.38-.24c.64-.39.58-1.26.56-1.91,0-1,0-1.92-.07-2.87,0-.58-.06-1.17-.12-1.75,0-.37.05-1.13-.17-1.43-.44-.58-2.39-.28-3.05-.3l-2.6-.08c-.77,0-1.46.15-2.25.12a1.31,1.31,0,0,0-1.23.47,1.41,1.41,0,0,0-.14.73c0,1.1.2,2.1.25,3.17.09,2,.18,4,.31,5.94.1,1.66.37,1.91,2.05,1.91,3.13,0,6.26-.05,9.39-.11a2.4,2.4,0,0,0,2-.62c.2-.19,0-1.25-.05-1.53,0-.65,0-1.3,0-1.94,0-1.3-.05-2.59-.07-3.88L460.63,2a1.37,1.37,0,0,0-.22-.87,1.4,1.4,0,0,0-1-.32A158,158,0,0,0,443.29.9,1.32,1.32,0,0,0,442.23,1.29ZM425.85.53c-2.43.09-4.81.23-7.24.2a1.53,1.53,0,0,0-.9.19,1.33,1.33,0,0,0-.36,1.24c.36,3.21.21,6.51.36,9.74.08,1.8.18,3.59.3,5.39.06.87.13,1.75.2,2.62.05.58,0,1.61.38,2.08a1.5,1.5,0,0,0,1.08.34q6.09.2,12.19.11c2,0,4.07-.1,6.1-.17,1.47-.05,1.72-.73,1.76-2.11q.07-2.7.06-5.4,0-5.46-.42-10.92c0-.35-.08-1.07-.48-1.23s-.72.39-.71.79l.21,8.07a71.76,71.76,0,0,1,.06,7.62c-.06.63.09,1.3-.47,1.85-.21.21-1.59.06-1.92.08l-2.2.08c-1.38.06-2.76.07-4.14.1-2.93.08-5.85.07-8.78,0a1.48,1.48,0,0,1-1.05-.31,1.42,1.42,0,0,1-.31-1q-.44-5.78-.86-11.53c-.1-1.38-.11-2.79-.29-4.16-.14-1-.08-2.37,1.22-2.34s2.66,0,4-.08q4.44-.13,8.88-.18a1.51,1.51,0,0,1,1.2.34,1.54,1.54,0,0,1,.27.87c.24,2.75.26,5.49.47,8.23.08,1.17.19,2.34.23,3.51,0,.68.36,2.32-.31,2.73a2.07,2.07,0,0,1-1.1.21l-7.81.11-1.51,0a1.31,1.31,0,0,1-.85-.18,1.31,1.31,0,0,1-.36-1.06q-.17-4.3-.31-8.61a1.41,1.41,0,0,1,.21-1,1.48,1.48,0,0,1,1.09-.35l6.15-.21a1.23,1.23,0,0,1,.82.17,1.29,1.29,0,0,1,.3,1.16,20.64,20.64,0,0,0,.14,3.85c.07.52.37,2.06,0,2.46a1.1,1.1,0,0,1-.84.19L427.9,14a.84.84,0,0,1-.49-.13.85.85,0,0,1-.23-.65c0-.52-.05-1-.08-1.57a1,1,0,0,1,.13-.67c.59-.74,2,.39,2.46-.58a.78.78,0,0,0-.35-.93,2,2,0,0,0-1-.24,9.44,9.44,0,0,0-1.59.1,1.28,1.28,0,0,0-.83.37,1.34,1.34,0,0,0-.18.84A29.73,29.73,0,0,0,426,14a1.15,1.15,0,0,0,.39.83,1.17,1.17,0,0,0,.67.13c1.36,0,2.69.08,4.05.08.51,0,1.28,0,1.57-.51s0-1.76,0-2.39c-.05-1.88-.1-3.76-.17-5.64a2.11,2.11,0,0,0-.33-1.27,2.06,2.06,0,0,0-1.74-.49l-7.55.2a2.14,2.14,0,0,0-1.78.63,2.06,2.06,0,0,0-.21,1.3q.27,5,.55,10a2.06,2.06,0,0,0,.59,1.63,2.07,2.07,0,0,0,1.23.24c4.21-.05,8.43,0,12.62-.35a3.45,3.45,0,0,0,.17-.86c-.16-2.68-.34-5.36-.51-8,0-2.48-.27-5-.34-7.49a1.83,1.83,0,0,0-.45-1.4A1.53,1.53,0,0,0,433.69.4C431.09.58,428.46.44,425.85.53ZM371.31,22.68l15.88-.22a2.15,2.15,0,0,0,1.1-.22,1.41,1.41,0,0,0,.59-1.12c.06-.83-.13-1.74-.14-2.58s0-1.94-.07-2.91c-.06-1.85-.14-3.7-.25-5.55s-.23-3.6-.37-5.39c-.06-.76.24-3.62-1.08-3.34-.38.08-.48.35-.46.71.22,3.19.45,6.38.65,9.58.11,1.71.21,3.43.31,5.15,0,.93.68,3.27-.22,3.9a2.91,2.91,0,0,1-1.65.36l-18.1.2a2.08,2.08,0,0,1-.9-.13c-.88-.45-.6-3.21-.66-4-.35-4.61-.16-9.28-.16-13.9a1.7,1.7,0,0,1,.39-1.33,1.61,1.61,0,0,1,1.08-.27l14.24-.3a1.12,1.12,0,0,1,.86.22,1.12,1.12,0,0,1,.22.76q.14,3.41.28,6.81c.06,1.42.09,2.84.09,4.27a10,10,0,0,1,0,2c-.23,1.07-1.08,1-2,1a71.17,71.17,0,0,1-8.64.2,1.16,1.16,0,0,1-.86-.27,1.14,1.14,0,0,1-.2-.73c-.11-2.44-.23-4.89-.34-7.33A1.83,1.83,0,0,1,371.19,7a1.79,1.79,0,0,1,1.36-.38H378a1,1,0,0,1,.63.14c.33.24.27.74.26,1.14a12.38,12.38,0,0,0,.2,1.92,2.58,2.58,0,0,1-.4,1.85c-.59.75-3,.67-3.48-.19a.86.86,0,0,1,.39-1.23,3,3,0,0,1,.74-.08.61.61,0,0,0,.57-.41c.06-.27-.2-.51-.47-.57a3.31,3.31,0,0,0-.83,0c-.31,0-.62,0-.94,0a1.14,1.14,0,0,0-.85.31c-.42.45,0,2,0,2.59a1.47,1.47,0,0,0,.26.9,1.48,1.48,0,0,0,1.11.36c1,0,2.08,0,3.12,0a3,3,0,0,0,1.11-.2c.93-.41.75-1.47.75-2.3,0-1,0-2-.07-3.06,0-.7.24-1.77-.46-2.2a2.55,2.55,0,0,0-1.37-.26l-6.81,0a1.74,1.74,0,0,0-1.48.46,1.78,1.78,0,0,0-.24,1.1l.06,9.4a1.87,1.87,0,0,0,.43,1.47,1.85,1.85,0,0,0,1.29.27l7.67-.23c1.13,0,5.37.54,5.22-1.3-.13-1.67-.12-3.35-.28-5-.31-3.19-.31-6.38-.34-9.58A1.84,1.84,0,0,0,383.5.55,1.88,1.88,0,0,0,382,.15c-5.23.17-10.51,0-15.75,0a2.5,2.5,0,0,0-1.43.29,1.48,1.48,0,0,0-.56.92,1.57,1.57,0,0,0-.05.3,27.43,27.43,0,0,0,.14,3c.06,1.52.13,3,.22,4.55.13,2.43,0,4.86.08,7.29,0,1.23.1,2.45.19,3.68.06.76,0,1.77.72,2.24a3.26,3.26,0,0,0,1.88.35ZM261,2.42c.07,1.14.07,2.28.15,3.43l.36,5.41c.23,3.49.7,7,.7,10.55a1.28,1.28,0,0,0,.19.72,1.3,1.3,0,0,0,1.09.32q9.6-.15,19.2-.43a3.13,3.13,0,0,0,1.36-.24c.93-.46.68-1.52.62-2.35-.1-1.53-.2-3.06-.29-4.59q-.32-4.65-.61-9.31l-.21-3.33a1.79,1.79,0,0,0-.31-1.07c-.24-.29-.78-.35-1,0l.66,10.27c.11,1.7.15,3.42.2,5.13,0,.88,0,1.77.11,2.64.05.52.19,1-.12,1.44a1.12,1.12,0,0,1-.3.26,2.75,2.75,0,0,1-1.45.27l-16.55.15a1.26,1.26,0,0,1-.92-.24,1.21,1.21,0,0,1-.25-.79l-.87-10.3c-.14-1.71-.29-3.43-.43-5.14-.06-.85-.43-2.92.44-3.39a1.68,1.68,0,0,1,.8-.14l13-.21a1.8,1.8,0,0,1,1.23.28,1.83,1.83,0,0,1,.45,1.32q.39,6,.77,11.93a3.07,3.07,0,0,1-.19,1.65c-.43.83-1.52.65-2.3.65l-7.07,0a1.82,1.82,0,0,1-1.4-.4,1.74,1.74,0,0,1-.32-1.1c-.1-1.52-.2-3-.29-4.56-.06-.79-.61-2.88.11-3.46a2.52,2.52,0,0,1,1.46-.39l4.64-.24a1,1,0,0,1,.56.08,1,1,0,0,1,.31.79l.21,3c0,.42,0,.91-.33,1.14a1.18,1.18,0,0,1-.62.14l-2.11.1a1.13,1.13,0,0,1-.77-.16,1.15,1.15,0,0,1-.32-.65c-.12-.55-.17-1.27.33-1.52a1.36,1.36,0,0,1,.91,0c.76.19,1.7-.45.95-1.19-.59-.59-2.19-.23-2.95-.19a1.11,1.11,0,0,0-.77.26,1.07,1.07,0,0,0-.14.85l.27,2.65a1.7,1.7,0,0,0,.32,1,1.67,1.67,0,0,0,1.22.35c1.13,0,2.26,0,3.39-.13.76-.06,2,0,2-1.07a50.82,50.82,0,0,0-.38-5.36,1.7,1.7,0,0,0-.28-1,1.61,1.61,0,0,0-1.23-.4c-2.43-.1-4.82,0-7.23.12-.38,0-.83.08-1,.41a1.23,1.23,0,0,0-.09.63l.45,9.75a1.91,1.91,0,0,0,.41,1.35,1.93,1.93,0,0,0,1.23.37c2.16.12,4.34.16,6.51.1,1.1,0,2.21-.08,3.32-.16s2.48.16,2.65-1.32a15.25,15.25,0,0,0-.17-2.7c-.07-1.49-.15-3-.23-4.47q-.23-4.45-.46-8.93a1,1,0,0,0-.34-.87.94.94,0,0,0-.55-.11H262.34A2.15,2.15,0,0,0,261,.28C260.42.74,260.93,1.8,261,2.42Zm42.35-2c-2.6.18-5.24,0-7.85.13-2.42.09-4.81.23-7.23.2a1.56,1.56,0,0,0-.91.19A1.33,1.33,0,0,0,287,2.16c.35,3.21.21,6.51.35,9.74.08,1.8.19,3.59.31,5.39.06.87.12,1.75.19,2.62.05.58,0,1.61.39,2.08a1.5,1.5,0,0,0,1.08.34q6.09.2,12.19.11c2,0,4.06-.1,6.09-.17,1.48-.05,1.73-.73,1.76-2.11q.07-2.7.06-5.4,0-5.46-.41-10.92c0-.35-.08-1.07-.49-1.23s-.72.39-.71.79l.21,8.07a66.82,66.82,0,0,1,.06,7.62c-.05.63.1,1.3-.47,1.85-.21.21-1.59.06-1.92.08l-2.19.08c-1.39.06-2.77.07-4.15.1-2.92.08-5.85.07-8.77,0a1.5,1.5,0,0,1-1.06-.31,1.52,1.52,0,0,1-.31-1q-.42-5.78-.85-11.53c-.1-1.38-.12-2.79-.3-4.16-.14-1-.08-2.37,1.22-2.34s2.67,0,4-.08q4.44-.13,8.89-.18a1.51,1.51,0,0,1,1.2.34,1.46,1.46,0,0,1,.26.87c.25,2.75.27,5.49.47,8.23.09,1.17.2,2.34.23,3.51,0,.68.37,2.32-.31,2.73a2.05,2.05,0,0,1-1.1.21l-7.8.11-1.52,0a1.28,1.28,0,0,1-.84-.18,1.35,1.35,0,0,1-.37-1.06c-.1-2.87-.21-5.74-.31-8.61a1.46,1.46,0,0,1,.22-1,1.47,1.47,0,0,1,1.09-.35l6.14-.21a1.24,1.24,0,0,1,.83.17c.33.25.32.74.3,1.16a19.82,19.82,0,0,0,.13,3.85c.07.52.37,2.06,0,2.46a1.1,1.1,0,0,1-.84.19L297.53,14a.79.79,0,0,1-.48-.13.82.82,0,0,1-.23-.65c0-.52-.06-1-.08-1.57a.91.91,0,0,1,.13-.67c.58-.74,2,.39,2.45-.58a.77.77,0,0,0-.34-.93,2,2,0,0,0-1.05-.24,9.49,9.49,0,0,0-1.6.1,1.3,1.3,0,0,0-.83.37,1.33,1.33,0,0,0-.17.84,27.75,27.75,0,0,0,.32,3.51,1.14,1.14,0,0,0,.38.83,1.17,1.17,0,0,0,.67.13c1.36,0,2.7.08,4.05.08.52,0,1.29,0,1.57-.51s.05-1.76,0-2.39c0-1.88-.1-3.76-.17-5.64a2,2,0,0,0-.32-1.27,2.09,2.09,0,0,0-1.75-.49l-7.54.2a2.15,2.15,0,0,0-1.79.63,2.13,2.13,0,0,0-.21,1.3q.29,5,.55,10a2,2,0,0,0,.6,1.63,2,2,0,0,0,1.23.24c4.21-.05,8.43,0,12.61-.35a3.06,3.06,0,0,0,.18-.86l-.51-8c0-2.48-.27-5-.35-7.49a1.79,1.79,0,0,0-.45-1.4A1.51,1.51,0,0,0,303.33.4ZM240.94,22.68l15.88-.22a2.15,2.15,0,0,0,1.1-.22,1.4,1.4,0,0,0,.6-1.12c.06-.83-.13-1.74-.15-2.58s0-1.94-.06-2.91c-.06-1.85-.15-3.7-.25-5.55s-.23-3.6-.37-5.39c-.06-.76.24-3.62-1.09-3.34-.37.08-.48.35-.46.71.22,3.19.45,6.38.66,9.58.11,1.71.2,3.43.3,5.15,0,.93.68,3.27-.22,3.9a2.86,2.86,0,0,1-1.64.36l-18.11.2a2.05,2.05,0,0,1-.89-.13c-.88-.45-.61-3.21-.67-4-.35-4.61-.15-9.28-.15-13.9a1.7,1.7,0,0,1,.39-1.33,1.6,1.6,0,0,1,1.07-.27l14.24-.3a1.11,1.11,0,0,1,.86.22,1.12,1.12,0,0,1,.22.76q.13,3.41.28,6.81c.06,1.42.1,2.84.09,4.27a10,10,0,0,1,0,2c-.22,1.07-1.07,1-2,1a71.38,71.38,0,0,1-8.65.2,1.14,1.14,0,0,1-.85-.27,1.21,1.21,0,0,1-.21-.73c-.11-2.44-.22-4.89-.34-7.33a1.79,1.79,0,0,1,.3-1.33,1.78,1.78,0,0,1,1.36-.38h5.45a1,1,0,0,1,.63.14c.34.24.28.74.26,1.14a15.43,15.43,0,0,0,.2,1.92,2.58,2.58,0,0,1-.39,1.85c-.6.75-3,.67-3.49-.19a.87.87,0,0,1,.39-1.23,3.11,3.11,0,0,1,.74-.08.62.62,0,0,0,.58-.41c.05-.27-.21-.51-.48-.57a3.22,3.22,0,0,0-.82,0c-.32,0-.63,0-.94,0a1.17,1.17,0,0,0-.86.31c-.41.45,0,2,0,2.59a1.47,1.47,0,0,0,.27.9,1.46,1.46,0,0,0,1.1.36c1,0,2.08,0,3.12,0a3,3,0,0,0,1.11-.2c.94-.41.76-1.47.75-2.3,0-1,0-2-.07-3.06,0-.7.24-1.77-.46-2.2A2.52,2.52,0,0,0,248,5.31l-6.81,0a1.77,1.77,0,0,0-1.49.46,1.71,1.71,0,0,0-.23,1.1l.05,9.4a1.87,1.87,0,0,0,.44,1.47,1.81,1.81,0,0,0,1.28.27l7.67-.23c1.13,0,5.37.54,5.23-1.3-.14-1.67-.12-3.35-.29-5-.31-3.19-.3-6.38-.33-9.58a1.94,1.94,0,0,0-.33-1.29,1.9,1.9,0,0,0-1.53-.4c-5.24.17-10.51,0-15.76,0a2.45,2.45,0,0,0-1.42.29,1.49,1.49,0,0,0-.57.92,1.54,1.54,0,0,0,0,.3,27.4,27.4,0,0,0,.13,3c.07,1.52.13,3,.22,4.55.14,2.43,0,4.86.08,7.29,0,1.23.1,2.45.2,3.68.06.76,0,1.77.72,2.24a3.25,3.25,0,0,0,1.88.35ZM312.93.9a1.31,1.31,0,0,0-1.06.39,1.29,1.29,0,0,0-.14.85c.27,4.63.59,9.18.55,13.83q0,2.51-.06,5a1,1,0,0,0,.15.67,1,1,0,0,0,.7.23q5.39.33,10.8.3c1.8,0,3.6,0,5.4-.11l2.77-.13c.5,0,1.63.21,2-.08a1,1,0,0,0,.29-.94c-.09-.89.08-1.79.07-2.7s0-2-.05-3c-.06-3.94-.16-7.87-.4-11.8a1.85,1.85,0,0,0-.19-.84.63.63,0,0,0-.73-.3c-.33.14-.37.59-.36,1,.08,2.67.12,5.35.15,8s.24,5.5.14,8.28a1.21,1.21,0,0,1-.2.75c-.37.42-1.57.3-2.08.3l-3.18,0-6.36.1-3.33.05c-.93,0-1.9.07-2.81,0a1.39,1.39,0,0,1-1.11-.55,1.23,1.23,0,0,1-.17-.45,3.45,3.45,0,0,1-.05-.64c-.06-2.65-.11-5.3-.17-7.95,0-1.35-.05-2.7-.08-4,0-.67,0-1.34,0-2a8.13,8.13,0,0,1-.15-2.25c.22-.84,1.08-.63,1.71-.62l12.87,0a1.19,1.19,0,0,1,.7.15,1.22,1.22,0,0,1,.35,1c.16,3.76.33,7.53.49,11.3a1.88,1.88,0,0,1-.3,1.4c-.45.51-1,.33-1.6.29-.87-.06-1.76,0-2.63,0l-5.38.05a1.37,1.37,0,0,1-.75-.14c-.39-.23-.45-.75-.47-1.2l-.21-3.75a16.13,16.13,0,0,0-.21-2.32c-.1-.48-.23-1.51.14-1.93s.9-.24,1.35-.26l3.14-.12a14.72,14.72,0,0,0,1.5-.1c.27-.05.47-.31.73,0a1.37,1.37,0,0,1,.18.77,32.56,32.56,0,0,1,0,4.94.77.77,0,0,1-.37.58,1.06,1.06,0,0,1-.56.07c-.64,0-1.93.26-2.28-.43s0-1.56-.07-2.28c0-.46-.39-1.47-1-.87-.24.23-.15.65-.15.95,0,1,0,2,0,3.06,0,.18,0,.39.16.49a.58.58,0,0,0,.32.06h3.34a2.66,2.66,0,0,0,1.37-.24c.65-.39.58-1.26.57-1.91,0-1,0-1.92-.08-2.87,0-.58-.06-1.17-.11-1.75,0-.37.05-1.13-.18-1.43-.43-.58-2.38-.28-3-.3l-2.6-.08c-.78,0-1.47.15-2.26.12a1.31,1.31,0,0,0-1.23.47,1.64,1.64,0,0,0-.14.73c0,1.1.21,2.1.26,3.17.09,2,.17,4,.3,5.94.11,1.66.38,1.91,2.05,1.91,3.13,0,6.26-.05,9.39-.11a2.42,2.42,0,0,0,2-.62c.19-.19,0-1.25-.06-1.53,0-.65,0-1.3,0-1.94l-.08-3.88L330.26,2a1.31,1.31,0,0,0-.22-.87,1.38,1.38,0,0,0-1-.32A157.79,157.79,0,0,0,312.93.9Zm35.6,10.15c-.44-.39-.2-1.46-.24-2a.79.79,0,0,0-.23-.63c-1.08-.8-.86,2.59-.83,2.94a1.17,1.17,0,0,0,.4,1,1.17,1.17,0,0,0,.64.12c.85,0,1.71,0,2.56-.05a1.67,1.67,0,0,0,1-.28c.58-.51.31-2,.3-2.67,0-1.14-.12-2.27-.12-3.4a1.43,1.43,0,0,0-.37-1.18,1.35,1.35,0,0,0-.86-.2c-1.79,0-3.58,0-5.36.19-1.05.08-3.22-.13-2.8,1.53a18.58,18.58,0,0,1,.32,4.08c0,1.6.14,3.2.21,4.8.05,1.09.81,1.1,1.69,1.09l3.33-.05,6.53-.11a1.51,1.51,0,0,0,1-.25.9.9,0,0,0,.31-.58,2.07,2.07,0,0,0,0-.82,28.16,28.16,0,0,1-.09-5.2c0-1.88,0-3.76,0-5.65a3.8,3.8,0,0,0-.4-2.06c-.65-1-2.33-.51-3.36-.51l-4.57,0h-8.18c-1.05,0-1.29.08-1.26,1.22.08,3.4.17,6.79.26,10.19l.13,5.17c0,1.12-.35,3,.76,3.74a2.75,2.75,0,0,0,1.45.3q9,.16,17.95-.28a2.76,2.76,0,0,0,1.89-.57,2.43,2.43,0,0,0,.4-2c-.07-.81-.07-1.64-.07-2.45V2.74c0-.28,0-.61-.27-.74a.54.54,0,0,0-.66.26,1.55,1.55,0,0,0-.13.77c0,2.65,0,5.3,0,8v4c0,.6,0,1.21,0,1.82a13.76,13.76,0,0,1,.15,1.7,1.72,1.72,0,0,1-.73,1.37,2.57,2.57,0,0,1-1.35.28l-15.66.37a2.48,2.48,0,0,1-1.55-.29,2.52,2.52,0,0,1-.81-1.88,63.24,63.24,0,0,1-.46-8.59c0-1.31.06-2.56,0-3.88,0-.28-.32-2.95-.07-3.06A2.21,2.21,0,0,1,340,2.6c2.35-.14,4.7-.08,7.06,0,1.15,0,2.3.06,3.46.07.92,0,1.93-.12,2.84,0a1.3,1.3,0,0,1,1,.6,2.08,2.08,0,0,1,.17.82c.08,1.6,0,3.2,0,4.8a23.35,23.35,0,0,0-.08,4.42,1.36,1.36,0,0,1-.32,1.31,1.48,1.48,0,0,1-.91.2h-8.64a54.94,54.94,0,0,1-.18-7.7,1,1,0,0,1,.18-.62,1,1,0,0,1,.55-.21,24.53,24.53,0,0,1,5.68-.18c.07,1.15.13,2.29.2,3.43,0,.43.29,1,0,1.42s-1.17.31-1.68.28C349.06,11.17,348.7,11.21,348.53,11.05ZM173,.4c-2.6.18-5.23,0-7.84.13-2.43.09-4.81.23-7.24.2a1.53,1.53,0,0,0-.9.19,1.33,1.33,0,0,0-.36,1.24c.35,3.21.21,6.51.36,9.74.08,1.8.18,3.59.3,5.39.06.87.13,1.75.2,2.62,0,.58,0,1.61.38,2.08a1.5,1.5,0,0,0,1.08.34q6.09.2,12.19.11c2,0,4.07-.1,6.1-.17,1.47-.05,1.72-.73,1.76-2.11q.07-2.7.06-5.4,0-5.46-.42-10.92c0-.35-.08-1.07-.48-1.23s-.72.39-.71.79l.2,8.07a69.21,69.21,0,0,1,.07,7.62c-.06.63.09,1.3-.47,1.85-.22.21-1.59.06-1.92.08l-2.2.08c-1.38.06-2.76.07-4.14.11q-4.39.11-8.78,0a1.48,1.48,0,0,1-1-.31,1.42,1.42,0,0,1-.31-1q-.43-5.78-.86-11.53c-.1-1.38-.11-2.79-.29-4.16-.14-1-.08-2.37,1.22-2.34s2.66,0,4-.08q4.44-.13,8.88-.18A1.51,1.51,0,0,1,173,2a1.54,1.54,0,0,1,.27.87c.24,2.75.26,5.49.47,8.23.08,1.17.19,2.34.23,3.51,0,.68.36,2.32-.32,2.73a2,2,0,0,1-1.09.21l-7.81.11-1.51,0a1.31,1.31,0,0,1-.85-.18A1.31,1.31,0,0,1,162,16.4q-.17-4.3-.31-8.61a1.41,1.41,0,0,1,.21-1A1.48,1.48,0,0,1,163,6.43l6.14-.21a1.24,1.24,0,0,1,.83.17c.33.25.32.74.3,1.16a20.64,20.64,0,0,0,.14,3.85c.07.52.36,2.06,0,2.46a1.11,1.11,0,0,1-.84.19L167.16,14a.83.83,0,0,1-.48-.13.82.82,0,0,1-.23-.65c0-.52,0-1-.08-1.57a1,1,0,0,1,.13-.67c.59-.74,2,.39,2.46-.58a.78.78,0,0,0-.35-.93,2,2,0,0,0-1.05-.24,9.44,9.44,0,0,0-1.59.1,1.28,1.28,0,0,0-.83.37,1.34,1.34,0,0,0-.18.84,29.73,29.73,0,0,0,.32,3.51,1.15,1.15,0,0,0,.39.83,1.17,1.17,0,0,0,.67.13c1.36,0,2.69.08,4,.08.51,0,1.28,0,1.57-.51s0-1.76,0-2.39c-.05-1.88-.1-3.76-.17-5.64a2.11,2.11,0,0,0-.33-1.27,2.08,2.08,0,0,0-1.74-.49L162.2,5a2.12,2.12,0,0,0-1.78.63,2.06,2.06,0,0,0-.21,1.3q.27,5,.55,10a2,2,0,0,0,.59,1.63,2.07,2.07,0,0,0,1.23.24c4.21-.05,8.43,0,12.62-.35a3.45,3.45,0,0,0,.17-.86c-.16-2.68-.34-5.36-.51-8,0-2.48-.27-5-.34-7.49a1.83,1.83,0,0,0-.45-1.4A1.53,1.53,0,0,0,173,.4Zm45.2,10.65c-.43-.39-.2-1.46-.23-2a.86.86,0,0,0-.23-.63c-1.09-.8-.87,2.59-.84,2.94a1.2,1.2,0,0,0,.4,1,1.17,1.17,0,0,0,.64.12c.86,0,1.71,0,2.56-.05a1.64,1.64,0,0,0,1-.28c.59-.51.32-2,.3-2.67,0-1.14-.11-2.27-.11-3.4a1.5,1.5,0,0,0-.37-1.18,1.37,1.37,0,0,0-.87-.2c-1.79,0-3.58,0-5.36.19-1.05.08-3.21-.13-2.8,1.53a18.58,18.58,0,0,1,.33,4.08c0,1.6.14,3.2.21,4.8.05,1.09.81,1.1,1.69,1.09l3.33-.05,6.52-.11a1.52,1.52,0,0,0,1-.25.9.9,0,0,0,.31-.58,2.27,2.27,0,0,0-.05-.82,27.32,27.32,0,0,1-.08-5.2c0-1.88,0-3.76-.05-5.65a3.71,3.71,0,0,0-.4-2.06c-.65-1-2.33-.51-3.35-.51l-4.58,0H209c-1.05,0-1.3.08-1.27,1.22L208,12.59c0,1.72.09,3.45.13,5.17,0,1.12-.35,3,.77,3.74a2.75,2.75,0,0,0,1.45.3q9,.16,17.95-.28a2.72,2.72,0,0,0,1.88-.57,2.4,2.4,0,0,0,.4-2c-.07-.81-.07-1.64-.07-2.45V13.16c0-3.47,0-6.95,0-10.42,0-.28,0-.61-.28-.74a.54.54,0,0,0-.66.26,1.67,1.67,0,0,0-.13.77q0,4,0,8v4c0,.6,0,1.21,0,1.82s.19,1.13.15,1.7a1.73,1.73,0,0,1-.74,1.37,2.55,2.55,0,0,1-1.34.28l-15.67.37a2.49,2.49,0,0,1-1.55-.29,2.56,2.56,0,0,1-.81-1.88,63.23,63.23,0,0,1-.45-8.59c0-1.31,0-2.56,0-3.88,0-.28-.32-2.95-.08-3.06a2.21,2.21,0,0,1,.63-.28c2.35-.14,4.71-.08,7.06,0,1.15,0,2.31.06,3.46.07.93,0,1.94-.12,2.84,0a1.29,1.29,0,0,1,1,.6,1.78,1.78,0,0,1,.17.82c.09,1.6,0,3.2,0,4.8a23.34,23.34,0,0,0-.07,4.42,1.36,1.36,0,0,1-.33,1.31,1.46,1.46,0,0,1-.9.2H214.2a53.46,53.46,0,0,1-.19-7.7.9.9,0,0,1,.19-.62,1,1,0,0,1,.54-.21,24.54,24.54,0,0,1,5.68-.18c.07,1.15.14,2.29.2,3.43,0,.43.29,1,0,1.42s-1.18.31-1.68.28C218.7,11.17,218.33,11.21,218.16,11.05ZM130.61,2.42c.08,1.14.08,2.28.15,3.43l.36,5.41c.23,3.49.7,7,.7,10.55a1.28,1.28,0,0,0,.2.72,1.27,1.27,0,0,0,1.08.32q9.6-.15,19.2-.43a3.1,3.1,0,0,0,1.36-.24c.93-.46.68-1.52.63-2.35l-.3-4.59-.6-9.31c-.08-1.11-.15-2.22-.22-3.33a1.79,1.79,0,0,0-.3-1.07c-.25-.29-.78-.35-1,0q.33,5.13.67,10.27c.11,1.7.14,3.42.2,5.13,0,.88,0,1.77.11,2.64.05.52.18,1-.13,1.44a1.07,1.07,0,0,1-.29.26,2.79,2.79,0,0,1-1.46.27l-16.55.15a1.25,1.25,0,0,1-.91-.24,1.21,1.21,0,0,1-.26-.79c-.29-3.43-.57-6.86-.86-10.29-.15-1.72-.3-3.44-.43-5.15-.07-.85-.44-2.92.44-3.39a1.65,1.65,0,0,1,.8-.14l13-.21a1.8,1.8,0,0,1,1.23.28,1.83,1.83,0,0,1,.45,1.32L148.69,15a3.28,3.28,0,0,1-.19,1.65c-.44.83-1.53.65-2.31.65l-7.07,0a1.83,1.83,0,0,1-1.4-.4,1.8,1.8,0,0,1-.32-1.1l-.29-4.56c-.05-.79-.61-2.88.11-3.46a2.52,2.52,0,0,1,1.46-.39l4.64-.24a1,1,0,0,1,.56.08,1,1,0,0,1,.32.79c.07,1,.13,2,.2,3,0,.42,0,.91-.33,1.14a1.15,1.15,0,0,1-.61.14l-2.11.1a1.16,1.16,0,0,1-.78-.16,1.08,1.08,0,0,1-.31-.65c-.13-.55-.18-1.27.33-1.52a1.36,1.36,0,0,1,.91,0c.75.19,1.69-.45.95-1.19-.6-.59-2.2-.23-2.95-.19a1.08,1.08,0,0,0-.77.26,1.08,1.08,0,0,0-.15.85l.27,2.65a1.7,1.7,0,0,0,.33,1,1.64,1.64,0,0,0,1.22.35c1.13,0,2.26,0,3.39-.13.76-.06,2,0,2-1.07a48.3,48.3,0,0,0-.39-5.36,1.62,1.62,0,0,0-.28-1,1.61,1.61,0,0,0-1.23-.4c-2.42-.1-4.82,0-7.23.12a1.17,1.17,0,0,0-1,.41,1.13,1.13,0,0,0-.09.63c.15,3.25.29,6.5.44,9.75a1.92,1.92,0,0,0,.42,1.35,1.9,1.9,0,0,0,1.22.37c2.17.12,4.34.16,6.51.1,1.11,0,2.22-.08,3.32-.16s2.48.16,2.66-1.32a16.26,16.26,0,0,0-.17-2.7c-.08-1.49-.16-3-.23-4.47-.16-3-.31-5.95-.46-8.92,0-.33-.06-.71-.34-.88a.94.94,0,0,0-.55-.11H132a2.18,2.18,0,0,0-1.31.28C130.05.74,130.57,1.8,130.61,2.42ZM182.56.9a1.32,1.32,0,0,0-1.06.39,1.35,1.35,0,0,0-.14.85c.28,4.63.6,9.18.56,13.83,0,1.67,0,3.34-.07,5a1,1,0,0,0,.16.67.92.92,0,0,0,.69.23q5.4.33,10.8.3c1.8,0,3.6,0,5.4-.11l2.77-.13c.5,0,1.64.21,2.05-.08a1,1,0,0,0,.28-.94c-.08-.89.08-1.79.07-2.7s0-2,0-3c-.06-3.94-.16-7.87-.4-11.8a1.84,1.84,0,0,0-.18-.84.64.64,0,0,0-.73-.3c-.34.14-.38.59-.37,1,.09,2.67.12,5.35.16,8s.23,5.5.14,8.28a1.16,1.16,0,0,1-.21.75c-.36.42-1.57.3-2.08.3l-3.18,0-6.35.1-3.33.05c-.93,0-1.9.07-2.82,0a1.37,1.37,0,0,1-1.1-.55,1.25,1.25,0,0,1-.18-.45,3.45,3.45,0,0,1,0-.64c-.05-2.65-.11-5.3-.16-7.95,0-1.35-.06-2.7-.08-4,0-.67,0-1.34,0-2a8.12,8.12,0,0,1-.14-2.25c.22-.84,1.07-.63,1.7-.62l12.87,0a1.22,1.22,0,0,1,.71.15,1.18,1.18,0,0,1,.34,1c.17,3.76.33,7.53.5,11.3a2,2,0,0,1-.3,1.4c-.45.51-1,.33-1.61.29-.86-.06-1.76,0-2.62,0l-5.39.05a1.38,1.38,0,0,1-.75-.14,1.41,1.41,0,0,1-.47-1.2l-.2-3.75a16.13,16.13,0,0,0-.22-2.32c-.1-.48-.23-1.51.14-1.93S188.54,7,189,7l3.14-.12a14.91,14.91,0,0,0,1.51-.1c.27-.05.46-.31.72,0a1.23,1.23,0,0,1,.18.77,32.56,32.56,0,0,1,0,4.94.76.76,0,0,1-.36.58,1.11,1.11,0,0,1-.57.07c-.64,0-1.92.26-2.27-.43s0-1.56-.08-2.28c0-.46-.39-1.47-1-.87-.24.23-.15.65-.14.95,0,1,0,2,0,3.06a.56.56,0,0,0,.17.49.54.54,0,0,0,.31.06h3.34a2.64,2.64,0,0,0,1.37-.24c.65-.39.59-1.26.57-1.91,0-1,0-1.92-.07-2.87,0-.58-.06-1.17-.12-1.75,0-.37.05-1.13-.18-1.43-.43-.58-2.38-.28-3-.3l-2.6-.08c-.78,0-1.47.15-2.25.12a1.31,1.31,0,0,0-1.23.47,1.41,1.41,0,0,0-.14.73c0,1.1.2,2.1.25,3.17.09,2,.18,4,.31,5.94.1,1.66.37,1.91,2,1.91,3.13,0,6.27-.05,9.4-.11a2.4,2.4,0,0,0,2-.62c.19-.19,0-1.25-.05-1.53,0-.65,0-1.3,0-1.94,0-1.3-.05-2.59-.07-3.88L199.9,2a1.38,1.38,0,0,0-.23-.87,1.36,1.36,0,0,0-1-.32A158,158,0,0,0,182.56.9ZM104.06.41a1.48,1.48,0,0,0-.56.92,1.57,1.57,0,0,0,0,.3,27.43,27.43,0,0,0,.14,3c.06,1.52.13,3,.21,4.55.14,2.43,0,4.86.08,7.29,0,1.23.11,2.45.2,3.68.06.76,0,1.77.72,2.24a3.25,3.25,0,0,0,1.88.35l3.9-.05,15.88-.22a2.15,2.15,0,0,0,1.1-.22,1.41,1.41,0,0,0,.59-1.12c.06-.83-.13-1.74-.14-2.58s0-1.94-.07-2.91c-.06-1.85-.14-3.7-.25-5.55s-.23-3.6-.37-5.39c-.06-.76.24-3.62-1.08-3.34-.38.08-.48.35-.46.71q.33,4.79.65,9.58c.11,1.71.2,3.43.3,5.15.06.93.68,3.27-.21,3.9a2.91,2.91,0,0,1-1.65.36l-18.1.2a2.08,2.08,0,0,1-.9-.13c-.88-.45-.6-3.21-.66-4-.35-4.61-.16-9.28-.16-13.9a1.7,1.7,0,0,1,.39-1.33,1.61,1.61,0,0,1,1.08-.27l14.23-.3a1.13,1.13,0,0,1,.87.22,1.18,1.18,0,0,1,.22.76q.12,3.41.28,6.81c.06,1.42.09,2.84.09,4.27a10,10,0,0,1,0,2c-.23,1.07-1.08,1-2,1a71.17,71.17,0,0,1-8.64.2,1.16,1.16,0,0,1-.86-.27,1.14,1.14,0,0,1-.2-.73c-.11-2.44-.23-4.89-.34-7.33A1.78,1.78,0,0,1,110.46,7a1.79,1.79,0,0,1,1.36-.38h5.46a1.07,1.07,0,0,1,.63.14c.33.24.27.74.26,1.15a12.38,12.38,0,0,0,.2,1.91,2.58,2.58,0,0,1-.4,1.85c-.59.75-3,.67-3.49-.19a.87.87,0,0,1,.4-1.23,3,3,0,0,1,.74-.08.61.61,0,0,0,.57-.41c.06-.27-.21-.51-.48-.57a3.23,3.23,0,0,0-.82,0c-.31,0-.62,0-.94,0a1.14,1.14,0,0,0-.85.31c-.42.45,0,2,0,2.59a1.47,1.47,0,0,0,.26.9,1.48,1.48,0,0,0,1.11.36c1,0,2.08,0,3.12,0a3,3,0,0,0,1.11-.2c.93-.41.75-1.47.75-2.3,0-1,0-2-.07-3.06,0-.7.24-1.77-.46-2.2a2.55,2.55,0,0,0-1.37-.26l-6.81,0a1.74,1.74,0,0,0-1.48.46,1.78,1.78,0,0,0-.24,1.1l0,9.4a1.91,1.91,0,0,0,.44,1.47,1.91,1.91,0,0,0,1.29.28l7.67-.24c1.13,0,5.37.54,5.22-1.3-.13-1.67-.12-3.35-.28-5-.32-3.19-.31-6.38-.34-9.58a2,2,0,0,0-.33-1.29,1.88,1.88,0,0,0-1.53-.4c-5.23.17-10.51,0-15.75,0A2.48,2.48,0,0,0,104.06.41ZM52.2.9a1.31,1.31,0,0,0-1.06.39,1.29,1.29,0,0,0-.14.85c.27,4.63.59,9.18.55,13.83q0,2.51-.06,5a1,1,0,0,0,.15.67.94.94,0,0,0,.69.23q5.4.33,10.81.3c1.8,0,3.6,0,5.4-.11l2.77-.13c.49,0,1.63.21,2-.08a1,1,0,0,0,.29-.94c-.09-.89.08-1.79.07-2.7s0-2-.06-3c-.05-3.94-.15-7.87-.39-11.8a1.85,1.85,0,0,0-.19-.84.64.64,0,0,0-.73-.3c-.33.14-.38.59-.36,1,.08,2.67.11,5.35.15,8s.24,5.5.14,8.28a1.21,1.21,0,0,1-.2.75c-.37.42-1.58.3-2.08.3l-3.18,0-6.36.1-3.33.05c-.93,0-1.9.07-2.81,0a1.39,1.39,0,0,1-1.11-.55,1.23,1.23,0,0,1-.17-.45A3.47,3.47,0,0,1,53,19.2l-.16-7.95c0-1.35-.05-2.7-.08-4,0-.67,0-1.34,0-2a8.13,8.13,0,0,1-.15-2.25c.22-.84,1.08-.63,1.71-.62l12.87,0a1.19,1.19,0,0,1,.7.15,1.22,1.22,0,0,1,.35,1c.16,3.76.33,7.53.49,11.3a1.88,1.88,0,0,1-.3,1.4c-.45.51-1,.33-1.61.29-.86-.06-1.75,0-2.62,0l-5.38.05a1.42,1.42,0,0,1-.76-.14c-.38-.23-.44-.75-.47-1.2-.06-1.25-.13-2.5-.2-3.75a16.13,16.13,0,0,0-.21-2.32c-.1-.48-.24-1.51.14-1.93S58.17,7,58.62,7l3.14-.12a14.91,14.91,0,0,0,1.5-.1c.27-.05.46-.31.73,0a1.37,1.37,0,0,1,.18.77,33.91,33.91,0,0,1,0,4.94.77.77,0,0,1-.37.58,1.06,1.06,0,0,1-.56.07c-.64,0-1.93.26-2.28-.43s0-1.56-.07-2.28c0-.46-.4-1.47-1-.87-.24.23-.15.65-.15.95l0,3.06c0,.18,0,.39.17.49a.58.58,0,0,0,.32.06h3.33a2.68,2.68,0,0,0,1.38-.24c.65-.39.58-1.26.57-1.91,0-1,0-1.92-.08-2.87,0-.58-.06-1.17-.12-1.75,0-.37,0-1.13-.17-1.43-.43-.58-2.38-.28-3-.3l-2.6-.08c-.78,0-1.47.15-2.26.12A1.31,1.31,0,0,0,56,6.13a1.51,1.51,0,0,0-.14.73c0,1.1.21,2.1.26,3.17.08,2,.17,4,.3,5.94.11,1.66.37,1.91,2.05,1.91,3.13,0,6.26-.05,9.39-.11a2.43,2.43,0,0,0,2-.62c.19-.19,0-1.25-.06-1.53,0-.65,0-1.3,0-1.94,0-1.3,0-2.59-.07-3.88L69.53,2a1.37,1.37,0,0,0-.22-.87,1.38,1.38,0,0,0-1-.32A157.79,157.79,0,0,0,52.2.9ZM42.59.4c-2.6.18-5.23,0-7.84.13-2.42.09-4.81.23-7.23.2a1.55,1.55,0,0,0-.91.19,1.33,1.33,0,0,0-.35,1.24c.35,3.21.2,6.51.35,9.74.08,1.8.18,3.59.31,5.39.06.87.12,1.75.19,2.62.05.58,0,1.61.39,2.08a1.5,1.5,0,0,0,1.08.34q6.09.2,12.19.11c2,0,4.06-.1,6.09-.17,1.47-.05,1.72-.73,1.76-2.11q.08-2.7.06-5.4,0-5.46-.42-10.92c0-.35-.07-1.07-.48-1.23s-.72.39-.71.79l.21,8.07a69.2,69.2,0,0,1,.06,7.62c-.05.63.1,1.3-.47,1.85-.21.21-1.59.06-1.92.08l-2.19.08c-1.39.06-2.77.07-4.15.11q-4.38.11-8.78,0a1.49,1.49,0,0,1-1-.31,1.52,1.52,0,0,1-.31-1q-.42-5.78-.85-11.53c-.1-1.38-.12-2.79-.3-4.16-.14-1-.08-2.37,1.22-2.34s2.67,0,4-.08q4.44-.13,8.89-.18a1.51,1.51,0,0,1,1.2.34,1.46,1.46,0,0,1,.26.87c.25,2.75.27,5.49.47,8.23.09,1.17.19,2.34.23,3.51,0,.68.37,2.32-.31,2.73a2.05,2.05,0,0,1-1.1.21l-7.8.11-1.52,0a1.28,1.28,0,0,1-.84-.18,1.35,1.35,0,0,1-.37-1.06c-.1-2.87-.21-5.74-.31-8.61a1.46,1.46,0,0,1,.22-1,1.45,1.45,0,0,1,1.09-.35l6.14-.21a1.24,1.24,0,0,1,.83.17c.32.25.32.74.3,1.16a19.82,19.82,0,0,0,.13,3.85c.07.52.37,2.06,0,2.46a1.1,1.1,0,0,1-.84.19L36.8,14a.79.79,0,0,1-.48-.13.82.82,0,0,1-.23-.65c0-.52-.06-1-.08-1.57a1,1,0,0,1,.12-.67c.59-.74,2,.39,2.46-.58a.77.77,0,0,0-.34-.93,2,2,0,0,0-1-.24,9.49,9.49,0,0,0-1.6.1,1.3,1.3,0,0,0-.83.37,1.27,1.27,0,0,0-.17.84A27.75,27.75,0,0,0,34.92,14a1.14,1.14,0,0,0,.38.83A1.17,1.17,0,0,0,36,15c1.36,0,2.7.08,4.05.08.52,0,1.28,0,1.57-.51s0-1.76,0-2.39c0-1.88-.1-3.76-.17-5.64a2,2,0,0,0-.32-1.27,2.09,2.09,0,0,0-1.75-.49L31.84,5a2.15,2.15,0,0,0-1.79.63,2.13,2.13,0,0,0-.21,1.3q.29,5,.55,10a2,2,0,0,0,.6,1.63,2,2,0,0,0,1.23.24c4.21-.05,8.43,0,12.61-.35a4,4,0,0,0,.18-.86l-.51-8c0-2.48-.27-5-.35-7.49A1.79,1.79,0,0,0,43.7.65,1.53,1.53,0,0,0,42.59.4ZM87.8,11.05c-.44-.39-.21-1.46-.24-2a.79.79,0,0,0-.23-.63c-1.08-.8-.86,2.59-.84,2.94a1.18,1.18,0,0,0,.41,1,1.17,1.17,0,0,0,.64.12c.85,0,1.71,0,2.56-.05a1.67,1.67,0,0,0,1-.28c.58-.51.31-2,.3-2.67,0-1.14-.12-2.27-.12-3.4a1.43,1.43,0,0,0-.37-1.18,1.35,1.35,0,0,0-.86-.2c-1.79,0-3.58,0-5.36.19-1,.08-3.22-.13-2.8,1.53a19.21,19.21,0,0,1,.32,4.08c.05,1.6.14,3.2.21,4.8,0,1.09.81,1.1,1.69,1.09l3.33-.05L94,16.21A1.51,1.51,0,0,0,95,16a.9.9,0,0,0,.31-.58,2.52,2.52,0,0,0,0-.82,28.16,28.16,0,0,1-.09-5.2c0-1.88,0-3.76,0-5.65a3.89,3.89,0,0,0-.4-2.06c-.66-1-2.33-.51-3.36-.51l-4.57,0H78.63c-1,0-1.29.08-1.27,1.22l.27,10.19c0,1.72.08,3.45.13,5.17,0,1.12-.36,3,.76,3.74a2.75,2.75,0,0,0,1.45.3q9,.16,18-.28A2.72,2.72,0,0,0,99.8,21a2.4,2.4,0,0,0,.41-2c-.07-.81-.07-1.64-.07-2.45,0-1.1,0-2.21,0-3.31V2.74c0-.28,0-.61-.27-.74a.54.54,0,0,0-.66.26,1.55,1.55,0,0,0-.13.77q0,4,0,8v4c0,.6,0,1.21,0,1.82a13.76,13.76,0,0,1,.15,1.7,1.75,1.75,0,0,1-.73,1.37,2.57,2.57,0,0,1-1.35.28l-15.66.37a2.51,2.51,0,0,1-1.56-.29,2.55,2.55,0,0,1-.8-1.88,63.24,63.24,0,0,1-.46-8.59c0-1.31,0-2.56,0-3.88,0-.28-.32-2.95-.08-3.06a2.21,2.21,0,0,1,.63-.28c2.36-.14,4.71-.08,7.07,0,1.15,0,2.3.06,3.46.07.92,0,1.93-.12,2.84,0a1.3,1.3,0,0,1,1,.6,2.08,2.08,0,0,1,.17.82c.08,1.6,0,3.2,0,4.8a24.21,24.21,0,0,0-.07,4.42,1.36,1.36,0,0,1-.32,1.31,1.48,1.48,0,0,1-.91.2H83.83a53.46,53.46,0,0,1-.18-7.7,1,1,0,0,1,.18-.62,1,1,0,0,1,.55-.21,24.53,24.53,0,0,1,5.68-.18c.06,1.15.13,2.29.2,3.43,0,.43.29,1,0,1.42s-1.18.31-1.68.28C88.33,11.17,88,11.21,87.8,11.05ZM23.3,22.18c.93-.46.67-1.52.62-2.35l-.3-4.59L23,5.93C23,4.82,22.88,3.71,22.8,2.6a1.79,1.79,0,0,0-.3-1.07c-.24-.29-.78-.35-1,0l.66,10.27c.11,1.7.15,3.42.2,5.13,0,.88,0,1.77.11,2.64,0,.52.19,1-.12,1.44a1.12,1.12,0,0,1-.3.26,2.77,2.77,0,0,1-1.46.27l-16.54.15a1.26,1.26,0,0,1-.92-.24,1.21,1.21,0,0,1-.25-.79L2.05,10.35c-.14-1.72-.29-3.44-.43-5.15-.06-.85-.43-2.92.44-3.39a1.68,1.68,0,0,1,.8-.14l13-.21a1.8,1.8,0,0,1,1.23.28,1.83,1.83,0,0,1,.45,1.32q.39,6,.77,11.93a3.07,3.07,0,0,1-.19,1.65c-.43.83-1.52.65-2.3.65l-7.08,0a1.81,1.81,0,0,1-1.39-.4A1.74,1.74,0,0,1,7,15.77l-.3-4.56c0-.79-.61-2.88.12-3.46a2.52,2.52,0,0,1,1.46-.39L13,7.12a1,1,0,0,1,.56.08,1,1,0,0,1,.31.79c.07,1,.14,2,.2,3,0,.42,0,.91-.32,1.14a1.2,1.2,0,0,1-.62.14l-2.11.1a1.16,1.16,0,0,1-.78-.16,1.14,1.14,0,0,1-.31-.65c-.12-.55-.17-1.27.33-1.52a1.36,1.36,0,0,1,.91,0c.76.19,1.7-.45.95-1.19-.6-.59-2.19-.23-2.95-.19a1.11,1.11,0,0,0-.77.26,1.08,1.08,0,0,0-.15.85c.1.88.19,1.77.28,2.65a1.63,1.63,0,0,0,.32,1,1.67,1.67,0,0,0,1.22.35c1.13,0,2.26,0,3.39-.13.76-.06,2,0,2-1.07A48.3,48.3,0,0,0,15,7.22a1.56,1.56,0,0,0-.28-1,1.59,1.59,0,0,0-1.23-.4c-2.42-.1-4.81,0-7.22.12-.38,0-.83.08-1,.41A1.23,1.23,0,0,0,5.2,7l.45,9.75a1.91,1.91,0,0,0,.41,1.35,1.93,1.93,0,0,0,1.23.37c2.16.12,4.34.16,6.51.1,1.1,0,2.21-.08,3.32-.16s2.48.16,2.65-1.32a15.25,15.25,0,0,0-.17-2.7c-.07-1.49-.15-3-.23-4.47C19.22,7,19.07,4,18.91,1a1,1,0,0,0-.34-.88A.94.94,0,0,0,18,0H1.61A2.15,2.15,0,0,0,.3.28C-.32.74.2,1.8.24,2.42.32,3.56.32,4.7.4,5.85l.36,5.41c.23,3.49.7,7,.7,10.55a1.28,1.28,0,0,0,.19.72,1.3,1.3,0,0,0,1.09.32q9.6-.15,19.2-.43A3.16,3.16,0,0,0,23.3,22.18Z"/></svg>