<svg id="bbea83b9-235b-426f-a5c3-d6e80045b972" data-name="Layer 1" xmlns="http://www.w3.org/2000/svg" viewBox="0 0 481.27 32.04"><defs><style>.b6a17f5c-b859-4f3a-bacd-84b322e6cd50{fill:#d8edbc;}.a70797b9-9854-4bc1-9729-49d440562e44{fill:#649297;}.a7a39738-81ea-4dff-b029-29d2f64cb16c{fill:#c397c9;}.eb6ab759-c8a5-4f24-84b8-4520160267f6{fill:#3e342f;}</style></defs><path class="b6a17f5c-b859-4f3a-bacd-84b322e6cd50" d="M1.42,18.78h.89c.56,0,1.13,0,1.69,0a1.65,1.65,0,0,1,.85.18c.54.35.58,1.14.66,1.69a9.08,9.08,0,0,0,.75,2.2A13,13,0,0,0,9,26.7c2.85,2.77,6.54,3.66,10.42,3.53a13.81,13.81,0,0,0,7.4-2A11.88,11.88,0,0,0,31.13,23a11.16,11.16,0,0,0,.67-2.1,2.35,2.35,0,0,1,.34-1c.36-.48,1.14-.32,1.66-.36,2.55-.17,5.16,0,7.73,0a2,2,0,0,1,.87.15c.56.28.33.81.37,1.31a8.53,8.53,0,0,0,.44,1.86,10.17,10.17,0,0,0,1.9,3.32,11.84,11.84,0,0,0,6.11,3.93,14.62,14.62,0,0,0,3.5.2,10.7,10.7,0,0,0,3.92-.74,11.15,11.15,0,0,0,2.08-1.09,10.76,10.76,0,0,0,4.36-6.37,6.38,6.38,0,0,1,.49-1.67,1.27,1.27,0,0,1,.68-.67,7.48,7.48,0,0,1,1.42,0,17.44,17.44,0,0,1,1.77,0c1.15,0,2.29,0,3.44,0a1,1,0,0,1,.43.06.87.87,0,0,1,.39.51c.26.75.43,1.52.62,2.28a10.93,10.93,0,0,0,7.12,7.47A12.63,12.63,0,0,0,91.8,28.84a15,15,0,0,0,6.83-9.71,2.34,2.34,0,0,1,.37-.62c0-.07.25-.1.52-.1.6,0,1.55.13,1.73.13l2.72,0,3,.05c.68,0,2.06-.28,2.46.41a2.35,2.35,0,0,1,.24,1,10.47,10.47,0,0,0,3.81,7c3.85,3.1,9.72,3.24,14,.84A10,10,0,0,0,132.62,20a2.32,2.32,0,0,1,.31-1.31c.6-.76,1.67-.38,2.47-.29a14,14,0,0,0,2,.3c.66,0,1.33.06,2,.06s1.51-.27,2.06.22a1.65,1.65,0,0,1,.44.74,6.9,6.9,0,0,1,.2,1,7.18,7.18,0,0,0,.52,1.67l.23.53a13,13,0,0,0,2.69,3.8c2.85,2.77,6.54,3.66,10.42,3.53a13.81,13.81,0,0,0,7.4-2,11.88,11.88,0,0,0,4.36-5.2,11.16,11.16,0,0,0,.67-2.1,2.35,2.35,0,0,1,.34-1c.36-.48,1.14-.32,1.66-.36,2.55-.17,5.16,0,7.73,0a2,2,0,0,1,.87.15c.56.28.33.81.37,1.31a8.53,8.53,0,0,0,.44,1.86,10.17,10.17,0,0,0,1.9,3.32,11.84,11.84,0,0,0,6.11,3.93,14.62,14.62,0,0,0,3.5.2,10.6,10.6,0,0,0,10.36-8.2,6.38,6.38,0,0,1,.49-1.67,1.27,1.27,0,0,1,.68-.67,7.48,7.48,0,0,1,1.42,0,17.44,17.44,0,0,1,1.77,0c1.15,0,2.29,0,3.44,0a1,1,0,0,1,.43.06.87.87,0,0,1,.39.51c.26.75.42,1.52.62,2.28a10.93,10.93,0,0,0,7.12,7.47,12.63,12.63,0,0,0,10.36-1.26,15,15,0,0,0,6.83-9.71,2.57,2.57,0,0,1,.36-.62c0-.07.26-.1.53-.1.6,0,1.55.13,1.73.13l2.72,0,3,.05c.68,0,2.06-.28,2.46.41a2.35,2.35,0,0,1,.24,1,10.47,10.47,0,0,0,3.81,7c3.85,3.1,9.72,3.24,14,.84A10,10,0,0,0,269.25,20c.06-1,.7-1.31,1.63-1.24s1.78,0,2.66,0a17.68,17.68,0,0,0,2.52.06c.66-.09,1.41-.4,2,.12a1.65,1.65,0,0,1,.44.74,6.9,6.9,0,0,1,.2,1c0,.15.06.3.1.44a7.76,7.76,0,0,0,.42,1.23l.23.53a13,13,0,0,0,2.69,3.8c2.85,2.77,6.54,3.66,10.42,3.53a13.81,13.81,0,0,0,7.4-2,11.88,11.88,0,0,0,4.36-5.2,11.16,11.16,0,0,0,.67-2.1,2.35,2.35,0,0,1,.34-1c.36-.48,1.14-.32,1.66-.36,2.55-.17,5.16,0,7.73,0a2,2,0,0,1,.87.15c.56.28.33.81.37,1.31a8.53,8.53,0,0,0,.44,1.86,10.17,10.17,0,0,0,1.9,3.32,11.84,11.84,0,0,0,6.11,3.93,14.62,14.62,0,0,0,3.5.2,10.6,10.6,0,0,0,10.36-8.2,6.38,6.38,0,0,1,.49-1.67,1.27,1.27,0,0,1,.68-.67,7.48,7.48,0,0,1,1.42,0,17.36,17.36,0,0,1,1.77,0c1.15,0,2.29,0,3.44,0a1,1,0,0,1,.43.06.87.87,0,0,1,.39.51c.25.75.42,1.52.62,2.28a10.93,10.93,0,0,0,7.12,7.47A12.63,12.63,0,0,0,365,28.84a15.07,15.07,0,0,0,6.83-9.71,2.57,2.57,0,0,1,.36-.62c0-.07.26-.1.53-.1.6,0,1.55.13,1.73.13l2.72,0,3,.05c.68,0,2.06-.28,2.46.41a2.35,2.35,0,0,1,.24,1,10.47,10.47,0,0,0,3.81,7c3.85,3.1,9.72,3.24,14,.84A10,10,0,0,0,405.8,20c.05-.9.18-1.27,1.09-1.4A12.73,12.73,0,0,1,409,18.5c1.25,0,2.5.2,3.75.21.67,0,1.51-.27,2.06.22a1.56,1.56,0,0,1,.44.74,5.83,5.83,0,0,1,.2,1,8.28,8.28,0,0,0,.52,1.67l.24.53a12.64,12.64,0,0,0,2.69,3.8c2.84,2.77,6.54,3.66,10.41,3.53a13.79,13.79,0,0,0,7.4-2,11.9,11.9,0,0,0,4.37-5.2,10.44,10.44,0,0,0,.66-2.1,2.5,2.5,0,0,1,.34-1c.36-.48,1.14-.32,1.66-.36,2.56-.17,5.16,0,7.73,0a2,2,0,0,1,.87.15c.56.28.33.81.38,1.31a8.51,8.51,0,0,0,.43,1.86,10.2,10.2,0,0,0,1.91,3.32,11.77,11.77,0,0,0,6.1,3.93,14.65,14.65,0,0,0,3.5.2,10.75,10.75,0,0,0,3.93-.74,11.38,11.38,0,0,0,2.07-1.09,10.68,10.68,0,0,0,4.36-6.37,6.44,6.44,0,0,1,.5-1.67,1.25,1.25,0,0,1,.67-.67,7.48,7.48,0,0,1,1.42,0,17.44,17.44,0,0,1,1.77,0,1.8,1.8,0,0,0,1.75-1.22,2.58,2.58,0,0,0-.57-2.5c-.49-.37-1.26-.17-1.83-.16a23.48,23.48,0,0,1-2.37-.1,1,1,0,0,1-.57-.2,1,1,0,0,1-.24-.48c-.18-.61-.34-1.21-.51-1.79a11.32,11.32,0,0,0-2.42-4.83A11.15,11.15,0,0,0,467,5.23a11.42,11.42,0,0,0-13,6.44,11.77,11.77,0,0,0-.88,2.89c-.13.85-.29,1.58-1.33,1.56s-2.32,0-3.48,0-2.42,0-3.63,0c-.75,0-2.28.23-2.75-.52a2.63,2.63,0,0,1-.29-1.36,13.7,13.7,0,0,0-3-8.2,13.53,13.53,0,0,0-7.29-4.57,13,13,0,0,0-3.93-.29,13.24,13.24,0,0,0-11.24,8.1,11.58,11.58,0,0,0-.81,4.86c0,.46,0,1-.43,1.24a4.86,4.86,0,0,1-1.87.29c-1.37.09-2.74,0-4.11,0-.84,0-2.38.35-2.87-.56a2.85,2.85,0,0,1-.26-1,15.08,15.08,0,0,0-3.38-7.37A10.61,10.61,0,0,0,394.63,3a11.76,11.76,0,0,0-8.15,3.16,13.17,13.17,0,0,0-4,7.84,3.12,3.12,0,0,1-.34,1.27c-.64,1-3.15.54-4.16.54h-5.19a.69.69,0,0,1-.52-.19.87.87,0,0,1-.17-.47,20.67,20.67,0,0,0-1.34-5.32A10.93,10.93,0,0,0,368,6.08a12.78,12.78,0,0,0-8.21-2.83,11.61,11.61,0,0,0-8,2.92,14.12,14.12,0,0,0-4.5,8.19,1.93,1.93,0,0,1-.43,1.15,1.77,1.77,0,0,1-1.2.29,52.22,52.22,0,0,1-6,0,1,1,0,0,1-.57-.2,1,1,0,0,1-.24-.48c-.18-.61-.34-1.21-.51-1.79a11.32,11.32,0,0,0-2.42-4.83,11.23,11.23,0,0,0-5.68-3.27,11.4,11.4,0,0,0-13,6.44,11.77,11.77,0,0,0-.88,2.89c-.14.85-.29,1.58-1.34,1.56s-2.31,0-3.47,0-2.42,0-3.64,0c-.75,0-2.27.23-2.75-.52a2.85,2.85,0,0,1-.29-1.36A13.69,13.69,0,0,0,301.88,6a13.59,13.59,0,0,0-7.3-4.57,12.91,12.91,0,0,0-3.92-.29,13.24,13.24,0,0,0-11.25,8.1,11.57,11.57,0,0,0-.8,4.86c0,.67-.05,1.18-.76,1.31a14.13,14.13,0,0,1-2.52.06,20.08,20.08,0,0,0-2.33.09c-.59.06-1.19,0-1.79,0s-1.28.1-1.64-.57a2.85,2.85,0,0,1-.26-1,15.08,15.08,0,0,0-3.38-7.37A10.61,10.61,0,0,0,258.08,3a11.76,11.76,0,0,0-8.15,3.16A13.17,13.17,0,0,0,246,14a3.12,3.12,0,0,1-.34,1.27c-.64,1-3.15.54-4.16.54h-5.19a.69.69,0,0,1-.52-.19.87.87,0,0,1-.17-.47,20.67,20.67,0,0,0-1.34-5.32,10.93,10.93,0,0,0-2.81-3.76,12.78,12.78,0,0,0-8.21-2.83,11.61,11.61,0,0,0-8,2.92,14.12,14.12,0,0,0-4.5,8.19,1.93,1.93,0,0,1-.43,1.15,1.77,1.77,0,0,1-1.2.29,52.22,52.22,0,0,1-6,0,1,1,0,0,1-.57-.2,1,1,0,0,1-.24-.48c-.18-.61-.34-1.21-.51-1.79a11.32,11.32,0,0,0-2.42-4.83,11.19,11.19,0,0,0-5.68-3.27,11.4,11.4,0,0,0-13,6.44,11.77,11.77,0,0,0-.88,2.89c-.14.85-.29,1.58-1.34,1.56s-2.31,0-3.47,0-2.42,0-3.64,0c-.75,0-2.27.23-2.75-.52a2.85,2.85,0,0,1-.29-1.36A13.69,13.69,0,0,0,165.33,6,13.6,13.6,0,0,0,158,1.44a13,13,0,0,0-3.93-.29,13.24,13.24,0,0,0-11.25,8.1,11.73,11.73,0,0,0-.8,4.86c0,.45,0,1-.38,1.23l-.08,0a6.34,6.34,0,0,1-3.06.29,18.91,18.91,0,0,0-3.28,0c-.8.09-1.86.28-2.32-.6a2.85,2.85,0,0,1-.26-1,15.08,15.08,0,0,0-3.38-7.37A10.61,10.61,0,0,0,121.45,3a11.76,11.76,0,0,0-8.15,3.16,13.17,13.17,0,0,0-4,7.84,3.12,3.12,0,0,1-.34,1.27c-.64,1-3.15.54-4.16.54H99.64a.69.69,0,0,1-.52-.19.87.87,0,0,1-.17-.47,20.67,20.67,0,0,0-1.34-5.32A10.93,10.93,0,0,0,94.8,6.08a12.78,12.78,0,0,0-8.21-2.83,11.61,11.61,0,0,0-8,2.92,14.12,14.12,0,0,0-4.5,8.19,1.93,1.93,0,0,1-.43,1.15,1.77,1.77,0,0,1-1.2.29,52.22,52.22,0,0,1-6,0,1,1,0,0,1-.57-.2,1,1,0,0,1-.24-.48c-.18-.61-.34-1.21-.51-1.79A11.32,11.32,0,0,0,62.68,8.5,11.19,11.19,0,0,0,57,5.23a11.4,11.4,0,0,0-13,6.44,11.77,11.77,0,0,0-.88,2.89c-.14.85-.29,1.58-1.33,1.56s-2.32,0-3.48,0-2.42,0-3.64,0c-.75,0-2.27.23-2.75-.52a2.85,2.85,0,0,1-.29-1.36A13.69,13.69,0,0,0,28.7,6a13.6,13.6,0,0,0-7.29-4.57,13,13,0,0,0-3.93-.29c-6.67.51-12.38,6.07-12,13,0,.45,0,1-.38,1.23a1.09,1.09,0,0,1-.54.11,26.57,26.57,0,0,1-4,0,1.29,1.29,0,0,0-.48.84A2.66,2.66,0,0,0,0,17a4.13,4.13,0,0,0,.12,1,1.63,1.63,0,0,0,.55.83A1.83,1.83,0,0,1,1.42,18.78ZM456.2,15.34A8.94,8.94,0,0,1,460,9.72a8.83,8.83,0,0,1,5-1.34,7.69,7.69,0,0,1,4.4,1.28,9.46,9.46,0,0,1,2.93,4,5.6,5.6,0,0,1,.21.66,10.62,10.62,0,0,1,0,5.37c-.08.29-.18.58-.29.87a9.35,9.35,0,0,1-5.35,5.39,6.77,6.77,0,0,1-2.86.38,8.93,8.93,0,0,1-5.91-3A9.15,9.15,0,0,1,456.2,15.34ZM425.65,6.18a9.17,9.17,0,0,1,2.63-.43,11.18,11.18,0,0,1,6.32,1.83,8.78,8.78,0,0,1,3.55,6,10.76,10.76,0,0,1-1,7,8.2,8.2,0,0,1-4.61,3.71,14.07,14.07,0,0,1-4.94.73c-4.6-.26-8.75-4-8.79-8.76C418.83,12,421.37,7.54,425.65,6.18Zm-39.18,5.17a9.73,9.73,0,0,1,9.25-4.43,8.78,8.78,0,0,1,7.19,5.72,11.8,11.8,0,0,1,.46,4.43c0,.11,0,.22,0,.34a11,11,0,0,1-.93,3.92,8.27,8.27,0,0,1-2.87,2.89A8,8,0,0,1,395,25.61a10.29,10.29,0,0,1-5.46-1,8.19,8.19,0,0,1-3.59-4.31A10.91,10.91,0,0,1,386.47,11.35ZM356.14,7.94c3.18-1.33,6.57-.54,9.4,1.21a6.91,6.91,0,0,1,2,1.84,9.85,9.85,0,0,1-1.59,12.72,9.61,9.61,0,0,1-12.21.16,9.18,9.18,0,0,1-3.18-6.12c0-.24,0-.5,0-.74A9.55,9.55,0,0,1,356.14,7.94Zm-36.73,7.4a8.6,8.6,0,0,1,8.79-7,7.71,7.71,0,0,1,4.4,1.28,9.63,9.63,0,0,1,2.93,4c.08.21.15.45.21.66a10.85,10.85,0,0,1,0,5.37c-.09.29-.18.58-.29.87a9.34,9.34,0,0,1-5.36,5.39,6.73,6.73,0,0,1-2.85.38,8.94,8.94,0,0,1-5.92-3A9.17,9.17,0,0,1,319.41,15.34ZM288.85,6.18a9.28,9.28,0,0,1,2.63-.43,11.19,11.19,0,0,1,6.33,1.83,8.82,8.82,0,0,1,3.55,6,10.76,10.76,0,0,1-1,7,8.22,8.22,0,0,1-4.62,3.71,14,14,0,0,1-4.94.73c-4.59-.26-8.74-4-8.78-8.76C282,12,284.58,7.54,288.85,6.18Zm-38.93,5.17a9.73,9.73,0,0,1,9.25-4.43,8.78,8.78,0,0,1,7.19,5.72,11.8,11.8,0,0,1,.46,4.43c0,.11,0,.22,0,.34a11,11,0,0,1-.93,3.92A8.27,8.27,0,0,1,263,24.22a8,8,0,0,1-4.59,1.39,10.29,10.29,0,0,1-5.46-1,8.19,8.19,0,0,1-3.59-4.31A10.91,10.91,0,0,1,249.92,11.35ZM219.59,7.94c3.18-1.33,6.57-.54,9.4,1.21A6.91,6.91,0,0,1,231,11a9.85,9.85,0,0,1-1.59,12.72,9.61,9.61,0,0,1-12.21.16A9.22,9.22,0,0,1,214,17.75c0-.24,0-.5,0-.74A9.55,9.55,0,0,1,219.59,7.94Zm-36.73,7.4a8.6,8.6,0,0,1,8.79-7,7.71,7.71,0,0,1,4.4,1.28,9.63,9.63,0,0,1,2.93,4c.08.21.15.45.21.66a10.85,10.85,0,0,1,0,5.37c-.09.29-.18.58-.29.87a9.34,9.34,0,0,1-5.36,5.39,6.73,6.73,0,0,1-2.85.38,8.94,8.94,0,0,1-5.92-3A9.17,9.17,0,0,1,182.86,15.34ZM152.31,6.18a9.15,9.15,0,0,1,2.62-.43,11.19,11.19,0,0,1,6.33,1.83,8.82,8.82,0,0,1,3.55,6,10.76,10.76,0,0,1-1,7,8.22,8.22,0,0,1-4.62,3.71,14,14,0,0,1-4.94.73c-4.59-.26-8.74-4-8.78-8.76C145.49,12,148,7.54,152.31,6.18Zm-39,5.17a9.73,9.73,0,0,1,9.25-4.43,8.78,8.78,0,0,1,7.19,5.72,11.6,11.6,0,0,1,.46,4.43c0,.11,0,.22,0,.34a10.57,10.57,0,0,1-.93,3.92,8.27,8.27,0,0,1-2.87,2.89,8,8,0,0,1-4.59,1.39,10.29,10.29,0,0,1-5.46-1,8.19,8.19,0,0,1-3.59-4.31A10.91,10.91,0,0,1,113.29,11.35ZM83,7.94c3.18-1.33,6.57-.54,9.4,1.21a6.91,6.91,0,0,1,2,1.84,9.85,9.85,0,0,1-1.59,12.72,9.61,9.61,0,0,1-12.21.16,9.22,9.22,0,0,1-3.18-6.12c0-.24,0-.5,0-.74A9.55,9.55,0,0,1,83,7.94Zm-36.73,7.4a8.61,8.61,0,0,1,8.79-7,7.71,7.71,0,0,1,4.4,1.28,9.63,9.63,0,0,1,2.93,4,5.6,5.6,0,0,1,.21.66,10.85,10.85,0,0,1,0,5.37c-.08.29-.18.58-.29.87a9.35,9.35,0,0,1-5.35,5.39,6.77,6.77,0,0,1-2.86.38,9,9,0,0,1-5.92-3A9.17,9.17,0,0,1,46.23,15.34Zm-37.35,1c0-4.35,2.52-8.78,6.8-10.14a9.15,9.15,0,0,1,2.62-.43,11.19,11.19,0,0,1,6.33,1.83,8.78,8.78,0,0,1,3.55,6,10.76,10.76,0,0,1-1,7,8.19,8.19,0,0,1-4.62,3.71,14,14,0,0,1-4.94.73C13.07,24.82,8.92,21,8.88,16.32Z"/><path class="a70797b9-9854-4bc1-9729-49d440562e44" d="M125.39,9.13a.61.61,0,0,1,.51.16c.29.2.62.46.61.83a1.17,1.17,0,0,1-.26.57c-1.78,2.56-3.58,5.08-5.24,7.74-1,1.64-2.12,3.24-3.12,4.93a.72.72,0,0,1-.26.31c-.27.13-.57-.05-.8-.22s-.6-.49-.58-.84a.86.86,0,0,1,.13-.42.2.2,0,0,1,.05-.09c.37-.65.78-1.26,1.2-1.89s.65-1.14,1-1.69c1-1.55,2.07-3.11,3.16-4.65s2.28-2.93,3.32-4.48A.63.63,0,0,1,125.39,9.13Zm2.88,5.44c-.47.77-1,1.53-1.46,2.27s-1.12,1.53-1.66,2.3a47,47,0,0,0-3,4.81.23.23,0,0,0-.06.19c0,.12.18.16.31.16a1.48,1.48,0,0,0,1.08-.2,1.64,1.64,0,0,0,.29-.4c1-1.81,2.27-3.48,3.39-5.23.43-.65.81-1.33,1.2-2a4.39,4.39,0,0,0,.83-1.71,4.34,4.34,0,0,0-.17-1.07s0-.1-.09-.1-.06,0-.08.07C128.66,13.94,128.47,14.26,128.27,14.57ZM10.33,18.15a1.53,1.53,0,0,1,.14-.21c1.15-1.77,2.52-3.39,3.82-5,1.46-1.86,2.9-3.73,4.35-5.58.12-.16.26-.33.22-.52-.11-.67-1.45.21-1.65.42a15.94,15.94,0,0,0-1.33,1.71c-.49.63-1,1.28-1.49,1.89A41.28,41.28,0,0,0,10.49,16a2.37,2.37,0,0,0-.41,2.12c0,.05.05.12.11.14S10.3,18.2,10.33,18.15Zm50.52-4.5q-.45.66-.93,1.26c-1.89,2.37-3.54,4.9-5.42,7.26a11.07,11.07,0,0,0-.91,1.25,8,8,0,0,1-.82,1.09c-.11.11-.21.26-.13.4s.15.13.26.17a1.83,1.83,0,0,0,.86.13c.4-.07.46-.38.63-.67a16.18,16.18,0,0,1,1-1.33A33.64,33.64,0,0,0,57.78,20C58.86,18.66,60,17.3,61,15.88a2.32,2.32,0,0,0,.56-1.17c0-.33-.17-.55-.18-.89,0-.17-.1-.37-.27-.36S60.91,13.56,60.85,13.65ZM14.09,22.8c.75-1,1.34-2.08,2-3.11.92-1.41,1.86-2.83,2.78-4.23,1.38-2.1,2.65-4.27,4.19-6.23a1.6,1.6,0,0,0,.35-.57.61.61,0,0,0,0-.3A.65.65,0,0,0,23.3,8a.63.63,0,0,0-.7,0,1.84,1.84,0,0,0-.52.52q-2,2.67-3.87,5.41c-1.6,2.33-3.13,4.72-4.71,7a6.44,6.44,0,0,0-.49.83.66.66,0,0,0,0,.55C13.16,22.77,13.75,23.22,14.09,22.8ZM26.89,17c-.59.91-1.24,1.78-1.86,2.69-.44.64-.9,1.24-1.3,1.89a9.24,9.24,0,0,0-.52,1,.46.46,0,0,0-.05.3.28.28,0,0,0,.33.17,3.73,3.73,0,0,0,2.06-1.54,9.57,9.57,0,0,0,1.76-4.37c0-.12,0-.28-.11-.33S27,16.89,26.89,17Zm30.17-6.35c-.18.25-.39.5-.58.74-.39.48-.77,1-1.14,1.46-.74,1-1.48,1.92-2.2,2.89-1.36,1.83-2.73,3.66-4.15,5.44a1.1,1.1,0,0,0-.29.84,1.37,1.37,0,0,0,.46.74.39.39,0,0,0,.34.2.42.42,0,0,0,.25-.22c0-.07.1-.13.15-.21.34-.49.68-1,1-1.45a25.37,25.37,0,0,0,1.92-2.58l2-2.64c.65-.86,1.25-1.75,1.88-2.62.32-.43.63-.87,1-1.29a8.28,8.28,0,0,1,.71-1.07.59.59,0,0,0,.23-.53,1.23,1.23,0,0,0-.72-.56C57.41,9.72,57.27,10.33,57.06,10.65Zm-8.91,5.87c1.32-1.59,2.53-3.33,4-4.78.2-.22.41-.42.6-.63s.46-.61.27-.85a.66.66,0,0,0-.68-.11,7.43,7.43,0,0,0-5.06,6c-.05.26,0,.6.22.71S48,16.72,48.15,16.52ZM90.43,9.68a2,2,0,0,0-.12.19C88,13.3,85.67,16.66,83.37,20.06c-.61.91-1.07,1.9-1.63,2.82a.59.59,0,0,0-.09.55.6.6,0,0,0,.3.24c.19.12.4.23.59.34s.17.09.26.06.14-.12.19-.2c.54-1,1.08-2,1.65-2.91s1.16-2,1.81-3c.92-1.37,1.84-2.74,2.77-4.09l1.38-2c.19-.29.35-.61.57-.91a1.44,1.44,0,0,0,.31-.74c0-.37-.31-.59-.61-.74a.46.46,0,0,0-.23,0C90.54,9.51,90.48,9.61,90.43,9.68Zm3.68,4.64c-.06.13-.13.27-.2.4-1.26,2.35-2.76,4.57-4.07,6.89-.25.41-.48.84-.72,1.25A5.35,5.35,0,0,1,88.44,24c-.08.15-.17.34-.06.48s.31.08.46,0a9.29,9.29,0,0,0,4.83-4,9.21,9.21,0,0,0,1-6.19c0-.1,0-.21-.13-.26S94.21,14.15,94.11,14.32Zm-11-2.91c-.69,1.09-1.35,2.21-2,3.28a32.68,32.68,0,0,1-1.93,2.77,2.55,2.55,0,0,0-.6,1.26c0,.24.07,1.24.56.91.19-.13.26-.5.38-.7s.4-.58.61-.86.57-.76.84-1.15l2-3a10.76,10.76,0,0,0,.92-1.32,13.29,13.29,0,0,0,.91-1.35,19.54,19.54,0,0,1,1.72-2.54c.08-.11.16-.28.06-.38a.25.25,0,0,0-.13-.06l-.11,0a1.75,1.75,0,0,0-1.28.35,3.89,3.89,0,0,0-.87,1.21C83.84,10.33,83.48,10.87,83.14,11.41Zm30.66,7.28a1,1,0,0,0,0,.24A.16.16,0,0,0,114,19a.21.21,0,0,0,.14-.12c.55-.88,1-1.84,1.64-2.67s1.06-1.39,1.56-2.11c1.33-1.9,2.66-3.81,4-5.74.06-.09.12-.19.07-.27s-.13-.1-.21-.12L120.73,8a1.4,1.4,0,0,0-.79.14,1.69,1.69,0,0,0-.48.48c-1,1.23-1.77,2.56-2.69,3.82s-1.91,2.58-2.85,3.89a2,2,0,0,0-.42.86C113.42,17.66,113.77,18.16,113.8,18.69Zm116.94-4.37c-.06.13-.13.27-.2.4-1.26,2.35-2.77,4.57-4.07,6.89-.25.41-.48.84-.72,1.25a5.35,5.35,0,0,1-.68,1.16c-.08.15-.17.34-.06.48s.31.08.46,0a9,9,0,0,0,5.85-10.22c0-.1,0-.21-.13-.26S230.84,14.15,230.74,14.32Zm-84,3.8c0,.05,0,.12.11.14s.11-.06.14-.11a1.53,1.53,0,0,1,.14-.21c1.15-1.77,2.52-3.39,3.82-5,1.46-1.86,2.9-3.73,4.35-5.58.12-.16.26-.33.22-.52-.11-.67-1.45.21-1.65.42a14.76,14.76,0,0,0-1.33,1.71c-.5.63-1,1.28-1.49,1.89a41.28,41.28,0,0,0-3.9,5.18A2.37,2.37,0,0,0,146.71,18.12Zm73.06-6.71c-.69,1.09-1.35,2.21-2.05,3.28s-1.24,1.88-1.93,2.77a2.55,2.55,0,0,0-.6,1.26c0,.24.07,1.24.56.91.19-.13.26-.5.38-.7s.4-.58.61-.86.57-.76.83-1.15c.68-1,1.36-2,2-3a10.76,10.76,0,0,0,.92-1.32,15.18,15.18,0,0,0,.91-1.35,19.54,19.54,0,0,1,1.72-2.54c.08-.11.15-.28.06-.38a.25.25,0,0,0-.14-.06l-.1,0a1.75,1.75,0,0,0-1.28.35,3.89,3.89,0,0,0-.87,1.21C220.47,10.33,220.11,10.87,219.77,11.41Zm-22.29,2.24q-.45.66-.93,1.26c-1.89,2.37-3.54,4.9-5.42,7.26a11.07,11.07,0,0,0-.91,1.25,8,8,0,0,1-.82,1.09c-.11.11-.21.26-.14.4a.47.47,0,0,0,.27.17,1.83,1.83,0,0,0,.86.13c.4-.07.46-.38.63-.67a16.18,16.18,0,0,1,1-1.33A33.64,33.64,0,0,0,194.41,20c1.08-1.37,2.2-2.73,3.21-4.15a2.32,2.32,0,0,0,.56-1.17c0-.33-.17-.55-.18-.89,0-.17-.1-.37-.27-.36S197.54,13.56,197.48,13.65ZM158.71,8.53q-2,2.67-3.87,5.41c-1.6,2.33-3.13,4.72-4.72,7a7.74,7.74,0,0,0-.48.83.66.66,0,0,0,0,.55c.17.41.76.86,1.1.44.75-1,1.34-2.08,2-3.11.92-1.41,1.85-2.83,2.78-4.23,1.38-2.1,2.65-4.27,4.19-6.23a1.6,1.6,0,0,0,.35-.57.61.61,0,0,0,0-.3.53.53,0,0,0-.17-.34.62.62,0,0,0-.69,0A1.84,1.84,0,0,0,158.71,8.53ZM163.52,17c-.59.91-1.25,1.78-1.86,2.69-.44.64-.9,1.24-1.3,1.89a9.24,9.24,0,0,0-.52,1,.46.46,0,0,0-.05.3.28.28,0,0,0,.33.17,3.73,3.73,0,0,0,2.06-1.54,9.44,9.44,0,0,0,1.75-4.37c0-.12,0-.28-.1-.33S163.6,16.89,163.52,17Zm30.17-6.35c-.19.25-.39.5-.59.74-.38.48-.76,1-1.13,1.46-.74,1-1.48,1.92-2.2,2.89-1.37,1.83-2.73,3.66-4.15,5.44a1.06,1.06,0,0,0-.29.84,1.37,1.37,0,0,0,.46.74.39.39,0,0,0,.34.2.42.42,0,0,0,.25-.22l.15-.21c.34-.49.68-1,1-1.45a27,27,0,0,0,1.92-2.58l2-2.64c.65-.86,1.25-1.75,1.88-2.62.32-.43.63-.87,1-1.29a7.36,7.36,0,0,1,.71-1.07.59.59,0,0,0,.23-.53,1.26,1.26,0,0,0-.72-.56C194,9.72,193.9,10.33,193.69,10.65Zm68.08-1.26c-1,1.55-2.26,2.95-3.32,4.48s-2.12,3.1-3.16,4.65c-.38.55-.67,1.14-1,1.69s-.83,1.24-1.2,1.89a.2.2,0,0,0-.05.09.87.87,0,0,0-.14.42c0,.35.31.63.59.84s.53.35.8.22a.72.72,0,0,0,.26-.31c1-1.69,2.09-3.29,3.12-4.93,1.66-2.66,3.46-5.18,5.24-7.74a1.17,1.17,0,0,0,.26-.57c0-.37-.32-.63-.61-.83a.61.61,0,0,0-.51-.16A.63.63,0,0,0,261.77,9.39Zm3.13,5.18c-.47.77-.95,1.53-1.46,2.27s-1.12,1.53-1.66,2.3a47,47,0,0,0-3,4.81.23.23,0,0,0-.06.19c0,.12.18.16.31.16a1.48,1.48,0,0,0,1.08-.2,2,2,0,0,0,.29-.4c1-1.81,2.26-3.48,3.39-5.23.43-.65.81-1.33,1.2-2a4.23,4.23,0,0,0,.82-1.71,3.57,3.57,0,0,0-.17-1.07s0-.1-.08-.1-.06,0-.08.07C265.29,13.94,265.1,14.26,264.9,14.57ZM227.06,9.68a2,2,0,0,0-.12.19c-2.27,3.43-4.64,6.79-6.94,10.19-.61.91-1.07,1.9-1.63,2.82a.59.59,0,0,0-.09.55.6.6,0,0,0,.3.24c.19.12.4.23.59.34s.17.09.26.06.14-.12.19-.2c.54-1,1.08-2,1.65-2.91s1.16-2,1.8-3c.93-1.37,1.85-2.74,2.78-4.09l1.38-2c.19-.29.35-.61.57-.91a1.53,1.53,0,0,0,.31-.74c0-.37-.31-.59-.61-.74a.46.46,0,0,0-.23,0C227.17,9.51,227.11,9.61,227.06,9.68Zm23.37,9a1,1,0,0,0,0,.24.16.16,0,0,0,.19.11c.07,0,.1-.07.14-.12.55-.88,1-1.84,1.64-2.67s1.06-1.39,1.56-2.11c1.33-1.9,2.66-3.81,4-5.74.06-.09.12-.19.07-.27s-.13-.1-.21-.12a3.71,3.71,0,0,0-.45-.06,1.4,1.4,0,0,0-.79.14,1.69,1.69,0,0,0-.48.48c-1,1.23-1.77,2.56-2.69,3.82s-1.91,2.58-2.85,3.89a2.12,2.12,0,0,0-.43.86C250.05,17.66,250.4,18.16,250.43,18.69Zm-65.65-2.17c1.32-1.59,2.53-3.33,4-4.78.2-.22.41-.42.6-.63s.46-.61.27-.85a.66.66,0,0,0-.68-.11,7.43,7.43,0,0,0-5.06,6c-.05.26,0,.6.22.71S184.61,16.72,184.78,16.52ZM334,13.65c-.31.44-.61.86-.94,1.26-1.88,2.37-3.53,4.9-5.41,7.26a11.07,11.07,0,0,0-.91,1.25,8,8,0,0,1-.82,1.09c-.11.11-.21.26-.14.4a.47.47,0,0,0,.27.17,1.83,1.83,0,0,0,.86.13c.4-.07.46-.38.63-.67a16.18,16.18,0,0,1,1-1.33A33.64,33.64,0,0,0,331,20c1.08-1.37,2.2-2.73,3.21-4.15a2.32,2.32,0,0,0,.56-1.17c0-.33-.17-.55-.18-.89,0-.17-.1-.37-.27-.36S334.09,13.56,334,13.65Zm-3.79-3c-.19.25-.39.5-.59.74-.38.48-.76,1-1.13,1.46-.74,1-1.48,1.92-2.2,2.89-1.37,1.83-2.73,3.66-4.15,5.44a1.06,1.06,0,0,0-.29.84,1.37,1.37,0,0,0,.46.74.39.39,0,0,0,.34.2.42.42,0,0,0,.25-.22l.15-.21c.34-.49.68-1,1-1.45A27,27,0,0,0,326,18.5c.67-.89,1.35-1.77,2-2.64s1.25-1.75,1.88-2.62c.32-.43.63-.87,1-1.29a7.36,7.36,0,0,1,.71-1.07.59.59,0,0,0,.23-.53,1.26,1.26,0,0,0-.72-.56C330.59,9.72,330.45,10.33,330.24,10.65Zm-8.91,5.87c1.32-1.59,2.53-3.33,4-4.78.2-.22.41-.42.6-.63s.46-.61.27-.85a.66.66,0,0,0-.68-.11,7.43,7.43,0,0,0-5.06,6c-.05.26,0,.6.22.71S321.16,16.72,321.33,16.52Zm80.12-1.95c-.47.77-.95,1.53-1.46,2.27s-1.12,1.53-1.66,2.3a47,47,0,0,0-3,4.81.23.23,0,0,0-.06.19c0,.12.18.16.31.16a1.48,1.48,0,0,0,1.08-.2,2,2,0,0,0,.29-.4c1-1.81,2.26-3.48,3.39-5.23.43-.65.81-1.33,1.2-2a4.23,4.23,0,0,0,.82-1.71,3.57,3.57,0,0,0-.17-1.07s0-.1-.08-.1-.06,0-.08.07C401.84,13.94,401.65,14.26,401.45,14.57Zm-106.19-6q-2,2.67-3.87,5.41c-1.6,2.33-3.13,4.72-4.72,7a6.35,6.35,0,0,0-.48.83.66.66,0,0,0,0,.55c.17.41.76.86,1.1.44.75-1,1.34-2.08,2-3.11.92-1.41,1.85-2.83,2.78-4.23,1.38-2.1,2.65-4.27,4.19-6.23a1.6,1.6,0,0,0,.35-.57.61.61,0,0,0,0-.3.53.53,0,0,0-.17-.34.62.62,0,0,0-.69,0A1.84,1.84,0,0,0,295.26,8.53Zm-12,9.59c0,.05.05.12.11.14s.11-.06.14-.11a1.53,1.53,0,0,1,.14-.21c1.15-1.77,2.52-3.39,3.82-5,1.46-1.86,2.9-3.73,4.35-5.58.12-.16.26-.33.22-.52-.11-.67-1.45.21-1.65.42a13.74,13.74,0,0,0-1.33,1.71c-.5.63-1,1.28-1.49,1.89a41.28,41.28,0,0,0-3.9,5.18A2.37,2.37,0,0,0,283.26,18.12ZM300.07,17c-.59.91-1.25,1.78-1.86,2.69-.44.64-.9,1.24-1.3,1.89a9.24,9.24,0,0,0-.52,1,.46.46,0,0,0-.05.3.28.28,0,0,0,.33.17,3.73,3.73,0,0,0,2.06-1.54,9.44,9.44,0,0,0,1.75-4.37c0-.12,0-.28-.1-.33S300.15,16.89,300.07,17Zm98.25-7.61c-1.05,1.55-2.26,2.95-3.32,4.48s-2.12,3.1-3.16,4.65c-.38.55-.67,1.14-1,1.69s-.83,1.24-1.2,1.89a.2.2,0,0,0-.05.09.87.87,0,0,0-.14.42c0,.35.31.63.59.84s.53.35.8.22a.72.72,0,0,0,.26-.31c1-1.69,2.09-3.29,3.12-4.93,1.65-2.66,3.46-5.18,5.24-7.74a1.17,1.17,0,0,0,.26-.57c0-.37-.32-.63-.61-.83a.61.61,0,0,0-.51-.16A.63.63,0,0,0,398.32,9.39Zm-34.71.29a2,2,0,0,0-.12.19c-2.27,3.43-4.64,6.79-6.94,10.19-.61.91-1.07,1.9-1.63,2.82a.59.59,0,0,0-.09.55.6.6,0,0,0,.3.24c.19.12.4.23.59.34s.17.09.26.06.14-.12.19-.2c.53-1,1.08-2,1.65-2.91s1.16-2,1.8-3c.93-1.37,1.85-2.74,2.78-4.09l1.38-2c.19-.29.35-.61.57-.91a1.53,1.53,0,0,0,.31-.74c0-.37-.31-.59-.61-.74a.46.46,0,0,0-.23,0C363.72,9.51,363.66,9.61,363.61,9.68Zm-7.29,1.73c-.69,1.09-1.35,2.21-2.05,3.28s-1.24,1.88-1.93,2.77a2.55,2.55,0,0,0-.6,1.26c0,.24.07,1.24.56.91.19-.13.26-.5.38-.7a10.29,10.29,0,0,1,.61-.86c.28-.38.57-.76.83-1.15.68-1,1.36-2,2-3a10.76,10.76,0,0,0,.92-1.32,15.18,15.18,0,0,0,.91-1.35,19.54,19.54,0,0,1,1.72-2.54c.08-.11.15-.28.06-.38a.25.25,0,0,0-.14-.06l-.1,0a1.75,1.75,0,0,0-1.28.35,3.89,3.89,0,0,0-.87,1.21C357,10.33,356.66,10.87,356.32,11.41Zm11,2.91c-.06.13-.13.27-.2.4-1.26,2.35-2.77,4.57-4.07,6.89-.25.41-.48.84-.72,1.25a5.35,5.35,0,0,1-.68,1.16c-.08.15-.17.34-.06.48s.31.08.46,0a9,9,0,0,0,5.85-10.22c0-.1,0-.21-.13-.26S367.39,14.15,367.29,14.32ZM387,18.69a1,1,0,0,0,0,.24.16.16,0,0,0,.19.11c.07,0,.1-.07.14-.12.55-.88,1-1.84,1.64-2.67s1.06-1.39,1.56-2.11c1.33-1.9,2.66-3.81,4-5.74.06-.09.12-.19.07-.27s-.13-.1-.22-.12a3.32,3.32,0,0,0-.44-.06,1.4,1.4,0,0,0-.79.14,1.86,1.86,0,0,0-.49.48c-.95,1.23-1.76,2.56-2.68,3.82S388,15,387.1,16.28a2.12,2.12,0,0,0-.43.86C386.6,17.66,387,18.16,387,18.69Zm37.08,4.11c.75-1,1.35-2.08,2-3.11l2.78-4.23c1.38-2.1,2.65-4.27,4.19-6.23a1.47,1.47,0,0,0,.35-.57.61.61,0,0,0,0-.3.65.65,0,0,0-.17-.34.62.62,0,0,0-.69,0,1.61,1.61,0,0,0-.52.52c-1.32,1.78-2.62,3.58-3.88,5.41-1.6,2.33-3.13,4.72-4.71,7a6.44,6.44,0,0,0-.49.83.66.66,0,0,0,0,.55C423.13,22.77,423.72,23.22,424.06,22.8Zm-3.75-4.65a.92.92,0,0,1,.13-.21c1.15-1.77,2.52-3.39,3.83-5,1.45-1.86,2.89-3.73,4.35-5.58a.69.69,0,0,0,.21-.52c-.1-.67-1.45.21-1.64.42a14.84,14.84,0,0,0-1.34,1.71c-.49.63-1,1.28-1.49,1.89a43.31,43.31,0,0,0-3.9,5.18,2.41,2.41,0,0,0-.41,2.12c0,.05.05.12.11.14S420.27,18.2,420.31,18.15ZM436.87,17c-.6.91-1.25,1.78-1.87,2.69-.44.64-.9,1.24-1.3,1.89a9.24,9.24,0,0,0-.52,1,.53.53,0,0,0-.05.3.28.28,0,0,0,.33.17,3.7,3.7,0,0,0,2.06-1.54,9.46,9.46,0,0,0,1.76-4.37c0-.12,0-.28-.11-.33S436.94,16.89,436.87,17Zm21.26-.48c1.32-1.59,2.53-3.33,4-4.78l.61-.63c.23-.24.46-.61.26-.85a.64.64,0,0,0-.67-.11,7.42,7.42,0,0,0-5.07,6c-.05.26,0,.6.22.71S458,16.72,458.13,16.52Zm8.9-5.87c-.18.25-.39.5-.58.74-.39.48-.77,1-1.14,1.46-.74,1-1.48,1.92-2.19,2.89-1.37,1.83-2.74,3.66-4.16,5.44a1.1,1.1,0,0,0-.29.84,1.5,1.5,0,0,0,.46.74c.09.11.21.22.34.2a.42.42,0,0,0,.25-.22l.15-.21c.34-.49.68-1,1-1.45a25.47,25.47,0,0,0,1.93-2.58c.66-.89,1.34-1.77,2-2.64s1.24-1.75,1.87-2.62c.32-.43.63-.87,1-1.29a7.41,7.41,0,0,1,.72-1.07.65.65,0,0,0,.23-.53,1.28,1.28,0,0,0-.73-.56C467.38,9.72,467.25,10.33,467,10.65Zm3.79,3c-.3.44-.6.86-.93,1.26-1.89,2.37-3.54,4.9-5.42,7.26a12.47,12.47,0,0,0-.91,1.25,8,8,0,0,1-.82,1.09.36.36,0,0,0-.13.4.48.48,0,0,0,.26.17,1.83,1.83,0,0,0,.86.13c.4-.07.46-.38.63-.67a16.18,16.18,0,0,1,1-1.33A35.56,35.56,0,0,0,467.76,20c1.07-1.37,2.19-2.73,3.21-4.15a2.39,2.39,0,0,0,.55-1.17c0-.33-.17-.55-.18-.89,0-.17-.09-.37-.26-.36A.36.36,0,0,0,470.82,13.65Z"/><path class="a7a39738-81ea-4dff-b029-29d2f64cb16c" d="M87.6,9a1,1,0,0,1,.71-.36,1.33,1.33,0,0,1,.59.19.54.54,0,0,1,.26.23c.11.42-.49,1.06-.74,1.35-.39.45-.59,1-1,1.46a94.73,94.73,0,0,0-6.71,10.19l-.15.27a.2.2,0,0,1-.38.06,2.51,2.51,0,0,1-.6-.7c-.25-.56.17-.89.44-1.32s.67-1,1-1.55q1-1.59,2-3.15c.75-1.17,1.5-2.31,2.27-3.44.4-.59.8-1.15,1.2-1.72S87.22,9.46,87.6,9ZM23.2,10.75c-.46.67-.93,1.34-1.42,2a64.63,64.63,0,0,0-3.69,5.66c-.88,1.5-1.83,3-2.73,4.46a.57.57,0,0,0-.08.53.43.43,0,0,0,.23.21,1.28,1.28,0,0,0,.27.11.8.8,0,0,0,.55,0,.78.78,0,0,0,.27-.32c1.34-2.38,2.83-4.7,4.26-7,.7-1.15,1.47-2.27,2.21-3.38.4-.58.78-1.17,1.17-1.76a6.42,6.42,0,0,0,.9-1.34.79.79,0,0,0-.09-.67c-.06-.15-.26-.42-.42-.44a.45.45,0,0,0-.34.21C23.93,9.56,23.59,10.18,23.2,10.75Zm1.94.7a13.1,13.1,0,0,1-1.06,1.67c-.71,1.11-1.41,2.24-2.1,3.37-1.42,2.28-2.8,4.56-4.16,6.89-.08.13-.17.3-.08.45a.4.4,0,0,0,.61.14,1.08,1.08,0,0,0,.35-.32,20.87,20.87,0,0,0,1.7-2.37,1,1,0,0,1,.4-.42c.8-.29.24.87.13,1.09a14.7,14.7,0,0,1-1,1.59.39.39,0,0,0-.1.24c.06.4,1.49-.22,1.66-.35a3,3,0,0,0,.75-.9l2.56-4.07c.65-1,1.3-2.08,2-3.12a3.39,3.39,0,0,0,.51-1.11c0-.21,0-1.12-.28-1.18s-.29.14-.34.31a7.8,7.8,0,0,1-1,1.61c-.4.61-.79,1.21-1.21,1.8-.81,1.14-1.62,2.27-2.36,3.46-.16.26-.44.55-.69.39s-.12-.55,0-.81l2.7-4.19,1.37-2.14a5.29,5.29,0,0,0,1-1.81,2,2,0,0,0-.41-1.18c-.08-.11-.19-.23-.31-.19C25.38,10.41,25.27,11.15,25.14,11.45ZM10.32,14.2a31.69,31.69,0,0,1,2.29-2.9l2.9-3.46c.09-.11.19-.28.08-.39s-.2,0-.31,0l-.2.08A8.44,8.44,0,0,0,12,10.16,8.28,8.28,0,0,0,10.89,12a15.49,15.49,0,0,0-.82,2.08c0,.08,0,.21.06.24S10.27,14.27,10.32,14.2ZM12,20.81c.8-.86,1.27-2,2-2.84s1.61-2.14,2.38-3.21Q18.8,11.39,21.08,8a.94.94,0,0,0,.18-.44A.57.57,0,0,0,20.52,7a1.31,1.31,0,0,0-.75.66c-1.05,1.69-2.37,3.24-3.56,4.84-1.7,2.3-3.43,4.58-5.05,6.93a1.23,1.23,0,0,0-.29.61,1,1,0,0,0,.76.9.36.36,0,0,0,.3-.08Zm66.69-4.9c.82-1.11,1.72-2.17,2.47-3.32.65-1,1.27-2,1.94-3,.07-.1.14-.22.09-.33s-.35-.14-.52-.05a8.66,8.66,0,0,0-4.33,6.29.29.29,0,0,1,0,.1.8.8,0,0,0,0,.31.22.22,0,0,0,.25.14A.63.63,0,0,0,78.72,15.91Zm42.76-6.05c-.53.76-1,1.6-1.53,2.38-1.08,1.59-2.24,3.16-3.34,4.74-.34.49-.66,1-1,1.47a4.82,4.82,0,0,0-.94,1.49,1.72,1.72,0,0,0,.44,1.87.4.4,0,0,0,.34.1c.14,0,.21-.18.27-.3a18.71,18.71,0,0,1,1.56-2.51c.57-.87,1.15-1.73,1.74-2.59q1.74-2.58,3.52-5.13l1.09-1.58c.12-.17.34-.44.51-.7a1.21,1.21,0,0,0,.21-.53c0-.19-.23-.27-.4-.31a1.85,1.85,0,0,0-1.29,0C122.05,8.53,121.84,9.35,121.48,9.86Zm7.32,7.58c-1,1.6-1.89,3.2-3,4.73-.22.31-.42.63-.64.94s-.21.42,0,.54.3,0,.44,0a8.7,8.7,0,0,0,3.65-6c0-.13,0-.27-.08-.33S128.87,17.31,128.8,17.44Zm-1.53-6.32c-.45.66-.86,1.32-1.33,2-1.14,1.56-2.17,3.21-3.21,4.85s-2.21,3.2-3.25,4.83l-.45.69s-.06.1-.08.15a.49.49,0,0,0-.14.31c0,.24.27.38.49.46a1.22,1.22,0,0,0,1.11.07,1.11,1.11,0,0,0,.43-.52,25,25,0,0,1,1.41-2.39c.55-.82,1.11-1.63,1.65-2.44l2.19-3.29a28.15,28.15,0,0,0,2-3,.93.93,0,0,0,.15-.62c-.06-.32-.4-.53-.52-.83,0-.08-.06-.16-.1-.23a.2.2,0,0,0-.2-.11C127.35,11,127.31,11.06,127.27,11.12Zm-9.2-1.85a.6.6,0,0,0,.16-.24.23.23,0,0,0-.09-.27.29.29,0,0,0-.24,0,5.05,5.05,0,0,0-.69.22,5.63,5.63,0,0,0-2.53,2.32,9,9,0,0,0-.78,1.59,5.27,5.27,0,0,0-.54,1.8c0,.11,0,.26.15.26s.09,0,.14-.07C115.42,13.24,116.55,11.1,118.07,9.27ZM92.53,11.06c-1.54,2.21-3,4.42-4.49,6.68-.71,1.11-1.39,2.24-2,3.38-.32.56-.63,1.13-1,1.72-.14.27-.29.58-.45.87s-.34.43-.31.68v.06a.58.58,0,0,0,.28.34,2.33,2.33,0,0,0,.47.14,1.5,1.5,0,0,0,1.11-.08,1.27,1.27,0,0,0,.38-.45c.79-1.26,1.64-2.47,2.39-3.78,1.44-2.27,2.88-4.52,4.27-6.81.34-.56.83-1.22.54-1.89A3,3,0,0,0,93,11a.31.31,0,0,0-.25-.13A.33.33,0,0,0,92.53,11.06ZM48.41,18.23a2.86,2.86,0,0,0-.83,1.71c0,.25.19.57.43.5a.82.82,0,0,0,.2-.17,32,32,0,0,0,2.14-2.64q1.07-1.32,2.1-2.67c1.29-1.63,2.44-3.43,3.86-5a.43.43,0,0,0,.15-.38c-.09-.31-.76-.1-1,0a1.94,1.94,0,0,0-.36.15,3,3,0,0,0-.66.63C52.38,13,50.35,15.54,48.41,18.23Zm12.78-.87c-1.55,2.34-3.49,4.39-5,6.74-.11.16-.48.53-.39.75s.77-.15.94-.26c.34-.23.68-.46,1-.7a11.29,11.29,0,0,0,1.81-1.78,10.86,10.86,0,0,0,2.2-4.6c0-.14.05-.3-.06-.38S61.3,17.19,61.19,17.36Zm-1.73-6c-.68.81-1.2,1.75-1.83,2.59l-2,2.72c-1.37,1.84-2.74,3.68-4,5.57-.22.33-1,1.14-.85,1.55.06.22.28.34.48.44a.52.52,0,0,0,.4.07c.26-.11.51-.64.66-.85.3-.42.6-.85.92-1.27.63-.87,1.27-1.75,1.91-2.61s1.51-2,2.29-3c.91-1.19,1.91-2.27,2.73-3.53,0-.08.1-.15.15-.24a.8.8,0,0,0,.16-.41.87.87,0,0,0-.22-.49l-.36-.52a.24.24,0,0,0-.18-.13A.23.23,0,0,0,59.46,11.35Zm102.31.1a13.1,13.1,0,0,1-1.06,1.67c-.71,1.11-1.42,2.24-2.11,3.37-1.41,2.28-2.79,4.56-4.15,6.89a.44.44,0,0,0-.09.45A.41.41,0,0,0,155,24a1.08,1.08,0,0,0,.35-.32,20.87,20.87,0,0,0,1.7-2.37,1,1,0,0,1,.4-.42c.8-.29.24.87.13,1.09a14.7,14.7,0,0,1-1,1.59.39.39,0,0,0-.1.24c.06.4,1.49-.22,1.66-.35a3.11,3.11,0,0,0,.75-.9l2.55-4.07,2-3.12a3.39,3.39,0,0,0,.51-1.11c0-.21,0-1.12-.28-1.18s-.29.14-.34.31a7.8,7.8,0,0,1-1,1.61c-.4.61-.79,1.21-1.21,1.8-.81,1.14-1.62,2.27-2.36,3.46-.16.26-.44.55-.69.39s-.12-.55,0-.81l2.7-4.19,1.37-2.14a5.29,5.29,0,0,0,1-1.81,1.91,1.91,0,0,0-.42-1.18c-.07-.11-.18-.23-.3-.19C162,10.41,161.9,11.15,161.77,11.45Zm103.65,6c-.95,1.6-1.88,3.2-2.95,4.73-.22.31-.42.63-.64.94s-.21.42-.05.54.3,0,.43,0a8.68,8.68,0,0,0,3.66-6c0-.13,0-.27-.08-.33S265.5,17.31,265.42,17.44ZM185,18.23a2.86,2.86,0,0,0-.83,1.71c0,.25.18.57.43.5a.82.82,0,0,0,.2-.17c.78-.79,1.44-1.77,2.14-2.64s1.41-1.77,2.1-2.67c1.29-1.63,2.44-3.43,3.86-5a.43.43,0,0,0,.15-.38c-.09-.31-.76-.1-1,0a1.69,1.69,0,0,0-.36.15,3,3,0,0,0-.66.63C189,13,187,15.54,185,18.23Zm-25.21-7.48c-.46.67-.93,1.34-1.42,2a62.41,62.41,0,0,0-3.69,5.66c-.88,1.5-1.83,3-2.73,4.46a.57.57,0,0,0-.08.53.43.43,0,0,0,.23.21,1.28,1.28,0,0,0,.27.11.8.8,0,0,0,.55,0,.78.78,0,0,0,.27-.32c1.34-2.38,2.83-4.7,4.26-7,.7-1.15,1.47-2.27,2.2-3.38.4-.58.79-1.17,1.18-1.76a6.42,6.42,0,0,0,.9-1.34.82.82,0,0,0-.09-.67c-.06-.15-.27-.42-.42-.44a.45.45,0,0,0-.34.21C160.55,9.56,160.22,10.18,159.83,10.75Zm36.25.6c-.67.81-1.19,1.75-1.82,2.59l-2,2.72c-1.37,1.84-2.74,3.68-4.05,5.57-.21.33-1,1.14-.84,1.55.06.22.28.34.48.44a.52.52,0,0,0,.4.07c.26-.11.51-.64.65-.85.31-.42.61-.85.93-1.27.63-.87,1.27-1.75,1.91-2.61s1.51-2,2.29-3c.91-1.19,1.91-2.27,2.72-3.53,0-.08.11-.15.16-.24a.9.9,0,0,0,.16-.41.87.87,0,0,0-.22-.49l-.36-.52a.24.24,0,0,0-.18-.13A.26.26,0,0,0,196.08,11.35ZM156.4,7.69c-1.05,1.69-2.37,3.24-3.56,4.84-1.7,2.3-3.43,4.58-5.05,6.93a1.23,1.23,0,0,0-.29.61,1,1,0,0,0,.76.9.36.36,0,0,0,.3-.08l.1-.08c.8-.86,1.27-2,2-2.84s1.61-2.14,2.38-3.21q2.37-3.37,4.65-6.81a.94.94,0,0,0,.18-.44.57.57,0,0,0-.74-.48A1.31,1.31,0,0,0,156.4,7.69Zm107.5,3.43c-.45.66-.86,1.32-1.33,2-1.14,1.56-2.17,3.21-3.21,4.85s-2.21,3.2-3.25,4.83l-.45.69s-.06.1-.08.15a.49.49,0,0,0-.14.31c0,.24.27.38.49.46a1.22,1.22,0,0,0,1.11.07,1.11,1.11,0,0,0,.43-.52,25,25,0,0,1,1.41-2.39c.55-.82,1.11-1.63,1.65-2.44.73-1.1,1.45-2.19,2.19-3.29a28.15,28.15,0,0,0,2-3,.93.93,0,0,0,.15-.62c-.06-.32-.4-.53-.52-.83,0-.08-.06-.16-.1-.23a.2.2,0,0,0-.2-.11A.21.21,0,0,0,263.9,11.12ZM147,14.2a31.69,31.69,0,0,1,2.29-2.9l2.9-3.46c.09-.11.19-.28.08-.39s-.21,0-.31,0l-.2.08a8.44,8.44,0,0,0-3.1,2.65A8.28,8.28,0,0,0,147.52,12a15.49,15.49,0,0,0-.82,2.08c0,.08,0,.21.06.24S146.9,14.27,147,14.2ZM258.11,9.86c-.53.76-1,1.6-1.53,2.38-1.08,1.59-2.24,3.16-3.34,4.74-.34.49-.66,1-1,1.47a4.82,4.82,0,0,0-.94,1.49,1.72,1.72,0,0,0,.44,1.87.4.4,0,0,0,.34.1c.14,0,.21-.18.27-.3a18.71,18.71,0,0,1,1.56-2.51c.57-.87,1.15-1.73,1.73-2.59,1.17-1.72,2.34-3.43,3.53-5.13l1.09-1.58c.12-.17.34-.44.51-.7a1.17,1.17,0,0,0,.2-.53c0-.19-.23-.27-.39-.31a1.85,1.85,0,0,0-1.29,0C258.68,8.53,258.47,9.35,258.11,9.86Zm-42.76,6.05c.82-1.11,1.72-2.17,2.47-3.32.65-1,1.27-2,1.94-3,.07-.1.14-.22.09-.33s-.35-.14-.52-.05A8.7,8.7,0,0,0,215,15.47a.3.3,0,0,1,0,.1.8.8,0,0,0,0,.31.21.21,0,0,0,.24.14A.47.47,0,0,0,215.35,15.91Zm7.83-5.39c-.4.57-.8,1.13-1.2,1.72-.77,1.13-1.52,2.27-2.27,3.44s-1.36,2.09-2,3.15c-.33.52-.65,1-1,1.55s-.69.76-.44,1.32a2.51,2.51,0,0,0,.6.7.2.2,0,0,0,.38-.06l.15-.27a94.73,94.73,0,0,1,6.71-10.19c.38-.46.58-1,1-1.46.25-.29.85-.93.74-1.35a.54.54,0,0,0-.26-.23,1.33,1.33,0,0,0-.59-.19,1,1,0,0,0-.71.36C223.85,9.46,223.53,10,223.18,10.52Zm6,.54c-1.54,2.21-3,4.42-4.49,6.68-.71,1.11-1.39,2.24-2,3.38-.32.56-.63,1.13-.95,1.72-.14.27-.29.58-.45.87s-.34.43-.31.68v.06a.55.55,0,0,0,.28.34,2.33,2.33,0,0,0,.47.14,1.51,1.51,0,0,0,1.11-.08,1.27,1.27,0,0,0,.38-.45c.79-1.26,1.63-2.47,2.39-3.78,1.44-2.27,2.88-4.52,4.27-6.81.34-.56.83-1.22.54-1.89a3,3,0,0,0-.74-.9.31.31,0,0,0-.25-.13A.33.33,0,0,0,229.16,11.06ZM254.7,9.27a.72.72,0,0,0,.16-.24.22.22,0,0,0-.1-.27.26.26,0,0,0-.23,0,5.05,5.05,0,0,0-.69.22,5.63,5.63,0,0,0-2.53,2.32,9.81,9.81,0,0,0-.79,1.59,5.48,5.48,0,0,0-.53,1.8c0,.11,0,.26.15.26s.09,0,.14-.07C252.05,13.24,253.18,11.1,254.7,9.27Zm-56.88,8.09c-1.55,2.34-3.49,4.39-5,6.74-.11.16-.48.53-.39.75s.77-.15.94-.26c.34-.23.68-.46,1-.7a11.72,11.72,0,0,0,1.81-1.78,10.86,10.86,0,0,0,2.2-4.6c0-.14,0-.3-.06-.38S197.93,17.19,197.82,17.36ZM293,7.69c-1.05,1.69-2.37,3.24-3.56,4.84-1.7,2.3-3.43,4.58-5.05,6.93a1.23,1.23,0,0,0-.29.61,1,1,0,0,0,.76.9.36.36,0,0,0,.3-.08l.1-.08c.8-.86,1.27-2,2-2.84s1.61-2.14,2.38-3.21Q292,11.39,294.26,8a.94.94,0,0,0,.18-.44A.57.57,0,0,0,293.7,7,1.31,1.31,0,0,0,293,7.69ZM283.5,14.2a31.69,31.69,0,0,1,2.29-2.9l2.9-3.46c.09-.11.19-.28.08-.39s-.21,0-.31,0l-.2.08a8.44,8.44,0,0,0-3.1,2.65A8.28,8.28,0,0,0,284.07,12a15.49,15.49,0,0,0-.82,2.08c0,.08,0,.21.06.24S283.45,14.27,283.5,14.2ZM394.66,9.86c-.54.76-1,1.6-1.53,2.38-1.08,1.59-2.24,3.16-3.34,4.74-.34.49-.66,1-1,1.47a4.65,4.65,0,0,0-.94,1.49,1.72,1.72,0,0,0,.44,1.87.4.4,0,0,0,.34.1c.14,0,.21-.18.27-.3a17.74,17.74,0,0,1,1.56-2.51c.57-.87,1.15-1.73,1.73-2.59,1.17-1.72,2.34-3.43,3.53-5.13l1.09-1.58c.12-.17.34-.44.51-.7a1.17,1.17,0,0,0,.2-.53c0-.19-.23-.27-.4-.31a1.82,1.82,0,0,0-1.28,0C395.23,8.53,395,9.35,394.66,9.86Zm-29,1.2c-1.54,2.21-3,4.42-4.49,6.68-.71,1.11-1.39,2.24-2,3.38-.32.56-.63,1.13-.95,1.72-.14.27-.29.58-.45.87s-.34.43-.31.68v.06a.55.55,0,0,0,.28.34,2.33,2.33,0,0,0,.47.14,1.51,1.51,0,0,0,1.11-.08,1.27,1.27,0,0,0,.38-.45c.79-1.26,1.63-2.47,2.39-3.78,1.44-2.27,2.88-4.52,4.27-6.81.34-.56.83-1.22.53-1.89a2.84,2.84,0,0,0-.73-.9.31.31,0,0,0-.25-.13A.33.33,0,0,0,365.71,11.06Zm-31.34,6.3c-1.55,2.34-3.49,4.39-5,6.74-.11.16-.48.53-.39.75s.77-.15.94-.26c.34-.23.68-.46,1-.7a11.72,11.72,0,0,0,1.81-1.78,10.86,10.86,0,0,0,2.2-4.6c0-.14,0-.3-.06-.38S334.48,17.19,334.37,17.36Zm-38-6.61c-.46.67-.94,1.34-1.42,2a62.41,62.41,0,0,0-3.69,5.66c-.88,1.5-1.83,3-2.73,4.46a.57.57,0,0,0-.08.53.43.43,0,0,0,.23.21,1.28,1.28,0,0,0,.27.11.8.8,0,0,0,.55,0,.78.78,0,0,0,.27-.32c1.34-2.38,2.83-4.7,4.26-7,.7-1.15,1.47-2.27,2.2-3.38.4-.58.79-1.17,1.18-1.76a6.42,6.42,0,0,0,.9-1.34.82.82,0,0,0-.09-.67c-.06-.15-.27-.42-.42-.44a.45.45,0,0,0-.34.21C297.1,9.56,296.77,10.18,296.38,10.75Zm55.52,5.16c.82-1.11,1.72-2.17,2.47-3.32.65-1,1.27-2,1.94-3,.07-.1.14-.22.09-.33s-.35-.14-.52-.05a8.7,8.7,0,0,0-4.34,6.29.3.3,0,0,1,0,.1.8.8,0,0,0,0,.31.21.21,0,0,0,.24.14A.47.47,0,0,0,351.9,15.91Zm-19.27-4.56c-.67.81-1.19,1.75-1.82,2.59l-2,2.72c-1.37,1.84-2.74,3.68-4,5.57-.21.33-1,1.14-.84,1.55a.78.78,0,0,0,.48.44.52.52,0,0,0,.4.07c.25-.11.51-.64.65-.85.31-.42.61-.85.93-1.27.63-.87,1.27-1.75,1.91-2.61s1.51-2,2.29-3c.91-1.19,1.91-2.27,2.72-3.53.05-.08.11-.15.16-.24a.9.9,0,0,0,.16-.41.87.87,0,0,0-.22-.49l-.36-.52a.24.24,0,0,0-.18-.13A.26.26,0,0,0,332.63,11.35Zm-11,6.88a2.86,2.86,0,0,0-.83,1.71c0,.25.18.57.43.5a.82.82,0,0,0,.2-.17,31.91,31.91,0,0,0,2.13-2.64c.72-.88,1.42-1.77,2.11-2.67,1.29-1.63,2.44-3.43,3.86-5a.43.43,0,0,0,.15-.38c-.09-.31-.76-.1-1,0a1.69,1.69,0,0,0-.36.15,3,3,0,0,0-.66.63C325.56,13,323.52,15.54,321.59,18.23Zm38.14-7.71c-.4.57-.8,1.13-1.2,1.72-.77,1.13-1.52,2.27-2.27,3.44s-1.36,2.09-2,3.15c-.33.52-.65,1-1,1.55s-.69.76-.44,1.32a2.51,2.51,0,0,0,.6.7.2.2,0,0,0,.38-.06l.15-.27a94.73,94.73,0,0,1,6.71-10.19c.38-.46.58-1,1-1.46.25-.29.85-.93.74-1.35a.54.54,0,0,0-.26-.23,1.33,1.33,0,0,0-.59-.19,1,1,0,0,0-.71.36C360.4,9.46,360.08,10,359.73,10.52Zm31.52-1.25a.72.72,0,0,0,.16-.24.22.22,0,0,0-.1-.27.26.26,0,0,0-.23,0,5.05,5.05,0,0,0-.69.22,5.63,5.63,0,0,0-2.53,2.32,9.81,9.81,0,0,0-.79,1.59,5.48,5.48,0,0,0-.53,1.8c0,.11,0,.26.15.26s.09,0,.14-.07C388.6,13.24,389.73,11.1,391.25,9.27Zm-92.93,2.18a13.1,13.1,0,0,1-1.06,1.67c-.71,1.11-1.42,2.24-2.11,3.37-1.41,2.28-2.79,4.56-4.15,6.89a.44.44,0,0,0-.09.45.41.41,0,0,0,.62.14,1.08,1.08,0,0,0,.35-.32,20.87,20.87,0,0,0,1.7-2.37,1,1,0,0,1,.4-.42c.8-.29.24.87.13,1.09a13.39,13.39,0,0,1-1,1.59.44.44,0,0,0-.09.24c.06.4,1.49-.22,1.66-.35a3.11,3.11,0,0,0,.75-.9L298,18.46l2-3.12a3.39,3.39,0,0,0,.51-1.11c0-.21,0-1.12-.28-1.18s-.29.14-.34.31a7.8,7.8,0,0,1-1,1.61c-.4.61-.79,1.21-1.21,1.8-.81,1.14-1.62,2.27-2.36,3.46-.16.26-.44.55-.69.39s-.12-.55,0-.81l2.7-4.19,1.37-2.14a5.29,5.29,0,0,0,1-1.81,2,2,0,0,0-.42-1.18c-.07-.11-.18-.23-.3-.19C298.56,10.41,298.45,11.15,298.32,11.45Zm102.13-.33c-.45.66-.86,1.32-1.33,2-1.14,1.56-2.17,3.21-3.21,4.85s-2.21,3.2-3.25,4.83l-.45.69s-.06.1-.08.15a.49.49,0,0,0-.14.31c0,.24.27.38.49.46a1.22,1.22,0,0,0,1.11.07,1.11,1.11,0,0,0,.43-.52,25,25,0,0,1,1.41-2.39c.55-.82,1.11-1.63,1.65-2.44.73-1.1,1.45-2.19,2.19-3.29a28.15,28.15,0,0,0,2-3,.93.93,0,0,0,.15-.62c-.06-.32-.4-.53-.52-.83,0-.08-.06-.16-.1-.23a.2.2,0,0,0-.2-.11A.21.21,0,0,0,400.45,11.12ZM402,17.44c-1,1.6-1.89,3.2-3,4.73-.22.31-.43.63-.64.94s-.21.42-.05.54.3,0,.43,0a8.68,8.68,0,0,0,3.66-6c0-.13,0-.27-.08-.33S402.05,17.31,402,17.44Zm69.19-.08c-1.55,2.34-3.49,4.39-5,6.74-.11.16-.49.53-.39.75s.76-.15.93-.26c.34-.23.68-.46,1-.7a11.65,11.65,0,0,0,1.8-1.78,11,11,0,0,0,2.21-4.6c0-.14,0-.3-.07-.38S471.27,17.19,471.16,17.36Zm-38-6.61c-.46.67-.93,1.34-1.42,2a64.63,64.63,0,0,0-3.69,5.66c-.87,1.5-1.83,3-2.73,4.46a.63.63,0,0,0-.08.53.47.47,0,0,0,.23.21,1.17,1.17,0,0,0,.28.11.77.77,0,0,0,.54,0,.72.72,0,0,0,.27-.32c1.34-2.38,2.83-4.7,4.26-7,.71-1.15,1.47-2.27,2.21-3.38.4-.58.79-1.17,1.17-1.76a6.42,6.42,0,0,0,.9-1.34.79.79,0,0,0-.09-.67c-.06-.15-.26-.42-.42-.44a.49.49,0,0,0-.34.21C433.9,9.56,433.56,10.18,433.17,10.75Zm1.94.7a14.24,14.24,0,0,1-1.05,1.67c-.72,1.11-1.42,2.24-2.11,3.37-1.42,2.28-2.8,4.56-4.16,6.89-.08.13-.17.3-.08.45a.41.41,0,0,0,.62.14,1.34,1.34,0,0,0,.35-.32,22.11,22.11,0,0,0,1.69-2.37,1,1,0,0,1,.4-.42c.8-.29.24.87.14,1.09a16.51,16.51,0,0,1-1,1.59.39.39,0,0,0-.1.24c.06.4,1.49-.22,1.66-.35a2.82,2.82,0,0,0,.75-.9l2.56-4.07,2-3.12a3.19,3.19,0,0,0,.51-1.11c0-.21,0-1.12-.28-1.18s-.29.14-.34.31a7.41,7.41,0,0,1-1,1.61c-.4.61-.78,1.21-1.21,1.8-.81,1.14-1.62,2.27-2.36,3.46-.16.26-.44.55-.69.39s-.12-.55,0-.81c.89-1.4,1.8-2.8,2.7-4.19l1.37-2.14a5.1,5.1,0,0,0,1-1.81,1.9,1.9,0,0,0-.41-1.18c-.07-.11-.18-.23-.3-.19C435.35,10.41,435.24,11.15,435.11,11.45ZM420.29,14.2a33.51,33.51,0,0,1,2.29-2.9l2.9-3.46c.1-.11.19-.28.08-.39s-.2,0-.31,0l-.2.08a8.44,8.44,0,0,0-3.1,2.65A8.68,8.68,0,0,0,420.86,12a15.49,15.49,0,0,0-.82,2.08c0,.08,0,.21.06.24S420.25,14.27,420.29,14.2Zm49.14-2.85c-.68.81-1.2,1.75-1.83,2.59l-2,2.72c-1.37,1.84-2.73,3.68-4,5.57-.22.33-1,1.14-.85,1.55.06.22.28.34.48.44a.53.53,0,0,0,.4.07c.26-.11.51-.64.66-.85.3-.42.6-.85.92-1.27.63-.87,1.27-1.75,1.91-2.61s1.52-2,2.29-3c.91-1.19,1.92-2.27,2.73-3.53.05-.08.11-.15.16-.24a.89.89,0,0,0,.15-.41.87.87,0,0,0-.22-.49l-.36-.52a.23.23,0,0,0-.18-.13A.27.27,0,0,0,469.43,11.35Zm-11.05,6.88a2.79,2.79,0,0,0-.82,1.71c0,.25.18.57.42.5a.71.71,0,0,0,.21-.17c.77-.79,1.44-1.77,2.13-2.64s1.42-1.77,2.11-2.67c1.28-1.63,2.43-3.43,3.85-5a.43.43,0,0,0,.16-.38c-.1-.31-.77-.1-1,0a1.94,1.94,0,0,0-.36.15,3,3,0,0,0-.66.63C462.35,13,460.32,15.54,458.38,18.23ZM422,20.81c.8-.86,1.27-2,2-2.84s1.61-2.14,2.37-3.21q2.39-3.37,4.65-6.81a.85.85,0,0,0,.18-.44c0-.35-.41-.57-.74-.48a1.31,1.31,0,0,0-.75.66c-1.05,1.69-2.37,3.24-3.56,4.84-1.69,2.3-3.43,4.58-5.05,6.93a1.33,1.33,0,0,0-.29.61,1,1,0,0,0,.76.9.39.39,0,0,0,.31-.08Z"/><path class="eb6ab759-c8a5-4f24-84b8-4520160267f6" d="M.52,15.47a.52.52,0,0,1-.25-.07.39.39,0,0,1-.11-.31.54.54,0,0,1,.18-.42c.4-.32,1.15-.2,1.62-.22s1.47.32,1.82-.31a2.47,2.47,0,0,0,.21-1A14,14,0,0,1,18.12,0a15.27,15.27,0,0,1,9.09,2.75,12.7,12.7,0,0,1,5.35,9.5,8.47,8.47,0,0,0,.21,1.5.87.87,0,0,0,.91.76c1.46,0,2.93,0,4.41,0h1.57a4.36,4.36,0,0,0,1.73,0c.46-.22.62-.8.74-1.3a13,13,0,0,1,9.12-9.1C57.37,2.59,64.1,5.71,66,11.92c0,.21.11.41.16.62A3.47,3.47,0,0,0,66.63,14c.43.54,1.18.29,1.79.3l2.68.05A1.64,1.64,0,0,0,72.26,14a1.74,1.74,0,0,0,.42-1,14,14,0,0,1,5.49-8.59,14,14,0,0,1,7.28-2.54A14.23,14.23,0,0,1,96.52,6.08a11.12,11.12,0,0,1,3.32,6.7,3.52,3.52,0,0,0,.39,1.65c.51.76,2,.42,2.79.43,1.4,0,2.81-.06,4.22,0s1-1.25,1.19-2.22a14.19,14.19,0,0,1,1-3.26,13.39,13.39,0,0,1,4.23-5.26A12.76,12.76,0,0,1,125,2.21a12.17,12.17,0,0,1,5.6,3.87,16.66,16.66,0,0,1,3.21,7.23,1.41,1.41,0,0,0,1.35,1.28,30.07,30.07,0,0,0,3.29,0c.58,0,1.62.14,2-.48a2.47,2.47,0,0,0,.21-1A14,14,0,0,1,154.75,0a15.27,15.27,0,0,1,9.09,2.75,12.7,12.7,0,0,1,5.35,9.5,8.47,8.47,0,0,0,.21,1.5.86.86,0,0,0,.91.76c1.46,0,2.93,0,4.41,0h1.57a4.36,4.36,0,0,0,1.73,0c.46-.22.62-.8.74-1.3a13,13,0,0,1,9.12-9.1c6.12-1.49,12.84,1.63,14.7,7.84,0,.21.11.41.16.62a3.47,3.47,0,0,0,.52,1.42c.43.54,1.18.29,1.79.3l2.68.05a1.64,1.64,0,0,0,1.16-.27,1.74,1.74,0,0,0,.42-1,14,14,0,0,1,5.49-8.59,14,14,0,0,1,7.28-2.54,14.23,14.23,0,0,1,11.07,4.19,11.12,11.12,0,0,1,3.32,6.7,3.52,3.52,0,0,0,.39,1.65c.51.76,2,.42,2.79.43,1.4,0,2.81-.06,4.22,0s1-1.25,1.19-2.22a14.19,14.19,0,0,1,1-3.26,13.39,13.39,0,0,1,4.23-5.26,12.76,12.76,0,0,1,11.31-1.87,12.17,12.17,0,0,1,5.6,3.87,16.78,16.78,0,0,1,3.21,7.23c.39,1.95,3.08,1.25,4.52,1.31.58,0,1.67.13,2-.48a2.47,2.47,0,0,0,.21-1A14,14,0,0,1,291.3,0a15.27,15.27,0,0,1,9.09,2.75,12.7,12.7,0,0,1,5.35,9.5,8.47,8.47,0,0,0,.21,1.5.86.86,0,0,0,.91.76c1.46,0,2.93,0,4.41,0h1.57a4.36,4.36,0,0,0,1.73,0c.46-.22.62-.8.74-1.3a13,13,0,0,1,9.12-9.1c6.12-1.49,12.84,1.63,14.7,7.84.05.21.11.41.16.62a3.47,3.47,0,0,0,.52,1.42c.43.54,1.18.29,1.79.3l2.68.05a1.64,1.64,0,0,0,1.16-.27,1.74,1.74,0,0,0,.42-1,14,14,0,0,1,5.49-8.59,14,14,0,0,1,7.28-2.54A14.23,14.23,0,0,1,369.7,6.08a11.12,11.12,0,0,1,3.32,6.7,3.52,3.52,0,0,0,.39,1.65c.51.76,2,.42,2.79.43,1.4,0,2.81-.06,4.22,0s1-1.25,1.19-2.22a14.19,14.19,0,0,1,1-3.26,13.39,13.39,0,0,1,4.23-5.26,12.76,12.76,0,0,1,11.31-1.87,12.17,12.17,0,0,1,5.6,3.87A16.78,16.78,0,0,1,407,13.31c.4,2,3.11,1.36,4.53,1.36.65,0,1.87.14,2.24-.53a2.47,2.47,0,0,0,.21-1A14,14,0,0,1,428.1,0a15.24,15.24,0,0,1,9.08,2.75,12.71,12.71,0,0,1,5.36,9.5,8.45,8.45,0,0,0,.2,1.5.87.87,0,0,0,.91.76c1.47,0,2.93,0,4.41,0h1.57a4.42,4.42,0,0,0,1.74,0c.46-.22.61-.8.74-1.3a13,13,0,0,1,9.12-9.1c6.11-1.49,12.84,1.63,14.69,7.84.05.21.11.41.16.62A3.47,3.47,0,0,0,476.6,14c.44.54,1.19.29,1.79.3s3.28-.24,2.52,1.08c-.29.5-1.3.53-1.8.55a17.67,17.67,0,0,1-2.72-.09,1,1,0,0,1-.57-.2,1,1,0,0,1-.24-.48c-.18-.61-.34-1.21-.51-1.79a11.32,11.32,0,0,0-2.42-4.83A11.15,11.15,0,0,0,467,5.23a11.42,11.42,0,0,0-13,6.44,11.77,11.77,0,0,0-.88,2.89c-.13.85-.29,1.58-1.33,1.56s-2.32,0-3.48,0-2.42,0-3.63,0c-.75,0-2.28.23-2.75-.52a2.63,2.63,0,0,1-.29-1.36,13.7,13.7,0,0,0-3-8.2,13.53,13.53,0,0,0-7.29-4.57,13,13,0,0,0-3.93-.29,13.24,13.24,0,0,0-11.24,8.1,11.58,11.58,0,0,0-.81,4.86,1.35,1.35,0,0,1-.45,1.25,3,3,0,0,1-1.3.38,12.87,12.87,0,0,1-2.56,0c-1.1-.06-2.19,0-3.29,0a1.74,1.74,0,0,1-1.68-.72,2.85,2.85,0,0,1-.26-1,15.08,15.08,0,0,0-3.38-7.37A10.61,10.61,0,0,0,394.63,3a11.76,11.76,0,0,0-8.15,3.16,13.17,13.17,0,0,0-4,7.84,3.12,3.12,0,0,1-.34,1.27c-.64,1-3.15.54-4.16.54h-5.19a.69.69,0,0,1-.52-.19.87.87,0,0,1-.17-.47,20.67,20.67,0,0,0-1.34-5.32A10.93,10.93,0,0,0,368,6.08a12.78,12.78,0,0,0-8.21-2.83,11.61,11.61,0,0,0-8,2.92,14.12,14.12,0,0,0-4.5,8.19,1.93,1.93,0,0,1-.43,1.15,1.77,1.77,0,0,1-1.2.29,52.22,52.22,0,0,1-6,0,1,1,0,0,1-.57-.2,1,1,0,0,1-.24-.48c-.18-.61-.34-1.21-.51-1.79a11.32,11.32,0,0,0-2.42-4.83,11.23,11.23,0,0,0-5.68-3.27,11.4,11.4,0,0,0-13,6.44,11.77,11.77,0,0,0-.88,2.89c-.14.85-.29,1.58-1.34,1.56s-2.31,0-3.47,0-2.42,0-3.64,0c-.75,0-2.27.23-2.75-.52a2.85,2.85,0,0,1-.29-1.36A13.69,13.69,0,0,0,301.88,6a13.59,13.59,0,0,0-7.3-4.57,12.91,12.91,0,0,0-3.92-.29,13.24,13.24,0,0,0-11.25,8.1,11.57,11.57,0,0,0-.8,4.86,1.35,1.35,0,0,1-.46,1.25,2.94,2.94,0,0,1-1.29.38,12.9,12.9,0,0,1-2.56,0c-1,0-2,0-3.05,0a1.74,1.74,0,0,1-1.68-.72,2.85,2.85,0,0,1-.26-1,15.08,15.08,0,0,0-3.38-7.37A10.61,10.61,0,0,0,258.08,3a11.76,11.76,0,0,0-8.15,3.16A13.17,13.17,0,0,0,246,14a3.12,3.12,0,0,1-.34,1.27c-.64,1-3.15.54-4.16.54h-5.19a.69.69,0,0,1-.52-.19.87.87,0,0,1-.17-.47,20.67,20.67,0,0,0-1.34-5.32,10.93,10.93,0,0,0-2.81-3.76,12.78,12.78,0,0,0-8.21-2.83,11.61,11.61,0,0,0-8,2.92,14.12,14.12,0,0,0-4.5,8.19,1.93,1.93,0,0,1-.43,1.15,1.77,1.77,0,0,1-1.2.29,52.22,52.22,0,0,1-6,0,1,1,0,0,1-.57-.2,1,1,0,0,1-.24-.48c-.18-.61-.34-1.21-.51-1.79a11.32,11.32,0,0,0-2.42-4.83,11.19,11.19,0,0,0-5.68-3.27,11.4,11.4,0,0,0-13,6.44,11.77,11.77,0,0,0-.88,2.89c-.14.85-.29,1.58-1.34,1.56s-2.31,0-3.47,0-2.42,0-3.64,0c-.75,0-2.27.23-2.75-.52a2.85,2.85,0,0,1-.29-1.36A13.69,13.69,0,0,0,165.33,6,13.6,13.6,0,0,0,158,1.44a13,13,0,0,0-3.93-.29,13.24,13.24,0,0,0-11.25,8.1,11.73,11.73,0,0,0-.8,4.86,1.35,1.35,0,0,1-.46,1.25,2.94,2.94,0,0,1-1.29.38,14.42,14.42,0,0,1-3,0c-.91-.06-1.78,0-2.68,0a1.74,1.74,0,0,1-1.68-.72,2.85,2.85,0,0,1-.26-1,15.08,15.08,0,0,0-3.38-7.37A10.61,10.61,0,0,0,121.45,3a11.76,11.76,0,0,0-8.15,3.16,13.17,13.17,0,0,0-4,7.84,3.12,3.12,0,0,1-.34,1.27c-.64,1-3.15.54-4.16.54H99.64a.69.69,0,0,1-.52-.19.87.87,0,0,1-.17-.47,20.67,20.67,0,0,0-1.34-5.32A10.93,10.93,0,0,0,94.8,6.08a12.78,12.78,0,0,0-8.21-2.83,11.61,11.61,0,0,0-8,2.92,14.12,14.12,0,0,0-4.5,8.19,1.93,1.93,0,0,1-.43,1.15,1.77,1.77,0,0,1-1.2.29,52.22,52.22,0,0,1-6,0,1,1,0,0,1-.57-.2,1,1,0,0,1-.24-.48c-.18-.61-.34-1.21-.51-1.79A11.32,11.32,0,0,0,62.68,8.5,11.19,11.19,0,0,0,57,5.23a11.4,11.4,0,0,0-13,6.44,11.77,11.77,0,0,0-.88,2.89c-.14.85-.29,1.58-1.33,1.56s-2.32,0-3.48,0-2.42,0-3.64,0c-.75,0-2.27.23-2.75-.52a2.85,2.85,0,0,1-.29-1.36A13.69,13.69,0,0,0,28.7,6a13.6,13.6,0,0,0-7.29-4.57,13,13,0,0,0-3.93-.29c-6.67.51-12.38,6.07-12,13,0,.45,0,1-.38,1.23a1.09,1.09,0,0,1-.54.11A26.57,26.57,0,0,1,.52,15.47Zm45.71-.13a8.61,8.61,0,0,1,8.79-7,7.71,7.71,0,0,1,4.4,1.28,9.63,9.63,0,0,1,2.93,4,5.6,5.6,0,0,1,.21.66,10.85,10.85,0,0,1,0,5.37c-.08.29-.18.58-.29.87a9.35,9.35,0,0,1-5.35,5.39,6.77,6.77,0,0,1-2.86.38,9,9,0,0,1-5.92-3A9.17,9.17,0,0,1,46.23,15.34Zm15,2c-1.55,2.34-3.49,4.39-5,6.74-.11.16-.48.53-.39.75s.77-.15.94-.26c.34-.23.68-.46,1-.7a11.29,11.29,0,0,0,1.81-1.78,10.86,10.86,0,0,0,2.2-4.6c0-.14.05-.3-.06-.38S61.3,17.19,61.19,17.36Zm-.09-3.9c-.11,0-.19.1-.25.19q-.45.66-.93,1.26c-1.89,2.37-3.54,4.9-5.42,7.26a11.07,11.07,0,0,0-.91,1.25,8,8,0,0,1-.82,1.09c-.11.11-.21.26-.13.4s.15.13.26.17a1.83,1.83,0,0,0,.86.13c.4-.07.46-.38.63-.67a16.18,16.18,0,0,1,1-1.33A33.64,33.64,0,0,0,57.78,20C58.86,18.66,60,17.3,61,15.88a2.32,2.32,0,0,0,.56-1.17c0-.33-.17-.55-.18-.89C61.36,13.65,61.27,13.45,61.1,13.46Zm-1.46-2.23a.23.23,0,0,0-.18.12c-.68.81-1.2,1.75-1.83,2.59l-2,2.72c-1.37,1.84-2.74,3.68-4,5.57-.22.33-1,1.14-.85,1.55.06.22.28.34.48.44a.52.52,0,0,0,.4.07c.26-.11.51-.64.66-.85.3-.42.6-.85.92-1.27.63-.87,1.27-1.75,1.91-2.61s1.51-2,2.29-3c.91-1.19,1.91-2.27,2.73-3.53,0-.08.1-.15.15-.24a.8.8,0,0,0,.16-.41.87.87,0,0,0-.22-.49l-.36-.52A.24.24,0,0,0,59.64,11.23ZM57.92,9.79c-.51-.07-.65.54-.86.86s-.39.5-.58.74c-.39.48-.77,1-1.14,1.46-.74,1-1.48,1.92-2.2,2.89-1.36,1.83-2.73,3.66-4.15,5.44a1.1,1.1,0,0,0-.29.84,1.37,1.37,0,0,0,.46.74.39.39,0,0,0,.34.2.42.42,0,0,0,.25-.22c0-.07.1-.13.15-.21.34-.49.68-1,1-1.45a25.37,25.37,0,0,0,1.92-2.58l2-2.64c.65-.86,1.25-1.75,1.88-2.62.32-.43.63-.87,1-1.29a8.28,8.28,0,0,1,.71-1.07.59.59,0,0,0,.23-.53A1.23,1.23,0,0,0,57.92,9.79Zm-3.47.59c-2.07,2.58-4.1,5.16-6,7.85a2.86,2.86,0,0,0-.83,1.71c0,.25.19.57.43.5a.82.82,0,0,0,.2-.17,32,32,0,0,0,2.14-2.64q1.07-1.32,2.1-2.67c1.29-1.63,2.44-3.43,3.86-5a.43.43,0,0,0,.15-.38c-.09-.31-.76-.1-1,0a1.94,1.94,0,0,0-.36.15A3,3,0,0,0,54.45,10.38Zm-6.3,6.14c1.32-1.59,2.53-3.33,4-4.78.2-.22.41-.42.6-.63s.46-.61.27-.85a.66.66,0,0,0-.68-.11,7.43,7.43,0,0,0-5.06,6c-.05.26,0,.6.22.71S48,16.72,48.15,16.52Zm-39.27-.2c0-4.35,2.52-8.78,6.8-10.14a9.15,9.15,0,0,1,2.62-.43,11.19,11.19,0,0,1,6.33,1.83,8.78,8.78,0,0,1,3.55,6,10.76,10.76,0,0,1-1,7,8.19,8.19,0,0,1-4.62,3.71,14,14,0,0,1-4.94.73C13.07,24.82,8.92,21,8.88,16.32Zm18,.68c-.59.91-1.24,1.78-1.86,2.69-.44.64-.9,1.24-1.3,1.89a9.24,9.24,0,0,0-.52,1,.46.46,0,0,0-.05.3.28.28,0,0,0,.33.17,3.73,3.73,0,0,0,2.06-1.54,9.57,9.57,0,0,0,1.76-4.37c0-.12,0-.28-.11-.33S27,16.89,26.89,17Zm-1.15-6.7c-.36.11-.47.85-.6,1.15a13.1,13.1,0,0,1-1.06,1.67c-.71,1.11-1.41,2.24-2.1,3.37-1.42,2.28-2.8,4.56-4.16,6.89-.08.13-.17.3-.08.45a.4.4,0,0,0,.61.14,1.08,1.08,0,0,0,.35-.32,20.87,20.87,0,0,0,1.7-2.37,1,1,0,0,1,.4-.42c.8-.29.24.87.13,1.09a14.7,14.7,0,0,1-1,1.59.39.39,0,0,0-.1.24c.06.4,1.49-.22,1.66-.35a3,3,0,0,0,.75-.9l2.56-4.07c.65-1,1.3-2.08,2-3.12a3.39,3.39,0,0,0,.51-1.11c0-.21,0-1.12-.28-1.18s-.29.14-.34.31a7.8,7.8,0,0,1-1,1.61c-.4.61-.79,1.21-1.21,1.8-.81,1.14-1.62,2.27-2.36,3.46-.16.26-.44.55-.69.39s-.12-.55,0-.81l2.7-4.19,1.37-2.14a5.29,5.29,0,0,0,1-1.81,2,2,0,0,0-.41-1.18C26,10.38,25.86,10.26,25.74,10.3ZM24.63,8.78a.45.45,0,0,0-.34.21c-.36.57-.7,1.19-1.09,1.76s-.93,1.34-1.42,2a64.63,64.63,0,0,0-3.69,5.66c-.88,1.5-1.83,3-2.73,4.46a.57.57,0,0,0-.08.53.43.43,0,0,0,.23.21,1.28,1.28,0,0,0,.27.11.8.8,0,0,0,.55,0,.78.78,0,0,0,.27-.32c1.34-2.38,2.83-4.7,4.26-7,.7-1.15,1.47-2.27,2.21-3.38.4-.58.78-1.17,1.17-1.76a6.42,6.42,0,0,0,.9-1.34.79.79,0,0,0-.09-.67C25,9.07,24.79,8.8,24.63,8.78Zm-14.5,5.53c.07,0,.14,0,.19-.11a31.69,31.69,0,0,1,2.29-2.9l2.9-3.46c.09-.11.19-.28.08-.39s-.2,0-.31,0l-.2.08A8.44,8.44,0,0,0,12,10.16,8.28,8.28,0,0,0,10.89,12a15.49,15.49,0,0,0-.82,2.08C10,14.15,10,14.28,10.13,14.31Zm.06,4c.06,0,.11-.06.14-.11a1.53,1.53,0,0,1,.14-.21c1.15-1.77,2.52-3.39,3.82-5,1.46-1.86,2.9-3.73,4.35-5.58.12-.16.26-.33.22-.52-.11-.67-1.45.21-1.65.42a15.94,15.94,0,0,0-1.33,1.71c-.49.63-1,1.28-1.49,1.89A41.28,41.28,0,0,0,10.49,16a2.37,2.37,0,0,0-.41,2.12C10.1,18.17,10.13,18.24,10.19,18.26ZM11.63,21a.36.36,0,0,0,.3-.08l.1-.08c.8-.86,1.27-2,2-2.84s1.61-2.14,2.38-3.21Q18.8,11.39,21.08,8a.94.94,0,0,0,.18-.44A.57.57,0,0,0,20.52,7a1.31,1.31,0,0,0-.75.66c-1.05,1.69-2.37,3.24-3.56,4.84-1.7,2.3-3.43,4.58-5.05,6.93a1.23,1.23,0,0,0-.29.61A1,1,0,0,0,11.63,21ZM13,22.36c.17.41.76.86,1.1.44.75-1,1.34-2.08,2-3.11.92-1.41,1.86-2.83,2.78-4.23,1.38-2.1,2.65-4.27,4.19-6.23a1.6,1.6,0,0,0,.35-.57.61.61,0,0,0,0-.3A.65.65,0,0,0,23.3,8a.63.63,0,0,0-.7,0,1.84,1.84,0,0,0-.52.52q-2,2.67-3.87,5.41c-1.6,2.33-3.13,4.72-4.71,7a6.44,6.44,0,0,0-.49.83A.66.66,0,0,0,13,22.36ZM77.3,17A9.55,9.55,0,0,1,83,7.94c3.18-1.33,6.57-.54,9.4,1.21a6.91,6.91,0,0,1,2,1.84,9.85,9.85,0,0,1-1.59,12.72,9.61,9.61,0,0,1-12.21.16,9.22,9.22,0,0,1-3.18-6.12C77.32,17.51,77.31,17.25,77.3,17Zm16.81-2.69c-.06.13-.13.27-.2.4-1.26,2.35-2.76,4.57-4.07,6.89-.25.41-.48.84-.72,1.25A5.35,5.35,0,0,1,88.44,24c-.08.15-.17.34-.06.48s.31.08.46,0a9.29,9.29,0,0,0,4.83-4,9.21,9.21,0,0,0,1-6.19c0-.1,0-.21-.13-.26S94.21,14.15,94.11,14.32Zm-1.37-3.43a.33.33,0,0,0-.21.17c-1.54,2.21-3,4.42-4.49,6.68-.71,1.11-1.39,2.24-2,3.38-.32.56-.63,1.13-1,1.72-.14.27-.29.58-.45.87s-.34.43-.31.68v.06a.58.58,0,0,0,.28.34,2.33,2.33,0,0,0,.47.14,1.5,1.5,0,0,0,1.11-.08,1.27,1.27,0,0,0,.38-.45c.79-1.26,1.64-2.47,2.39-3.78,1.44-2.27,2.88-4.52,4.27-6.81.34-.56.83-1.22.54-1.89A3,3,0,0,0,93,11,.31.31,0,0,0,92.74,10.89Zm-2.1-1.4c-.1,0-.16.12-.21.19a2,2,0,0,0-.12.19C88,13.3,85.67,16.66,83.37,20.06c-.61.91-1.07,1.9-1.63,2.82a.59.59,0,0,0-.09.55.6.6,0,0,0,.3.24c.19.12.4.23.59.34s.17.09.26.06.14-.12.19-.2c.54-1,1.08-2,1.65-2.91s1.16-2,1.81-3c.92-1.37,1.84-2.74,2.77-4.09l1.38-2c.19-.29.35-.61.57-.91a1.44,1.44,0,0,0,.31-.74c0-.37-.31-.59-.61-.74A.46.46,0,0,0,90.64,9.49Zm-2.33-.84A1,1,0,0,0,87.6,9c-.38.45-.69,1-1,1.51s-.8,1.13-1.2,1.72c-.77,1.13-1.52,2.27-2.27,3.44s-1.36,2.09-2,3.15c-.32.52-.65,1-1,1.55s-.69.76-.44,1.32a2.51,2.51,0,0,0,.6.7.2.2,0,0,0,.38-.06l.15-.27a94.73,94.73,0,0,1,6.71-10.19c.38-.46.58-1,1-1.46.25-.29.85-.93.74-1.35a.54.54,0,0,0-.26-.23A1.33,1.33,0,0,0,88.31,8.65ZM84.19,9.79c-.35.54-.71,1.08-1,1.62-.69,1.09-1.35,2.21-2,3.28a32.68,32.68,0,0,1-1.93,2.77,2.55,2.55,0,0,0-.6,1.26c0,.24.07,1.24.56.91.19-.13.26-.5.38-.7s.4-.58.61-.86.57-.76.84-1.15l2-3a10.76,10.76,0,0,0,.92-1.32,13.29,13.29,0,0,0,.91-1.35,19.54,19.54,0,0,1,1.72-2.54c.08-.11.16-.28.06-.38a.25.25,0,0,0-.13-.06l-.11,0a1.75,1.75,0,0,0-1.28.35A3.89,3.89,0,0,0,84.19,9.79ZM78.6,16a.63.63,0,0,0,.12-.11c.82-1.11,1.72-2.17,2.47-3.32.65-1,1.27-2,1.94-3,.07-.1.14-.22.09-.33s-.35-.14-.52-.05a8.66,8.66,0,0,0-4.33,6.29.29.29,0,0,1,0,.1.8.8,0,0,0,0,.31A.22.22,0,0,0,78.6,16Zm34.69-4.67a9.73,9.73,0,0,1,9.25-4.43,8.78,8.78,0,0,1,7.19,5.72,11.6,11.6,0,0,1,.46,4.43c0,.11,0,.22,0,.34a10.57,10.57,0,0,1-.93,3.92,8.27,8.27,0,0,1-2.87,2.89,8,8,0,0,1-4.59,1.39,10.29,10.29,0,0,1-5.46-1,8.19,8.19,0,0,1-3.59-4.31A10.91,10.91,0,0,1,113.29,11.35Zm15.51,6.09c-1,1.6-1.89,3.2-3,4.73-.22.31-.42.63-.64.94s-.21.42,0,.54.3,0,.44,0a8.7,8.7,0,0,0,3.65-6c0-.13,0-.27-.08-.33S128.87,17.31,128.8,17.44Zm.14-3.87s-.06,0-.08.07c-.2.3-.39.62-.59.93-.47.77-1,1.53-1.46,2.27s-1.12,1.53-1.66,2.3a47,47,0,0,0-3,4.81.23.23,0,0,0-.06.19c0,.12.18.16.31.16a1.48,1.48,0,0,0,1.08-.2,1.64,1.64,0,0,0,.29-.4c1-1.81,2.27-3.48,3.39-5.23.43-.65.81-1.33,1.2-2a4.39,4.39,0,0,0,.83-1.71,4.34,4.34,0,0,0-.17-1.07S129,13.57,128.94,13.57ZM127.43,11c-.08,0-.12.07-.16.13-.45.66-.86,1.32-1.33,2-1.14,1.56-2.17,3.21-3.21,4.85s-2.21,3.2-3.25,4.83l-.45.69s-.06.1-.08.15a.49.49,0,0,0-.14.31c0,.24.27.38.49.46a1.22,1.22,0,0,0,1.11.07,1.11,1.11,0,0,0,.43-.52,25,25,0,0,1,1.41-2.39c.55-.82,1.11-1.63,1.65-2.44l2.19-3.29a28.15,28.15,0,0,0,2-3,.93.93,0,0,0,.15-.62c-.06-.32-.4-.53-.52-.83,0-.08-.06-.16-.1-.23A.2.2,0,0,0,127.43,11Zm-2-1.86a.63.63,0,0,0-.25.26c-1,1.55-2.26,2.95-3.32,4.48s-2.12,3.1-3.16,4.65c-.38.55-.67,1.14-1,1.69s-.83,1.24-1.2,1.89a.2.2,0,0,0-.05.09.86.86,0,0,0-.13.42c0,.35.3.63.58.84s.53.35.8.22a.72.72,0,0,0,.26-.31c1-1.69,2.09-3.29,3.12-4.93,1.66-2.66,3.46-5.18,5.24-7.74a1.17,1.17,0,0,0,.26-.57c0-.37-.32-.63-.61-.83A.61.61,0,0,0,125.39,9.13Zm-2.75-.89c-.59.29-.8,1.11-1.16,1.62-.53.76-1,1.6-1.53,2.38-1.08,1.59-2.24,3.16-3.34,4.74-.34.49-.66,1-1,1.47a4.82,4.82,0,0,0-.94,1.49,1.72,1.72,0,0,0,.44,1.87.4.4,0,0,0,.34.1c.14,0,.21-.18.27-.3a18.71,18.71,0,0,1,1.56-2.51c.57-.87,1.15-1.73,1.74-2.59q1.74-2.58,3.52-5.13l1.09-1.58c.12-.17.34-.44.51-.7a1.21,1.21,0,0,0,.21-.53c0-.19-.23-.27-.4-.31A1.85,1.85,0,0,0,122.64,8.24ZM113.51,15c.06,0,.09,0,.14-.07,1.77-1.64,2.9-3.78,4.42-5.61a.6.6,0,0,0,.16-.24.23.23,0,0,0-.09-.27.29.29,0,0,0-.24,0,5.05,5.05,0,0,0-.69.22,5.63,5.63,0,0,0-2.53,2.32,9,9,0,0,0-.78,1.59,5.27,5.27,0,0,0-.54,1.8C113.36,14.8,113.41,15,113.51,15Zm.41,1.33a2,2,0,0,0-.42.86c-.08.52.27,1,.3,1.55a1,1,0,0,0,0,.24A.16.16,0,0,0,114,19a.21.21,0,0,0,.14-.12c.55-.88,1-1.84,1.64-2.67s1.06-1.39,1.56-2.11c1.33-1.9,2.66-3.81,4-5.74.06-.09.12-.19.07-.27s-.13-.1-.21-.12L120.73,8a1.4,1.4,0,0,0-.79.14,1.69,1.69,0,0,0-.48.48c-1,1.23-1.77,2.56-2.69,3.82S114.86,15,113.92,16.28Zm100,.73a9.55,9.55,0,0,1,5.66-9.07c3.18-1.33,6.57-.54,9.4,1.21A6.91,6.91,0,0,1,231,11a9.85,9.85,0,0,1-1.59,12.72,9.61,9.61,0,0,1-12.21.16A9.22,9.22,0,0,1,214,17.75C214,17.51,213.94,17.25,213.93,17Zm16.81-2.69c-.06.13-.13.27-.2.4-1.26,2.35-2.77,4.57-4.07,6.89-.25.41-.48.84-.72,1.25a5.35,5.35,0,0,1-.68,1.16c-.08.15-.17.34-.06.48s.31.08.46,0a9,9,0,0,0,5.85-10.22c0-.1,0-.21-.13-.26S230.84,14.15,230.74,14.32Zm-1.37-3.43a.33.33,0,0,0-.21.17c-1.54,2.21-3,4.42-4.49,6.68-.71,1.11-1.39,2.24-2,3.38-.32.56-.63,1.13-.95,1.72-.14.27-.29.58-.45.87s-.34.43-.31.68v.06a.55.55,0,0,0,.28.34,2.33,2.33,0,0,0,.47.14,1.51,1.51,0,0,0,1.11-.08,1.27,1.27,0,0,0,.38-.45c.79-1.26,1.63-2.47,2.39-3.78,1.44-2.27,2.88-4.52,4.27-6.81.34-.56.83-1.22.54-1.89a3,3,0,0,0-.74-.9A.31.31,0,0,0,229.37,10.89Zm-2.1-1.4c-.1,0-.16.12-.21.19a2,2,0,0,0-.12.19c-2.27,3.43-4.64,6.79-6.94,10.19-.61.91-1.07,1.9-1.63,2.82a.59.59,0,0,0-.09.55.6.6,0,0,0,.3.24c.19.12.4.23.59.34s.17.09.26.06.14-.12.19-.2c.54-1,1.08-2,1.65-2.91s1.16-2,1.8-3c.93-1.37,1.85-2.74,2.78-4.09l1.38-2c.19-.29.35-.61.57-.91a1.53,1.53,0,0,0,.31-.74c0-.37-.31-.59-.61-.74A.46.46,0,0,0,227.27,9.49Zm-2.33-.84a1,1,0,0,0-.71.36c-.38.45-.7,1-1,1.51s-.8,1.13-1.2,1.72c-.77,1.13-1.52,2.27-2.27,3.44s-1.36,2.09-2,3.15c-.33.52-.65,1-1,1.55s-.69.76-.44,1.32a2.51,2.51,0,0,0,.6.7.2.2,0,0,0,.38-.06l.15-.27a94.73,94.73,0,0,1,6.71-10.19c.38-.46.58-1,1-1.46.25-.29.85-.93.74-1.35a.54.54,0,0,0-.26-.23A1.33,1.33,0,0,0,224.94,8.65Zm-4.12,1.14c-.35.54-.71,1.08-1,1.62-.69,1.09-1.35,2.21-2.05,3.28s-1.24,1.88-1.93,2.77a2.55,2.55,0,0,0-.6,1.26c0,.24.07,1.24.56.91.19-.13.26-.5.38-.7s.4-.58.61-.86.57-.76.83-1.15c.68-1,1.36-2,2-3a10.76,10.76,0,0,0,.92-1.32,15.18,15.18,0,0,0,.91-1.35,19.54,19.54,0,0,1,1.72-2.54c.08-.11.15-.28.06-.38a.25.25,0,0,0-.14-.06l-.1,0a1.75,1.75,0,0,0-1.28.35A3.89,3.89,0,0,0,220.82,9.79ZM215.22,16a.47.47,0,0,0,.13-.11c.82-1.11,1.72-2.17,2.47-3.32.65-1,1.27-2,1.94-3,.07-.1.14-.22.09-.33s-.35-.14-.52-.05A8.7,8.7,0,0,0,215,15.47a.3.3,0,0,1,0,.1.8.8,0,0,0,0,.31A.21.21,0,0,0,215.22,16Zm-69.71.3c0-4.35,2.52-8.78,6.8-10.14a9.15,9.15,0,0,1,2.62-.43,11.19,11.19,0,0,1,6.33,1.83,8.82,8.82,0,0,1,3.55,6,10.76,10.76,0,0,1-1,7,8.22,8.22,0,0,1-4.62,3.71,14,14,0,0,1-4.94.73C149.7,24.82,145.55,21,145.51,16.32Zm18,.68c-.59.91-1.25,1.78-1.86,2.69-.44.64-.9,1.24-1.3,1.89a9.24,9.24,0,0,0-.52,1,.46.46,0,0,0-.05.3.28.28,0,0,0,.33.17,3.73,3.73,0,0,0,2.06-1.54,9.44,9.44,0,0,0,1.75-4.37c0-.12,0-.28-.1-.33S163.6,16.89,163.52,17Zm-1.15-6.7c-.36.11-.47.85-.6,1.15a13.1,13.1,0,0,1-1.06,1.67c-.71,1.11-1.42,2.24-2.11,3.37-1.41,2.28-2.79,4.56-4.15,6.89a.44.44,0,0,0-.09.45A.41.41,0,0,0,155,24a1.08,1.08,0,0,0,.35-.32,20.87,20.87,0,0,0,1.7-2.37,1,1,0,0,1,.4-.42c.8-.29.24.87.13,1.09a14.7,14.7,0,0,1-1,1.59.39.39,0,0,0-.1.24c.06.4,1.49-.22,1.66-.35a3.11,3.11,0,0,0,.75-.9l2.55-4.07,2-3.12a3.39,3.39,0,0,0,.51-1.11c0-.21,0-1.12-.28-1.18s-.29.14-.34.31a7.8,7.8,0,0,1-1,1.61c-.4.61-.79,1.21-1.21,1.8-.81,1.14-1.62,2.27-2.36,3.46-.16.26-.44.55-.69.39s-.12-.55,0-.81l2.7-4.19,1.37-2.14a5.29,5.29,0,0,0,1-1.81,1.91,1.91,0,0,0-.42-1.18C162.6,10.38,162.49,10.26,162.37,10.3Zm-1.11-1.52a.45.45,0,0,0-.34.21c-.37.57-.7,1.19-1.09,1.76s-.93,1.34-1.42,2a62.41,62.41,0,0,0-3.69,5.66c-.88,1.5-1.83,3-2.73,4.46a.57.57,0,0,0-.08.53.43.43,0,0,0,.23.21,1.28,1.28,0,0,0,.27.11.8.8,0,0,0,.55,0,.78.78,0,0,0,.27-.32c1.34-2.38,2.83-4.7,4.26-7,.7-1.15,1.47-2.27,2.2-3.38.4-.58.79-1.17,1.18-1.76a6.42,6.42,0,0,0,.9-1.34.82.82,0,0,0-.09-.67C161.62,9.07,161.41,8.8,161.26,8.78Zm-2-.77a1.84,1.84,0,0,0-.52.52q-2,2.67-3.87,5.41c-1.6,2.33-3.13,4.72-4.72,7a7.74,7.74,0,0,0-.48.83.66.66,0,0,0,0,.55c.17.41.76.86,1.1.44.75-1,1.34-2.08,2-3.11.92-1.41,1.85-2.83,2.78-4.23,1.38-2.1,2.65-4.27,4.19-6.23a1.6,1.6,0,0,0,.35-.57.61.61,0,0,0,0-.3.53.53,0,0,0-.17-.34A.62.62,0,0,0,159.23,8Zm-2.08-1a1.31,1.31,0,0,0-.75.66c-1.05,1.69-2.37,3.24-3.56,4.84-1.7,2.3-3.43,4.58-5.05,6.93a1.23,1.23,0,0,0-.29.61,1,1,0,0,0,.76.9.36.36,0,0,0,.3-.08l.1-.08c.8-.86,1.27-2,2-2.84s1.61-2.14,2.38-3.21q2.37-3.37,4.65-6.81a.94.94,0,0,0,.18-.44A.57.57,0,0,0,157.15,7Zm-10.39,7.28c.07,0,.14,0,.19-.11a31.69,31.69,0,0,1,2.29-2.9l2.9-3.46c.09-.11.19-.28.08-.39s-.21,0-.31,0l-.2.08a8.44,8.44,0,0,0-3.1,2.65A8.28,8.28,0,0,0,147.52,12a15.49,15.49,0,0,0-.82,2.08C146.67,14.15,146.66,14.28,146.76,14.31Zm.36,1.69a2.37,2.37,0,0,0-.41,2.12c0,.05,0,.12.11.14s.11-.06.14-.11a1.53,1.53,0,0,1,.14-.21c1.15-1.77,2.52-3.39,3.82-5,1.46-1.86,2.9-3.73,4.35-5.58.12-.16.26-.33.22-.52-.11-.67-1.45.21-1.65.42a14.76,14.76,0,0,0-1.33,1.71c-.5.63-1,1.28-1.49,1.89A41.28,41.28,0,0,0,147.12,16Zm35.74-.66a8.6,8.6,0,0,1,8.79-7,7.71,7.71,0,0,1,4.4,1.28,9.63,9.63,0,0,1,2.93,4c.08.21.15.45.21.66a10.85,10.85,0,0,1,0,5.37c-.09.29-.18.58-.29.87a9.34,9.34,0,0,1-5.36,5.39,6.73,6.73,0,0,1-2.85.38,8.94,8.94,0,0,1-5.92-3A9.17,9.17,0,0,1,182.86,15.34Zm15,2c-1.55,2.34-3.49,4.39-5,6.74-.11.16-.48.53-.39.75s.77-.15.94-.26c.34-.23.68-.46,1-.7a11.72,11.72,0,0,0,1.81-1.78,10.86,10.86,0,0,0,2.2-4.6c0-.14,0-.3-.06-.38S197.93,17.19,197.82,17.36Zm-.09-3.9c-.11,0-.19.1-.25.19q-.45.66-.93,1.26c-1.89,2.37-3.54,4.9-5.42,7.26a11.07,11.07,0,0,0-.91,1.25,8,8,0,0,1-.82,1.09c-.11.11-.21.26-.14.4a.47.47,0,0,0,.27.17,1.83,1.83,0,0,0,.86.13c.4-.07.46-.38.63-.67a16.18,16.18,0,0,1,1-1.33A33.64,33.64,0,0,0,194.41,20c1.08-1.37,2.2-2.73,3.21-4.15a2.32,2.32,0,0,0,.56-1.17c0-.33-.17-.55-.18-.89C198,13.65,197.9,13.45,197.73,13.46Zm-1.46-2.23a.26.26,0,0,0-.19.12c-.67.81-1.19,1.75-1.82,2.59l-2,2.72c-1.37,1.84-2.74,3.68-4.05,5.57-.21.33-1,1.14-.84,1.55.06.22.28.34.48.44a.52.52,0,0,0,.4.07c.26-.11.51-.64.65-.85.31-.42.61-.85.93-1.27.63-.87,1.27-1.75,1.91-2.61s1.51-2,2.29-3c.91-1.19,1.91-2.27,2.72-3.53,0-.08.11-.15.16-.24a.9.9,0,0,0,.16-.41.87.87,0,0,0-.22-.49l-.36-.52A.24.24,0,0,0,196.27,11.23Zm-1.72-1.44c-.51-.07-.65.54-.86.86s-.39.5-.59.74c-.38.48-.76,1-1.13,1.46-.74,1-1.48,1.92-2.2,2.89-1.37,1.83-2.73,3.66-4.15,5.44a1.06,1.06,0,0,0-.29.84,1.37,1.37,0,0,0,.46.74.39.39,0,0,0,.34.2.42.42,0,0,0,.25-.22l.15-.21c.34-.49.68-1,1-1.45a27,27,0,0,0,1.92-2.58l2-2.64c.65-.86,1.25-1.75,1.88-2.62.32-.43.63-.87,1-1.29a7.36,7.36,0,0,1,.71-1.07.59.59,0,0,0,.23-.53A1.26,1.26,0,0,0,194.55,9.79Zm-3.47.59C189,13,187,15.54,185,18.23a2.86,2.86,0,0,0-.83,1.71c0,.25.18.57.43.5a.82.82,0,0,0,.2-.17c.78-.79,1.44-1.77,2.14-2.64s1.41-1.77,2.1-2.67c1.29-1.63,2.44-3.43,3.86-5a.43.43,0,0,0,.15-.38c-.09-.31-.76-.1-1,0a1.69,1.69,0,0,0-.36.15A3,3,0,0,0,191.08,10.38Zm-6.3,6.14c1.32-1.59,2.53-3.33,4-4.78.2-.22.41-.42.6-.63s.46-.61.27-.85a.66.66,0,0,0-.68-.11,7.43,7.43,0,0,0-5.06,6c-.05.26,0,.6.22.71S184.61,16.72,184.78,16.52Zm65.14-5.17a9.73,9.73,0,0,1,9.25-4.43,8.78,8.78,0,0,1,7.19,5.72,11.8,11.8,0,0,1,.46,4.43c0,.11,0,.22,0,.34a11,11,0,0,1-.93,3.92A8.27,8.27,0,0,1,263,24.22a8,8,0,0,1-4.59,1.39,10.29,10.29,0,0,1-5.46-1,8.19,8.19,0,0,1-3.59-4.31A10.91,10.91,0,0,1,249.92,11.35Zm15.5,6.09c-.95,1.6-1.88,3.2-2.95,4.73-.22.31-.42.63-.64.94s-.21.42-.05.54.3,0,.43,0a8.68,8.68,0,0,0,3.66-6c0-.13,0-.27-.08-.33S265.5,17.31,265.42,17.44Zm.15-3.87s-.06,0-.08.07c-.2.3-.39.62-.59.93-.47.77-.95,1.53-1.46,2.27s-1.12,1.53-1.66,2.3a47,47,0,0,0-3,4.81.23.23,0,0,0-.06.19c0,.12.18.16.31.16a1.48,1.48,0,0,0,1.08-.2,2,2,0,0,0,.29-.4c1-1.81,2.26-3.48,3.39-5.23.43-.65.81-1.33,1.2-2a4.23,4.23,0,0,0,.82-1.71,3.57,3.57,0,0,0-.17-1.07S265.62,13.57,265.57,13.57ZM264.06,11a.21.21,0,0,0-.16.13c-.45.66-.86,1.32-1.33,2-1.14,1.56-2.17,3.21-3.21,4.85s-2.21,3.2-3.25,4.83l-.45.69s-.06.1-.08.15a.49.49,0,0,0-.14.31c0,.24.27.38.49.46a1.22,1.22,0,0,0,1.11.07,1.11,1.11,0,0,0,.43-.52,25,25,0,0,1,1.41-2.39c.55-.82,1.11-1.63,1.65-2.44.73-1.1,1.45-2.19,2.19-3.29a28.15,28.15,0,0,0,2-3,.93.93,0,0,0,.15-.62c-.06-.32-.4-.53-.52-.83,0-.08-.06-.16-.1-.23A.2.2,0,0,0,264.06,11Zm-2-1.86a.63.63,0,0,0-.25.26c-1,1.55-2.26,2.95-3.32,4.48s-2.12,3.1-3.16,4.65c-.38.55-.67,1.14-1,1.69s-.83,1.24-1.2,1.89a.2.2,0,0,0-.05.09.87.87,0,0,0-.14.42c0,.35.31.63.59.84s.53.35.8.22a.72.72,0,0,0,.26-.31c1-1.69,2.09-3.29,3.12-4.93,1.66-2.66,3.46-5.18,5.24-7.74a1.17,1.17,0,0,0,.26-.57c0-.37-.32-.63-.61-.83A.61.61,0,0,0,262,9.13Zm-2.75-.89c-.59.29-.8,1.11-1.16,1.62-.53.76-1,1.6-1.53,2.38-1.08,1.59-2.24,3.16-3.34,4.74-.34.49-.66,1-1,1.47a4.82,4.82,0,0,0-.94,1.49,1.72,1.72,0,0,0,.44,1.87.4.4,0,0,0,.34.1c.14,0,.21-.18.27-.3a18.71,18.71,0,0,1,1.56-2.51c.57-.87,1.15-1.73,1.73-2.59,1.17-1.72,2.34-3.43,3.53-5.13l1.09-1.58c.12-.17.34-.44.51-.7a1.17,1.17,0,0,0,.2-.53c0-.19-.23-.27-.39-.31A1.85,1.85,0,0,0,259.27,8.24ZM250.14,15c.06,0,.09,0,.14-.07,1.77-1.64,2.9-3.78,4.42-5.61a.72.72,0,0,0,.16-.24.22.22,0,0,0-.1-.27.26.26,0,0,0-.23,0,5.05,5.05,0,0,0-.69.22,5.63,5.63,0,0,0-2.53,2.32,9.81,9.81,0,0,0-.79,1.59,5.48,5.48,0,0,0-.53,1.8C250,14.8,250,15,250.14,15Zm.41,1.33a2.12,2.12,0,0,0-.43.86c-.07.52.28,1,.31,1.55a1,1,0,0,0,0,.24.16.16,0,0,0,.19.11c.07,0,.1-.07.14-.12.55-.88,1-1.84,1.64-2.67s1.06-1.39,1.56-2.11c1.33-1.9,2.66-3.81,4-5.74.06-.09.12-.19.07-.27s-.13-.1-.21-.12a3.71,3.71,0,0,0-.45-.06,1.4,1.4,0,0,0-.79.14,1.69,1.69,0,0,0-.48.48c-1,1.23-1.77,2.56-2.69,3.82S251.49,15,250.55,16.28Zm95.2,4.46a1.35,1.35,0,0,1,.46,1.05,6.53,6.53,0,0,0,.31,1.27,12.88,12.88,0,0,0,7.71,8.11,13.73,13.73,0,0,0,11.21-.86,14.66,14.66,0,0,0,7-8.88,6.25,6.25,0,0,1,.48-1.42c.26-.43.83-.43,1.29-.42,1.41,0,2.82.07,4.23.12a17.16,17.16,0,0,0,1.9-.05,1.38,1.38,0,0,1,1.31.69,5.32,5.32,0,0,1,.45,1.73,9.89,9.89,0,0,0,4,6.23A12.86,12.86,0,0,0,389.3,30a15.41,15.41,0,0,0,7.76.74,13.73,13.73,0,0,0,3.75-1.22,12,12,0,0,0,2.69-2.12A11.41,11.41,0,0,0,406.92,21a2.22,2.22,0,0,1,.46-1.29c.58-.58,1.71-.3,2.46-.36a17.51,17.51,0,0,1,1.92.1,4.24,4.24,0,0,1,1.73.22c1.19.52,1.3,2.55,1.79,3.57a14.76,14.76,0,0,0,1.88,2.93,14.54,14.54,0,0,0,5.53,4.14,17.27,17.27,0,0,0,9.38,1,13,13,0,0,0,7-3.24c2-1.91,2.86-4.33,3.67-6.89a.81.81,0,0,1,.21-.4.87.87,0,0,1,.57-.13h7.53a.58.58,0,0,1,.69.7,13.27,13.27,0,0,0,.86,2.79A10,10,0,0,0,454,26.63a11.22,11.22,0,0,0,4.33,3.67,13.3,13.3,0,0,0,9.13.73A12.31,12.31,0,0,0,473.09,28a13.48,13.48,0,0,0,3.16-5.56,2.66,2.66,0,0,1,.76-1.51,3.7,3.7,0,0,1,2-.38c.31,0,1.89.18,1.83-.42s-1.13-.35-1.44-.34a17.44,17.44,0,0,0-1.77.05,6.13,6.13,0,0,0-1.42,0,1.28,1.28,0,0,0-.68.66,6.85,6.85,0,0,0-.49,1.68,10.74,10.74,0,0,1-4.36,6.37,11.38,11.38,0,0,1-2.07,1.09,11,11,0,0,1-3.93.74,14.65,14.65,0,0,1-3.5-.21,11.75,11.75,0,0,1-6.1-3.92,10.2,10.2,0,0,1-1.91-3.32,8,8,0,0,1-.43-1.86c-.05-.5.18-1-.38-1.31a1.86,1.86,0,0,0-.87-.15c-2.57,0-5.17-.18-7.73,0-.52,0-1.3-.12-1.66.37a2.3,2.3,0,0,0-.34,1,10.56,10.56,0,0,1-.66,2.09,11.94,11.94,0,0,1-4.36,5.2,13.85,13.85,0,0,1-7.41,2c-3.87.13-7.57-.75-10.41-3.52a12.56,12.56,0,0,1-2.69-3.81l-.24-.53a8.19,8.19,0,0,1-.52-1.66,7.49,7.49,0,0,0-.2-1c-.49-1.56-2.51-1.35-3.8-1.42s-2.52,0-3.79-.08a1.76,1.76,0,0,0-1.59.47,2.38,2.38,0,0,0-.3,1.31,10,10,0,0,1-5.21,7.89c-4.24,2.4-10.11,2.27-14-.84A10.47,10.47,0,0,1,382.82,20a2.39,2.39,0,0,0-.24-1c-.4-.69-1.78-.39-2.46-.41l-3,0-2.72,0c-.19,0-1.13-.12-1.74-.12-.26,0-.48,0-.52.1a2.74,2.74,0,0,0-.36.61A15.05,15.05,0,0,1,365,28.82a12.67,12.67,0,0,1-10.36,1.26,10.93,10.93,0,0,1-7.12-7.47c-.2-.76-.37-1.53-.62-2.28a.87.87,0,0,0-.39-.51,1,1,0,0,0-.43-.06c-1.16,0-2.29,0-3.44,0a17.36,17.36,0,0,0-1.77,0,7.48,7.48,0,0,0-1.42,0,1.27,1.27,0,0,0-.68.67,6.85,6.85,0,0,0-.5,1.67,10.76,10.76,0,0,1-4.35,6.38,11.78,11.78,0,0,1-2.08,1.09,10.91,10.91,0,0,1-3.92.74,14.62,14.62,0,0,1-3.5-.21,11.88,11.88,0,0,1-6.11-3.92,10.17,10.17,0,0,1-1.9-3.32,8.76,8.76,0,0,1-.44-1.87c-.05-.49.18-1-.37-1.31a2,2,0,0,0-.87-.14c-2.57,0-5.18-.18-7.73,0-.52,0-1.3-.12-1.66.36a2.35,2.35,0,0,0-.34,1,11.16,11.16,0,0,1-.67,2.1A11.85,11.85,0,0,1,300,28.21a13.74,13.74,0,0,1-7.4,2c-3.88.13-7.57-.75-10.42-3.53a12.87,12.87,0,0,1-2.69-3.8c-.08-.17-.16-.35-.23-.53a7.76,7.76,0,0,1-.42-1.23,3.13,3.13,0,0,1-.1-.44,6.49,6.49,0,0,0-.21-1,1.64,1.64,0,0,0-.43-.74c-.76-.68-1.95-.38-2.86-.37s-1.62,0-2.38-.07c-.55,0-1.09-.12-1.65-.14s-1-.17-1.43.12-.45,1-.48,1.49A10,10,0,0,1,264,27.83c-4.24,2.4-10.11,2.27-14-.83a10.47,10.47,0,0,1-3.81-6.95,2.35,2.35,0,0,0-.24-1c-.4-.69-1.78-.4-2.46-.41l-3-.05-2.72,0c-.19,0-1.13-.13-1.74-.13-.26,0-.48,0-.52.1a2.78,2.78,0,0,0-.36.62,15.08,15.08,0,0,1-6.83,9.72,12.67,12.67,0,0,1-10.36,1.26A11,11,0,0,1,211,22.64c-.2-.77-.37-1.53-.62-2.28a.84.84,0,0,0-.39-.51,1,1,0,0,0-.43-.06c-1.15,0-2.29,0-3.44,0a17.36,17.36,0,0,0-1.77.05,6.74,6.74,0,0,0-1.42,0,1.27,1.27,0,0,0-.68.67,6.38,6.38,0,0,0-.49,1.67,10.79,10.79,0,0,1-4.36,6.37,11.15,11.15,0,0,1-2.08,1.09,10.7,10.7,0,0,1-3.92.74,14.62,14.62,0,0,1-3.5-.2,11.84,11.84,0,0,1-6.11-3.93,10.07,10.07,0,0,1-1.9-3.32,8.53,8.53,0,0,1-.44-1.86c-.05-.5.18-1-.37-1.31a2,2,0,0,0-.87-.14c-2.57,0-5.18-.19-7.73,0-.52,0-1.3-.12-1.66.37a2.35,2.35,0,0,0-.34,1,11.3,11.3,0,0,1-.67,2.09,11.88,11.88,0,0,1-4.36,5.2,13.81,13.81,0,0,1-7.4,2c-3.88.14-7.57-.75-10.42-3.52a12.91,12.91,0,0,1-2.69-3.81c-.08-.17-.16-.34-.23-.52a7.18,7.18,0,0,1-.52-1.67,6.49,6.49,0,0,0-.21-1c-.34-1.08-1-1.24-2-1.3-.64,0-1.29-.08-1.93-.14-1.16-.12-2.34,0-3.51-.06a1.74,1.74,0,0,0-1.58.47,2.32,2.32,0,0,0-.31,1.31,10,10,0,0,1-5.21,7.89c-4.23,2.4-10.11,2.27-14-.83a10.52,10.52,0,0,1-3.81-7,2.31,2.31,0,0,0-.24-1c-.4-.69-1.78-.4-2.46-.41l-3,0-2.72,0c-.18,0-1.13-.12-1.74-.12-.26,0-.48,0-.52.1a2.57,2.57,0,0,0-.36.62,15.06,15.06,0,0,1-6.83,9.71,12.67,12.67,0,0,1-10.36,1.26,10.93,10.93,0,0,1-7.12-7.47c-.2-.76-.37-1.52-.62-2.28a.82.82,0,0,0-.39-.5.91.91,0,0,0-.43-.07c-1.15,0-2.29,0-3.44,0a17.36,17.36,0,0,0-1.77,0,6.73,6.73,0,0,0-1.42,0,1.25,1.25,0,0,0-.68.66,6.49,6.49,0,0,0-.49,1.67,10.82,10.82,0,0,1-4.36,6.38,11.78,11.78,0,0,1-2.08,1.09,10.91,10.91,0,0,1-3.92.74,14.62,14.62,0,0,1-3.5-.21,11.88,11.88,0,0,1-6.11-3.92A10.17,10.17,0,0,1,43.21,23a8.76,8.76,0,0,1-.44-1.87c0-.49.19-1-.37-1.3a1.86,1.86,0,0,0-.87-.15c-2.57,0-5.18-.18-7.73,0-.52,0-1.3-.12-1.66.36a2.35,2.35,0,0,0-.34,1,11.16,11.16,0,0,1-.67,2.1,11.88,11.88,0,0,1-4.36,5.2,13.81,13.81,0,0,1-7.4,2c-3.88.13-7.57-.75-10.42-3.53a12.87,12.87,0,0,1-2.69-3.8,9,9,0,0,1-.75-2.19c-.08-.56-.12-1.35-.67-1.7A1.7,1.7,0,0,0,4,18.87l-1.69,0H1.42a1.83,1.83,0,0,0-.74,0,.59.59,0,0,0-.27.31.76.76,0,0,0-.08.39.5.5,0,0,0,.16.36.7.7,0,0,0,.24.13,5.47,5.47,0,0,0,2.06.16,1.86,1.86,0,0,1,1.09.18c.82.49,1,2.09,1.43,2.92a14.5,14.5,0,0,0,7.41,7.07,17.27,17.27,0,0,0,9.38,1,12.94,12.94,0,0,0,7-3.24c2-1.91,2.86-4.34,3.67-6.89a.79.79,0,0,1,.22-.4.82.82,0,0,1,.57-.14l7.52,0a.86.86,0,0,1,.45.08.83.83,0,0,1,.24.62,13.62,13.62,0,0,0,.87,2.78A10.2,10.2,0,0,0,44,26.71a11.32,11.32,0,0,0,4.34,3.67,13.28,13.28,0,0,0,9.12.73A12.21,12.21,0,0,0,63.11,28a13.5,13.5,0,0,0,3.17-5.56A2.63,2.63,0,0,1,67,21a3.79,3.79,0,0,1,2-.37,24.66,24.66,0,0,1,2.72,0,1.47,1.47,0,0,1,.8.2,1.29,1.29,0,0,1,.46,1,6.36,6.36,0,0,0,.31,1.27,12.87,12.87,0,0,0,7.72,8.11,13.67,13.67,0,0,0,11.2-.86,14.62,14.62,0,0,0,7-8.88,7,7,0,0,1,.48-1.42c.26-.43.83-.43,1.29-.42,1.41,0,2.83.07,4.23.12a17.16,17.16,0,0,0,1.9-.05,1.37,1.37,0,0,1,1.31.69,5.32,5.32,0,0,1,.45,1.73,9.89,9.89,0,0,0,4,6.23,12.47,12.47,0,0,0,3.25,1.71,15.47,15.47,0,0,0,7.75.73,13.73,13.73,0,0,0,3.75-1.22,11.71,11.71,0,0,0,2.69-2.12,11.34,11.34,0,0,0,3.42-6.41,2.17,2.17,0,0,1,.46-1.28,1.74,1.74,0,0,1,1.36-.38c.73,0,1.44.11,2.17.09a5.66,5.66,0,0,1,2.42.24c1.19.53,1.29,2.55,1.79,3.57a14,14,0,0,0,1.87,2.93,14.57,14.57,0,0,0,5.54,4.14,17.18,17.18,0,0,0,9.38,1,12.93,12.93,0,0,0,7-3.23c2-1.92,2.86-4.34,3.67-6.9a.88.88,0,0,1,.22-.4.87.87,0,0,1,.57-.13h7.52a.86.86,0,0,1,.45.08.84.84,0,0,1,.24.62,14.56,14.56,0,0,0,.86,2.79,11,11,0,0,0,1.31,2.52,11.5,11.5,0,0,0,4.34,3.67,13.33,13.33,0,0,0,9.12.72A12.12,12.12,0,0,0,199.74,28a13.37,13.37,0,0,0,3.16-5.56,2.71,2.71,0,0,1,.77-1.51,3.8,3.8,0,0,1,2-.38,24.66,24.66,0,0,1,2.72,0,1.46,1.46,0,0,1,.8.19,1.32,1.32,0,0,1,.46,1,6.2,6.2,0,0,0,.31,1.27,12.89,12.89,0,0,0,7.72,8.12,13.75,13.75,0,0,0,11.2-.86,14.68,14.68,0,0,0,7-8.88,6.78,6.78,0,0,1,.48-1.42c.26-.44.83-.44,1.29-.43,1.41,0,2.82.08,4.23.12a15,15,0,0,0,1.9,0,1.36,1.36,0,0,1,1.31.69,5.26,5.26,0,0,1,.45,1.73,9.89,9.89,0,0,0,4,6.22A12.57,12.57,0,0,0,252.75,30a15.52,15.52,0,0,0,7.76.74,13.42,13.42,0,0,0,3.75-1.23A11.44,11.44,0,0,0,267,27.43,11.34,11.34,0,0,0,270.37,21a2.19,2.19,0,0,1,.46-1.28,1.89,1.89,0,0,1,1.66-.32,14.71,14.71,0,0,0,2.1.13,5,5,0,0,1,2.11.14c1.19.53,1.29,2.55,1.79,3.57a14.09,14.09,0,0,0,1.87,2.94,14.67,14.67,0,0,0,5.54,4.14,17.18,17.18,0,0,0,9.38,1,12.93,12.93,0,0,0,7-3.23c2-1.92,2.86-4.34,3.67-6.89a.79.79,0,0,1,.22-.4.82.82,0,0,1,.57-.14h7.52a.78.78,0,0,1,.45.09.83.83,0,0,1,.24.62,14.25,14.25,0,0,0,.86,2.78,10.59,10.59,0,0,0,1.31,2.52,11.41,11.41,0,0,0,4.34,3.67,13.33,13.33,0,0,0,9.12.73A12.21,12.21,0,0,0,336.29,28a13.44,13.44,0,0,0,3.16-5.56,2.7,2.7,0,0,1,.77-1.52,3.7,3.7,0,0,1,2-.37,24.66,24.66,0,0,1,2.72,0A1.55,1.55,0,0,1,345.75,20.74Zm40.72-9.39a9.73,9.73,0,0,1,9.25-4.43,8.78,8.78,0,0,1,7.19,5.72,11.8,11.8,0,0,1,.46,4.43c0,.11,0,.22,0,.34a11,11,0,0,1-.93,3.92,8.27,8.27,0,0,1-2.87,2.89A8,8,0,0,1,395,25.61a10.29,10.29,0,0,1-5.46-1,8.19,8.19,0,0,1-3.59-4.31A10.91,10.91,0,0,1,386.47,11.35ZM402,17.44c-1,1.6-1.89,3.2-3,4.73-.22.31-.43.63-.64.94s-.21.42-.05.54.3,0,.43,0a8.68,8.68,0,0,0,3.66-6c0-.13,0-.27-.08-.33S402.05,17.31,402,17.44Zm.15-3.87s-.06,0-.08.07c-.2.3-.39.62-.59.93-.47.77-.95,1.53-1.46,2.27s-1.12,1.53-1.66,2.3a47,47,0,0,0-3,4.81.23.23,0,0,0-.06.19c0,.12.18.16.31.16a1.48,1.48,0,0,0,1.08-.2,2,2,0,0,0,.29-.4c1-1.81,2.26-3.48,3.39-5.23.43-.65.81-1.33,1.2-2a4.23,4.23,0,0,0,.82-1.71,3.57,3.57,0,0,0-.17-1.07S402.17,13.57,402.12,13.57ZM400.61,11a.21.21,0,0,0-.16.13c-.45.66-.86,1.32-1.33,2-1.14,1.56-2.17,3.21-3.21,4.85s-2.21,3.2-3.25,4.83l-.45.69s-.06.1-.08.15a.49.49,0,0,0-.14.31c0,.24.27.38.49.46a1.22,1.22,0,0,0,1.11.07,1.11,1.11,0,0,0,.43-.52,25,25,0,0,1,1.41-2.39c.55-.82,1.11-1.63,1.65-2.44.73-1.1,1.45-2.19,2.19-3.29a28.15,28.15,0,0,0,2-3,.93.93,0,0,0,.15-.62c-.06-.32-.4-.53-.52-.83,0-.08-.06-.16-.1-.23A.2.2,0,0,0,400.61,11Zm-2-1.86a.63.63,0,0,0-.25.26c-1.05,1.55-2.26,2.95-3.32,4.48s-2.12,3.1-3.16,4.65c-.38.55-.67,1.14-1,1.69s-.83,1.24-1.2,1.89a.2.2,0,0,0-.05.09.87.87,0,0,0-.14.42c0,.35.31.63.59.84s.53.35.8.22a.72.72,0,0,0,.26-.31c1-1.69,2.09-3.29,3.12-4.93,1.65-2.66,3.46-5.18,5.24-7.74a1.17,1.17,0,0,0,.26-.57c0-.37-.32-.63-.61-.83A.61.61,0,0,0,398.57,9.13Zm-2.75-.89c-.59.29-.8,1.11-1.16,1.62-.54.76-1,1.6-1.53,2.38-1.08,1.59-2.24,3.16-3.34,4.74-.34.49-.66,1-1,1.47a4.65,4.65,0,0,0-.94,1.49,1.72,1.72,0,0,0,.44,1.87.4.4,0,0,0,.34.1c.14,0,.21-.18.27-.3a17.74,17.74,0,0,1,1.56-2.51c.57-.87,1.15-1.73,1.73-2.59,1.17-1.72,2.34-3.43,3.53-5.13l1.09-1.58c.12-.17.34-.44.51-.7a1.17,1.17,0,0,0,.2-.53c0-.19-.23-.27-.4-.31A1.82,1.82,0,0,0,395.82,8.24ZM386.69,15c.06,0,.09,0,.14-.07,1.77-1.64,2.9-3.78,4.42-5.61a.72.72,0,0,0,.16-.24.22.22,0,0,0-.1-.27.26.26,0,0,0-.23,0,5.05,5.05,0,0,0-.69.22,5.63,5.63,0,0,0-2.53,2.32,9.81,9.81,0,0,0-.79,1.59,5.48,5.48,0,0,0-.53,1.8C386.54,14.8,386.59,15,386.69,15Zm.41,1.33a2.12,2.12,0,0,0-.43.86c-.07.52.28,1,.31,1.55a1,1,0,0,0,0,.24.16.16,0,0,0,.19.11c.07,0,.1-.07.14-.12.55-.88,1-1.84,1.64-2.67s1.06-1.39,1.56-2.11c1.33-1.9,2.66-3.81,4-5.74.06-.09.12-.19.07-.27s-.13-.1-.22-.12a3.32,3.32,0,0,0-.44-.06,1.4,1.4,0,0,0-.79.14,1.86,1.86,0,0,0-.49.48c-.95,1.23-1.76,2.56-2.68,3.82S388,15,387.1,16.28ZM350.48,17a9.55,9.55,0,0,1,5.66-9.07c3.18-1.33,6.57-.54,9.4,1.21a6.91,6.91,0,0,1,2,1.84,9.85,9.85,0,0,1-1.59,12.72,9.61,9.61,0,0,1-12.21.16,9.18,9.18,0,0,1-3.18-6.12C350.5,17.51,350.49,17.25,350.48,17Zm16.81-2.69c-.06.13-.13.27-.2.4-1.26,2.35-2.77,4.57-4.07,6.89-.25.41-.48.84-.72,1.25a5.35,5.35,0,0,1-.68,1.16c-.08.15-.17.34-.06.48s.31.08.46,0a9,9,0,0,0,5.85-10.22c0-.1,0-.21-.13-.26S367.39,14.15,367.29,14.32Zm-1.37-3.43a.33.33,0,0,0-.21.17c-1.54,2.21-3,4.42-4.49,6.68-.71,1.11-1.39,2.24-2,3.38-.32.56-.63,1.13-.95,1.72-.14.27-.29.58-.45.87s-.34.43-.31.68v.06a.55.55,0,0,0,.28.34,2.33,2.33,0,0,0,.47.14,1.51,1.51,0,0,0,1.11-.08,1.27,1.27,0,0,0,.38-.45c.79-1.26,1.63-2.47,2.39-3.78,1.44-2.27,2.88-4.52,4.27-6.81.34-.56.83-1.22.53-1.89a2.84,2.84,0,0,0-.73-.9A.31.31,0,0,0,365.92,10.89Zm-2.1-1.4c-.1,0-.16.12-.21.19a2,2,0,0,0-.12.19c-2.27,3.43-4.64,6.79-6.94,10.19-.61.91-1.07,1.9-1.63,2.82a.59.59,0,0,0-.09.55.6.6,0,0,0,.3.24c.19.12.4.23.59.34s.17.09.26.06.14-.12.19-.2c.53-1,1.08-2,1.65-2.91s1.16-2,1.8-3c.93-1.37,1.85-2.74,2.78-4.09l1.38-2c.19-.29.35-.61.57-.91a1.53,1.53,0,0,0,.31-.74c0-.37-.31-.59-.61-.74A.46.46,0,0,0,363.82,9.49Zm-2.33-.84a1,1,0,0,0-.71.36c-.38.45-.7,1-1,1.51s-.8,1.13-1.2,1.72c-.77,1.13-1.52,2.27-2.27,3.44s-1.36,2.09-2,3.15c-.33.52-.65,1-1,1.55s-.69.76-.44,1.32a2.51,2.51,0,0,0,.6.7.2.2,0,0,0,.38-.06l.15-.27a94.73,94.73,0,0,1,6.71-10.19c.38-.46.58-1,1-1.46.25-.29.85-.93.74-1.35a.54.54,0,0,0-.26-.23A1.33,1.33,0,0,0,361.49,8.65Zm-4.12,1.14c-.35.54-.71,1.08-1.05,1.62-.69,1.09-1.35,2.21-2.05,3.28s-1.24,1.88-1.93,2.77a2.55,2.55,0,0,0-.6,1.26c0,.24.07,1.24.56.91.19-.13.26-.5.38-.7a10.29,10.29,0,0,1,.61-.86c.28-.38.57-.76.83-1.15.68-1,1.36-2,2-3a10.76,10.76,0,0,0,.92-1.32,15.18,15.18,0,0,0,.91-1.35,19.54,19.54,0,0,1,1.72-2.54c.08-.11.15-.28.06-.38a.25.25,0,0,0-.14-.06l-.1,0a1.75,1.75,0,0,0-1.28.35A3.89,3.89,0,0,0,357.37,9.79ZM351.77,16a.47.47,0,0,0,.13-.11c.82-1.11,1.72-2.17,2.47-3.32.65-1,1.27-2,1.94-3,.07-.1.14-.22.09-.33s-.35-.14-.52-.05a8.7,8.7,0,0,0-4.34,6.29.3.3,0,0,1,0,.1.8.8,0,0,0,0,.31A.21.21,0,0,0,351.77,16Zm-69.71.3c0-4.35,2.52-8.78,6.79-10.14a9.28,9.28,0,0,1,2.63-.43,11.19,11.19,0,0,1,6.33,1.83,8.82,8.82,0,0,1,3.55,6,10.76,10.76,0,0,1-1,7,8.22,8.22,0,0,1-4.62,3.71,14,14,0,0,1-4.94.73C286.25,24.82,282.1,21,282.06,16.32Zm18,.68c-.59.91-1.25,1.78-1.86,2.69-.44.64-.9,1.24-1.3,1.89a9.24,9.24,0,0,0-.52,1,.46.46,0,0,0-.05.3.28.28,0,0,0,.33.17,3.73,3.73,0,0,0,2.06-1.54,9.44,9.44,0,0,0,1.75-4.37c0-.12,0-.28-.1-.33S300.15,16.89,300.07,17Zm-1.15-6.7c-.36.11-.47.85-.6,1.15a13.1,13.1,0,0,1-1.06,1.67c-.71,1.11-1.42,2.24-2.11,3.37-1.41,2.28-2.79,4.56-4.15,6.89a.44.44,0,0,0-.09.45.41.41,0,0,0,.62.14,1.08,1.08,0,0,0,.35-.32,20.87,20.87,0,0,0,1.7-2.37,1,1,0,0,1,.4-.42c.8-.29.24.87.13,1.09a13.39,13.39,0,0,1-1,1.59.44.44,0,0,0-.09.24c.06.4,1.49-.22,1.66-.35a3.11,3.11,0,0,0,.75-.9L298,18.46l2-3.12a3.39,3.39,0,0,0,.51-1.11c0-.21,0-1.12-.28-1.18s-.29.14-.34.31a7.8,7.8,0,0,1-1,1.61c-.4.61-.79,1.21-1.21,1.8-.81,1.14-1.62,2.27-2.36,3.46-.16.26-.44.55-.69.39s-.12-.55,0-.81l2.7-4.19,1.37-2.14a5.29,5.29,0,0,0,1-1.81,2,2,0,0,0-.42-1.18C299.15,10.38,299,10.26,298.92,10.3Zm-1.11-1.52a.45.45,0,0,0-.34.21c-.37.57-.7,1.19-1.09,1.76s-.94,1.34-1.42,2a62.41,62.41,0,0,0-3.69,5.66c-.88,1.5-1.83,3-2.73,4.46a.57.57,0,0,0-.08.53.43.43,0,0,0,.23.21,1.28,1.28,0,0,0,.27.11.8.8,0,0,0,.55,0,.78.78,0,0,0,.27-.32c1.34-2.38,2.83-4.7,4.26-7,.7-1.15,1.47-2.27,2.2-3.38.4-.58.79-1.17,1.18-1.76a6.42,6.42,0,0,0,.9-1.34.82.82,0,0,0-.09-.67C298.17,9.07,298,8.8,297.81,8.78Zm-2-.77a1.84,1.84,0,0,0-.52.52q-2,2.67-3.87,5.41c-1.6,2.33-3.13,4.72-4.72,7a6.35,6.35,0,0,0-.48.83.66.66,0,0,0,0,.55c.17.41.76.86,1.1.44.75-1,1.34-2.08,2-3.11.92-1.41,1.85-2.83,2.78-4.23,1.38-2.1,2.65-4.27,4.19-6.23a1.6,1.6,0,0,0,.35-.57.61.61,0,0,0,0-.3.53.53,0,0,0-.17-.34A.62.62,0,0,0,295.78,8ZM293.7,7a1.31,1.31,0,0,0-.75.66c-1.05,1.69-2.37,3.24-3.56,4.84-1.7,2.3-3.43,4.58-5.05,6.93a1.23,1.23,0,0,0-.29.61,1,1,0,0,0,.76.9.36.36,0,0,0,.3-.08l.1-.08c.8-.86,1.27-2,2-2.84s1.61-2.14,2.38-3.21Q292,11.39,294.26,8a.94.94,0,0,0,.18-.44A.57.57,0,0,0,293.7,7Zm-10.39,7.28c.07,0,.14,0,.19-.11a31.69,31.69,0,0,1,2.29-2.9l2.9-3.46c.09-.11.19-.28.08-.39s-.21,0-.31,0l-.2.08a8.44,8.44,0,0,0-3.1,2.65A8.28,8.28,0,0,0,284.07,12a15.49,15.49,0,0,0-.82,2.08C283.22,14.15,283.21,14.28,283.31,14.31Zm.36,1.69a2.37,2.37,0,0,0-.41,2.12c0,.05.05.12.11.14s.11-.06.14-.11a1.53,1.53,0,0,1,.14-.21c1.15-1.77,2.52-3.39,3.82-5,1.46-1.86,2.9-3.73,4.35-5.58.12-.16.26-.33.22-.52-.11-.67-1.45.21-1.65.42a13.74,13.74,0,0,0-1.33,1.71c-.5.63-1,1.28-1.49,1.89A41.28,41.28,0,0,0,283.67,16Zm35.74-.66a8.6,8.6,0,0,1,8.79-7,7.71,7.71,0,0,1,4.4,1.28,9.63,9.63,0,0,1,2.93,4c.08.21.15.45.21.66a10.85,10.85,0,0,1,0,5.37c-.09.29-.18.58-.29.87a9.34,9.34,0,0,1-5.36,5.39,6.73,6.73,0,0,1-2.85.38,8.94,8.94,0,0,1-5.92-3A9.17,9.17,0,0,1,319.41,15.34Zm15,2c-1.55,2.34-3.49,4.39-5,6.74-.11.16-.48.53-.39.75s.77-.15.94-.26c.34-.23.68-.46,1-.7a11.72,11.72,0,0,0,1.81-1.78,10.86,10.86,0,0,0,2.2-4.6c0-.14,0-.3-.06-.38S334.48,17.19,334.37,17.36Zm-.09-3.9c-.11,0-.19.1-.25.19-.31.44-.61.86-.94,1.26-1.88,2.37-3.53,4.9-5.41,7.26a11.07,11.07,0,0,0-.91,1.25,8,8,0,0,1-.82,1.09c-.11.11-.21.26-.14.4a.47.47,0,0,0,.27.17,1.83,1.83,0,0,0,.86.13c.4-.07.46-.38.63-.67a16.18,16.18,0,0,1,1-1.33A33.64,33.64,0,0,0,331,20c1.08-1.37,2.2-2.73,3.21-4.15a2.32,2.32,0,0,0,.56-1.17c0-.33-.17-.55-.18-.89C334.54,13.65,334.45,13.45,334.28,13.46Zm-1.46-2.23a.26.26,0,0,0-.19.12c-.67.81-1.19,1.75-1.82,2.59l-2,2.72c-1.37,1.84-2.74,3.68-4,5.57-.21.33-1,1.14-.84,1.55a.78.78,0,0,0,.48.44.52.52,0,0,0,.4.07c.25-.11.51-.64.65-.85.31-.42.61-.85.93-1.27.63-.87,1.27-1.75,1.91-2.61s1.51-2,2.29-3c.91-1.19,1.91-2.27,2.72-3.53.05-.08.11-.15.16-.24a.9.9,0,0,0,.16-.41.87.87,0,0,0-.22-.49l-.36-.52A.24.24,0,0,0,332.82,11.23ZM331.1,9.79c-.51-.07-.65.54-.86.86s-.39.5-.59.74c-.38.48-.76,1-1.13,1.46-.74,1-1.48,1.92-2.2,2.89-1.37,1.83-2.73,3.66-4.15,5.44a1.06,1.06,0,0,0-.29.84,1.37,1.37,0,0,0,.46.74.39.39,0,0,0,.34.2.42.42,0,0,0,.25-.22l.15-.21c.34-.49.68-1,1-1.45A27,27,0,0,0,326,18.5c.67-.89,1.35-1.77,2-2.64s1.25-1.75,1.88-2.62c.32-.43.63-.87,1-1.29a7.36,7.36,0,0,1,.71-1.07.59.59,0,0,0,.23-.53A1.26,1.26,0,0,0,331.1,9.79Zm-3.47.59c-2.07,2.58-4.11,5.16-6,7.85a2.86,2.86,0,0,0-.83,1.71c0,.25.18.57.43.5a.82.82,0,0,0,.2-.17,31.91,31.91,0,0,0,2.13-2.64c.72-.88,1.42-1.77,2.11-2.67,1.29-1.63,2.44-3.43,3.86-5a.43.43,0,0,0,.15-.38c-.09-.31-.76-.1-1,0a1.69,1.69,0,0,0-.36.15A3,3,0,0,0,327.63,10.38Zm-6.3,6.14c1.32-1.59,2.53-3.33,4-4.78.2-.22.41-.42.6-.63s.46-.61.27-.85a.66.66,0,0,0-.68-.11,7.43,7.43,0,0,0-5.06,6c-.05.26,0,.6.22.71S321.16,16.72,321.33,16.52Zm97.52-.2c0-4.35,2.52-8.78,6.8-10.14a9.17,9.17,0,0,1,2.63-.43,11.18,11.18,0,0,1,6.32,1.83,8.78,8.78,0,0,1,3.55,6,10.76,10.76,0,0,1-1,7,8.2,8.2,0,0,1-4.61,3.71,14.07,14.07,0,0,1-4.94.73C423,24.82,418.89,21,418.85,16.32Zm18,.68c-.6.91-1.25,1.78-1.87,2.69-.44.64-.9,1.24-1.3,1.89a9.24,9.24,0,0,0-.52,1,.53.53,0,0,0-.05.3.28.28,0,0,0,.33.17,3.7,3.7,0,0,0,2.06-1.54,9.46,9.46,0,0,0,1.76-4.37c0-.12,0-.28-.11-.33S436.94,16.89,436.87,17Zm-1.15-6.7c-.37.11-.48.85-.61,1.15a14.24,14.24,0,0,1-1.05,1.67c-.72,1.11-1.42,2.24-2.11,3.37-1.42,2.28-2.8,4.56-4.16,6.89-.08.13-.17.3-.08.45a.41.41,0,0,0,.62.14,1.34,1.34,0,0,0,.35-.32,22.11,22.11,0,0,0,1.69-2.37,1,1,0,0,1,.4-.42c.8-.29.24.87.14,1.09a16.51,16.51,0,0,1-1,1.59.39.39,0,0,0-.1.24c.06.4,1.49-.22,1.66-.35a2.82,2.82,0,0,0,.75-.9l2.56-4.07,2-3.12a3.19,3.19,0,0,0,.51-1.11c0-.21,0-1.12-.28-1.18s-.29.14-.34.31a7.41,7.41,0,0,1-1,1.61c-.4.61-.78,1.21-1.21,1.8-.81,1.14-1.62,2.27-2.36,3.46-.16.26-.44.55-.69.39s-.12-.55,0-.81c.89-1.4,1.8-2.8,2.7-4.19l1.37-2.14a5.1,5.1,0,0,0,1-1.81,1.9,1.9,0,0,0-.41-1.18C436,10.38,435.84,10.26,435.72,10.3ZM434.6,8.78a.49.49,0,0,0-.34.21c-.36.57-.7,1.19-1.09,1.76s-.93,1.34-1.42,2a64.63,64.63,0,0,0-3.69,5.66c-.87,1.5-1.83,3-2.73,4.46a.63.63,0,0,0-.08.53.47.47,0,0,0,.23.21,1.17,1.17,0,0,0,.28.11.77.77,0,0,0,.54,0,.72.72,0,0,0,.27-.32c1.34-2.38,2.83-4.7,4.26-7,.71-1.15,1.47-2.27,2.21-3.38.4-.58.79-1.17,1.17-1.76a6.42,6.42,0,0,0,.9-1.34.79.79,0,0,0-.09-.67C435,9.07,434.76,8.8,434.6,8.78Zm-14.5,5.53c.07,0,.15,0,.19-.11a33.51,33.51,0,0,1,2.29-2.9l2.9-3.46c.1-.11.19-.28.08-.39s-.2,0-.31,0l-.2.08a8.44,8.44,0,0,0-3.1,2.65A8.68,8.68,0,0,0,420.86,12a15.49,15.49,0,0,0-.82,2.08C420,14.15,420,14.28,420.1,14.31Zm.06,4c.06,0,.11-.06.15-.11a.92.92,0,0,1,.13-.21c1.15-1.77,2.52-3.39,3.83-5,1.45-1.86,2.89-3.73,4.35-5.58a.69.69,0,0,0,.21-.52c-.1-.67-1.45.21-1.64.42a14.84,14.84,0,0,0-1.34,1.71c-.49.63-1,1.28-1.49,1.89a43.31,43.31,0,0,0-3.9,5.18,2.41,2.41,0,0,0-.41,2.12C420.08,18.17,420.1,18.24,420.16,18.26ZM421.6,21a.39.39,0,0,0,.31-.08l.09-.08c.8-.86,1.27-2,2-2.84s1.61-2.14,2.37-3.21q2.39-3.37,4.65-6.81a.85.85,0,0,0,.18-.44c0-.35-.41-.57-.74-.48a1.31,1.31,0,0,0-.75.66c-1.05,1.69-2.37,3.24-3.56,4.84-1.69,2.3-3.43,4.58-5.05,6.93a1.33,1.33,0,0,0-.29.61A1,1,0,0,0,421.6,21ZM423,22.36c.17.41.76.86,1.1.44.75-1,1.35-2.08,2-3.11l2.78-4.23c1.38-2.1,2.65-4.27,4.19-6.23a1.47,1.47,0,0,0,.35-.57.61.61,0,0,0,0-.3.65.65,0,0,0-.17-.34.62.62,0,0,0-.69,0,1.61,1.61,0,0,0-.52.52c-1.32,1.78-2.62,3.58-3.88,5.41-1.6,2.33-3.13,4.72-4.71,7a6.44,6.44,0,0,0-.49.83A.66.66,0,0,0,423,22.36Zm33.24-7A8.94,8.94,0,0,1,460,9.72a8.83,8.83,0,0,1,5-1.34,7.69,7.69,0,0,1,4.4,1.28,9.46,9.46,0,0,1,2.93,4,5.6,5.6,0,0,1,.21.66,10.62,10.62,0,0,1,0,5.37c-.08.29-.18.58-.29.87a9.35,9.35,0,0,1-5.35,5.39,6.77,6.77,0,0,1-2.86.38,8.93,8.93,0,0,1-5.91-3A9.15,9.15,0,0,1,456.2,15.34Zm15,2c-1.55,2.34-3.49,4.39-5,6.74-.11.16-.49.53-.39.75s.76-.15.93-.26c.34-.23.68-.46,1-.7a11.65,11.65,0,0,0,1.8-1.78,11,11,0,0,0,2.21-4.6c0-.14,0-.3-.07-.38S471.27,17.19,471.16,17.36Zm-.08-3.9a.36.36,0,0,0-.26.19c-.3.44-.6.86-.93,1.26-1.89,2.37-3.54,4.9-5.42,7.26a12.47,12.47,0,0,0-.91,1.25,8,8,0,0,1-.82,1.09.36.36,0,0,0-.13.4.48.48,0,0,0,.26.17,1.83,1.83,0,0,0,.86.13c.4-.07.46-.38.63-.67a16.18,16.18,0,0,1,1-1.33A35.56,35.56,0,0,0,467.76,20c1.07-1.37,2.19-2.73,3.21-4.15a2.39,2.39,0,0,0,.55-1.17c0-.33-.17-.55-.18-.89C471.33,13.65,471.25,13.45,471.08,13.46Zm-1.47-2.23a.27.27,0,0,0-.18.12c-.68.81-1.2,1.75-1.83,2.59l-2,2.72c-1.37,1.84-2.73,3.68-4,5.57-.22.33-1,1.14-.85,1.55.06.22.28.34.48.44a.53.53,0,0,0,.4.07c.26-.11.51-.64.66-.85.3-.42.6-.85.92-1.27.63-.87,1.27-1.75,1.91-2.61s1.52-2,2.29-3c.91-1.19,1.92-2.27,2.73-3.53.05-.08.11-.15.16-.24a.89.89,0,0,0,.15-.41.87.87,0,0,0-.22-.49l-.36-.52A.23.23,0,0,0,469.61,11.23Zm-1.72-1.44c-.51-.07-.64.54-.86.86s-.39.5-.58.74c-.39.48-.77,1-1.14,1.46-.74,1-1.48,1.92-2.19,2.89-1.37,1.83-2.74,3.66-4.16,5.44a1.1,1.1,0,0,0-.29.84,1.5,1.5,0,0,0,.46.74c.09.11.21.22.34.2a.42.42,0,0,0,.25-.22l.15-.21c.34-.49.68-1,1-1.45a25.47,25.47,0,0,0,1.93-2.58c.66-.89,1.34-1.77,2-2.64s1.24-1.75,1.87-2.62c.32-.43.63-.87,1-1.29a7.41,7.41,0,0,1,.72-1.07.65.65,0,0,0,.23-.53A1.28,1.28,0,0,0,467.89,9.79Zm-3.47.59c-2.07,2.58-4.1,5.16-6,7.85a2.79,2.79,0,0,0-.82,1.71c0,.25.18.57.42.5a.71.71,0,0,0,.21-.17c.77-.79,1.44-1.77,2.13-2.64s1.42-1.77,2.11-2.67c1.28-1.63,2.43-3.43,3.85-5a.43.43,0,0,0,.16-.38c-.1-.31-.77-.1-1,0a1.94,1.94,0,0,0-.36.15A3,3,0,0,0,464.42,10.38Zm-6.29,6.14c1.32-1.59,2.53-3.33,4-4.78l.61-.63c.23-.24.46-.61.26-.85a.64.64,0,0,0-.67-.11,7.42,7.42,0,0,0-5.07,6c-.05.26,0,.6.22.71S458,16.72,458.13,16.52Z"/></svg>