<?xml version="1.0" encoding="UTF-8"?><svg id="a" xmlns="http://www.w3.org/2000/svg" viewBox="0 0 464.43 36.2"><defs><style>.b{fill:#f57a08;}.c{fill:#d7d284;}.d{fill:#c7874b;}.e{fill:#3e342f;}</style></defs><path class="c" d="M308.47,18.85c.7-.07,1.41-.13,2.12-.14,1.31-.04,2.62,.04,3.91,.22,.08,0,.16,.03,.23,.07,.1,.11,.14,.26,.12,.41,0,.59-.05,1.17-.07,1.76,0,.18-.04,.36-.15,.51-.18,.14-.4,.2-.62,.17-1.8,0-3.6,0-5.41-.06h-.1s-.09,.01-.14,0c-.17-.08-.19-.3-.21-.48,0-.57-.05-1.13-.07-1.7,0-.24-.11-.58,.21-.7l.18-.06Zm47.43,.13c-.06-.01-.12-.01-.18,0-.13,.11-.19,.28-.17,.45-.1,.72,0,1.45,.29,2.11,.18,.18,.44,.27,.69,.23l3.43,.07h1.45c.31,.05,.62-.05,.85-.27,.09-.14,.13-.3,.12-.47,.05-.61,.03-1.23-.08-1.84-.01-.08-.04-.15-.09-.21-.07-.01-.15,0-.22,.03-1.3-.1-2.58-.25-3.87-.29-.75-.04-1.49,.03-2.22,.19Zm70.17-2.27c.03-.09-.01-.19-.09-.25-.05-.02-.09-.02-.14,0-.27,0-.53-.03-.8-.07-.17-.03-.34-.04-.51-.05-.17-.01-.34,.01-.5,.08-.44,.27-.05,.69,.31,.72,.46,.09,.94,.09,1.4,0,.18-.08,.3-.24,.33-.43h0Zm-25.84,2c-.24-.02-.48,.08-.63,.27-.07,.11-.09,.24-.08,.37v.46c-.02,.13,0,.27,.06,.39,.13,.23,.45,.24,.7,.22h.12c1-.06,1.92,0,2.87,0,.31,.04,.62,.04,.93,0,.17-.03,.28-.19,.25-.36h0c0-.32,.13-1.01-.24-1.2-.16-.04-.33-.04-.49,0-.54,0-1.1-.15-1.66-.15s-1.23-.06-1.83-.01h0Zm42.88,.89v.05c0,.14,0,.28,.05,.43,0,.15,.04,.3,.14,.41,.07,.05,.14,.09,.22,.11,.58,.17,1.66,.12,1.61-.66,0-.42-.09-.74-.5-.92-.44-.19-.93-.19-1.37,0-.18,.07-.18,.34-.15,.57h0Zm-180.69-.87c-.24-.02-.47,.08-.62,.27-.07,.11-.09,.24-.08,.37v.46c-.02,.13,0,.27,.06,.39,.13,.23,.45,.24,.7,.22h.12c.95-.06,1.92,0,2.87,0,.31,.04,.61,.04,.92,0,.06-.01,.12-.04,.17-.08,.07-.08,.11-.18,.09-.29,0-.31,.13-1-.24-1.19-.16-.04-.33-.04-.49,0-.54,0-1.1-.15-1.66-.15s-1.27-.06-1.84-.01h0Zm25.85-1.99c.03-.09-.01-.19-.09-.25-.05-.02-.09-.02-.14,0-.27,0-.53-.03-.8-.07-.17-.03-.34-.04-.51-.05-.17-.01-.34,.01-.5,.08-.44,.27-.05,.69,.31,.72,.46,.09,.94,.09,1.4,0,.18-.08,.3-.24,.33-.43h0Zm-117.78,2.16c-.32,.12-.22,.46-.21,.7,0,.57,.05,1.13,.07,1.7,0,.18,0,.4,.21,.48,.05,.01,.09,.01,.14,0h.1c1.81,0,3.61,0,5.41,.06,.22,.03,.44-.03,.62-.17,.1-.15,.15-.33,.15-.51,0-.59,0-1.17,.07-1.76,.02-.15-.02-.3-.12-.41-.07-.04-.15-.07-.23-.07-1.29-.18-2.6-.26-3.91-.22-.71,0-1.42,.07-2.12,.14l-.18,.06Zm47.61,.11c-.06-.01-.12-.01-.18,0-.13,.11-.19,.28-.17,.45-.1,.72,0,1.45,.29,2.11,.18,.18,.44,.27,.69,.23l3.43,.07h1.45c.31,.05,.62-.05,.85-.27,.09-.14,.13-.3,.12-.47,.05-.61,.03-1.23-.08-1.84-.01-.08-.04-.15-.09-.21-.07-.06-.17-.09-.26-.09-1.3-.1-2.58-.25-3.87-.29-.74,0-1.47,.11-2.18,.31Zm-185.67-.11c-.32,.12-.22,.46-.21,.7,0,.57,.05,1.13,.07,1.7,0,.18,0,.4,.21,.48,.05,.01,.09,.01,.14,0h.1c1.8,0,3.61,0,5.41,.06,.22,.03,.44-.03,.62-.17,.1-.15,.15-.33,.15-.51,0-.59,0-1.17,.07-1.76,.02-.15-.02-.3-.12-.41-.07-.04-.15-.07-.23-.07-1.29-.18-2.6-.26-3.91-.22-.71,0-1.42,.07-2.12,.14l-.18,.06Zm117.78-2.16c.03-.09-.01-.19-.09-.25-.05-.02-.09-.02-.14,0-.27,0-.53-.03-.8-.07-.17-.03-.34-.04-.51-.05-.17-.01-.34,.01-.5,.08-.45,.27-.05,.69,.31,.72,.46,.08,.94,.08,1.4,0,.18-.08,.3-.24,.33-.43Zm-25.85,2c-.24-.02-.47,.09-.63,.27-.06,.11-.08,.24-.07,.37v.46c-.02,.13,0,.27,.06,.39,.13,.23,.45,.24,.7,.22h.12c.95-.06,1.92,0,2.87,0,.31,.04,.61,.04,.92,0,.06-.01,.12-.04,.17-.08,.07-.08,.11-.18,.09-.29,0-.31,.13-1-.24-1.19-.16-.04-.33-.04-.49,0-.54,0-1.1-.15-1.66-.15s-1.21-.06-1.84-.01h0Zm-44.32,.29c-.06-.01-.12-.01-.18,0-.15,.08-.17,.28-.17,.45-.1,.73,0,1.47,.3,2.15,.18,.18,.44,.27,.69,.23l3.43,.07h1.45c.31,.05,.62-.05,.85-.27,.09-.14,.13-.3,.12-.47,.05-.61,.02-1.23-.08-1.84-.01-.08-.04-.15-.09-.21-.08-.06-.17-.09-.27-.09-1.29-.1-2.57-.25-3.86-.29-.74-.01-1.47,.08-2.19,.26h0Z"/><path class="b" d="M455.68,30.5h.08l-.19,.62c-.44-.05-.89-.05-1.33,0h-2.24c-1.47,0-2.92,.1-4.39,.16-1.31,.06-2.64,.24-4,.17s-2.9,.09-4.37,.12-3,0-4.47,0c-.66,0-1.32,.06-2,0s-1.55,0-1.87-.51c-.16-.57-.21-1.18-.14-1.77,0-.76-.1-1.53-.14-2.31-.09-1.51-.17-3-.19-4.54v-2c0-.48-.23-1.2,.13-1.59,.21-.2,.5-.3,.79-.29,.58-.14,1.2-.1,1.76,.11,.55,.36,.49,1.15,.51,1.71,.07,2,.16,4,.23,5.94-.01,.35,.07,.69,.24,1,.35,.48,.9,.43,1.42,.43,.74,0,1.49,.05,2.23,.07h.75c1.24,0,2.5-.07,3.75,0,2.74,.13,5.51-.19,8.26-.33,1.18,0,1.59-.38,1.62-1.55,0-1.38,0-2.76-.05-4.14v-2.56c-.02-.18,.02-.36,.12-.51,.25-.28,1-.27,1.38-.27,.5,0,1-.11,1.22,.49,.26,1.06,.39,2.14,.37,3.23,.06,1.27,.09,2.54,.13,3.83,0,.93,.09,1.87,.05,2.82,.11,.47-.24,1.5,.34,1.67Zm-67.76-13.68c.06-.13,.07-.26,.05-.4-.06-.55-.11-1.11-.17-1.66,0-.1-.03-.19-.1-.26-.05-.04-.12-.07-.19-.06-4.45-.3-8.91-.27-13.35,.07-.08-.02-.15-.02-.23,0-.53,.24-.53,2.85,.05,3,.14,.02,.29,.02,.43,0,.6,0,1.21-.06,1.81-.09,.23,0,.51-.05,.61-.27,.05-.15,.05-.31,0-.46-.06-.27-.06-.56,0-.83,.01-.08,.05-.15,.11-.21,.06-.02,.13-.02,.19,0l7.06-.29c.45,0,1,0,1.15,.46,.05,.2,.05,.41,0,.61-.02,.2,.04,.4,.16,.56,.21,.24,.75,.13,1,.12s1.26,.02,1.42-.29Zm-46.83,.11c.07-.33,.07-.67,0-1v-1.36c0-.15-.02-.3-.08-.44-.2-.26-.52-.4-.85-.36-2-.13-4-.11-6-.07l-6,.08c-.47,0-1.05,.09-1.23,.54-.06,.15-.09,.32-.07,.49v1.47c0,.22,0,.6,.15,.77,.15,.12,.34,.17,.53,.14,.61-.03,1.21-.03,1.82,0,.58,0,.71-.07,.64-.69,0-.2-.05-.42-.08-.63-.03-.1-.03-.22,0-.32,.19-.44,1.26-.34,1.62-.37l2.15-.08c1.42-.05,2.85,0,4.29,0,.13-.02,.26,.02,.36,.11,.05,.09,.08,.19,.07,.29l.09,1.53c0,.08,.03,.15,.08,.21,.05,.02,.12,.02,.17,0,.62,.08,2.03,.41,2.34-.31h0Zm1.43,17.51l8-.09,3.56-.05h.57c6.16-.08,12.31-.13,18.45-.29,1.18,.05,2.37,.02,3.55-.07,.87-.12,1.38-.37,1.42-1.29,0-.75-.04-1.5-.14-2.25-.07-1.23-.2-2.46-.3-3.69s-.25-2.42-.32-3.62,0-2.32-.13-3.46c0-.1-.03-.19-.09-.27-.34-.42-1.73,0-2.19,0-.62,0-.91,.36-.82,1,.29,2.78,.39,5.57,.31,8.36,.03,.26-.02,.52-.15,.75-.28,.27-.68,.39-1.07,.32-3.05,0-6.1,.2-9.14,.25s-6.29,.08-9.44,.12h-10.19c-.71,0-1.94-.08-2.4-.69-.23-.42-.32-.9-.26-1.37,.09-2.75-.02-5.5-.31-8.23-.1-.9-.9-.88-1.65-.83-.39,0-.86-.1-1,.35-.08,.2-.12,.42-.1,.64,0,2.1,.23,4.19,.21,6.3,0,1.49,.14,3,.08,4.48-.06,1.32,.22,2.65,.16,4v.17h2.4c0-.1,.05-.19,.13-.25,.24-.2,.55-.3,.86-.29h0Zm-15.73-15.22c-.29,.35-.1,1.07-.08,1.49v9.62c.04,.25-.04,.49-.2,.68-.13,.09-.3,.14-.46,.14-2.06,.21-4.15,.23-6.22,.24h-2.72l-9.34,.06h-4.78c-1.43,0-2.87,.12-4.27,.07h-.8c-.76,.03-1.41-.53-1.51-1.28-.14-.81-.19-1.63-.13-2.45,0-.95-.07-1.9-.16-2.84-.21-1.89-.3-3.8-.26-5.7,.01-.12,0-.25-.05-.36-.02-.05-.05-.1-.1-.13-.09-.07-.19-.11-.3-.12h-1.69c-.28-.01-.56,.08-.79,.25-.22,.28-.29,.65-.2,1,.09,1.23,.06,2.47,.13,3.71s.24,2.71,.24,4.05c-.04,2.2,.08,4.4,.35,6.59-.02,.37,.27,.68,.64,.7,.04,0,.09,0,.13,0h1.12c3.15,.09,6.29,.16,9.43,.2,3,0,6.1-.08,9.13,0,.8,0,1.61,0,2.41-.05l7.44-.29,3.68-.13,1.89-.07c.31,0,1,0,1.15-.28,.08-.17,.11-.35,.1-.53,0-2.26-.06-4.51-.13-6.76s-.24-4.53-.22-6.77c.03-.3,0-.61-.12-.89-.24-.44-1-.41-1.44-.44s-1.47-.2-1.87,.3Zm92.85-2.14c.23,.02,.46-.07,.62-.23,.09-.15,.13-.32,.12-.5,0-.66,0-1.32,.06-2-.03-.24,.04-.49,.21-.67,.09-.05,.2-.09,.3-.11,1.11-.2,2.24-.25,3.36-.17,1.67,.08,3.36,.14,5,.21,.34,0,.94,0,.94,.46s-.05,1.15,0,1.72c0,.23,0,.88,.21,1,.06,.04,.14,.06,.21,.05,.52,0,1-.06,1.56-.06,.24,0,.48-.03,.72-.08,.14-.02,.27-.09,.35-.2,.07-.13,.1-.28,.08-.43,0-1.12-.05-2.23-.05-3.35,.05-.37,0-.75-.14-1.1-.11-.21-.3-.36-.52-.44-.2-.06-.42-.1-.63-.11-4.05-.22-8-.24-12.09-.18-1,0-1.94,0-2.9,.06l-1.25,.13c-.16,0-.32,.05-.45,.15-.07,.12-.11,.26-.1,.4v2.45c-.08,.95,0,1.91,.25,2.84,0,.07,0,.16,.12,.2,.07,.04,.14,.05,.22,.05,1.27,.04,2.54,0,3.8-.09Zm-216.35-.15c.07-.33,.07-.67,0-1v-1.36c0-.15-.02-.3-.08-.44-.2-.26-.52-.4-.85-.36-2-.13-4-.11-6-.07l-6,.08c-.47,0-1,.09-1.24,.54-.06,.16-.08,.32-.06,.49v1.47c0,.22,0,.6,.15,.77,.15,.12,.34,.17,.53,.14,.61-.03,1.21-.03,1.82,0,.58,0,.71-.07,.64-.69,0-.2,0-.42-.08-.63-.03-.1-.03-.22,0-.32,.19-.44,1.26-.34,1.62-.37l2.14-.08c1.43-.05,2.86,0,4.3,0,.13-.02,.26,.02,.36,.11,.05,.09,.08,.19,.07,.29l.09,1.53c0,.08,.03,.15,.08,.21,.05,.02,.12,.02,.17,0,.62,.08,2.04,.41,2.34-.31Zm78.55,.16c.35,.06,.68-.17,.74-.52,.01-.07,.01-.14,0-.21,0-.66,0-1.32,.06-2-.03-.24,.04-.49,.21-.67,.09-.05,.2-.09,.3-.11,1.11-.2,2.24-.25,3.36-.17,1.67,.08,3.36,.14,5,.21,.34,0,.94,0,.94,.46s-.05,1.15,0,1.72c0,.23,0,.88,.21,1,.06,.04,.14,.06,.21,.05,.52,0,1-.06,1.56-.06,.24,0,.48-.03,.72-.08,.14-.02,.27-.09,.35-.2,.07-.13,.1-.28,.08-.43v-3.35c.05-.37,0-.75-.14-1.1-.11-.21-.3-.36-.52-.44-.2-.06-.42-.1-.63-.11-4.05-.22-8-.24-12.09-.18-1,0-1.94,0-2.9,.06l-1.31,.12c-.16,0-.32,.05-.45,.15-.07,.12-.11,.26-.1,.4v2.45c-.08,.95,0,1.91,.25,2.84,0,.07,.05,.16,.12,.2,.07,.04,.14,.05,.22,.05,1.27,.04,2.54,0,3.81-.09h0Zm-77.12,17.36l8-.09,3.56-.05h.57c6.15-.08,12.31-.13,18.45-.29,1.18,.05,2.36,.02,3.54-.07,.88-.12,1.39-.37,1.43-1.29,0-.75-.04-1.5-.14-2.25-.07-1.23-.2-2.46-.3-3.69s-.25-2.42-.32-3.62,0-2.32-.13-3.46c0-.1-.03-.19-.09-.27-.34-.42-1.73,0-2.19,0-.62,0-.91,.36-.82,1,.29,2.78,.39,5.57,.31,8.36,.03,.26-.02,.53-.16,.75-.28,.27-.68,.39-1.06,.32-3.05,0-6.1,.2-9.14,.25s-6.29,.08-9.44,.12h-10.19c-.71,0-1.94-.08-2.4-.69-.23-.42-.32-.9-.26-1.37,.09-2.75-.02-5.5-.31-8.23-.1-.9-.9-.88-1.65-.83-.39,0-.86-.1-1,.35-.08,.2-.12,.42-.1,.64,0,2.1,.23,4.19,.21,6.3,0,1.49,.14,3,.08,4.48-.06,1.32,.22,2.65,.16,4v.17h2.4c0-.1,.05-.19,.13-.25,.24-.2,.55-.3,.86-.29Zm-15.73-15.22c-.29,.35-.1,1.07-.08,1.49v9.62c.04,.25-.04,.49-.2,.68-.13,.09-.3,.14-.46,.14-2.06,.21-4.15,.23-6.22,.24h-2.72l-9.32,.09h-4.71c-1.43,0-2.87,.12-4.27,.07h-.8c-.76,.03-1.41-.53-1.51-1.28-.14-.81-.19-1.63-.13-2.45,0-.95-.07-1.9-.16-2.84-.21-1.89-.3-3.8-.26-5.7,.01-.12,0-.25-.05-.36-.02-.05-.06-.1-.1-.13-.1-.07-.21-.12-.33-.13h-1.63c-.28-.01-.56,.08-.79,.25-.22,.28-.29,.65-.2,1,.09,1.23,.06,2.47,.13,3.71s.24,2.71,.24,4.05c-.04,2.2,.08,4.4,.35,6.59-.02,.37,.27,.68,.64,.7,.04,0,.09,0,.13,0h1.12c3.15,.09,6.29,.16,9.42,.2,3,0,6.11-.08,9.14,0,.79,0,1.61,0,2.41-.05l7.36-.32,3.68-.13,1.89-.07c.31,0,1,0,1.15-.28,.08-.17,.11-.35,.1-.53,0-2.26-.06-4.51-.13-6.76s-.24-4.53-.22-6.77c.03-.3,0-.61-.12-.89-.24-.44-1-.41-1.44-.44s-1.51-.19-1.91,.31Zm61.13-2.4c.06-.13,.07-.26,.05-.4-.06-.55-.11-1.11-.17-1.66,0-.1-.03-.19-.1-.26-.05-.04-.12-.06-.19-.06-4.45-.3-8.91-.27-13.35,.07-.08-.02-.15-.02-.23,0-.53,.24-.53,2.85,.05,3,.14,.02,.29,.02,.43,0,.6,0,1.21-.06,1.81-.09,.23,0,.51-.05,.61-.27,.05-.15,.05-.31,0-.46-.06-.27-.06-.56,0-.83,.01-.08,.05-.15,.11-.21,.06-.02,.13-.02,.19,0l7.06-.29c.45,0,1,0,1.15,.46,.05,.2,.05,.41,0,.61-.02,.2,.04,.4,.16,.56,.21,.24,.75,.13,1,.12s1.29,.02,1.42-.29Zm-106.34,.26c.23,.01,.45-.07,.61-.23,.1-.15,.14-.32,.13-.5,0-.66,0-1.32,.06-2-.03-.24,.04-.49,.21-.67,.09-.05,.19-.09,.29-.11,1.11-.2,2.24-.25,3.37-.17,1.67,.08,3.36,.14,5,.21,.34,0,.94,0,.94,.46s-.05,1.15,0,1.72c0,.23,0,.88,.21,1,.06,.04,.14,.06,.21,.05,.52,0,1-.06,1.56-.06,.24,0,.48-.03,.72-.08,.14-.02,.27-.09,.35-.2,.07-.13,.1-.28,.08-.43,0-1.12-.05-2.23-.05-3.35,.05-.37,0-.75-.14-1.1-.11-.21-.3-.36-.52-.44-.2-.06-.42-.1-.63-.11-4.05-.22-8-.24-12.09-.18-1,0-1.94,0-2.9,.06l-1.2,.13c-.16,0-.32,.05-.45,.15-.08,.12-.11,.26-.1,.4v2.45c-.08,.95,0,1.91,.25,2.84,0,.07,0,.16,.12,.2,.07,.04,.14,.05,.22,.05,1.25,.04,2.5,0,3.75-.09Zm-92.85,2.14c-.29,.35-.1,1.07-.09,1.49v9.62c.04,.25-.04,.5-.21,.68-.13,.1-.3,.15-.46,.14-2,.21-4.14,.23-6.21,.24h-2.72l-9.34,.06h-4.73c-1.43,0-2.87,.12-4.28,.07h-.79c-.76,.03-1.41-.53-1.51-1.28-.14-.81-.19-1.63-.13-2.45,0-.95-.07-1.9-.16-2.84-.21-1.89-.3-3.8-.26-5.7,.01-.12,0-.25-.05-.36-.02-.05-.06-.1-.1-.13-.21-.13-.45-.18-.69-.14l-1.27,.07c-.28-.01-.56,.08-.79,.25-.22,.28-.29,.65-.2,1,.09,1.23,.06,2.47,.13,3.71s.24,2.71,.24,4.05c-.04,2.2,.08,4.4,.35,6.59-.02,.37,.27,.68,.64,.7,.04,0,.09,0,.13,0h1.12c3.15,.09,6.29,.16,9.42,.2,3,0,6.11-.08,9.14,0,.79,0,1.61,0,2.4-.05l7.48-.35,3.68-.13,1.89-.07c.31,0,1,0,1.15-.28,.08-.17,.11-.35,.1-.53,0-2.26-.06-4.51-.13-6.76s-.24-4.53-.22-6.77c.03-.3,0-.61-.12-.89-.24-.44-1-.41-1.44-.44s-1.57-.19-1.97,.31Zm15.73,15.22l8-.09,3.56-.05h.57c6.15-.08,12.31-.13,18.45-.29,1.18,.05,2.36,.02,3.54-.07,.88-.12,1.38-.37,1.43-1.29,0-.75-.04-1.5-.14-2.25-.07-1.23-.2-2.46-.3-3.69s-.25-2.42-.32-3.62,0-2.32-.13-3.46c0-.1-.04-.19-.09-.27-.34-.42-1.73,0-2.19,0-.62,0-.91,.36-.82,1,.29,2.78,.39,5.57,.31,8.36,.03,.26-.02,.53-.16,.75-.28,.27-.68,.39-1.06,.32-3,0-6.1,.2-9.14,.25s-6.29,.08-9.44,.12h-10.19c-.71,0-1.94-.08-2.4-.69-.24-.42-.34-.91-.27-1.39,.09-2.75-.02-5.5-.31-8.23-.1-.9-.9-.88-1.65-.83-.39,0-.86-.1-1.05,.35-.08,.2-.12,.42-.1,.64,0,2.1,.23,4.19,.21,6.3,0,1.49,.14,3,.08,4.48-.06,1.32,.22,2.65,.16,4v.17h2.39c.01-.1,.06-.19,.14-.25,.26-.21,.59-.3,.92-.27Zm-1.43-17.51c.07-.33,.07-.67,0-1v-1.36c0-.15-.02-.3-.08-.44-.2-.26-.52-.4-.85-.36-2-.13-4-.11-6-.07l-6,.08c-.47,0-1,.09-1.24,.54-.06,.16-.08,.32-.06,.49v1.47c0,.22,0,.6,.15,.77,.15,.12,.34,.17,.53,.14,.6-.03,1.21-.03,1.81,0,.59,0,.72-.07,.65-.69,0-.2,0-.42-.08-.63-.03-.1-.03-.22,0-.32,.19-.44,1.26-.34,1.62-.37l2.14-.08c1.43-.05,2.86,0,4.3,0,.13-.02,.25,.02,.35,.11,.06,.08,.09,.19,.08,.29l.11,1.58c0,.08,.03,.15,.08,.21,.05,.02,.12,.02,.17,0,.6,.03,2.01,.36,2.32-.36Zm46.83-.11c.06-.13,.07-.26,.05-.4-.06-.55-.11-1.11-.17-1.66,0-.1-.03-.19-.1-.26-.05-.04-.12-.06-.19-.06-4.45-.3-8.91-.27-13.35,.07-.08-.02-.15-.02-.23,0-.53,.24-.53,2.85,0,3,.14,.02,.29,.02,.43,0,.6,0,1.21-.06,1.81-.09,.23,0,.51-.05,.61-.27,.05-.15,.05-.31,0-.46-.06-.27-.06-.56,0-.83,.01-.08,.05-.15,.11-.21,.06-.02,.13-.02,.19,0l7.06-.29c.45,0,1,0,1.15,.46,.05,.2,.05,.41,0,.61-.02,.2,.04,.4,.16,.56,.21,.24,.75,.13,1,.12s1.31,.02,1.47-.29Z"/><path class="d" d="M421.09,18.66c.18,.01,.37,.01,.55,0v1.89c-.19,.01-.36,.13-.45,.3-.08,.24-.1,.5-.05,.75,.23,2.75,.23,5.51,0,8.26-.06,.46-.08,.93-.08,1.4,.05,.35,.25,.62-.14,.91-.3,.19-.65,.27-1,.24l-12.34,.49c-.91,0-1.8,.06-2.71,.09l-7.23,.27-3.57,.13h-2.73c-1.15-.05-2.3,0-3.45,0-.28,0-1.27,.07-1.46-.19-.63-.4-.34-1.72-.37-2.34-.06-1.22-.15-2.45-.23-3.67-.15-2.46-.31-4.91-.46-7.36-.03-.2,0-.39,.06-.58,.2-.43,1.29-.4,1.69-.37,.38-.02,.75,.13,1,.41,.11,.26,.18,.53,.18,.81,.14,2.61,.36,5.24,.35,7.83,0,.64,.25,.95,.92,1,1.51,.09,3,.19,4.49,.13,.19,.01,.39-.02,.57-.09,.58-.26,.18-.66-.28-.64-1.23,.07-2.46,.07-3.69,0-.32,.03-.64-.1-.85-.35-.19-.53-.26-1.1-.19-1.66-.05-.67-.09-1.36-.12-2.07-.09-1.38-.17-2.77-.24-4.15-.04-.24-.01-.48,.07-.71,.26-.54,1.27-.46,1.74-.47s1.12-.07,1.67-.06,.79,.41,.79,1c0,.91,.06,1.82,.17,2.73,0,.35,.15,.68,.4,.92,.23,.14,.49,.2,.75,.19,2.27,.11,4.53,.17,6.79,.16,1,0,2-.13,3-.17s2,.07,3,0c2.06-.08,2.32-.4,2.36-2.51,0-1-.47-2.59,.82-2.76,.79-.01,1.58,.05,2.35,.2,.59,.06,.85,.38,.94,1,.23,2.09,.31,4.2,.24,6.31,0,.38,0,1.15-.35,1.41-.18,.1-.38,.15-.58,.16-.74,.11-1.49,.2-2.24,.24s-1.32,0-2,0c-3.65-.05-7.32,.03-11,.22-.21,0-.42,.02-.63,.07-.1,.02-.19,.07-.25,.15-.07,.16-.02,.34,.13,.43,.15,.08,.31,.12,.48,.11,1.37,.07,2.74,.13,4.11,.15,1,0,2.07,0,3.1-.05l4.57-.11c1.78,0,3.56-.09,5.32-.25,.23,.01,.45-.07,.61-.24,.09-.16,.13-.35,.11-.53v-1.45c0-1.89-.08-3.78-.13-5.67,0-.4-.06-.79,0-1.2-.01-.16,.02-.32,.11-.45,.16-.13,.36-.2,.56-.18,1.59-.02,3.22-.17,4.82-.08Zm-7.65-1.64h.11c.13,0,.25,0,.32-.16,.07-.1,.1-.22,.08-.34v-6.12c-.02-.11,0-.22,.04-.32,.14-.16,.36-.24,.57-.21h9.87c2.29,0,4.58,0,6.88,.06,.89,0,1.79,.08,2.69,.11,.11,0,.22,.03,.32,.08,.16,.15,.23,.37,.2,.58,0,1.93,.09,3.87,.26,5.8,0,.14,.05,.28,.15,.39,.11,.06,.24,.09,.36,.07l1.29-.07c.27,0,.67,.07,.94,0,.47-.1,1-.06,1.14-.65,.06-.43,.03-.87-.09-1.28-.13-1.4-.1-2.8,.09-4.19,.05-.93,.02-1.86-.09-2.79-.01-.28-.09-.54-.24-.78-.39-.4-.94-.59-1.49-.52h-8.89c-5.49,0-11,.06-16.49-.25-.62,0-1.37,0-1.67,.52-.13,.25-.18,.53-.16,.81v7.44c0,.45-.14,1.49,.4,1.71,.18,.04,.37,.04,.55,0,.46,0,.88,.17,1.32,.19s1.09-.08,1.54-.08Zm-44.4,2.26c-.17,.15-.27,.35-.28,.57-.02,.19-.02,.38,0,.57,.09,1.08,0,2.14,0,3.22,.04,.59-.06,1.19-.28,1.74-.32,.66-.83,.6-1.47,.66-.78,.12-1.56,.17-2.35,.14-.83-.1-1.67-.1-2.52-.1l-12.95-.09c-.35,.04-.71-.04-1-.25-.24-.28-.37-.63-.36-1-.08-1-.16-2-.25-3,0-.51-.07-1-.06-1.51,.04-.29,0-.6-.11-.87-.18-.35-.66-.31-1-.37-.53-.07-1.07-.07-1.6,0-.51,.05-1.83-.12-2.12,.4-.11,.26-.15,.54-.11,.81l.18,3.13c.08,1.34,.15,2.67,.22,4-.02,.43,.1,.85,.34,1.2,.48,.4,1.12,.58,1.74,.49,.94,0,1.82,.12,2.77,.11l3-.05,6-.1h1.33c1.26,0,2.5-.05,3.76,0,1.67,.04,3.34-.01,5-.16,1.85-.16,3.7-.05,5.54-.16,.25,.01,.49-.08,.66-.25,.08-.14,.11-.31,.09-.47,0-2.16,0-4.36-.13-6.52-.14-2,0-2.41-2.46-2.26-.54-.08-1.19-.18-1.58,.12h0Zm-70.36-.63c-.7,0-1.24,0-1.3,.83-.23,3,.38,6.1,.18,9.14-.06,.38-.03,.76,.09,1.12,.26,.59,1.09,.63,1.64,.65,3.15,.06,6.3,.09,9.43,.11s6.3,0,9.44,0h4.72c.8,0,2.95,.17,2.94-1,0-3.1-.07-6.2-.1-9.3,0-.39,0-.74-.29-1-.04-.04-.09-.07-.14-.08-.65-.19-1.33-.25-2-.17-.51-.04-1.01-.04-1.52,0-.88,.1-.84,.56-.85,1.36s.07,1.84,.11,2.76c0,.65,.36,2.44-.26,2.86-.31,.17-.65,.23-1,.19h-1.13l-6.54,.06h-2.35c-.41,0-.82-.08-1.23-.09-.6,0-1.19,.07-1.78,.1s-1.34,0-2,0h-1.61c-1.07,0-1.3-.77-1.33-1.71-.08-1.51-.13-3-.19-4.53s-1.8-1.29-2.93-1.3Zm136.11,.3c-.07,.15-.09,.32-.06,.49,.06,2.18,.12,4.36,.19,6.54,0,.19,.02,.38,.09,.56,.27,.67,1.51,.43,2.13,.44h6.63c1.32,0,2.65,0,4-.09,.66,0,1.32-.08,2-.14s1.19,0,1.43-.6c.07-.24,.1-.5,.11-.75,.07-1.77,.09-3.53,.11-5.3,.03-.33,0-.67-.06-1-.1-.27-.44-.32-.72-.32h-1.27c-.69,0-.55,1.21-.55,1.64v2.67c0,.52,0,1-.52,1.15-.83,.16-1.68,.2-2.52,.1l-5.69,.07c-.26,.03-.52-.03-.74-.18-.42-.39-.2-1.37-.21-1.89l-.15-2.74c0-.17-.02-.34-.08-.5-.19-.48-.89-.44-1.32-.45s-2.23-.16-2.69,.2c-.05,.02-.09,.05-.11,.1Zm-62.87-1.38c.18,0,.36-.07,.5-.19,.28-.27,.12-.73,.1-1.05,0-.65-.35-2.62,.52-2.85h3.38l11.78-.13c.24-.03,.47,.04,.65,.2,.1,.14,.14,.31,.13,.48,0,.88,.09,1.73,.13,2.61,0,.13,.03,.26,.1,.37,.16,.14,.37,.21,.58,.17l3-.07c.95,0,.62-1.24,.61-1.91s0-1.28,0-1.91c0-.87,.46-2.74-.85-2.74h-22.83c-.19-.02-.38,.01-.55,.09-.39,.19-.46,.7-.47,1.12-.06,1.63,.07,3.23,.07,4.85,0,.64,.4,.91,1,.92,.71,.07,1.43,.08,2.15,.04Zm-46.27-.69c.09-.22,.13-.47,.1-.71,0-.85-.05-1.7-.07-2.54,0-.4,0-.91,.4-1.06,.1-.04,.2-.06,.31-.06,1.22-.07,2.43,0,3.66-.06,.6,0,1.21-.11,1.81-.14,1.94-.1,3.88-.06,5.82,.11l3.68,.23c.27-.02,.54,.07,.74,.25,.12,.19,.17,.42,.15,.64,0,.86,0,1.72,.05,2.58,0,.55,.06,.92,.4,1.08,.17,.07,.34,.09,.52,.07,.35-.02,.71-.02,1.06,0h.93c.77,0,1.54,.27,1.74-.71,.07-.67,.05-1.34-.06-2,0-1.6-.09-3.2-.13-4.8,.02-.09,.02-.19,0-.28-.1-.24-.4-.31-.66-.34-4.16-.52-8.36-.07-12.54,0-3.84,.06-7.68-.18-11.52-.15-.33-.04-.67,.05-.94,.25-.18,.22-.29,.49-.29,.78-.18,2.04-.23,4.09-.13,6.13,0,.56,.29,1,.9,1h2.41c.44,.02,1.41,.23,1.66-.27Zm-164.77,1.77c-.7,0-1.24,0-1.31,.83-.23,3,.39,6.1,.19,9.14-.06,.38-.03,.76,.09,1.12,.26,.59,1.09,.63,1.64,.65,3.15,.06,6.3,.09,9.43,.11s6.3,0,9.44,0h4.72c.8,0,2.95,.17,2.94-1-.04-3.1-.07-6.2-.1-9.3,0-.39,0-.74-.29-1-.04-.04-.09-.07-.14-.08-.65-.19-1.33-.25-2-.17-.51-.04-1.01-.04-1.52,0-.88,.1-.84,.56-.85,1.36s.07,1.84,.11,2.76c0,.65,.36,2.44-.26,2.86-.31,.17-.65,.23-1,.19h-1.13l-6.54,.06h-2.35c-.41,0-.82-.08-1.23-.09-.6,0-1.19,.07-1.78,.1s-1.34,0-2,0h-1.61c-1.07,0-1.3-.77-1.33-1.71-.08-1.51-.13-3-.19-4.53s-1.82-1.29-2.93-1.3Zm73.24-1.08c.18,0,.36-.07,.5-.19,.28-.27,.12-.73,.1-1.05,0-.65-.35-2.62,.52-2.85h3.38l11.78-.13c.24-.03,.47,.04,.65,.2,.1,.14,.14,.31,.12,.48,0,.88,.1,1.73,.14,2.61,0,.13,.03,.26,.09,.37,.18,.11,.39,.13,.59,.07l3-.07c.95,0,.62-1.24,.61-1.91s0-1.28,0-1.91c0-.87,.46-2.74-.85-2.74h-22.83c-.19-.02-.38,.01-.55,.09-.39,.19-.46,.7-.47,1.12-.06,1.63,.07,3.23,.07,4.85,0,.64,.4,.91,1,.92,.71,.1,1.43,.15,2.15,.14Zm37.87-10.64c-.13,.25-.18,.53-.16,.81v7.44c0,.45-.14,1.49,.4,1.71,.18,.04,.37,.04,.55,0,.46,0,.88,.17,1.32,.19s1-.05,1.49-.05h.11c.13,0,.25,0,.32-.16,.07-.1,.1-.22,.08-.34-.05-2,0-4.07,0-6.12-.01-.11,.01-.22,.06-.32,.14-.16,.36-.24,.57-.21h9.87c2.29,0,4.58,0,6.88,.06,.89,0,1.79,.08,2.69,.11,.11,0,.22,.03,.32,.08,.16,.15,.23,.37,.2,.58,0,1.93,.09,3.87,.26,5.8,0,.14,.05,.28,.15,.39,.11,.06,.24,.09,.36,.07l1.29-.07c.27,0,.67,.07,.94,0,.47-.1,1-.06,1.14-.65,.06-.43,.03-.87-.09-1.28-.13-1.4-.1-2.8,.09-4.19,.05-.93,.02-1.86-.09-2.79-.01-.28-.09-.54-.24-.78-.39-.4-.94-.59-1.49-.52h-8.89c-5.49,0-11,.06-16.49-.25-.55-.07-1.3-.04-1.64,.49Zm-84.18,10c.09-.22,.13-.47,.1-.71l-.07-2.54c0-.4,0-.91,.4-1.06,.1-.04,.2-.06,.31-.06,1.22-.07,2.43,0,3.66-.06,.6,0,1.21-.11,1.81-.14,1.94-.1,3.88-.06,5.82,.11l3.68,.23c.27-.02,.54,.07,.74,.25,.12,.19,.17,.42,.15,.64v2.58c0,.55,.06,.92,.4,1.08,.17,.07,.34,.09,.52,.07,.35-.02,.71-.02,1.06,0h.93c.77,0,1.54,.27,1.74-.71,.07-.67,.05-1.34-.06-2,0-1.6-.09-3.2-.13-4.8,0-.1-.02-.19-.05-.28-.1-.24-.4-.31-.67-.34-4.15-.52-8.35-.07-12.53,0-3.84,.06-7.68-.18-11.52-.15-.33-.04-.67,.05-.94,.25-.18,.22-.29,.49-.29,.78-.18,2.04-.23,4.09-.13,6.13,0,.56,.29,1,.9,1h2.44c.55-.03,1.52,.18,1.77-.32l-.04,.05Zm43.39,2.4c-.17,.15-.27,.35-.28,.57-.02,.19-.02,.38,0,.57,.09,1.08,0,2.14,0,3.22,.04,.59-.06,1.19-.28,1.74-.32,.66-.83,.6-1.47,.66-.78,.12-1.56,.17-2.35,.14-.83-.15-1.63-.15-2.48-.15l-12.95-.09c-.35,.04-.71-.04-1-.25-.24-.28-.37-.63-.36-1-.08-1-.16-2-.25-3,0-.51-.07-1-.06-1.51,.04-.29,0-.6-.11-.87-.18-.35-.66-.31-1-.37-.53-.07-1.07-.07-1.6,0-.51,.05-1.83-.12-2.12,.4-.11,.26-.15,.54-.11,.81l.21,3.08c.08,1.34,.15,2.67,.22,4-.02,.43,.1,.85,.34,1.2,.48,.4,1.12,.58,1.74,.49,.94,0,1.82,.12,2.77,.11l3-.05,6-.1h1.34c1.26,0,2.5-.05,3.76,0,1.67,.04,3.34-.01,5-.16,1.85-.16,3.7-.05,5.54-.16,.25,.01,.48-.08,.66-.25,.08-.14,.11-.31,.09-.47,0-2.16,0-4.36-.13-6.52-.15-2,0-2.41-2.46-2.26-.58-.03-1.23-.13-1.62,.17l-.04,.05Zm47.22-.51c-.2-.02-.41,.05-.56,.18-.09,.13-.12,.29-.11,.45,0,.41,0,.8,.05,1.2,0,1.89,.09,3.78,.13,5.67v1.45c.02,.18-.02,.37-.11,.53-.16,.17-.38,.25-.61,.24-1.76,.16-3.54,.21-5.32,.25l-4.57,.11c-1,0-2.07,.05-3.1,.05-1.37,0-2.74-.08-4.11-.15-.17,.01-.33-.03-.48-.11-.15-.09-.2-.27-.13-.43,.06-.08,.15-.13,.25-.15,.21-.05,.42-.08,.63-.07,3.66-.2,7.33-.27,11-.22h2c.68,0,1.5-.13,2.24-.24,.2-.01,.4-.07,.58-.16,.35-.26,.36-1,.35-1.41,.07-2.11-.01-4.22-.24-6.31-.09-.6-.35-.92-1-1-.77-.15-1.56-.21-2.34-.2-1.29,.17-.8,1.8-.82,2.76,0,2.11-.3,2.43-2.36,2.51-1,0-2-.08-3,0s-2,.17-3,.17c-2.26,0-4.53-.05-6.79-.16-.26,.01-.52-.05-.75-.19-.25-.24-.39-.57-.4-.92-.11-.91-.17-1.82-.17-2.73,0-.63-.13-1-.79-1s-1.1,0-1.67,.06-1.48-.07-1.74,.47c-.08,.23-.11,.47-.07,.71,.07,1.38,.15,2.77,.24,4.15,0,.67,.04,1.36,.12,2.07-.07,.56,0,1.13,.19,1.66,.21,.25,.53,.38,.85,.35,1.23,.07,2.46,.07,3.69,0,.46,0,.86,.38,.28,.64-.18,.07-.38,.1-.57,.09-1.5,.06-3,0-4.49-.13-.67,0-.92-.35-.92-1,0-2.59-.21-5.22-.35-7.83,0-.28-.07-.55-.18-.81-.25-.28-.62-.43-1-.41-.4,0-1.49-.06-1.69,.37-.07,.19-.09,.38-.06,.58,.15,2.45,.31,4.9,.46,7.36,.08,1.22,.17,2.45,.23,3.67,0,.62-.26,1.94,.37,2.34,.19,.26,1.18,.18,1.46,.19,1.15,0,2.3-.06,3.45,0,.91,0,1.82,.07,2.73,0l3.57-.13,7.23-.27c.91,0,1.8-.07,2.71-.09l12.34-.49c.35,.03,.7-.05,1-.24,.39-.29,.19-.56,.14-.91,0-.47,.02-.94,.08-1.4,.23-2.75,.23-5.51,0-8.26-.05-.25-.03-.51,.05-.75,.09-.17,.26-.29,.45-.3v-1.89c-.18,.01-.37,.01-.55,0-1.55-.17-3.18-.02-4.78,.03l-.04,.05Zm-138.06,0c-.2-.02-.41,.05-.56,.18-.09,.13-.12,.29-.11,.45v1.2c.05,1.89,.09,3.78,.13,5.67v1.45c.02,.18-.02,.37-.11,.53-.16,.17-.38,.25-.61,.24-1.76,.16-3.54,.21-5.33,.25l-4.56,.11c-1,0-2.07,.05-3.1,.05-1.37,0-2.74-.08-4.11-.15-.17,.01-.33-.03-.48-.11-.15-.09-.2-.27-.13-.43,.06-.08,.15-.13,.25-.15,.21-.05,.42-.08,.63-.07,3.66-.2,7.31-.27,11-.22h2c.68,0,1.5-.13,2.24-.24,.2-.01,.4-.07,.58-.16,.35-.26,.36-1,.35-1.41,.07-2.11-.01-4.22-.24-6.31-.09-.6-.35-.92-.95-1-.77-.15-1.56-.21-2.35-.2-1.28,.17-.79,1.8-.81,2.76,0,2.11-.3,2.43-2.36,2.51-1,0-2-.08-3,0s-2,.17-3,.17c-2.26,0-4.53-.05-6.79-.16-.26,.01-.52-.05-.75-.19-.25-.24-.39-.57-.4-.92-.11-.91-.17-1.82-.17-2.73,0-.63-.13-1-.79-1s-1.1,0-1.67,.06-1.48-.07-1.74,.47c-.08,.23-.11,.47-.08,.71,.08,1.38,.16,2.77,.25,4.15,0,.67,.04,1.36,.12,2.07-.07,.56,0,1.13,.19,1.66,.21,.25,.53,.38,.85,.35,1.23,.07,2.46,.07,3.69,0,.46,0,.86,.38,.28,.64-.18,.07-.38,.1-.57,.09-1.5,.06-3,0-4.49-.13-.67,0-.92-.35-.92-1,0-2.59-.21-5.22-.35-7.83,0-.28-.07-.55-.18-.81-.25-.28-.62-.43-1-.41-.4,0-1.49-.06-1.69,.37-.07,.19-.09,.38-.06,.58,.15,2.45,.31,4.9,.46,7.36,.07,1.22,.17,2.45,.23,3.67,0,.62-.26,1.94,.37,2.34,.19,.26,1.18,.18,1.46,.19,1.15,0,2.3-.06,3.45,0,.91,0,1.82,.07,2.73,0l3.57-.13,7.23-.27c.91,0,1.8-.07,2.71-.09l12.34-.49c.35,.03,.7-.05,1-.24,.39-.29,.19-.56,.14-.91,0-.47,.02-.94,.08-1.4,.22-2.75,.22-5.51,0-8.26-.05-.25-.03-.51,.05-.75,.09-.17,.26-.29,.45-.3v-1.89c-.18,0-.36,0-.54,0-1.56-.17-3.2-.02-4.79,.03l-.04,.05Zm-117.54-.17c-.7,0-1.25,0-1.31,.83-.23,3,.39,6.1,.19,9.14-.06,.38-.03,.76,.09,1.12,.26,.59,1.09,.63,1.64,.65,3.15,.06,6.29,.09,9.43,.11s6.3,0,9.44,0h4.72c.8,0,2.95,.17,2.94-1-.04-3.1-.07-6.2-.1-9.3,0-.39,0-.74-.29-1-.04-.04-.09-.07-.14-.08-.65-.19-1.33-.25-2-.17-.51-.03-1.01-.03-1.52,0-.88,.1-.84,.56-.85,1.36s.07,1.84,.11,2.76c0,.65,.36,2.44-.26,2.86-.29,.14-.61,.19-.92,.15h-10.04c-.41,0-.82-.08-1.23-.09-.6,0-1.19,.07-1.78,.1s-1.34,0-2,0h-1.61c-1.07,0-1.3-.77-1.33-1.71-.08-1.51-.13-3-.19-4.53s-1.82-1.19-2.99-1.2Zm70.36,.63c-.17,.15-.27,.35-.28,.57-.02,.19-.02,.38,0,.57,.06,1.07,.06,2.15,0,3.22,.04,.59-.05,1.19-.27,1.74-.32,.66-.83,.6-1.47,.66-.78,.12-1.56,.17-2.35,.14-.82-.1-1.68-.1-2.53-.1l-13-.09c-.35,.04-.71-.04-1-.25-.24-.28-.37-.63-.37-1-.07-1-.15-2-.24-3,0-.51-.07-1-.06-1.51,.04-.29,0-.6-.11-.87-.18-.35-.66-.31-1-.37-.53-.07-1.07-.07-1.6,0-.51,.05-1.83-.12-2.12,.4-.11,.26-.15,.54-.11,.81l.18,3.13c.08,1.34,.15,2.67,.22,4-.02,.43,.1,.85,.34,1.2,.48,.4,1.12,.58,1.74,.49,.94,0,1.82,.12,2.76,.11l3.08-.05,6-.1h1.34c1.26,0,2.5-.05,3.76,0,1.67,.04,3.34-.01,5-.16,1.85-.16,3.7-.05,5.54-.16,.25,.01,.48-.08,.66-.25,.08-.14,.11-.31,.09-.47,0-2.16,0-4.36-.13-6.52-.15-2,0-2.41-2.46-2.26-.57-.08-1.22-.18-1.61,.12Zm3.38-1.9c.28-.27,.12-.73,.1-1.05,0-.65-.35-2.62,.52-2.85h3.38l11.78-.13c.24-.03,.47,.04,.65,.2,.1,.14,.14,.31,.12,.48,0,.88,.1,1.73,.14,2.61,0,.13,.03,.26,.09,.37,.16,.14,.38,.2,.59,.17l3-.07c.95,0,.62-1.24,.61-1.91s0-1.28,0-1.91c0-.87,.46-2.74-.85-2.74h-22.84c-.18-.02-.37,.02-.54,.09-.39,.19-.46,.7-.47,1.12-.06,1.63,.07,3.23,.07,4.85,0,.64,.4,.91,1,.92,.75,.09,1.51,.11,2.26,.08,.15-.04,.29-.12,.39-.23Zm-46.77-.5c.09-.22,.13-.47,.1-.71l-.07-2.54c0-.4,0-.91,.4-1.06,.1-.04,.2-.06,.31-.06,1.22-.07,2.43,0,3.66-.06,.6,0,1.21-.11,1.81-.14,1.94-.1,3.88-.06,5.82,.11l3.68,.23c.27-.02,.54,.07,.74,.25,.12,.19,.17,.42,.15,.64v2.58c0,.55,.06,.92,.4,1.08,.17,.07,.34,.09,.52,.07,.35-.02,.71-.02,1.06,0h.93c.77,0,1.54,.27,1.74-.71,.07-.67,.05-1.34-.06-2-.05-1.6-.09-3.2-.13-4.8,.02-.09,.02-.19,0-.28-.1-.24-.4-.31-.67-.34-4.19-.53-8.35-.06-12.53,0-3.84,.06-7.68-.18-11.52-.15-.33-.04-.67,.05-.94,.25-.18,.22-.29,.49-.29,.78-.18,2.04-.23,4.09-.13,6.13,0,.56,.29,1,.9,1h2.44c.46,.03,1.43,.24,1.68-.26Zm87.79,.14h.11c.13,0,.25,0,.32-.16,.07-.1,.1-.22,.08-.34v-6.12c-.01-.11,.01-.22,.06-.32,.14-.16,.36-.24,.57-.21h9.87c2.29,0,4.58,0,6.88,.06,.89,0,1.79,.08,2.69,.11,.11,0,.22,.03,.32,.08,.16,.15,.23,.37,.2,.58,0,1.93,.09,3.87,.26,5.8-.04,.22,.12,.43,.34,.47,.06,0,.11,0,.17,0l1.28-.07c.28,0,.68,.07,1,0,.47-.1,1-.06,1.14-.65,.06-.43,.03-.87-.09-1.28-.13-1.4-.1-2.8,.09-4.19,.05-.93,.02-1.86-.09-2.79-.01-.28-.09-.54-.24-.78-.39-.43-.97-.63-1.55-.55h-8.89c-5.5,0-11,.06-16.49-.25-.62,0-1.37,0-1.67,.52-.13,.25-.18,.53-.16,.81v7.44c0,.45-.14,1.49,.4,1.71,.18,.04,.37,.04,.55,0,.46,0,.88,.17,1.32,.19s1.03-.05,1.53-.05Z"/><path class="e" d="M271.47,5.08c-.16,0-.33,.02-.48,.08-.44,.19-.49,.78-.48,1.27l.28,9c.04,.3,.01,.6-.09,.89-.34,.77-2.07,.72-2.78,.74-2.47,0-4.94-.02-7.41-.05-1.09,0-2.19,0-3.28,.07-.12,.01-.24-.01-.34-.07-.1-.1-.16-.24-.16-.39-.19-1.84-.23-3.69-.13-5.54,0-.57,0-1.27-.51-1.53-.77-.21-1.57-.29-2.37-.22-.95,0-1.89,0-2.84,.09-1.9,.07-3.79,.07-5.68,.07h-3.52c-2.64,0-5.28-.06-7.92-.15-1.04-.06-2.07-.06-3.11,0-.18,0-.37,.04-.53,.13-.37,.22-.39,.73-.38,1.15,.16,2.09,.18,4.19,.05,6.28-.09,.59-.44,.6-1,.63s-.9,0-1.35,0c-.93,.03-1.87,0-2.8-.07-2.6-.28-5.21-.39-7.82-.32h-4.98c-.28,0-1.05,.16-1.26-.07-.11-.16-.16-.34-.17-.53-.24-2.59-.29-5.19-.12-7.79,0-.34,0-.74-.29-.89-.13-.07-.27-.1-.41-.09-2.33,0-4.64-.24-7-.18s-5,.23-7.42,.28c-4.2,.07-8.42-.34-12.61,0-.21,0-.41,.08-.57,.21-.49,.43-.16,1.92-.15,2.49,0,1.15,0,2.3-.06,3.44-.05,.79,.4,2.24-.12,2.91h0c-.32,.35-.92,.21-1.37,.2-5,0-10,.19-14.94,.28-.22-.15-.65-.15-.82-.28-.42-.32-.63-.84-.55-1.36V7.04c.09-.58-.11-1.18-.53-1.59-.34-.16-.71-.22-1.08-.17-4.4,.17-8.79,0-13.19-.1-5.28-.1-10.53-.1-15.77-.1-.16,0-.33,.02-.48,.08-.44,.19-.49,.78-.48,1.27l.28,9c.04,.3,0,.6-.09,.89-.34,.77-2.08,.72-2.78,.74-2.47,0-4.94-.02-7.41-.05-1.09,0-2.19,0-3.28,.07-.12,.01-.24,0-.34-.07-.11-.1-.17-.24-.16-.39-.19-1.84-.23-3.69-.13-5.54,0-.57,0-1.27-.51-1.53-.77-.21-1.57-.29-2.37-.22-1,0-1.89,0-2.84,.09-1.9,.07-3.79,.07-5.68,.07h-3.52c-2.64,0-5.28-.06-7.92-.15-1.04-.06-2.07-.06-3.11,0-.19,0-.37,.04-.54,.13-.36,.22-.38,.73-.37,1.15,.14,2.09,.14,4.19,0,6.28-.09,.59-.44,.6-1,.63s-.91,0-1.35,0c-.93,.03-1.87,0-2.8-.07-2.6-.28-5.21-.39-7.82-.32h-4.98c-.28,0-1,.16-1.26-.07-.11-.16-.16-.34-.17-.53-.24-2.59-.29-5.19-.12-7.79,0-.34,0-.74-.29-.89-.13-.07-.27-.1-.41-.09-2.33,0-4.64-.24-7-.18s-4.95,.23-7.42,.28c-4.2,.07-8.42-.34-12.61,0-.21-.01-.42,.05-.59,.17-.49,.43-.16,1.92-.15,2.49,0,1.15,0,2.3-.06,3.44,0,.79,.4,2.24-.12,2.91h0c-.32,.35-.92,.21-1.37,.2-7-.05-14,.42-21,.31-6.65-.12-13.42-.51-20,.29-.32,.02-.64,.12-.91,.3-.27,.19-.33,.57-.14,.84h0c.14,.16,.32,.24,.52,.26,1.41,.18,2.84,.26,4.26,.23l2.65-.06,4.65-.09,2.33-.08c.61,0,1,0,1.05,.77,.12,2.53,.28,5,.36,7.58,.08,2.35,.42,4.71,.42,7.07,0,.28,.05,.56,.17,.82,.33,.44,.85,.69,1.4,.66,11.9,.26,23.81,.19,35.74-.21,.54,.03,1.07-.07,1.56-.3,.85-.46,.71-1.48,.71-2.3,0-1.06-.09-2.12-.12-3.17-.09-3.38-.19-6.77-.23-10.15-.01-.19,0-.37,.07-.55,.31-.6,1.74-.32,2.27-.32h2.7c1.59,0,1.22,2.31,1.28,3.38,.08,1.72,.08,3.47,.08,5.18-.1,2.52-.04,5.05,.2,7.57,0,.2,.09,.38,.24,.51,.21,.09,.46,.02,.58-.18,.08-.14,.13-.3,.15-.46v-.17c.06-1.35-.22-2.68-.16-4,.06-1.49-.1-3-.08-4.48,0-2.11-.23-4.2-.21-6.3-.02-.22,.02-.44,.1-.64,.19-.45,.66-.34,1.05-.35,.75-.05,1.55-.07,1.65,.83,.31,2.73,.43,5.47,.36,8.21-.06,.47,.03,.95,.26,1.37,.46,.61,1.69,.69,2.4,.69h10.19c3.15,0,6.3-.07,9.44-.12s6.09-.27,9.14-.25c.38,.07,.78-.05,1.06-.32,.14-.22,.19-.49,.16-.75,.08-2.79-.02-5.58-.31-8.36-.09-.63,.2-1,.82-1,.46,0,1.85-.39,2.19,0,.05,.08,.08,.17,.09,.27,.14,1.14,.05,2.31,.13,3.46s.19,2.41,.32,3.62,.23,2.46,.3,3.69c.1,.75,.14,1.5,.14,2.25,0,.92-.55,1.17-1.43,1.29-1.18,.09-2.36,.12-3.54,.07-6.14,.16-12.3,.21-18.45,.29h-.57l-3.56,.05-8,.09c-.33-.04-.67,.06-.93,.27-.08,.06-.13,.15-.14,.25,0,.28,.6,.36,.88,.38,1.77,.17,3.55,.22,5.33,.14l4.74-.07,3.55-.06c2.63-.06,5.27-.13,7.9-.24l3.94-.17c1-.06,2,.08,3.06,0,2.38-.17,4.75-.14,7.15-.18,.25,.03,.51-.03,.73-.16,.26-.28,.37-.67,.3-1.05-.09-2.51-.14-5-.35-7.52-.17-1.88-.25-3.77-.34-5.66,0-1.06,.17-1.34,1.18-1.36s2.18,0,3.27,0c.9,0,1.52,.13,1.59,1.19,.15,2.36,.17,4.73,.28,7.11l.06,1.64c.04,1.49,.16,2.98,.38,4.45,.02,.17,.08,.34,.17,.49,.23,.27,.56,.43,.91,.45,1.07,.14,2.15,.21,3.23,.21h5.34c.79,0,1.57,0,2.35-.06,1.71-.11,3.42-.26,5.13-.33,3.1-.15,6.2-.33,9.3-.44l2.83-.13c2.1-.1,4.19-.19,6.29-.21,.41,.07,.84,0,1.21-.18,.38-.27,.37-.67,.34-1.09-.03-.43-.03-.87,0-1.3v-3.42c0-2.08,0-4.13-.18-6.21,0-.2,0-.43-.2-.53-.06-.04-.12-.06-.19-.06-.19,.01-.36,.13-.45,.3-.08,.24-.1,.5-.05,.75,.22,2.75,.22,5.51,0,8.26-.06,.46-.08,.93-.08,1.4,.05,.35,.25,.62-.14,.91-.3,.19-.65,.27-1,.24l-12.34,.49c-.91,0-1.8,.06-2.71,.09l-7.23,.27-3.57,.13h-2.73c-1.15-.05-2.3,0-3.45,0-.28,0-1.27,.07-1.46-.19-.63-.4-.34-1.72-.37-2.34-.06-1.22-.16-2.45-.23-3.67-.16-2.46-.31-4.91-.46-7.36-.03-.2,0-.39,.06-.58,.2-.43,1.29-.4,1.69-.37,.38-.02,.75,.13,1,.41,.11,.26,.18,.53,.18,.81,.14,2.61,.36,5.24,.35,7.83,0,.64,.25,.95,.92,1,1.51,.09,3,.19,4.49,.13,.19,.01,.39-.02,.57-.09,.58-.26,.18-.66-.28-.64-1.23,.07-2.46,.07-3.69,0-.32,.03-.64-.1-.85-.35-.19-.53-.26-1.1-.19-1.66-.05-.67-.09-1.36-.12-2.07-.09-1.38-.17-2.77-.25-4.15-.03-.24,0-.48,.08-.71,.26-.54,1.27-.46,1.74-.47s1.12-.07,1.67-.06,.79,.41,.79,1c0,.91,.06,1.82,.17,2.73,0,.35,.15,.68,.4,.92,.23,.14,.49,.2,.75,.19,2.26,.11,4.53,.17,6.79,.16,1,0,2-.13,3-.17,1-.04,2,.07,3,0,2.06-.08,2.32-.4,2.36-2.51,0-1-.47-2.59,.81-2.76,.79-.01,1.58,.05,2.35,.2,.6,.06,.86,.38,.95,1,.23,2.09,.31,4.2,.24,6.31,0,.38,0,1.15-.35,1.41-.18,.09-.38,.15-.58,.16-.74,.11-1.49,.2-2.24,.24s-1.32,0-2,0c-3.66-.05-7.31,0-11,.22-.21,0-.42,.02-.63,.07-.1,.02-.19,.07-.25,.15-.07,.16-.02,.34,.13,.43,.15,.08,.31,.12,.48,.11,1.37,.07,2.74,.13,4.11,.15,1,0,2.07,0,3.1-.05l4.56-.11c1.79,0,3.57-.09,5.33-.25,.23,.01,.45-.07,.61-.24,.09-.16,.13-.35,.11-.53v-1.45c0-1.89-.08-3.78-.13-5.67,0-.4-.06-.79,0-1.2-.01-.16,.02-.32,.11-.45,.15-.13,.36-.2,.56-.18,1.6,0,3.23-.2,4.83-.11,.18,0,.36,0,.54,0,1.37,.06,2.74,0,4.11,0,1.13,0,2.61-.31,3.35,.8,.58,.88,.24,2.15,.33,3.13,.14,1.63,.39,3.26,.44,4.91,.08,2.35,.42,4.71,.42,7.07,0,.28,.05,.56,.17,.82,.33,.44,.85,.69,1.4,.66,11.9,.26,23.81,.19,35.74-.21,.54,.03,1.07-.07,1.56-.3,.85-.46,.71-1.48,.71-2.3,0-1.06-.09-2.12-.12-3.17-.09-3.38-.19-6.77-.23-10.15-.02-.19,.01-.38,.08-.55,.3-.6,1.73-.32,2.26-.32h2.7c1.59,0,1.22,2.31,1.28,3.38,.09,1.7,.12,3.42,.12,5.13-.1,2.52-.04,5.05,.2,7.57,0,.19,.07,.41,.24,.51,.21,.09,.46,.02,.58-.18,.08-.14,.13-.3,.15-.46v-.17c.06-1.35-.22-2.68-.16-4,.06-1.49-.09-3-.08-4.48,0-2.11-.23-4.2-.21-6.3-.02-.22,.02-.44,.1-.64,.19-.45,.66-.34,1-.35,.75-.05,1.55-.07,1.65,.83,.29,2.73,.4,5.48,.31,8.23-.06,.47,.03,.95,.26,1.37,.46,.61,1.69,.69,2.4,.69h10.19c3.15,0,6.3-.07,9.44-.12s6.09-.27,9.14-.25c.38,.07,.78-.05,1.06-.32,.14-.22,.19-.49,.16-.75,.08-2.79-.02-5.58-.31-8.36-.09-.63,.2-1,.82-1,.46,0,1.85-.39,2.19,0,.06,.08,.09,.17,.09,.27,.14,1.14,.05,2.31,.13,3.46s.19,2.41,.32,3.62,.23,2.46,.3,3.69c.1,.75,.14,1.5,.14,2.25,0,.92-.55,1.17-1.43,1.29-1.18,.09-2.36,.12-3.54,.07-6.14,.16-12.3,.21-18.45,.29h-.57l-3.56,.05-8,.09c-.33-.04-.67,.06-.93,.27-.08,.06-.12,.15-.13,.25,0,.28,.59,.36,.87,.38,1.77,.17,3.55,.22,5.33,.14l4.74-.07,3.55-.06c2.63-.06,5.27-.13,7.9-.24l3.94-.17c1.05-.06,2,.08,3.06,0,2.38-.17,4.76-.14,7.15-.18,.25,.03,.51-.03,.73-.16,.26-.28,.37-.67,.3-1.05-.09-2.51-.14-5-.35-7.52-.17-1.88-.25-3.77-.34-5.66-.05-1.06,.17-1.34,1.18-1.36s2.18,0,3.27,0c.9,0,1.52,.13,1.6,1.19,.14,2.36,.16,4.73,.27,7.11l.06,1.64c.04,1.49,.16,2.98,.38,4.45,.02,.17,.08,.34,.17,.49,.23,.27,.56,.43,.91,.45,1.07,.14,2.15,.21,3.23,.21h5.34c.78,0,1.56,0,2.34-.06,1.71-.11,3.42-.26,5.13-.33,3.1-.15,6.2-.33,9.3-.44l2.83-.13c2.1-.1,4.19-.19,6.29-.21,.42,.06,.85-.01,1.23-.21,.38-.27,.37-.67,.34-1.09-.03-.43-.03-.87,0-1.3v-3.42c0-2.08-.05-4.13-.18-6.21,0-.2,0-.43-.2-.53-.06-.04-.12-.06-.19-.06-.19,.01-.36,.13-.45,.3-.08,.24-.1,.5-.05,.75,.23,2.75,.23,5.51,0,8.26-.06,.46-.08,.93-.08,1.4,.05,.35,.25,.62-.14,.91-.3,.19-.65,.27-1,.24l-12.34,.49c-.91,0-1.8,.06-2.71,.09l-7.23,.27-3.57,.13h-2.73c-1.15-.05-2.3,0-3.45,0-.28,0-1.27,.07-1.46-.19-.63-.4-.34-1.72-.37-2.34-.06-1.22-.15-2.45-.23-3.67-.15-2.46-.31-4.91-.46-7.36-.03-.2,0-.39,.06-.58,.2-.43,1.29-.4,1.69-.37,.38-.02,.75,.13,1,.41,.11,.26,.18,.53,.18,.81,.14,2.61,.36,5.24,.35,7.83,0,.64,.25,.95,.92,1,1.51,.09,3,.19,4.49,.13,.19,.01,.39-.02,.57-.09,.58-.26,.18-.66-.28-.64-1.23,.07-2.46,.07-3.69,0-.32,.03-.64-.1-.85-.35-.19-.53-.26-1.1-.19-1.66-.05-.67-.09-1.36-.12-2.07-.09-1.38-.17-2.77-.24-4.15-.04-.24-.01-.48,.07-.71,.26-.54,1.27-.46,1.74-.47s1.12-.07,1.67-.06,.79,.41,.79,1c0,.91,.06,1.82,.17,2.73,0,.35,.15,.68,.4,.92,.23,.14,.49,.2,.75,.19,2.26,.11,4.53,.17,6.79,.16,1,0,2-.13,3-.17s2,.07,3,0c2.06-.08,2.32-.4,2.36-2.51,0-1-.47-2.59,.82-2.76,.78-.01,1.57,.05,2.34,.2,.6,.06,.86,.38,1,1,.23,2.09,.31,4.2,.24,6.31,0,.38,0,1.15-.35,1.41-.18,.09-.38,.15-.58,.16-.74,.11-1.49,.2-2.24,.24s-1.32,0-2,0c-3.65-.05-7.32,.03-11,.22-.21,0-.42,.02-.63,.07-.1,.02-.19,.07-.25,.15-.07,.16-.02,.34,.13,.43,.15,.08,.31,.12,.48,.11,1.37,.07,2.74,.13,4.11,.15,1,0,2.07,0,3.1-.05l4.57-.11c1.78,0,3.56-.09,5.32-.25,.23,.01,.45-.07,.61-.24,.09-.16,.13-.35,.11-.53v-1.45c0-1.89-.08-3.78-.13-5.67,0-.4-.06-.79-.05-1.2-.01-.16,.02-.32,.11-.45,.15-.13,.36-.2,.56-.18,1.6,0,3.23-.2,4.83-.11,.18,.01,.37,.01,.55,0,1.36,.06,2.73,0,4.1,0,.9,0,2.32-.47,3.13,.07,1.05,.71,.45,2.68,.5,3.77,.09,1.67,.18,3.33,.23,5,.08,2.35,.42,4.71,.42,7.07,0,.28,.05,.56,.17,.82,.33,.44,.85,.69,1.4,.66,11.9,.26,23.81,.19,35.74-.21,.54,.03,1.07-.07,1.56-.3,.85-.46,.71-1.48,.71-2.3,0-1.06-.09-2.12-.12-3.17-.09-3.38-.19-6.77-.23-10.15-.02-.19,.01-.38,.08-.55,.3-.6,1.73-.32,2.26-.32h2.7c1.59,0,1.22,2.31,1.28,3.38,.09,1.7,.13,3.42,.13,5.13-.09,2.51,0,5.03,.26,7.53,0,.19,.07,.41,.24,.51,.21,.09,.46,.02,.58-.18,.08-.14,.13-.3,.15-.46v-.17c.06-1.35-.22-2.68-.16-4,.06-1.49-.09-3-.08-4.48,0-2.11-.23-4.2-.21-6.3-.02-.22,.02-.44,.1-.64,.19-.45,.66-.34,1-.35,.75-.05,1.55-.07,1.65,.83,.29,2.73,.4,5.48,.31,8.23-.06,.47,.03,.95,.26,1.37,.46,.61,1.69,.69,2.4,.69h10.19c3.15,0,6.3-.07,9.44-.12s6.09-.27,9.14-.25c.39,.07,.79-.05,1.07-.32,.13-.23,.18-.49,.15-.75,.08-2.79-.02-5.58-.31-8.36-.09-.63,.2-1,.82-1,.46,0,1.85-.39,2.19,0,.06,.08,.09,.17,.09,.27,.14,1.14,.05,2.31,.13,3.46s.19,2.41,.32,3.62,.23,2.46,.3,3.69c.1,.75,.14,1.5,.14,2.25,0,.92-.55,1.17-1.42,1.29-1.18,.09-2.37,.12-3.55,.07-6.14,.16-12.29,.21-18.45,.29h-.57l-3.56,.05-8,.09c-.33-.04-.67,.06-.93,.27-.08,.06-.12,.15-.13,.25,0,.28,.59,.36,.87,.38,1.77,.17,3.55,.22,5.33,.14l4.74-.07,3.55-.06c2.63-.06,5.27-.13,7.9-.24l3.94-.17c1.05-.06,2,.08,3.06,0,2.38-.17,4.76-.14,7.15-.18,.25,.03,.51-.03,.73-.16,.26-.28,.37-.67,.3-1.05-.09-2.51-.14-5-.35-7.52-.17-1.88-.25-3.77-.34-5.66-.05-1.06,.17-1.34,1.18-1.36s2.18,0,3.27,0c.91,0,1.52,.13,1.6,1.19,.14,2.36,.16,4.73,.27,7.11l.06,1.64c.04,1.49,.17,2.98,.38,4.45,.02,.17,.08,.34,.17,.49,.23,.27,.56,.43,.91,.45,1.07,.14,2.15,.21,3.23,.21h5.34c.78,0,1.56,0,2.35-.06,1.7-.11,3.41-.26,5.12-.33,3.1-.15,6.2-.33,9.3-.44l2.83-.13c2.1-.1,4.19-.19,6.29-.21,.4,.04,.8-.04,1.15-.23,.38-.27,.37-.67,.34-1.09-.03-.43-.03-.87,0-1.3v-3.42c0-2.08-.05-4.13-.18-6.21,0-.2,0-.43-.2-.53-.06-.04-.12-.06-.19-.06-.19,.01-.36,.13-.45,.3-.08,.24-.1,.5-.05,.75,.23,2.75,.23,5.51,0,8.26-.06,.46-.08,.93-.08,1.4,.05,.35,.25,.62-.14,.91-.3,.19-.65,.27-1,.24l-12.34,.49c-.91,0-1.8,.06-2.71,.09l-7.23,.27-3.57,.13h-2.73c-1.15-.05-2.3,0-3.45,0-.28,0-1.27,.07-1.46-.19-.63-.4-.34-1.72-.37-2.34-.06-1.22-.15-2.45-.23-3.67-.15-2.46-.31-4.91-.46-7.36-.03-.2,0-.39,.06-.58,.2-.43,1.29-.4,1.69-.37,.38-.02,.75,.13,1,.41,.11,.26,.18,.53,.18,.81,.14,2.61,.36,5.24,.35,7.83,0,.64,.25,.95,.92,1,1.51,.09,3,.19,4.49,.13,.19,.01,.39-.02,.57-.09,.58-.26,.18-.66-.28-.64-1.23,.07-2.46,.07-3.69,0-.32,.03-.64-.1-.85-.35-.19-.53-.26-1.1-.19-1.66-.05-.67-.09-1.36-.12-2.07-.09-1.38-.17-2.77-.24-4.15-.04-.24-.01-.48,.07-.71,.26-.54,1.27-.46,1.74-.47s1.12-.07,1.67-.06,.79,.41,.79,1c0,.91,.06,1.82,.17,2.73,0,.35,.15,.68,.4,.92,.23,.14,.49,.2,.75,.19,2.27,.11,4.53,.17,6.79,.16,1,0,2-.13,3-.17s2,.07,3,0c2.06-.08,2.32-.4,2.36-2.51,0-1-.47-2.59,.82-2.76,.79-.01,1.58,.05,2.35,.2,.59,.06,.85,.38,.94,1,.23,2.09,.31,4.2,.24,6.31,0,.38,0,1.15-.35,1.41-.18,.1-.38,.15-.58,.16-.74,.11-1.49,.2-2.24,.24s-1.32,0-2,0c-3.65-.05-7.32,.03-11,.22-.21,0-.42,.02-.63,.07-.1,.02-.19,.07-.25,.15-.07,.16-.02,.34,.13,.43,.15,.08,.31,.12,.48,.11,1.37,.07,2.74,.13,4.11,.15,1,0,2.07,0,3.1-.05l4.57-.11c1.78,0,3.56-.09,5.32-.25,.23,.01,.45-.07,.61-.24,.09-.16,.13-.35,.11-.53v-1.45c0-1.89-.08-3.78-.13-5.67,0-.4-.06-.79,0-1.2-.01-.16,.02-.32,.11-.45,.16-.13,.36-.2,.56-.18,1.6,0,3.23-.2,4.83-.11,.18,.01,.37,.01,.55,0,1.36,.06,2.73,0,4.1,0,.89-.17,1.8-.15,2.68,.07,.6,.29,.66,1.07,.68,1.65,.13,3.78,.25,7.54,.38,11.32,0,.34,.06,.7,.41,.86,.23,.09,.48,.12,.72,.1,7.63-.1,15.27-.2,22.87-.75,.4-.05,.8-.05,1.2,0,.24,.05,.49,.07,.74,.07,.25-.02,.47-.19,.54-.44,0-.22-.15-.34-.39-.38-.44-.05-.89-.05-1.33,0h-2.24c-1.47,0-2.92,.1-4.39,.16-1.31,.06-2.64,.24-4,.17s-2.9,.09-4.37,.12-3,0-4.47,0c-.66,0-1.32,.06-2,0s-1.55,0-1.87-.51c-.16-.57-.21-1.18-.14-1.77,0-.76-.1-1.53-.14-2.31-.09-1.51-.17-3-.19-4.54v-2c0-.48-.23-1.2,.13-1.59,.21-.2,.5-.3,.79-.29,.58-.14,1.2-.1,1.76,.11,.55,.36,.49,1.15,.51,1.71,.07,2,.16,4,.23,5.94-.01,.35,.07,.69,.24,1,.35,.48,.9,.43,1.42,.43,.74,0,1.49,.05,2.23,.07h.75c1.24,0,2.5-.07,3.75,0,2.74,.13,5.51-.19,8.26-.33,1.18,0,1.59-.38,1.62-1.55,0-1.38,0-2.76-.05-4.14v-2.56c-.02-.18,.02-.36,.12-.51,.25-.28,1-.27,1.38-.27,.5,0,1-.11,1.22,.49,.26,1.06,.39,2.14,.37,3.23,.06,1.27,.09,2.54,.13,3.83,0,.93,.09,1.87,.05,2.82,0,.4-.36,1.43,.22,1.6h.08c.15,0,.29-.1,.36-.23,.19-.6,.24-1.24,.16-1.86v-2.25c0-1.71-.16-3.4-.16-5.11,0-.62-.15-2,.4-2.41,.73-.57,2.26-.22,3.1-.17,1.35,.12,2.72,.11,4.07-.05,.16-.02,.31-.06,.45-.13,.15-.07,.25-.2,.28-.36,0-.21-.12-.4-.31-.49-.19-.08-.39-.12-.59-.12-.52,0-1-.12-1.56-.12-2.69,0-5.37-.13-8.06,.13-3,.28-5.94,0-8.92,0-1.2,0-2.39-.09-3.59-.16-.43,0-1,.07-1.29-.27-.22-.35-.32-.75-.29-1.16V6.92c.09-.58-.11-1.18-.53-1.59-.27-.08-.55-.09-.83-.04-4.4,.17-8.79,0-13.19-.1-5.24-.11-10.48-.11-15.73-.11-.16,0-.33,.02-.48,.08-.44,.19-.49,.78-.48,1.27l.28,9c.04,.3,.01,.6-.09,.89-.34,.77-2.07,.72-2.78,.74-2.47,0-4.94-.02-7.41-.05-1.09,0-2.19,0-3.28,.07-.12,.01-.24-.01-.34-.07-.1-.1-.16-.24-.16-.39-.19-1.84-.23-3.69-.13-5.54,0-.57,0-1.27-.51-1.53-.77-.21-1.57-.29-2.37-.22-.95,0-1.89,0-2.84,.09-1.9,.07-3.79,.07-5.68,.07h-3.52c-2.64,0-5.28-.06-7.92-.15-1.04-.06-2.07-.06-3.11,0-.18,0-.37,.04-.53,.13-.37,.22-.39,.73-.38,1.15,.16,2.09,.18,4.19,.05,6.28-.09,.59-.44,.6-1,.63s-.9,0-1.35,0c-.93,.03-1.87,0-2.8-.07-2.6-.28-5.21-.39-7.82-.32h-4.98c-.28,0-1.05,.16-1.26-.07-.11-.16-.16-.34-.17-.53-.24-2.59-.29-5.19-.12-7.79,0-.34,0-.74-.29-.89-.13-.07-.27-.1-.41-.09-2.33,0-4.64-.24-7-.18s-5,.23-7.42,.28c-4.2,.07-8.42-.34-12.61,0-.21-.01-.42,.05-.59,.17-.49,.43-.16,1.92-.15,2.49,0,1.15,0,2.3-.06,3.44-.05,.79,.4,2.24-.12,2.91h0c-.32,.35-.92,.21-1.37,.2-4.89,0-9.79,.18-14.68,.28-.22-.15-.65-.15-.82-.28-.42-.32-.63-.84-.55-1.36V7c.09-.58-.11-1.18-.53-1.59-.35-.15-.73-.19-1.1-.12-4.4,.17-8.79,0-13.19-.1-5.21-.11-10.49-.11-15.73-.11ZM48.11,17.17h-2.44c-.61,0-.88-.46-.9-1-.1-2.04-.05-4.09,.13-6.13,0-.29,.11-.56,.29-.78,.27-.2,.61-.29,.94-.25,3.84,0,7.68,.21,11.52,.15,4.18-.07,8.38-.52,12.53,0,.27,0,.57,.1,.67,.34,.02,.09,.02,.19,0,.28,0,1.6,.08,3.2,.13,4.8,.11,.66,.13,1.33,.06,2-.2,1-1,.75-1.74,.71h-.93c-.35-.02-.71-.02-1.06,0-.18,.02-.35,0-.52-.07-.34-.16-.39-.53-.4-1.08v-2.58c.02-.22-.03-.45-.15-.64-.2-.18-.47-.27-.74-.25l-3.68-.23c-1.94-.18-3.89-.22-5.83-.13-.6,0-1.21,.11-1.81,.14-1.23,.06-2.44,0-3.66,.06-.11,0-.21,.02-.31,.06-.37,.15-.42,.66-.4,1.06l.07,2.54c.03,.24,0,.49-.1,.71-.24,.5-1.21,.29-1.67,.29Zm7.64,.17c-.31,.08-.63-.11-.7-.43-.08-.31,.11-.63,.42-.7,.27-.12,.56-.16,.85-.13l4.66,.2c.14-.01,.28,.02,.4,.08,.27,.18,.17,.64-.11,.83-.52,.34-1.56,.14-2.15,.14h-3.37Zm7.16,.01c-.05,.02-.12,.02-.17,0-.05-.06-.08-.13-.08-.21l-.09-1.53c.01-.1-.02-.21-.08-.29-.1-.09-.22-.13-.35-.11-1.44,0-2.87-.05-4.3,0l-2.14,.08c-.36,0-1.43-.07-1.62,.37-.03,.1-.03,.22,0,.32,0,.21,0,.43,.08,.63,.07,.62-.06,.74-.65,.69-.6-.03-1.21-.03-1.81,0-.19,.03-.38-.02-.53-.14-.18-.27-.18-.65-.18-.87v-1.47c-.04-.16-.04-.33,0-.49,.19-.45,.77-.52,1.24-.54l6-.08c2,0,4-.06,6,.07,.33-.04,.65,.1,.85,.36,.06,.14,.08,.29,.08,.44v1.39c.07,.33,.07,.67,0,1-.24,.69-1.65,.36-2.25,.36v.02Zm-31.82,2.04c0,1,0,2,.08,2.94-.01,.16,.03,.32,.12,.46,.18,.15,.41,.21,.64,.18h1.69l5.47-.12c.26,.03,.51-.05,.7-.23,.09-.15,.13-.33,.12-.51v-2.51c-.03-.17,0-.35,.08-.51,.18-.37,2-.27,2.47-.27,.44-.06,.88,.02,1.27,.24,.72,.58,.45,2.37,.51,3.16,.07,.53,.1,1.07,.06,1.6,0,.44,.05,1-.43,1.19-.3,.11-.62,.14-.93,.09-1.62-.08-3.24,0-4.86,0h-2.09c-1.16-.01-2.32-.06-3.47-.07-1,0-1.92-.07-2.87-.06h-1.74c-.14,0-.28-.01-.41-.06-.43-.24-.28-1.79-.31-2.23-.06-1-.12-1.93-.19-2.9,0-.33,0-.72,.24-.92,.17-.11,.37-.17,.57-.17,.8-.08,1.59,0,2.39-.08,.55,.04,.92,.1,.89,.78Zm3.64-.67c1.31-.04,2.62,.04,3.91,.22,.08,0,.16,.03,.23,.07,.1,.11,.14,.26,.12,.41,0,.59,0,1.17-.07,1.76,0,.18-.05,.36-.15,.51-.18,.14-.4,.2-.62,.17-1.8,0-3.61,0-5.41-.06h-.1s-.09,.01-.14,0c-.17-.08-.2-.3-.21-.48,0-.57,0-1.13-.07-1.7,0-.24-.11-.58,.21-.7h.18c.7-.13,1.38-.19,2.12-.2Zm-8.92,1.1c.06,1.52,.11,3,.19,4.53,0,.94,.26,1.67,1.33,1.71l1.66,.03h2c.67,0,1.18-.1,1.78-.1,.41,0,.82,.05,1.23,.09h9.99c.35,.05,.69-.01,1-.18,.62-.42,.27-2.21,.26-2.86,0-.92-.11-1.84-.11-2.76s0-1.26,.85-1.36c.51-.03,1.01-.03,1.52,0,.67-.08,1.35-.02,2,.17,.05,.01,.1,.04,.14,.08,.29,.22,.28,.57,.29,1,0,3.1,.03,6.2,.1,9.3,0,1.18-2.14,1-2.94,1h-14.16c-3.15,0-6.28-.05-9.43-.11-.55,0-1.38-.06-1.64-.65-.12-.36-.15-.74-.09-1.12,.2-3-.42-6.09-.19-9.14,.06-.83,.61-.84,1.31-.83,1.09,.05,2.85-.41,2.91,1.2Zm28.5-.46c.11,.28,.15,.59,.12,.89,0,2.24,.14,4.52,.22,6.77s.13,4.5,.13,6.76c.01,.18-.02,.36-.1,.53-.18,.31-.84,.25-1.15,.28l-1.89,.07-3.65,.13-7.48,.3c-.79,0-1.61,.06-2.4,.05-3-.05-6.1,.07-9.14,0s-6.27-.11-9.42-.2h-1.12c-.37,.06-.71-.2-.76-.56,0-.04,0-.09,0-.13-.27-2.19-.39-4.39-.35-6.59,0-1.34-.16-2.7-.24-4.05s-.08-2.52-.08-3.71c-.09-.35-.02-.72,.2-1,.23-.17,.51-.26,.79-.25l1.27-.07c.24-.04,.48,.01,.69,.14,.04,.03,.08,.08,.1,.13,.05,.11,.06,.24,.05,.36-.04,1.9,.05,3.81,.26,5.7,.09,.94,.15,1.89,.16,2.84-.06,.82-.01,1.64,.13,2.45,.1,.75,.75,1.31,1.51,1.28h.79c1.41,.05,2.85-.07,4.28-.07h4.71l9.34-.06h2.72c2.07,0,4.16,0,6.21-.24,.16,0,.33-.04,.46-.14,.17-.18,.25-.43,.21-.68v-9.62c0-.42-.2-1.14,.09-1.49,.4-.5,1.39-.36,1.94-.31s1.17,.05,1.41,.49Zm32.13,3.43c.26,.01,.52-.03,.75-.14,.61-.38,.21-2.29,.21-2.92,0-.21,0-.46,.23-.54h.08c.46-.1,.94-.13,1.41-.1,.4,0,.8,.06,1.22,.06s1.1-.11,1.36,.48c.24,.91,.29,1.86,.15,2.79,0,.69,.31,2.25-.39,2.65-.25,.13-.53,.2-.81,.18-.8,0-1.59-.13-2.37-.17h-1.37c-4.12,.12-8.25,0-12.38-.1h-1c-.11,.01-.21-.02-.3-.08-.06-.08-.1-.17-.11-.27-.16-.96-.27-1.93-.32-2.9,0-.54-.13-1.07-.14-1.62s0-1,.7-1.08c1.5-.16,3-.09,4.49-.13,.46-.09,.91,.22,.99,.68,.02,.09,.02,.17,0,.26v1.8c0,.36-.12,.8,.24,1,.27,.14,.57,.2,.87,.17l6.48-.02Zm10.75-1.43c.16,2.16,.14,4.36,.13,6.52,.02,.16-.01,.33-.09,.47-.18,.17-.41,.26-.66,.25-1.84,.11-3.69,0-5.54,.16-1.66,.15-3.33,.2-5,.16h-5.1l-5.94,.17h-3c-.94,0-1.82-.11-2.76-.11-.62,.09-1.26-.09-1.74-.49-.24-.35-.36-.77-.34-1.2-.07-1.35-.14-2.68-.22-4l-.18-3.13c-.04-.27,0-.55,.11-.81,.29-.52,1.61-.35,2.12-.4,.53-.07,1.07-.07,1.6,0,.34,.06,.82,0,1,.37,.12,.27,.15,.58,.11,.87,0,.5,0,1,.06,1.51,.09,1,.17,2,.24,3,0,.37,.13,.72,.37,1,.29,.21,.65,.29,1,.25l13,.09c.85,0,1.69,0,2.54,.08,.76,.06,1.52,.05,2.27-.03,.64-.06,1.15,0,1.47-.66,.22-.55,.31-1.15,.27-1.74,.06-1.07,.06-2.15,0-3.22-.02-.19-.02-.38,0-.57,.01-.22,.11-.42,.28-.57,.39-.3,1-.16,1.55-.19,2.47-.19,2.3,.26,2.45,2.22Zm-11.11-2.27c.1,0,.19,.03,.27,.09,.05,.06,.08,.13,.09,.21,.1,.61,.13,1.23,.08,1.84,0,.17-.03,.33-.12,.47-.23,.22-.54,.32-.85,.27h-1.45l-3.43-.07c-.25,.04-.51-.05-.69-.23-.29-.66-.39-1.39-.29-2.11,0-.17,0-.37,.17-.45,.06-.01,.12-.01,.18,0,.71-.18,1.45-.26,2.18-.24,1.29-.08,2.57,.07,3.86,.22Zm46.43-.48c.5,.3,.26,1.12,.28,1.58s.06,1.06,.06,1.61c.01,.18-.01,.37-.08,.54-.21,.42-.75,.48-1.2,.49l-6.59,.14c-1.67,.09-3.35,0-5-.25-.23-.03-.45-.11-.65-.22-.09-.06-.17-.14-.23-.23-.09-.17-.14-.35-.15-.54-.12-.83-.2-1.68-.22-2.52,0-.09,.02-.17,.09-.23,.03-.03,.07-.05,.12-.06,.54-.16,1.1-.26,1.67-.28,.38,0,1.59-.07,1.84,.16,.51,.47,.19,1.3,.33,1.91,.01,.11,.06,.21,.14,.29,.09,.06,.2,.1,.31,.09,1.73,.13,3.46,.19,5.19,.15,.4,.05,.79-.08,1.07-.37,.14-.28,.15-.61,.05-.9-.1-.29-.1-.6,0-.89,.17-.43,.87-.37,1.25-.43s1.3-.33,1.72-.09v.05Zm-4.17,.23c.37,.17,.24,.88,.24,1.19,.02,.11-.02,.21-.09,.29-.05,.04-.11,.07-.17,.08-.31,.04-.61,.04-.92,0h-2.99c-.25,0-.57,0-.7-.22-.06-.12-.08-.26-.06-.39v-.46c-.01-.13,.01-.26,.07-.37,.16-.18,.39-.29,.63-.27,.61,0,1.23-.11,1.83-.11s1.12,.17,1.66,.15c.17-.03,.34,0,.5,.06v.05Zm313.83,.43c.26,.64-.31,1.6,.22,2.17,.21,.17,.48,.24,.74,.19h1.91c.22,.02,.44-.04,.62-.18,.12-.16,.17-.36,.15-.56,0-.59-.22-1.67,.57-1.85,.43-.16,.91,.05,1.07,.48,.02,.04,.03,.09,.04,.13,.02,.2,.02,.4,0,.6,0,.52,.13,1,.14,1.56,0,.68,0,1.3-.5,1.54-.18,.09-.38,.13-.58,.12l-5.56-.17c-.18,.02-.36-.02-.51-.11-.19-.2-.28-.47-.25-.74,0-1.05-.12-2.1-.18-3.15,0-.11,0-.25,.11-.31,.04-.02,.09-.02,.13,0,.49-.09,1.62-.44,1.88,.23v.05Zm2.46-.21c.41,.18,.46,.5,.5,.92,.05,.78-1,.83-1.61,.66-.08-.02-.15-.06-.22-.11-.1-.11-.15-.26-.14-.41,0-.15,0-.29-.05-.43v-.1c0-.23,0-.49,.15-.61,.44-.18,.94-.16,1.37,.03v.05Zm-7.06-.35c.43,0,1.13,0,1.32,.45,.06,.16,.08,.33,.08,.5l.12,2.78c0,.52-.21,1.5,.21,1.89,.22,.15,.48,.21,.74,.18l5.69-.07c.84,.1,1.69,.06,2.52-.1,.54-.18,.51-.63,.52-1.15v-2.67c0-.43-.14-1.65,.55-1.64h1.27c.28,0,.62,0,.72,.32,.07,.33,.09,.67,.06,1,0,1.77,0,3.53-.11,5.3,0,.25-.04,.51-.11,.75-.24,.62-.89,.53-1.43,.6s-1.32,.1-2,.14c-1.32,.07-2.65,.1-4,.09h-6.63c-.62,0-1.86,.23-2.13-.44-.07-.18-.1-.37-.09-.56-.07-2.18-.13-4.36-.19-6.54-.03-.17,0-.34,.06-.49,.02-.04,.05-.08,.09-.1,.51-.45,2.25-.3,2.74-.29v.05Zm-159.78-1.62c-.07,0-.09-.13-.12-.2-.24-.91-.32-1.86-.25-2.8v-2.45c0-.14,.03-.28,.1-.4,.13-.11,.3-.16,.47-.15l1.25-.06c1,0,1.93,0,2.9-.06,4-.06,8,0,12.09,.18,.21,0,.43,.05,.63,.11,.22,.08,.41,.23,.52,.44,.14,.35,.19,.73,.14,1.1v3.35c.02,.15-.01,.3-.08,.43-.08,.11-.21,.18-.35,.2-.24,.05-.48,.07-.72,.08-.52,0-1,0-1.56,.06-.07,0-.15,0-.21-.05-.18-.15-.2-.8-.21-1v-1.72c0-.58-.6-.45-.94-.46-1.67-.07-3.36-.13-5-.21-1.12-.08-2.25-.03-3.36,.17-.1,.02-.21,.06-.3,.11-.17,.18-.24,.43-.21,.67,0,.66,0,1.32-.06,2,.05,.35-.18,.68-.53,.73-.07,.01-.14,.01-.21,0-1.27,.09-2.55,.12-3.83,.07-.07-.03-.12-.08-.16-.14Zm-45.93,.38c-.57,0-1-.28-1-.92,0-1.62-.13-3.22-.07-4.85,0-.42,.08-.93,.47-1.12,.17-.08,.36-.11,.55-.09,7.61-.06,15.22-.06,22.83,0,1.31,0,.85,1.87,.85,2.74v1.91c0,.65,.34,1.9-.61,1.91l-2.89,.04c-.21,.03-.43-.03-.59-.17-.06-.11-.09-.24-.09-.37,0-.88-.09-1.73-.14-2.61,.02-.17-.02-.34-.12-.48-.18-.16-.41-.23-.65-.2l-11.78,.13h-3.38c-.87,.23-.56,2.2-.52,2.85,0,.32,.18,.78-.1,1.05-.14,.12-.32,.19-.5,.19-.75,.07-1.51,.07-2.26,.02v-.03Zm9.42,0c-.37,.07-.74-.05-1-.32-.15-.24-.09-.56,.13-.74,.23-.13,.51-.17,.77-.11,1.53,.11,3.07,.08,4.59-.1,.13-.03,.27,0,.37,.09,.14,.15,0,.76-.1,.92s-.67,.29-1.11,.26-.72,0-.94,0h-2.71Zm-72.13,1.92c0,1,0,2,.08,2.94-.01,.16,.03,.32,.12,.46,.18,.15,.41,.21,.64,.18h1.69l5.47-.12c.26,.03,.51-.05,.7-.23,.1-.16,.15-.34,.14-.53v-2.51c-.05-.16-.05-.33,0-.49,.18-.37,2-.27,2.47-.27,.44-.06,.88,.02,1.27,.24,.72,.58,.45,2.37,.51,3.16,.07,.53,.1,1.07,.06,1.6,0,.44,.05,1-.43,1.19-.28,.1-.58,.12-.88,.08-1.63-.08-3.25,0-4.87,0h-2.13c-1.16,0-2.32-.05-3.47-.06-1,0-1.91-.07-2.87-.06h-1.66c-.14,0-.28-.01-.41-.06-.43-.24-.28-1.79-.31-2.23-.06-1-.12-1.93-.19-2.9,0-.33,0-.72,.24-.92,.17-.11,.37-.17,.57-.17,.8-.08,1.59,0,2.39-.08,.53,.04,.9,.1,.87,.78Zm3.64-.67c1.31-.04,2.62,.04,3.91,.22,.08,0,.16,.03,.23,.07,.1,.11,.14,.26,.12,.41,0,.59-.05,1.17-.07,1.76,0,.18-.05,.36-.15,.51-.18,.14-.4,.2-.62,.17-1.8,0-3.6,0-5.41-.06h-.1s-.09,.01-.14,0c-.17-.08-.2-.3-.21-.48,0-.57-.05-1.13-.07-1.7,0-.24-.11-.58,.21-.7h.18c.7-.13,1.41-.19,2.12-.2Zm-8.92,1.1c.06,1.52,.11,3,.19,4.53,0,.94,.26,1.67,1.33,1.71l1.6,.03h2c.67,0,1.18-.1,1.78-.1,.41,0,.82,.05,1.23,.09h2.35l6.54-.06h1.1c.35,.04,.69-.02,1-.19,.62-.42,.27-2.21,.26-2.86,0-.92-.11-1.84-.11-2.76s0-1.26,.85-1.36c.51-.04,1.01-.04,1.52,0,.67-.08,1.35-.02,2,.17,.05,.01,.1,.04,.14,.08,.29,.22,.28,.57,.29,1,0,3.1,.03,6.2,.1,9.3,0,1.18-2.14,1-2.94,1h-14.16c-3.15,0-6.28-.05-9.43-.11-.55,0-1.38-.06-1.64-.65-.12-.36-.15-.74-.09-1.12,.2-3-.42-6.09-.19-9.14,.07-.83,.61-.84,1.31-.83,1.09,.12,2.91-.34,2.97,1.27Zm22.3-2.64h-2.44c-.61,0-.88-.46-.9-1-.09-2.05-.03-4.11,.16-6.16,0-.29,.11-.56,.29-.78,.27-.2,.61-.29,.94-.25,3.84,0,7.68,.21,11.52,.15,4.18-.07,8.38-.52,12.53,0,.27,0,.57,.1,.67,.34,.03,.09,.05,.18,.05,.28,0,1.6,.08,3.2,.13,4.8,.11,.66,.13,1.33,.06,2-.2,1-1,.75-1.74,.71h-.93c-.35-.02-.71-.02-1.06,0-.18,.02-.35,0-.52-.07-.34-.16-.38-.53-.4-1.08v-2.58c.02-.22-.03-.45-.15-.64-.2-.18-.47-.27-.74-.25l-3.68-.23c-1.94-.17-3.88-.21-5.82-.11-.6,0-1.21,.11-1.81,.14-1.23,.06-2.44,0-3.66,.06-.11,0-.21,.02-.31,.06-.37,.15-.42,.66-.4,1.06l.07,2.54c.03,.24,0,.49-.1,.71-.33,.51-1.3,.3-1.76,.3h0Zm7.64,.17c-.31,.08-.63-.11-.71-.43-.08-.31,.11-.63,.43-.7,.27-.12,.56-.16,.85-.13l4.66,.2c.14-.01,.28,.02,.4,.08,.27,.18,.17,.64-.11,.83-.52,.34-1.56,.14-2.15,.14h-3.37Zm7.16,.01c-.05,.02-.12,.02-.17,0-.05-.06-.08-.13-.08-.21l-.09-1.53c0-.1-.02-.2-.07-.29-.1-.09-.23-.13-.36-.11-1.44,0-2.87-.05-4.3,0l-2.14,.08c-.36,0-1.43-.07-1.62,.37-.03,.1-.03,.22,0,.32,0,.21,0,.43,.08,.63,.07,.62-.06,.74-.64,.69-.61-.03-1.21-.03-1.82,0-.19,.03-.38-.02-.53-.14-.17-.17-.14-.55-.15-.77v-1.47c-.02-.17,0-.33,.06-.49,.19-.45,.77-.52,1.24-.54l6-.08c2,0,4-.06,6,.07,.33-.04,.65,.1,.85,.36,.06,.14,.08,.29,.08,.44v1.39c.07,.33,.07,.67,0,1-.32,.59-1.74,.26-2.32,.26l-.02,.02Zm-97.75,.19c-.37,.07-.74-.05-1-.32-.15-.24-.09-.56,.13-.74,.23-.13,.51-.17,.77-.11,1.53,.11,3.07,.08,4.59-.1,.13-.03,.27,0,.37,.09,.14,.15,0,.76-.1,.92s-.67,.29-1.11,.26-.72,0-.94,0h-2.71Zm49.38-.49c-.33,.08-.66,.13-1,.15-.56,0-.55-.32-.55-.83,0-.3,0-.68-.27-.8-.09-.04-.19-.06-.29-.05h-2.73c-.12-.01-.25,.01-.36,.06-.15,.08-.24,.23-.26,.4-.02,.16-.02,.33,0,.49,.03,.11,.03,.21,0,.32-.12,.39-1.09,.58-1.32,.2-.02-.07-.02-.13,0-.2v-1.43c-.04-.31,.07-.63,.3-.85,.16-.09,.35-.13,.54-.11l3.2,.09,2.49,.11c.12,0,.23,.03,.34,.08,.15,.15,.23,.36,.21,.57v1.31c.03,.16-.01,.32-.13,.43-.05,.02-.11,.04-.17,.04v.02Zm-4.12,.11c-.36,0-.76-.45-.31-.72,.16-.07,.33-.09,.5-.08,.17,0,.34,.02,.51,.05,.27,.04,.53,.06,.8,.07,.05-.02,.09-.02,.14,0,.08,.06,.12,.16,.09,.25-.03,.19-.16,.34-.33,.42-.46,.08-.94,.08-1.4,0v.02Zm-14.26-.29c-.54-.22-.4-1.26-.4-1.71V7.76c-.02-.28,.03-.56,.16-.81,.3-.53,1.05-.56,1.67-.52,5.48,.31,11,.28,16.49,.25h8.89c.55-.07,1.1,.12,1.49,.52,.15,.24,.23,.5,.24,.78,.11,.93,.14,1.86,.09,2.79-.19,1.39-.22,2.79-.09,4.19,.12,.41,.15,.85,.09,1.28-.16,.59-.67,.55-1.14,.65-.27,.05-.67,0-1,0l-1.28,.07c-.22,.06-.44-.07-.5-.29-.01-.05-.02-.11,0-.17-.17-1.93-.25-3.87-.26-5.8,.03-.21-.04-.43-.2-.58-.1-.05-.21-.07-.32-.08-.9,0-1.8-.09-2.69-.11-2.3,0-4.59-.06-6.88-.06h-9.87c-.21-.03-.43,.05-.57,.21-.05,.1-.07,.21-.06,.32,0,2.05-.07,4.09,0,6.12,.02,.12-.01,.24-.08,.34-.07,.11-.19,.13-.32,.16h-.11c-.5,0-1,.06-1.49,.05s-.86-.17-1.32-.19c-.18,.02-.36,0-.53-.04v.02Zm5.51,.27c-.07,0-.09-.13-.12-.2-.24-.93-.33-1.89-.25-2.85v-2.45c-.01-.14,.02-.28,.1-.4,.15-.13,.34-.18,.53-.15l1.25-.06c1,0,1.93,0,2.9-.06,4.05-.06,8,0,12.09,.18,.21,0,.43,.05,.63,.11,.22,.08,.41,.23,.52,.44,.14,.35,.19,.73,.14,1.1,0,1.12,0,2.23,.05,3.35,.02,.15-.01,.3-.08,.43-.08,.11-.21,.18-.35,.2-.24,.05-.48,.07-.72,.08-.52,0-1,0-1.56,.06-.07,0-.15,0-.21-.05-.18-.15-.2-.8-.21-1v-1.72c0-.58-.6-.45-.94-.46-1.67-.07-3.36-.13-5-.21-1.13-.08-2.26-.03-3.37,.17-.1,.02-.2,.06-.29,.11-.17,.18-.24,.43-.21,.67,0,.66,0,1.32-.06,2,.01,.18-.03,.35-.13,.5-.16,.16-.38,.24-.61,.23-1.27,.09-2.55,.12-3.83,.07-.1,0-.2-.06-.27-.14v.05Zm-29,.05c-.29,0-.83,.12-1-.12-.12-.16-.18-.36-.16-.56,.05-.2,.05-.41,0-.61-.14-.43-.7-.49-1.15-.46l-7.06,.29c-.06-.02-.13-.02-.19,0-.06,.06-.1,.13-.11,.21-.06,.27-.06,.56,0,.83,.05,.15,.05,.31,0,.46-.1,.22-.38,.26-.61,.27-.6,0-1.21,.05-1.81,.09-.14,.02-.29,.02-.43,0-.58-.15-.58-2.76,0-3,.08-.02,.15-.02,.23,0,4.44-.34,8.9-.37,13.35-.07,.07,0,.14,.02,.19,.06,.07,.07,.11,.16,.1,.26,.06,.55,.11,1.11,.17,1.66,.02,.14,0,.27-.05,.4-.3,.24-1.21,.26-1.51,.27l.04,.02Zm-16.89,.33c-.57,0-1-.28-1-.92,0-1.62-.13-3.22-.07-4.85,0-.42,.08-.93,.47-1.12,.17-.07,.36-.11,.54-.09,7.62-.06,15.23-.06,22.84,0,1.31,0,.85,1.87,.85,2.74v1.91c0,.65,.34,1.9-.61,1.91l-3,.07c-.21,.03-.43-.03-.59-.17-.06-.11-.09-.24-.09-.37,0-.88-.09-1.73-.14-2.61,.02-.17-.02-.34-.12-.48-.18-.16-.41-.23-.65-.2l-11.78,.13h-3.38c-.87,.23-.56,2.2-.52,2.85,0,.32,.18,.78-.1,1.05-.14,.12-.32,.19-.5,.19-.73,.04-1.46,.02-2.19-.06l.04,.02Zm98.57,1.86c.11,.28,.15,.59,.12,.89,0,2.24,.15,4.52,.22,6.77s.13,4.5,.13,6.76c.01,.18-.02,.36-.1,.53-.18,.31-.84,.25-1.15,.28l-1.89,.07-3.75,.11-7.44,.29c-.8,0-1.62,.06-2.41,.05-3-.05-6.1,.07-9.14,0s-6.27-.11-9.42-.2h-1.12c-.37,.06-.71-.2-.76-.56,0-.04,0-.09,0-.13-.27-2.19-.39-4.39-.35-6.59,0-1.34-.15-2.7-.24-4.05s0-2.48-.13-3.71c-.09-.35-.02-.72,.2-1,.23-.17,.51-.26,.79-.25h1.63c.12,.01,.23,.06,.33,.13,.04,.03,.08,.08,.1,.13,.05,.11,.06,.24,.05,.36-.04,1.9,.05,3.81,.26,5.7,.09,.94,.15,1.89,.16,2.84-.06,.82-.01,1.64,.13,2.45,.1,.75,.75,1.31,1.51,1.28h.8c1.4,.05,2.84-.07,4.27-.07h4.79l9.34-.06h2.72c2.07,0,4.16,0,6.22-.24,.16,0,.33-.05,.46-.14,.16-.19,.24-.43,.2-.68v-9.62c0-.42-.21-1.14,.08-1.49,.4-.5,1.39-.36,1.94-.31s1.18,0,1.42,.44l.04,.02Zm32.13,3.43c.26,.01,.52-.03,.75-.14,.61-.38,.22-2.29,.22-2.92,0-.21,0-.46,.23-.54h.07c.46-.08,.94-.11,1.41-.06,.4,0,.8,.06,1.22,.06,.57,0,1.1-.11,1.36,.48,.24,.91,.29,1.86,.15,2.79,0,.69,.31,2.25-.39,2.65-.25,.13-.53,.2-.81,.18-.8,0-1.59-.13-2.37-.17h-1.37c-4.12,.12-8.25,0-12.38-.1h-1c-.11,.01-.21-.02-.3-.08-.06-.08-.1-.17-.11-.27-.16-.96-.27-1.93-.32-2.9,0-.54-.13-1.07-.14-1.62s0-1,.7-1.08c1.5-.16,3-.09,4.49-.13,.46-.09,.91,.22,.99,.68,.02,.09,.02,.17,0,.26v1.8c0,.36-.12,.8,.24,1,.27,.14,.57,.2,.87,.17l6.48-.06Zm10.75-1.43c.16,2.16,.15,4.36,.13,6.52,.02,.16-.01,.33-.09,.47-.18,.17-.41,.26-.66,.25-1.84,.11-3.69,0-5.54,.16-1.66,.15-3.33,.2-5,.16h-5.1l-6,.1-3.04,.05c-.95,0-1.83-.11-2.77-.11-.62,.09-1.26-.09-1.74-.49-.24-.35-.36-.77-.34-1.2-.07-1.35-.14-2.68-.22-4l-.18-3.13c-.04-.27,0-.55,.11-.81,.29-.52,1.61-.35,2.12-.4,.53-.07,1.07-.07,1.6,0,.34,.06,.82,0,1,.37,.12,.27,.15,.58,.11,.87,0,.5,0,1,.06,1.51,.09,1,.17,2,.25,3,0,.37,.12,.72,.36,1,.29,.21,.65,.29,1,.25l12.95,.09c.85,0,1.69,0,2.54,.08,.79,.03,1.57-.02,2.35-.14,.64-.06,1.15,0,1.47-.66,.22-.55,.32-1.15,.28-1.74,0-1.08,.09-2.14,0-3.22-.02-.19-.02-.38,0-.57,.01-.22,.11-.42,.28-.57,.39-.3,1-.16,1.55-.19,2.5-.08,2.33,.37,2.48,2.33l.04,.02Zm-11.14-2.29c.09,0,.19,.03,.26,.09,.05,.06,.08,.13,.09,.21,.11,.61,.13,1.23,.08,1.84,0,.17-.03,.33-.12,.47-.23,.22-.54,.32-.85,.27h-1.45l-3.43-.07c-.25,.04-.51-.05-.69-.23-.29-.66-.39-1.39-.29-2.11-.02-.17,.04-.34,.17-.45,.06-.01,.12-.01,.18,0,.71-.18,1.45-.26,2.18-.24,1.29-.08,2.57,.07,3.87,.22Zm46.42-.48c.5,.3,.26,1.12,.28,1.58s.06,1.06,.06,1.61c.01,.18-.01,.37-.08,.54-.21,.42-.75,.48-1.2,.49l-6.59,.14c-1.67,.09-3.35,0-5-.25-.23-.03-.45-.11-.65-.22-.09-.06-.17-.14-.23-.23-.09-.17-.14-.35-.15-.54-.12-.83-.2-1.68-.22-2.52,0-.09,.02-.17,.09-.23,.03-.03,.07-.05,.12-.06,.54-.16,1.1-.26,1.67-.28,.38,0,1.59-.07,1.84,.16,.51,.47,.2,1.3,.33,1.91,.01,.11,.06,.21,.14,.29,.09,.06,.2,.1,.31,.09,1.73,.13,3.46,.19,5.19,.15,.4,.05,.79-.08,1.07-.37,.14-.28,.15-.61,.05-.9-.1-.29-.1-.6,0-.89,.17-.43,.87-.37,1.25-.43s1.3-.33,1.72-.09v.05Zm-4.17,.23c.37,.17,.24,.88,.24,1.19,.02,.11-.02,.21-.09,.29-.05,.04-.11,.07-.17,.08-.31,.04-.61,.04-.92,0h-2.99c-.25,0-.57,0-.7-.22-.06-.12-.08-.26-.06-.39v-.46c-.01-.13,.01-.26,.08-.37,.15-.19,.38-.29,.62-.27,.61,0,1.23-.11,1.83-.11s1.12,.17,1.66,.15c.17-.03,.34,0,.5,.06v.05Zm40.55,.6c0,1,0,2,.08,2.94-.01,.16,.03,.32,.12,.46,.18,.15,.41,.21,.64,.18h1.7l5.46-.12c.26,.03,.51-.05,.7-.23,.09-.15,.13-.33,.12-.51v-2.51c-.03-.16,0-.33,.06-.48,.18-.37,2-.27,2.47-.27,.44-.06,.88,.02,1.27,.24,.72,.58,.45,2.37,.51,3.16,.07,.53,.1,1.07,.06,1.6,0,.44,.05,1-.43,1.19-.29,.11-.61,.14-.92,.09-1.63-.08-3.25,0-4.87,0h-2.09c-1.16,0-2.32-.05-3.47-.06-1,0-1.91-.07-2.87-.06h-1.72c-.14,0-.28-.01-.41-.06-.43-.24-.28-1.79-.31-2.23-.06-1-.12-1.93-.19-2.9,0-.33,0-.72,.24-.92,.17-.11,.37-.17,.57-.17,.8-.08,1.59,0,2.39-.08,.56-.05,.93,0,.93,.69l-.04,.05Zm3.64-.67c1.31-.04,2.62,.04,3.91,.22,.08,0,.16,.03,.23,.07,.1,.11,.14,.26,.12,.41,0,.59-.05,1.17-.07,1.76,0,.18-.04,.36-.15,.51-.18,.14-.4,.2-.62,.17-1.8,0-3.6,0-5.41-.06h-.1s-.09,.01-.14,0c-.17-.08-.19-.3-.21-.48,0-.57-.05-1.13-.07-1.7,0-.24-.11-.58,.21-.7h.18c.7-.18,1.41-.24,2.12-.25v.05Zm-8.92,1.1c.06,1.52,.11,3,.19,4.53,0,.94,.26,1.67,1.33,1.71h3.61c.67,0,1.18-.1,1.78-.1,.41,0,.82,.05,1.23,.09h2.35l6.54-.06h1.13c.35,.04,.69-.02,1-.19,.62-.42,.27-2.21,.26-2.86,0-.92-.11-1.84-.11-2.76s0-1.26,.85-1.36c.51-.04,1.01-.04,1.52,0,.67-.08,1.35-.02,2,.17,.05,.01,.1,.04,.14,.08,.29,.22,.28,.57,.29,1,0,3.1,.07,6.2,.1,9.3,0,1.18-2.14,1-2.94,1h-14.16c-3.15,0-6.28-.05-9.43-.11-.55,0-1.38-.06-1.64-.65-.12-.36-.15-.74-.09-1.12,.2-3-.41-6.09-.18-9.14,.06-.83,.6-.84,1.3-.83,1.07,.1,2.87-.36,2.93,1.25v.05Zm28.5-.46c.11,.28,.15,.59,.12,.89,0,2.24,.15,4.52,.22,6.77s.13,4.5,.13,6.76c.01,.18-.02,.36-.1,.53-.18,.31-.84,.25-1.15,.28l-1.89,.07-3.68,.13-7.44,.29c-.8,0-1.61,.06-2.41,.05-3-.05-6.1,.07-9.13,0s-6.28-.11-9.43-.2h-1.12c-.37,.06-.71-.2-.76-.56,0-.04,0-.09,0-.13-.27-2.19-.39-4.39-.35-6.59,0-1.34-.15-2.7-.24-4.05s0-2.48-.13-3.71c-.09-.35-.02-.72,.2-1,.23-.17,.51-.26,.79-.25h1.69c.11,.01,.21,.05,.3,.12,.05,.03,.08,.08,.1,.13,.05,.11,.06,.24,.05,.36-.04,1.9,.05,3.81,.26,5.7,.09,.94,.15,1.89,.16,2.84-.06,.82-.01,1.64,.13,2.45,.12,.74,.77,1.27,1.51,1.24h.8c1.4,.05,2.84-.07,4.27-.07h4.71l9.34-.06h2.72c2.07,0,4.16,0,6.22-.24,.16,0,.33-.05,.46-.14,.16-.19,.24-.43,.2-.68v-9.62c0-.42-.21-1.14,.08-1.49,.4-.5,1.39-.36,1.94-.31s1.2,0,1.44,.44v.05Zm32.13,3.43c.26,.01,.52-.03,.75-.14,.62-.38,.22-2.29,.22-2.92,0-.21,0-.46,.23-.54h.07c.46-.12,.94-.17,1.42-.15,.39,0,.79,.06,1.21,.06,.57,0,1.1-.11,1.36,.48,.24,.91,.29,1.86,.15,2.79,0,.69,.31,2.25-.39,2.65-.25,.13-.53,.2-.81,.18-.8,0-1.59-.13-2.37-.17h-1.37c-4.12,.12-8.25,0-12.38-.1h-1c-.11,.01-.21-.02-.3-.08-.06-.08-.1-.17-.11-.27-.16-.96-.27-1.93-.32-2.9,0-.54-.13-1.07-.14-1.62s0-1,.7-1.08c1.5-.16,3-.09,4.49-.13,.47-.06,.89,.27,.95,.74,0,.07,0,.13,0,.2v1.8c0,.36-.12,.8,.24,1,.27,.14,.57,.2,.87,.17l6.53,.03Zm10.75-1.43c.16,2.16,.15,4.36,.13,6.52,.02,.16-.01,.33-.09,.47-.17,.17-.41,.26-.66,.25-1.84,.11-3.69,0-5.54,.16-1.66,.15-3.33,.2-5,.16h-5.09l-6,.1-3,.05c-.95,0-1.83-.11-2.77-.11-.62,.09-1.26-.09-1.74-.49-.24-.35-.36-.77-.34-1.2-.07-1.35-.14-2.68-.22-4l-.18-3.13c-.04-.27,0-.55,.11-.81,.29-.52,1.61-.35,2.12-.4,.53-.07,1.07-.07,1.6,0,.34,.06,.82,0,1,.37,.12,.27,.15,.58,.11,.87,0,.5,0,1,.06,1.51,.09,1,.17,2,.25,3,0,.37,.12,.72,.36,1,.29,.21,.65,.29,1,.25l12.95,.09c.85,0,1.69,0,2.54,.08,.78,.05,1.56,.03,2.34-.06,.64-.06,1.15,0,1.47-.66,.22-.55,.32-1.15,.28-1.74,0-1.08,.09-2.14,0-3.22-.02-.19-.02-.38,0-.57,.01-.22,.11-.42,.28-.57,.39-.3,1-.16,1.55-.19,2.5-.19,2.34,.26,2.48,2.22v.05Zm-11.06-2.32c.09,0,.19,.03,.26,.09,.05,.06,.08,.13,.09,.21,.11,.61,.13,1.23,.08,1.84,0,.17-.03,.33-.12,.47-.23,.22-.54,.32-.85,.27h-1.45l-3.43-.07c-.25,.04-.51-.05-.69-.23-.29-.66-.39-1.39-.29-2.11-.02-.17,.04-.34,.17-.45,.06-.01,.12-.01,.18,0,.71-.18,1.45-.26,2.18-.24,1.25-.08,2.53,.07,3.87,.22Zm46.43-.48c.49,.3,.25,1.12,.27,1.58s.06,1.06,.06,1.61c.01,.18-.01,.37-.08,.54-.21,.42-.75,.48-1.2,.49l-6.59,.14c-1.67,.09-3.35,0-5-.25-.23-.03-.45-.11-.65-.22-.09-.06-.17-.14-.23-.23-.09-.17-.14-.35-.15-.54-.12-.83-.2-1.68-.22-2.52,0-.09,.02-.17,.09-.23,.03-.03,.07-.05,.12-.06,.54-.16,1.1-.26,1.67-.28,.38,0,1.59-.07,1.84,.16,.51,.47,.2,1.3,.33,1.91,.01,.11,.06,.21,.14,.29,.09,.06,.2,.1,.31,.09,1.73,.13,3.46,.19,5.19,.15,.4,.05,.79-.08,1.07-.37,.14-.28,.15-.61,.05-.9-.1-.29-.1-.6,0-.89,.17-.43,.87-.37,1.25-.43s1.3-.33,1.69-.09l.04,.05Zm-4.18,.23c.37,.17,.24,.88,.24,1.19,.04,.17-.07,.33-.24,.37h-.01c-.31,.04-.62,.04-.93,0h-2.99c-.25,0-.57,0-.7-.22-.06-.12-.08-.26-.06-.39v-.46c-.01-.13,.01-.26,.08-.37,.15-.19,.39-.29,.63-.27,.6,0,1.22-.11,1.82-.11s1.12,.17,1.66,.15c.16-.02,.31,0,.46,.06l.04,.05Zm-20.36-1.53c-.19,.25-.67,.29-1.11,.26s-.72,0-.94,0h-2.71c-.37,.07-.74-.05-1-.32-.15-.24-.09-.56,.13-.74,.23-.13,.51-.17,.77-.11,1.53,.11,3.07,.08,4.59-.1,.13-.03,.27,0,.37,.09,.1,.1,0,.7-.14,.87l.04,.05Zm44.86-.31c-.07,.04-.15,.07-.23,.08-.33,.08-.66,.13-1,.15-.56,0-.54-.32-.54-.83,0-.3,0-.68-.28-.8-.09-.04-.19-.06-.29-.05h-2.73c-.12-.01-.25,.01-.36,.06-.15,.08-.24,.23-.26,.4-.02,.16-.02,.33,0,.49,.03,.11,.03,.21,0,.32-.12,.39-1.09,.58-1.32,.2-.02-.07-.02-.13,0-.2v-1.43c-.04-.31,.07-.63,.3-.85,.16-.09,.35-.13,.54-.11,1.07,0,2.14,.05,3.2,.09l2.5,.11c.11,0,.23,.03,.33,.08,.15,.15,.23,.36,.21,.57v1.31c.01,.13-.03,.26-.11,.36l.04,.05Zm-4.36,.19c-.36,0-.75-.45-.31-.72,.16-.07,.33-.09,.5-.08,.17,0,.34,.02,.51,.05,.27,.04,.53,.06,.8,.07,.05-.02,.09-.02,.14,0,.08,.06,.12,.16,.09,.25-.03,.19-.16,.34-.33,.42-.48,.08-.97,.06-1.44-.04l.04,.05Zm-14.26-.29c-.54-.22-.4-1.26-.4-1.71V7.79c-.02-.28,.03-.56,.16-.81,.3-.53,1.05-.56,1.67-.52,5.49,.31,11,.28,16.49,.25h8.89c.55-.07,1.1,.12,1.49,.52,.15,.24,.23,.5,.24,.78,.11,.93,.14,1.86,.09,2.79-.19,1.39-.22,2.79-.09,4.19,.12,.41,.15,.85,.09,1.28-.16,.59-.67,.55-1.14,.65-.27,.05-.67,0-.94,0l-1.29,.07c-.12,.02-.25,0-.36-.07-.1-.11-.15-.25-.15-.39-.17-1.93-.25-3.87-.26-5.8,.03-.21-.04-.43-.2-.58-.1-.05-.21-.07-.32-.08-.9,0-1.8-.09-2.69-.11-2.3,0-4.59-.06-6.88-.06h-9.87c-.24-.08-.49,0-.66,.18-.05,.1-.07,.21-.06,.32,0,2.05-.07,4.09,0,6.12,.02,.12-.01,.24-.08,.34-.07,.11-.19,.13-.32,.16h-.11c-.5,0-1,.06-1.49,.05s-.86-.17-1.32-.19c-.18,.02-.36,0-.53-.04l.04,.05Zm5.51,.27c-.07,0-.09-.13-.12-.2-.26-.94-.36-1.91-.29-2.88v-2.45c0-.14,.03-.28,.1-.4,.13-.1,.29-.16,.45-.15l1.25-.06c1,0,1.93,0,2.9-.06,4.05-.06,8,0,12.09,.18,.21,0,.43,.05,.63,.11,.22,.08,.41,.23,.52,.44,.14,.35,.19,.73,.14,1.1,0,1.12,0,2.23,.05,3.35,.02,.15-.01,.3-.08,.43-.08,.11-.21,.18-.35,.2-.24,.05-.48,.07-.72,.08-.52,0-1,0-1.56,.06-.07,0-.15,0-.21-.05-.18-.15-.2-.8-.21-1v-1.72c0-.58-.6-.45-.94-.46-1.67-.07-3.36-.13-5-.21-1.12-.08-2.25-.03-3.36,.17-.1,.02-.21,.06-.3,.11-.17,.18-.24,.43-.21,.67,0,.66,0,1.32-.06,2,.01,.18-.03,.35-.12,.5-.16,.16-.39,.25-.62,.23-1.27,.09-2.55,.12-3.83,.07-.08-.03-.14-.08-.19-.14l.04,.08Zm-29,.05c-.29,0-.83,.12-1-.12-.12-.16-.18-.36-.16-.56,.05-.2,.05-.41,0-.61-.14-.43-.7-.49-1.15-.46l-7.06,.29c-.06-.02-.13-.02-.19,0-.06,.06-.1,.13-.11,.21-.06,.27-.06,.56,0,.83,.05,.15,.05,.31,0,.46-.1,.22-.38,.26-.61,.27-.6,0-1.21,.05-1.81,.09-.14,.02-.29,.02-.43,0-.58-.15-.58-2.76-.05-3,.08-.02,.15-.02,.23,0,4.44-.34,8.9-.37,13.35-.07,.07,0,.14,.02,.19,.06,.07,.07,.11,.16,.1,.26,.06,.55,.11,1.11,.17,1.66,.02,.14,0,.27-.05,.4-.29,.21-1.18,.23-1.5,.24l.08,.05Zm-16.89,.33c-.57,0-1-.28-1-.92,0-1.62-.13-3.22-.07-4.85,0-.42,.08-.93,.47-1.12,.17-.08,.36-.11,.55-.09,7.61-.06,15.22-.06,22.83,0,1.31,0,.85,1.87,.85,2.74v1.91c0,.65,.34,1.9-.61,1.91l-3,.07c-.21,.04-.42-.03-.58-.17-.07-.11-.1-.24-.1-.37,0-.88-.09-1.73-.13-2.61,.01-.17-.03-.34-.13-.48-.18-.16-.41-.23-.65-.2l-11.78,.13h-3.38c-.87,.23-.56,2.2-.52,2.85,0,.32,.18,.78-.1,1.05-.14,.12-.32,.19-.5,.19-.74,.03-1.49,0-2.23-.09l.08,.05Zm-45.75-.37h-2.44c-.61,0-.88-.46-.9-1-.1-2.04-.05-4.09,.13-6.13,0-.29,.11-.56,.29-.78,.26-.21,.59-.31,.92-.28,3.84,0,7.68,.21,11.52,.15,4.18-.07,8.38-.52,12.54,0,.26,0,.56,.1,.66,.34,.02,.09,.02,.19,0,.28,0,1.6,.08,3.2,.13,4.8,.11,.66,.13,1.33,.06,2-.2,1-1,.75-1.74,.71h-.93c-.35-.02-.71-.02-1.06,0-.18,.02-.35,0-.52-.07-.34-.16-.38-.53-.4-1.08,0-.86,0-1.72-.05-2.58,.02-.22-.03-.45-.15-.64-.2-.18-.47-.27-.74-.25l-3.68-.23c-1.94-.17-3.88-.21-5.82-.11-.6,0-1.21,.11-1.81,.14-1.23,.06-2.44,0-3.66,.06-.11,0-.21,.02-.31,.06-.37,.15-.42,.66-.4,1.06,0,.84,0,1.69,.07,2.54,.03,.24,0,.49-.1,.71-.2,.51-1.17,.3-1.61,.3Zm7.64,.17c-.31,.08-.63-.11-.7-.43-.08-.31,.11-.63,.42-.7h0c.27-.12,.56-.16,.85-.13l4.66,.2c.14-.01,.28,.02,.4,.08,.27,.18,.17,.64-.11,.83-.52,.34-1.56,.14-2.15,.14h-3.37Zm7.16,.01c-.05,.02-.12,.02-.17,0-.05-.06-.08-.13-.08-.21l-.09-1.53c0-.1-.02-.2-.07-.29-.1-.09-.23-.13-.36-.11-1.44,0-2.87-.05-4.29,0l-2.15,.08c-.36,0-1.43-.07-1.62,.37-.03,.1-.03,.22,0,.32,0,.21,.05,.43,.08,.63,.07,.62-.06,.74-.64,.69-.61-.03-1.21-.03-1.82,0-.22,.03-.44-.05-.59-.21-.17-.17-.14-.55-.15-.77v-1.47c-.02-.17,0-.34,.07-.49,.18-.45,.76-.52,1.23-.54l6-.08c2,0,4-.06,6,.07,.33-.04,.65,.1,.85,.36,.06,.14,.08,.29,.08,.44v1.39c.07,.33,.07,.67,0,1-.29,.66-1.7,.33-2.3,.33l.02,.02Zm-91.08-.26c-.12-.16-.18-.36-.16-.56,.05-.2,.05-.41,0-.61-.14-.43-.7-.49-1.15-.46l-7.06,.29c-.06-.02-.13-.02-.19,0-.06,.06-.1,.13-.11,.21-.06,.27-.06,.56,0,.83,.05,.15,.05,.31,0,.46-.1,.22-.38,.26-.61,.27-.6,0-1.21,.05-1.81,.09-.14,.02-.29,.02-.43,0-.58-.15-.58-2.76-.05-3,.08-.02,.15-.02,.23,0,4.44-.34,8.9-.37,13.35-.07,.07,0,.14,.02,.19,.06,.07,.07,.11,.16,.1,.26,.06,.55,.11,1.11,.17,1.66,.02,.14,0,.27-.05,.4-.16,.31-1,.33-1.37,.34s-.84,.03-1.05-.17Zm38.83,.09c-.36,0-.75-.45-.31-.72,.16-.07,.33-.09,.5-.08,.17,0,.34,.02,.51,.05,.27,.04,.53,.06,.8,.07,.05-.02,.09-.02,.14,0,.08,.06,.12,.16,.09,.25-.03,.19-.16,.34-.33,.42-.46,.08-.94,.07-1.4-.03v.04Zm4.13-.11c-.33,.08-.66,.13-1,.15-.56,0-.54-.32-.54-.83,0-.3,0-.68-.28-.8-.09-.04-.19-.06-.29-.05h-2.73c-.12-.01-.25,.01-.36,.06-.15,.08-.24,.23-.26,.4-.02,.16-.02,.33,0,.49,.03,.11,.03,.21,0,.32-.12,.39-1.09,.58-1.32,.2-.02-.07-.02-.13,0-.2v-1.43c-.04-.31,.07-.63,.3-.85,.16-.09,.35-.13,.54-.11,1.07,0,2.14,.05,3.2,.09l2.5,.11c.11,0,.23,.03,.33,.08,.15,.15,.23,.36,.21,.57v1.31c.03,.15-.01,.31-.12,.43-.06,.02-.12,.02-.18,.02v.04Zm-17-10.61c5.49,.31,11,.28,16.49,.25h8.89c.55-.07,1.1,.12,1.49,.52,.15,.24,.23,.5,.24,.78,.11,.93,.14,1.86,.09,2.79-.19,1.39-.22,2.79-.09,4.19,.12,.41,.15,.85,.09,1.28-.16,.59-.67,.55-1.14,.65-.27,.05-.67,0-.94,0l-1.29,.07c-.12,.02-.25,0-.36-.07-.1-.11-.15-.25-.15-.39-.17-1.93-.25-3.87-.26-5.8,.03-.21-.04-.43-.2-.58-.1-.05-.21-.07-.32-.08-.9,0-1.8-.09-2.69-.11-2.3,0-4.59-.06-6.88-.06h-9.87c-.21-.03-.43,.05-.57,.21-.05,.1-.07,.21-.06,.32,0,2.05-.07,4.09,0,6.12,.02,.12-.01,.24-.08,.34-.07,.11-.19,.13-.32,.16h-.11c-.5,0-1,.06-1.49,.05s-.86-.17-1.32-.19c-.18,.04-.37,.04-.55,0-.54-.22-.4-1.26-.4-1.71V7.8c-.02-.28,.03-.56,.16-.81,.3-.59,1.05-.62,1.67-.58l-.03,.04Z"/></svg>