<?xml version="1.0" encoding="UTF-8"?><svg id="a" xmlns="http://www.w3.org/2000/svg" viewBox="0 0 476.46 47.02"><defs><style>.b{fill:#649297;}.c{fill:#b7d685;}.d{fill:#3e342f;}</style></defs><path class="c" d="M420.35,24.17c.64,0,1.41-.13,2-.07,.13,0,.25,.09,.3,.22,.05,.15,0,.28-.12,.41-.44,.72-.95,1.39-1.53,2-1.24,1.52-2.4,3.11-3.48,4.75-.64,.88-1.3,1.76-2,2.63s-1.19,1.53-1.8,2.28c-.48,.59-1.06-.34-1.34-.69s-.57-.88-.88-1.3c-.77-1-1.52-2.09-2.26-3.15s-1.61-2.31-2.4-3.47c-.28-.43-2.31-2.81-1.93-3.4,0,0,.05-.06,.09-.09,.3-.16,.84,0,1.17,0h1.18c.59-.12,1.12-.12,1.65-.12h11.35Zm14.55,.32c-.15,0-.32,0-.37,.18-.03,.12,.01,.24,.1,.32,1.45,2.05,3.09,4.05,4.4,6.16,.12,.18,.26,.39,.46,.45,.3,.06,.61-.02,.84-.21l1.67-1.1c.15-.1,.29-.19,.33-.35,.02-.14-.02-.28-.09-.4-.71-1.51-1.45-3-2.13-4.51-.07-.17-.16-.32-.28-.46-.5-.51-1.52-.25-2.14-.22l-2.79,.14Zm20.86,1.1c-.36,.61-.84,1.17-1.22,1.77-.54,.81-1.54,1.81-.37,2.61,.36,.25,.76,.35,1.12,.6,.15,.12,.3,.23,.47,.32,.2,.09,.42,.09,.62,0,.28-.19,.51-.44,.67-.74l3.54-5.46c.22-.33-.51-.24-.7-.24-.51,0-1,0-1.51-.06-.53-.07-1.07-.04-1.59,.1-.59,.18-.73,.57-1.03,1.06v.04Zm-85,4.34c-.56-.84-1.17-1.63-1.83-2.39-.42-.79-1.01-1.49-1.71-2.05-.92-.61-2.14-.38-3.22-.25h-.44c-.19,0-.39,.06-.47,.22-.04,.18,.02,.36,.15,.48,1.37,1.83,2.73,3.65,4.1,5.46,.23,.37,.55,.67,.94,.86,.67,.26,1.32-.54,1.83-.87,.67-.47,1.1-.62,.64-1.5v.04Zm-34.75-4.69c-.37,0-1.49-.2-1.74,.17-.39,.55,1.1,2.49,1.41,3,1.86,3,3.81,5.94,5.9,8.81,.21,.3,.52,.64,.88,.58,.21-.06,.39-.18,.51-.36,.85-1.01,1.64-2.07,2.35-3.18,.93-1.37,1.85-2.73,2.78-4.08s1.77-2.93,2.82-4.31c.09-.09,.14-.22,.13-.35,0-.13-.15-.22-.29-.25h-.18c-.54,0-1.17,.09-1.69,.1h-6.44c-1.44,0-2.86,0-4.28-.07-.74,0-1.47-.01-2.16-.06Zm52.41-.87c-.74,.54-1.34,1.25-1.75,2.07-.46,.78-.94,1.49-1.43,2.24-.19,.25-.31,.55-.33,.87,0,.55,1.85,1.8,2.33,1.69,.3-.11,.54-.34,.67-.63,1-1.53,2-3,2.86-4.63,.23-.4,.68-.87,.71-1.35,.07-.79-1.63-.65-2.14-.58-.33,.04-.65,.15-.94,.32h.02Zm62.78,9.22c-.53,.29-.98,.74-1.27,1.27-.51,.78-1.03,1.56-1.56,2.34-.1,.23-.31,.39-.56,.44-.27,0-.47-.23-.62-.46l-1.73-2.56c-.14-.26-.35-.47-.61-.6-.41-.15-.76,.28-1.05,.49-.48,.35-1,.67-1.5,1-.11,.06-.2,.15-.26,.25-.05,.22,0,.44,.15,.61,.79,1.22,1.6,2.38,2.43,3.56,.4,.61,.84,1.18,1.27,1.77l.65,.88c.12,.17,.63,.67,.63,.87s.22,.4,.41,.33c.09-.04,.17-.11,.22-.2,.03-.03,.05-.06,.06-.1,.35-.49,.67-1,1-1.48s.74-1.07,1.11-1.61c.69-1,1.37-2,2-3,.31-.44,.53-.93,.82-1.38s.62-.65,.58-1.14-.55-.71-.83-1c-.35-.36-.89-.47-1.36-.28h.02Zm-69.58,0c-.94,1.19-1.81,2.44-2.61,3.73-.28,.45-.68,1-1.21,.9-.36-.11-.67-.36-.84-.7-.65-.91-1.29-1.83-1.93-2.74-.19-.35-.52-.61-.9-.72-.47-.07-1,.45-1.33,.68l-1.56,1c-.17,.11-.36,.23-.39,.43,0,.21,.08,.41,.23,.56l3.69,4.44,1.87,2.25c.39,.47,.95,1.46,1.61,1.58,.13,.03,.27,.02,.39-.05,.18-.11,.33-.28,.43-.47l5.72-9.11c.14-.17,.23-.38,.27-.6,.07-.51-.37-.94-.82-1.18-1.04-.52-1.73-1.15-2.64-.01h.02Zm-114.32-5.85c.8,1.16,1.59,2.33,2.41,3.47,.82,1.14,1.48,2.11,2.25,3.15,.31,.42,.56,.89,.88,1.3s.86,1.28,1.35,.69c.6-.75,1.2-1.5,1.79-2.28s1.33-1.75,2-2.63c1.07-1.64,2.23-3.23,3.47-4.75,.58-.61,1.09-1.28,1.53-2,.08-.13,.17-.26,.12-.41-.05-.12-.16-.21-.29-.22-.62-.06-1.39,.07-2,.07h-11.37c-.55,0-1.09,0-1.63,.06h-1.18c-.33,0-.87-.13-1.16,0,0,0-.08,.05-.1,.09-.36,.65,1.64,3.03,1.93,3.46Zm-70.9-2.49c-.38,0-1.49-.2-1.75,.17-.39,.55,1.1,2.49,1.41,3,1.86,3,3.81,5.94,5.9,8.81,.22,.3,.53,.64,.89,.58,.2-.06,.38-.19,.51-.36,.85-1.01,1.63-2.07,2.34-3.18l2.78-4.09c1-1.44,1.77-2.93,2.82-4.31,.09-.09,.14-.22,.13-.35,0-.13-.14-.22-.29-.25h-.18c-.53,0-1.16,.09-1.69,.1h-6.44c-1.44,0-2.85,0-4.28-.07-.72,.02-1.44,0-2.15-.05h0Zm34.77,4.65c-.56-.84-1.17-1.63-1.84-2.39-.42-.79-1.01-1.49-1.71-2.05-.92-.61-2.14-.38-3.22-.25h-.44c-.19,0-.39,.06-.47,.22-.04,.18,.02,.36,.15,.48l4.11,5.46c.22,.37,.54,.67,.93,.86,.67,.26,1.32-.54,1.83-.87,.68-.43,1.11-.58,.66-1.46h0Zm71.28,.4c.15-.1,.3-.19,.34-.35,0-.14-.03-.28-.1-.4-.71-1.5-1.45-3-2.13-4.51-.07-.17-.16-.32-.28-.46-.5-.51-1.52-.25-2.14-.22l-2.83,.1c-.14,0-.32,0-.37,.18-.02,.12,.02,.24,.11,.32,1.44,2.05,3.08,4.05,4.4,6.16,.12,.18,.25,.39,.45,.45,.3,.06,.61-.01,.85-.21l1.7-1.06Zm9.14,3.3c-.54,.29-.98,.73-1.28,1.27-.51,.78-1,1.56-1.55,2.34-.14,.21-.31,.43-.57,.44s-.47-.23-.61-.46l-1.74-2.56c-.13-.26-.35-.47-.61-.6-.4-.15-.75,.28-1.05,.49-.48,.35-1,.67-1.5,1-.11,.06-.19,.15-.26,.25-.05,.22,0,.44,.15,.61,.79,1.22,1.6,2.38,2.43,3.56,.4,.61,.84,1.18,1.27,1.77l.65,.88c.12,.17,.63,.67,.63,.87s.23,.4,.41,.33c.09-.04,.17-.11,.22-.2,.03-.03,.05-.06,.07-.1,.34-.49,.67-1,1-1.48s.74-1.07,1.12-1.61c.68-1,1.36-2,2-3,.31-.44,.53-.93,.82-1.38s.62-.65,.58-1.14-.55-.71-.83-1c-.35-.36-.89-.47-1.35-.28h0Zm-69.59,0c-.94,1.2-1.82,2.45-2.64,3.74-.28,.45-.68,1-1.21,.9-.36-.11-.67-.36-.84-.7l-1.93-2.74c-.19-.35-.52-.61-.9-.72-.47-.07-1,.45-1.33,.68l-1.55,1c-.18,.11-.37,.23-.39,.43-.01,.21,.07,.41,.22,.56l3.75,4.43c.61,.75,1.23,1.5,1.86,2.25,.39,.47,.95,1.46,1.61,1.58,.13,.03,.27,.02,.39-.05,.18-.11,.33-.28,.43-.47l5.73-9.11c.13-.18,.22-.38,.27-.6-.02-.52-.34-.98-.82-1.18-1.05-.52-1.73-1.15-2.64-.01h0Zm6.81-9.21c-.76,.53-1.38,1.24-1.8,2.07-.46,.78-.94,1.49-1.42,2.24-.2,.25-.32,.55-.34,.87,0,.55,1.85,1.8,2.34,1.69,.3-.11,.54-.34,.67-.63,1-1.53,2-3,2.85-4.63,.23-.4,.69-.87,.71-1.35,.07-.79-1.63-.65-2.14-.58-.31,.05-.6,.16-.87,.32Zm71.5,0c-.51,0-1,0-1.52-.06-.53-.07-1.07-.04-1.58,.1-.59,.22-.74,.61-1,1.1s-.84,1.17-1.22,1.77c-.52,.82-1.5,1.87-.37,2.65,.36,.25,.76,.35,1.12,.6,.15,.12,.31,.22,.47,.32,.2,.09,.42,.09,.62,0,.28-.19,.51-.44,.67-.74l3.51-5.46c.21-.33-.52-.24-.7-.24v-.04Zm-263.51,.87c-.38,0-1.49-.2-1.75,.17-.39,.55,1.1,2.49,1.41,3,1.87,3,3.81,5.94,5.9,8.81,.22,.3,.53,.64,.89,.58,.2-.06,.38-.19,.51-.36,.85-1.01,1.64-2.07,2.35-3.18,.9-1.38,1.9-2.74,2.77-4.09s1.78-2.93,2.82-4.31c.09-.09,.14-.22,.14-.35-.04-.14-.16-.24-.3-.25h-.17c-.54,0-1.17,.09-1.69,.1h-6.44c-1.43,0-2.86,0-4.28-.07-.73,.02-1.45,0-2.16-.05Zm70.91,2.49c.79,1.16,1.58,2.33,2.4,3.47,.82,1.14,1.49,2.11,2.25,3.15,.31,.42,.57,.89,.89,1.3s.86,1.28,1.34,.69c.6-.75,1.21-1.5,1.8-2.28s1.32-1.75,2-2.63c1.07-1.64,2.23-3.23,3.47-4.75,.58-.61,1.09-1.28,1.53-2,.08-.13,.18-.26,.12-.41s-.16-.2-.29-.22c-.62-.06-1.38,.07-2,.07h-11.38c-.55,0-1.09,0-1.62,.06h-1.21c-.34-.01-.88-.14-1.17-.01,0,0-.08,.05-.09,.09-.35,.66,1.68,3.04,1.96,3.47Zm35.14,2.56c.15-.1,.3-.19,.34-.35,.01-.14-.02-.28-.09-.4-.72-1.5-1.45-3-2.14-4.51-.07-.17-.16-.32-.28-.46-.5-.51-1.52-.25-2.13-.22l-2.83,.1c-.15-.02-.3,.05-.38,.18-.02,.12,.02,.24,.11,.32,1.45,2.05,3.08,4.05,4.4,6.16,.12,.18,.25,.39,.45,.45,.3,.06,.61-.01,.85-.21l1.7-1.06Zm-71.28-.4c-.56-.84-1.17-1.63-1.84-2.39-.43-.79-1.01-1.49-1.72-2.05-.93-.61-2.15-.38-3.22-.25h-.45c-.18,0-.38,.06-.46,.22-.04,.17,.01,.35,.14,.48,1.37,1.83,2.74,3.65,4.11,5.46,.22,.37,.55,.67,.94,.86,.67,.26,1.31-.54,1.82-.87,.71-.43,1.12-.58,.68-1.46Zm80.44,3.7c-.54,.29-.98,.73-1.28,1.27-.51,.78-1,1.56-1.55,2.34-.14,.21-.31,.43-.56,.44s-.47-.23-.62-.46l-1.73-2.56c-.14-.26-.35-.47-.62-.6-.4-.15-.75,.28-1.05,.49-.48,.35-1,.67-1.5,1-.1,.06-.19,.15-.25,.25-.06,.21,0,.44,.14,.61,.8,1.22,1.6,2.38,2.43,3.56,.4,.61,.85,1.18,1.28,1.77,.21,.29,.43,.58,.64,.88s.63,.67,.63,.87,.23,.4,.42,.33c.09-.04,.16-.11,.21-.2,.03-.02,.06-.06,.07-.1,.35-.49,.67-1,1-1.48l1.12-1.61c.68-1,1.37-2,2-3,.31-.44,.52-.93,.82-1.38s.61-.65,.57-1.14-.55-.71-.83-1c-.35-.36-.88-.47-1.34-.28Zm-62.8-9.22c-.75,.54-1.35,1.25-1.76,2.07-.45,.78-.94,1.49-1.42,2.24-.2,.25-.31,.55-.34,.87,0,.55,1.86,1.8,2.34,1.69,.3-.11,.54-.34,.67-.63,1-1.53,2-3,2.86-4.63,.22-.4,.68-.87,.71-1.35,.06-.79-1.64-.65-2.15-.58-.32,.05-.63,.16-.91,.32Zm-6.8,9.21c-.95,1.2-1.83,2.45-2.65,3.74-.28,.45-.68,1-1.2,.9-.37-.11-.67-.36-.85-.7l-1.93-2.74c-.19-.35-.52-.61-.9-.72-.47-.07-1,.45-1.33,.68l-1.55,1c-.18,.11-.36,.23-.39,.43-.01,.21,.07,.42,.23,.56l3.74,4.44c.62,.75,1.23,1.5,1.86,2.25,.39,.47,1,1.46,1.61,1.58,.13,.03,.27,.02,.39-.05,.18-.11,.33-.28,.43-.47l5.73-9.11c.13-.18,.22-.38,.27-.6,.07-.51-.38-.94-.82-1.18-1.04-.52-1.73-1.15-2.64-.01Zm78.3-9.17c-.51,0-1,0-1.52-.06-.53-.07-1.07-.04-1.58,.1-.59,.22-.74,.61-1,1.1s-.85,1.17-1.22,1.77c-.56,.85-1.54,1.85-.38,2.65,.36,.25,.77,.35,1.13,.6,.15,.12,.3,.23,.47,.32,.19,.09,.42,.09,.61,0,.28-.18,.52-.44,.67-.74,1.19-1.82,2.37-3.64,3.55-5.46,.18-.37-.54-.28-.73-.28ZM32.38,33.59c-.53,.29-.98,.74-1.27,1.27-.51,.78-1,1.56-1.56,2.34-.1,.23-.31,.39-.56,.44-.27,0-.47-.23-.62-.46l-1.73-2.56c-.14-.26-.35-.47-.62-.6-.4-.15-.75,.28-1,.49-.49,.35-1,.68-1.51,1-.1,.06-.19,.15-.25,.25-.05,.22,0,.44,.15,.61,.79,1.22,1.59,2.38,2.43,3.56,.4,.61,.84,1.18,1.27,1.77,.21,.29,.43,.58,.64,.88s.63,.67,.63,.87,.23,.4,.42,.33c.09-.04,.16-.11,.21-.2,.03-.02,.06-.06,.07-.1,.35-.49,.67-1,1-1.48s.74-1.07,1.11-1.61c.69-1,1.37-2,2-3,.31-.45,.52-.94,.82-1.39s.62-.65,.58-1.14-.55-.71-.84-1c-.36-.37-.9-.47-1.37-.27Zm-9.13-3.3c.14-.1,.29-.19,.33-.35,.01-.14-.02-.28-.09-.4-.71-1.5-1.45-3-2.14-4.51-.06-.17-.16-.33-.28-.46-.49-.51-1.51-.25-2.13-.22l-2.83,.1c-.15-.02-.3,.05-.38,.18-.02,.12,.02,.24,.11,.32,1.45,2.05,3.09,4.05,4.4,6.16,.12,.18,.26,.39,.46,.45,.3,.06,.61-.02,.84-.21l1.71-1.06Zm17.85-5.88c-.51,0-1,0-1.51-.06-.53-.07-1.07-.04-1.59,.1-.59,.22-.74,.61-1,1.1s-.85,1.17-1.22,1.77c-.55,.85-1.53,1.85-.41,2.65,.37,.25,.77,.35,1.13,.6,.15,.12,.3,.23,.47,.32,.2,.09,.42,.09,.62,0,.28-.19,.51-.44,.67-.74l3.54-5.5c.2-.33-.51-.24-.7-.24Z"/><path class="b" d="M346.66,35.17c.35,.2,.68,.41,1,.65,.39,.21,.94,.24,.93,.84-.06,.38-.24,.73-.5,1-1.67,2.18-3.16,4.48-4.67,6.8-.11,.25-.32,.44-.57,.53-.03,0-.07,0-.1,0-.39,0-.72-.32-1-.66l-3.3-4.38-1.61-2.16c-.38-.5-.93-1-.36-1.57,.17-.17,.36-.3,.57-.4l1.15-.65c.11-.08,.24-.12,.37-.13,.19,0,.37,.09,.47,.25,.75,1,1.4,2.07,2.24,3,.32,.38,.74,.77,1.22,.7,.38-.11,.7-.36,.9-.69,.73-.89,1.45-1.81,2.17-2.72,.35-.41,.5-.65,1.09-.41Zm59.9-5.56c-.08-.49-.53-.87-.78-1.26-.34-.55-.69-1.09-1-1.65s-.67-1.75-1.42-2.07c-.29-.1-.59-.15-.9-.15-1.15-.06-2.29-.13-3.45-.18-.18-.03-.37,0-.53,.08-.03,.01-.06,.03-.08,.06-.23,.26,0,.66,.18,.93l4.42,5.8c.13,.24,.36,.41,.62,.48,.24,.01,.48-.07,.67-.22,.62-.36,2.4-1.01,2.27-1.85v.03Zm-77.39-4.71c-.32,0-.83,.17-.83,.57,.03,.25,.14,.49,.3,.69l4.61,6.17c.13,.22,.31,.41,.53,.55,.36,.17,.78,.17,1.14,0,.37-.16,.7-.38,1-.65,.26-.2,.53-.44,.53-.76-.02-.2-.1-.39-.22-.55-.68-1.13-1.48-2.11-2.09-3.29-1.04-1.92-2.54-3.2-4.97-2.73Zm22.41,1.51l-2.58,4.33c-.12,.17-.19,.37-.22,.58,0,.54,1,1.12,1.46,1.33,.26,.14,.58,.14,.84,0,.18-.13,.33-.29,.43-.49,1.21-1.86,2.4-3.73,3.61-5.59,.22-.34,.46-.75,.12-1h0c-.48-.23-.99-.37-1.52-.4-.54-.06-1.08,.08-1.51,.4-.25,.25-.46,.53-.63,.84h0Zm17.11-1.34c-.15,.22,0,.51,.19,.71,1.46,1.87,2.92,3.73,4.37,5.6,1.34,1.7,2.75,3.28,4.06,5,.11,.13,.23,.28,.41,.28s.3-.15,.4-.29l4.24-5.64c1.42-1.89,2.69-3.84,3.95-5.82,.1-.14,.16-.29,.17-.46-.05-.72-2.14-.35-2.59-.31-3.26,.3-6.56,.43-9.85,.54-1.6,.07-3.21,.11-4.8,.18-.24,.01-.45,.04-.55,.21Zm73.39-.52c-.11,0-.22,.02-.31,.08-.04,.02-.07,.06-.09,.1-.05,.15-.05,.32,0,.47,.52,2,1.36,3.9,2.49,5.63,.58,1,1.21,1.95,1.87,2.88,.27,.36,1.43,2.31,1.86,2.17,.17-.08,.3-.22,.37-.4,.25-.49,.53-.96,.84-1.41,.94-1.5,1.85-3,2.75-4.55s1.88-2.88,2.8-4.33c.12-.13,.17-.3,.14-.47-.14-.35-.81-.21-1.09-.25-.5-.05-.99-.05-1.49,0h-7.46c-.91-.03-1.76,.04-2.68,.08h0Zm-18.84,.67c-.78,1.03-1.51,2.11-2.17,3.23-.1,.16-.16,.34-.17,.52v.12c.05,.34,.69,.74,1,.93,.65,.44,1.3,.82,1.92,.24,.39-.44,.74-.92,1.05-1.42,.48-.63,.94-1.29,1.37-2,.47-.64,.89-1.3,1.26-2,.39-.86-.73-.68-1.26-.73-.75-.18-1.53-.09-2.22,.25-.31,.24-.57,.53-.78,.86h0Zm-5.76,8.09c-.7,.86-1.32,1.79-2,2.67-.39,.49-1.34,2.36-2.16,2-.36-.18-.63-.75-.89-1.07-.68-.88-1.3-1.76-2-2.65-.14-.23-.37-.41-.63-.49-.25,0-.49,.08-.7,.22-.51,.33-1,.63-1.53,.94-.37,.17-.68,.45-.9,.79-.34,.66,.41,1.36,.77,1.87,.58,.8,1.22,1.54,1.8,2.35,1.06,1.5,2.1,3,3.16,4.48,.11,.16,.24,.3,.4,.41,.13,.11,.31,.14,.47,.08,.14-.06,.26-.17,.34-.3,1.85-2.51,3.7-5.01,5.54-7.5,.41-.47,.68-1.03,.8-1.64,.1-.75-.36-1.09-.89-1.45-.23-.22-1.21-1.17-1.58-.71Zm-205.48-6.9c-.88,1.45-1.73,2.9-2.59,4.33-.12,.17-.2,.37-.23,.58,0,.54,1.05,1.12,1.46,1.33,.27,.14,.58,.14,.85,0,.18-.13,.33-.3,.43-.49l3.6-5.59c.22-.34,.46-.75,.13-1h0c-.48-.23-1-.37-1.53-.4-.53-.06-1.07,.08-1.5,.4-.25,.24-.46,.53-.62,.84Zm65.89,6.9c-.7,.86-1.32,1.79-2,2.67-.39,.49-1.34,2.36-2.16,2-.36-.18-.63-.75-.89-1.07-.68-.88-1.3-1.76-2-2.65-.14-.23-.37-.41-.63-.49-.25,0-.49,.08-.7,.22-.5,.33-1,.63-1.52,.94-.37,.17-.68,.44-.9,.79-.35,.66,.4,1.36,.76,1.87,.58,.8,1.22,1.54,1.8,2.35l3.16,4.48c.11,.16,.25,.3,.41,.41,.13,.11,.31,.14,.47,.08,.14-.07,.25-.17,.33-.3,1.85-2.51,3.69-5.01,5.54-7.5,.41-.47,.68-1.03,.81-1.64,.09-.75-.36-1.09-.9-1.45-.24-.22-1.22-1.17-1.59-.71h.01Zm-88.32-8.41c-.32,0-.83,.17-.83,.57,.03,.26,.14,.5,.31,.69l4.6,6.17c.13,.22,.32,.41,.54,.55,.36,.17,.78,.17,1.14,0,.37-.16,.7-.38,1-.65,.26-.2,.53-.44,.53-.76-.02-.2-.1-.39-.22-.55-.68-1.13-1.47-2.11-2.09-3.29-1.05-1.92-2.55-3.2-4.98-2.73Zm16.43,10.74c-.73,.91-1.45,1.83-2.18,2.72-.2,.33-.52,.58-.9,.69-.48,.07-.89-.32-1.22-.7-.84-.95-1.49-2-2.24-3-.1-.16-.28-.26-.47-.25-.13,0-.26,.05-.37,.13l-1.11,.65c-.22,.1-.41,.23-.58,.4-.57,.57,0,1.07,.36,1.57,.54,.71,1.07,1.43,1.61,2.16l3.3,4.38c.24,.34,.58,.7,1,.66,.03,0,.06,0,.09,0,.26-.09,.47-.28,.58-.53,1.5-2.32,3-4.62,4.67-6.8,.26-.28,.43-.62,.49-1,0-.6-.54-.63-.92-.84-.32-.24-.65-.46-1-.65-.64-.3-.78-.06-1.11,.41Zm61-6.06c-.08-.49-.52-.87-.78-1.26-.33-.55-.68-1.09-1-1.65s-.68-1.75-1.43-2.07c-.29-.1-.59-.15-.9-.15-1.15-.06-2.29-.13-3.44-.18-.18-.03-.37,0-.54,.08,0,0-.05,0-.08,.06-.23,.26,0,.66,.19,.93l4.42,5.83c.13,.24,.36,.41,.62,.48,.24,.01,.48-.07,.67-.22,.58-.36,2.36-1.01,2.27-1.85Zm17.42-5.19c-.29,.23-.54,.51-.73,.83-.79,1.03-1.52,2.11-2.18,3.23-.1,.16-.16,.34-.17,.52v.12c.05,.34,.7,.74,1,.93,.64,.44,1.3,.82,1.91,.24,.4-.44,.75-.91,1.05-1.42,.48-.63,.94-1.29,1.37-2,.47-.64,.89-1.3,1.26-2,.39-.86-.73-.68-1.26-.73-.77-.18-1.58-.08-2.29,.28h.04Zm18.1,.16c-.11,0-.22,.02-.31,.08,0,0-.06,.06-.09,.11-.05,.15-.05,.31,0,.46,.52,2,1.37,3.9,2.5,5.63,.57,1,1.2,1.95,1.86,2.88,.27,.36,1.44,2.31,1.87,2.17,.17-.08,.29-.23,.36-.4,.25-.49,.53-.96,.84-1.41,.94-1.5,1.85-3,2.75-4.55s1.81-2.88,2.7-4.35c.11-.13,.16-.3,.13-.47-.13-.35-.8-.21-1.09-.25-.49-.05-.99-.05-1.48,0h-7.46c-.85,0-1.72,.06-2.62,.1h.04Zm-73.39,.52c-.15,.22,0,.51,.19,.71,1.46,1.87,2.92,3.73,4.37,5.6,1.34,1.7,2.75,3.28,4.07,5,.1,.13,.22,.28,.4,.28,.17-.03,.32-.13,.4-.29l4.24-5.64c1.42-1.89,2.7-3.84,4-5.82,.09-.14,.15-.29,.16-.46,0-.72-2.14-.35-2.59-.31-3.26,.3-6.56,.43-9.85,.54-1.59,.07-3.2,.11-4.8,.18-.23-.05-.47,.03-.63,.21h.04Zm-101.77,4.51c-.08-.49-.52-.87-.78-1.26-.33-.55-.68-1.09-1-1.65s-.67-1.75-1.42-2.07c-.29-.1-.59-.15-.9-.15l-3.45-.18c-.18-.03-.37,0-.54,.08l-.08,.06c-.23,.26,0,.66,.19,.93l4.47,5.83c.13,.24,.35,.41,.61,.48,.25,.01,.49-.07,.68-.22,.57-.36,2.36-1.01,2.22-1.85Zm10.92,3.73c-.7,.86-1.31,1.79-2,2.67-.39,.49-1.34,2.36-2.16,2-.36-.18-.63-.75-.88-1.07-.69-.88-1.3-1.76-2-2.65-.15-.23-.37-.4-.63-.49-.25,0-.5,.07-.7,.22-.51,.33-1,.63-1.53,.94-.37,.17-.68,.45-.9,.79-.35,.66,.4,1.36,.76,1.87,.58,.8,1.22,1.54,1.8,2.35l3.17,4.48c.1,.16,.24,.3,.4,.41,.13,.11,.31,.14,.47,.08,.14-.06,.25-.17,.33-.3,1.86-2.51,3.69-5,5.55-7.5,.4-.47,.68-1.03,.8-1.64,.09-.75-.36-1.09-.9-1.45-.22-.22-1.2-1.17-1.58-.71Zm-65.89-6.9l-2.59,4.33c-.12,.17-.2,.37-.23,.58,0,.54,1.05,1.12,1.46,1.33,.27,.14,.58,.14,.85,0,.18-.13,.33-.29,.43-.49,1.21-1.86,2.4-3.73,3.61-5.59,.21-.34,.45-.75,.12-1h0c-.48-.23-.99-.37-1.52-.4-.53-.06-1.07,.08-1.5,.4-.26,.24-.47,.53-.63,.84Zm72.4-2c-.29,.23-.55,.51-.74,.83-.79,1.03-1.52,2.11-2.17,3.23-.11,.15-.17,.33-.18,.52v.12c.06,.34,.7,.74,1,.93,.64,.44,1.3,.82,1.92,.24,.37-.44,.71-.92,1-1.42,.49-.63,.94-1.29,1.37-2,.47-.63,.89-1.3,1.26-2,.39-.86-.72-.68-1.26-.73-.74-.17-1.52-.08-2.2,.26v.02Zm-78.41,11.23c-.73,.91-1.45,1.83-2.17,2.72-.21,.33-.53,.58-.9,.69-.49,.07-.9-.32-1.22-.7-.85-.95-1.49-2-2.24-3-.1-.16-.28-.26-.47-.25-.13-.01-.26,.01-.38,.07l-1.11,.65c-.21,.1-.41,.24-.58,.4-.56,.58,0,1.07,.36,1.57,.54,.71,1.08,1.43,1.61,2.16l3.3,4.38c.24,.34,.58,.7,1,.66,.03,0,.06,0,.09,0,.26-.09,.47-.28,.58-.53,1.5-2.32,3-4.62,4.67-6.8,.26-.28,.43-.62,.49-1,0-.6-.53-.63-.92-.84-.32-.24-.65-.45-1-.65-.61-.24-.76,0-1.11,.47Zm23.11-10.57c-.14,.22,0,.51,.19,.71,1.46,1.87,2.92,3.73,4.37,5.6,1.35,1.7,2.75,3.28,4.07,5,.11,.13,.23,.28,.4,.28,.17-.02,.32-.13,.4-.29,1.43-1.88,2.83-3.76,4.24-5.64s2.7-3.84,4-5.82c.09-.14,.15-.29,.16-.46,0-.72-2.13-.35-2.59-.31-3.26,.3-6.56,.43-9.84,.54-1.6,.07-3.21,.11-4.81,.18-.22-.03-.44,.05-.59,.21Zm-39.49-.17c-.32,0-.83,.17-.83,.57,.03,.26,.14,.5,.31,.69l4.6,6.17c.13,.22,.32,.41,.54,.55,.36,.17,.78,.17,1.14,0,.36-.17,.7-.38,1-.65,.25-.2,.52-.44,.52-.76-.05-.19-.15-.37-.28-.51-.69-1.13-1.48-2.11-2.1-3.29-1-1.96-2.5-3.24-4.9-2.77Zm112.91-.35c-.11,0-.21,.02-.3,.08-.04,.03-.08,.06-.1,.11-.05,.15-.05,.31,0,.46,.52,2,1.36,3.9,2.49,5.63,.58,1,1.21,1.95,1.86,2.88,.27,.36,1.44,2.31,1.87,2.17,.17-.08,.29-.23,.36-.4,.25-.49,.54-.96,.85-1.41,.94-1.5,1.85-3,2.75-4.55s1.87-2.88,2.8-4.33c.11-.13,.16-.3,.13-.47-.13-.35-.8-.21-1.08-.25-.5-.05-.99-.05-1.49,0h-7.46c-.94-.03-1.81,.04-2.71,.08h.03Zm-139.59,0c-.11,0-.22,.02-.31,.08-.04,.03-.08,.06-.1,.11-.05,.15-.05,.31,0,.46,.52,2,1.36,3.9,2.49,5.63,.58,1,1.21,1.95,1.87,2.88,.27,.36,1.43,2.31,1.86,2.17,.17-.08,.3-.22,.36-.4,.26-.49,.54-.96,.85-1.41,.94-1.5,1.85-3,2.75-4.55s1.83-2.88,2.75-4.35c.12-.12,.18-.28,.16-.45-.14-.35-.81-.21-1.09-.25-.5-.05-.99-.05-1.49,0h-7.48c-.88-.03-1.75,.04-2.65,.08h.03Z"/><path class="d" d="M197.16,23.04c-3-.08-6.1-.22-9.16-.21-3.24,0-6.49-.36-9.76-.36h-17c-17,0-34-.41-50.91,0-7.52,.22-15,.47-22.57,.62-4.65,.08-9.29,.19-13.94,.25-4.16,.07-8.21-.26-12.34-.25s-8.63,.1-12.8-.3c-3.37-.31-6.68-.31-10.03-.32H21.65c-6.54,0-13.3-.59-19.81,0-1.11,.05-2.7,.61-1.27,1.47,.93,.56,3.31,.33,4.37,.34h7.48c.43-.04,.86,0,1.28,.12,.17,.09,.31,.22,.42,.38,1.03,1.24,1.99,2.52,2.88,3.86,.95,1.33,1.93,2.67,2.83,4,1.52,2.28,3,4.6,4.52,6.88,.78,1.14,1.56,2.28,2.36,3.41,.44,.53,.85,1.09,1.21,1.67,.22,.4,.43,.78,1,.4,.28-.27,.53-.58,.73-.91l.91-1.23c.63-.86,1.22-1.75,1.84-2.62,1.26-1.75,2.5-3.53,3.67-5.36s2.38-3.54,3.62-5.28c.62-.87,1.25-1.73,1.85-2.6,.46-.76,.99-1.47,1.59-2.12,.62-.44,1.38-.61,2.13-.49,1,.02,1.95,.49,2.57,1.28,3.06,4.42,6.23,8.79,9.36,13.16,1,1.37,2,2.71,3,4.06l1.52,2c.3,.54,.63,1.06,1,1.56,.12,.15,.3,.26,.49,.31,.28,0,.54-.13,.69-.36,1.64-2,3-4.28,4.47-6.4,1.8-2.59,3.56-5.21,5.31-7.82,1.3-1.92,2.49-3.92,3.83-5.83,.24-.46,.64-.81,1.12-1,.56-.19,1.14-.28,1.73-.26,.53,0,1.05,.11,1.53,.34,.54,.33,.99,.8,1.29,1.36,.34,.55,.78,1,1.17,1.53,.91,1.16,1.81,2.32,2.73,3.48,3.83,4.8,7.07,10,11.35,14.43,.31,.32,.55,.85,1.24,.63,.56-.71,1.04-1.47,1.43-2.28,.59-.88,1.18-1.77,1.76-2.67,1.89-2.85,3.77-5.74,5.62-8.64s3.44-5.7,5.31-8.42c.37-.63,1.07-.98,1.8-.9,.58-.03,1.16,.12,1.65,.43,.49,.48,.9,1.04,1.22,1.64l2.64,3.79c1.77,2.56,3.57,5.11,5.41,7.62,1,1.33,1.93,2.66,2.91,4,1.25,1.69,2.48,3.39,3.73,5.09,.12,.22,.31,.39,.55,.47,.47,.11,1-1,1.22-1.32,.44-.62,.91-1.24,1.38-1.86,.94-1.22,1.89-2.44,2.81-3.68,2-2.75,3.95-5.52,5.89-8.31,1-1.39,1.91-2.79,2.87-4.2l1.42-2.1c.28-.45,.56-1.17,1.17-1.2s1.05-.05,1.58,0c.43-.04,.86,0,1.27,.12,.17,.09,.32,.22,.43,.38,1.07,1.21,2,2.55,2.9,3.85s1.93,2.67,2.83,4c1.52,2.28,3,4.6,4.52,6.88,.78,1.14,1.56,2.28,2.36,3.41,.44,.53,.84,1.09,1.21,1.67,.21,.4,.43,.78,1,.4,.28-.27,.52-.57,.72-.91,.31-.4,.62-.82,.91-1.23,.64-.86,1.23-1.75,1.84-2.62,1.26-1.75,2.51-3.53,3.68-5.36s2.37-3.54,3.62-5.28c.62-.87,1.25-1.73,1.85-2.6,.45-.76,.98-1.47,1.58-2.12,.62-.43,1.39-.61,2.14-.49,.99,.02,1.93,.47,2.56,1.24,3.06,4.42,6.24,8.79,9.37,13.16,1,1.37,2,2.71,3,4.06l1.52,2c.3,.54,.63,1.06,1,1.56,.12,.15,.29,.26,.48,.31,.28,0,.54-.13,.7-.36,1.64-2,3-4.28,4.47-6.4,1.8-2.59,3.55-5.21,5.31-7.82,1.3-1.92,2.48-3.92,3.82-5.83,.24-.46,.64-.82,1.13-1,.55-.2,1.14-.28,1.73-.26,.53,0,1.05,.11,1.53,.34,.54,.34,.98,.8,1.29,1.36,.36,.53,.75,1.04,1.17,1.53,.91,1.16,1.81,2.32,2.73,3.48,3.83,4.8,7.07,10,11.35,14.43,.31,.32,.55,.85,1.23,.63,.56-.7,1.05-1.47,1.44-2.28,.59-.88,1.18-1.77,1.76-2.67,1.89-2.85,3.77-5.74,5.62-8.64s3.43-5.7,5.31-8.42c.37-.63,1.07-.99,1.8-.9,.58-.03,1.16,.12,1.65,.43,.46,.5,.84,1.06,1.14,1.67l2.64,3.79c1.77,2.56,3.57,5.11,5.41,7.62,.96,1.33,1.93,2.67,2.91,4,1.25,1.69,2.48,3.39,3.73,5.09,.12,.22,.31,.39,.55,.47,.47,.11,1-1,1.22-1.32,.44-.62,.91-1.24,1.38-1.86,.94-1.22,1.89-2.44,2.8-3.69,2-2.75,3.96-5.51,5.89-8.3,1-1.39,1.92-2.79,2.87-4.2l1.43-2.1c.28-.45,.56-1.17,1.16-1.2s1.06-.05,1.59,0c.43-.04,.86,0,1.27,.12,.17,.09,.32,.22,.43,.38,1.07,1.21,2,2.55,2.9,3.85s1.93,2.67,2.83,4c1.51,2.28,3,4.6,4.52,6.88,.78,1.14,1.55,2.28,2.36,3.41,.44,.53,.84,1.09,1.21,1.67,.21,.4,.43,.78,1,.4,.28-.27,.52-.58,.72-.91,.31-.4,.62-.82,.91-1.23,.63-.86,1.22-1.75,1.84-2.62,1.26-1.75,2.51-3.53,3.68-5.36s2.37-3.54,3.62-5.28c.61-.87,1.24-1.73,1.85-2.6,.45-.76,.98-1.47,1.58-2.12,.62-.43,1.39-.61,2.14-.49,.99,.01,1.93,.46,2.56,1.23,3.06,4.42,6.24,8.79,9.36,13.16,1,1.37,2,2.71,3,4.06l1.52,2c.29,.55,.63,1.07,1,1.56,.2,.32,.62,.41,.94,.21,.1-.06,.19-.16,.24-.26,1.64-2,3-4.28,4.47-6.4,1.79-2.59,3.55-5.21,5.31-7.82,1.3-1.92,2.48-3.92,3.82-5.83,.24-.46,.64-.82,1.13-1,.55-.2,1.14-.28,1.73-.26,.53,0,1.05,.11,1.53,.34,.54,.34,.98,.8,1.29,1.36,.36,.53,.74,1.04,1.16,1.53,.91,1.16,1.81,2.32,2.74,3.48,3.82,4.8,7.07,10,11.35,14.43,.31,.32,.55,.85,1.23,.63,.56-.7,1.05-1.47,1.44-2.28,.59-.88,1.18-1.77,1.75-2.67,1.9-2.85,3.77-5.74,5.63-8.64s3.43-5.7,5.31-8.42c.37-.63,1.07-.99,1.8-.9,.58-.03,1.16,.12,1.65,.43,.48,.49,.89,1.04,1.22,1.64,.88,1.27,1.75,2.53,2.64,3.79,1.77,2.56,3.57,5.11,5.4,7.62l2.92,4,3.72,5.09c.12,.22,.31,.39,.55,.47,.47,.11,1-1,1.23-1.32,.44-.62,.91-1.24,1.38-1.86,.94-1.22,1.89-2.44,2.8-3.69,2-2.75,3.96-5.51,5.89-8.3,1-1.39,1.92-2.79,2.87-4.2l1.42-2.1c.28-.45,.57-1.17,1.17-1.2s1.06-.05,1.58,0c.43-.04,.86,0,1.28,.12,.17,.09,.32,.22,.43,.38,1.07,1.21,1.95,2.55,2.89,3.85s1.94,2.67,2.83,4c1.52,2.28,3,4.6,4.53,6.88,.77,1.14,1.55,2.28,2.36,3.41,.44,.53,.84,1.09,1.2,1.67,.22,.4,.43,.78,1,.4,.29-.27,.53-.57,.73-.91,.31-.4,.61-.82,.91-1.23,.63-.86,1.22-1.75,1.84-2.62,1.26-1.75,2.51-3.53,3.67-5.36s2.38-3.54,3.62-5.28c.62-.87,1.25-1.73,1.86-2.6,.45-.76,.98-1.47,1.58-2.12,.7-.46,1.54-.63,2.36-.48,3.33,.27,6.72,.17,10.07,.2,.51,.04,1.02-.04,1.49-.24,.47-.21,.71-.73,.55-1.22-.23-.53-.92-.61-1.5-.61-5.82-.08-11.63,0-17.45,0h-17c-17,0-34-.41-50.91,0-7.53,.22-15,.47-22.58,.62-4.64,.08-9.28,.19-13.94,.25-4.16,.07-8.21-.26-12.34-.25-3.39,0-6.73-.1-10.13-.14-4.31-.13-8.39-.57-12.7-.57h-17c-17,0-34-.41-50.91,0-7.53,.22-15,.47-22.58,.62-4.64,.08-9.28,.19-13.94,.25-4.15,.07-8.2-.26-12.34-.25-1.32,0-2.61-.01-3.91-.05Zm206.5,8.6c-.28-.06-.52-.23-.66-.47l-4.47-5.82c-.21-.27-.41-.67-.18-.93,.02-.03,.05-.05,.08-.06,.17-.1,.38-.13,.57-.09,1.16,0,2.3,.12,3.45,.18,.31,0,.61,.05,.9,.15,.75,.32,1,1.44,1.42,2.07,.42,.63,.67,1.1,1,1.65,.25,.39,.7,.77,.78,1.26,.13,.84-1.65,1.49-2.23,1.84-.19,.15-.42,.23-.66,.22Zm.83,2c-.13-.13-.22-.3-.23-.48,0-.07,.03-.13,.08-.18,.31-.24,.65-.44,1-.61,.44-.28,.89-.54,1.3-.86s.45-.46,.9-.35c.31,.09,.58,.29,.77,.56,.19,.27,.54,.76,.41,1.09-.09,.17-.22,.3-.38,.4-.85,.69-1.78,1.26-2.78,1.71-.1,0-.98-1.21-1.07-1.32v.04Zm15.51,1.8c-.12,.61-.39,1.17-.8,1.64-1.85,2.49-3.7,4.99-5.54,7.5-.08,.13-.2,.24-.34,.3-.16,.06-.34,.03-.47-.08-.16-.11-.29-.25-.4-.41-1.06-1.49-2.1-3-3.16-4.48-.58-.81-1.22-1.55-1.8-2.35-.36-.51-1.11-1.21-.77-1.87,.22-.34,.53-.62,.9-.79,.51-.31,1-.61,1.53-.94,.21-.14,.45-.22,.7-.22,.26,.08,.49,.26,.63,.49,.67,.89,1.29,1.77,2,2.65,.26,.32,.53,.89,.89,1.07,.82,.39,1.77-1.48,2.16-2,.68-.88,1.3-1.81,2-2.67,.37-.46,1.35,.49,1.61,.68,.48,.39,.94,.73,.86,1.48Zm2.15-3.93c.21,.25,.35,.55,.42,.87-.02,.38-.19,.74-.47,1-.23,.34-.59,.56-1,.6-.72,0-1.6-1.19-2.09-1.66-.47-.44-.5-1.18-.07-1.65,.02-.02,.04-.05,.07-.07,.83-.86,2.37-.06,3.12,.91h.02Zm18.78,2.53c-.21-.31-.39-.65-.54-1-.07-.15-.1-.32-.08-.48,.06-.22,.39-.3,.55-.4,.55-.39,1.12-.77,1.67-1.14,.07-.08,.18-.12,.29-.11,.1,0,.16,.09,.22,.17l.6,.78c.2,.26,.55,.66,.54,1,.01,.08,.01,.15,0,.23-.16,.26-.39,.46-.66,.59-.43,.25-.84,.52-1.27,.78-.14,.09-.29,.15-.45,.18-.42,.02-.7-.29-.89-.6h.02Zm12.75-9.57c.28,0,.95-.1,1.09,.25,.03,.17-.02,.34-.14,.47-.92,1.45-1.94,2.86-2.8,4.33s-1.83,3.05-2.75,4.55c-.31,.45-.59,.92-.84,1.41-.07,.18-.2,.32-.37,.4-.43,.14-1.59-1.81-1.86-2.17-.66-.93-1.29-1.89-1.87-2.88-1.13-1.74-1.97-3.65-2.49-5.66-.05-.15-.05-.32,0-.47,.02-.04,.05-.08,.09-.1,.09-.06,.2-.09,.31-.08,.9,0,1.77-.11,2.65-.11h7.46c.51-.03,1.02-.01,1.52,.06Zm-.29,10.39c0,.49-.32,.79-.58,1.14s-.51,.94-.82,1.38c-.67,1-1.35,2-2,3-.37,.54-.75,1.07-1.11,1.61s-.66,1-1,1.48c-.01,.04-.03,.07-.06,.1-.05,.09-.13,.16-.22,.2-.19,.07-.32-.21-.41-.33s-.51-.7-.63-.87l-.65-.88c-.43-.59-.87-1.16-1.27-1.77-.83-1.18-1.64-2.34-2.43-3.56-.15-.17-.2-.39-.15-.61,.06-.1,.15-.19,.26-.25,.51-.33,1-.65,1.5-1,.29-.21,.64-.64,1.05-.49,.26,.13,.47,.34,.61,.6l1.68,2.56c.15,.23,.35,.47,.62,.46,.25-.05,.46-.21,.56-.44,.53-.78,1.05-1.56,1.56-2.34,.29-.53,.74-.98,1.27-1.27,.48-.2,1.04-.08,1.39,.31,.28,.28,.79,.54,.83,.97h0Zm2-3.18c.09,.1,.13,.22,.14,.35-.02,.19-.1,.36-.22,.51-.29,.38-.57,.75-.85,1.14-.08,.14-.21,.25-.36,.31-.35,.09-.86-.37-1.12-.56-.4-.33-.82-.63-1.27-.89-.08-.04-.15-.11-.2-.19-.03-.14,0-.29,.09-.4,.3-.47,.58-.92,.86-1.39,.12-.18,.26-.37,.46-.38,.12,.01,.23,.06,.33,.12,.61,.36,1.17,.82,1.8,1.14,.14,.06,.27,.14,.38,.24h-.04Zm2.95-7.33c.51,0,1,0,1.51,.06,.19,0,.92-.09,.7,.24l-3.54,5.46c-.16,.3-.39,.55-.67,.74-.2,.09-.42,.09-.62,0-.17-.09-.32-.2-.47-.32-.36-.25-.76-.35-1.12-.6-1.13-.76-.13-1.76,.41-2.61,.38-.6,.86-1.16,1.22-1.77s.44-.88,1-1.1c.53-.14,1.08-.18,1.62-.1h-.04Zm-18.51,.22c.12,.14,.21,.29,.28,.46,.68,1.52,1.42,3,2.13,4.51,.07,.12,.11,.26,.09,.4,0,.16-.18,.25-.33,.35l-1.71,1.06c-.23,.19-.54,.27-.84,.21-.2-.06-.34-.27-.46-.45-1.31-2.11-2.95-4.11-4.4-6.16-.09-.08-.13-.2-.1-.32,.05-.14,.22-.18,.37-.18l2.83-.1c.66-.03,1.68-.29,2.18,.22h-.04Zm-13.63-.4c.53,.05,1.65-.13,1.26,.73-.37,.7-.79,1.36-1.26,2-.43,.67-.89,1.33-1.37,2-.31,.5-.66,.98-1.05,1.42-.62,.58-1.27,.2-1.92-.24-.27-.19-.91-.59-1-.93v-.18c.01-.18,.07-.36,.17-.52,.66-1.12,1.39-2.2,2.17-3.23,.2-.31,.45-.59,.74-.83,.7-.34,1.5-.41,2.26-.22Zm-3.83-.08c.13,0,.25,.09,.3,.22,.05,.15,0,.28-.12,.41-.44,.72-.95,1.39-1.53,2-1.24,1.52-2.4,3.11-3.48,4.75-.64,.88-1.3,1.76-2,2.63s-1.19,1.53-1.8,2.28c-.48,.59-1.06-.34-1.34-.69s-.57-.88-.88-1.3c-.77-1-1.52-2.09-2.26-3.15s-1.61-2.31-2.4-3.47c-.28-.43-2.31-2.81-1.93-3.4,0,0,.05-.06,.09-.09,.3-.16,.84,0,1.17,0h1.18c.57-.11,1.1-.11,1.63-.11h11.33c.67,0,1.43-.17,2.04-.11v.03ZM20.7,31.56c-.2-.06-.34-.27-.46-.45-1.31-2.11-2.95-4.11-4.4-6.16-.09-.08-.13-.2-.11-.32,.08-.13,.23-.2,.38-.18l2.83-.1c.62,0,1.64-.29,2.13,.22,.12,.13,.22,.29,.28,.46,.69,1.52,1.43,3,2.14,4.51,.07,.12,.1,.26,.09,.4,0,.16-.19,.25-.33,.35l-1.71,1.06c-.23,.19-.54,.27-.84,.21Zm14.19-7.09c.28,0,1-.1,1.09,.25,.03,.17-.02,.34-.14,.47-.92,1.45-1.94,2.86-2.84,4.33s-1.81,3.05-2.75,4.55c-.31,.45-.59,.92-.85,1.41-.06,.18-.19,.32-.36,.4-.43,.14-1.59-1.81-1.86-2.17-.66-.93-1.29-1.89-1.87-2.88-1.11-1.74-1.94-3.65-2.45-5.66-.05-.15-.05-.31,0-.46,.02-.05,.06-.08,.1-.11,.09-.06,.2-.09,.31-.08,.9,0,1.77-.11,2.65-.11h7.48c.5-.03,1,0,1.49,.06Zm-12.77,9.57c-.22-.31-.4-.65-.54-1-.07-.15-.1-.32-.08-.48,.06-.22,.39-.3,.55-.4,.55-.39,1.12-.77,1.67-1.14,.06-.09,.17-.14,.28-.14,.09,.02,.17,.09,.22,.17l.6,.78c.2,.26,.55,.66,.54,1,.01,.08,.01,.15,0,.23-.16,.25-.39,.46-.66,.59-.43,.25-.85,.52-1.28,.78-.13,.09-.28,.16-.44,.19-.39,.04-.67-.27-.86-.58Zm12.48,.82c0,.49-.33,.79-.58,1.14s-.51,.94-.82,1.39c-.67,1-1.35,2-2,3-.37,.54-.75,1.07-1.11,1.61s-.66,1-1,1.48c-.01,.04-.04,.08-.07,.1-.05,.09-.12,.16-.21,.2-.19,.07-.32-.21-.42-.33s-.51-.7-.63-.87-.43-.59-.64-.88c-.43-.59-.87-1.16-1.27-1.77-.84-1.18-1.64-2.34-2.43-3.56-.15-.17-.2-.39-.15-.61,.06-.1,.15-.19,.25-.25,.51-.32,1-.65,1.51-1,.29-.21,.64-.64,1-.49,.27,.13,.48,.34,.62,.6l1.72,2.55c.15,.23,.35,.47,.62,.46,.25-.05,.46-.21,.56-.44,.52-.78,1.05-1.56,1.56-2.34,.29-.53,.74-.98,1.27-1.27,.48-.2,1.03-.07,1.38,.31,.29,.28,.79,.54,.84,.97Zm2-3.18c.09,.1,.14,.22,.15,.35-.03,.19-.11,.37-.23,.51l-.84,1.14c-.1,.12-.2,.27-.36,.31-.35,.1-.86-.37-1.12-.56-.38-.33-.78-.62-1.2-.89-.08-.04-.15-.11-.2-.19-.04-.14,0-.29,.09-.4,.3-.47,.58-.92,.86-1.39,.12-.18,.25-.37,.46-.38,.12,.02,.23,.06,.33,.12,.6,.36,1.17,.82,1.8,1.14,.11,.06,.21,.14,.29,.24h-.03Zm5.17-7l-3.51,5.43c-.16,.3-.39,.55-.67,.74-.2,.09-.42,.09-.62,0-.17-.09-.32-.2-.47-.32-.36-.25-.76-.35-1.13-.6-1.12-.76-.14-1.76,.38-2.61,.37-.6,.86-1.16,1.22-1.77s.44-.88,1-1.1c.52-.14,1.06-.17,1.59-.1,.51,0,1,0,1.51,.06,.22,0,.93-.09,.73,.24l-.03,.03Zm62.92-.51c.46,0,2.55-.41,2.59,.31-.01,.17-.07,.32-.16,.46-1.26,2-2.54,3.93-4,5.82s-2.81,3.76-4.24,5.64c-.08,.16-.23,.27-.4,.29-.17,0-.29-.15-.4-.28-1.32-1.72-2.72-3.3-4.07-5-1.45-1.87-2.91-3.73-4.37-5.6-.16-.2-.33-.49-.19-.71,.14-.16,.34-.25,.55-.24,1.6-.07,3.21-.11,4.81-.18,3.32-.11,6.62-.24,9.88-.51Zm-49,10.58c-.11-.17-.15-.38-.11-.58,.07-.22,.22-.4,.43-.5l1.22-.82c.13-.1,.29-.17,.45-.2,.2,0,.39,.09,.52,.24,.27,.3,.79,.93,.59,1.35-.09,.14-.23,.26-.38,.33-.42,.3-.87,.59-1.3,.87-.13,.11-.28,.17-.45,.19-.41-.02-.8-.59-.96-.91v.03Zm11.82-9.38h2.15c.52,0,1.15-.12,1.69-.1h.17c.14,.01,.26,.11,.3,.25,0,.13-.05,.26-.14,.35-1,1.38-1.84,2.87-2.82,4.31s-1.87,2.7-2.77,4.07c-.71,1.11-1.5,2.17-2.35,3.18-.13,.17-.31,.3-.51,.36-.36,.06-.67-.28-.89-.58-2.09-2.87-4-5.78-5.9-8.81-.31-.5-1.8-2.44-1.41-3,.26-.37,1.37-.18,1.75-.17,.71,.05,1.43,.07,2.16,.1,1.42,.05,2.85,.07,4.28,.07s2.85,0,4.29-.03Zm1.86,11.26c-.06,.38-.23,.72-.49,1-1.68,2.18-3.17,4.48-4.67,6.8-.11,.25-.32,.44-.58,.53-.03,0-.06,0-.09,0-.39,0-.73-.32-1-.66l-3.3-4.38c-.53-.73-1.07-1.45-1.61-2.16-.37-.5-.92-1-.36-1.57,.17-.16,.37-.3,.58-.4l1.14-.62c.11-.08,.24-.12,.38-.13,.19,0,.37,.09,.47,.25,.75,1,1.39,2.07,2.24,3,.32,.38,.73,.77,1.22,.7,.37-.11,.69-.36,.9-.69,.72-.89,1.44-1.81,2.17-2.72,.35-.43,.5-.71,1.09-.5,.35,.2,.68,.41,1,.65,.38,.27,.93,.3,.91,.9Zm1.87-2.68c.01,.25-.08,.49-.26,.66l-.61,.82c-.07,.11-.18,.19-.3,.24-.14,0-.28-.05-.39-.15l-.88-.62c-.16-.12-.34-.22-.5-.35-.67-.46-.83-.85-.35-1.58,.17-.27,.43-.48,.73-.6,.45-.16,.64,.08,.94,.32s.83,.48,1.22,.76c.19,.11,.33,.29,.4,.5Zm3.27-8.78c.51,.03,1.01,.15,1.48,.36h0c.33,.3,.09,.71-.12,1-1.21,1.86-2.4,3.73-3.61,5.59-.1,.2-.25,.36-.43,.49-.27,.14-.58,.14-.85,0-.41-.21-1.48-.79-1.46-1.33,.03-.21,.11-.41,.23-.58l2.59-4.33c.17-.3,.39-.56,.65-.79,.44-.33,.98-.47,1.52-.41Zm-19.6,2.5c.62,1.18,1.41,2.16,2.1,3.29,.12,.16,.19,.35,.21,.55,0,.32-.27,.56-.52,.76-.3,.27-.64,.48-1,.65-.36,.17-.78,.17-1.14,0-.22-.14-.41-.33-.54-.55l-4.58-6.2c-.17-.19-.28-.43-.31-.69,0-.4,.51-.52,.83-.57,2.43-.48,3.93,.8,4.95,2.76Zm34.16,4.59c-.39-.19-.72-.49-.94-.86-1.37-1.81-2.75-3.63-4.14-5.46-.13-.13-.18-.31-.14-.48,.08-.16,.28-.2,.46-.22h.45c1.07-.13,2.29-.36,3.22,.25,.7,.56,1.28,1.26,1.7,2.05,.67,.76,1.28,1.55,1.84,2.39,.45,.88,0,1-.66,1.5-.48,.29-1.12,1.09-1.79,.83Zm1.53,2.59c-.1-.15-.21-.29-.33-.43-.37-.51-.59-.9,0-1.5,.65-.55,1.37-1.01,2.14-1.37,.1-.05,.22-.08,.33-.09,.2,.04,.38,.16,.49,.34,.22,.26,.47,.49,.66,.74,.14,.15,.19,.37,.13,.57-.06,.21-.28,.34-.47,.45l-2.34,1.41c-.13,.15-.36,.16-.51,.03-.05-.04-.08-.09-.1-.15Zm15.25,0c-.05,.22-.14,.42-.27,.6l-5.73,9.11c-.1,.19-.25,.36-.43,.47-.12,.07-.26,.08-.39,.05-.65-.12-1.22-1.11-1.61-1.58-.63-.75-1.24-1.5-1.86-2.25l-3.74-4.51c-.16-.15-.24-.35-.23-.57,0-.2,.21-.32,.39-.43l1.55-1c.37-.23,.86-.75,1.33-.68,.38,.11,.71,.37,.9,.72l1.93,2.74c.18,.34,.48,.59,.85,.7,.52,.06,.92-.45,1.2-.9,.82-1.29,1.7-2.54,2.65-3.74,.91-1.14,1.59-.51,2.64,.05,.44,.24,.89,.67,.82,1.18v.04Zm1.65-2.5c.05,.25-.03,.51-.2,.7-.18,.26-.41,.53-.7,.5-.12-.03-.24-.07-.34-.14-.12-.06-.22-.14-.34-.21l-1.31-.77c-.48-.28-.77-.6-.61-1.18,.08-.43,.47-.73,.91-.69,.29,0,.64,.41,.9,.57,.45,.31,.91,.61,1.37,.9,.13,.06,.24,.16,.32,.28v.04Zm4.75-7.68c0,.48-.49,1-.71,1.35-.88,1.59-1.91,3.1-2.86,4.63-.13,.29-.37,.52-.67,.63-.48,.11-2.31-1.14-2.34-1.69,.03-.32,.14-.62,.34-.87,.48-.75,1-1.46,1.42-2.24,.4-.84,1.01-1.56,1.76-2.11,.28-.16,.59-.27,.91-.32,.51-.07,2.21-.21,2.15,.58v.04Zm14.74-.5h1.18c.53,0,1.07-.06,1.62-.06h11.32c.65,0,1.41-.13,2-.07,.13,0,.27,.1,.29,.22s0,.28-.12,.41c-.44,.72-.95,1.39-1.53,2-1.24,1.52-2.4,3.11-3.47,4.75-.65,.88-1.3,1.76-2,2.63s-1.2,1.53-1.8,2.28c-.48,.59-1.06-.34-1.34-.69s-.58-.88-.89-1.3c-.7-1.03-1.42-2.09-2.16-3.17-.82-1.14-1.61-2.31-2.4-3.47-.28-.43-2.31-2.81-1.93-3.4,0,0,0-.06,.09-.09,.29-.13,.83,.02,1.14-.04Zm-2.57,7.43c-.26-.07-.48-.24-.61-.48l-4.47-5.82c-.21-.27-.42-.67-.19-.93l.08-.06c.17-.09,.36-.11,.54-.08l3.45,.18c.31,0,.61,.05,.9,.15,.75,.32,1,1.44,1.42,2.07s.67,1.1,1,1.65c.26,.39,.7,.77,.78,1.26,.14,.84-1.65,1.49-2.22,1.84-.18,.16-.41,.25-.65,.26l-.03-.04Zm.84,2c-.14-.12-.22-.3-.23-.48,0-.07,.03-.13,.08-.18,.31-.24,.64-.44,1-.61,.45-.26,.88-.55,1.3-.86,.3-.23,.46-.46,.9-.35,.32,.09,.59,.29,.78,.56,.19,.27,.54,.76,.4,1.09-.09,.16-.22,.3-.37,.4-.85,.69-1.78,1.26-2.78,1.71-.09,.05-.96-1.17-1.05-1.28h-.03Zm15.49,1.84c-.12,.61-.4,1.17-.8,1.64-1.86,2.49-3.69,5-5.55,7.5-.08,.13-.19,.24-.33,.3-.16,.06-.34,.03-.47-.08-.16-.11-.3-.25-.4-.41l-3.17-4.48c-.58-.81-1.22-1.55-1.8-2.35-.36-.51-1.11-1.21-.76-1.87,.22-.34,.53-.62,.9-.79,.51-.31,1-.61,1.53-.94,.2-.15,.45-.22,.7-.22,.26,.09,.48,.26,.63,.49,.67,.89,1.28,1.77,2,2.65,.25,.32,.52,.89,.88,1.07,.82,.39,1.77-1.48,2.16-2,.69-.88,1.3-1.81,2-2.67,.38-.46,1.36,.49,1.61,.68,.54,.39,.99,.73,.9,1.48h-.03Zm2.15-3.93c.2,.25,.34,.55,.41,.87-.01,.38-.18,.75-.47,1-.21,.33-.56,.55-.95,.6-.72,0-1.61-1.19-2.09-1.66-.47-.43-.51-1.16-.08-1.64,.03-.03,.05-.06,.08-.08,.83-.86,2.38-.06,3.13,.91h-.03Zm5.32-6.64c-.37,.7-.79,1.37-1.26,2-.43,.67-.88,1.33-1.37,2-.29,.5-.63,.98-1,1.42-.62,.58-1.28,.2-1.92-.24-.27-.19-.91-.59-1-.93v-.15c.01-.19,.07-.37,.18-.52,.65-1.12,1.38-2.2,2.17-3.23,.19-.32,.45-.6,.74-.83,.69-.33,1.48-.41,2.23-.22,.54,0,1.65-.16,1.26,.7h-.03Zm12,6.69c-.2-.06-.33-.27-.45-.45-1.32-2.11-3-4.11-4.4-6.16-.09-.08-.13-.2-.11-.32,.08-.13,.23-.2,.38-.18l2.83-.1c.61,0,1.63-.29,2.13,.22,.12,.14,.21,.29,.28,.46,.69,1.52,1.42,3,2.14,4.51,.07,.12,.1,.26,.09,.4,0,.16-.19,.25-.34,.35l-1.7,1.06c-.22,.18-.51,.26-.79,.21h-.06Zm14.2-7.09c.28,0,.95-.1,1.08,.25,.03,.17-.02,.34-.13,.47-.93,1.45-1.95,2.86-2.8,4.33s-1.81,3.05-2.75,4.55c-.31,.45-.6,.92-.85,1.41-.07,.17-.19,.32-.36,.4-.43,.14-1.6-1.81-1.87-2.17-.65-.93-1.28-1.89-1.86-2.88-1.12-1.74-1.94-3.65-2.44-5.66-.05-.15-.05-.31,0-.46,.02-.05,.06-.08,.1-.11,.09-.06,.19-.08,.3-.08,.9,0,1.77-.11,2.66-.11h7.49c.5-.03,1,0,1.49,.06h-.06Zm-12.77,9.57c-.22-.31-.4-.65-.54-1-.08-.15-.11-.32-.08-.48,.05-.22,.39-.3,.55-.4,.55-.39,1.11-.77,1.66-1.14,.08-.08,.19-.12,.3-.11,.09,.02,.17,.09,.21,.17l.61,.78c.2,.26,.55,.66,.53,1,.02,.08,.02,.15,0,.23-.16,.26-.38,.46-.65,.59-.43,.25-.85,.52-1.28,.78-.13,.09-.28,.15-.44,.19-.36-.04-.67-.27-.81-.61h-.06Zm12.47,.82c0,.49-.32,.79-.57,1.14s-.51,.94-.82,1.38c-.67,1-1.36,2-2,3l-1.12,1.61c-.33,.5-.65,1-1,1.48-.01,.04-.04,.08-.07,.1-.05,.09-.12,.16-.21,.2-.19,.07-.32-.21-.42-.33s-.51-.7-.63-.87-.43-.59-.64-.88c-.43-.59-.88-1.16-1.28-1.77-.83-1.18-1.63-2.34-2.43-3.56-.15-.17-.2-.4-.14-.61,.06-.1,.15-.19,.25-.25,.51-.33,1-.65,1.5-1,.3-.21,.65-.64,1.05-.49,.27,.13,.48,.34,.62,.6l1.78,2.56c.15,.23,.35,.47,.62,.46s.42-.23,.56-.44c.52-.78,1-1.56,1.55-2.34,.3-.53,.74-.97,1.27-1.26,.48-.2,1.03-.07,1.38,.31,.26,.27,.77,.53,.81,.96h-.06Zm2-3.18c.09,.1,.14,.22,.15,.35-.03,.19-.11,.37-.23,.51l-.84,1.14c-.09,.14-.22,.25-.37,.31-.35,.09-.85-.37-1.11-.56-.4-.33-.82-.63-1.27-.89-.09-.04-.16-.11-.21-.19-.03-.14,0-.29,.1-.4,.29-.47,.58-.92,.86-1.39,.12-.18,.25-.37,.45-.38,.12,.02,.24,.06,.34,.12,.6,.36,1.17,.82,1.8,1.14,.16,.05,.31,.13,.43,.24h-.1Zm5.17-7c-1.18,1.82-2.36,3.64-3.55,5.46-.15,.3-.39,.56-.67,.74-.19,.09-.42,.09-.61,0-.17-.09-.32-.2-.47-.32-.36-.25-.77-.35-1.13-.6-1.13-.78-.15-1.83,.38-2.65,.37-.6,.85-1.16,1.22-1.77s.44-.88,1-1.1c.51-.14,1.05-.17,1.58-.1,.51,0,1,0,1.52,.06,.32,.01,1.04-.08,.83,.25l-.1,.03Zm62.99-.51c.45,0,2.55-.41,2.59,.31-.01,.17-.07,.32-.16,.46-1.26,2-2.54,3.93-4,5.82l-4.24,5.64c-.08,.16-.23,.26-.4,.29-.18,0-.3-.15-.4-.28-1.32-1.72-2.73-3.3-4.07-5-1.45-1.87-2.91-3.73-4.37-5.6-.16-.2-.34-.49-.19-.71,.14-.15,.34-.23,.55-.21,1.6-.07,3.21-.11,4.8-.18,3.33-.14,6.6-.27,9.89-.54Zm-49,10.58c-.11-.17-.15-.38-.11-.58,.07-.22,.22-.4,.43-.5l1.22-.82c.13-.1,.28-.17,.44-.2,.2,0,.4,.09,.53,.24,.27,.3,.79,.93,.59,1.35-.09,.14-.23,.26-.38,.33-.43,.3-.87,.59-1.3,.87-.13,.11-.29,.17-.46,.19-.4-.02-.79-.59-.95-.91v.03Zm11.82-9.38h2.14c.53,0,1.16-.12,1.69-.1h.18c.15,0,.28,.12,.29,.25,.01,.13-.04,.26-.13,.35-1,1.38-1.84,2.87-2.82,4.31l-2.78,4.08c-.71,1.11-1.49,2.17-2.34,3.18-.13,.17-.31,.3-.51,.36-.36,.06-.67-.28-.89-.58-2.09-2.87-4-5.78-5.9-8.81-.31-.5-1.8-2.44-1.41-3,.26-.37,1.37-.18,1.75-.17,.71,.05,1.43,.07,2.15,.1,1.43,.05,2.86,.07,4.28,.07s2.86-.02,4.3-.04Zm1.88,11.26c-.06,.38-.23,.72-.49,1-1.68,2.18-3.17,4.48-4.67,6.8-.11,.25-.32,.44-.58,.53-.03,0-.06,0-.09,0-.39,0-.73-.32-1-.66l-3.3-4.38c-.54-.73-1.07-1.45-1.61-2.16-.38-.5-.93-1-.36-1.57,.17-.17,.36-.3,.58-.4l1.12-.62c.11-.08,.24-.12,.37-.13,.19,0,.37,.09,.47,.25,.75,1,1.4,2.07,2.24,3,.33,.38,.74,.77,1.22,.7,.38-.11,.7-.36,.9-.69,.73-.89,1.45-1.81,2.18-2.72,.35-.43,.49-.71,1.08-.5,.35,.19,.68,.41,1,.65,.38,.27,.94,.3,.94,.9Zm1.87-2.68c.01,.25-.08,.49-.26,.66l-.62,.82c-.07,.11-.17,.19-.29,.24-.14,0-.28-.05-.39-.15l-.89-.62c-.16-.12-.33-.22-.49-.35-.67-.47-.83-.85-.35-1.58,.17-.27,.42-.48,.72-.6,.46-.16,.65,.08,.94,.32s.83,.48,1.22,.76c.19,.11,.32,.29,.39,.5h.02Zm3.25-8.78c.51,.02,1.02,.14,1.49,.35h0c.33,.3,.09,.71-.13,1l-3.57,5.65c-.1,.19-.25,.36-.43,.49-.27,.14-.58,.14-.85,0-.41-.21-1.49-.79-1.46-1.33,.03-.21,.11-.41,.23-.58,.86-1.43,1.71-2.88,2.59-4.33,.16-.31,.38-.59,.63-.83,.43-.33,.96-.48,1.5-.42Zm-19.6,2.5c.62,1.18,1.41,2.16,2.09,3.29,.12,.16,.2,.35,.22,.55,0,.32-.27,.56-.53,.76-.3,.27-.63,.49-1,.65-.36,.17-.78,.17-1.14,0-.22-.14-.41-.33-.54-.55l-4.57-6.2c-.17-.19-.28-.43-.31-.69,0-.4,.51-.52,.83-.57,2.43-.48,3.93,.8,4.95,2.76Zm34.15,4.59c-.39-.19-.71-.49-.93-.86l-4.11-5.46c-.13-.12-.19-.3-.15-.48,.08-.16,.28-.2,.47-.22h.44c1.08-.13,2.3-.36,3.22,.25,.7,.56,1.29,1.26,1.71,2.05,.67,.76,1.28,1.55,1.84,2.39,.45,.88,0,1-.66,1.5-.5,.29-1.16,1.09-1.83,.83h0Zm1.53,2.59c-.1-.15-.2-.29-.32-.43-.37-.51-.59-.9,0-1.5,.65-.54,1.36-1,2.12-1.37,.1-.05,.21-.08,.32-.09,.21,.04,.39,.16,.5,.34,.21,.26,.47,.49,.66,.74,.14,.15,.19,.37,.13,.57-.1,.2-.26,.36-.47,.45l-2.36,1.41c-.1,.08-.22,.12-.35,.11-.1-.05-.18-.13-.23-.23h0Zm15.26,0c-.05,.22-.14,.42-.27,.6l-5.73,9.11c-.1,.19-.25,.36-.43,.47-.12,.07-.26,.08-.39,.05-.66-.12-1.22-1.11-1.61-1.58-.63-.75-1.25-1.5-1.86-2.25l-3.75-4.51c-.15-.15-.23-.35-.22-.56,0-.2,.21-.32,.39-.43l1.55-1c.36-.23,.86-.75,1.33-.68,.38,.11,.71,.37,.9,.72l1.93,2.74c.17,.34,.48,.59,.84,.7,.53,.06,.93-.45,1.21-.9,.82-1.29,1.7-2.55,2.65-3.75,.92-1.14,1.6-.51,2.65,.05,.48,.2,.8,.66,.81,1.18v.04Zm1.65-2.5c.05,.25-.03,.51-.21,.7-.17,.26-.4,.52-.69,.5-.12-.03-.24-.07-.34-.14-.12-.06-.23-.14-.35-.21l-1.3-.77c-.48-.28-.78-.6-.62-1.18,.09-.43,.48-.72,.92-.69,.29,0,.64,.41,.9,.57,.45,.31,.91,.61,1.36,.9,.13,.06,.25,.16,.33,.28v.04Zm4.74-7.68c0,.48-.48,1-.71,1.35-.87,1.59-1.9,3.1-2.85,4.63-.13,.29-.37,.52-.67,.63-.49,.11-2.31-1.14-2.34-1.69,.02-.32,.14-.62,.34-.87,.48-.75,1-1.46,1.42-2.24,.4-.84,1.01-1.57,1.76-2.11,.28-.17,.59-.28,.91-.32,.51-.07,2.21-.21,2.14,.58v.04Zm14.77-.5h1.18c.54,0,1.08-.06,1.63-.06h11.32c.64,0,1.41-.13,2-.07,.13,.01,.24,.1,.29,.22,.05,.15,0,.28-.12,.41-.44,.72-.95,1.39-1.53,2-1.21,1.53-2.35,3.11-3.39,4.76-.65,.88-1.31,1.76-2,2.63s-1.19,1.53-1.79,2.28c-.49,.59-1.06-.34-1.35-.69s-.57-.88-.88-1.3c-.79-1.04-1.55-2.1-2.28-3.18-.82-1.14-1.61-2.31-2.41-3.47-.28-.43-2.3-2.81-1.93-3.4,0,0,.06-.06,.1-.09,.29-.13,.83,.02,1.16-.04Zm-2.56,7.43c-.26-.07-.49-.24-.62-.48l-4.44-5.78c-.22-.27-.42-.67-.19-.93,0,0,0-.05,.08-.06,.17-.09,.36-.11,.54-.08,1.15,0,2.29,.12,3.44,.18,.31,0,.61,.05,.9,.15,.75,.32,1.05,1.44,1.43,2.07s.67,1.1,1,1.65c.26,.39,.7,.77,.78,1.26,.13,.84-1.65,1.49-2.23,1.84-.19,.16-.44,.24-.69,.22v-.04Zm.83,2c-.13-.13-.21-.3-.22-.48,0-.07,.03-.13,.08-.18,.31-.24,.64-.45,1-.61,.45-.26,.88-.55,1.3-.86,.3-.23,.46-.46,.9-.35,.32,.09,.59,.29,.78,.56,.18,.27,.53,.76,.4,1.09-.09,.17-.22,.3-.38,.4-.84,.69-1.76,1.26-2.75,1.71-.14,.05-1-1.17-1.11-1.28h0Zm15.5,1.84c-.13,.61-.4,1.17-.81,1.64-1.85,2.49-3.69,4.99-5.54,7.5-.08,.13-.19,.23-.33,.3-.16,.06-.34,.03-.47-.08-.16-.11-.3-.25-.41-.41l-3.16-4.48c-.58-.81-1.22-1.55-1.8-2.35-.36-.51-1.11-1.21-.76-1.87,.22-.35,.53-.62,.9-.79,.51-.31,1-.61,1.52-.94,.21-.14,.45-.22,.7-.22,.26,.08,.49,.26,.63,.49,.67,.89,1.29,1.77,2,2.65,.26,.32,.53,.89,.89,1.07,.82,.39,1.77-1.48,2.16-2,.68-.88,1.3-1.81,2-2.67,.37-.46,1.35,.49,1.61,.68,.48,.39,.96,.73,.87,1.48h0Zm2.14-3.93c.21,.25,.35,.55,.42,.87,.07,.39-.22,.74-.47,1-.22,.34-.59,.56-1,.6-.73,0-1.61-1.19-2.1-1.66-.46-.44-.48-1.18-.03-1.64,.03-.03,.06-.05,.08-.08,.81-.86,2.35-.06,3.1,.91Zm5.33-6.64c-.37,.7-.79,1.36-1.26,2-.43,.67-.89,1.33-1.37,2-.3,.51-.65,.98-1.05,1.42-.61,.58-1.27,.2-1.91-.24-.27-.19-.92-.59-1-.93v-.15c.01-.18,.07-.36,.17-.52,.66-1.12,1.39-2.2,2.18-3.23,.19-.32,.44-.6,.73-.83,.7-.33,1.5-.41,2.25-.22,.53,0,1.65-.16,1.26,.7Zm12,6.69c-.2-.06-.33-.27-.45-.45-1.32-2.11-3-4.11-4.4-6.16-.09-.08-.13-.2-.11-.32,.05-.14,.23-.18,.37-.18l2.83-.1c.62,0,1.64-.29,2.14,.22,.12,.14,.21,.29,.28,.46,.68,1.52,1.42,3,2.13,4.51,.07,.12,.11,.26,.1,.4,0,.16-.19,.25-.34,.35l-1.7,1.06c-.23,.19-.53,.26-.82,.21h-.03Zm14.22-7.09c.29,0,1-.1,1.09,.25,.02,.17-.05,.33-.17,.45-.93,1.45-2,2.86-2.81,4.33s-1.81,3.05-2.75,4.55c-.31,.45-.59,.92-.84,1.41-.07,.17-.19,.32-.36,.4-.43,.14-1.6-1.81-1.87-2.17-.66-.93-1.29-1.89-1.86-2.88-1.12-1.73-1.95-3.64-2.46-5.64-.05-.15-.05-.31,0-.46,0,0,.05-.09,.09-.11,.09-.06,.2-.09,.31-.08,.9,0,1.77-.11,2.66-.11h7.46c.5-.03,1.01-.01,1.51,.06Zm-12.77,9.57c-.21-.31-.39-.65-.53-1-.08-.15-.11-.32-.08-.48,.05-.22,.39-.3,.55-.4,.55-.39,1.11-.77,1.66-1.14,.08-.08,.19-.12,.3-.11,.09,.02,.17,.09,.21,.17l.6,.78c.28,.27,.47,.62,.54,1,.02,.08,.02,.15,0,.23-.16,.26-.39,.46-.66,.59-.43,.25-.84,.52-1.27,.78-.13,.09-.28,.15-.44,.19-.39-.02-.73-.25-.88-.61Zm12.48,.82c0,.49-.32,.79-.58,1.14s-.51,.94-.82,1.38c-.67,1-1.35,2-2,3-.38,.54-.76,1.07-1.12,1.61s-.66,1-1,1.48c-.02,.04-.04,.07-.07,.1-.05,.09-.13,.16-.22,.2-.18,.07-.32-.21-.41-.33s-.51-.7-.63-.87l-.65-.88c-.43-.59-.87-1.16-1.27-1.77-.83-1.18-1.64-2.34-2.43-3.56-.15-.17-.2-.39-.15-.61,.07-.1,.15-.19,.26-.25,.51-.33,1-.65,1.5-1,.3-.21,.65-.64,1.05-.49,.26,.13,.48,.34,.61,.6l1.71,2.56c.14,.23,.34,.47,.61,.46s.43-.23,.57-.44c.52-.78,1-1.56,1.55-2.34,.3-.54,.74-.98,1.28-1.27,.48-.2,1.03-.07,1.38,.31,.28,.28,.79,.54,.83,.97Zm2-3.18c.09,.1,.14,.22,.15,.35-.03,.19-.11,.37-.23,.51-.28,.38-.57,.75-.85,1.14-.08,.14-.21,.25-.36,.31-.35,.09-.86-.37-1.11-.56-.4-.33-.83-.63-1.28-.89-.08-.04-.15-.11-.2-.19-.03-.14,0-.29,.1-.4,.29-.47,.57-.92,.85-1.39,.13-.18,.26-.37,.46-.38,.12,.02,.24,.06,.34,.12,.6,.36,1.16,.82,1.79,1.14,.14,.06,.27,.14,.38,.24h-.04Zm5.16-7l-3.54,5.46c-.16,.3-.39,.55-.67,.74-.2,.09-.42,.09-.62,0-.16-.1-.32-.2-.47-.32-.36-.25-.76-.35-1.12-.6-1.13-.78-.15-1.83,.37-2.65,.38-.6,.86-1.16,1.22-1.77s.45-.88,1-1.1c.51-.14,1.05-.17,1.58-.1,.51,0,1,0,1.52,.06,.26,.01,.99-.08,.78,.25l-.05,.03Zm62.94-.51c.45,0,2.54-.41,2.59,.31-.01,.17-.07,.32-.17,.46-1.26,2-2.53,3.93-3.95,5.82l-4.24,5.64c-.1,.14-.23,.29-.4,.29s-.3-.15-.41-.28c-1.31-1.72-2.72-3.3-4.06-5-1.45-1.87-2.91-3.73-4.37-5.6-.17-.2-.34-.49-.19-.71s.35-.2,.55-.21c1.59-.07,3.2-.11,4.8-.18,3.29-.14,6.59-.27,9.85-.54Zm-49,10.58c-.11-.17-.15-.38-.11-.58,.07-.22,.22-.4,.43-.5,.4-.27,.8-.55,1.22-.82,.13-.1,.28-.17,.44-.2,.2,0,.39,.09,.52,.24,.27,.3,.8,.93,.59,1.35-.09,.14-.22,.26-.37,.33-.43,.3-.87,.59-1.3,.87-.13,.11-.29,.17-.46,.19-.4-.02-.79-.59-.95-.91v.03Zm11.81-9.38h2.15c.52,0,1.15-.12,1.69-.1h.18c.14,0,.28,.12,.29,.25,.01,.13-.04,.26-.13,.35-1.05,1.38-1.84,2.87-2.82,4.31s-1.85,2.71-2.78,4.08c-.71,1.11-1.5,2.17-2.35,3.18-.12,.18-.3,.3-.51,.36-.36,.06-.67-.28-.88-.58-2.09-2.87-4-5.78-5.9-8.81-.31-.5-1.8-2.44-1.41-3,.25-.37,1.37-.18,1.74-.17,.71,.05,1.44,.07,2.16,.1,1.42,.05,2.86,.07,4.28,.07s2.86-.02,4.29-.04Zm1.87,11.26c-.06,.38-.24,.73-.5,1-1.67,2.18-3.16,4.48-4.67,6.8-.11,.25-.32,.44-.57,.53-.03,0-.07,0-.1,0-.39,0-.72-.32-1-.66l-3.3-4.38-1.61-2.16c-.38-.5-.93-1-.36-1.57,.17-.17,.36-.3,.57-.4l1.16-.62c.11-.08,.24-.12,.37-.13,.19,0,.37,.09,.47,.25,.75,1,1.4,2.07,2.24,3,.32,.38,.74,.77,1.22,.7,.38-.11,.7-.36,.9-.69,.73-.89,1.45-1.81,2.17-2.72,.35-.43,.5-.71,1.09-.5,.35,.2,.68,.41,1,.65,.34,.27,.93,.3,.92,.9Zm1.86-2.68c.02,.25-.07,.49-.25,.66-.22,.28-.42,.55-.62,.82-.07,.11-.17,.19-.29,.24-.14,0-.28-.05-.39-.15l-.89-.62c-.16-.12-.33-.22-.49-.35-.68-.47-.84-.85-.35-1.58,.17-.27,.42-.48,.72-.6,.46-.16,.65,.08,.94,.32s.83,.48,1.22,.76c.19,.11,.33,.29,.4,.5h0Zm3.28-8.78c.51,.02,1.02,.14,1.49,.35h0c.34,.3,.1,.71-.12,1-1.21,1.86-2.4,3.73-3.61,5.59-.1,.2-.25,.36-.43,.49-.26,.14-.58,.14-.84,0-.42-.21-1.49-.79-1.46-1.33,.03-.21,.1-.41,.22-.58l2.59-4.33c.17-.31,.38-.58,.63-.83,.45-.31,.99-.44,1.53-.36Zm-19.6,2.5c.61,1.18,1.41,2.16,2.09,3.29,.12,.16,.2,.35,.22,.55,0,.32-.27,.56-.53,.76-.3,.27-.63,.49-1,.65-.36,.17-.78,.17-1.14,0-.22-.14-.4-.33-.53-.55l-4.59-6.2c-.16-.2-.27-.44-.3-.69,0-.4,.51-.52,.83-.57,2.43-.48,3.93,.8,4.95,2.76Zm34.15,4.59c-.39-.19-.71-.49-.94-.86-1.37-1.81-2.73-3.63-4.1-5.46-.13-.12-.19-.3-.15-.48,.08-.16,.28-.2,.47-.22l.45-.07c1.08-.13,2.3-.36,3.22,.25,.7,.56,1.29,1.26,1.71,2.05,.66,.76,1.27,1.55,1.83,2.39,.46,.88,0,1-.65,1.5-.52,.36-1.17,1.16-1.84,.9Zm1.53,2.59c-.1-.15-.21-.29-.32-.43-.38-.51-.59-.9,0-1.5,.65-.55,1.38-1.01,2.15-1.37,.1-.05,.21-.08,.32-.09,.2,.04,.38,.17,.5,.34,.21,.26,.47,.49,.65,.74,.15,.15,.2,.37,.14,.57-.1,.2-.26,.36-.47,.45l-2.36,1.41c-.1,.08-.22,.12-.35,.11-.11-.05-.2-.13-.26-.23Zm15.25,0c-.04,.22-.13,.43-.27,.6l-5.72,9.11c-.1,.19-.25,.36-.43,.47-.12,.07-.26,.08-.39,.05-.66-.12-1.22-1.11-1.61-1.58l-1.87-2.33-3.76-4.47c-.15-.15-.24-.35-.23-.56,0-.2,.22-.32,.39-.43l1.56-1c.36-.23,.86-.75,1.33-.68,.38,.11,.71,.37,.9,.72,.64,.91,1.28,1.83,1.93,2.74,.17,.34,.48,.59,.84,.7,.53,.06,.93-.45,1.21-.9,.81-1.3,1.69-2.54,2.64-3.74,.91-1.14,1.6-.51,2.64,.05,.47,.27,.91,.7,.84,1.21v.04Zm1.65-2.5c.1,.23-.05,.49-.2,.7s-.4,.52-.7,.5c-.12-.03-.23-.07-.33-.14-.12-.06-.23-.14-.35-.21l-1.3-.77c-.48-.28-.78-.6-.62-1.18,.08-.43,.47-.73,.91-.69,.3,0,.65,.41,.9,.57,.46,.31,.91,.61,1.37,.9,.13,.06,.24,.16,.32,.28v.04Zm4.75-7.68c0,.48-.48,1-.71,1.35-.87,1.59-1.9,3.1-2.86,4.63-.13,.29-.37,.52-.67,.63-.48,.11-2.3-1.14-2.33-1.69,.02-.32,.14-.62,.33-.87,.49-.75,1-1.46,1.43-2.24,.41-.82,1.01-1.53,1.75-2.07,.28-.17,.6-.27,.92-.32,.51-.11,2.21-.25,2.14,.54v.04Z"/></svg>