<?xml version="1.0" encoding="utf-8"?>
<!-- Generator: Adobe Illustrator 26.1.0, SVG Export Plug-In . SVG Version: 6.00 Build 0)  -->
<svg version="1.1" id="a" xmlns="http://www.w3.org/2000/svg" xmlns:xlink="http://www.w3.org/1999/xlink" x="0px" y="0px"
	 viewBox="0 0 497.9 44.6" style="enable-background:new 0 0 497.9 44.6;" xml:space="preserve">
<style type="text/css">
	.st0{fill:#D7D284;}
	.st1{fill:#649297;}
	.st2{fill:#B7D685;}
	.st3{fill:#3E342F;}
</style>
<path class="st0" d="M108.2,20.6c-0.3,0.2-1,0.1-1.3,0.1s-0.7-0.1-0.7-0.6c-0.1-1.4-0.2-2.9-0.2-4.3c0-2.3-0.1-4.6-0.2-7
	c-0.1-1.9,0-3.8,0-5.7c0-0.2,0-0.4,0.1-0.5l0.1-0.1c0.2-0.1,0.5-0.2,0.7-0.2c3.2,0,6.3,0,9.4,0.1s6.1-0.1,9.1-0.1h1.4
	c0.3,0,0.6-0.2,0.8,0.1c0.1,0.2,0.2,0.5,0.2,0.7c0.5,5.7,0.7,11.3,0.6,17c0,0.2,0,0.3-0.1,0.5c-0.1,0.1-0.3,0.1-0.5,0.1
	c-0.6,0-1.4,0.2-1.6-0.5c-0.1-0.5-0.1-1,0-1.4c-0.1-3.1-0.3-6.3-0.4-9.4c0-0.8-0.1-1.6-0.1-2.3c0.1-0.5,0-1.1-0.1-1.6
	c-0.5-1.2-2.1-0.9-3.1-0.9h-4.3c-2.8,0-5.7,0-8.5-0.1c-1.6,0-1.7,0.1-1.7,1.7c0,2.3,0.1,4.6,0.2,6.9s0.1,4.6,0.2,6.9
	C108.5,20,108.5,20.4,108.2,20.6L108.2,20.6z M54.9,21.3c0.1,0,0.2,0,0.3-0.1c0.1-0.1,0.1-0.2,0.1-0.4L55,13.5c0-0.4-0.1-0.7-0.3-1
	c0,0-0.1-0.1-0.1-0.1c-0.2-0.1-0.5-0.2-0.8-0.2c-1.5,0-3,0-4.4,0.1c-0.3,0-0.6,0.1-0.9,0.3c-0.3,0.3-0.2,0.6-0.2,1s0,0.9,0,1.4
	c0,1.8,0,3.5,0,5.3c0,0.2,0,0.5,0.2,0.7c0.2,0.2,0.6,0.3,0.9,0.3c0.3,0,0.6,0,0.8-0.2c0.1-0.2,0.2-0.4,0.1-0.6
	c-0.1-1.4-0.2-2.7-0.3-4c-0.1-0.4,0-0.9,0.2-1.2c0.3-0.4,1.4-0.2,1.8-0.2c0.1,0,0.2,0,0.3,0c0.2,0.1,0.3,0.2,0.3,0.4
	c0.2,1.8,0.2,3.6,0.3,5.4c0,0.6,0.3,0.5,0.8,0.5H54.9z M121.4,19.6c-0.1-1.9-0.1-3.7-0.2-5.6c0-0.9-0.1-1.8-0.1-2.7
	c0-0.6,0.1-1.5-0.4-1.9c-0.4-0.2-0.8-0.3-1.2-0.2h-6.2c-0.3,0-0.6,0-0.7,0.3c0,0,0,0.1,0,0.1c0,0.1,0,0.2,0,0.3
	c0.3,3.2,0.4,6.5,0.6,9.8c0,0.2,0.1,0.5,0.2,0.7c0.3,0.3,0.7,0.5,1.2,0.4c0.3,0,0.6,0,0.9-0.2c0.6-0.4,0.2-2,0.2-2.6
	c-0.1-1.7-0.1-3.3-0.1-5c0-0.2,0-0.4,0.1-0.5c0.2-0.2,0.4-0.2,0.7-0.2h1.7c0.2,0,0.3,0,0.4,0.1c0.4,0.2,0.3,0.9,0.3,1.2
	c0,0.6-0.1,1.3,0,2c0.1,1.4,0.2,2.8,0.1,4.2c0,0.3,0,0.6,0.1,0.8c0.2,0.4,0.8,0.3,1.1,0.3s0.9,0.1,1.2-0.2
	C121.4,20.3,121.4,19.9,121.4,19.6z M63.5,20.7c0-0.5,0-1-0.1-1.5c0-0.8-0.1-1.7-0.2-2.5c-0.1-1.7-0.2-3.4-0.2-5.1
	c0-1.2,0-2.3-0.1-3.5c0-0.8,0-1.6-0.1-2.5c0-0.6,0.1-1.8-0.4-2.1c-0.3-0.2-0.8,0-1.2,0h-1.5L40.8,3.7c-0.2,0-0.3,0-0.4,0.1
	c-0.1,0.1-0.1,0.3-0.1,0.4c0.1,2.7,0.2,5.4,0.3,8.1c0.1,2.5,0.1,5,0.2,7.6c0,0.3,0,0.6,0.2,0.9c0.1,0.1,0.2,0.2,0.3,0.3
	c0.4,0.2,0.8,0.3,1.3,0.2c0.4,0,0.7-0.1,1-0.3c0.1-0.2,0.2-0.5,0.1-0.7c0-2.3-0.1-4.6-0.1-6.9c-0.1-1.8,0-3.6,0.2-5.4
	c0-0.2,0.1-0.4,0.2-0.5c0.3-0.3,0.9-0.2,1.3-0.2h6c1.8,0,3.5-0.1,5.2-0.1C57.2,7,58,7,58.9,7.1c0.6,0.2,0.6,1.1,0.7,1.7
	c0.1,3.9,0.2,7.7,0.5,11.6c0.1,1.3,1.7,1,2.6,1C63.2,21.3,63.4,21.2,63.5,20.7L63.5,20.7z M193.8,20.7c0-0.5,0-1-0.1-1.5
	c-0.1-0.8-0.1-1.7-0.1-2.5c-0.1-1.7-0.2-3.4-0.2-5.1c-0.1-1.2-0.1-2.3-0.1-3.5c0-0.8,0-1.6-0.1-2.5c0-0.6,0.1-1.8-0.4-2.1
	c-0.3-0.2-0.8,0-1.2,0H190c-6.3,0.1-12.6,0.2-18.9,0.2c-0.1,0-0.3,0-0.4,0.1c-0.1,0.1-0.1,0.3-0.1,0.4c0.1,2.7,0.2,5.4,0.3,8.1
	c0.1,2.5,0.1,5,0.1,7.6c0,0.3,0,0.6,0.2,0.9c0.1,0.1,0.2,0.2,0.3,0.3c0.4,0.2,0.8,0.3,1.3,0.2c0.4,0,0.7-0.1,1-0.3
	c0.1-0.2,0.2-0.5,0.1-0.7c0-2.3-0.1-4.6-0.1-6.9c-0.1-1.8,0-3.6,0.2-5.4c0-0.2,0.1-0.4,0.2-0.5c0.3-0.3,0.9-0.2,1.3-0.2h6.1
	c1.7,0,3.5-0.1,5.2-0.1c0.9-0.2,1.7-0.2,2.6-0.1c0.6,0.2,0.6,1.1,0.6,1.7c0.1,3.9,0.2,7.7,0.5,11.6c0.1,1.3,1.7,1,2.6,1
	C193.5,21.3,193.7,21.2,193.8,20.7L193.8,20.7z M185.2,21.3c0.1,0,0.2,0,0.3-0.1c0.1-0.1,0.1-0.2,0.1-0.4l-0.3-7.4
	c0-0.4-0.1-0.7-0.3-1c0,0-0.1-0.1-0.1-0.1c-0.2-0.1-0.5-0.2-0.8-0.2c-1.5,0-2.9,0-4.4,0.1c-0.3,0-0.6,0.1-0.9,0.3
	c-0.3,0.3-0.2,0.6-0.2,1s0,0.9,0,1.4c0,1.8,0,3.5,0.1,5.3c0,0.2,0,0.5,0.2,0.7c0.2,0.2,0.6,0.3,0.9,0.3c0.3,0,0.6,0,0.8-0.2
	c0.1-0.2,0.1-0.4,0.1-0.6c-0.1-1.4-0.2-2.7-0.3-4c-0.1-0.4,0-0.9,0.2-1.2c0.3-0.4,1.4-0.2,1.8-0.2c0.1,0,0.2,0,0.3,0
	c0.2,0.1,0.3,0.2,0.3,0.4c0.2,1.8,0.2,3.6,0.3,5.4c0,0.6,0.4,0.5,0.8,0.5H185.2L185.2,21.3z M302.7,19.8c0-2.3,0-4.6-0.2-6.9
	s-0.3-4.6-0.2-6.9c0-1.6,0.2-1.7,1.8-1.7c2.8,0.1,5.6,0.1,8.5,0.1h4.3c1,0,2.6-0.3,3.1,0.9c0.1,0.5,0.2,1.1,0.1,1.6
	c0,0.8,0.1,1.6,0.1,2.3l0.4,9.4c0,0.5,0,1,0,1.4c0.2,0.7,1,0.5,1.6,0.5c0.2,0,0.3,0,0.5-0.1c0.1-0.1,0.2-0.3,0.1-0.5
	c0.1-5.7-0.1-11.4-0.7-17c0-0.2-0.1-0.5-0.2-0.7c-0.2-0.3-0.5-0.1-0.8-0.1h-1.5c-3,0-6.1,0.1-9.1,0.1s-6.3-0.1-9.4-0.1
	c-0.3,0-0.5,0-0.7,0.2l-0.1,0.1c-0.1,0.2-0.1,0.3-0.1,0.5c-0.1,1.9-0.1,3.8,0,5.7c0.1,2.3,0.2,4.6,0.2,7c0,1.4,0,2.9,0.2,4.3
	c0,0.5,0.2,0.7,0.7,0.6s1,0.1,1.3-0.1C302.7,20.4,302.8,20.1,302.7,19.8L302.7,19.8z M249.1,21.3c0.1,0,0.2,0,0.3-0.1
	c0.1-0.1,0.1-0.2,0.1-0.4l-0.3-7.4c0-0.4-0.1-0.7-0.3-1c0,0-0.1-0.1-0.1-0.1c-0.2-0.1-0.5-0.2-0.8-0.2c-1.5,0-2.9,0-4.4,0.1
	c-0.3,0-0.6,0.1-0.9,0.3c-0.3,0.3-0.2,0.6-0.2,1s0,0.9,0,1.4v5.3c0,0.2,0,0.5,0.2,0.7c0.2,0.2,0.6,0.3,0.9,0.3c0.3,0,0.6,0,0.8-0.2
	c0.1-0.2,0.1-0.4,0.1-0.6c-0.1-1.4-0.2-2.7-0.3-4c-0.1-0.4,0-0.9,0.2-1.2c0.3-0.4,1.4-0.2,1.8-0.2c0.1,0,0.2,0,0.3,0
	c0.2,0.1,0.3,0.2,0.3,0.4c0.2,1.8,0.2,3.6,0.3,5.4c0,0.6,0.4,0.5,0.8,0.5H249.1z M315.6,19.6c-0.1-1.9-0.1-3.7-0.2-5.6l-0.1-2.7
	c0-0.6,0.1-1.5-0.5-1.9c-0.4-0.2-0.8-0.3-1.2-0.2h-6.2c-0.3,0-0.6,0-0.7,0.3c0,0,0,0.1,0,0.1c0,0.1,0,0.2,0,0.3
	c0.3,3.2,0.4,6.5,0.6,9.8c0,0.2,0.1,0.5,0.2,0.7c0.3,0.3,0.7,0.5,1.1,0.4c0.3,0,0.6,0,0.9-0.2c0.6-0.4,0.2-2,0.2-2.6
	c-0.1-1.7-0.1-3.3-0.1-5c0-0.2,0-0.4,0.1-0.5c0.2-0.2,0.4-0.2,0.7-0.2h1.7c0.1,0,0.3,0,0.5,0.1c0.4,0.2,0.3,0.9,0.3,1.2
	c0,0.6,0,1.3,0,2c0.1,1.4,0.2,2.8,0.1,4.2c0,0.3,0,0.6,0.1,0.8c0.2,0.4,0.8,0.3,1.1,0.3s0.9,0.1,1.2-0.2
	C315.6,20.3,315.7,19.9,315.6,19.6L315.6,19.6z M257.7,20.7c0-0.5,0-1-0.1-1.5c0-0.8-0.1-1.7-0.1-2.5c-0.1-1.7-0.2-3.4-0.2-5.1
	c0-1.2,0-2.3-0.1-3.5c0-0.8,0-1.6-0.1-2.5c0-0.6,0.1-1.8-0.4-2.1c-0.3-0.2-0.8,0-1.2,0h-1.5L235,3.7c-0.1,0-0.3,0-0.4,0.1
	c-0.1,0.1-0.1,0.3-0.1,0.4c0.1,2.7,0.2,5.4,0.3,8.1c0.1,2.5,0.1,5,0.1,7.6c0,0.3,0,0.6,0.2,0.9c0.1,0.1,0.2,0.2,0.3,0.3
	c0.4,0.2,0.8,0.3,1.3,0.2c0.4,0,0.7-0.1,1-0.3c0.1-0.2,0.2-0.5,0.1-0.7c0-2.3-0.1-4.6-0.1-6.9c-0.1-1.8,0-3.6,0.2-5.4
	c0-0.2,0.1-0.4,0.2-0.5c0.3-0.3,0.9-0.2,1.3-0.2h6c1.7,0,3.5-0.1,5.2-0.1c0.9-0.2,1.7-0.2,2.6-0.1c0.6,0.2,0.6,1.1,0.7,1.7
	c0.1,3.9,0.2,7.7,0.5,11.6c0.1,1.3,1.7,1,2.6,1C257.4,21.3,257.6,21.2,257.7,20.7z M388,20.7c0-0.5,0-1-0.1-1.5
	c0-0.8-0.1-1.7-0.1-2.5c-0.1-1.7-0.2-3.4-0.2-5.1c0-1.2,0-2.3-0.1-3.5c0-0.8,0-1.6-0.1-2.5c0-0.6,0.1-1.8-0.4-2.1
	c-0.3-0.2-0.8,0-1.2,0h-1.5l-18.9,0.2c-0.1,0-0.3,0-0.4,0.1c-0.1,0.1-0.1,0.3-0.1,0.4c0.1,2.7,0.2,5.4,0.3,8.1
	c0.1,2.5,0.1,5,0.1,7.6c0,0.3,0,0.6,0.2,0.9c0.1,0.1,0.2,0.2,0.3,0.3c0.4,0.2,0.8,0.3,1.3,0.2c0.4,0,0.7-0.1,1-0.3
	c0.1-0.2,0.2-0.5,0.1-0.7c0-2.3-0.1-4.6-0.1-6.9c-0.1-1.8,0-3.6,0.2-5.4c0-0.2,0-0.4,0.1-0.5c0.3-0.3,0.9-0.2,1.3-0.2h6
	c1.8,0,3.5-0.1,5.2-0.1c0.9-0.2,1.7-0.2,2.6-0.1c0.6,0.2,0.6,1.1,0.7,1.7c0.1,3.9,0.2,7.7,0.5,11.6c0.1,1.3,1.7,1,2.6,1
	C387.8,21.3,388,21.2,388,20.7z M379.4,21.3c0.1,0,0.2,0,0.3-0.1c0.1-0.1,0.1-0.2,0.1-0.4l-0.3-7.4c0-0.4-0.1-0.7-0.3-1
	c0,0-0.1-0.1-0.1-0.1c-0.2-0.1-0.5-0.2-0.8-0.2c-1.5,0-3,0-4.4,0.1c-0.3,0-0.6,0.1-0.9,0.3c-0.3,0.3-0.2,0.6-0.2,1s0,0.9,0,1.4v5.3
	c0,0.2,0,0.5,0.2,0.7c0.2,0.2,0.6,0.3,0.9,0.3c0.3,0,0.6,0,0.8-0.2c0.1-0.2,0.1-0.4,0.1-0.6c-0.1-1.4-0.2-2.7-0.3-4
	c-0.1-0.4,0-0.9,0.2-1.2c0.3-0.4,1.4-0.2,1.8-0.2c0.1,0,0.2,0,0.3,0c0.2,0.1,0.3,0.2,0.3,0.4c0.2,1.8,0.2,3.6,0.3,5.4
	c0,0.6,0.4,0.5,0.8,0.5H379.4L379.4,21.3z M443.3,21.3c0.1,0,0.2,0,0.3-0.1c0.1-0.1,0.1-0.2,0.1-0.4l-0.3-7.4c0-0.4-0.1-0.7-0.3-1
	c0,0-0.1-0.1-0.1-0.1c-0.2-0.1-0.5-0.2-0.8-0.2c-1.5,0-3,0-4.4,0.1c-0.3,0-0.6,0.1-0.9,0.3c-0.3,0.3-0.2,0.6-0.2,1s0,0.9,0,1.4
	c0,1.8,0,3.5,0,5.3c0,0.2,0,0.5,0.2,0.7c0.2,0.2,0.6,0.3,0.9,0.3c0.3,0,0.6,0,0.8-0.2c0.1-0.2,0.1-0.4,0.1-0.6
	c-0.1-1.4-0.2-2.7-0.3-4c-0.1-0.4,0-0.9,0.2-1.2c0.3-0.4,1.4-0.2,1.8-0.2c0.1,0,0.2,0,0.3,0c0.2,0.1,0.3,0.2,0.3,0.4
	c0.2,1.8,0.2,3.6,0.3,5.4c0,0.6,0.4,0.5,0.8,0.5C442.2,21.3,443.3,21.3,443.3,21.3z M451.9,20.7c0-0.5,0-1-0.1-1.5
	c0-0.8-0.1-1.7-0.1-2.5c-0.1-1.7-0.2-3.4-0.2-5.1c0-1.2,0-2.3-0.1-3.5c0-0.8,0-1.6-0.1-2.5c0-0.6,0.1-1.8-0.4-2.1
	c-0.3-0.2-0.8,0-1.2,0h-1.5c-6.3,0.1-12.6,0.2-18.9,0.2c-0.1,0-0.3,0-0.4,0.1c-0.1,0.1-0.1,0.3-0.1,0.4c0.1,2.7,0.2,5.4,0.3,8.1
	c0.1,2.5,0.1,5,0.1,7.6c0,0.3,0,0.6,0.2,0.9c0.1,0.1,0.2,0.2,0.3,0.3c0.4,0.2,0.8,0.3,1.3,0.2c0.4,0,0.7-0.1,1-0.3
	c0.1-0.2,0.2-0.5,0.1-0.7c0-2.3-0.1-4.6-0.1-6.9c-0.1-1.8,0-3.6,0.2-5.4c0-0.2,0.1-0.4,0.2-0.5c0.3-0.3,0.9-0.2,1.3-0.2h2
	c1.3,0,2.7,0,4,0c1.7,0,3.5-0.1,5.2-0.1c0.9-0.2,1.7-0.2,2.6-0.1c0.6,0.2,0.6,1.1,0.6,1.7c0.1,3.9,0.2,7.7,0.5,11.6
	c0.1,1.3,1.7,1,2.6,1C451.7,21.3,451.8,21.2,451.9,20.7C451.9,20.7,451.9,20.7,451.9,20.7z"/>
<path class="st1" d="M118,20.3c-0.1,0.1-0.2,0.1-0.4,0.1l-0.9,0.1c-0.1,0-0.2,0-0.2,0c-0.1-0.1-0.1-0.2-0.1-0.4v-3.4
	c0-1-0.2-1.9-0.2-2.9c0-0.2,0-0.3,0.1-0.4c0.2-0.2,0.4-0.2,0.6-0.2c0.4,0,1,0,1.2,0.4c0.1,0.2,0.1,0.4,0,0.5c0.1,2,0.1,4,0.1,5.9
	C118.1,20,118.1,20.2,118,20.3z M52.3,20.7l-0.3-4c0-0.2,0-0.3-0.1-0.5S51.6,16,51.5,16c-0.2,0-0.4,0.1-0.5,0.3
	c-0.1,0.2-0.1,0.4-0.1,0.6c0,1.2,0.1,2.5,0.2,3.7c0,0.2,0,0.4,0.2,0.6c0.1,0.2,0.4,0.3,0.6,0.1C52.1,21.2,52.3,21,52.3,20.7
	L52.3,20.7L52.3,20.7z M58.8,20.9c0-0.1,0-0.2,0-0.4c-0.1-1.9-0.2-3.9-0.2-5.8c0-1.8,0-3.6-0.3-5.4c0-0.2-0.1-0.4-0.2-0.5
	c-0.3-0.3-0.7-0.4-1.1-0.4c-3.8,0-7.7,0.1-11.5,0.2c-0.3,0-0.5,0.1-0.8,0.2c-0.1,0.2-0.1,0.3-0.1,0.5c-0.1,3.5,0,7.1,0,10.6
	c0,0.4,0.1,0.8,0.3,1c0.4,0.3,0.9,0.5,1.3,0.4c0.4,0,0.8-0.1,1.1-0.3c0.1-0.1,0.1-0.1,0.1-0.2c0.1-0.5,0.2-1.1,0.1-1.6v-2.2
	c0-1.4-0.1-2.8-0.1-4.2c0-0.5-0.1-1.1,0.5-1.2c0.5-0.1,1-0.1,1.5,0c0.6,0,1.2,0,1.8-0.1c1.2,0,2.4-0.1,3.6-0.1c0.3,0,0.5,0,0.8,0.1
	c0.4,0.2,0.3,0.8,0.3,1.2l0.2,7.1c0,0.4,0.1,0.7,0.3,1c0.3,0.3,0.8,0.5,1.3,0.5C58.2,21.3,58.7,21.3,58.8,20.9L58.8,20.9L58.8,20.9z
	 M124.7,20.9c0.4-0.1,0.4-0.7,0.4-1c-0.1-4.5-0.2-9.1-0.5-13.6c0-0.2,0-0.3-0.1-0.5c-0.2-0.2-0.4-0.2-0.7-0.2
	c-2.9-0.1-5.8-0.2-8.7-0.2c-1.4,0-2.9,0-4.3,0.1c-0.5,0-1.1-0.1-1.4,0.3c-0.1,0.1-0.2,0.2-0.2,0.4C109,6.5,109,6.9,109,7.2
	c0,2,0,4,0.1,6.1s0.2,4.1,0.3,6.2c0,0.3,0.1,0.6,0.2,0.9c0.2,0.4,0.5,0.2,0.8,0.3c0.6,0.1,1.4,0.4,1.6-0.3c0.1-0.2,0.1-0.5,0.1-0.7
	c-0.1-1.9-0.2-3.8-0.2-5.7c0-0.9-0.1-1.8-0.2-2.7c0-0.6-0.4-2.3,0.2-2.8c0.3-0.1,0.7-0.2,1-0.2c2.7,0.1,5.3,0.1,8,0.2
	c0.2,0,0.4,0,0.6,0.1c0.6,0.3,0.4,1.6,0.4,2.1v3.1c0,2.1,0.1,4.1,0.2,6.2c0,0.3,0.1,0.5,0.2,0.8C122.7,21,124.3,21.1,124.7,20.9
	L124.7,20.9L124.7,20.9z M15.3,20.5c0.1-0.3,0.2-0.6,0.1-0.9c-0.2-2.5-0.3-5-0.5-7.5c-0.1-0.3,0-0.7,0.1-1c0.2-0.6,0.8-0.4,1.3-0.4
	c0.5,0,1.2,0,1.8,0c0.6-0.1,1.1,0.3,1.2,0.9c0,0.1,0,0.2,0,0.2c0.2,2.8,0.4,5.6,0.7,8.5c0,0.1,0,0.2,0.1,0.3c0.1,0,0.2,0.1,0.2,0
	l2.4,0c0.2,0,0.4,0,0.5-0.2c0.1-0.1,0.1-0.3,0.1-0.5c-0.2-3.6-0.5-7.1-0.7-10.7c0-0.4-0.1-0.7-0.4-1c-0.1-0.1-0.3-0.2-0.5-0.2h-0.4
	l-8.9,0.2c-0.2,0-0.4,0-0.6,0.1c-0.3,0.3-0.3,0.7-0.2,1c0.1,0.6,0.2,1.1,0.2,1.7c0.1,1,0.1,2,0.2,3c0.1,2,0.3,4.1,0.4,6.1
	c0,0.1,0,0.3,0.2,0.4c0.1,0.1,0.3,0.1,0.4,0.1C13.6,20.9,14.9,21.2,15.3,20.5L15.3,20.5z M156.2,21.2c0.2-0.3,0.2-0.7,0.2-1.1
	c-0.1-2.7-0.1-5.5-0.2-8.2c0-1.4-0.1-2.7-0.1-4.1c0-0.7,0-1.3-0.1-2c-0.1-0.4,0-0.9-0.3-1.2c0,0-0.1-0.1-0.1-0.1
	c-0.4-0.2-0.8-0.3-1.2-0.2c-2.4,0-4.8,0.1-7.3,0.1l-3.7,0.1c-0.4,0-0.9,0-1.4,0c-0.3,0-0.8-0.1-1,0.2c-0.1,0.2-0.1,0.4-0.1,0.6
	c0,1.2,0.1,2.4,0.2,3.6c0.1,1.1,0.1,2.3,0.1,3.4c0.1,2.5,0.2,5.1,0.4,7.7c0,0.2,0,0.4,0.1,0.6c0.2,0.2,0.4,0.4,0.7,0.4
	c0.3,0.1,0.6,0,0.9-0.2c0.3-0.2,0.2-0.5,0.2-0.8c0.1-1.6-0.1-3.3-0.2-5c0-1.8,0-3.7-0.1-5.5c0-0.6-0.1-1.2,0.4-1.6
	c2.8-0.2,5.5-0.2,8.3,0.1c0.6-0.1,1.2,0.4,1.3,1.1c0,0,0,0,0,0.1c0.1,0.8,0.1,1.7,0,2.5v2.9c0,1.9,0,3.9,0.1,5.8
	c0,0.3,0,0.6,0.2,0.9c0.3,0.3,0.8,0.5,1.2,0.4C155.1,21.6,155.9,21.7,156.2,21.2L156.2,21.2z M91.2,20.8c0-0.1,0-0.3,0-0.4
	c-0.2-2.1-0.3-4.3-0.3-6.5c0-1.9-0.1-3.8-0.2-5.7c0-0.3-0.1-0.6-0.2-0.8c-0.3-0.2-0.6-0.3-1-0.3L77.7,7.3c-0.2,0-0.3,0-0.5,0.2
	c0,0,0,0.1,0,0.1c0,0.1,0,0.2,0,0.3c0.1,1.9,0.2,3.8,0.4,5.8l0.5,6.9c0,0.2,0.1,0.4,0.2,0.5c0.2,0.1,0.3,0.1,0.5,0.1h1.6
	c0.2,0,0.3,0,0.4-0.1c0.1-0.2,0.2-0.4,0.1-0.6c-0.3-3.2-0.5-6.4-0.8-9.6c-0.1-0.5,0-1.1,0.4-1.4c0.2-0.1,0.4-0.2,0.6-0.2
	c1.9-0.1,3.8-0.1,5.8,0c0.3,0,0.5,0,0.8,0.1c0.3,0.2,0.6,0.5,0.6,0.9c0.1,0.4,0,0.8,0.1,1.2c0.1,0.5,0.2,1.1,0.2,1.6
	c0.2,2.6,0.3,5.2,0.5,7.8C89.1,21.3,91,21.2,91.2,20.8C91.2,20.8,91.2,20.8,91.2,20.8z M85.8,15c0-0.3-0.1-0.6-0.2-0.9
	c-0.3-0.3-0.7-0.4-1.1-0.3c-0.1,0-0.1,0.1-0.2,0.2c-0.1,0.2-0.1,0.4-0.1,0.6c0.1,1.9,0.3,3.8,0.4,5.7c0,0.1,0.1,0.3,0.1,0.4
	c0.2,0.1,0.5,0.2,0.8,0.2c0.2,0,0.4-0.2,0.4-0.5l0,0C85.8,18.6,85.8,16.8,85.8,15L85.8,15z M148.9,20.7c0.1-0.8,0-1.5,0-2.3v-4.4
	c0-0.4,0-0.7-0.2-1c-0.1-0.1-0.2-0.2-0.3-0.2c-0.5-0.2-1,0-1.3,0.3c-0.1,0.3-0.2,0.6-0.1,0.9c0,2.1,0.1,4.2,0.1,6.3
	c0,0.3,0.1,0.5,0.2,0.8c0.2,0.1,0.4,0.2,0.6,0.2C148.4,21.2,148.8,21.3,148.9,20.7L148.9,20.7L148.9,20.7z M177.9,20.8
	c0.1-0.5,0.1-1.1,0.1-1.6c0-0.7,0-1.5-0.1-2.2c0-1.4-0.1-2.8-0.1-4.2c0-0.5-0.1-1.1,0.5-1.2c0.5-0.1,1-0.1,1.5,0
	c0.6,0,1.2,0,1.8-0.1c1.2,0,2.4-0.1,3.6-0.1c0.3,0,0.5,0,0.8,0.1c0.4,0.2,0.3,0.8,0.3,1.2l0.2,7.1c0,0.4,0.1,0.7,0.3,1
	c0.4,0.3,0.8,0.5,1.3,0.5c0.4,0,0.9,0,1.1-0.4c0-0.1,0-0.2,0-0.4c-0.1-1.9-0.2-3.9-0.2-5.8c0.1-1.8-0.1-3.6-0.3-5.4
	c0-0.2-0.1-0.4-0.2-0.5c-0.3-0.3-0.7-0.4-1.1-0.4c-3.8,0-7.7,0.1-11.5,0.2c-0.3,0-0.6,0.1-0.8,0.2c-0.1,0.2-0.1,0.3-0.1,0.5
	c-0.1,3.5,0,7.1,0.1,10.6c0,0.4,0.1,0.7,0.3,1c0.4,0.3,0.9,0.5,1.3,0.4c0.4,0,0.8-0.1,1.1-0.3C177.8,21,177.8,20.9,177.9,20.8
	L177.9,20.8L177.9,20.8z M182.6,20.7l-0.3-4c0-0.2,0-0.3-0.1-0.5c-0.1-0.2-0.3-0.4-0.5-0.3c-0.1,0-0.2,0.2-0.3,0.3
	c-0.1,0.2-0.1,0.4-0.1,0.6c0,1.2,0.1,2.5,0.2,3.7c0,0.2,0.1,0.4,0.2,0.6c0.1,0.2,0.4,0.3,0.6,0.1C182.5,21.2,182.6,20.9,182.6,20.7
	L182.6,20.7L182.6,20.7z M312.3,19.8c0.1-2,0-3.9-0.1-5.9c0-0.2,0-0.4-0.1-0.5c-0.2-0.4-0.8-0.4-1.2-0.4c-0.2,0-0.4,0.1-0.6,0.2
	c-0.1,0.1-0.1,0.3-0.1,0.4c0,1,0.2,1.9,0.2,2.9c0,1.1,0.1,2.3,0,3.4c0,0.1,0,0.3,0.1,0.4c0.1,0,0.2,0,0.2,0l0.9-0.1
	c0.2,0,0.5-0.1,0.5-0.4C312.3,19.9,312.3,19.9,312.3,19.8L312.3,19.8L312.3,19.8z M246.5,20.7c-0.1-1.3-0.2-2.7-0.3-4
	c0-0.2,0-0.3-0.1-0.5c-0.1-0.1-0.2-0.3-0.4-0.3c-0.2,0-0.4,0.1-0.5,0.3c-0.1,0.2-0.1,0.4-0.1,0.6c0,1.2,0.1,2.5,0.2,3.7
	c0,0.2,0.1,0.4,0.2,0.6c0.1,0.2,0.4,0.3,0.6,0.1C246.4,21.2,246.5,20.9,246.5,20.7L246.5,20.7L246.5,20.7z M253.1,20.8
	c0-0.1,0-0.2,0-0.4c-0.1-1.9-0.2-3.9-0.2-5.8c0.1-1.8,0-3.6-0.3-5.4c0-0.2-0.1-0.4-0.2-0.5c-0.3-0.3-0.7-0.4-1.1-0.4
	c-3.8,0-7.7,0.1-11.5,0.2c-0.3,0-0.6,0.1-0.8,0.2c-0.1,0.2-0.1,0.3-0.1,0.5c-0.1,3.5,0,7.1,0.1,10.6c0,0.4,0.1,0.7,0.2,1
	c0.4,0.3,0.9,0.5,1.3,0.4c0.4,0,0.8-0.1,1.1-0.3c0.1-0.1,0.1-0.2,0.1-0.2c0.1-0.5,0.1-1.1,0.1-1.6v-2.2c0-1.4-0.1-2.8-0.1-4.2
	c0-0.5-0.1-1.1,0.5-1.2c0.5-0.1,1-0.1,1.5,0c0.6,0,1.2,0,1.8-0.1c1.2,0,2.4-0.1,3.6-0.1c0.3,0,0.5,0,0.8,0.1
	c0.4,0.2,0.3,0.8,0.3,1.2l0.2,7.1c0,0.4,0.1,0.7,0.2,1c0.4,0.3,0.8,0.5,1.3,0.5C252.4,21.3,252.9,21.2,253.1,20.8L253.1,20.8
	L253.1,20.8z M318.9,20.8c0.4-0.1,0.4-0.7,0.4-1c-0.1-4.5-0.2-9.1-0.5-13.6c0-0.2,0-0.3-0.1-0.5c-0.2-0.2-0.4-0.2-0.6-0.2
	c-2.9-0.1-5.8-0.2-8.7-0.2c-1.4,0-2.9,0-4.3,0.1c-0.5,0-1.1-0.1-1.4,0.3c-0.1,0.1-0.2,0.2-0.3,0.4c-0.1,0.4-0.2,0.7-0.1,1.1
	c0,2,0,4,0.1,6.1s0.2,4.1,0.3,6.2c0,0.3,0.1,0.6,0.2,0.9c0.2,0.4,0.5,0.2,0.8,0.3c0.6,0.1,1.4,0.4,1.6-0.3c0-0.2,0-0.5,0-0.7
	c-0.1-1.9-0.2-3.8-0.2-5.7c0-0.9-0.1-1.8-0.1-2.7c0-0.6-0.4-2.3,0.2-2.8c0.3-0.1,0.7-0.2,1-0.2c2.7,0.1,5.3,0.1,8,0.2
	c0.2,0,0.4,0,0.6,0.1c0.6,0.3,0.4,1.6,0.4,2.1v3.1c0,2.1,0.1,4.1,0.2,6.2c0,0.3,0,0.5,0.2,0.8C316.9,20.9,318.6,21,318.9,20.8
	L318.9,20.8L318.9,20.8z M209.5,20.5c0.1-0.3,0.1-0.6,0.1-0.9l-0.5-7.5c0-0.3,0-0.7,0.1-1c0.2-0.6,0.8-0.4,1.2-0.4s1.2,0,1.8,0
	c0.6-0.1,1.1,0.3,1.2,0.9c0,0.1,0,0.2,0,0.2c0.2,2.8,0.4,5.6,0.7,8.5c0,0.1,0,0.2,0.1,0.3c0.1,0,0.2,0.1,0.2,0l2.4,0
	c0.2,0,0.4,0,0.5-0.2c0.1-0.1,0.1-0.3,0.1-0.5c-0.2-3.6-0.5-7.1-0.7-10.7c0-0.4-0.1-0.7-0.4-1c-0.1-0.1-0.3-0.2-0.5-0.2h-0.4
	l-8.9,0.2c-0.2,0-0.4,0-0.6,0.1c-0.3,0.3-0.4,0.6-0.2,1c0.1,0.6,0.2,1.1,0.2,1.7c0.1,1,0.1,2,0.2,3c0.1,2,0.3,4.1,0.4,6.1
	c0,0.1,0,0.3,0.2,0.4c0.1,0.1,0.3,0.1,0.4,0.1C207.8,20.8,209.1,21.1,209.5,20.5L209.5,20.5L209.5,20.5z M335.2,4.6
	c-0.1,0.2-0.1,0.4-0.1,0.6c0,1.2,0,2.4,0.1,3.7c0.1,1.1,0.1,2.3,0.1,3.4c0.1,2.5,0.2,5.1,0.4,7.7c0,0.2,0,0.4,0.1,0.6
	c0.2,0.2,0.4,0.4,0.7,0.4c0.3,0.1,0.6,0,0.9-0.2c0.3-0.2,0.2-0.5,0.2-0.8c0.1-1.6-0.1-3.3-0.2-5V9.5c0-0.6-0.1-1.2,0.4-1.6
	c2.8-0.2,5.5-0.1,8.2,0.1c0.6-0.1,1.2,0.4,1.3,1.1c0,0,0,0,0,0.1c0.1,0.8,0.1,1.7,0,2.5v2.9c0,1.9,0,3.9,0.1,5.8
	c0,0.3,0,0.6,0.2,0.9c0.3,0.3,0.8,0.5,1.2,0.4c0.5,0,1.2,0.2,1.5-0.4c0.2-0.3,0.2-0.7,0.2-1.1c-0.1-2.7-0.2-5.5-0.2-8.2
	c0-1.3-0.1-2.7-0.1-4c0-0.7,0-1.3-0.1-2c0-0.4,0-0.9-0.3-1.2c0,0-0.1-0.1-0.1-0.1c-0.4-0.2-0.8-0.3-1.2-0.2l-7.3,0.1l-3.7,0.1
	c-0.5,0-0.9,0-1.4,0C335.9,4.4,335.4,4.3,335.2,4.6L335.2,4.6z M285.4,20.8c0-0.1,0-0.3,0-0.4c-0.2-2.1-0.3-4.3-0.4-6.5
	c0-1.9-0.1-3.8-0.3-5.7c0-0.3-0.1-0.6-0.2-0.8c-0.3-0.2-0.6-0.3-1-0.3l-11.6,0.1c-0.2,0-0.4,0-0.5,0.2c0,0,0,0.1,0,0.1
	c0,0.1,0,0.2,0,0.3c0.1,1.9,0.2,3.8,0.4,5.8l0.5,6.9c0,0.2,0.1,0.4,0.2,0.5c0.1,0.1,0.3,0.1,0.5,0.1h1.6c0.1,0,0.3,0,0.4-0.1
	c0.1-0.2,0.2-0.4,0.1-0.6l-0.8-9.5c0-0.5,0-1.1,0.4-1.4c0.2-0.1,0.4-0.2,0.6-0.2c1.9-0.1,3.9-0.1,5.8,0c0.3,0,0.5,0,0.8,0.1
	c0.3,0.2,0.6,0.5,0.6,0.9c0.1,0.4,0,0.8,0.1,1.2s0.1,1,0.2,1.6c0.2,2.6,0.4,5.2,0.5,7.8C283.3,21.2,285.2,21.1,285.4,20.8
	L285.4,20.8z M280,14.9c0-0.3,0-0.6-0.2-0.9c-0.3-0.3-0.7-0.4-1.1-0.3c-0.1,0-0.1,0.1-0.2,0.2c-0.1,0.2-0.1,0.4-0.1,0.6
	c0.1,1.9,0.3,3.8,0.4,5.7c0,0.1,0,0.3,0.1,0.4c0.2,0.1,0.5,0.2,0.8,0.2c0.3,0,0.5-0.2,0.4-0.5l0,0C280,18.5,280,16.8,280,14.9
	L280,14.9z M343.1,18.3v-4.4c0-0.4,0-0.7-0.2-1c-0.1-0.1-0.2-0.2-0.3-0.2c-0.5-0.2-1,0-1.3,0.3c-0.1,0.3-0.2,0.6-0.1,0.9
	c0,2.1,0.1,4.2,0.1,6.3c0,0.3,0,0.5,0.2,0.8c0.2,0.1,0.4,0.2,0.6,0.2c0.6,0,1,0.1,1.1-0.5S343.1,19.1,343.1,18.3L343.1,18.3
	L343.1,18.3z M372.1,20.7c0.1-0.5,0.1-1.1,0.1-1.6V17l-0.1-4.2c0-0.5-0.1-1.1,0.5-1.2c0.5-0.1,1-0.1,1.5,0c0.6,0,1.2,0,1.8-0.1
	c1.2,0,2.4-0.1,3.6-0.1c0.3,0,0.5,0,0.8,0.1c0.4,0.2,0.3,0.8,0.3,1.2l0.2,7.1c0,0.4,0,0.7,0.2,1c0.4,0.3,0.8,0.5,1.3,0.5
	c0.4,0,1,0,1.1-0.4c0-0.1,0-0.2,0-0.4c-0.1-1.9-0.2-3.9-0.2-5.8c0-1.8,0-3.6-0.3-5.4c0-0.2-0.1-0.4-0.2-0.5
	c-0.3-0.3-0.7-0.4-1.1-0.4c-3.8,0-7.7,0.1-11.5,0.2c-0.3,0-0.5,0.1-0.8,0.2c-0.1,0.2-0.1,0.3-0.1,0.5c-0.1,3.5,0,7.1,0,10.6
	c0,0.4,0.1,0.7,0.2,1c0.4,0.3,0.9,0.5,1.4,0.4c0.4,0,0.8-0.1,1.1-0.3C372,20.9,372,20.8,372.1,20.7L372.1,20.7L372.1,20.7z
	 M376.8,20.6l-0.3-4c0-0.2,0-0.3-0.1-0.5c-0.1-0.1-0.2-0.2-0.4-0.2c-0.2,0-0.4,0.1-0.5,0.3c-0.1,0.2-0.1,0.4-0.1,0.6
	c0,1.2,0.1,2.5,0.2,3.7c0,0.2,0,0.4,0.2,0.6c0.1,0.2,0.4,0.3,0.6,0.1C376.7,21.2,376.8,20.9,376.8,20.6L376.8,20.6L376.8,20.6z
	 M440.7,20.6l-0.3-4c0-0.2,0-0.3-0.1-0.5c-0.1-0.2-0.3-0.4-0.5-0.3c-0.1,0-0.2,0.2-0.3,0.3c-0.1,0.2-0.1,0.4-0.1,0.6
	c0,1.2,0.1,2.5,0.2,3.7c0,0.2,0.1,0.4,0.2,0.6c0.1,0.2,0.4,0.3,0.6,0.1C440.6,21.1,440.7,20.9,440.7,20.6L440.7,20.6L440.7,20.6z
	 M447.3,20.8c0-0.1,0-0.2,0-0.4c-0.1-1.9-0.2-3.9-0.2-5.8c0-1.8,0-3.6-0.3-5.4c0-0.2-0.1-0.4-0.2-0.5c-0.3-0.3-0.7-0.4-1.1-0.4
	c-3.8,0-7.7,0.1-11.5,0.2c-0.3,0-0.6,0.1-0.8,0.2c-0.1,0.2-0.1,0.3-0.1,0.5c-0.1,3.5,0,7.1,0,10.6c0,0.4,0.1,0.7,0.3,1
	c0.4,0.3,0.9,0.5,1.3,0.4c0.4,0,0.8-0.1,1.1-0.3c0-0.1,0.1-0.2,0.1-0.2c0.1-0.5,0.1-1.1,0.1-1.6c0-0.7,0-1.5,0-2.2
	c0-1.4-0.1-2.8-0.1-4.2c0-0.5-0.1-1.1,0.5-1.2c0.5-0.1,1-0.1,1.5,0c0.6,0,1.2,0,1.8-0.1c1.2,0,2.4-0.1,3.6-0.1c0.3,0,0.5,0,0.8,0.1
	c0.4,0.2,0.3,0.8,0.3,1.2l0.2,7.1c0,0.4,0.1,0.7,0.3,1c0.4,0.3,0.8,0.5,1.3,0.5C446.6,21.2,447.1,21.2,447.3,20.8L447.3,20.8
	L447.3,20.8z M403.7,20.4c0.1-0.3,0.2-0.6,0.1-0.9c-0.2-2.5-0.3-5-0.5-7.5c-0.1-0.3,0-0.7,0.1-1c0.2-0.6,0.8-0.4,1.2-0.4
	s1.2,0,1.8,0c0.6-0.1,1.2,0.3,1.2,0.9c0,0.1,0,0.1,0,0.2c0.2,2.8,0.4,5.6,0.7,8.5c0,0.1,0,0.2,0.1,0.3c0.1,0,0.2,0.1,0.3,0l2.4,0
	c0.2,0,0.4,0,0.5-0.2c0.1-0.1,0.1-0.3,0.1-0.5c-0.2-3.6-0.5-7.1-0.7-10.7c0-0.4-0.1-0.7-0.4-1c-0.1-0.1-0.3-0.2-0.5-0.2h-0.4
	l-8.9,0.2c-0.2,0-0.4,0-0.6,0.1c-0.3,0.3-0.3,0.7-0.2,1c0.1,0.6,0.2,1.1,0.2,1.7c0.1,1,0.1,2,0.2,3c0.1,2,0.3,4.1,0.4,6.1
	c0,0.1,0,0.3,0.2,0.4c0.1,0.1,0.3,0.1,0.4,0.1C402.1,20.8,403.4,21.1,403.7,20.4L403.7,20.4L403.7,20.4z M479.6,20.7
	c0-0.1,0-0.3,0-0.4c-0.2-2.1-0.3-4.3-0.4-6.5c0-1.9-0.1-3.8-0.3-5.7c0-0.3-0.1-0.6-0.2-0.8c-0.3-0.2-0.6-0.3-1-0.3l-11.6,0.1
	c-0.2,0-0.4,0-0.5,0.2c0,0,0,0.1,0,0.1c0,0.1,0,0.2,0,0.3c0.1,1.9,0.3,3.8,0.4,5.8c0.2,2.3,0.4,4.6,0.5,6.9c0,0.2,0.1,0.4,0.2,0.5
	c0.1,0.1,0.3,0.1,0.5,0.1h1.6c0.2,0.1,0.5-0.1,0.6-0.3c0-0.1,0-0.2,0-0.3c-0.3-3.2-0.5-6.4-0.8-9.6c0-0.5,0-1.1,0.4-1.4
	c0.2-0.1,0.4-0.2,0.6-0.2c1.9-0.1,3.9-0.1,5.8,0c0.3,0,0.5,0,0.8,0.1c0.3,0.2,0.6,0.5,0.6,0.9c0.1,0.4,0,0.8,0.1,1.2
	c0.1,0.5,0.2,1.1,0.2,1.6c0.2,2.6,0.4,5.2,0.5,7.8C477.5,21.2,479.4,21.1,479.6,20.7L479.6,20.7L479.6,20.7z M474.2,14.9
	c0-0.3-0.1-0.6-0.2-0.9c-0.3-0.3-0.7-0.4-1.1-0.3c-0.1,0-0.1,0.1-0.2,0.2c-0.1,0.2-0.1,0.4-0.1,0.6c0.1,1.9,0.3,3.8,0.4,5.7
	c0,0.1,0,0.3,0.1,0.4c0.1,0.1,0.6,0.2,0.8,0.2c0.3,0,0.5-0.2,0.4-0.5l0,0C474.3,18.5,474.3,16.7,474.2,14.9L474.2,14.9z"/>
<path class="st2" d="M9.7,21c-0.4,0-0.7,0-1.1,0.1c-0.2,0-0.4,0-0.6-0.1c-0.2-0.2-0.3-0.4-0.2-0.7c-0.1-2.7-0.3-5.4-0.4-8.2
	c-0.1-1.2-0.2-2.4-0.2-3.6S7,6.2,6.9,5c0-0.2,0-0.4,0.1-0.5c0.1-0.1,0.2-0.1,0.4-0.1c6.3-0.3,12.5-0.5,18.8-0.6
	c1.4,0,1.3,1.4,1.3,2.4c0.1,1.6,0.2,3.1,0.2,4.6c0.2,3.1,0.3,6.2,0.5,9.4c0,0.2,0,0.3-0.1,0.5c0,0-0.1,0.1-0.2,0.1
	c-0.1,0-0.3,0.1-0.4,0.1h-2c-0.6,0-1,0.1-1-0.6c-0.1-1.1-0.1-2.2-0.2-3.3C24,13.9,24,11,23.6,8c0-0.3-0.1-0.6-0.3-0.9
	C23.1,7,22.9,7,22.6,7c-1.5,0-3-0.1-4.5-0.1c-2.4,0-4.8,0.2-7.2,0.3c-0.4,0-0.8,0.4-0.8,0.9v0c0,0.4,0.1,0.9,0.1,1.3l0.4,6.6
	c0.1,1.1,0.1,2.2,0.2,3.4c0.1,0.4,0.1,0.8,0,1.2C10.6,21.1,10.2,21,9.7,21z M18.7,18.6c0-0.8-0.1-1.6-0.1-2.4
	c-0.1-1.1-0.1-2.2-0.2-3.3c0-0.2,0-0.5-0.2-0.7c-0.2-0.4-0.7-0.4-1.2-0.4c-0.3,0-0.6,0-0.9,0.2c-0.5,0.3-0.3,0.8-0.3,1.2v1.9
	c0,1,0.1,1.9,0.1,2.9c0,0.6-0.1,2.3,0.5,2.6c0.2,0.1,0.4,0.1,0.6,0.1H18c0.2,0,0.4,0,0.5-0.1c0,0,0,0,0.1-0.1
	C19,20.1,18.8,19,18.7,18.6L18.7,18.6L18.7,18.6z M88.1,20.3c-0.3-2.8-0.4-5.6-0.6-8.5c0.1-0.5-0.1-0.9-0.5-1.3
	c-0.2-0.1-0.5-0.1-0.7-0.1c-1.3,0-2.5-0.1-3.8-0.1c-0.4,0-0.7,0-1.1,0.2c-0.1,0.1-0.2,0.2-0.2,0.4c0,0.6,0,1.1,0.1,1.6
	c0.1,0.9,0.1,1.8,0.2,2.8c0.1,1.5,0.2,3,0.4,4.6c0,0.3,0.1,0.5,0.2,0.8c0.3,0.4,0.8,0.3,1.2,0.3s0.5,0,0.5-0.5
	c-0.1-2.1-0.2-4.2-0.3-6.4c0-0.3,0-0.6,0.2-0.9c0.4-0.6,1.5-0.4,2.1-0.4c0.1,0,0.3,0,0.4,0.1c0.1,0.1,0.1,0.3,0.1,0.4
	c0.1,1.1,0.1,2.2,0.2,3.3c0.1,1.3,0.2,2.5,0.2,3.8c0,0.1,0,0.2,0.1,0.3c0.2,0.2,0.6,0,0.8,0S88.1,20.8,88.1,20.3z M160.1,21.4
	c0.1-0.3,0.2-0.6,0.1-0.9c-0.1-6.1-0.3-12.3-0.4-18.4c0-0.2,0-0.5-0.2-0.7c-0.2-0.2-0.5-0.3-0.7-0.2C158,1.1,157,1,156,1
	c-6.2,0.2-12.4,0.2-18.6,0.2c-0.3,0-0.6,0.1-0.7,0.3c-0.1,0.1-0.1,0.3-0.1,0.5c0.3,5.9,0.7,11.9,1,17.8c0,0.3,0.1,0.6,0.2,0.8
	c0.3,0.5,1,0.5,1.5,0.4c0.3,0,0.6-0.1,0.9-0.3c0.2-0.3,0.1-0.6,0.1-1c0-1.8-0.1-3.6-0.2-5.4c0-3.1-0.2-6.2-0.3-9.3
	c-0.1-0.4,0-0.8,0.3-1.2c0.6-0.7,2.2-0.5,3-0.5h3.9c3,0,6-0.1,9,0c0.3,0,0.6,0.1,0.9,0.2c0.4,0.3,0.3,0.9,0.3,1.4V7
	c0,2.6,0.1,5.2,0.2,7.8v4c0,0.6,0,1.3,0,1.9c0,0.2,0,0.6,0.2,0.8s0.8,0.1,1.1,0.1S159.7,21.8,160.1,21.4L160.1,21.4L160.1,21.4z
	 M151.5,21.5c0.2,0,0.4-0.1,0.5-0.3c0.1-0.1,0.1-0.3,0.1-0.5c0-2.5-0.1-4.9-0.1-7.4c0.1-1.2,0-2.5-0.1-3.7c-0.1-0.8-0.8-0.8-1.5-0.8
	l-4.8-0.1c-0.4,0-0.8,0-1.2,0.2c-0.4,0.3-0.3,0.8-0.2,1.2c0.1,0.6,0,1.2,0,1.9c0,1.3,0,2.6,0.1,3.9c0,0.9,0,1.8,0.1,2.7v1.6
	c0.1,0.7,0.3,0.8,0.9,0.9c0.3,0.1,0.6,0,0.8-0.2c0.1-0.2,0.1-0.3,0.1-0.5L146,13c0-0.3,0-0.5,0.2-0.8c0.3-0.2,0.6-0.4,1-0.3h1.6
	c0.2,0,0.5,0,0.7,0.1c0.5,0.3,0.2,1.2,0.2,1.6c-0.1,0.8-0.1,1.5-0.1,2.3c0,1.1,0.1,2.2,0.1,3.3c0,0.5,0,0.9,0,1.4
	c-0.1,0.4,0.1,0.7,0.5,0.8c0.3,0.1,0.7,0.1,1,0.1L151.5,21.5L151.5,21.5z M76.6,21.2c0.1-0.2,0.1-0.3,0.1-0.5l-0.4-7.5
	c-0.1-1.3-0.1-2.5-0.2-3.8c0-0.6-0.1-1.2-0.1-1.8c-0.1-0.4-0.2-0.7,0.1-1c0,0,0.1-0.1,0.1-0.1c0.4-0.2,0.8-0.3,1.2-0.3
	C81.6,5.9,85.9,6,90.1,6c0.3,0,0.7,0,1,0.2c0.9,0.4,0.7,1.9,0.7,2.7c0.1,1.3,0.1,2.6,0.2,3.9c0.1,2.7,0.2,5.3,0.3,7.9
	c0,0.2,0.1,0.3,0.2,0.5c0.1,0.1,0.3,0.1,0.4,0.1c0.6,0,1.2-0.1,1.7-0.1c0.4,0,0.7-0.1,1-0.3c0.2-0.3,0.2-0.6,0.2-0.9
	c-0.3-5.3-0.6-10.5-0.9-15.7c0-0.2-0.1-0.5-0.2-0.7c-0.3-0.5-1.4-0.5-2-0.5c-1.1-0.1-2.2,0-3.3,0c-2.3,0-4.5,0.1-6.8,0.1l-4.7,0.1
	h-2.4c-0.6,0-1.5-0.2-2,0.3c-0.2,0.2-0.1,1.5-0.1,1.8v2.2c0.1,3.5,0,7,0.2,10.5c0,0.7,0.1,1.5,0.1,2.2c0,0.3,0.1,0.6,0.2,0.8
	c0.3,0.4,1.6,0.2,2.1,0.2C76.2,21.4,76.4,21.3,76.6,21.2L76.6,21.2L76.6,21.2z M205.1,20.7c0.1-0.4,0.1-0.8,0-1.2
	c-0.1-1.1-0.1-2.3-0.2-3.4c-0.1-2.2-0.2-4.4-0.4-6.6c-0.1-0.4-0.1-0.9-0.1-1.3c-0.1-0.4,0.3-0.8,0.7-0.9h0c2.4-0.1,4.8-0.3,7.1-0.3
	c1.5,0,3,0,4.5,0.1c0.2,0,0.5,0,0.7,0.2c0.2,0.2,0.3,0.5,0.3,0.9c0.3,2.9,0.4,5.9,0.6,8.9c0.1,1.1,0.2,2.2,0.2,3.3
	c0,0.7,0.4,0.6,1,0.6h2c0.1,0,0.3,0,0.4-0.1c0.1,0,0.1-0.1,0.2-0.1c0.1-0.1,0.1-0.3,0.1-0.5c-0.1-3.1-0.3-6.2-0.5-9.4
	c-0.1-1.5-0.1-3.1-0.2-4.6c-0.1-1,0-2.4-1.4-2.4c-6.2,0.1-12.4,0.3-18.7,0.6c-0.1,0-0.2,0-0.4,0.1c-0.1,0.2-0.1,0.3-0.1,0.5
	c0.1,1.2,0.2,2.3,0.3,3.5s0.2,2.4,0.2,3.6c0.1,2.7,0.3,5.4,0.4,8.2c0,0.3,0.1,0.5,0.2,0.7c0.2,0.1,0.4,0.1,0.5,0.1
	c0.4,0,0.8-0.1,1.1,0C204.4,21,204.9,21.1,205.1,20.7L205.1,20.7L205.1,20.7z M213,18.6c-0.1-0.8-0.1-1.6-0.1-2.4
	c-0.1-1.1-0.1-2.2-0.2-3.3c0-0.2-0.1-0.5-0.2-0.7c-0.2-0.4-0.7-0.4-1.2-0.4c-0.3,0-0.6,0-0.9,0.2c-0.5,0.3-0.3,0.8-0.3,1.2v1.9
	c0,1,0.1,1.9,0.1,2.9c0,0.6-0.1,2.3,0.5,2.6c0.2,0.1,0.4,0.1,0.6,0.1h0.9c0.2,0,0.4,0,0.5-0.1c0,0,0.1,0,0.1-0.1
	C213.2,20.1,213,19,213,18.6z M282.3,20.3c-0.3-2.8-0.4-5.6-0.6-8.5c0-0.5-0.1-1-0.5-1.3c-0.2-0.1-0.5-0.1-0.7-0.1l-3.8-0.1
	c-0.4,0-0.7,0.1-1,0.2c-0.1,0.1-0.2,0.2-0.3,0.4c0,0.6,0,1.1,0.1,1.6c0.1,0.9,0.1,1.8,0.2,2.8c0.1,1.5,0.2,3.1,0.4,4.6
	c0,0.3,0.1,0.5,0.2,0.8c0.3,0.4,0.8,0.3,1.2,0.3s0.5,0,0.5-0.5c-0.1-2.1-0.2-4.2-0.3-6.4c0-0.3,0-0.6,0.1-0.9
	c0.4-0.6,1.5-0.4,2.1-0.4c0.1,0,0.3,0,0.4,0.1c0.1,0.1,0.1,0.3,0.1,0.4c0.1,1.1,0.1,2.2,0.2,3.3c0.1,1.3,0.2,2.5,0.2,3.8
	c0,0.1,0,0.2,0.1,0.3c0.2,0.2,0.6,0,0.9,0S282.3,20.8,282.3,20.3C282.3,20.3,282.3,20.3,282.3,20.3z M333.6,21
	c0.3,0,0.6-0.1,0.9-0.3c0.2-0.3,0.1-0.6,0.1-1c0-1.8-0.1-3.6-0.2-5.4c0-3.1-0.3-6.2-0.3-9.3c-0.1-0.4,0-0.8,0.3-1.2
	c0.6-0.7,2.2-0.5,3-0.5h3.9c3,0,6-0.1,9,0c0.3,0,0.6,0.1,0.9,0.2c0.4,0.3,0.3,0.9,0.3,1.4v2.2c0,2.6,0.1,5.2,0.2,7.8v4
	c0,0.6,0,1.3,0,1.9c0,0.2,0,0.6,0.2,0.8s0.9,0.1,1.1,0.1s1,0.1,1.2-0.2c0,0,0,0,0,0c0.1-0.3,0.2-0.6,0.2-0.9
	c-0.1-6.1-0.3-12.3-0.4-18.4c0-0.2,0-0.5-0.2-0.7c-0.2-0.2-0.5-0.2-0.7-0.2c-0.9,0-1.9-0.2-2.9-0.1c-6.2,0.2-12.4,0.2-18.6,0.2
	c-0.3,0-0.5,0.1-0.7,0.3c-0.1,0.1-0.1,0.3-0.1,0.5c0.3,5.9,0.7,11.9,1,17.8c0,0.3,0.1,0.6,0.2,0.8C332.3,21.1,333,21.1,333.6,21
	L333.6,21L333.6,21z M344.5,21.5c0.3,0.1,0.7,0.1,1,0.1h0.3c0.2,0,0.4-0.1,0.5-0.3c0.1-0.1,0.1-0.3,0.1-0.5c0-2.5-0.1-4.9-0.1-7.4
	c0.1-1.2,0-2.5-0.1-3.7c-0.1-0.8-0.8-0.8-1.5-0.8l-4.8-0.1c-0.4,0-0.8,0-1.2,0.2c-0.4,0.3-0.3,0.8-0.2,1.2c0.1,0.6,0,1.2,0,1.9
	l0.1,3.9c0,0.9,0,1.8,0.1,2.7v1.6c0.1,0.7,0.3,0.8,0.9,0.9c0.3,0.1,0.5,0,0.8-0.2c0.1-0.2,0.1-0.3,0.1-0.5l-0.2-7.5
	c0-0.3,0-0.5,0.2-0.8c0.3-0.2,0.6-0.4,1-0.3L343,12c0.2,0,0.5,0,0.7,0.1c0.5,0.3,0.3,1.2,0.2,1.6c0,0.8-0.1,1.5-0.1,2.3
	c0,1.1,0,2.2,0.1,3.3v1.4C344,21.1,344.1,21.4,344.5,21.5L344.5,21.5L344.5,21.5z M270.3,21.4c0.2,0,0.4,0,0.5-0.2
	c0.1-0.2,0.1-0.3,0.1-0.5c-0.1-2.5-0.3-5-0.4-7.5c-0.1-1.3-0.1-2.5-0.2-3.8c0-0.6,0-1.3-0.1-1.8c-0.1-0.4-0.2-0.7,0.1-1l0.1-0.1
	c0.4-0.2,0.8-0.3,1.2-0.3C275.9,6,280.2,6,284.4,6c0.3,0,0.7,0,1,0.2c0.9,0.4,0.7,1.9,0.7,2.7c0.1,1.3,0.1,2.6,0.2,4
	c0.1,2.7,0.2,5.3,0.3,7.9c0,0.2,0,0.3,0.2,0.5c0.1,0.1,0.3,0.1,0.4,0.1c0.6,0,1.2-0.1,1.8-0.1c0.4,0,0.7-0.1,1-0.3
	c0.2-0.3,0.2-0.6,0.2-0.9c-0.3-5.3-0.7-10.5-1-15.7c0-0.2,0-0.5-0.1-0.7c-0.3-0.5-1.5-0.5-2-0.5c-1.1-0.1-2.2,0-3.3,0l-6.8,0.1
	l-4.7,0.1h-2.4c-0.6,0-1.5-0.2-2,0.3c-0.2,0.2-0.1,1.5-0.1,1.8v2.2c0.1,3.5,0,7,0.2,10.5c0,0.7,0.1,1.5,0.1,2.2
	c0,0.3,0.1,0.6,0.2,0.8C268.5,21.6,269.8,21.4,270.3,21.4C270.3,21.4,270.3,21.4,270.3,21.4z M399.3,20.7c0.1-0.4,0.1-0.8,0-1.2
	c-0.1-1.1-0.1-2.3-0.2-3.4l-0.4-6.6c0-0.4-0.2-0.9-0.1-1.3c0-0.5,0.3-0.9,0.8-0.9l0,0c2.4-0.1,4.8-0.3,7.1-0.3c1.5,0,3,0,4.5,0.1
	c0.2,0,0.5,0,0.7,0.2c0.2,0.2,0.4,0.5,0.3,0.9c0.3,2.9,0.4,5.9,0.6,8.9c0.1,1.1,0.2,2.2,0.2,3.3c0,0.7,0.4,0.6,1,0.6h2
	c0.1,0,0.3,0,0.4-0.1c0.1,0,0.1-0.1,0.2-0.1c0.1-0.1,0.1-0.3,0.1-0.5c-0.1-3.1-0.3-6.2-0.5-9.4c-0.1-1.5-0.1-3.1-0.2-4.6
	c0-1,0-2.4-1.3-2.4c-6.2,0.1-12.5,0.3-18.8,0.6c-0.1,0-0.2,0-0.4,0.1c-0.1,0.1-0.2,0.3-0.1,0.5c0.1,1.2,0.2,2.3,0.3,3.5
	s0.2,2.4,0.2,3.6c0.1,2.7,0.3,5.4,0.4,8.1c0,0.3,0.1,0.5,0.3,0.7c0.2,0.1,0.4,0.1,0.5,0.1c0.4,0,0.7-0.1,1.1-0.1
	C398.6,21,399.1,21.1,399.3,20.7L399.3,20.7L399.3,20.7z M407.2,18.6c0-0.8-0.1-1.6-0.1-2.4c-0.1-1.1-0.1-2.2-0.2-3.3
	c0-0.2-0.1-0.5-0.2-0.7c-0.3-0.3-0.8-0.4-1.2-0.4c-0.3,0-0.6,0-0.9,0.2c-0.5,0.3-0.3,0.8-0.3,1.2c0,0.6,0,1.2,0,1.9
	c0,1,0.1,1.9,0.1,2.9c0,0.6-0.1,2.3,0.5,2.6c0.2,0.1,0.4,0.1,0.6,0.1h0.9c0.2,0,0.4,0,0.5-0.1c0,0,0,0,0.1-0.1
	C407.4,20.1,407.2,19,407.2,18.6L407.2,18.6L407.2,18.6z M476.5,20.3c-0.3-2.8-0.4-5.6-0.6-8.5c0-0.5-0.1-1-0.5-1.3
	c-0.2-0.1-0.5-0.1-0.7-0.1l-3.8-0.1c-0.4,0-0.7,0-1.1,0.2c-0.1,0.1-0.2,0.2-0.2,0.4c0,0.6,0,1.1,0.1,1.6c0.1,0.9,0.1,1.8,0.2,2.8
	l0.4,4.6c0,0.3,0.1,0.5,0.2,0.8c0.3,0.4,0.8,0.3,1.2,0.3s0.5,0,0.5-0.5c-0.1-2.1-0.2-4.2-0.3-6.4c0-0.3,0-0.6,0.1-0.9
	c0.4-0.6,1.5-0.4,2.1-0.4c0.1,0,0.3,0,0.4,0.1c0.1,0.1,0.1,0.3,0.1,0.4c0.1,1.1,0.1,2.2,0.2,3.3c0.1,1.3,0.2,2.5,0.2,3.8
	c0,0.1,0,0.2,0.1,0.3c0.2,0.2,0.6,0,0.9,0S476.6,20.8,476.5,20.3L476.5,20.3L476.5,20.3z M464.5,21.4c0.2,0,0.4,0,0.5-0.2
	c0.1-0.2,0.1-0.3,0.1-0.5c-0.1-2.5-0.3-5-0.4-7.5c-0.1-1.3-0.1-2.5-0.2-3.8c0-0.6,0-1.2-0.1-1.8c-0.1-0.4-0.2-0.7,0.1-1
	c0,0,0.1-0.1,0.1-0.1c0.4-0.2,0.8-0.3,1.2-0.3C470.1,6,474.3,6,478.5,6c0.3,0,0.7,0,1,0.2c0.9,0.4,0.6,1.9,0.7,2.7
	c0.1,1.3,0.1,2.6,0.2,4c0.1,2.7,0.2,5.3,0.3,7.9c0,0.2,0,0.3,0.2,0.5c0.1,0.1,0.3,0.1,0.4,0.1c0.6,0,1.2-0.1,1.7-0.1
	c0.4,0,0.7-0.1,1-0.3c0.2-0.3,0.2-0.6,0.2-0.9c-0.3-5.2-0.6-10.5-0.9-15.7c0-0.2,0-0.5-0.2-0.7c-0.3-0.5-1.5-0.5-2-0.5
	c-1.1-0.1-2.2,0-3.3,0c-2.3,0-4.5,0.1-6.8,0.1l-4.7,0.1H464c-0.6,0-1.5-0.2-2,0.3c-0.3,0.2-0.1,1.5-0.1,1.8v2.2
	c0.1,3.5,0,7,0.2,10.5c0,0.7,0.1,1.5,0.1,2.2c0,0.3,0,0.6,0.2,0.8C462.8,21.6,464.1,21.4,464.5,21.4L464.5,21.4L464.5,21.4z"/>
<path class="st3" d="M302.3,23.2c8.4,0.1,16.8,0.1,25.2,0.2c5,0,10,0.1,15,0.1c4.2,0,8.4,0.2,12.5,0.1s8.2-0.3,12.3-0.3
	c0.5,0,1,0,1.4-0.1h68.9c15.5,0,31-0.3,46.4-0.2c2.9,0,5.7-0.1,8.6,0c1.2,0,4.7,0.4,5.2-1.1c0.9-2.9-11.5-0.3-12.1-1.1
	c-0.1-0.2-0.2-0.5-0.2-0.8v-0.6c-0.2-3.1-0.4-6.3-0.6-9.4c-0.1-1.6-0.1-3.1-0.1-4.7c0-0.9,0.3-2.9-0.7-3.4c-0.4-0.2-0.8-0.2-1.2-0.2
	l-6.4,0.1L466.9,2l-4.7,0.1c-1.1,0-1.7,0.1-1.7,1.3c-0.1,5.8,0.2,11.6,0.3,17.5c0,0.1,0,0.3-0.1,0.4c-0.1,0.2-0.8,0-1.1,0.1H458
	l-3.1,0.1c-0.4,0-1.1,0-1.3-0.2s-0.2-1-0.2-1.4c-0.1-0.7-0.1-1.4-0.1-2.1c-0.1-1.3-0.1-2.7-0.2-4c-0.1-2.7-0.2-5.3-0.3-8
	c0-0.7-0.1-1.4-0.1-2s0.1-1.2-0.6-1.3c-1.4-0.2-2.9,0-4.3,0h-18.8c-0.3,0-0.6,0-0.8,0.2c-0.2,0.3-0.3,0.6-0.3,0.9
	c-0.1,4,0,8.1,0,12.2v4.1c0,0.3,0,0.7-0.2,1c-0.3,0.6-0.9,0.5-1.5,0.5h-6.7c-1.5,0-1.5-0.2-1.7-1.7c-0.3-3.7-0.4-7.3-0.5-11
	c0-1.2-0.1-2.3-0.1-3.5c0-0.8,0.3-2.3-0.8-2.6c-0.4,0-0.9,0-1.3,0c-0.5,0-0.9,0-1.4,0l-17.9,0.5c-0.4,0-0.7,0-1.1,0.1
	c-1,0.4-0.7,1.5-0.6,2.4c0.5,4.6,0.4,9.3,0.6,13.9c0,0.6,0.1,1.4-0.5,1.7c-0.3,0.1-0.5,0.1-0.8,0.1c-1.1,0-2.1,0.1-3.2,0.1
	c-0.2,0-0.5-0.1-0.6-0.2c-0.3-0.3-0.2-1-0.2-1.4c-0.1-0.7-0.1-1.4-0.1-2.1c-0.1-1.3-0.1-2.7-0.2-4c-0.1-2.7-0.2-5.3-0.3-8
	c0-0.7-0.1-1.4-0.1-2s0.1-1.2-0.6-1.3c-1.4-0.2-2.9,0-4.3,0h-18.8c-0.3,0-0.6,0-0.8,0.2c-0.2,0.3-0.3,0.6-0.2,0.9
	c-0.1,4,0,8.1,0,12.2v4.1c0,0.3,0,0.7-0.2,1c-0.3,0.6-0.9,0.5-1.5,0.5c-1.8,0-3.7,0.1-5.6,0.2c-0.8,0-0.6-0.7-0.6-1.3V19
	c0-0.9-0.1-1.8-0.1-2.7c-0.1-3.1-0.1-6.3-0.2-9.4V2.1c0-0.4,0.2-1.1-0.1-1.5c-0.3-0.4-0.9-0.6-1.4-0.6c-1.5,0-3.1,0.1-4.7,0.1h-18.8
	c-0.3,0-0.5,0-0.8,0.1c-1,0.6-0.6,2.7-0.5,3.6c0.1,1.6,0.1,3.2,0.2,4.7l0.4,9.4l0.1,1.8c0,0.3,0,0.6-0.1,0.8
	c-0.2,0.4-0.5,0.2-0.8,0.2c-0.5,0-1,0-1.5,0h-3.1c-0.2,0-0.3,0-0.5-0.1c-0.1-0.1-0.2-0.3-0.2-0.5c-0.3-3.1-0.2-6.1-0.4-9.2
	c-0.1-1.1-0.2-2.1-0.3-3.2c-0.1-2-0.3-4.1-0.4-6.1c0-0.3-0.1-0.6-0.3-0.9c-0.2-0.1-0.4-0.2-0.7-0.1c-2.3,0-4.5,0.1-6.8,0.2
	c-2,0.1-4.1,0-6.2,0L299.9,1c-0.3,0-0.6,0-0.8,0.2c-0.3,0.3-0.4,0.7-0.3,1.1c0,1.3,0.1,2.7,0.2,4c0.1,1.5,0.1,3,0.1,4.4
	c0.1,2.9,0.1,5.9,0.2,8.8c0,0.3,0,0.6-0.1,0.9c-0.3,0.6-1.1,0.5-1.7,0.5c-0.8,0-1.6,0.1-2.4,0.1s-1.5,0-2.2,0
	c-0.4,0-1.1,0.2-1.4-0.2c-0.1-0.2-0.2-0.5-0.2-0.8v-0.6c-0.2-3.1-0.4-6.3-0.6-9.4c-0.1-1.6-0.1-3.1-0.1-4.7c0-0.9,0.3-2.9-0.7-3.4
	c-0.4-0.2-0.8-0.2-1.2-0.2l-6.4,0.1L272.6,2l-4.7,0.1c-1.1,0-1.7,0.1-1.7,1.3c-0.1,5.8,0.2,11.6,0.3,17.5c0,0.1,0,0.3-0.1,0.4
	c-0.1,0.2-0.8,0-1.1,0.1h-1.7l-3.1,0.1c-0.4,0-1.1,0-1.3-0.2s-0.2-1-0.2-1.4c-0.1-0.7-0.1-1.4-0.1-2.1c-0.1-1.3-0.1-2.7-0.2-4
	c-0.1-2.7-0.2-5.3-0.3-8c0-0.7-0.1-1.4-0.1-2s0.1-1.2-0.6-1.3c-1.4-0.2-2.9,0-4.3,0h-18.8c-0.3,0-0.6,0-0.8,0.2
	c-0.2,0.3-0.3,0.6-0.2,0.9c-0.1,4,0,8.1,0,12.2v4.1c0,0.3,0,0.7-0.1,1c-0.3,0.6-0.9,0.5-1.5,0.5h-6.7c-1.5,0-1.6-0.2-1.7-1.7
	c-0.3-3.7-0.4-7.3-0.5-11c0-1.2-0.1-2.3-0.1-3.5c0-0.8,0.3-2.3-0.8-2.6c-0.4,0-0.9,0-1.3,0c-0.4,0-0.9,0-1.4,0l-17.9,0.5
	c-0.4,0-0.7,0-1.1,0.1c-1,0.4-0.7,1.5-0.6,2.4c0.5,4.6,0.4,9.3,0.6,13.9c0,0.6,0.1,1.4-0.5,1.7c-0.3,0.1-0.5,0.1-0.8,0.1
	c-1.1,0-2.1,0.1-3.2,0.1c-0.2,0-0.5-0.1-0.6-0.2c-0.3-0.3-0.2-1-0.2-1.4c-0.1-0.7-0.1-1.4-0.1-2.1c-0.1-1.3-0.1-2.7-0.2-4
	c-0.1-2.7-0.2-5.3-0.3-8c0-0.7-0.1-1.4-0.1-2s0.1-1.2-0.6-1.3c-1.4-0.2-2.9,0-4.3,0h-18.8c-0.3,0-0.6,0-0.8,0.2
	c-0.2,0.3-0.3,0.6-0.3,0.9c-0.1,4,0,8.1,0,12.2v4.1c0,0.3,0,0.7-0.2,1c-0.3,0.6-0.9,0.5-1.5,0.5h-3.6v0.1h-0.8l-1.1,0.1
	c-0.8,0-0.6-0.7-0.6-1.3v-1.4c0-0.9-0.1-1.8-0.1-2.7c-0.1-3.1-0.1-6.3-0.2-9.4c0-1.6,0-3.2-0.1-4.7c0-0.4,0.2-1.1-0.1-1.5
	C161,0.2,160.5,0,160.1,0c-1.6,0-3.1,0.1-4.7,0.1h-18.8c-0.3,0-0.5,0-0.8,0.1c-1,0.6-0.6,2.7-0.5,3.6c0.1,1.6,0.1,3.2,0.2,4.7
	L136,18l0.1,1.8c0,0.3,0,0.6-0.1,0.8c-0.2,0.4-0.5,0.2-0.8,0.2c-0.5,0-1,0-1.5,0h-3.1c-0.2,0-0.3,0-0.5-0.1
	c-0.1-0.1-0.2-0.3-0.2-0.5c-0.3-3.1-0.2-6.1-0.4-9.2c-0.1-1.1-0.2-2.1-0.3-3.2c-0.1-2-0.3-4-0.4-6.1c0-0.3-0.1-0.6-0.3-0.9
	c-0.2-0.1-0.4-0.2-0.7-0.1c-2.2,0-4.5,0.1-6.8,0.2c-2,0.1-4.1,0-6.2,0L105.7,1c-0.3,0-0.6,0-0.8,0.2c-0.3,0.3-0.4,0.7-0.3,1.1
	c0,1.3,0.1,2.7,0.2,4c0.1,1.5,0.1,3,0.1,4.4c0.1,2.9,0.1,5.9,0.2,8.8c0,0.3,0,0.6-0.1,0.9c-0.3,0.6-1.2,0.5-1.7,0.5
	c-0.8,0-1.6,0.1-2.3,0.1h-2.2c-0.4,0-1.2,0.2-1.4-0.2C97.1,20.6,97,20.3,97,20v-0.6c-0.2-3.1-0.4-6.3-0.6-9.4
	c-0.1-1.6-0.1-3.1-0.1-4.7c0-0.9,0.3-2.9-0.7-3.4c-0.4-0.2-0.8-0.2-1.2-0.2l-6.4,0.1L78.4,2l-4.7,0.1c-1.1,0-1.7,0.1-1.7,1.3
	c-0.1,5.8,0.2,11.6,0.3,17.5c0,0.1,0,0.3-0.1,0.4c-0.1,0.2-0.8,0-1.1,0.1h-1.7l-3.1,0.1c-0.4,0-1.1,0-1.3-0.2s-0.2-1-0.2-1.4
	c-0.1-0.7-0.1-1.4-0.2-2.1c-0.1-1.3-0.1-2.7-0.2-4c-0.1-2.7-0.2-5.3-0.3-8c0-0.7-0.1-1.4-0.1-2s0.1-1.2-0.7-1.3
	c-1.4-0.2-2.9,0-4.3,0H40.3c-0.3,0-0.6,0-0.8,0.2c-0.2,0.3-0.3,0.6-0.3,0.9c-0.1,4,0,8.1,0,12.2v4.1c0,0.3,0,0.7-0.2,1
	c-0.3,0.6-0.9,0.5-1.5,0.5H31c-1.5,0-1.5-0.2-1.7-1.8c-0.3-3.7-0.4-7.3-0.5-11c0-1.2-0.1-2.3-0.1-3.5c0-0.8,0.3-2.3-0.8-2.6
	c-0.4,0-0.9,0-1.3,0c-0.5,0-0.9,0-1.4,0L7.4,2.9c-0.4,0-0.7,0-1.1,0.1c-1,0.4-0.7,1.5-0.6,2.4c0.5,4.6,0.4,9.3,0.6,13.9
	c0,0.6,0.2,1.4-0.5,1.7c-0.3,0.1-0.5,0.1-0.8,0.1c-1.4,0-2.7,0.1-4.1,0.2c-0.2,0-0.4,0.1-0.6,0.2c-0.4,0.3-0.4,0.9-0.1,1.3
	c0.8,0.9,3.6,0.3,4.7,0.3h44.2c15.5,0,31-0.3,46.4-0.2c4.2,0,8.4,0.1,12.6,0.1c8.4,0.1,16.8,0.1,25.2,0.2c5,0,10,0.1,15,0.1
	c4.2,0,8.4,0.2,12.6,0.1s8.2-0.3,12.3-0.3c0.5,0,1,0,1.4-0.1h68.8c15.5,0,31-0.3,46.4-0.2C293.9,23.1,298.1,23.1,302.3,23.2
	L302.3,23.2z M401.5,20.9c-0.1,0-0.3,0-0.4-0.1c-0.1-0.1-0.1-0.3-0.2-0.4c-0.1-2-0.3-4.1-0.4-6.1c-0.1-1-0.1-2-0.2-3
	c0-0.6-0.1-1.1-0.2-1.7c-0.1-0.3-0.1-0.7,0.2-1c0.2-0.1,0.4-0.1,0.6-0.1l8.9-0.2h0.4c0.2,0,0.4,0.1,0.5,0.2c0.3,0.3,0.4,0.6,0.4,1
	c0.3,3.6,0.5,7.1,0.7,10.7c0,0.2,0,0.3-0.1,0.5c-0.1,0.1-0.3,0.2-0.5,0.2l-2.4,0c-0.1,0-0.2,0-0.3,0c-0.1-0.1-0.1-0.2-0.1-0.3
	c-0.2-2.8-0.5-5.7-0.7-8.5c0-0.6-0.4-1.1-1-1.2c-0.1,0-0.1,0-0.2,0h-1.8c-0.6,0-1-0.1-1.2,0.4c-0.1,0.3-0.2,0.7-0.1,1
	c0.2,2.5,0.3,5,0.5,7.4c0,0.3,0,0.6-0.1,0.9C403.4,21.2,402.1,20.9,401.5,20.9L401.5,20.9z M406.5,20.7h-0.9c-0.2,0-0.4,0-0.6-0.1
	c-0.6-0.3-0.4-2-0.5-2.6c-0.1-1-0.1-1.9-0.1-2.9c0-0.6,0-1.2,0-1.9c0-0.5-0.2-0.9,0.3-1.2c0.3-0.1,0.6-0.2,0.9-0.2
	c0.4-0.1,0.9,0.1,1.2,0.4c0.1,0.2,0.2,0.4,0.2,0.7c0.1,1.1,0.1,2.2,0.2,3.3c0,0.8,0.1,1.6,0.1,2.4c0,0.4,0.2,1.5-0.1,1.9
	c0,0,0,0-0.1,0.1C406.8,20.7,406.7,20.7,406.5,20.7z M396.6,21c-0.2-0.2-0.3-0.4-0.3-0.7c-0.1-2.7-0.3-5.4-0.4-8.2
	c-0.1-1.2-0.2-2.4-0.2-3.6s-0.2-2.3-0.3-3.5c0-0.2,0-0.4,0.1-0.5c0.1-0.1,0.2-0.1,0.4-0.1c6.2-0.3,12.5-0.5,18.8-0.6
	c1.4,0,1.3,1.4,1.3,2.4c0.1,1.6,0.2,3.1,0.2,4.6c0.2,3.1,0.3,6.2,0.5,9.4c0,0.2,0,0.3-0.1,0.5c0,0-0.1,0.1-0.2,0.1
	c-0.1,0-0.3,0.1-0.4,0.1h-2c-0.6,0-0.9,0.1-1-0.6c-0.1-1.1-0.1-2.2-0.2-3.3c-0.2-3-0.3-5.9-0.6-8.9c0-0.3-0.1-0.6-0.3-0.9
	c-0.2-0.1-0.4-0.2-0.7-0.2c-1.5,0-3-0.1-4.5-0.1c-2.4,0-4.8,0.2-7.1,0.3c-0.5,0-0.8,0.4-0.8,0.9l0,0c0,0.4,0.1,0.9,0.1,1.3l0.4,6.6
	c0.1,1.1,0.1,2.2,0.2,3.4c0.1,0.4,0.1,0.8,0,1.2c-0.2,0.5-0.7,0.3-1.1,0.3c-0.4,0-0.7,0-1.1,0.1C396.9,21.1,396.7,21.1,396.6,21
	L396.6,21L396.6,21z M207.2,21c-0.1,0-0.3,0-0.4-0.1c-0.1-0.1-0.1-0.3-0.2-0.4c-0.1-2-0.3-4.1-0.4-6.1c-0.1-1-0.1-2-0.2-3
	c0-0.6-0.1-1.1-0.2-1.7c-0.1-0.4-0.1-0.7,0.2-1c0.2-0.1,0.4-0.1,0.6-0.1l8.9-0.2h0.4c0.2,0,0.4,0.1,0.5,0.2c0.3,0.3,0.4,0.6,0.4,1
	c0.3,3.6,0.5,7.1,0.7,10.7c0,0.2,0,0.3-0.1,0.5c-0.1,0.1-0.3,0.2-0.5,0.2l-2.4,0c-0.1,0-0.2,0-0.2,0c-0.1-0.1-0.1-0.2-0.1-0.3
	c-0.3-2.8-0.5-5.7-0.7-8.5c0.1-0.6-0.4-1.1-1-1.2c-0.1,0-0.2,0-0.2,0h-1.8c-0.6,0-1-0.1-1.2,0.4c-0.1,0.3-0.1,0.7-0.1,1l0.5,7.4
	c0,0.3,0,0.6-0.1,0.9C209.1,21.2,207.8,20.9,207.2,21L207.2,21L207.2,21z M212.2,20.7h-0.9c-0.2,0-0.4,0-0.6-0.1
	c-0.6-0.3-0.4-2-0.5-2.6c-0.1-1-0.1-1.9-0.1-2.9v-1.9c0-0.5-0.2-0.9,0.3-1.2c0.3-0.1,0.6-0.2,0.9-0.2c0.4,0,0.9,0,1.2,0.4
	c0.1,0.2,0.2,0.4,0.2,0.7c0.1,1.1,0.1,2.2,0.2,3.3c0.1,0.8,0.1,1.6,0.1,2.4c0,0.4,0.2,1.5-0.1,1.9l-0.1,0.1
	C212.6,20.7,212.4,20.7,212.2,20.7L212.2,20.7z M202.3,21c-0.2-0.2-0.3-0.4-0.2-0.7c-0.1-2.7-0.3-5.4-0.4-8.2
	c-0.1-1.2-0.2-2.4-0.2-3.6s-0.2-2.3-0.3-3.5c0-0.2,0-0.4,0.1-0.5c0.1-0.1,0.2-0.1,0.4-0.1c6.3-0.3,12.5-0.5,18.8-0.6
	c1.4,0,1.3,1.4,1.4,2.4c0.1,1.6,0.1,3.1,0.2,4.6c0.1,3.1,0.3,6.2,0.5,9.4c0,0.2,0,0.3-0.1,0.5c-0.1,0-0.1,0.1-0.2,0.1
	c-0.1,0-0.3,0.1-0.4,0.1h-2c-0.6,0-0.9,0.1-1-0.6c-0.1-1.1-0.1-2.2-0.2-3.3c-0.2-3-0.3-5.9-0.6-8.9c0-0.3-0.1-0.6-0.3-0.9
	c-0.2-0.1-0.4-0.2-0.7-0.2c-1.5,0-3-0.1-4.5-0.1c-2.4,0-4.8,0.2-7.1,0.3c-0.4,0-0.8,0.4-0.8,0.9v0c0,0.4,0.1,0.9,0.1,1.3
	c0.1,2.2,0.2,4.4,0.4,6.6c0.1,1.1,0.1,2.2,0.2,3.4c0.1,0.4,0.1,0.8,0,1.2c-0.2,0.5-0.7,0.3-1.1,0.3c-0.4,0-0.7,0-1.1,0.1
	C202.7,21.1,202.5,21.1,202.3,21L202.3,21L202.3,21z M13,20.9c-0.1,0-0.3,0-0.4-0.1c-0.1-0.1-0.1-0.3-0.2-0.4
	c-0.1-2-0.3-4.1-0.4-6.1c-0.1-1-0.1-2-0.2-3c0-0.6-0.1-1.1-0.2-1.7c-0.1-0.3-0.1-0.7,0.2-1c0.2-0.1,0.4-0.1,0.6-0.1l8.9-0.2h0.4
	c0.2,0,0.4,0.1,0.5,0.2c0.3,0.3,0.4,0.6,0.4,1C22.8,13,23,16.5,23.3,20c0,0.2,0,0.3-0.1,0.5c-0.1,0.1-0.3,0.2-0.5,0.2l-2.4,0
	c-0.1,0-0.2,0-0.2,0c-0.1-0.1-0.1-0.2-0.1-0.3c-0.3-2.8-0.5-5.7-0.7-8.5c0-0.6-0.4-1.1-1-1.2c-0.1,0-0.2,0-0.2,0h-1.8
	c-0.6,0-1-0.1-1.3,0.4c-0.1,0.3-0.1,0.7-0.1,1c0.1,2.5,0.3,5,0.5,7.4c0.1,0.3,0,0.6-0.1,0.9C14.9,21.2,13.6,20.9,13,20.9L13,20.9z
	 M18,20.7h-0.9c-0.2,0-0.4,0-0.6-0.1c-0.6-0.3-0.4-2-0.5-2.6c-0.1-1-0.1-1.9-0.1-2.9v-1.9c0-0.5-0.2-0.9,0.3-1.2
	c0.3-0.1,0.6-0.2,0.9-0.2c0.4,0,0.9,0,1.2,0.4c0.1,0.2,0.2,0.4,0.2,0.7c0.1,1.1,0.1,2.2,0.2,3.3c0,0.8,0.1,1.6,0.1,2.4
	c0,0.4,0.2,1.5-0.1,1.9c0,0,0,0-0.1,0.1C18.4,20.7,18.2,20.7,18,20.7z M8.1,21c-0.2-0.2-0.3-0.4-0.2-0.7c-0.1-2.7-0.3-5.4-0.4-8.2
	c-0.1-1.2-0.2-2.4-0.2-3.6S7,6.2,6.9,5c0-0.2,0-0.4,0.1-0.5c0.1-0.1,0.2-0.1,0.4-0.1c6.3-0.3,12.5-0.5,18.8-0.6
	c1.4,0,1.3,1.4,1.3,2.4c0.1,1.6,0.2,3.1,0.2,4.6c0.2,3.1,0.3,6.2,0.5,9.4c0,0.2,0,0.3-0.1,0.5c0,0-0.1,0.1-0.2,0.1
	c-0.1,0-0.3,0.1-0.4,0.1h-2c-0.6,0-1,0.1-1-0.6c-0.1-1.1-0.1-2.2-0.2-3.3C24,13.9,24,11,23.6,8c0-0.3-0.1-0.6-0.3-0.9
	C23.1,7,22.9,7,22.6,7c-1.5,0-3-0.1-4.5-0.1c-2.4,0-4.8,0.2-7.2,0.3c-0.4,0-0.8,0.4-0.8,0.9v0c0,0.4,0.1,0.9,0.1,1.3l0.4,6.6
	c0.1,1.1,0.1,2.2,0.2,3.4c0.1,0.4,0.1,0.8,0,1.2c-0.3,0.5-0.7,0.3-1.1,0.3c-0.4,0-0.7,0-1.1,0.1C8.5,21.1,8.3,21.1,8.1,21z M53,20.9
	c-0.1-1.8,0-3.6-0.3-5.4c0-0.2-0.1-0.3-0.3-0.4c-0.1,0-0.2,0-0.3,0c-0.5,0-1.5-0.1-1.8,0.2C50,15.6,49.9,16,50,16.4
	c0.1,1.3,0.2,2.7,0.3,4c0,0.2,0,0.4-0.1,0.6c-0.2,0.2-0.5,0.3-0.8,0.2c-0.3,0-0.7-0.1-0.9-0.3c-0.1-0.2-0.2-0.5-0.2-0.7
	c0-1.8,0-3.5,0-5.3v-1.4c0-0.4-0.2-0.7,0.2-1c0.3-0.2,0.6-0.3,0.9-0.3c1.5-0.1,3-0.2,4.4-0.1c0.3,0,0.5,0,0.8,0.2c0,0,0.1,0,0.1,0.1
	c0.2,0.3,0.3,0.6,0.3,1l0.3,7.4c0,0.1,0,0.2-0.1,0.4c-0.1,0.1-0.2,0.1-0.3,0.1h-1.1C53.3,21.3,53,21.4,53,20.9z M51.4,21.2
	c-0.1-0.2-0.2-0.4-0.2-0.6c-0.1-1.2-0.2-2.5-0.2-3.7c0-0.2,0-0.4,0.1-0.6c0.1-0.2,0.3-0.3,0.5-0.3c0.2,0,0.3,0.2,0.4,0.3
	s0.1,0.3,0.1,0.5l0.3,4c0,0.2-0.1,0.5-0.3,0.6C51.8,21.4,51.5,21.4,51.4,21.2C51.3,21.2,51.3,21.2,51.4,21.2
	C51.3,21.2,51.4,21.2,51.4,21.2z M57.8,21.3c-0.5,0-1-0.1-1.3-0.5c-0.2-0.3-0.3-0.7-0.3-1L56,12.7c0-0.4,0.1-0.9-0.3-1.2
	c-0.2-0.1-0.5-0.2-0.8-0.1c-1.2,0-2.4,0-3.6,0.1c-0.6,0-1.2,0.1-1.8,0.1c-0.5-0.1-1-0.1-1.5,0c-0.6,0.1-0.5,0.8-0.5,1.2
	c0,1.4,0.1,2.8,0.1,4.2v2.2c0.1,0.5,0.1,1.1-0.1,1.6c0,0.1-0.1,0.2-0.1,0.2c-0.3,0.2-0.7,0.4-1.1,0.3c-0.4,0.1-0.9,0-1.2-0.3
	c-0.2-0.3-0.3-0.6-0.2-1c0-3.5-0.2-7.1,0-10.6c0-0.2,0-0.4,0.1-0.5c0.2-0.2,0.5-0.3,0.8-0.2c3.8-0.1,7.7-0.2,11.5-0.2
	c0.4-0.1,0.8,0.1,1.1,0.4c0.1,0.2,0.2,0.4,0.2,0.5c0.2,1.8,0.3,3.6,0.3,5.4c0.1,1.9,0.2,3.9,0.2,5.8c0,0.1,0,0.2,0,0.4
	C58.7,21.3,58.2,21.3,57.8,21.3C57.7,21.3,57.8,21.3,57.8,21.3z M60.1,20.3c-0.3-3.9-0.5-7.7-0.5-11.6c0-0.6,0-1.4-0.7-1.7
	c-0.9-0.1-1.7-0.1-2.6,0.1c-1.8,0.1-3.5,0.1-5.2,0.1h-6c-0.4,0-1-0.1-1.3,0.2c-0.1,0.2-0.2,0.3-0.2,0.5c-0.2,1.8-0.2,3.6-0.2,5.4
	c0,2.3,0.1,4.6,0.1,6.9c0,0.2,0,0.5-0.1,0.7c-0.3,0.2-0.6,0.4-1,0.3c-0.4,0-0.9,0-1.3-0.2c-0.1-0.1-0.2-0.2-0.3-0.3
	c-0.1-0.3-0.2-0.6-0.2-0.9c0-2.5-0.1-5-0.2-7.6c-0.1-2.7-0.1-5.4-0.3-8.1c0-0.1,0-0.3,0.1-0.4c0.1-0.1,0.3-0.1,0.4-0.1l18.9-0.2h1.5
	c0.4,0,0.9-0.2,1.2,0C63,3.8,62.8,5,62.9,5.6c0,0.8,0.1,1.7,0.1,2.5c0,1.2,0,2.3,0.1,3.5c0.1,1.7,0.2,3.4,0.2,5.1
	c0,0.9,0.1,1.7,0.2,2.5c0.1,0.5,0.1,1,0.1,1.5c-0.1,0.5-0.3,0.6-0.8,0.6C61.7,21.3,60.2,21.7,60.1,20.3L60.1,20.3L60.1,20.3z
	 M344,20.7v-1.4c-0.1-1.1-0.1-2.2-0.1-3.3c0-0.8,0-1.5,0.1-2.3c0-0.4,0.3-1.4-0.2-1.6c-0.2-0.1-0.5-0.1-0.7-0.1h-1.6
	c-0.4-0.1-0.7,0.1-1,0.3c-0.1,0.2-0.2,0.5-0.2,0.8l0.2,7.5c0,0.2,0,0.4-0.1,0.5c-0.2,0.2-0.5,0.3-0.8,0.2c-0.6-0.1-0.8-0.2-0.9-0.9
	c-0.1-0.5,0-1.1,0-1.6c0-0.9-0.1-1.8-0.1-2.7l-0.1-3.9c0-0.6,0-1.2,0-1.9c0-0.4-0.2-0.9,0.2-1.2c0.4-0.2,0.8-0.3,1.2-0.2l4.8,0.1
	c0.7,0,1.3,0,1.5,0.8c0.1,1.2,0.1,2.5,0.1,3.7c0,2.5,0.1,4.9,0.1,7.4c0,0.1,0,0.3-0.1,0.5c-0.1,0.1-0.3,0.2-0.5,0.3h-0.3
	c-0.3,0-0.7,0-1-0.1C344.1,21.4,343.9,21.1,344,20.7L344,20.7z M342.1,21.2c-0.2,0-0.4,0-0.6-0.2c-0.2-0.2-0.3-0.5-0.2-0.8
	c0-2.1-0.1-4.2-0.1-6.3c0-0.3,0-0.6,0.1-0.9c0.3-0.4,0.8-0.5,1.3-0.3c0.1,0,0.2,0.1,0.3,0.2c0.2,0.3,0.3,0.6,0.2,1v4.4
	c0,0.7,0.1,1.5,0,2.3S342.6,21.2,342.1,21.2L342.1,21.2L342.1,21.2z M337.5,4.5l3.7-0.1l7.3-0.1c0.4-0.1,0.8,0,1.2,0.2
	c0,0,0.1,0.1,0.1,0.1c0.3,0.3,0.3,0.8,0.3,1.2c0.1,0.7,0,1.3,0.1,2c0,1.3,0.1,2.7,0.1,4.1c0.1,2.7,0.1,5.5,0.2,8.2
	c0,0.4,0,0.8-0.2,1.1c-0.3,0.5-1,0.4-1.5,0.4c-0.5,0.1-0.9-0.1-1.2-0.4c-0.1-0.3-0.2-0.6-0.2-0.9c0-1.9-0.1-3.8-0.1-5.8v-2.9
	c0.1-0.8,0.1-1.7,0-2.5c0-0.6-0.6-1.2-1.2-1.1h0c-2.8-0.2-5.5-0.2-8.3-0.1c-0.5,0.4-0.4,1-0.4,1.6c0.1,1.8,0,3.7,0,5.5
	c0,1.7,0.2,3.3,0.2,5c0,0.3,0,0.6-0.2,0.8c-0.3,0.2-0.6,0.2-0.9,0.2c-0.3,0-0.5-0.2-0.7-0.4c-0.1-0.2-0.1-0.4-0.1-0.6
	c-0.1-2.5-0.2-5.1-0.4-7.7c-0.1-1.1,0-2.3-0.1-3.4C335,7.8,335,6.6,335,5.4c0-0.2,0-0.4,0.1-0.6c0.2-0.3,0.7-0.2,1-0.2
	C336.6,4.6,337.1,4.6,337.5,4.5L337.5,4.5z M462.4,21.2c-0.1-0.2-0.2-0.5-0.2-0.8c0-0.7-0.1-1.5-0.1-2.2c-0.1-3.5-0.1-7-0.2-10.5
	V5.4c0-0.3-0.2-1.5,0.1-1.8c0.5-0.5,1.3-0.3,2-0.3h2.4l4.6-0.1c2.3,0,4.5-0.1,6.8-0.1c1.1,0,2.2-0.1,3.3,0c0.6,0,1.7,0,2,0.5
	c0.1,0.2,0.2,0.4,0.2,0.7c0.4,5.2,0.7,10.4,0.9,15.7c0.1,0.3,0,0.7-0.2,0.9c-0.3,0.2-0.6,0.4-1,0.3c-0.6,0-1.2,0.1-1.7,0.1
	c-0.1,0-0.3,0-0.4-0.1c-0.1-0.1-0.2-0.3-0.2-0.5c-0.1-2.6-0.2-5.3-0.3-7.9c0-1.3-0.1-2.6-0.2-4c0-0.8,0.2-2.2-0.7-2.7
	c-0.3-0.1-0.7-0.2-1-0.2c-4.2,0-8.4,0-12.6,0.1c-0.4,0-0.8,0.1-1.2,0.3c0,0-0.1,0.1-0.1,0.1c-0.3,0.3-0.2,0.6-0.1,1
	c0.1,0.6,0.1,1.2,0.1,1.8c0,1.3,0.1,2.5,0.2,3.8c0.1,2.5,0.3,5,0.4,7.5c0,0.2,0,0.4-0.1,0.5c-0.1,0.1-0.3,0.2-0.5,0.2
	C464.1,21.4,462.7,21.6,462.4,21.2L462.4,21.2z M475.1,20.7c-0.1-0.1-0.1-0.2-0.1-0.3c0-1.3-0.1-2.5-0.2-3.8
	c-0.1-1.1-0.1-2.2-0.2-3.3c0-0.1,0-0.3-0.1-0.4c-0.1-0.1-0.3-0.1-0.4-0.1c-0.6,0-1.7-0.3-2.1,0.4c-0.1,0.3-0.2,0.6-0.1,0.9
	c0.1,2.1,0.3,4.2,0.3,6.4c0,0.5-0.1,0.5-0.5,0.5s-0.9,0-1.2-0.3c-0.1-0.2-0.2-0.5-0.2-0.8l-0.4-4.6c-0.1-0.9-0.1-1.8-0.2-2.8
	c-0.1-0.5-0.2-1.1-0.1-1.6c0-0.1,0.1-0.3,0.2-0.4c0.3-0.2,0.7-0.2,1.1-0.2l3.8,0.1c0.2,0,0.5,0,0.7,0.1c0.4,0.2,0.5,0.8,0.5,1.3
	c0.2,2.8,0.2,5.7,0.6,8.5c0.1,0.5-0.2,0.4-0.5,0.4S475.3,20.8,475.1,20.7L475.1,20.7z M473.9,20.9c-0.2,0-0.7,0-0.8-0.2
	c-0.1-0.1-0.1-0.3-0.1-0.4c-0.1-1.9-0.3-3.8-0.4-5.7c0-0.2,0-0.4,0.1-0.6c0-0.1,0.1-0.1,0.2-0.2c0.4-0.1,0.8,0,1.1,0.3
	c0.1,0.3,0.2,0.6,0.2,0.9c0,1.8,0.1,3.6,0.2,5.4C474.4,20.6,474.2,20.9,473.9,20.9L473.9,20.9L473.9,20.9z M477,13.2
	c0-0.5-0.1-1.1-0.2-1.6c-0.1-0.4,0-0.8-0.1-1.2c-0.1-0.4-0.3-0.7-0.6-0.9c-0.2-0.1-0.5-0.1-0.8-0.1c-1.9-0.1-3.9-0.1-5.8,0
	c-0.2,0-0.4,0.1-0.6,0.2c-0.4,0.3-0.4,0.9-0.4,1.4c0.3,3.2,0.5,6.4,0.8,9.6c0.1,0.2,0,0.5-0.2,0.6c-0.1,0-0.2,0.1-0.3,0h-1.6
	c-0.2,0-0.4,0-0.5-0.1c-0.1-0.1-0.2-0.3-0.2-0.5c-0.2-2.3-0.4-4.6-0.5-6.9c-0.1-1.9-0.3-3.8-0.4-5.8c0-0.1,0-0.2,0-0.3
	c0,0,0-0.1,0-0.1c0.1-0.1,0.3-0.2,0.5-0.2l11.6-0.1c0.4-0.1,0.7,0.1,1,0.3c0.2,0.2,0.2,0.5,0.2,0.8c0.1,1.9,0.2,3.8,0.3,5.7
	c0,2.2,0.1,4.4,0.4,6.5c0,0.1,0,0.3,0,0.4c-0.2,0.3-2.1,0.4-2.1,0.2C477.4,18.4,477.2,15.8,477,13.2z M441.4,20.9
	c-0.1-1.8,0-3.6-0.3-5.4c0-0.2-0.1-0.3-0.3-0.4c-0.1,0-0.2,0-0.3,0c-0.5,0-1.5-0.1-1.8,0.2c-0.2,0.4-0.3,0.8-0.2,1.2
	c0.1,1.3,0.2,2.7,0.3,4c0,0.2,0,0.4-0.1,0.6c-0.2,0.2-0.5,0.3-0.8,0.2c-0.3,0-0.7-0.1-0.9-0.3c-0.1-0.2-0.2-0.5-0.2-0.7
	c0-1.8,0-3.5,0-5.3c0-0.4,0-0.9,0-1.4s-0.1-0.7,0.2-1c0.3-0.2,0.6-0.3,0.9-0.3c1.5-0.1,3-0.2,4.4-0.1c0.3,0,0.5,0,0.8,0.2
	c0,0,0.1,0,0.1,0.1c0.2,0.3,0.3,0.6,0.3,1l0.3,7.4c0,0.1,0,0.2-0.1,0.4c-0.1,0.1-0.2,0.1-0.3,0.1h-1.1
	C441.7,21.3,441.4,21.4,441.4,20.9z M439.8,21.2c-0.1-0.2-0.2-0.4-0.2-0.6c-0.1-1.2-0.2-2.5-0.2-3.7c0-0.2,0-0.4,0.1-0.6
	c0.1-0.2,0.3-0.4,0.5-0.3c0.1,0,0.2,0.2,0.3,0.3c0.1,0.1,0.1,0.3,0.1,0.5l0.3,4c0,0.2-0.1,0.5-0.3,0.6
	C440.2,21.4,439.9,21.4,439.8,21.2C439.8,21.2,439.8,21.2,439.8,21.2z M446.2,21.3c-0.5,0-1-0.1-1.3-0.5c-0.2-0.3-0.3-0.7-0.3-1
	l-0.2-7.1c0-0.4,0.1-0.9-0.3-1.2c-0.2-0.1-0.5-0.2-0.8-0.1c-1.2,0-2.4,0-3.6,0.1c-0.6,0-1.2,0.1-1.8,0.1c-0.5-0.1-1-0.1-1.5,0
	c-0.6,0.1-0.5,0.8-0.5,1.2c0,1.4,0.1,2.8,0.1,4.2c0,0.7,0,1.4,0,2.2c0.1,0.5,0.1,1.1-0.1,1.6c0,0.1-0.1,0.2-0.1,0.2
	c-0.3,0.2-0.7,0.4-1.1,0.3c-0.5,0.1-1,0-1.3-0.4c-0.2-0.3-0.3-0.6-0.3-1c0-3.5-0.2-7.1,0-10.6c0-0.2,0-0.4,0.1-0.5
	c0.2-0.2,0.5-0.3,0.8-0.2c3.8-0.1,7.7-0.2,11.5-0.2c0.4-0.1,0.8,0.1,1.1,0.4c0.1,0.2,0.2,0.4,0.2,0.5c0.2,1.8,0.3,3.6,0.3,5.4
	c0.1,1.9,0.2,3.9,0.2,5.8c0,0.1,0,0.2,0,0.4C447.1,21.3,446.6,21.3,446.2,21.3L446.2,21.3z M448.5,20.3c-0.3-3.9-0.4-7.7-0.5-11.6
	c0-0.6,0-1.4-0.6-1.7c-0.9-0.1-1.7-0.1-2.6,0.1c-1.7,0.1-3.5,0.1-5.2,0.1c-1.3,0-2.7,0-4,0h-2c-0.4,0-1-0.1-1.3,0.2
	c-0.1,0.2-0.2,0.3-0.2,0.5c-0.2,1.8-0.2,3.6-0.2,5.4c0,2.3,0.1,4.6,0.1,6.9c0,0.2,0,0.5-0.1,0.7c-0.3,0.2-0.6,0.4-1,0.3
	c-0.4,0-0.9,0-1.3-0.2c-0.1-0.1-0.2-0.2-0.3-0.3c-0.1-0.3-0.2-0.6-0.2-0.9c0-2.5-0.1-5-0.1-7.6c-0.1-2.7-0.1-5.4-0.3-8.1
	c0-0.1,0-0.3,0.1-0.4c0.1-0.1,0.3-0.1,0.4-0.1c6.3-0.1,12.6-0.1,18.9-0.2h1.5c0.4,0,0.9-0.2,1.2,0c0.5,0.3,0.4,1.5,0.4,2.1
	c0,0.8,0.1,1.7,0.1,2.5c0,1.2,0,2.3,0.1,3.5c0.1,1.7,0.2,3.4,0.2,5.1c0,0.9,0.1,1.7,0.1,2.5c0.1,0.5,0.1,1,0.1,1.5
	c-0.1,0.5-0.3,0.6-0.8,0.6C450.2,21.3,448.6,21.7,448.5,20.3L448.5,20.3L448.5,20.3z M369.5,21c-0.2-0.3-0.3-0.6-0.2-1
	c0-3.5-0.2-7.1,0-10.6c0-0.2,0-0.4,0.1-0.5c0.2-0.2,0.5-0.3,0.8-0.2c3.8-0.1,7.7-0.2,11.5-0.2c0.4-0.1,0.8,0.1,1.1,0.4
	c0.1,0.2,0.2,0.4,0.2,0.5c0.2,1.8,0.3,3.6,0.3,5.4c0.1,1.9,0.1,3.9,0.2,5.8c0,0.1,0,0.2,0,0.4c-0.1,0.4-0.7,0.4-1.1,0.4
	c-0.5,0-1-0.1-1.3-0.5c-0.2-0.3-0.3-0.7-0.2-1l-0.2-7.1c0-0.4,0.1-0.9-0.3-1.2c-0.2-0.1-0.5-0.2-0.8-0.1c-1.2,0-2.4,0-3.6,0.1
	c-0.6,0-1.2,0.1-1.8,0.1c-0.5-0.1-1-0.1-1.5,0c-0.6,0.1-0.5,0.8-0.5,1.2l0,4.2v2.2c0.1,0.5,0.1,1.1-0.1,1.6c0,0.1-0.1,0.2-0.1,0.2
	c-0.3,0.2-0.7,0.3-1.1,0.3C370.3,21.4,369.9,21.3,369.5,21L369.5,21L369.5,21z M377.5,20.9c-0.1-1.8,0-3.6-0.3-5.4
	c0-0.2-0.1-0.3-0.3-0.4c-0.1,0-0.2,0-0.3,0c-0.4,0-1.5-0.1-1.8,0.2c-0.2,0.4-0.3,0.8-0.2,1.2c0.1,1.3,0.2,2.7,0.3,4
	c0,0.2,0,0.4-0.1,0.6c-0.2,0.2-0.5,0.3-0.8,0.2c-0.3,0-0.7-0.1-0.9-0.3c-0.1-0.2-0.2-0.5-0.2-0.7V15c0-0.4,0-0.9,0-1.4
	s-0.2-0.7,0.2-1c0.3-0.2,0.6-0.3,0.9-0.3c1.5-0.1,3-0.2,4.4-0.1c0.3,0,0.5,0,0.8,0.2c0,0,0.1,0,0.1,0.1c0.2,0.3,0.3,0.6,0.3,1
	l0.3,7.4c0,0.1,0,0.2-0.1,0.4c-0.1,0.1-0.2,0.1-0.3,0.1h-1.1C377.9,21.3,377.5,21.4,377.5,20.9L377.5,20.9L377.5,20.9z M375.9,21.1
	c-0.1-0.2-0.2-0.4-0.2-0.6c-0.1-1.2-0.2-2.5-0.2-3.7c0-0.2,0-0.4,0.1-0.6c0.1-0.1,0.2-0.2,0.4-0.3c0.2,0,0.3,0.2,0.4,0.3
	c0.1,0.1,0.1,0.3,0.1,0.5l0.3,4c0,0.2-0.1,0.5-0.3,0.6C376.2,21.4,376,21.3,375.9,21.1C375.9,21.1,375.9,21.1,375.9,21.1z
	 M384.7,20.3c-0.3-3.9-0.5-7.7-0.5-11.6c0-0.6,0-1.4-0.7-1.7c-0.9-0.1-1.7-0.1-2.6,0.1c-1.7,0.1-3.5,0.1-5.2,0.1h-6
	c-0.4,0-1-0.1-1.3,0.2c-0.1,0.2-0.1,0.3-0.1,0.5c-0.2,1.8-0.2,3.6-0.2,5.4c0,2.3,0.1,4.6,0.1,6.9c0,0.3,0,0.5-0.2,0.8
	c-0.3,0.2-0.6,0.4-1,0.3c-0.4,0-0.9,0-1.3-0.2c-0.1-0.1-0.2-0.2-0.3-0.3c-0.1-0.3-0.2-0.6-0.2-0.9c0-2.5-0.1-5-0.1-7.6
	c-0.1-2.7-0.1-5.4-0.3-8.1c0-0.1,0-0.3,0.1-0.4c0.1-0.1,0.3-0.1,0.4-0.1l18.9-0.2h1.5c0.4,0,0.9-0.2,1.2,0c0.5,0.3,0.4,1.5,0.4,2.1
	c0,0.8,0.1,1.7,0.1,2.5c0,1.2,0,2.3,0.1,3.5c0.1,1.7,0.1,3.4,0.2,5.1c0,0.9,0.1,1.7,0.1,2.5c0.1,0.5,0.1,1,0.1,1.5
	c-0.1,0.5-0.3,0.6-0.8,0.6C386.3,21.3,384.7,21.7,384.7,20.3C384.6,20.3,384.7,20.3,384.7,20.3z M332,20.6c-0.1-0.2-0.2-0.5-0.2-0.8
	c-0.3-5.9-0.6-11.9-1-17.8c0-0.2,0-0.3,0.1-0.5c0.2-0.2,0.5-0.3,0.7-0.3c6.2,0,12.4,0,18.6-0.2c1,0,1.9,0.1,2.9,0.1
	c0.3,0,0.5,0.1,0.7,0.2c0.1,0.2,0.2,0.4,0.2,0.7c0.1,6.1,0.3,12.2,0.4,18.4c0,0.3,0,0.6-0.2,0.9c0,0,0,0,0,0
	c-0.3,0.3-0.9,0.3-1.2,0.2s-0.9,0.1-1.1-0.1s-0.2-0.6-0.2-0.8c0-0.6,0-1.3,0-1.9v-4c-0.1-2.6-0.2-5.2-0.2-7.8V4.9
	c0-0.4,0.1-1.1-0.3-1.4c-0.3-0.1-0.6-0.2-0.9-0.2c-3-0.1-6,0-9,0h-3.9c-0.8,0-2.4-0.2-3,0.5c-0.2,0.4-0.3,0.8-0.3,1.2
	c0.1,3.1,0.3,6.2,0.3,9.3c0,1.8,0.2,3.6,0.2,5.4c0,0.3,0.1,0.7-0.1,1c-0.3,0.2-0.6,0.3-0.9,0.3C333,21,332.3,21,332,20.6L332,20.6z
	 M301.1,20.6c-0.5,0-0.6-0.1-0.7-0.6c-0.1-1.4-0.2-2.9-0.2-4.3c0-2.3-0.1-4.6-0.2-7c-0.1-1.9,0-3.8,0-5.7c0-0.2,0-0.4,0.1-0.5
	l0.1-0.1c0.2-0.1,0.5-0.2,0.7-0.2c3.1,0,6.3,0,9.4,0.1s6.1-0.1,9.1-0.1h1.5c0.3,0,0.6-0.1,0.8,0.1C322,2.5,322,2.7,322,3
	c0.5,5.7,0.7,11.3,0.7,17c0,0.2,0,0.3-0.1,0.5c-0.1,0.1-0.3,0.1-0.5,0.1c-0.6,0-1.4,0.2-1.6-0.5c-0.1-0.5-0.1-1,0-1.4l-0.4-9.4
	c0-0.8-0.1-1.6-0.1-2.3c0.1-0.5,0-1.1-0.1-1.6c-0.5-1.2-2.1-0.9-3.1-0.9h-4.3c-2.8,0-5.7,0-8.5-0.1c-1.6,0-1.7,0.1-1.8,1.7
	c0,2.3,0.1,4.6,0.2,6.9s0.1,4.6,0.2,6.9c0.1,0.3,0,0.6-0.2,0.8C302.2,20.7,301.5,20.6,301.1,20.6L301.1,20.6L301.1,20.6z
	 M314.2,20.8c-0.4,0-0.9,0.1-1.1-0.3c-0.1-0.3-0.1-0.5-0.1-0.8c0.1-1.4-0.1-2.8-0.1-4.2c0-0.7,0-1.3,0-2c0-0.4,0-1-0.3-1.2
	c-0.1-0.1-0.3-0.1-0.5-0.1h-1.7c-0.2,0-0.5,0-0.7,0.2c-0.1,0.2-0.1,0.3-0.1,0.5c0,1.7,0,3.3,0.1,5c0,0.6,0.4,2.2-0.2,2.6
	c-0.3,0.1-0.6,0.2-0.9,0.2c-0.4,0-0.9-0.1-1.1-0.4c-0.1-0.2-0.2-0.5-0.2-0.7c-0.2-3.3-0.3-6.5-0.6-9.8c0-0.1,0-0.2,0-0.3
	c0,0,0-0.1,0-0.1c0.1-0.2,0.5-0.3,0.7-0.3h6.2c0.4,0,0.9,0,1.2,0.2c0.6,0.4,0.4,1.3,0.5,1.9l0.1,2.7c0.1,1.9,0.1,3.7,0.2,5.6
	c0,0.3,0,0.7-0.2,1C315.2,20.9,314.6,20.8,314.2,20.8L314.2,20.8L314.2,20.8z M310.9,20.4c-0.1,0-0.2,0-0.2,0
	c-0.1-0.1-0.1-0.2-0.1-0.4v-3.4c0-1-0.2-1.9-0.2-2.9c0-0.1,0-0.3,0.1-0.4c0.2-0.2,0.4-0.2,0.6-0.2c0.4,0,1,0,1.2,0.4
	c0.1,0.2,0.1,0.3,0.1,0.5c0.1,2,0.1,4,0.1,5.9c0,0.2-0.1,0.5-0.3,0.5c0,0-0.1,0-0.2,0L310.9,20.4L310.9,20.4z M316.6,20.6
	c-0.1-0.2-0.2-0.5-0.2-0.8c-0.1-2.1-0.2-4.1-0.2-6.2v-3.1c0-0.5,0.2-1.8-0.4-2.1c-0.2-0.1-0.4-0.1-0.6-0.1c-2.7-0.1-5.3-0.1-8-0.2
	c-0.3,0-0.7,0-1,0.2c-0.6,0.4-0.2,2.1-0.2,2.8c0.1,0.9,0.1,1.8,0.1,2.7c0.1,1.9,0.2,3.8,0.2,5.7c0,0.2,0,0.5,0,0.7
	c-0.2,0.7-1.1,0.4-1.6,0.3c-0.3,0-0.6,0.1-0.8-0.3c-0.1-0.3-0.2-0.6-0.2-0.9c-0.1-2.1-0.2-4.1-0.3-6.2s-0.1-4-0.1-6.1
	c0-0.4,0-0.8,0.1-1.1c0-0.2,0.1-0.3,0.3-0.4c0.4-0.4,1-0.3,1.4-0.3c1.4,0,2.9-0.1,4.3-0.1c2.9,0,5.8,0,8.7,0.2
	c0.2,0,0.5,0.1,0.6,0.2c0.1,0.2,0.2,0.3,0.1,0.5c0.3,4.5,0.4,9.1,0.5,13.6c0,0.3,0,0.9-0.4,1S316.9,21,316.6,20.6L316.6,20.6
	L316.6,20.6z M268.2,21.1c-0.1-0.2-0.2-0.5-0.2-0.8c0-0.7-0.1-1.5-0.1-2.2c-0.1-3.5-0.1-7-0.2-10.5V5.3c0-0.3-0.2-1.5,0.1-1.8
	c0.5-0.5,1.3-0.3,2-0.3h2.4l4.7-0.1l6.8-0.1c1.1,0,2.2-0.1,3.3,0c0.6,0,1.7,0,2,0.5c0.1,0.2,0.2,0.4,0.1,0.7
	c0.4,5.2,0.7,10.4,1,15.7c0,0.3,0,0.7-0.2,0.9c-0.3,0.2-0.6,0.4-1,0.3c-0.6,0-1.2,0.1-1.8,0.1c-0.1,0-0.3,0-0.4-0.1
	c-0.1-0.1-0.2-0.3-0.2-0.5c-0.1-2.6-0.2-5.3-0.3-7.9c0-1.3-0.1-2.6-0.2-4c0-0.8,0.2-2.2-0.7-2.7c-0.3-0.1-0.7-0.2-1-0.2
	c-4.2,0-8.4,0-12.6,0.1c-0.4,0-0.8,0.1-1.2,0.3l-0.1,0.1c-0.3,0.3-0.2,0.6-0.1,1c0.1,0.6,0,1.3,0.1,1.8c0,1.3,0.1,2.5,0.2,3.8
	c0.1,2.5,0.3,5,0.4,7.5c0,0.2,0,0.4-0.1,0.5c-0.1,0.1-0.4,0.2-0.5,0.2C269.8,21.4,268.5,21.6,268.2,21.1
	C268.2,21.2,268.2,21.1,268.2,21.1z M280.9,20.6c-0.1-0.1-0.1-0.2-0.1-0.3c0-1.3-0.1-2.5-0.2-3.8c-0.1-1.1-0.1-2.2-0.2-3.3
	c0-0.1,0-0.3-0.1-0.4c-0.1-0.1-0.3-0.1-0.4-0.1c-0.6,0-1.8-0.3-2.1,0.4c-0.1,0.3-0.2,0.6-0.1,0.9c0.1,2.1,0.3,4.2,0.3,6.4
	c0,0.5-0.1,0.5-0.5,0.5s-0.9,0-1.2-0.3c-0.1-0.2-0.2-0.5-0.2-0.8c-0.1-1.5-0.2-3.1-0.4-4.6c-0.1-0.9-0.1-1.8-0.2-2.8
	c-0.1-0.5-0.2-1.1-0.1-1.6c0-0.1,0.1-0.3,0.3-0.4c0.3-0.2,0.7-0.2,1-0.2l3.8,0.1c0.2,0,0.5,0,0.7,0.1c0.4,0.2,0.5,0.8,0.5,1.3
	c0.2,2.8,0.2,5.7,0.6,8.5c0.1,0.5-0.2,0.4-0.5,0.4S281.1,20.8,280.9,20.6C280.9,20.6,280.9,20.6,280.9,20.6z M279.7,20.9
	c-0.3,0-0.6,0-0.8-0.2c-0.1-0.1-0.1-0.3-0.1-0.4c-0.1-1.9-0.3-3.8-0.4-5.7c0-0.2,0-0.4,0.1-0.6c0-0.1,0.1-0.1,0.2-0.2
	c0.4-0.1,0.8,0,1.1,0.3c0.2,0.3,0.3,0.6,0.2,1c0,1.8,0.1,3.6,0.2,5.4C280.2,20.6,280,20.9,279.7,20.9L279.7,20.9L279.7,20.9
	L279.7,20.9z M282.8,13.2c0-0.5-0.1-1.1-0.2-1.6s0-0.8-0.1-1.2c0-0.4-0.3-0.7-0.6-0.9c-0.2-0.1-0.5-0.1-0.8-0.1
	c-1.9-0.1-3.9-0.1-5.8,0c-0.2,0-0.4,0.1-0.6,0.2c-0.4,0.3-0.4,0.9-0.4,1.4l0.8,9.6c0,0.2,0,0.4-0.1,0.6c-0.1,0.1-0.3,0.1-0.4,0.1
	H273c-0.2,0-0.4,0-0.5-0.1c-0.1-0.1-0.2-0.3-0.2-0.5l-0.5-6.9c-0.1-1.9-0.3-3.8-0.4-5.8c0-0.1,0-0.2,0-0.3c0,0,0-0.1,0-0.1
	c0.1-0.1,0.3-0.2,0.5-0.2l11.6-0.1c0.4-0.1,0.7,0.1,1,0.3c0.2,0.2,0.3,0.5,0.2,0.8c0.1,1.9,0.2,3.8,0.3,5.7c0,2.2,0.1,4.4,0.4,6.5
	c0,0.1,0,0.3,0,0.4c-0.2,0.3-2.1,0.4-2.1,0.2C283.1,18.4,283,15.8,282.8,13.2L282.8,13.2L282.8,13.2z M247.1,20.8
	c-0.1-1.8,0-3.6-0.3-5.4c0-0.2-0.1-0.3-0.3-0.4c-0.1,0-0.2,0-0.3,0c-0.4,0-1.5-0.1-1.8,0.2c-0.2,0.4-0.3,0.8-0.2,1.2
	c0.1,1.3,0.2,2.7,0.3,4c0,0.2,0,0.4-0.1,0.6c-0.2,0.2-0.5,0.3-0.8,0.2c-0.3,0-0.7-0.1-0.9-0.3c-0.1-0.2-0.2-0.5-0.2-0.7v-6.6
	c0-0.4-0.2-0.7,0.2-1c0.3-0.2,0.6-0.3,0.9-0.3c1.5-0.1,2.9-0.2,4.4-0.1c0.3,0,0.5,0,0.8,0.2c0,0,0.1,0,0.1,0.1
	c0.2,0.3,0.3,0.6,0.3,1l0.3,7.4c0,0.1,0,0.2-0.1,0.4c-0.1,0.1-0.2,0.1-0.3,0.1H248C247.5,21.3,247.2,21.4,247.1,20.8
	C247.2,20.9,247.1,20.8,247.1,20.8z M245.5,21.1c-0.1-0.2-0.2-0.4-0.2-0.6c-0.1-1.2-0.2-2.5-0.2-3.7c0-0.2,0-0.4,0.1-0.6
	c0.1-0.2,0.3-0.3,0.5-0.3c0.2,0,0.3,0.2,0.4,0.3c0.1,0.1,0.1,0.3,0.1,0.5c0.1,1.3,0.2,2.7,0.3,4c0,0.2-0.1,0.5-0.3,0.6
	C245.9,21.4,245.7,21.3,245.5,21.1L245.5,21.1L245.5,21.1z M251.9,21.2c-0.5,0-1-0.1-1.3-0.5c-0.2-0.3-0.3-0.7-0.2-1l-0.2-7.1
	c0-0.4,0.1-0.9-0.3-1.2c-0.2-0.1-0.5-0.2-0.8-0.1c-1.2,0-2.4,0-3.6,0.1c-0.6,0-1.2,0.1-1.8,0.1c-0.5-0.1-1-0.1-1.5,0
	c-0.6,0.1-0.6,0.8-0.5,1.2c0,1.4,0.1,2.8,0.1,4.2v2.2c0.1,0.5,0.1,1.1-0.1,1.6c0,0.1-0.1,0.2-0.1,0.2c-0.3,0.2-0.7,0.3-1.1,0.3
	c-0.5,0.1-1,0-1.3-0.4c-0.2-0.3-0.3-0.6-0.2-1c-0.1-3.5-0.2-7.1-0.1-10.6c0-0.2,0-0.4,0.1-0.5c0.2-0.2,0.5-0.3,0.8-0.2
	c3.8-0.1,7.7-0.2,11.5-0.2c0.4-0.1,0.8,0.1,1.1,0.4c0.1,0.2,0.2,0.4,0.2,0.5c0.2,1.8,0.3,3.6,0.3,5.4c0.1,1.9,0.2,3.9,0.2,5.8
	c0,0.1,0,0.2,0,0.4C252.9,21.3,252.4,21.3,251.9,21.2L251.9,21.2L251.9,21.2z M254.3,20.3c-0.3-3.9-0.4-7.7-0.5-11.6
	c0-0.6-0.1-1.4-0.7-1.7c-0.9-0.1-1.7-0.1-2.6,0.1c-1.7,0.1-3.5,0.1-5.2,0.1h-6c-0.4,0-1-0.1-1.3,0.2c-0.1,0.2-0.1,0.3-0.2,0.5
	c-0.2,1.8-0.2,3.6-0.2,5.4c0,2.3,0.1,4.6,0.1,6.9c0,0.2,0,0.5-0.1,0.7c-0.3,0.2-0.6,0.4-1,0.3c-0.4,0-0.9,0-1.3-0.2
	c-0.1-0.1-0.2-0.2-0.3-0.3c-0.1-0.3-0.2-0.6-0.2-0.9c0-2.5-0.1-5-0.1-7.6c-0.1-2.7-0.1-5.4-0.3-8.1c0-0.1,0-0.3,0.1-0.4
	c0.1-0.1,0.3-0.1,0.4-0.1l18.9-0.2h1.5c0.4,0,0.9-0.2,1.2,0c0.5,0.3,0.4,1.5,0.4,2.1c0,0.8,0.1,1.7,0.1,2.5c0,1.2,0,2.3,0.1,3.5
	c0.1,1.7,0.2,3.4,0.2,5.1c0,0.9,0.1,1.7,0.1,2.5c0.1,0.5,0.1,1,0.1,1.5c-0.1,0.5-0.3,0.6-0.8,0.6C256,21.3,254.4,21.7,254.3,20.3
	C254.3,20.3,254.3,20.3,254.3,20.3z M175.3,20.9c-0.2-0.3-0.3-0.6-0.3-1c-0.1-3.5-0.2-7.1-0.1-10.6c0-0.2,0-0.4,0.1-0.5
	c0.2-0.2,0.5-0.3,0.8-0.2c3.8-0.1,7.7-0.2,11.5-0.2c0.4-0.1,0.8,0.1,1.1,0.4c0.1,0.2,0.2,0.4,0.2,0.5c0.2,1.8,0.3,3.6,0.3,5.4
	c0.1,1.9,0.2,3.9,0.2,5.8c0,0.1,0,0.2,0,0.4c-0.1,0.4-0.7,0.4-1.1,0.4c-0.5,0-1-0.1-1.3-0.5c-0.2-0.3-0.3-0.7-0.3-1l-0.2-7.1
	c0-0.4,0.1-0.9-0.3-1.2c-0.2-0.1-0.5-0.2-0.8-0.1c-1.2,0-2.4,0-3.6,0.1c-0.6,0-1.2,0.1-1.8,0.1c-0.5-0.1-1-0.1-1.5,0
	c-0.6,0.1-0.5,0.8-0.5,1.2c0,1.4,0.1,2.8,0.1,4.2c0,0.7,0,1.4,0.1,2.2c0.1,0.5,0.1,1.1-0.1,1.6c0,0.1-0.1,0.2-0.1,0.2
	c-0.3,0.2-0.7,0.4-1.1,0.3C176.2,21.4,175.7,21.3,175.3,20.9L175.3,20.9L175.3,20.9z M183.3,20.8c-0.1-1.8-0.1-3.6-0.3-5.4
	c0-0.2-0.1-0.3-0.3-0.4c-0.1,0-0.2,0-0.3,0c-0.4,0-1.5-0.1-1.8,0.2c-0.2,0.4-0.3,0.8-0.2,1.2c0.1,1.3,0.2,2.7,0.3,4
	c0.1,0.2,0,0.4-0.1,0.6c-0.2,0.2-0.5,0.3-0.8,0.2c-0.3,0-0.6-0.1-0.9-0.3c-0.1-0.2-0.2-0.5-0.2-0.7c0-1.8,0-3.5-0.1-5.3v-1.4
	c0-0.4-0.2-0.7,0.2-1c0.3-0.2,0.6-0.3,0.9-0.3c1.5-0.1,2.9-0.2,4.4-0.1c0.3,0,0.5,0,0.8,0.2c0,0,0.1,0,0.1,0.1
	c0.2,0.3,0.3,0.6,0.3,1l0.3,7.4c0,0.1,0,0.2-0.1,0.4c-0.1,0.1-0.2,0.1-0.3,0.1h-1.1C183.6,21.3,183.3,21.4,183.3,20.8L183.3,20.8
	L183.3,20.8z M181.7,21.1c-0.1-0.2-0.2-0.4-0.2-0.6c-0.1-1.2-0.2-2.5-0.2-3.7c0-0.2,0-0.4,0.1-0.6c0.1-0.2,0.3-0.4,0.5-0.3
	c0.1,0,0.2,0.2,0.3,0.3c0.1,0.1,0.1,0.3,0.1,0.5l0.3,4c0,0.2-0.1,0.5-0.3,0.6C182.1,21.4,181.8,21.3,181.7,21.1L181.7,21.1
	L181.7,21.1z M190.4,20.3c-0.3-3.9-0.4-7.7-0.5-11.6c0-0.6-0.1-1.4-0.6-1.7c-0.9-0.1-1.7-0.1-2.6,0.1c-1.7,0.1-3.5,0.1-5.2,0.1h-6.1
	c-0.4,0-1-0.1-1.3,0.2C174,7.6,174,7.8,174,8c-0.2,1.8-0.2,3.6-0.2,5.4c0,2.3,0.1,4.6,0.1,6.9c0,0.2,0,0.5-0.1,0.7
	c-0.3,0.2-0.6,0.4-1,0.3c-0.4,0-0.9,0-1.3-0.2c-0.1-0.1-0.2-0.2-0.3-0.3c-0.1-0.3-0.2-0.6-0.2-0.9c0-2.5-0.1-5-0.1-7.6
	c-0.1-2.7-0.1-5.4-0.3-8.1c0-0.1,0-0.3,0.1-0.4c0.1-0.1,0.3-0.1,0.4-0.1c6.3-0.1,12.6-0.1,18.9-0.2h1.5c0.4,0,0.9-0.2,1.2,0
	c0.5,0.3,0.4,1.5,0.4,2.1c0,0.8,0.1,1.7,0.1,2.5c0,1.2,0,2.3,0.1,3.5c0.1,1.7,0.2,3.4,0.2,5.1c0.1,0.9,0.1,1.7,0.1,2.5
	c0.1,0.5,0.1,1,0.1,1.5c-0.1,0.5-0.3,0.6-0.8,0.6C192.1,21.3,190.5,21.7,190.4,20.3L190.4,20.3L190.4,20.3z M107,20.6
	c-0.5,0-0.7-0.1-0.7-0.6c-0.1-1.4-0.2-2.9-0.2-4.3c0-2.3-0.1-4.6-0.2-7c-0.1-1.9,0-3.8,0-5.7c0-0.2,0-0.4,0.1-0.5l0.1-0.1
	c0.2-0.1,0.5-0.2,0.7-0.2c3.2,0,6.3,0,9.4,0.1s6.1-0.1,9.1-0.1h1.4c0.3,0,0.6-0.1,0.8,0.1c0.1,0.2,0.2,0.5,0.2,0.7
	c0.5,5.7,0.7,11.3,0.6,17c0,0.2,0,0.3-0.1,0.5c-0.1,0.1-0.3,0.1-0.5,0.1c-0.6,0-1.4,0.2-1.6-0.5c-0.1-0.5-0.1-1,0-1.4
	c-0.1-3.1-0.3-6.3-0.4-9.4c0-0.8-0.1-1.6-0.1-2.3c0.1-0.5,0-1.1-0.1-1.6c-0.5-1.2-2.1-0.9-3.1-0.9h-4.3c-2.8,0-5.7,0-8.5-0.1
	c-1.6,0-1.7,0.1-1.7,1.7c0,2.3,0.1,4.6,0.2,6.9s0.1,4.6,0.2,6.9c0.1,0.3,0,0.6-0.2,0.8C108,20.7,107.3,20.6,107,20.6L107,20.6
	L107,20.6z M120.1,20.8c-0.4,0-0.9,0.1-1.1-0.3c-0.1-0.3-0.1-0.5-0.1-0.8c0.1-1.4-0.1-2.8-0.1-4.2v-2c0-0.4,0-1-0.3-1.2
	c-0.1-0.1-0.3-0.1-0.4-0.1h-1.7c-0.2,0-0.5,0-0.7,0.2c-0.1,0.2-0.1,0.3-0.1,0.5c0,1.7,0,3.3,0.1,5c0,0.6,0.4,2.2-0.2,2.6
	c-0.3,0.1-0.6,0.2-0.9,0.2c-0.4,0-0.8-0.1-1.2-0.4c-0.1-0.2-0.2-0.5-0.2-0.7c-0.2-3.3-0.3-6.5-0.6-9.8c0-0.1,0-0.2,0-0.3
	c0,0,0-0.1,0-0.1c0.1-0.2,0.4-0.3,0.7-0.3h6.2c0.4,0,0.8,0,1.2,0.2c0.6,0.4,0.4,1.3,0.4,1.9c0,0.9,0.1,1.8,0.1,2.7
	c0.1,1.9,0.1,3.7,0.2,5.6c0.1,0.3,0,0.7-0.2,1C121,20.9,120.4,20.8,120.1,20.8C120,20.8,120.1,20.8,120.1,20.8z M116.7,20.4
	c-0.1,0-0.2,0-0.2,0c-0.1-0.1-0.1-0.2-0.1-0.4v-3.4c0-1-0.2-1.9-0.2-2.9c0-0.2,0-0.3,0.1-0.4c0.2-0.2,0.4-0.2,0.6-0.2
	c0.4,0,1,0,1.2,0.4c0.1,0.2,0.1,0.4,0,0.6c0.1,2,0.1,4,0.1,5.9c0,0.1,0,0.3-0.1,0.4c-0.1,0.1-0.2,0.1-0.4,0.1
	C117.6,20.4,116.7,20.4,116.7,20.4z M122.5,20.6c-0.2-0.2-0.2-0.5-0.2-0.8c-0.1-2.1-0.2-4.1-0.2-6.2v-3.1c0-0.5,0.2-1.8-0.4-2.1
	c-0.2-0.1-0.4-0.1-0.6-0.1c-2.7-0.1-5.3-0.1-8-0.2c-0.3,0-0.7,0-1,0.2c-0.6,0.4-0.3,2.1-0.2,2.8c0.1,0.9,0.1,1.8,0.2,2.7
	c0.1,1.9,0.2,3.8,0.2,5.7c0,0.2,0,0.5-0.1,0.7c-0.2,0.7-1.1,0.4-1.6,0.3c-0.3,0-0.6,0.1-0.8-0.3c-0.1-0.3-0.2-0.6-0.2-0.9
	c-0.1-2.1-0.2-4.1-0.3-6.2s-0.1-4-0.1-6.1c0-0.4,0-0.8,0.1-1.1c0.1-0.2,0.1-0.3,0.2-0.4c0.4-0.4,1-0.3,1.4-0.3
	c1.4,0,2.9-0.1,4.3-0.1c2.9,0,5.8,0,8.7,0.2c0.2,0,0.5,0.1,0.7,0.2c0.1,0.2,0.2,0.3,0.1,0.5c0.3,4.5,0.4,9.1,0.5,13.6
	c0,0.3,0,0.9-0.4,1S122.7,21,122.5,20.6L122.5,20.6L122.5,20.6z M74,21.2c-0.2-0.2-0.2-0.5-0.2-0.8c0-0.7-0.1-1.5-0.1-2.2
	c-0.2-3.5-0.1-7-0.2-10.5V5.4c0-0.3-0.2-1.5,0.1-1.8c0.5-0.5,1.3-0.3,2-0.3H78l4.7-0.1c2.3,0,4.5-0.1,6.8-0.1c1.1,0,2.2-0.1,3.3,0
	c0.6,0,1.7,0,2,0.5C94.9,3.8,95,4,95,4.2c0.3,5.2,0.7,10.4,0.9,15.7c0.1,0.3,0,0.7-0.2,0.9c-0.3,0.2-0.6,0.4-1,0.3
	c-0.6,0-1.2,0.1-1.7,0.1c-0.1,0-0.3,0-0.4-0.1c-0.1-0.1-0.2-0.3-0.2-0.5c-0.1-2.6-0.2-5.3-0.3-7.9c0-1.3-0.1-2.6-0.2-3.9
	c0-0.8,0.2-2.3-0.7-2.7C90.9,6,90.6,6,90.2,6C86,6,81.8,6,77.6,6.1c-0.4,0-0.8,0.1-1.2,0.3c0,0-0.1,0.1-0.1,0.1
	c-0.3,0.3-0.2,0.6-0.1,1c0.1,0.6,0.1,1.2,0.1,1.8c0,1.3,0.1,2.5,0.2,3.8l0.4,7.5c0,0.2,0,0.4-0.1,0.5c-0.2,0.1-0.3,0.2-0.6,0.2
	C75.7,21.4,74.3,21.6,74,21.2L74,21.2z M147.9,21.2c-0.2,0-0.4,0-0.6-0.2c-0.2-0.2-0.3-0.5-0.2-0.8c0-2.1-0.1-4.2-0.1-6.3
	c0-0.3,0-0.6,0.1-0.9c0.3-0.4,0.8-0.5,1.3-0.3c0.1,0,0.2,0.1,0.3,0.2c0.2,0.3,0.2,0.6,0.2,1v4.4c0,0.7,0.1,1.5,0,2.3
	S148.4,21.2,147.9,21.2L147.9,21.2z M86.8,20.6c-0.1-0.1-0.1-0.2-0.1-0.3c0-1.3-0.1-2.5-0.2-3.8c-0.1-1.1-0.1-2.2-0.2-3.3
	c0-0.1-0.1-0.3-0.1-0.4c-0.1-0.1-0.3-0.1-0.4-0.1c-0.6,0-1.7-0.3-2.1,0.4c-0.1,0.3-0.2,0.6-0.2,0.9c0.1,2.1,0.3,4.2,0.3,6.4
	c0,0.5-0.1,0.5-0.5,0.5s-0.9,0-1.2-0.3c-0.1-0.2-0.2-0.5-0.2-0.8c-0.1-1.5-0.2-3.1-0.4-4.6c-0.1-0.9-0.1-1.8-0.2-2.8
	c-0.1-0.5-0.2-1.1-0.1-1.6c0.1-0.1,0.1-0.3,0.2-0.4c0.3-0.2,0.7-0.2,1.1-0.2c1.3,0,2.6,0,3.8,0.1c0.2,0,0.5,0,0.7,0.1
	c0.4,0.3,0.6,0.8,0.5,1.3c0.2,2.8,0.2,5.7,0.6,8.5c0.1,0.5-0.2,0.4-0.5,0.4S86.9,20.8,86.8,20.6C86.7,20.6,86.8,20.6,86.8,20.6z
	 M85.6,20.9c-0.3,0-0.6,0-0.8-0.2c-0.1-0.1-0.1-0.3-0.1-0.4c-0.1-1.9-0.3-3.8-0.4-5.7c0-0.2,0-0.4,0.1-0.6c0-0.1,0.1-0.1,0.2-0.2
	c0.4-0.1,0.8,0,1.1,0.3c0.2,0.3,0.2,0.6,0.2,0.9c0,1.8,0.1,3.6,0.2,5.4C86,20.6,85.8,20.9,85.6,20.9L85.6,20.9L85.6,20.9z
	 M88.6,13.2c0-0.5-0.1-1.1-0.2-1.6c-0.1-0.4,0-0.8-0.1-1.2c-0.1-0.4-0.3-0.7-0.6-0.9c-0.2-0.1-0.5-0.1-0.8-0.1
	c-1.9-0.1-3.8-0.1-5.8,0c-0.2,0-0.4,0.1-0.6,0.2c-0.4,0.3-0.4,0.9-0.4,1.4c0.3,3.2,0.5,6.4,0.8,9.6c0,0.2,0,0.4-0.1,0.6
	c-0.1,0.1-0.3,0.1-0.4,0.1h-1.6c-0.2,0-0.4,0-0.5-0.1c-0.1-0.1-0.2-0.3-0.2-0.5l-0.5-6.9c-0.2-1.9-0.3-3.8-0.4-5.8
	c0-0.1,0-0.2,0-0.3c0,0,0-0.1,0-0.1c0.1-0.1,0.3-0.2,0.5-0.2l11.6-0.1c0.4-0.1,0.7,0.1,1,0.3c0.2,0.2,0.2,0.5,0.2,0.8
	c0.1,1.9,0.2,3.8,0.2,5.7c0,2.2,0.1,4.4,0.3,6.5c0,0.1,0,0.3,0,0.4C91,21.2,89.1,21.3,89,21C89,18.4,88.8,15.8,88.6,13.2L88.6,13.2
	L88.6,13.2z M150.3,21.5c-0.3-0.1-0.5-0.5-0.5-0.8c0-0.5,0-0.9,0-1.4c-0.1-1.1-0.1-2.2-0.1-3.3c0-0.8,0-1.5,0.1-2.3
	c0-0.4,0.2-1.4-0.2-1.6c-0.2-0.1-0.5-0.2-0.7-0.1h-1.6c-0.4-0.1-0.7,0.1-1,0.3c-0.1,0.2-0.2,0.5-0.2,0.8l0.2,7.5
	c0,0.2,0,0.4-0.1,0.5c-0.2,0.2-0.5,0.3-0.8,0.2c-0.6-0.1-0.8-0.2-0.9-0.9c-0.1-0.5,0-1.1,0-1.6c0-0.9-0.1-1.8-0.1-2.7
	c0-1.3,0-2.6-0.1-3.9v-1.9c0-0.4-0.2-0.9,0.2-1.2c0.4-0.2,0.8-0.3,1.2-0.2l4.8,0.1c0.7,0,1.3,0,1.5,0.8c0.1,1.2,0.1,2.5,0.1,3.7
	c0,2.5,0.1,4.9,0.1,7.4c0,0.1,0,0.3-0.1,0.5c-0.1,0.2-0.3,0.3-0.5,0.3h-0.3C151,21.6,150.6,21.6,150.3,21.5
	C150.3,21.5,150.3,21.5,150.3,21.5z M154.7,21.6c-0.4,0.1-0.9-0.1-1.2-0.4c-0.2-0.3-0.2-0.6-0.2-0.9c0-1.9-0.1-3.8-0.1-5.8v-2.9
	c0.1-0.8,0.1-1.7,0-2.5c0-0.7-0.6-1.2-1.2-1.1h0c-2.8-0.2-5.5-0.2-8.3,0c-0.5,0.4-0.4,1-0.4,1.6c0.1,1.8,0,3.7,0.1,5.5
	c0,1.7,0.2,3.3,0.2,5c0,0.3,0,0.6-0.2,0.8c-0.3,0.2-0.6,0.2-0.9,0.2c-0.3,0-0.5-0.2-0.7-0.4c-0.1-0.2-0.1-0.4-0.1-0.6
	c-0.1-2.5-0.3-5.1-0.4-7.7c-0.1-1.1,0-2.3-0.1-3.4c-0.1-1.2-0.1-2.4-0.1-3.6c0-0.3,0-0.5,0.2-0.7c0.2-0.3,0.7-0.2,1-0.2
	c0.4,0,0.9,0,1.4,0l3.6,0c2.4,0,4.9-0.1,7.3-0.1c0.4-0.1,0.8,0,1.2,0.2c0.1,0,0.1,0.1,0.1,0.1c0.3,0.3,0.3,0.8,0.3,1.2
	c0.1,0.7,0.1,1.3,0.1,2c0,1.3,0.1,2.7,0.1,4.1c0.1,2.7,0.1,5.5,0.2,8.2c0.1,0.4,0,0.8-0.2,1.1C155.9,21.7,155.2,21.6,154.7,21.6
	L154.7,21.6L154.7,21.6z M158.8,21.7c-0.3,0-0.9,0.1-1.1-0.1s-0.2-0.6-0.2-0.8c0-0.6,0-1.3,0-1.9v-4c-0.1-2.6-0.1-5.2-0.2-7.8V4.9
	c0-0.4,0.1-1.1-0.3-1.4c-0.3-0.1-0.6-0.2-0.9-0.2c-3-0.1-6,0-9,0h-3.9c-0.8,0-2.4-0.2-3,0.5c-0.2,0.4-0.4,0.8-0.3,1.2
	c0.1,3.1,0.3,6.2,0.3,9.3c0,1.8,0.2,3.6,0.2,5.4c0,0.3,0.1,0.7-0.1,1c-0.2,0.2-0.6,0.3-0.9,0.3c-0.6,0-1.2,0-1.5-0.4
	c-0.1-0.2-0.2-0.5-0.2-0.8c-0.3-5.9-0.7-11.9-1-17.8c0-0.2,0-0.3,0.1-0.5c0.2-0.2,0.5-0.3,0.7-0.3c6.2,0,12.4,0,18.6-0.2
	c1,0,1.9,0.1,2.9,0.1c0.3,0,0.5,0.1,0.7,0.2c0.1,0.2,0.2,0.4,0.2,0.7c0.1,6.1,0.3,12.2,0.4,18.4c0,0.3,0,0.6-0.1,0.9c0,0,0,0,0,0
	C159.8,21.8,159.2,21.7,158.8,21.7L158.8,21.7L158.8,21.7z"/>
</svg>
