<?xml version="1.0" encoding="UTF-8"?><svg id="a" xmlns="http://www.w3.org/2000/svg" viewBox="0 0 485.59 7.23"><defs><style>.b{fill:#3e342f;}</style></defs><path class="b" d="M193.35,1.35c-.34-.68-1.33-1.17-2.04-1.3-.89-.17-1.85,.08-2.57,.62-.6,.45-.96,1.79-1.59,2-.31,.1-.65,.03-.97-.02-1.49-.23-3.14-.14-4.65-.14-.29,0-.6-.02-.84-.18-.25-.17-.39-.46-.56-.7-.78-1.13-2.63-1.3-3.6-.33-.31,.31-.53,.7-.89,.95-.44,.3-1.01,.33-1.54,.35-1.36,.05-2.7,.03-4.05,.06-.04,0-.08,0-.12,.01-.98-1.75-3.22-2.85-4.87-.32-.21,.32-.37,.69-.68,.9-.32,.22-.73,.22-1.12,.22-1.38,0-2.76-.01-4.15-.02-.34,0-.68,0-1-.12-.47-.17-.57-.91-.93-1.27-.51-.52-1.39-.9-2.12-.91-1.16,0-2.3,.61-2.79,1.69-.09,.21-.17,.44-.36,.56-.16,.1-.36,.1-.55,.1-2.02-.02-4.04-.24-6.08-.33-.4-.02-.83-.04-1.16-.27-.81-.56-1.18-1.38-2.21-1.64-1.06-.27-2.34-.02-3.13,.76-.39,.39-.7,.89-1.2,1.13-.38,.18-.82,.18-1.24,.18-1.14-.01-2.28-.02-3.43-.03-.45,0-.98-.02-1.38-.24-.44-.24-.53-.68-.84-1.05-.89-1.04-2.59-1.28-3.72-.51-.39,.26-.71,.62-1.08,.91-.7,.54-1.19,.35-1.97,.32-.96-.03-1.94,.06-2.9,.08-.89,.01-1.75,.06-2.64,.17-.63,.08-1.34,.04-1.79-.4-.2-.19-.33-.45-.51-.67-.57-.72-1.71-1.11-2.61-1.11-.78,0-1.56,.32-2.06,.91-.35,.41-.57,.94-1.02,1.22-.42,.27-.96,.25-1.46,.23-.9-.04-1.81-.08-2.71-.11-.57-.02-1.73,.13-2.21-.26-.47-.39-.56-1.06-1.12-1.48-.62-.46-1.39-.71-2.16-.67-.91,.05-1.8,.5-2.38,1.21-.29,.35-.37,.76-.75,1.01-.4,.26-1.02,.24-1.48,.25-1.1,.02-2.2,.04-3.31,.06-.52,0-1.06,.02-1.54-.19-.88-.37-.63-1.01-.96-1.67-.34-.68-1.33-1.17-2.04-1.3-.89-.17-1.85,.08-2.57,.62-.6,.45-.96,1.79-1.59,2-.31,.1-.65,.03-.97-.02-1.49-.23-3.14-.14-4.65-.14-.29,0-.6-.02-.84-.18-.25-.17-.39-.46-.56-.7-.78-1.13-2.63-1.3-3.6-.33-.31,.31-.53,.7-.89,.95-.44,.3-1.01,.33-1.54,.35-1.36,.05-2.7,.03-4.05,.06-.04,0-.08,0-.12,.01-.98-1.75-3.22-2.85-4.87-.32-.21,.32-.37,.69-.68,.9-.32,.22-.73,.22-1.12,.22-1.38,0-2.77-.01-4.15-.02-.34,0-.68,0-1-.12-.47-.17-.57-.91-.93-1.27-.51-.52-1.39-.9-2.12-.91-1.16,0-2.3,.61-2.79,1.69-.09,.21-.17,.44-.36,.56-.16,.1-.36,.1-.55,.1-2.02-.02-4.04-.24-6.08-.33-.4-.02-.83-.04-1.16-.27-.81-.56-1.18-1.38-2.21-1.64-1.06-.27-2.34-.02-3.13,.76-.39,.39-.7,.89-1.2,1.13-.38,.18-.82,.18-1.24,.18-1.14-.01-2.28-.02-3.43-.03-.45,0-.98-.02-1.38-.24-.44-.24-.53-.68-.84-1.05-.89-1.04-2.59-1.28-3.72-.51-.39,.26-.71,.62-1.08,.91-.7,.54-1.19,.35-1.97,.32-.96-.03-1.94,.06-2.9,.08-.89,.01-1.75,.06-2.64,.17-.63,.08-1.34,.04-1.79-.4-.2-.19-.33-.45-.51-.67-.57-.72-1.71-1.11-2.61-1.11-.78,0-1.56,.32-2.06,.91-.35,.41-.57,.94-1.02,1.22-.42,.27-.96,.25-1.46,.23-.9-.04-1.81-.08-2.71-.11C2.62,3.06-.04,2.59,0,3.61c.05,1.28,5.86,.71,6.7,.72,.6,0,.95,.2,1.22,.87,.46,1.1,1.42,2.04,2.67,2.03,.92,0,2.48-.82,2.83-1.68,.15-.38,.25-.8,.56-1.06,.3-.24,.71-.26,1.09-.27l5.87-.15c.34,0,.7-.01,.99,.17,.38,.23,.52,.7,.72,1.1,1.08,2.1,4.28,2.23,5.47,.17,.18-.31,.31-.66,.6-.87,.27-.19,.61-.22,.93-.24,1.52-.1,2.97-.18,4.47,.21,.84,.22,1,1.03,1.55,1.6,.58,.6,1.4,.95,2.23,.97,.98,.02,2.16-.39,2.72-1.24,.25-.38,.31-.86,.68-1.17,.42-.35,1-.35,1.52-.35,1.65,0,3.3,0,4.95,0,.23,0,.47,0,.68,.1,.31,.15,.47,.49,.66,.78,.51,.79,1.37,1.36,2.3,1.5,1.17,.17,2.26-.33,3-1.26,.22-.28,.42-.6,.72-.8,.34-.21,.76-.23,1.16-.24,1.27-.04,2.53-.07,3.8-.11,.4-.01,.84-.02,1.18,.2,.34,.22,.51,.62,.74,.95,.65,.97,1.89,1.5,3.04,1.31,1.68-.29,2.33-1.3,2.33-2.41,0-.25-.04-.51-.1-.76,.96,.02,1.94,.09,2.89,.03,.65-.04,1.48-.26,2.03,.21,.42,.36,.35,1.07,.65,1.5,.38,.55,.96,.97,1.61,1.11,1.21,.26,2.56-.47,3.01-1.63,.15-.38,.24-.82,.58-1.03,.21-.13,.47-.13,.71-.13,1.59,0,3.18-.02,4.76-.03,.27,0,.55,0,.78,.13,.38,.22,.49,.69,.67,1.08,.37,.82,1.17,1.43,2.06,1.58,.89,.15,1.84-.17,2.46-.82,.37-.39,.62-.87,1.03-1.22,.66-.56,1.73-.48,2.54-.42,1.12,.08,2.24,0,3.37,.06,.31,.02,.63,.05,.89,.21,.37,.23,.53,.67,.75,1.04,.52,.88,1.49,1.48,2.51,1.56,1.33,.1,2.43-.6,2.99-1.76,.33-.68,.84-.89,1.55-.88,1.53,.03,3.06,.02,4.59,.04,.6,0,.95,.2,1.22,.87,.46,1.1,1.42,2.04,2.67,2.03,.92,0,2.48-.82,2.83-1.68,.15-.38,.25-.8,.56-1.06,.3-.24,.71-.26,1.09-.27l5.87-.15c.34,0,.7-.01,.99,.17,.38,.23,.52,.7,.72,1.1,1.08,2.1,4.28,2.23,5.47,.17,.18-.31,.31-.66,.6-.87,.27-.19,.61-.22,.93-.24,1.52-.1,2.97-.18,4.47,.21,.84,.22,1,1.03,1.55,1.6,.58,.6,1.4,.95,2.23,.97,.98,.02,2.16-.39,2.72-1.24,.25-.38,.31-.86,.68-1.17,.42-.35,1-.35,1.52-.35,1.65,0,3.3,0,4.95,0,.23,0,.47,0,.68,.1,.31,.15,.47,.49,.66,.78,.51,.79,1.37,1.36,2.3,1.5,1.17,.17,2.26-.33,3-1.26,.22-.28,.42-.6,.72-.8,.34-.21,.76-.23,1.16-.24,1.27-.04,2.53-.07,3.8-.11,.4-.01,.84-.02,1.18,.2,.34,.22,.51,.62,.74,.95,.65,.97,1.89,1.5,3.04,1.31,1.68-.29,2.33-1.3,2.33-2.41,0-.25-.04-.51-.1-.76,.96,.02,1.94,.09,2.89,.03,.65-.04,1.48-.26,2.03,.21,.42,.36,.35,1.07,.65,1.5,.38,.55,.96,.97,1.61,1.11,1.21,.26,2.56-.47,3.01-1.63,.15-.38,.24-.82,.58-1.03,.21-.13,.47-.13,.71-.13,1.59,0,3.18-.02,4.76-.03,.27,0,.55,0,.78,.13,.38,.22,.49,.69,.67,1.08,.37,.82,1.17,1.43,2.06,1.58,.89,.15,1.84-.17,2.46-.82,.37-.39,.62-.87,1.03-1.22,.66-.56,1.73-.48,2.54-.42,1.12,.08,2.24,0,3.37,.06,.31,.02,.63,.05,.89,.21,.37,.23,.53,.67,.75,1.04,.52,.88,1.49,1.48,2.51,1.56,1.33,.1,2.43-.6,2.99-1.76,.33-.68,.84-.89,1.55-.88,1.53,.03,3.06,.02,4.59,.04,.6,0,.95,.2,1.22,.87,.46,1.1,1.42,2.04,2.67,2.03,.92,0,2.48-.82,2.83-1.68,.15-.38,.25-.8,.56-1.06,.3-.24,.71-.26,1.09-.27l5.87-.15c.34,0,.7-.01,.99,.17,.38,.23,.52,.7,.72,1.1,1.08,2.1,4.28,2.23,5.47,.17,.18-.31,.31-.66,.6-.87,.27-.19,.61-.22,.93-.24,1.52-.1,2.97-.18,4.47,.21,.84,.22,1,1.03,1.55,1.6,.58,.6,1.4,.95,2.23,.97,.98,.02,2.16-.39,2.72-1.24,.25-.38,.31-.86,.68-1.17,.42-.35,1-.35,1.52-.35,1.65,0,3.3,0,4.95,0,.23,0,.47,0,.68,.1,.31,.15,.47,.49,.66,.78,.51,.79,1.37,1.36,2.3,1.5,1.17,.17,2.26-.33,3-1.26,.22-.28,.42-.6,.72-.8,.34-.21,.76-.23,1.16-.24,1.27-.04,2.53-.07,3.8-.11,.4-.01,.84-.02,1.18,.2,.34,.22,.51,.62,.74,.95,.65,.97,1.89,1.5,3.04,1.31,1.68-.29,2.33-1.3,2.33-2.41,0-.25-.04-.51-.1-.76,.96,.02,1.94,.09,2.89,.03,.65-.04,1.48-.26,2.03,.21,.42,.36,.35,1.07,.65,1.5,.38,.55,.96,.97,1.61,1.11,1.21,.26,2.56-.47,3.01-1.63,.15-.38,.24-.82,.58-1.03,.21-.13,.47-.13,.71-.13,1.59,0,3.18-.02,4.76-.03,.27,0,.55,0,.78,.13,.38,.22,.49,.69,.67,1.08,.37,.82,1.17,1.43,2.06,1.58,.89,.15,1.84-.17,2.46-.82,.37-.39,.62-.87,1.03-1.22,.66-.56,1.73-.48,2.54-.42,1.12,.08,2.24,0,3.37,.06,.31,.02,.63,.05,.89,.21,.37,.23,.53,.67,.75,1.04,.52,.88,1.49,1.48,2.51,1.56,1.33,.1,2.43-.6,2.99-1.76,.33-.68,.84-.89,1.55-.88,1.53,.03,3.06,.02,4.59,.04,.6,0,.95,.2,1.22,.87,.46,1.1,1.42,2.04,2.67,2.03,.92,0,2.48-.82,2.83-1.68,.15-.38,.25-.8,.56-1.06,.3-.24,.71-.26,1.09-.27l5.87-.15c.34,0,.7-.01,.99,.17,.38,.23,.52,.7,.72,1.1,1.08,2.1,4.28,2.23,5.47,.17,.18-.31,.31-.66,.6-.87,.27-.19,.61-.22,.93-.24,1.52-.1,2.97-.18,4.47,.21,.84,.22,1,1.03,1.55,1.6,.58,.6,1.4,.95,2.23,.97,.98,.02,2.16-.39,2.72-1.24,.25-.38,.31-.86,.68-1.17,.42-.35,1-.35,1.52-.35,1.65,0,3.3,0,4.95,0,.23,0,.47,0,.68,.1,.31,.15,.47,.49,.66,.78,.51,.79,1.37,1.36,2.3,1.5,1.17,.17,2.26-.33,3-1.26,.22-.28,.42-.6,.72-.8,.34-.21,.76-.23,1.16-.24,1.27-.04,2.53-.07,3.8-.11,.4-.01,.84-.02,1.18,.2,.34,.22,.51,.62,.74,.95,.65,.97,1.89,1.5,3.04,1.31,1.68-.29,2.33-1.3,2.33-2.41,0-.25-.04-.5-.1-.76,.92,.02,1.87,.09,2.78,.03,.65-.04,1.48-.26,2.03,.21,.42,.36,.35,1.07,.65,1.5,.38,.55,.96,.97,1.61,1.11,1.21,.26,2.56-.47,3.01-1.63,.15-.38,.24-.82,.58-1.03,.21-.13,.47-.13,.71-.13,1.59,0,3.18-.02,4.76-.03,.27,0,.55,0,.78,.13,.38,.22,.49,.69,.67,1.08,.37,.82,1.17,1.43,2.06,1.58,.89,.15,1.84-.17,2.46-.82,.37-.39,.62-.87,1.03-1.22,.66-.56,1.73-.48,2.54-.42,1.12,.08,2.24,0,3.37,.06,.31,.02,.63,.05,.89,.21,.37,.23,.53,.67,.75,1.04,.52,.88,1.49,1.48,2.51,1.56,1.33,.1,2.43-.6,2.99-1.76,.33-.68,.84-.89,1.55-.88,1.53,.03,3.06,.02,4.59,.04,.6,0,.95,.2,1.22,.87,.46,1.1,1.42,2.04,2.67,2.03,.92,0,2.48-.82,2.83-1.68,.15-.38,.25-.8,.56-1.06,.3-.24,.71-.26,1.09-.27l5.87-.15c.34,0,.7-.01,.99,.17,.38,.23,.52,.7,.72,1.1,1.08,2.1,4.28,2.23,5.47,.17,.18-.31,.31-.66,.6-.87,.27-.19,.61-.22,.93-.24,1.52-.1,2.97-.18,4.47,.21,.84,.22,1,1.03,1.55,1.6,.58,.6,1.4,.95,2.23,.97,.98,.02,2.16-.39,2.72-1.24,.25-.38,.31-.86,.68-1.17,.42-.35,1-.35,1.52-.35,1.65,0,3.3,0,4.95,0,.23,0,.47,0,.68,.1,.31,.15,.47,.49,.66,.78,.51,.79,1.37,1.36,2.3,1.5,1.17,.17,2.26-.33,3-1.26,.22-.28,.42-.6,.72-.8,.34-.21,.76-.23,1.16-.24,1.27-.04,2.53-.07,3.8-.11,.4-.01,.84-.02,1.18,.2,.34,.22,.51,.62,.74,.95,.65,.97,1.9,1.5,3.05,1.31,.81-.14,1.51-.63,1.99-1.29,.51-.71,.71-1.18,1.7-1.19,1.35-.01,2.7-.02,4.04-.02,.03,0,.07,0,.1,0,.27-.01,.57-.08,.66-.32,.08-.22-.08-.48-.3-.58-.22-.1-.46-.09-.7-.08-1.29,.07-2.58,.25-3.88,.19-1.07-.05-1.29-.64-1.87-1.37-.55-.69-1.37-1.14-2.27-1.16-.99-.02-1.98,.49-2.52,1.32-.21,.32-.37,.69-.68,.9-.32,.22-.73,.22-1.12,.22-1.38,0-2.76-.01-4.15-.02-.34,0-.68,0-1-.12-.47-.17-.57-.91-.93-1.27-.51-.52-1.39-.9-2.12-.91-1.16,0-2.3,.61-2.79,1.69-.09,.21-.17,.44-.36,.56-.16,.1-.36,.1-.55,.1-2.02-.02-4.04-.24-6.08-.33-.4-.02-.83-.04-1.16-.27-.81-.56-1.18-1.38-2.21-1.64-1.06-.27-2.34-.02-3.13,.76-.39,.39-.7,.89-1.2,1.13-.38,.18-.82,.18-1.24,.18-1.14-.01-2.28-.02-3.43-.03-.45,0-.98-.02-1.38-.24-.44-.24-.53-.68-.84-1.05-.89-1.04-2.59-1.28-3.72-.51-.39,.26-.71,.62-1.08,.91-.7,.54-1.19,.35-1.97,.32-.96-.03-1.94,.06-2.9,.08-.89,.01-1.75,.06-2.64,.17-.63,.08-1.34,.04-1.79-.4-.2-.19-.34-.45-.51-.67-.57-.72-1.71-1.11-2.61-1.11-.78,0-1.56,.32-2.06,.91-.35,.41-.57,.94-1.02,1.22-.42,.27-.96,.25-1.46,.23-.9-.04-1.81-.08-2.71-.11-.57-.02-1.73,.13-2.21-.26-.47-.39-.56-1.06-1.12-1.48-.62-.46-1.39-.71-2.16-.67-.91,.05-1.8,.5-2.38,1.21-.29,.35-.37,.76-.75,1.01-.4,.26-1.02,.24-1.48,.25-1.1,.02-2.2,.04-3.31,.06-.52,0-1.06,.02-1.54-.19-.88-.37-.63-1.01-.96-1.67-.34-.68-1.33-1.17-2.04-1.3-.89-.17-1.85,.08-2.57,.62-.6,.45-.96,1.79-1.59,2-.31,.1-.65,.03-.97-.02-1.49-.23-3.14-.14-4.65-.14-.29,0-.6-.02-.84-.18-.25-.17-.39-.46-.56-.7-.78-1.13-2.63-1.3-3.6-.33-.31,.31-.53,.7-.89,.95-.44,.3-1.01,.33-1.54,.35-1.36,.05-2.7,.03-4.05,.06h-.03c-.98-1.74-3.21-2.83-4.87-.31-.21,.32-.37,.69-.68,.9-.32,.22-.73,.22-1.12,.22-1.38,0-2.77-.01-4.15-.02-.34,0-.68,0-1-.12-.47-.17-.57-.91-.93-1.27-.51-.52-1.39-.9-2.12-.91-1.16,0-2.3,.61-2.79,1.69-.09,.21-.17,.44-.36,.56-.16,.1-.36,.1-.55,.1-2.02-.02-4.04-.24-6.08-.33-.4-.02-.83-.04-1.16-.27-.81-.56-1.18-1.38-2.21-1.64-1.06-.27-2.34-.02-3.13,.76-.39,.39-.7,.89-1.2,1.13-.38,.18-.82,.18-1.24,.18-1.14-.01-2.28-.02-3.43-.03-.45,0-.98-.02-1.38-.24-.44-.24-.53-.68-.84-1.05-.89-1.04-2.59-1.28-3.72-.51-.39,.26-.71,.62-1.08,.91-.7,.54-1.19,.35-1.97,.32-.96-.03-1.94,.06-2.9,.08-.89,.01-1.75,.06-2.64,.17-.63,.08-1.34,.04-1.79-.4-.2-.19-.34-.45-.51-.67-.57-.72-1.71-1.11-2.61-1.11-.78,0-1.56,.32-2.06,.91-.35,.41-.57,.94-1.02,1.22-.42,.27-.96,.25-1.46,.23-.9-.04-1.81-.08-2.71-.11-.57-.02-1.73,.13-2.21-.26-.47-.39-.56-1.06-1.12-1.48-.62-.46-1.39-.71-2.16-.67-.91,.05-1.8,.5-2.38,1.21-.29,.35-.37,.76-.75,1.01-.4,.26-1.02,.24-1.48,.25-1.1,.02-2.2,.04-3.31,.06-.52,0-1.06,.02-1.54-.19-.88-.37-.63-1.01-.96-1.67-.34-.68-1.33-1.17-2.04-1.3-.89-.17-1.85,.08-2.57,.62-.6,.45-.96,1.79-1.59,2-.31,.1-.65,.03-.97-.02-1.49-.23-3.14-.14-4.65-.14-.29,0-.6-.02-.84-.18-.25-.17-.39-.46-.56-.7-.78-1.13-2.63-1.3-3.6-.33-.31,.31-.53,.7-.89,.95-.44,.3-1.01,.33-1.54,.35-1.36,.05-2.7,.03-4.05,.06-.04,0-.08,0-.12,.01-.98-1.75-3.22-2.85-4.87-.32-.21,.32-.37,.69-.68,.9-.32,.22-.73,.22-1.12,.22-1.38,0-2.76-.01-4.15-.02-.34,0-.68,0-1-.12-.47-.17-.57-.91-.93-1.27-.51-.52-1.39-.9-2.12-.91-1.16,0-2.3,.61-2.79,1.69-.09,.21-.17,.44-.36,.56-.16,.1-.36,.1-.55,.1-2.02-.02-4.04-.24-6.08-.33-.4-.02-.83-.04-1.16-.27-.81-.56-1.18-1.38-2.21-1.64-1.06-.27-2.34-.02-3.13,.76-.39,.39-.7,.89-1.2,1.13-.38,.18-.82,.18-1.24,.18-1.14-.01-2.28-.02-3.43-.03-.45,0-.98-.02-1.38-.24-.44-.24-.53-.68-.84-1.05-.89-1.04-2.59-1.28-3.72-.51-.39,.26-.71,.62-1.08,.91-.7,.54-1.19,.35-1.97,.32-.96-.03-1.94,.06-2.9,.08-.89,.01-1.75,.06-2.64,.17-.63,.08-1.34,.04-1.79-.4-.2-.19-.34-.45-.51-.67-.57-.72-1.71-1.11-2.61-1.11-.78,0-1.56,.32-2.06,.91-.35,.41-.57,.94-1.02,1.22-.42,.27-.96,.25-1.46,.23-.9-.04-1.81-.08-2.71-.11-.57-.02-1.73,.13-2.21-.26-.47-.39-.56-1.06-1.12-1.48-.62-.46-1.39-.71-2.16-.67-.91,.05-1.8,.5-2.38,1.21-.29,.35-.37,.76-.75,1.01-.4,.26-1.02,.24-1.48,.25-1.1,.02-2.2,.04-3.31,.06-.52,0-1.06,.02-1.54-.19-.88-.37-.63-1.01-.96-1.67Z"/></svg>