<svg id="e4f8bed0-f242-4443-b23e-a35f2df9b437" data-name="Layer 1" xmlns="http://www.w3.org/2000/svg" viewBox="0 0 483.75 35.71"><defs><style>.bb498afe-2e17-4423-ba27-573387902dfb{fill:#3e342f;}</style></defs><path class="bb498afe-2e17-4423-ba27-573387902dfb" d="M326.66,12.31h1.65c.19,0,.42,0,.53-.16a.63.63,0,0,0,.08-.38l0-5.49c0-.31,0-.89-.27-1.09a1,1,0,0,0-.47-.1c-.55,0-1.11,0-1.66,0q-1.4,0-2.79.09a.36.36,0,0,0-.29.1.37.37,0,0,0,0,.23l.06,3.22a.6.6,0,0,0,.08.35.62.62,0,0,0,.4.2,2.62,2.62,0,0,0,.88.1.89.89,0,0,0,.71-.48,1.28,1.28,0,0,0,0-.75,1.48,1.48,0,0,1-.05-.75.49.49,0,0,1,.57-.37c.23.08.3.37.34.61a4.51,4.51,0,0,1,0,2.19.67.67,0,0,1-.2.32.81.81,0,0,1-.31.1c-.7.11-1.38,0-2.08.1-.4,0-1,.26-1.3-.1a.94.94,0,0,1-.16-.64l-.06-4.25a2.51,2.51,0,0,1,.07-.82.7.7,0,0,1,.27-.4,1,1,0,0,1,.44-.11,33.18,33.18,0,0,1,5.08-.16c.62,0,1.16,0,1.53.62a3.48,3.48,0,0,1,.3,1.78c.06,1.41,0,2.81-.09,4.22,0,.6-.07,1.21-.1,1.82,0,.36-.09.79-.42.92a1,1,0,0,1-.34.06l-1.94,0a1.48,1.48,0,0,1-.81-.13.59.59,0,0,1-.23-.33.39.39,0,0,1,.07-.38A.72.72,0,0,1,326.66,12.31Zm-126.78,4.6c-6.46.05-12.93-.16-19.39-.37a.7.7,0,0,1-.51-.15c-.28-.27,0-1,0-1.33,0-.66,0-1.32.05-2,0-1.32,0-2.64,0-3.95,0-2.67,0-5.34-.08-8,0-.83-.72-.91-1.42-.92-1.71,0-3.42-.07-5.14-.1L169.11,0l-2.4,0c-1.32,0-2.64.08-4,.2a1.08,1.08,0,0,0-.47.11c-.32.2-.34.64-.33,1,.09,3.56.08,7.11,0,10.67a1.41,1.41,0,0,0,.14.84c.25.42,1.2.28,1.63.31.73,0,1.46.08,2.2.1.56,0,1.13,0,1.7,0,.39,0,.77-.07,1.16-.11s.75-.15.82-.48a.3.3,0,0,0-.12-.32.56.56,0,0,0-.23-.05l-3.94-.07c-.41,0-.83,0-1.24,0a1.17,1.17,0,0,1-.66-.18c-.54-.39-.27-2.12-.25-2.71,0-2.33.11-4.67.17-7a.81.81,0,0,1,.16-.58.87.87,0,0,1,.59-.18l2.71-.08c1.05,0,2.1-.07,3.16-.08s2.25,0,3.38.05a27,27,0,0,1,3.37.08c.5.07,1.63,0,1.88.55a1.47,1.47,0,0,1,.1.63q0,4.56.08,9.13c0,.71,0,1.42,0,2.13,0,.49-.08,1-.13,1.45a1.55,1.55,0,0,1-.21.74c-.29.42-1.24.25-1.7.26-3.34.05-6.69.09-10,.11-2.79,0-5.6-.07-8.38.11l-2.57,0c-1.09,0-.79-1.67-.77-2.35,0-1.44.06-2.89.08-4.34,0-2.9.05-5.79,0-8.69a1,1,0,0,0-.09-.5.93.93,0,0,0-.64-.35,17,17,0,0,0-4.4-.2l-5.71.22c-3.41.14-6.82.27-10.23.23a1.73,1.73,0,0,0-.72.1c-.56.26-.63,1-.63,1.62l0,5.3c0,1.45.11,2.89,0,4.35,0,.43,0,.9.45,1.12a1.31,1.31,0,0,0,.59.1c3.07.06,6.14.11,9.21.12,1.54,0,3.07,0,4.61-.05a4.58,4.58,0,0,0,1.65-.11c.64-.26.72-1,.71-1.6q0-3.06,0-6.11a1.33,1.33,0,0,0-.16-.76,1.35,1.35,0,0,0-1.13-.37l-9,0c-.49,0-1.1.06-1.31.51a1.33,1.33,0,0,0-.1.48,28.81,28.81,0,0,0-.1,3.08c0,.91-.07,2.09,1.12,2.05,2.1-.08,4.2-.15,6.3-.25a.38.38,0,0,0,.33-.48c-.17-.39-.55-.4-.9-.41-1.16,0-2.31-.13-3.47,0a3.67,3.67,0,0,1-1.51-.07.46.46,0,0,1-.25-.15.51.51,0,0,1-.06-.3l.08-2.29a.92.92,0,0,1,.21-.67,1,1,0,0,1,.82-.09,16.4,16.4,0,0,0,3.57,0,18.24,18.24,0,0,1,3.69.19.75.75,0,0,1,.35.13.74.74,0,0,1,.19.55c.08,1.62.13,3.25.15,4.88a1,1,0,0,1,0,.38c-.26.62-1.87.35-2.38.34-1.86-.08-3.72-.23-5.58-.2a48.21,48.21,0,0,1-6,0,.79.79,0,0,1-.52-.17c-.31-.29-.28-1-.27-1.35L134,2.87a1,1,0,0,1,.33-.89,1,1,0,0,1,.46-.11,155.64,155.64,0,0,1,17.68-.34,1.24,1.24,0,0,1,.74.19,1.23,1.23,0,0,1,.3,1c0,2.42.07,4.84.1,7.26,0,1.22,0,2.45,0,3.67l0,1.8c0,.34.22,1-.13,1.19a2.15,2.15,0,0,1-1,.16c-.9,0-1.81,0-2.71,0-6.14,0-12.29-.28-18.45-.11-1.07,0-2.13.07-3.2.12a4.72,4.72,0,0,1-1.3-.07c-.25,0-.78,0-.94-.21s0-.63-.06-.87c0-.41,0-.81,0-1.22,0-1.15,0-2.3,0-3.45,0-1.5-.15-3-.08-4.51.07-1.64.09-3.28,0-4.93a1.06,1.06,0,0,0-.15-.63c-.22-.31-.8-.31-1.14-.38a9.37,9.37,0,0,0-1.75-.12c-1.16,0-2.31.19-3.47.2-.67,0-1.34,0-2-.05s-1.48,0-2.22,0l-8.68.11a.92.92,0,0,0-.76.26.88.88,0,0,0-.1.56q.18,5.58.37,11.18a2.16,2.16,0,0,0,.21,1c.29.52.86.4,1.34.34.7-.09,1.43-.09,2.14-.11,1.42,0,2.85,0,4.27.07l1.57.09c.92,0,1.84,0,2.76,0a1.35,1.35,0,0,0,.88-.28,1.36,1.36,0,0,0,.28-1c.05-1.52.05-3.05,0-4.57,0-.77,0-1.57,0-2.34,0-.39,0-1.22-.47-1.4a.88.88,0,0,0-.4,0l-7.16.24a1,1,0,0,0-.46.1.94.94,0,0,0-.35.76,29.94,29.94,0,0,0-.21,3.78.75.75,0,0,0,.12.49.74.74,0,0,0,.5.21,21.75,21.75,0,0,0,4.63.2c.35,0,.78-.14.81-.48a.5.5,0,0,0-.33-.48,1.39,1.39,0,0,0-.61-.07l-2.67,0a1.2,1.2,0,0,1-.91-.25,1.19,1.19,0,0,1-.19-.81,18.45,18.45,0,0,1,.1-2.1.38.38,0,0,1,.08-.23.45.45,0,0,1,.28-.09l5.17-.16a1,1,0,0,1,.6.1c.28.18.3.56.31.89,0,1.47,0,2.93,0,4.4,0,1,.24,2-1.12,2-3.06,0-6.11-.09-9.17-.2a1,1,0,0,1-.65-.17,1,1,0,0,1-.23-.74c-.08-1.85-.17-3.7-.25-5.55,0-.78-.08-1.55-.06-2.33A3.34,3.34,0,0,1,107,2.46a1.06,1.06,0,0,1,.84-.25h2.68c4.23,0,8.47-.06,12.71-.06a1.24,1.24,0,0,1,.58.09c.46.24.27,1.08.26,1.48,0,.6,0,1.21,0,1.81,0,1.23,0,2.47.09,3.71,0,1.09,0,2.18,0,3.27,0,.76,0,1.52,0,2.28,0,.45.2,1.61-.28,1.85a1.35,1.35,0,0,1-.6.09l-7.37,0-9.45,0h-4.73c-.78,0-1.57,0-2.36,0s-.94-.06-1-.82c0-2.05.07-4.1.07-6.14q0-3.87-.17-7.72a.65.65,0,0,0-.13-.43.62.62,0,0,0-.44-.12q-9.63-.16-19.25.05a.87.87,0,0,0-.65.21.82.82,0,0,0-.14.51c-.11,2.17-.07,4.34,0,6.5L77.81,12c0,.6-.26,2.4.38,2.74a1.37,1.37,0,0,0,.64.1c3.82,0,7.66,0,11.47,0,.91,0,1.1-.47,1.09-1.22,0-2.35,0-4.68,0-7a1.17,1.17,0,0,0-.26-1,1.17,1.17,0,0,0-.87-.19c-2.14.08-4.29.07-6.43,0a1.64,1.64,0,0,0-.7.07c-.56.23-.67,1-.69,1.59,0,1.24-.08,2.48-.11,3.72a1.2,1.2,0,0,0,.13.73,1.16,1.16,0,0,0,.95.34,27.24,27.24,0,0,0,3.5-.13.92.92,0,0,0,.43-.11c.61-.4-.08-1.06-.54-1.09s-.83.1-1.27.1a12.75,12.75,0,0,1-1.51-.09.45.45,0,0,1-.48-.5,19.73,19.73,0,0,1,0-2.55A.67.67,0,0,1,83.74,7a.68.68,0,0,1,.37-.09l3.17-.12c.57,0,2.51-.4,2.78.2a4,4,0,0,1,.06,1.25q0,.74,0,1.47c0,1-.06,2-.06,3a1.16,1.16,0,0,1-.22.82,1.16,1.16,0,0,1-.8.22c-3.16,0-6.32,0-9.48-.1-.56,0-.55-.5-.57-1-.09-2.7-.07-5.39,0-8.08q0-.58,0-1.17A1,1,0,0,1,79.08,3c.22-.36.83-.34,1.2-.4a10.13,10.13,0,0,1,1.56-.07c2.39,0,4.77.17,7.17,0a39.62,39.62,0,0,1,4.36,0,19.33,19.33,0,0,0,2.28.1c.39,0,.86-.2,1.22,0s.39.91.41,1.39c0,1.28.08,2.55.11,3.82a44.84,44.84,0,0,1,0,4.49c-.07.83-.08,1.65-.12,2.48s.09,1.69-.93,1.84a45.28,45.28,0,0,1-4.66.21c-3.12.1-6.25.12-9.37.09s-6,.22-9,.18c-.71,0-1.36-.17-1.48-1a16.19,16.19,0,0,1,0-2.09c0-.93,0-1.87,0-2.81,0-2.62,0-5.23,0-7.84,0-.53.11-1.5-.36-1.85a1.4,1.4,0,0,0-.84-.17c-3.8.06-7.6.18-11.4.29l-4.48.14a1.19,1.19,0,0,0-.56.1c-.39.22-.43.74-.43,1.18,0,2.28,0,4.56,0,6.83,0,1.42,0,2.85.08,4.27a1.12,1.12,0,0,0,1.27,1.23c1.06,0,2.11,0,3.17.06a52.68,52.68,0,0,0,6.53.06c1.3-.1,1.55-.92,1.53-2.13l-.12-7c0-1.41-1.67-1.15-2.67-1.14s-2.21.08-3.32,0c-.58,0-1.91-.19-2.29.4a1.26,1.26,0,0,0-.12.58c0,1-.06,2-.08,3a8.23,8.23,0,0,0,.07,1.79,1,1,0,0,0,.19.47,1.15,1.15,0,0,0,.81.31l2.58.3a2.15,2.15,0,0,0,1-.05A1.16,1.16,0,0,0,63,11c0-.6,0-1.2,0-1.82a1.52,1.52,0,0,0-.08-.7.54.54,0,0,0-.56-.34.57.57,0,0,0-.38.45,2.15,2.15,0,0,0,0,.62,4.25,4.25,0,0,1-.12,1.42.57.57,0,0,1-.15.31.62.62,0,0,1-.4.13,7.44,7.44,0,0,1-1.81-.24.77.77,0,0,1-.44-.19.8.8,0,0,1-.14-.53c0-.63,0-1.25,0-1.88,0-.37-.14-1.11.08-1.42a.9.9,0,0,1,.8-.24l1.55.07,2.51.11c.7,0,1,.22,1,1,.06,1.51.11,3,.07,4.54,0,.91.26,1.93-1,1.94-2.6,0-5.2,0-7.8,0a.88.88,0,0,1-.81-.41c-.08-1.93,0-3.86-.07-5.79,0-1-.09-2-.2-3,0-.5-.28-1.65.31-1.89a.93.93,0,0,1,.44,0c3.18.17,6.38-.26,9.55-.17A11.07,11.07,0,0,0,67,2.8c.4,0,.77,0,1.18,0s2.25-.24,2.28.35c0,1.44.1,2.88.13,4.33s-.09,2.61,0,3.92c0,1.62.1,3.24,0,4.86,0,.34-.09.74-.4.88a4.41,4.41,0,0,1-1.84.23c-.77,0-1.55,0-2.32,0-1.2,0-2.4,0-3.6,0q-6.41,0-12.8-.28a.91.91,0,0,1-.61-.17c-.41-.41-.27-1.35-.28-1.86,0-.84,0-1.69,0-2.54l0-5.07c0-.53,0-1,0-1.58l0-3.43a1.32,1.32,0,0,0-.11-.65c-.26-.48-.93-.28-1.36-.26-.71,0-1.44,0-2.15,0-2.07,0-4.13.08-6.2,0-2.6-.05-5.2,0-7.79.12a1.29,1.29,0,0,0-.78.2,1.26,1.26,0,0,0-.29,1q0,3.81.05,7.62c0,.68,0,1.36,0,2a1.33,1.33,0,0,0,.52,1.28,2,2,0,0,0,1,.17l4.71.1h.71l4.17.09c.23,0,.5,0,.62-.21a.65.65,0,0,0,.07-.34c.06-2.37-.15-4.74,0-7.11,0-.69-.42-1-1-1-1-.07-2,0-2.94,0s-1.85,0-2.78,0a1,1,0,0,0-.56.15,1,1,0,0,0-.28.76,35.62,35.62,0,0,0,0,4.26.68.68,0,0,0,.15.43.66.66,0,0,0,.39.11c.79,0,1.58.12,2.37.17a2.12,2.12,0,0,0,.94-.1.38.38,0,0,0,.16-.12.57.57,0,0,0,.09-.24,9,9,0,0,0,0-2.14A.79.79,0,0,0,38,8.32a.29.29,0,0,0-.36-.1.43.43,0,0,0-.14.21,3.29,3.29,0,0,0,0,.83.78.78,0,0,1-.32.72.89.89,0,0,1-.4.07c-.3,0-.6,0-.9,0a.84.84,0,0,1-.39-.1.86.86,0,0,1-.26-.75c0-.62,0-1.24,0-1.85a.54.54,0,0,1,.15-.45.52.52,0,0,1,.35-.08l2.34,0,1.55,0a1.14,1.14,0,0,1,.48.09c.48.25.38,1.63.36,2.07,0,1-.09,2.05-.13,3.07a.92.92,0,0,1-.1.44c-.19.28-.59.25-.92.19a43.84,43.84,0,0,0-7.25-.12.86.86,0,0,1-.69-.21.82.82,0,0,1-.14-.51C31.1,9,31.18,6.18,31.2,3.33c0-1.07.79-.69,1.57-.7l3.1,0,6-.09c1.55,0,3.1-.05,4.65,0a1,1,0,0,1,.69.22,1.08,1.08,0,0,1,.2.66A35,35,0,0,1,47.4,7c0,1.08.2,2.15.18,3.25l-.07,3c0,1.15-.09,2.31-.08,3.46a.43.43,0,0,1-.08.3.38.38,0,0,1-.25.09,13,13,0,0,1-1.87-.1c-.44,0-.88,0-1.32,0-6.46.05-12.92-.16-19.38-.37a.72.72,0,0,1-.52-.15c-.27-.27-.05-1,0-1.33l.06-2c0-1.32,0-2.64,0-3.95,0-2.67-.05-5.34-.09-8,0-.83-.72-.91-1.41-.92C20.86.2,19.14.13,17.43.1L13.15,0,10.74,0C9.42,0,8.1.08,6.78.2a1.08,1.08,0,0,0-.47.11C6,.51,6,1,6,1.32,6.07,4.88,6.07,8.43,6,12a1.49,1.49,0,0,0,.14.84c.25.42,1.21.28,1.63.31.73,0,1.47.08,2.2.1.57,0,1.14,0,1.7,0,.39,0,.77-.07,1.16-.11s.75-.15.82-.48a.29.29,0,0,0-.11-.32.6.6,0,0,0-.24-.05l-3.94-.07c-.41,0-.82,0-1.23,0A1.18,1.18,0,0,1,7.43,12c-.54-.39-.26-2.12-.25-2.71.06-2.33.12-4.67.17-7a.86.86,0,0,1,.16-.58.87.87,0,0,1,.59-.18l2.71-.08c1,0,2.11-.07,3.16-.08s2.26,0,3.38.05a27,27,0,0,1,3.37.08c.5.07,1.63,0,1.88.55a1.33,1.33,0,0,1,.1.63l.09,9.13c0,.71,0,1.42,0,2.13,0,.49-.08,1-.13,1.45a1.55,1.55,0,0,1-.21.74c-.3.42-1.25.25-1.71.26q-5,.07-10,.11c-3.17,0-6.37-.11-9.52.18A1.46,1.46,0,0,0,.2,17a.85.85,0,0,0-.15.84,1,1,0,0,0,.62.59,2.17,2.17,0,0,0,.84.08c1.61-.07,3.21-.11,4.82-.13,8.35-.09,16.68,0,25,.12.82,0,1,1.25,1.1,1.87a30.81,30.81,0,0,1,.15,3.46l.06,9.43c0,.26,0,.57-.25.7A.74.74,0,0,1,32,34c-5.41-.11-10.83.29-16.25.16a1.49,1.49,0,0,1-.88-.22c-.56-.42-.23-1.78-.2-2.36.06-1.09.08-2.17.08-3.26s0-2.27,0-3.4c0-.6,0-1.2,0-1.8,0-.34-.09-.94.23-1.17a1.08,1.08,0,0,1,.59-.15,84.61,84.61,0,0,1,10.8,0c.31,0,.65,0,.81.34a1.52,1.52,0,0,1,.1.63c0,1.93,0,3.89.11,5.81a.74.74,0,0,1-.21.69.84.84,0,0,1-.36.1,39.8,39.8,0,0,1-6.46.22,1.25,1.25,0,0,1-.57-.13c-.54-.31-.3-1.9-.32-2.47a14.39,14.39,0,0,1,0-2,.55.55,0,0,1,.12-.33.58.58,0,0,1,.35-.1l2-.13a.38.38,0,0,1,.33.08.34.34,0,0,1,.08.26L22.41,26a1.31,1.31,0,0,0,.16.68.5.5,0,0,0,.6.23c.22-.12.26-.42.27-.67l.09-2.07a.7.7,0,0,0-.15-.59.68.68,0,0,0-.46-.11l-3.78,0a.74.74,0,0,0-.62.2.71.71,0,0,0-.08.38l-.15,5.05a2.22,2.22,0,0,0,.13,1c.23.51.89.61,1.39.62,1.38,0,2.75,0,4.13,0H26c.59,0,1.16-.16,1.75-.13.25,0,.54,0,.69-.16a.79.79,0,0,0,.1-.34,16.83,16.83,0,0,0,0-2.84,49.2,49.2,0,0,1-.09-5.43c0-.44.05-1-.31-1.23a1.28,1.28,0,0,0-.61-.18c-2.05-.21-4.11-.15-6.18-.16l-6.28,0c-1,0-1.83.05-1.83,1.24,0,4,.1,7.9-.07,11.84,0,.61-.08,1.92.61,2.19a1.36,1.36,0,0,0,.45.06c6.32.17,12.66.17,19,0,.22,0,.48,0,.58-.22a.58.58,0,0,0,.06-.26c.2-2.36,0-4.84.07-7.22,0-1.58-.06-3.17-.12-4.76,0-.81-.06-1.62-.06-2.43,0-.47-.16-1.6.38-1.87a1.62,1.62,0,0,1,.62-.11l1,0c3-.05,6.08.09,9.12,0s6.19,0,9.28,0a20.74,20.74,0,0,1,2.09.11c.21,0,.42,0,.63,0a.75.75,0,0,1,.55.23,1,1,0,0,1,.14.62c0,2,.14,4,.29,6,.09,1.12.15,2.23.2,3.35.05.75.08,1.5.11,2.26,0,.47.27,1.71-.22,2a.69.69,0,0,1-.35.07c-5.52.28-11,.36-16.58.21a.22.22,0,0,1-.19-.07.21.21,0,0,1,0-.12c-.26-3.17-.43-6.36-.53-9.54a1,1,0,0,1,.25-.83,1,1,0,0,1,.47-.14,68.38,68.38,0,0,1,8.32-.64q.95,0,1.89.06c.4,0,1,0,1.24.39a1.38,1.38,0,0,1,.13.53c.12,1.21.18,2.42.22,3.63a16.68,16.68,0,0,1,0,1.87c-.06.47-.31.59-.8.62a39.65,39.65,0,0,1-5.56-.09.65.65,0,0,1-.31-.08.62.62,0,0,1-.22-.43,12.1,12.1,0,0,1-.17-3.18.28.28,0,0,1,0-.18.32.32,0,0,1,.27-.09l2.66-.06c.25,0,.51,0,.76,0a.39.39,0,0,1,.3.09.32.32,0,0,1,.07.23c.06.58.11,1.16.16,1.74,0,.19.07.42.25.47a.31.31,0,0,0,.34-.17.9.9,0,0,0,.09-.4c0-.69.33-2.45-.36-2.83a4.05,4.05,0,0,0-2.16-.14c-.71,0-1.41.13-2.13.11a3.86,3.86,0,0,0-1,0,.67.67,0,0,0-.23.1.62.62,0,0,0-.18.35,10.43,10.43,0,0,0,0,2.09,21.44,21.44,0,0,0,.05,2.27,1.41,1.41,0,0,0,.47,1.11,1.52,1.52,0,0,0,.7.15c1.4.05,2.81.06,4.21,0,.72,0,1.43-.06,2.15-.1.43,0,1.16.1,1.53-.16s.24-1.07.22-1.51c0-.68-.07-1.37-.11-2.06-.08-1.37-.17-2.74-.27-4.12a2.83,2.83,0,0,0-.23-1.08.6.6,0,0,0-.2-.22.58.58,0,0,0-.29-.05A115.06,115.06,0,0,0,40,21.6a.93.93,0,0,0-.7.28.84.84,0,0,0-.11.41,41.2,41.2,0,0,0,.15,6q.15,2.88.29,5.76a1.32,1.32,0,0,0,.09.48c.19.38.7.44,1.12.45q8.93.24,17.84-.3a.94.94,0,0,0,.52-.13c.37-.26.21-.81.21-1.2,0-.59,0-1.19,0-1.78q0-1.83-.12-3.66c-.1-2.41-.24-4.81-.3-7.22,0-.65,0-1.56.77-1.63s1.8,0,2.68,0l4-.05c2.57,0,5.14-.1,7.71-.1,1.33,0,2.64.08,4,.09s2.69-.05,4,0a.68.68,0,0,1,.47.15.64.64,0,0,1,.12.38c.26,2.16.34,4.33.39,6.51,0,1.11,0,2.23.06,3.35,0,.56,0,1.12,0,1.68,0,.31.2.94-.07,1.17a1,1,0,0,1-.54.19,23.15,23.15,0,0,1-3.22.16l-12.17.06a.59.59,0,0,1-.39-.1.56.56,0,0,1-.14-.4q-.27-3.79-.28-7.61a1.63,1.63,0,0,1,.27-1.11c.43-.5,1.17-.34,1.75-.36.84,0,1.69-.08,2.53-.12,1.7-.08,3.39-.14,5.08-.2s1.4,2.19,1.47,3.33a15.15,15.15,0,0,1,0,2,.92.92,0,0,1-.14.46c-.2.23-1.07.13-1.37.13-.68,0-1.36-.05-2,0-.44,0-1.76.21-2-.24a1.32,1.32,0,0,1-.12-.66,11.31,11.31,0,0,1,.06-1.3.48.48,0,0,1,.08-.27.51.51,0,0,1,.36-.15,12.48,12.48,0,0,1,2.2-.11,1.08,1.08,0,0,0,.85-.18.54.54,0,0,0-.15-.84.93.93,0,0,0-.47-.06l-3.19.09c-.24,0-.53,0-.66.24a.73.73,0,0,0-.09.41c0,1.21,0,2.41,0,3.61a.83.83,0,0,0,.17.56.84.84,0,0,0,.64.18h6.14a1.43,1.43,0,0,0,.8-.16c.49-.33.2-1.58.17-2.05,0-.85-.07-1.69-.11-2.54,0-.63-.08-1.27-.07-1.9a1.32,1.32,0,0,0-.7-1.37,2.35,2.35,0,0,0-.79-.14,51.43,51.43,0,0,0-5.69,0c-1.75.08-3.51.05-5.27.22-.25,0-.47,0-.59.27a1.14,1.14,0,0,0-.09.48q-.11,3.06,0,6.12c0,1,.05,2,.09,3,0,.66-.17,1.51.45,2a2.36,2.36,0,0,0,1.46.21l2.34-.08c1.56,0,3.13-.09,4.69-.12,3.12-.05,6.25-.06,9.37,0a1.08,1.08,0,0,0,.62-.1c.47-.25.21-2,.19-2.48,0-1.15-.06-2.31-.09-3.46-.08-2.74-.2-5.47-.25-8.21a.72.72,0,0,1,.16-.56.65.65,0,0,1,.46-.12l15.25-.42,5.29-.14c.51,0,1,0,1.53,0s1,.06,1.21.48a3.09,3.09,0,0,1,0,1c0,.63,0,1.25.08,1.87.06,1.28.14,2.56.23,3.83s.09,2.4.07,3.59c0,.56,0,1.12,0,1.68s0,1.31-.75,1.31c-2.57,0-5.14.09-7.72.09-1.21,0-2.43,0-3.64.06l-1.87,0c-.46,0-1,.1-1.2-.4a2.08,2.08,0,0,1-.12-.79c0-1.26,0-2.52,0-3.78,0-1.44,0-2.89,0-4.33a.48.48,0,0,1,.11-.37.43.43,0,0,1,.24-.08c1.52-.21,3-.37,4.58-.49.6,0,1.2-.08,1.8-.07.94,0,1.88.11,2.82,0,.3,0,.67,0,.82.24a.88.88,0,0,1,.07.33l.27,3.43c0,.47.51,2.46-.27,2.47l-5.13.07a.8.8,0,0,1-1.06-.84c-.06-.53-.1-1.06-.13-1.59a.57.57,0,0,1,.15-.51.52.52,0,0,1,.28-.06l3-.14a1.53,1.53,0,0,0,.68-.13.52.52,0,0,0,.27-.58c-.1-.28-.45-.34-.75-.35a31.76,31.76,0,0,0-4.36.13.53.53,0,0,0-.32.1.58.58,0,0,0-.12.47c0,1.21.07,2.43.11,3.65a1.2,1.2,0,0,0,.07.42,1.06,1.06,0,0,0,.88.45c1.1.13,2.23,0,3.34,0s2.3,0,3.44,0,1.32-.28,1.27-1.31c-.1-2.29-.33-4.57-.33-6.87a1.07,1.07,0,0,0-.1-.53c-.2-.35-.69-.39-1.09-.37-3.76.1-7.51.65-11.28.56-.22,0-.48,0-.6.18a.75.75,0,0,0-.09.39c0,1.5,0,3,0,4.5s.09,3.14.15,4.71c0,.56-.21,2.12.33,2.49a1,1,0,0,0,.5.11c2.82.13,5.65.18,8.47.15,1.47,0,2.94,0,4.4-.08l3.21-.07c.38,0,.82,0,1-.38s0-1,0-1.37,0-1.07,0-1.61c0-1.23,0-2.46-.08-3.68l-.21-7.27c0-1.1,1.52-.74,2.24-.75l3.48,0,6.77-.06,7.37-.06,3.68,0a10.45,10.45,0,0,1,3.4.11,58,58,0,0,1,.1,7c0,1.18-.06,2.35-.06,3.53,0,.59,0,1.17,0,1.76s.25,1.13-.39,1.26a12.17,12.17,0,0,1-2.26,0h-4.52q-4.57,0-9.15-.08a2.15,2.15,0,0,1-.8-.11c-.64-.27-.46-1.11-.49-1.68,0-.81-.09-1.63-.11-2.44-.06-1.74-.13-3.51,0-5.24a.41.41,0,0,1,.1-.29.44.44,0,0,1,.23-.06l5.75-.31a37.66,37.66,0,0,1,5.72,0,1.13,1.13,0,0,1,1,.44,1.24,1.24,0,0,1,.09.48c.08,1.48.11,3,.1,4.44a.53.53,0,0,1-.12.41.51.51,0,0,1-.35.08l-2.8,0c-.8,0-1.59,0-2.39,0-.33,0-1.61.11-1.81-.19a.91.91,0,0,1-.11-.49v-1a1,1,0,0,1,.18-.73,1,1,0,0,1,.74-.21c1.05,0,2.1,0,3.15,0a1.57,1.57,0,0,0,.75-.09.53.53,0,0,0,.31-.62c-.11-.28-.46-.33-.75-.35l-2.83-.16-2.17-.13c-.31,0-.68,0-.83.26a.86.86,0,0,0-.08.45l0,2.55c0,.46-.2,1.61.34,1.87a.93.93,0,0,0,.29.05l8.58.23c.68,0,1.18-.16,1.22-.88s0-1.62-.05-2.43c0-1.34,0-2.68,0-4a1.16,1.16,0,0,0-.3-.92,1.06,1.06,0,0,0-.63-.16l-3.81-.18a45.09,45.09,0,0,0-6,0,22.44,22.44,0,0,1-2.84.18,3.8,3.8,0,0,0-1,0,1,1,0,0,0-.77.59,1.36,1.36,0,0,0-.06.45c0,1.7-.06,3.38-.07,5.08a29.63,29.63,0,0,0,.22,5.65.83.83,0,0,0,.2.49.91.91,0,0,0,.56.18c.8.06,1.6.06,2.4,0h5.67c2.8,0,5.57,0,8.36,0a22.58,22.58,0,0,0,2.6,0c.67-.08.55-.74.55-1.23V25.9c0-1.38,0-2.76,0-4.14,0-.84,0-1.68,0-2.52,0-.33-.07-.78.21-1a1.76,1.76,0,0,1,1-.16h.37c7.54.18,15.17.37,22.7.28h.84l0,0a.78.78,0,0,1,.13.47c.08,1.9.17,3.81.15,5.7,0,2.35-.07,4.7-.1,7,0,.14,0,.3-.12.37A.39.39,0,0,1,163,32l-10,0a39,39,0,0,1-5.4-.26.83.83,0,0,1-.47-.16c-.28-.23-.13-1.26-.14-1.58,0-.76,0-1.51,0-2.27,0-1.51,0-3,0-4.53a.39.39,0,0,1,.1-.32.36.36,0,0,1,.23-.06q4.86-.35,9.74-.43a.89.89,0,0,1,.28,0c.26.1.32.44.34.73.1,1.36.2,2.73.29,4.1,0,.22,0,.5-.2.58a.44.44,0,0,1-.2,0l-5.13.15a.61.61,0,0,1-.8-.65l-.06-.81a.58.58,0,0,1,.09-.43.53.53,0,0,1,.43-.13l2.68,0c.39,0,1.56.13,1.63-.49a.46.46,0,0,0-.29-.43,1.19,1.19,0,0,0-.53-.09l-4.48-.13a.91.91,0,0,0-.67.15c-.25.24-.2.78-.19,1.1a21.9,21.9,0,0,0,0,2.43.77.77,0,0,0,1,.77l7.4.05a1,1,0,0,0,.49-.08.86.86,0,0,0,.32-.85c-.11-1.06,0-2.14-.07-3.22s-.08-2.37-.16-3.55a.8.8,0,0,0-.12-.43.77.77,0,0,0-.55-.23,48.12,48.12,0,0,0-7-.1L146,21a1,1,0,0,0-.38.05c-.43.17-.49.74-.49,1.21,0,1,0,2.09,0,3.14s0,2.27.05,3.41,0,2.49,0,3.73a.85.85,0,0,0,.12.5.78.78,0,0,0,.55.24,27.57,27.57,0,0,0,4.45.19c2.39,0,4.79,0,7.19,0,1.64,0,3.27-.05,4.91-.09l1.3,0a2.69,2.69,0,0,0,.8,0c.53-.23.31-1.23.31-1.67,0-.79,0-1.59,0-2.38,0-1.53,0-3.05,0-4.58,0-1.81-.12-3.62-.13-5.43a2.88,2.88,0,0,1,.11-1c7.48-.06,15,0,22.45.13.82,0,1,1.25,1.1,1.87a30.8,30.8,0,0,1,.14,3.46l.06,9.43c0,.26,0,.57-.24.7A.76.76,0,0,1,188,34c-5.42-.11-10.83.29-16.25.16a1.47,1.47,0,0,1-.88-.22c-.56-.42-.23-1.78-.2-2.36.06-1.09.08-2.17.08-3.26s0-2.27,0-3.4c0-.6,0-1.2,0-1.8,0-.34-.09-.94.24-1.17a1.07,1.07,0,0,1,.58-.15,84.61,84.61,0,0,1,10.8,0c.32,0,.66,0,.82.34a1.7,1.7,0,0,1,.1.63c0,1.93,0,3.89.1,5.81a.76.76,0,0,1-.2.69.88.88,0,0,1-.36.1,39.8,39.8,0,0,1-6.46.22,1.22,1.22,0,0,1-.57-.13c-.55-.31-.3-1.9-.32-2.47a13,13,0,0,1,0-2,.5.5,0,0,1,.12-.33.57.57,0,0,1,.34-.1l2-.13a.39.39,0,0,1,.33.08.45.45,0,0,1,.08.26l.08,1.19a1.55,1.55,0,0,0,.16.68.52.52,0,0,0,.61.23c.22-.12.26-.42.27-.67l.09-2.07a.68.68,0,0,0-.16-.59.64.64,0,0,0-.45-.11l-3.79,0c-.22,0-.49,0-.61.2a.71.71,0,0,0-.08.38l-.15,5.05a2.35,2.35,0,0,0,.12,1c.24.51.89.61,1.4.62,1.37,0,2.75,0,4.13,0H182c.59,0,1.16-.16,1.76-.13.24,0,.53,0,.68-.16a.8.8,0,0,0,.11-.34,18,18,0,0,0,0-2.84,49.2,49.2,0,0,1-.09-5.43c0-.44,0-1-.31-1.23a1.31,1.31,0,0,0-.61-.18c-2-.21-4.12-.15-6.18-.16l-6.28,0c-1,0-1.83.05-1.83,1.24,0,4,.1,7.9-.07,11.84,0,.61-.09,1.92.61,2.19a1.3,1.3,0,0,0,.44.06q9.5.26,19,0a.63.63,0,0,0,.58-.22.76.76,0,0,0,.06-.26c.2-2.36,0-4.84.07-7.22,0-1.58-.06-3.17-.12-4.76q-.06-1.21-.06-2.43c0-.47-.16-1.6.38-1.87a1.61,1.61,0,0,1,.61-.11l1,0c3-.05,6.08.09,9.11,0s6.19,0,9.29,0a20.74,20.74,0,0,1,2.09.11c.21,0,.41,0,.62,0a.75.75,0,0,1,.56.23,1,1,0,0,1,.13.62c0,2,.15,4,.3,6,.08,1.12.14,2.23.2,3.35,0,.75.08,1.5.11,2.26,0,.47.27,1.71-.22,2a.71.71,0,0,1-.35.07c-5.52.28-11.06.36-16.58.21a.22.22,0,0,1-.19-.07s0-.07,0-.12c-.25-3.17-.43-6.36-.52-9.54a1,1,0,0,1,.25-.83.93.93,0,0,1,.47-.14,68.07,68.07,0,0,1,8.32-.64c.63,0,1.26,0,1.88.06.41,0,1,0,1.25.39a1.38,1.38,0,0,1,.13.53c.12,1.21.18,2.42.21,3.63a13,13,0,0,1,0,1.87c-.05.47-.3.59-.8.62a39.7,39.7,0,0,1-5.56-.09.68.68,0,0,1-.31-.08.71.71,0,0,1-.22-.43,13,13,0,0,1-.17-3.18.37.37,0,0,1,.05-.18.32.32,0,0,1,.27-.09l2.66-.06c.25,0,.5,0,.76,0a.39.39,0,0,1,.3.09.45.45,0,0,1,.07.23c0,.58.11,1.16.16,1.74,0,.19.07.42.25.47a.32.32,0,0,0,.34-.17.9.9,0,0,0,.09-.4c0-.69.32-2.45-.36-2.83a4.06,4.06,0,0,0-2.16-.14c-.71,0-1.41.13-2.13.11a3.85,3.85,0,0,0-1,0,.54.54,0,0,0-.23.1.57.57,0,0,0-.18.35,9.74,9.74,0,0,0,0,2.09c0,.76,0,1.52,0,2.27a1.42,1.42,0,0,0,.48,1.11,1.49,1.49,0,0,0,.7.15c1.4.05,2.8.06,4.21,0,.71,0,1.43-.06,2.15-.1.43,0,1.15.1,1.52-.16s.25-1.07.22-1.51c0-.68-.06-1.37-.1-2.06-.08-1.37-.17-2.74-.27-4.12a2.66,2.66,0,0,0-.24-1.08.5.5,0,0,0-.19-.22.61.61,0,0,0-.3-.05A115.2,115.2,0,0,0,196,21.6a1,1,0,0,0-.7.28,1,1,0,0,0-.11.41,41.2,41.2,0,0,0,.16,6c.1,1.92.19,3.84.29,5.76a1,1,0,0,0,.09.48c.19.38.69.44,1.12.45q8.92.24,17.84-.3a.94.94,0,0,0,.52-.13c.37-.26.2-.81.2-1.2,0-.59,0-1.19,0-1.78,0-1.22-.07-2.44-.12-3.66-.11-2.41-.25-4.81-.31-7.22,0-.65,0-1.56.78-1.63s1.8,0,2.68,0l4-.05c2.57,0,5.14-.1,7.71-.1,1.32,0,2.64.08,4,.09s2.7-.05,4,0a.7.7,0,0,1,.47.15.71.71,0,0,1,.12.38c.25,2.16.34,4.33.39,6.51l.06,3.35c0,.56,0,1.12,0,1.68,0,.31.2.94-.07,1.17a1,1,0,0,1-.55.19,23,23,0,0,1-3.22.16l-12.16.06a.57.57,0,0,1-.39-.1.56.56,0,0,1-.14-.4q-.27-3.79-.29-7.61a1.68,1.68,0,0,1,.27-1.11c.43-.5,1.18-.34,1.75-.36.85,0,1.69-.08,2.54-.12,1.69-.08,3.39-.14,5.08-.2s1.4,2.19,1.46,3.33a13.64,13.64,0,0,1,0,2,.76.76,0,0,1-.14.46c-.19.23-1.06.13-1.37.13-.68,0-1.36-.05-2,0-.44,0-1.76.21-2-.24a1.23,1.23,0,0,1-.13-.66,11.33,11.33,0,0,1,.07-1.3.48.48,0,0,1,.08-.27.49.49,0,0,1,.35-.15,12.55,12.55,0,0,1,2.21-.11,1.05,1.05,0,0,0,.84-.18.54.54,0,0,0-.14-.84,1,1,0,0,0-.48-.06l-3.18.09a.58.58,0,0,0-.75.65c0,1.21,0,2.41,0,3.61a.88.88,0,0,0,.16.56.86.86,0,0,0,.65.18h6.14a1.44,1.44,0,0,0,.8-.16c.48-.33.19-1.58.17-2.05,0-.85-.08-1.69-.11-2.54,0-.63-.08-1.27-.08-1.9a1.32,1.32,0,0,0-.69-1.37,2.35,2.35,0,0,0-.79-.14,51.43,51.43,0,0,0-5.69,0c-1.75.08-3.51.05-5.28.22-.24,0-.46,0-.59.27a1.13,1.13,0,0,0-.08.48c-.07,2-.08,4.08,0,6.12,0,1,0,2,.1,3,0,.66-.18,1.51.45,2a2.33,2.33,0,0,0,1.45.21l2.35-.08c1.56,0,3.12-.09,4.69-.12,3.12-.05,6.25-.06,9.37,0a1.1,1.1,0,0,0,.62-.1c.46-.25.2-2,.19-2.48l-.09-3.46c-.08-2.74-.2-5.47-.25-8.21a.69.69,0,0,1,.16-.56.64.64,0,0,1,.45-.12l15.25-.42,5.3-.14c.51,0,1,0,1.53,0s1,.06,1.2.48a2.81,2.81,0,0,1,0,1c0,.63.05,1.25.07,1.87.07,1.28.14,2.56.24,3.83s.09,2.4.07,3.59c0,.56,0,1.12,0,1.68s0,1.31-.75,1.31c-2.57,0-5.15.09-7.72.09-1.22,0-2.43,0-3.65.06l-1.86,0c-.46,0-1,.1-1.2-.4a1.9,1.9,0,0,1-.12-.79c0-1.26,0-2.52,0-3.78,0-1.44,0-2.89,0-4.33a.45.45,0,0,1,.11-.37.38.38,0,0,1,.24-.08c1.52-.21,3.05-.37,4.58-.49.6,0,1.19-.08,1.79-.07.94,0,1.88.11,2.82,0,.3,0,.67,0,.82.24a.73.73,0,0,1,.08.33l.27,3.43c0,.47.51,2.46-.28,2.47l-5.13.07a1.06,1.06,0,0,1-.87-.25,1.18,1.18,0,0,1-.19-.59q-.07-.79-.12-1.59a.54.54,0,0,1,.14-.51.56.56,0,0,1,.29-.06l3-.14a1.51,1.51,0,0,0,.67-.13.54.54,0,0,0,.28-.58c-.1-.28-.46-.34-.75-.35a31.76,31.76,0,0,0-4.36.13.53.53,0,0,0-.32.1.59.59,0,0,0-.13.47l.12,3.65a1,1,0,0,0,.07.42,1,1,0,0,0,.88.45c1.1.13,2.23,0,3.34,0s2.29,0,3.44,0,1.32-.28,1.27-1.31c-.1-2.29-.33-4.57-.33-6.87a1.2,1.2,0,0,0-.11-.53c-.2-.35-.68-.39-1.08-.37-3.77.1-7.52.65-11.28.56a.69.69,0,0,0-.61.18.74.74,0,0,0-.08.39c0,1.5,0,3,0,4.5s.09,3.14.14,4.71c0,.56-.21,2.12.34,2.49a1,1,0,0,0,.49.11c2.83.13,5.65.18,8.48.15,1.47,0,2.93,0,4.4-.08l3.2-.07c.38,0,.83,0,1-.38s0-1,0-1.37,0-1.07,0-1.61c0-1.23,0-2.46-.08-3.68-.06-2.43-.14-4.85-.2-7.27,0-1.1,1.51-.74,2.23-.75l3.49,0,6.77-.06,7.36-.06,3.68,0a10.44,10.44,0,0,1,3.4.11,58,58,0,0,1,.11,7c0,1.18-.06,2.35-.06,3.53,0,.59,0,1.17,0,1.76s.25,1.13-.38,1.26a12.18,12.18,0,0,1-2.26,0h-4.53c-3,0-6.09,0-9.14-.08a2.15,2.15,0,0,1-.8-.11c-.64-.27-.46-1.11-.5-1.68,0-.81-.08-1.63-.11-2.44-.05-1.74-.12-3.51,0-5.24a.4.4,0,0,1,.09-.29.46.46,0,0,1,.23-.06l5.76-.31a37.66,37.66,0,0,1,5.72,0,1.11,1.11,0,0,1,.94.44,1.09,1.09,0,0,1,.1.48c.07,1.48.11,3,.1,4.44a.53.53,0,0,1-.12.41.52.52,0,0,1-.35.08l-2.8,0c-.8,0-1.6,0-2.39,0-.34,0-1.61.11-1.82-.19a.9.9,0,0,1-.1-.49c0-.33,0-.65,0-1a1,1,0,0,1,.17-.73,1,1,0,0,1,.75-.21c1,0,2.1,0,3.15,0a1.59,1.59,0,0,0,.75-.09.53.53,0,0,0,.31-.62c-.11-.28-.46-.33-.75-.35l-2.83-.16-2.18-.13c-.3,0-.67,0-.83.26a.86.86,0,0,0-.08.45c0,.85,0,1.7,0,2.55,0,.46-.21,1.61.34,1.87a.93.93,0,0,0,.29.05l8.57.23c.68,0,1.18-.16,1.23-.88s-.05-1.62-.06-2.43c0-1.34,0-2.68,0-4a1.09,1.09,0,0,0-.3-.92,1,1,0,0,0-.63-.16l-3.81-.18a44.94,44.94,0,0,0-6,0,22.56,22.56,0,0,1-2.84.18,3.79,3.79,0,0,0-1,0,1,1,0,0,0-.78.59,1.68,1.68,0,0,0-.06.45c0,1.7-.06,3.38-.06,5.08a30.47,30.47,0,0,0,.21,5.65.91.91,0,0,0,.21.49.89.89,0,0,0,.56.18c.79.06,1.6.06,2.4,0h5.67c2.79,0,5.57,0,8.36,0a22.41,22.41,0,0,0,2.59,0c.67-.08.56-.74.56-1.23V25.9c0-1.38,0-2.76,0-4.14q0-1.26,0-2.52c0-.33-.07-.78.21-1s.73-.16,1-.16h.37c7.54.18,15.17.37,22.7.28h.84l0,0a.77.77,0,0,1,.12.47c.09,1.9.18,3.81.15,5.7l-.09,7c0,.14,0,.3-.12.37a.4.4,0,0,1-.26.06l-10,0a39.06,39.06,0,0,1-5.41-.26.88.88,0,0,1-.47-.16c-.27-.23-.12-1.26-.13-1.58,0-.76,0-1.51,0-2.27q0-2.27,0-4.53a.39.39,0,0,1,.1-.32.38.38,0,0,1,.23-.06q4.88-.35,9.75-.43a.89.89,0,0,1,.28,0c.26.1.32.44.34.73.1,1.36.19,2.73.29,4.1,0,.22,0,.5-.21.58a.4.4,0,0,1-.19,0l-5.14.15a.81.81,0,0,1-.66-.18.85.85,0,0,1-.13-.47l-.06-.81a.57.57,0,0,1,.08-.43.56.56,0,0,1,.44-.13l2.68,0c.39,0,1.56.13,1.62-.49a.45.45,0,0,0-.28-.43,1.23,1.23,0,0,0-.54-.09l-4.47-.13a.9.9,0,0,0-.67.15c-.26.24-.2.78-.19,1.1a21.9,21.9,0,0,0,.05,2.43,1,1,0,0,0,.21.56,1,1,0,0,0,.76.21l7.41.05a1,1,0,0,0,.49-.08.85.85,0,0,0,.31-.85c-.1-1.06,0-2.14-.06-3.22s-.08-2.37-.17-3.55a.59.59,0,0,0-.67-.66,48.08,48.08,0,0,0-7-.1L302,21a1,1,0,0,0-.38.05c-.43.17-.5.74-.49,1.21,0,1,0,2.09,0,3.14l.06,3.41.05,3.73a.84.84,0,0,0,.11.5.8.8,0,0,0,.56.24,27.5,27.5,0,0,0,4.44.19c2.4,0,4.8,0,7.19,0,1.64,0,3.28-.05,4.92-.09l1.29,0a2.69,2.69,0,0,0,.8,0c.53-.23.32-1.23.32-1.67V29.36c0-1.53,0-3.05,0-4.58,0-1.81-.12-3.62-.12-5.43a3.21,3.21,0,0,1,.1-1c7.49-.06,15,0,22.46.13.82,0,1,1.25,1.09,1.87a30.81,30.81,0,0,1,.15,3.46l.06,9.43c0,.26,0,.57-.24.7a.79.79,0,0,1-.43.08c-5.41-.11-10.83.29-16.24.16a1.52,1.52,0,0,1-.89-.22c-.55-.42-.23-1.78-.2-2.36.06-1.09.08-2.17.08-3.26s0-2.27,0-3.4c0-.6,0-1.2,0-1.8,0-.34-.09-.94.24-1.17a1,1,0,0,1,.58-.15,84.61,84.61,0,0,1,10.8,0c.31,0,.65,0,.81.34a1.37,1.37,0,0,1,.1.63c0,1.93,0,3.89.11,5.81a.74.74,0,0,1-.21.69.83.83,0,0,1-.35.1,39.88,39.88,0,0,1-6.46.22,1.29,1.29,0,0,1-.58-.13c-.54-.31-.3-1.9-.31-2.47a13,13,0,0,1,0-2,.63.63,0,0,1,.12-.33.6.6,0,0,1,.35-.1l2-.13a.4.4,0,0,1,.34.08.38.38,0,0,1,.07.26l.09,1.19a1.31,1.31,0,0,0,.16.68.5.5,0,0,0,.6.23c.23-.12.27-.42.28-.67l.09-2.07a.71.71,0,0,0-.16-.59.65.65,0,0,0-.45-.11l-3.79,0a.74.74,0,0,0-.62.2.81.81,0,0,0-.08.38l-.15,5.05a2.36,2.36,0,0,0,.13,1c.23.51.89.61,1.39.62l4.13,0h2.07c.59,0,1.16-.16,1.75-.13.25,0,.54,0,.69-.16a.67.67,0,0,0,.1-.34,18,18,0,0,0,0-2.84,49.2,49.2,0,0,1-.1-5.43c0-.44.05-1-.31-1.23a1.25,1.25,0,0,0-.61-.18c-2.05-.21-4.11-.15-6.17-.16s-4.19,0-6.29,0c-1,0-1.83.05-1.82,1.24,0,4,.09,7.9-.07,11.84,0,.61-.09,1.92.61,2.19a1.3,1.3,0,0,0,.44.06q9.49.26,19,0c.22,0,.48,0,.58-.22a.48.48,0,0,0,.06-.26c.2-2.36,0-4.84.07-7.22,0-1.58-.06-3.17-.12-4.76,0-.81-.06-1.62-.06-2.43,0-.47-.15-1.6.39-1.87a1.54,1.54,0,0,1,.61-.11l1,0c3.05-.05,6.09.09,9.12,0s6.19,0,9.28,0a20.79,20.79,0,0,1,2.1.11c.2,0,.41,0,.62,0a.75.75,0,0,1,.55.23,1,1,0,0,1,.14.62c0,2,.14,4,.29,6,.09,1.12.15,2.23.21,3.35,0,.75.08,1.5.1,2.26,0,.47.28,1.71-.21,2a.75.75,0,0,1-.36.07c-5.52.28-11.05.36-16.58.21a.22.22,0,0,1-.19-.07.21.21,0,0,1,0-.12c-.26-3.17-.43-6.36-.52-9.54a.71.71,0,0,1,.71-1,68.38,68.38,0,0,1,8.32-.64q.94,0,1.89.06c.41,0,1,0,1.25.39a1.38,1.38,0,0,1,.13.53c.12,1.21.17,2.42.21,3.63a13,13,0,0,1,0,1.87c0,.47-.31.59-.8.62a39.7,39.7,0,0,1-5.56-.09.65.65,0,0,1-.31-.08.62.62,0,0,1-.22-.43,12.1,12.1,0,0,1-.17-3.18.37.37,0,0,1,0-.18.32.32,0,0,1,.27-.09l2.66-.06c.26,0,.51,0,.76,0a.41.41,0,0,1,.31.09.36.36,0,0,1,.06.23c.06.58.11,1.16.17,1.74,0,.19.06.42.24.47a.32.32,0,0,0,.35-.17.9.9,0,0,0,.08-.4c0-.69.33-2.45-.36-2.83a4,4,0,0,0-2.16-.14c-.71,0-1.41.13-2.13.11a3.86,3.86,0,0,0-1,0,.67.67,0,0,0-.23.1.56.56,0,0,0-.17.35,10.43,10.43,0,0,0,0,2.09c0,.76,0,1.52.05,2.27a1.39,1.39,0,0,0,.48,1.11,1.45,1.45,0,0,0,.69.15c1.41.05,2.81.06,4.21,0,.72,0,1.44-.06,2.15-.1.43,0,1.16.1,1.53-.16s.24-1.07.22-1.51c0-.68-.07-1.37-.11-2.06-.08-1.37-.17-2.74-.27-4.12a2.65,2.65,0,0,0-.23-1.08.6.6,0,0,0-.2-.22.58.58,0,0,0-.29-.05A115.2,115.2,0,0,0,352,21.6a1,1,0,0,0-.7.28.84.84,0,0,0-.11.41,39.83,39.83,0,0,0,.16,6c.09,1.92.19,3.84.28,5.76a1.32,1.32,0,0,0,.09.48c.19.38.7.44,1.13.45q8.91.24,17.83-.3a.94.94,0,0,0,.52-.13c.37-.26.21-.81.21-1.2,0-.59,0-1.19,0-1.78q0-1.83-.12-3.66c-.11-2.41-.25-4.81-.31-7.22,0-.65,0-1.56.77-1.63s1.8,0,2.68,0l3.95-.05c2.57,0,5.15-.1,7.72-.1,1.32,0,2.63.08,3.95.09s2.69-.05,4,0a.68.68,0,0,1,.47.15.72.72,0,0,1,.13.38c.25,2.16.34,4.33.38,6.51,0,1.11,0,2.23.07,3.35,0,.56,0,1.12,0,1.68,0,.31.19.94-.08,1.17a1,1,0,0,1-.54.19,23,23,0,0,1-3.22.16l-12.17.06a.56.56,0,0,1-.38-.1c-.12-.09-.13-.26-.15-.4-.17-2.53-.27-5.07-.28-7.61a1.63,1.63,0,0,1,.27-1.11c.43-.5,1.18-.34,1.75-.36.84,0,1.69-.08,2.54-.12,1.69-.08,3.38-.14,5.07-.2s1.4,2.19,1.47,3.33a13.64,13.64,0,0,1,0,2,.83.83,0,0,1-.14.46c-.2.23-1.07.13-1.37.13-.68,0-1.36-.05-2,0-.44,0-1.76.21-2-.24a1.23,1.23,0,0,1-.13-.66c0-.43,0-.87.06-1.3a.48.48,0,0,1,.09-.27.49.49,0,0,1,.35-.15,12.55,12.55,0,0,1,2.21-.11,1.06,1.06,0,0,0,.84-.18.54.54,0,0,0-.14-.84,1,1,0,0,0-.48-.06l-3.18.09c-.25,0-.54,0-.67.24a.82.82,0,0,0-.09.41c0,1.21,0,2.41.05,3.61a.83.83,0,0,0,.16.56.86.86,0,0,0,.65.18h6.14a1.46,1.46,0,0,0,.8-.16c.48-.33.19-1.58.17-2.05l-.12-2.54c0-.63-.08-1.27-.07-1.9a1.32,1.32,0,0,0-.7-1.37,2.29,2.29,0,0,0-.78-.14,51.61,51.61,0,0,0-5.7,0c-1.75.08-3.51.05-5.27.22-.25,0-.47,0-.59.27a1.32,1.32,0,0,0-.09.48c-.06,2-.08,4.08,0,6.12,0,1,.05,2,.09,3,0,.66-.17,1.51.46,2a2.33,2.33,0,0,0,1.45.21l2.34-.08,4.69-.12c3.13-.05,6.25-.06,9.38,0a1.1,1.1,0,0,0,.62-.1c.46-.25.2-2,.19-2.48,0-1.15-.06-2.31-.1-3.46-.08-2.74-.2-5.47-.24-8.21a.68.68,0,0,1,.15-.56.67.67,0,0,1,.46-.12l15.25-.42,5.3-.14c.51,0,1,0,1.53,0s1,.06,1.2.48a2.81,2.81,0,0,1,0,1c0,.63,0,1.25.07,1.87.06,1.28.14,2.56.24,3.83s.08,2.4.06,3.59c0,.56,0,1.12,0,1.68s.05,1.31-.74,1.31c-2.58,0-5.15.09-7.73.09-1.21,0-2.43,0-3.64.06l-1.87,0c-.45,0-1,.1-1.19-.4a1.9,1.9,0,0,1-.12-.79c0-1.26,0-2.52,0-3.78,0-1.44,0-2.89-.05-4.33a.48.48,0,0,1,.11-.37.43.43,0,0,1,.24-.08c1.53-.21,3.05-.37,4.58-.49.6,0,1.2-.08,1.8-.07.94,0,1.88.11,2.82,0,.3,0,.67,0,.82.24a.88.88,0,0,1,.07.33l.27,3.43c0,.47.51,2.46-.27,2.47l-5.13.07a1.06,1.06,0,0,1-.87-.25,1,1,0,0,1-.19-.59c-.06-.53-.1-1.06-.13-1.59a.57.57,0,0,1,.15-.51.55.55,0,0,1,.28-.06l3-.14a1.51,1.51,0,0,0,.67-.13.52.52,0,0,0,.27-.58c-.1-.28-.45-.34-.74-.35a31.72,31.72,0,0,0-4.36.13.49.49,0,0,0-.32.1.59.59,0,0,0-.13.47c0,1.21.08,2.43.11,3.65a1.2,1.2,0,0,0,.07.42,1.06,1.06,0,0,0,.88.45c1.11.13,2.23,0,3.34,0s2.3,0,3.45,0,1.31-.28,1.27-1.31c-.11-2.29-.33-4.57-.33-6.87a1.2,1.2,0,0,0-.11-.53c-.2-.35-.68-.39-1.09-.37-3.76.1-7.51.65-11.27.56a.69.69,0,0,0-.61.18.66.66,0,0,0-.08.39c0,1.5,0,3,0,4.5s.09,3.14.15,4.71c0,.56-.21,2.12.33,2.49a1.08,1.08,0,0,0,.5.11q4.23.2,8.48.15c1.46,0,2.93,0,4.4-.08l3.2-.07c.38,0,.82,0,1-.38s0-1,0-1.37,0-1.07,0-1.61c0-1.23-.05-2.46-.08-3.68-.06-2.43-.14-4.85-.21-7.27,0-1.1,1.52-.74,2.24-.75l3.48,0,6.78-.06,7.36-.06,3.68,0a10.45,10.45,0,0,1,3.4.11,58,58,0,0,1,.1,7c0,1.18-.06,2.35-.06,3.53,0,.59,0,1.17,0,1.76s.25,1.13-.38,1.26a12.28,12.28,0,0,1-2.27,0h-4.52q-4.57,0-9.14-.08a2.15,2.15,0,0,1-.8-.11c-.65-.27-.47-1.11-.5-1.68-.05-.81-.09-1.63-.11-2.44-.06-1.74-.12-3.51,0-5.24a.41.41,0,0,1,.1-.29.44.44,0,0,1,.23-.06l5.75-.31a37.66,37.66,0,0,1,5.72,0,1.13,1.13,0,0,1,1,.44,1.09,1.09,0,0,1,.1.48q.1,2.22.09,4.44a.57.57,0,0,1-.11.41.54.54,0,0,1-.35.08l-2.81,0c-.79,0-1.59,0-2.39,0-.33,0-1.61.11-1.81-.19a.82.82,0,0,1-.1-.49c0-.33,0-.65,0-1a1.07,1.07,0,0,1,.18-.73,1,1,0,0,1,.75-.21c1.05,0,2.1,0,3.14,0a1.56,1.56,0,0,0,.75-.09.53.53,0,0,0,.31-.62c-.1-.28-.46-.33-.75-.35l-2.82-.16-2.18-.13c-.31,0-.68,0-.83.26a.86.86,0,0,0-.08.45l0,2.55c0,.46-.2,1.61.34,1.87a1,1,0,0,0,.3.05l8.57.23c.68,0,1.18-.16,1.22-.88s0-1.62-.05-2.43c0-1.34,0-2.68,0-4a1.13,1.13,0,0,0-.3-.92,1.06,1.06,0,0,0-.63-.16l-3.81-.18a45.09,45.09,0,0,0-6,0,22.4,22.4,0,0,1-2.83.18,3.86,3.86,0,0,0-1,0,1,1,0,0,0-.77.59,1.36,1.36,0,0,0-.06.45c0,1.7-.06,3.38-.07,5.08a29.63,29.63,0,0,0,.22,5.65.84.84,0,0,0,.21.49.87.87,0,0,0,.55.18c.8.06,1.6.06,2.4,0h5.67c2.8,0,5.58,0,8.37,0a22.41,22.41,0,0,0,2.59,0c.67-.08.55-.74.55-1.23V25.9c0-1.38,0-2.76,0-4.14,0-.84,0-1.68,0-2.52,0-.33-.07-.78.21-1a1.77,1.77,0,0,1,1-.16h.37c6.19.15,12.41.08,18.61-.11a19.62,19.62,0,0,1,4.53.21.72.72,0,0,1,.43.2.78.78,0,0,1,.13.47c.09,1.9.17,3.81.15,5.7l-.09,7c0,.14,0,.3-.13.37a.39.39,0,0,1-.26.06l-10,0a39.06,39.06,0,0,1-5.41-.26.86.86,0,0,1-.47-.16c-.28-.23-.13-1.26-.14-1.58,0-.76,0-1.51,0-2.27q0-2.27,0-4.53a.39.39,0,0,1,.1-.32.36.36,0,0,1,.23-.06q4.86-.35,9.74-.43a.86.86,0,0,1,.28,0c.27.1.33.44.35.73.09,1.36.19,2.73.28,4.1,0,.22,0,.5-.2.58a.42.42,0,0,1-.19,0l-5.14.15a.61.61,0,0,1-.8-.65l-.06-.81a.58.58,0,0,1,.09-.43A.54.54,0,0,1,464,26l2.68,0c.4,0,1.57.13,1.63-.49a.47.47,0,0,0-.28-.43,1.26,1.26,0,0,0-.54-.09L463,24.78a.89.89,0,0,0-.66.15c-.26.24-.2.78-.19,1.1a19.71,19.71,0,0,0,.05,2.43.93.93,0,0,0,.2.56,1,1,0,0,0,.77.21l7.4.05a1,1,0,0,0,.49-.08.86.86,0,0,0,.32-.85c-.11-1.06,0-2.14-.07-3.22s-.08-2.37-.16-3.55a.8.8,0,0,0-.12-.43.77.77,0,0,0-.55-.23,48.1,48.1,0,0,0-7-.1l-5.6.2a.9.9,0,0,0-.37.05c-.44.17-.5.74-.5,1.21,0,1,0,2.09,0,3.14s0,2.27.05,3.41l.06,3.73a.84.84,0,0,0,.11.5.78.78,0,0,0,.55.24,27.57,27.57,0,0,0,4.45.19c2.4,0,4.79,0,7.19,0,1.64,0,3.28-.05,4.92-.09l1.29,0a2.69,2.69,0,0,0,.8,0c.53-.23.31-1.23.32-1.67V29.36c0-1.53,0-3.05,0-4.58,0-1.81-.12-3.62-.12-5.43,0-1.33.14-1.47,1.48-1.59.72-.06,1.45,0,2.18,0,.58,0,1.16,0,1.74-.06.41,0,1,.22,1.41,0a.57.57,0,0,0,0-.9,1.55,1.55,0,0,0-1-.22c-5,.15-9.91.07-14.87,0-1.09,0-.79-1.67-.77-2.35,0-1.44.06-2.89.08-4.34,0-2.9.05-5.79.05-8.69a1.07,1.07,0,0,0-.1-.5.91.91,0,0,0-.63-.35,17.12,17.12,0,0,0-4.41-.2l-5.71.22c-3.41.14-6.82.27-10.23.23a1.75,1.75,0,0,0-.72.1c-.55.26-.63,1-.63,1.62,0,1.77,0,3.53,0,5.3,0,1.45.1,2.89,0,4.35,0,.43,0,.9.45,1.12a1.31,1.31,0,0,0,.59.1c3.07.06,6.14.11,9.21.12,1.54,0,3.08,0,4.61-.05a4.58,4.58,0,0,0,1.65-.11c.65-.26.72-1,.72-1.6l-.06-6.11a1.33,1.33,0,0,0-.16-.76,1.35,1.35,0,0,0-1.13-.37l-9,0c-.5,0-1.11.06-1.32.51a1.58,1.58,0,0,0-.1.48,28.81,28.81,0,0,0-.1,3.08c0,.91-.07,2.09,1.12,2.05,2.1-.08,4.2-.15,6.3-.25a.37.37,0,0,0,.33-.48c-.17-.39-.55-.4-.9-.41-1.15,0-2.3-.13-3.47,0a3.68,3.68,0,0,1-1.51-.07.5.5,0,0,1-.25-.15.51.51,0,0,1-.06-.3c0-.76.06-1.52.08-2.29a.92.92,0,0,1,.21-.67,1,1,0,0,1,.83-.09,16.31,16.31,0,0,0,3.56,0,18.24,18.24,0,0,1,3.69.19.67.67,0,0,1,.35.13.7.7,0,0,1,.19.55c.08,1.62.14,3.25.15,4.88a1,1,0,0,1-.05.38c-.26.62-1.87.35-2.37.34-1.87-.08-3.73-.23-5.59-.2a48.21,48.21,0,0,1-6,0,.81.81,0,0,1-.52-.17c-.31-.29-.28-1-.27-1.35L446,2.87A1,1,0,0,1,446.3,2a1,1,0,0,1,.46-.11,155.68,155.68,0,0,1,17.68-.34,1.24,1.24,0,0,1,.74.19,1.23,1.23,0,0,1,.3,1c0,2.42.07,4.84.1,7.26,0,1.22,0,2.45.05,3.67l0,1.8c0,.34.22,1-.13,1.19a2.15,2.15,0,0,1-1,.16c-.9,0-1.8,0-2.71,0-6.14,0-12.29-.28-18.44-.11q-1.6,0-3.21.12a4.72,4.72,0,0,1-1.3-.07c-.24,0-.78,0-.94-.21s-.05-.63-.06-.87c0-.41,0-.81,0-1.22,0-1.15,0-2.3,0-3.45,0-1.5-.15-3-.08-4.51.07-1.64.09-3.28,0-4.93a1.22,1.22,0,0,0-.15-.63c-.23-.31-.8-.31-1.15-.38A9.37,9.37,0,0,0,434.7.42c-1.16,0-2.31.19-3.47.2-.67,0-1.34,0-2-.05s-1.47,0-2.21,0l-8.69.11a.92.92,0,0,0-.76.26.88.88,0,0,0-.1.56c.12,3.72.25,7.45.37,11.18a2.16,2.16,0,0,0,.21,1c.29.52.86.4,1.34.34.7-.09,1.43-.09,2.14-.11,1.42,0,2.85,0,4.27.07.53,0,1,.07,1.58.09.91,0,1.83,0,2.75,0a1.37,1.37,0,0,0,.89-.28,1.41,1.41,0,0,0,.28-1c0-1.52,0-3.05,0-4.57,0-.77,0-1.57,0-2.34,0-.39-.06-1.22-.47-1.4a.94.94,0,0,0-.41,0l-7.16.24a1,1,0,0,0-.45.1c-.26.14-.32.47-.36.76a29.94,29.94,0,0,0-.21,3.78.75.75,0,0,0,.12.49.76.76,0,0,0,.5.21,21.81,21.81,0,0,0,4.64.2c.34,0,.77-.14.8-.48a.5.5,0,0,0-.33-.48,1.39,1.39,0,0,0-.61-.07l-2.66,0a1.18,1.18,0,0,1-.91-.25,1.19,1.19,0,0,1-.2-.81c0-.71,0-1.39.1-2.1a.38.38,0,0,1,.08-.23.46.46,0,0,1,.29-.09l5.17-.16a1,1,0,0,1,.6.1,1,1,0,0,1,.3.89c0,1.47,0,2.93,0,4.4,0,1,.25,2-1.12,2-3.05,0-6.11-.09-9.16-.2a1.07,1.07,0,0,1-.66-.17,1,1,0,0,1-.23-.74c-.08-1.85-.16-3.7-.25-5.55,0-.78-.07-1.55-.06-2.33a3.47,3.47,0,0,1,.26-1.58,1.07,1.07,0,0,1,.84-.25h2.68c4.24,0,8.47-.06,12.71-.06a1.31,1.31,0,0,1,.59.09c.45.24.26,1.08.25,1.48,0,.6,0,1.21,0,1.81,0,1.23.05,2.47.09,3.71,0,1.09,0,2.18,0,3.27,0,.76,0,1.52,0,2.28,0,.45.2,1.61-.28,1.85a1.35,1.35,0,0,1-.6.09l-7.37,0-9.45,0h-4.72c-.79,0-1.58,0-2.37,0s-.94-.06-1-.82c0-2.05.06-4.1.06-6.14q0-3.87-.17-7.72a.6.6,0,0,0-.13-.43.6.6,0,0,0-.44-.12q-9.63-.16-19.25.05a.87.87,0,0,0-.65.21.82.82,0,0,0-.14.51c-.11,2.17-.06,4.34,0,6.5,0,1.1.08,2.19.11,3.29,0,.6-.26,2.4.38,2.74a1.37,1.37,0,0,0,.64.1c3.82,0,7.66,0,11.47,0,.92,0,1.1-.47,1.09-1.22,0-2.35,0-4.68.05-7a1.2,1.2,0,0,0-.25-1,1.21,1.21,0,0,0-.88-.19c-2.14.08-4.29.07-6.43,0a1.66,1.66,0,0,0-.7.07c-.56.23-.67,1-.68,1.59l-.12,3.72a1.14,1.14,0,0,0,.14.73,1.14,1.14,0,0,0,.95.34,27.15,27.15,0,0,0,3.49-.13.92.92,0,0,0,.43-.11c.61-.4-.08-1.06-.53-1.09s-.84.1-1.27.1a12.79,12.79,0,0,1-1.52-.09.45.45,0,0,1-.48-.5,21.7,21.7,0,0,1,0-2.55.67.67,0,0,1,.19-.54.7.7,0,0,1,.37-.09l3.17-.12c.58,0,2.51-.4,2.78.2a4,4,0,0,1,.06,1.25q0,.74,0,1.47c0,1-.05,2-.06,3a1.12,1.12,0,0,1-.22.82,1.15,1.15,0,0,1-.8.22c-3.16,0-6.32,0-9.47-.1-.57,0-.56-.5-.58-1-.09-2.7-.07-5.39-.05-8.08,0-.39,0-.78,0-1.17A1.11,1.11,0,0,1,391,3c.22-.36.84-.34,1.21-.4a10,10,0,0,1,1.55-.07c2.39,0,4.77.17,7.18,0a39.66,39.66,0,0,1,4.36,0,19.06,19.06,0,0,0,2.27.1c.4,0,.86-.2,1.22,0s.39.91.41,1.39c.06,1.28.08,2.55.11,3.82a44.84,44.84,0,0,1,0,4.49c-.06.83-.07,1.65-.11,2.48s.08,1.69-.94,1.84a45.09,45.09,0,0,1-4.65.21c-3.13.1-6.25.12-9.38.09s-6,.22-9,.18c-.71,0-1.36-.17-1.48-1a16.19,16.19,0,0,1,0-2.09c0-.93,0-1.87,0-2.81,0-2.62,0-5.23,0-7.84,0-.53.1-1.5-.37-1.85a1.4,1.4,0,0,0-.84-.17c-3.8.06-7.6.18-11.4.29l-4.47.14A1.21,1.21,0,0,0,366,2c-.38.22-.43.74-.43,1.18,0,2.28,0,4.56.05,6.83,0,1.42,0,2.85.08,4.27A1.12,1.12,0,0,0,367,15.51c1.06,0,2.11,0,3.17.06a52.72,52.72,0,0,0,6.53.06c1.3-.1,1.55-.92,1.53-2.13l-.12-7c0-1.41-1.66-1.15-2.67-1.14s-2.21.08-3.32,0c-.57,0-1.91-.19-2.29.4a1.26,1.26,0,0,0-.12.58c0,1-.05,2-.08,3a7.65,7.65,0,0,0,.08,1.79,1,1,0,0,0,.18.47,1.18,1.18,0,0,0,.82.31l2.57.3a2.14,2.14,0,0,0,1-.05A1.16,1.16,0,0,0,375,11c0-.6,0-1.2,0-1.82a1.52,1.52,0,0,0-.08-.7.53.53,0,0,0-.56-.34.57.57,0,0,0-.38.45,2.58,2.58,0,0,0,0,.62,4,4,0,0,1-.11,1.42.58.58,0,0,1-.16.31.6.6,0,0,1-.4.13,7.44,7.44,0,0,1-1.81-.24.74.74,0,0,1-.43-.19.81.81,0,0,1-.15-.53c0-.63,0-1.25-.05-1.88,0-.37-.14-1.11.08-1.42a.9.9,0,0,1,.8-.24l1.55.07,2.51.11c.7,0,1,.22,1,1,.06,1.51.12,3,.07,4.54,0,.91.26,1.93-1,1.94-2.6,0-5.2,0-7.8,0a.88.88,0,0,1-.81-.41c-.08-1.93,0-3.86-.07-5.79,0-1-.09-2-.2-3-.05-.5-.28-1.65.31-1.89a.93.93,0,0,1,.44,0c3.18.17,6.38-.26,9.55-.17a10.9,10.9,0,0,0,1.61-.2c.4,0,.78,0,1.18,0s2.25-.24,2.28.35c.06,1.44.1,2.88.13,4.33s-.09,2.61-.05,3.92c.05,1.62.11,3.24,0,4.86,0,.34-.09.74-.4.88a4.41,4.41,0,0,1-1.84.23q-1.15,0-2.31,0c-1.21,0-2.4,0-3.61,0q-6.4,0-12.8-.28a.89.89,0,0,1-.6-.17c-.42-.41-.28-1.35-.29-1.86,0-.84,0-1.69,0-2.54l0-5.07c0-.53,0-1,0-1.58l0-3.43a1.45,1.45,0,0,0-.12-.65c-.26-.48-.93-.28-1.35-.26-.72,0-1.44,0-2.16,0-2.07,0-4.13.08-6.2,0-2.59-.05-5.19,0-7.79.12a1.29,1.29,0,0,0-.78.2,1.26,1.26,0,0,0-.29,1q0,3.81.06,7.62c0,.68,0,1.36,0,2a1.35,1.35,0,0,0,.52,1.28,2.06,2.06,0,0,0,.95.17l4.72.1h.7l4.17.09c.23,0,.5,0,.62-.21a.65.65,0,0,0,.07-.34c.06-2.37-.15-4.74,0-7.11,0-.69-.42-1-1-1-1-.07-2,0-2.93,0s-1.86,0-2.79,0a1,1,0,0,0-.56.15,1,1,0,0,0-.28.76,33.64,33.64,0,0,0,0,4.26.58.58,0,0,0,.15.43.63.63,0,0,0,.38.11c.79,0,1.58.12,2.37.17a2.12,2.12,0,0,0,.94-.1.38.38,0,0,0,.16-.12.57.57,0,0,0,.09-.24,8.08,8.08,0,0,0,0-2.14.89.89,0,0,0-.12-.39.3.3,0,0,0-.37-.1.36.36,0,0,0-.13.21,2.88,2.88,0,0,0,0,.83.76.76,0,0,1-.32.72.87.87,0,0,1-.39.07c-.31,0-.61,0-.91,0a.84.84,0,0,1-.39-.1.86.86,0,0,1-.26-.75c0-.62,0-1.24,0-1.85a.54.54,0,0,1,.15-.45.54.54,0,0,1,.35-.08l2.34,0,1.55,0a1.08,1.08,0,0,1,.48.09c.48.25.38,1.63.36,2.07,0,1-.09,2.05-.13,3.07a.92.92,0,0,1-.1.44c-.18.28-.59.25-.92.19a43.84,43.84,0,0,0-7.25-.12.87.87,0,0,1-.69-.21.89.89,0,0,1-.14-.51c-.15-2.84-.07-5.69-.05-8.54,0-1.07.79-.69,1.57-.7l3.1,0,6-.09c1.55,0,3.1-.05,4.65,0a1,1,0,0,1,.69.22,1,1,0,0,1,.2.66c.06,1.18.06,2.37,0,3.55s.19,2.15.17,3.25l-.07,3c0,1.15-.08,2.31-.08,3.46a.43.43,0,0,1-.08.3A.38.38,0,0,1,359,17a13.1,13.1,0,0,1-1.87-.1c-.44,0-.87,0-1.31,0-6.47.05-12.93-.16-19.39-.37a.73.73,0,0,1-.52-.15c-.27-.27-.05-1,0-1.33,0-.66,0-1.32.06-2,0-1.32,0-2.64,0-3.95,0-2.67-.05-5.34-.09-8,0-.83-.72-.91-1.41-.92-1.71,0-3.43-.07-5.14-.1L325.08,0l-2.41,0c-1.32,0-2.64.08-3.95.2a1.09,1.09,0,0,0-.48.11c-.31.2-.34.64-.33,1,.09,3.56.09,7.11,0,10.67a1.49,1.49,0,0,0,.14.84c.26.42,1.21.28,1.64.31.73,0,1.46.08,2.19.1.57,0,1.14,0,1.71,0,.38,0,.77-.07,1.15-.11s.75-.15.82-.48a.29.29,0,0,0-.11-.32.59.59,0,0,0-.23-.05l-3.95-.07c-.41,0-.82,0-1.23,0a1.15,1.15,0,0,1-.66-.18c-.55-.39-.27-2.12-.26-2.71.06-2.33.12-4.67.17-7a.82.82,0,0,1,.17-.58.82.82,0,0,1,.58-.18l2.71-.08c1.06,0,2.11-.07,3.16-.08s2.26,0,3.39.05a27.09,27.09,0,0,1,3.37.08c.49.07,1.62,0,1.87.55a1.33,1.33,0,0,1,.1.63l.09,9.13c0,.71,0,1.42,0,2.13,0,.49-.08,1-.13,1.45a1.55,1.55,0,0,1-.21.74c-.3.42-1.25.25-1.7.26q-5,.07-10,.11c-2.79,0-5.61-.07-8.39.11l-2.57,0c-1.08,0-.78-1.67-.77-2.35,0-1.44.06-2.89.08-4.34,0-2.9.06-5.79,0-8.69a1,1,0,0,0-.09-.5,1,1,0,0,0-.64-.35,17.1,17.1,0,0,0-4.41-.2l-5.71.22c-3.41.14-6.82.27-10.23.23a1.7,1.7,0,0,0-.71.1c-.56.26-.64,1-.63,1.62l0,5.3c0,1.45.11,2.89,0,4.35,0,.43,0,.9.44,1.12a1.34,1.34,0,0,0,.59.1c3.07.06,6.15.11,9.22.12,1.53,0,3.07,0,4.6-.05a4.54,4.54,0,0,0,1.65-.11c.65-.26.72-1,.72-1.6,0-2,0-4.08-.06-6.11a1.33,1.33,0,0,0-.16-.76,1.33,1.33,0,0,0-1.13-.37l-9,0c-.5,0-1.1.06-1.32.51a1.32,1.32,0,0,0-.09.48,26.42,26.42,0,0,0-.1,3.08c0,.91-.08,2.09,1.12,2.05,2.1-.08,4.2-.15,6.3-.25a.37.37,0,0,0,.32-.48c-.16-.39-.55-.4-.89-.41-1.16,0-2.31-.13-3.48,0a3.68,3.68,0,0,1-1.51-.07.5.5,0,0,1-.25-.15.44.44,0,0,1-.05-.3l.08-2.29a.92.92,0,0,1,.21-.67c.21-.19.54-.13.82-.09a16.31,16.31,0,0,0,3.56,0,18.3,18.3,0,0,1,3.7.19.75.75,0,0,1,.35.13.74.74,0,0,1,.18.55c.09,1.62.14,3.25.15,4.88a.81.81,0,0,1,0,.38c-.26.62-1.87.35-2.38.34-1.86-.08-3.72-.23-5.59-.2a48.21,48.21,0,0,1-6,0,.77.77,0,0,1-.51-.17c-.31-.29-.28-1-.28-1.35.07-2.48.13-5,.19-7.43a1,1,0,0,1,.33-.89,1,1,0,0,1,.45-.11,155.68,155.68,0,0,1,17.68-.34,1.29,1.29,0,0,1,.75.19,1.22,1.22,0,0,1,.29,1c0,2.42.07,4.84.11,7.26l.05,3.67c0,.6,0,1.2,0,1.8,0,.34.22,1-.12,1.19a2.19,2.19,0,0,1-1.05.16c-.9,0-1.8,0-2.7,0-6.15,0-12.29-.28-18.45-.11q-1.61,0-3.21.12a4.72,4.72,0,0,1-1.3-.07c-.24,0-.77,0-.93-.21s-.06-.63-.06-.87c0-.41,0-.81,0-1.22,0-1.15,0-2.3,0-3.45,0-1.5-.14-3-.08-4.51.08-1.64.1-3.28,0-4.93a1.13,1.13,0,0,0-.15-.63c-.22-.31-.8-.31-1.15-.38a9.25,9.25,0,0,0-1.75-.12c-1.15,0-2.3.19-3.46.2-.67,0-1.34,0-2-.05s-1.48,0-2.22,0l-8.68.11a.92.92,0,0,0-.76.26.89.89,0,0,0-.11.56q.19,5.58.37,11.18a2.28,2.28,0,0,0,.21,1c.3.52.87.4,1.35.34.7-.09,1.43-.09,2.13-.11,1.43,0,2.85,0,4.28.07l1.57.09c.92,0,1.84,0,2.75,0a1.37,1.37,0,0,0,.89-.28,1.41,1.41,0,0,0,.28-1c.05-1.52.05-3.05,0-4.57,0-.77,0-1.57,0-2.34,0-.39-.06-1.22-.47-1.4a.9.9,0,0,0-.4,0l-7.16.24a1,1,0,0,0-.46.1.94.94,0,0,0-.35.76,28.19,28.19,0,0,0-.22,3.78.82.82,0,0,0,.12.49.76.76,0,0,0,.51.21,21.72,21.72,0,0,0,4.63.2c.34,0,.78-.14.81-.48a.52.52,0,0,0-.33-.48,1.4,1.4,0,0,0-.61-.07l-2.67,0a1.2,1.2,0,0,1-.91-.25,1.13,1.13,0,0,1-.19-.81c0-.71,0-1.39.09-2.1a.45.45,0,0,1,.08-.23.48.48,0,0,1,.29-.09l5.17-.16a1,1,0,0,1,.6.1,1,1,0,0,1,.3.89c0,1.47,0,2.93,0,4.4,0,1,.25,2-1.11,2-3.06,0-6.12-.09-9.17-.2a1,1,0,0,1-.65-.17,1.05,1.05,0,0,1-.24-.74l-.24-5.55c0-.78-.08-1.55-.06-2.33a3.46,3.46,0,0,1,.25-1.58,1.09,1.09,0,0,1,.85-.25h2.67c4.24,0,8.48-.06,12.72-.06a1.27,1.27,0,0,1,.58.09c.46.24.26,1.08.25,1.48,0,.6,0,1.21,0,1.81,0,1.23,0,2.47.08,3.71,0,1.09,0,2.18,0,3.27v2.28c0,.45.2,1.61-.27,1.85a1.4,1.4,0,0,1-.61.09l-7.37,0-9.45,0h-4.72c-.79,0-1.58,0-2.36,0s-1-.06-1-.82c0-2.05.06-4.1.07-6.14,0-2.58-.05-5.15-.17-7.72a.65.65,0,0,0-.13-.43.63.63,0,0,0-.45-.12q-9.62-.16-19.24.05a.89.89,0,0,0-.66.21.89.89,0,0,0-.14.51c-.1,2.17-.06,4.34,0,6.5,0,1.1.08,2.19.11,3.29,0,.6-.26,2.4.38,2.74a1.43,1.43,0,0,0,.65.1c3.81,0,7.66,0,11.46,0,.92,0,1.11-.47,1.1-1.22,0-2.35,0-4.68,0-7a1.25,1.25,0,0,0-.26-1,1.19,1.19,0,0,0-.87-.19q-3.22.12-6.43,0a1.64,1.64,0,0,0-.7.07c-.57.23-.67,1-.69,1.59l-.12,3.72a1.14,1.14,0,0,0,.14.73,1.14,1.14,0,0,0,1,.34,27.08,27.08,0,0,0,3.49-.13.89.89,0,0,0,.43-.11c.61-.4-.07-1.06-.53-1.09s-.84.1-1.27.1a12.91,12.91,0,0,1-1.52-.09.45.45,0,0,1-.48-.5,24.11,24.11,0,0,1,0-2.55.67.67,0,0,1,.2-.54.66.66,0,0,1,.37-.09l3.16-.12c.58,0,2.51-.4,2.78.2a4,4,0,0,1,.07,1.25q0,.74,0,1.47c0,1-.06,2-.07,3a1.12,1.12,0,0,1-.22.82,1.13,1.13,0,0,1-.79.22c-3.16,0-6.32,0-9.48-.1-.57,0-.56-.5-.57-1-.1-2.7-.07-5.39-.05-8.08,0-.39,0-.78,0-1.17A1,1,0,0,1,235,3c.22-.36.84-.34,1.21-.4a10,10,0,0,1,1.55-.07c2.39,0,4.78.17,7.18,0a39.64,39.64,0,0,1,4.36,0,19.25,19.25,0,0,0,2.27.1c.4,0,.87-.2,1.23,0s.39.91.41,1.39c.05,1.28.08,2.55.11,3.82a44.84,44.84,0,0,1,0,4.49c-.06.83-.07,1.65-.11,2.48s.08,1.69-.94,1.84a45,45,0,0,1-4.65.21c-3.12.1-6.25.12-9.38.09s-6,.22-9,.18c-.71,0-1.36-.17-1.48-1a16.18,16.18,0,0,1,0-2.09l0-2.81c0-2.62,0-5.23,0-7.84,0-.53.1-1.5-.37-1.85a1.37,1.37,0,0,0-.83-.17c-3.81.06-7.6.18-11.4.29l-4.48.14a1.17,1.17,0,0,0-.56.1c-.39.22-.44.74-.43,1.18,0,2.28,0,4.56,0,6.83,0,1.42,0,2.85.08,4.27A1.12,1.12,0,0,0,211,15.51c1.06,0,2.12,0,3.17.06a52.72,52.72,0,0,0,6.53.06c1.31-.1,1.55-.92,1.53-2.13,0-2.33-.07-4.66-.11-7,0-1.41-1.67-1.15-2.68-1.14s-2.21.08-3.32,0c-.57,0-1.91-.19-2.28.4a1,1,0,0,0-.12.58l-.09,3a8.24,8.24,0,0,0,.08,1.79,1.07,1.07,0,0,0,.18.47,1.18,1.18,0,0,0,.82.31l2.58.3a2.15,2.15,0,0,0,1-.05A1.17,1.17,0,0,0,219,11c0-.6,0-1.2,0-1.82a1.84,1.84,0,0,0-.08-.7.54.54,0,0,0-.57-.34.56.56,0,0,0-.37.45,2.15,2.15,0,0,0,0,.62,4.25,4.25,0,0,1-.12,1.42.49.49,0,0,1-.55.44,7.37,7.37,0,0,1-1.81-.24.77.77,0,0,1-.44-.19.75.75,0,0,1-.14-.53l-.06-1.88c0-.37-.13-1.11.09-1.42s.5-.25.79-.24l1.55.07,2.52.11c.69,0,1,.22,1,1,.05,1.51.11,3,.07,4.54,0,.91.26,1.93-1,1.94-2.6,0-5.2,0-7.79,0a.87.87,0,0,1-.81-.41c-.08-1.93,0-3.86-.07-5.79,0-1-.09-2-.2-3-.06-.5-.29-1.65.31-1.89a.89.89,0,0,1,.43,0c3.18.17,6.39-.26,9.56-.17a10.76,10.76,0,0,0,1.6-.2c.4,0,.78,0,1.18,0s2.26-.24,2.28.35c.06,1.44.1,2.88.14,4.33s-.1,2.61-.06,3.92c.06,1.62.11,3.24,0,4.86,0,.34-.09.74-.39.88a4.41,4.41,0,0,1-1.84.23c-.78,0-1.55,0-2.32,0-1.2,0-2.4,0-3.6,0q-6.4,0-12.8-.28a.9.9,0,0,1-.61-.17c-.41-.41-.28-1.35-.28-1.86,0-.84,0-1.69,0-2.54l-.05-5.07c0-.53,0-1,0-1.58l0-3.43a1.44,1.44,0,0,0-.11-.65c-.27-.48-.93-.28-1.36-.26-.71,0-1.44,0-2.15,0-2.07,0-4.13.08-6.2,0-2.6-.05-5.2,0-7.8.12a1.3,1.3,0,0,0-.78.2,1.25,1.25,0,0,0-.28,1q0,3.81,0,7.62c0,.68.05,1.36,0,2a1.34,1.34,0,0,0,.53,1.28,2,2,0,0,0,.95.17l4.71.1h.71l4.17.09c.22,0,.49,0,.62-.21a.77.77,0,0,0,.07-.34c.05-2.37-.15-4.74-.05-7.11,0-.69-.42-1-1-1-1-.07-2,0-2.93,0s-1.86,0-2.79,0a1,1,0,0,0-.56.15,1,1,0,0,0-.27.76,31.87,31.87,0,0,0,0,4.26.58.58,0,0,0,.15.43.64.64,0,0,0,.39.11c.79,0,1.57.12,2.37.17a2.09,2.09,0,0,0,.93-.1.38.38,0,0,0,.16-.12.39.39,0,0,0,.09-.24,8.08,8.08,0,0,0,0-2.14.78.78,0,0,0-.12-.39.29.29,0,0,0-.36-.1.33.33,0,0,0-.14.21,2.57,2.57,0,0,0,0,.83.8.8,0,0,1-.32.72.89.89,0,0,1-.4.07c-.3,0-.61,0-.91,0a.9.9,0,0,1-.39-.1.86.86,0,0,1-.26-.75c0-.62,0-1.24,0-1.85a.54.54,0,0,1,.14-.45.55.55,0,0,1,.36-.08l2.34,0,1.55,0a1.07,1.07,0,0,1,.47.09c.49.25.38,1.63.36,2.07,0,1-.08,2.05-.13,3.07a.74.74,0,0,1-.1.44c-.18.28-.59.25-.92.19a43.84,43.84,0,0,0-7.25-.12.87.87,0,0,1-.69-.21.88.88,0,0,1-.13-.51c-.15-2.84-.08-5.69-.05-8.54,0-1.07.79-.69,1.57-.7l3.09,0,6-.09c1.55,0,3.1-.05,4.64,0a1,1,0,0,1,.69.22,1,1,0,0,1,.2.66,35,35,0,0,1,0,3.55c-.05,1.08.2,2.15.17,3.25l-.06,3c0,1.15-.09,2.31-.09,3.46a.38.38,0,0,1-.08.3.37.37,0,0,1-.25.09,12.89,12.89,0,0,1-1.86-.1C200.76,16.9,200.32,16.91,199.88,16.91Zm-29.72-4.46a.37.37,0,0,0-.08.38.61.61,0,0,0,.24.33,1.45,1.45,0,0,0,.8.13l1.94,0a.93.93,0,0,0,.34-.06c.34-.13.4-.56.42-.92,0-.61.07-1.22.1-1.82A39.63,39.63,0,0,0,174,6.23a3.58,3.58,0,0,0-.29-1.78c-.37-.57-.92-.57-1.54-.62A33.18,33.18,0,0,0,167.1,4a1,1,0,0,0-.44.11.7.7,0,0,0-.27.4,2.82,2.82,0,0,0-.07.82l.06,4.25a.94.94,0,0,0,.16.64c.33.36.91.13,1.31.1.69-.05,1.37,0,2.07-.1a.81.81,0,0,0,.31-.1.69.69,0,0,0,.21-.32,4.39,4.39,0,0,0,0-2.19c0-.24-.11-.53-.34-.61a.49.49,0,0,0-.57.37,1.6,1.6,0,0,0,.05.75,1.2,1.2,0,0,1,0,.75.87.87,0,0,1-.71.48,2.65,2.65,0,0,1-.88-.1.64.64,0,0,1-.4-.2.69.69,0,0,1-.08-.35l-.06-3.22a.37.37,0,0,1,0-.23.35.35,0,0,1,.28-.1q1.4-.1,2.79-.09c.56,0,1.11,0,1.66,0a1,1,0,0,1,.47.1c.3.2.28.78.27,1.09l0,5.49a.63.63,0,0,1-.08.38.62.62,0,0,1-.52.16h-1.66A.69.69,0,0,0,170.16,12.45Zm-156,0a.4.4,0,0,0-.08.38.66.66,0,0,0,.24.33,1.46,1.46,0,0,0,.8.13l1.94,0a1,1,0,0,0,.35-.06c.33-.13.4-.56.42-.92,0-.61.06-1.22.1-1.82.07-1.41.15-2.81.09-4.22a3.48,3.48,0,0,0-.3-1.78c-.37-.57-.91-.57-1.53-.62A33.14,33.14,0,0,0,11.14,4a.9.9,0,0,0-.44.11.66.66,0,0,0-.27.4,2.82,2.82,0,0,0-.08.82l.06,4.25a1,1,0,0,0,.17.64c.33.36.9.13,1.3.1.7-.05,1.38,0,2.08-.1a.87.87,0,0,0,.31-.1.67.67,0,0,0,.2-.32,4.51,4.51,0,0,0,0-2.19c0-.24-.12-.53-.34-.61a.5.5,0,0,0-.58.37,1.49,1.49,0,0,0,.06.75,1.28,1.28,0,0,1,0,.75.86.86,0,0,1-.7.48,2.62,2.62,0,0,1-.88-.1.67.67,0,0,1-.41-.2.6.6,0,0,1-.07-.35l-.07-3.22a.37.37,0,0,1,0-.23.35.35,0,0,1,.28-.1c.93-.07,1.87-.1,2.8-.09.55,0,1.1,0,1.66,0a.89.89,0,0,1,.46.1c.3.2.28.78.28,1.09l0,5.49a.71.71,0,0,1-.08.38.65.65,0,0,1-.53.16H14.73A.72.72,0,0,0,14.19,12.45Z"/></svg>