<svg id="a9c3e097-9281-4cd1-9277-82a7743138a2" data-name="Layer 1" xmlns="http://www.w3.org/2000/svg" viewBox="0 0 487.81 24.58"><defs><style>.beb4b9c2-0a61-462d-b60c-befa2b837ee2{fill:#3e342f;}</style></defs><path class="beb4b9c2-0a61-462d-b60c-befa2b837ee2" d="M354.77,24.47c-.29.11-.67.2-.88,0a.56.56,0,0,1,0-.71,1.57,1.57,0,0,1,.63-.41c1.44-.63,2.89-1.21,4.37-1.75s2.76-1.07,4.17-1.5c1.82-.55,1.25-3.25,1.29-4.73s.09-2.91.13-4.36a7.33,7.33,0,0,0,0-2.6c-.34-1-1.43-1.49-2.25-2.07L358.56,3.7c-1-.71-2.18-2.11-3.47-1.58a10.78,10.78,0,0,0-1.39.6c-2.44,1.44-4.85,2.92-7.29,4.35a1.63,1.63,0,0,0-1,1.74c.05.43,0,.88.12,1.3.28,1.37.45,2.76.64,4.14.12.81.11,2.67.72,3.4a.81.81,0,0,0,.19.18A1.42,1.42,0,0,0,348,18l6.24-.26a8.49,8.49,0,0,0,2.67-.17c.54-.23.67-.82.83-1.34l.93-3c.18-.61.88-1.72.55-2.33a2.36,2.36,0,0,0-.92-.82L354.1,7.49a.93.93,0,0,0-.61-.2c-.3,0-.46.37-.58.65-.62,1.42-1.23,2.85-1.84,4.27a9.77,9.77,0,0,1-.35,1,.66.66,0,0,0,0,.69.7.7,0,0,0,.49.2c1.16.16,2.31.38,3.47.57a.5.5,0,0,0,.4,0c.16-.12.12-.36,0-.54a10.46,10.46,0,0,1-.53-1.78.53.53,0,0,0-.19-.35.42.42,0,0,0-.47.08,2.55,2.55,0,0,0-.32.4,1.49,1.49,0,0,1-1.13.54A5.7,5.7,0,0,1,353.7,11a.76.76,0,0,1,.59-.3c.25,0,.4.29.51.51a12.24,12.24,0,0,1,1.13,3.58,1,1,0,0,1-.16.88,1,1,0,0,1-.9.13l-3.28-.55c-.61-.1-1.88,0-2.09-.81a2.28,2.28,0,0,1,.2-1.3c.34-.92.69-1.84,1.05-2.75.52-1.26,1.07-2.51,1.67-3.74.14-.29.34-.61.66-.65a1,1,0,0,1,.6.19l5.93,3.45a2,2,0,0,1,.85.76,1.61,1.61,0,0,1-.15,1.33,21.19,21.19,0,0,0-1,3.13c-.32,1.12-.71,3.12-1.85,3.71a2.8,2.8,0,0,1-1.11.24c-3,.22-6.11.29-9.17.29-.59,0-1.21.09-1.51-.52a7.13,7.13,0,0,1-.25-2c-.23-2.16-.7-4.29-1-6.43-.16-1-.35-2.28.38-3.08a12.71,12.71,0,0,1,3-1.91L351.28,3c1.05-.6,2.1-1.2,3.14-1.81a2.16,2.16,0,0,1,2.44-.1c1.67,1.06,3.26,2.26,4.86,3.41l2.5,1.81c.56.41,1.63.91,1.68,1.7s-.12,1.52-.14,2.23l-.12,5.26c0,1.17-.05,2.34-.08,3.51,0,.86-.11,1.48-1,1.84-1,.44-2.13.79-3.19,1.18Zm41.88-5.42c-.81-.58-1.91-1.07-2.24-2.07a7.27,7.27,0,0,1,0-2.59c0-1.45.13-2.91.13-4.36s-.53-4.19,1.29-4.74c1.41-.42,2.79-1,4.17-1.49s2.93-1.12,4.37-1.75a1.7,1.7,0,0,0,.63-.42.55.55,0,0,0,0-.7c-.21-.23-.59-.14-.88,0l-6.63,2.41c-1.06.38-2.15.74-3.19,1.18-.86.36-.94,1-1,1.83,0,1.17-.05,2.34-.08,3.52,0,1.75-.08,3.5-.13,5.25,0,.72-.18,1.54-.13,2.24s1.12,1.29,1.68,1.7l2.5,1.81c1.6,1.15,3.19,2.35,4.85,3.41a2.19,2.19,0,0,0,2.45-.1c1-.62,2.09-1.21,3.14-1.81l3.58-2.07a12.65,12.65,0,0,0,2.95-1.91c.74-.8.55-2.11.39-3.08-.34-2.15-.81-4.28-1-6.43a6.9,6.9,0,0,0-.26-2c-.29-.6-.91-.52-1.5-.52-3.06,0-6.13.08-9.17.3a2.79,2.79,0,0,0-1.11.23c-1.14.6-1.53,2.6-1.85,3.72a21.19,21.19,0,0,1-1,3.13,1.59,1.59,0,0,0-.15,1.32,1.86,1.86,0,0,0,.85.76l5.93,3.46a1.09,1.09,0,0,0,.6.19c.32,0,.51-.37.66-.66.6-1.22,1.15-2.47,1.66-3.74.37-.91.71-1.83,1.06-2.75a2.15,2.15,0,0,0,.19-1.29c-.21-.78-1.47-.71-2.09-.82L404,9.61a1,1,0,0,0-.9.13,1,1,0,0,0-.16.87,12.34,12.34,0,0,0,1.12,3.58c.11.23.27.48.52.51a.75.75,0,0,0,.59-.3,5.5,5.5,0,0,0,1.26-2.05,1.44,1.44,0,0,0-1.12.54,3.12,3.12,0,0,1-.32.4.4.4,0,0,1-.47.07.51.51,0,0,1-.19-.35,9.79,9.79,0,0,0-.54-1.77c-.08-.18-.12-.43,0-.55a.52.52,0,0,1,.39,0c1.16.2,2.31.42,3.48.57a.71.71,0,0,1,.49.21.65.65,0,0,1,0,.68,10.59,10.59,0,0,0-.35,1c-.61,1.43-1.23,2.85-1.84,4.28-.12.28-.28.59-.58.64a.91.91,0,0,1-.61-.19l-4.19-2.57a2.37,2.37,0,0,1-.92-.82c-.33-.61.37-1.72.55-2.33l.93-3c.16-.52.29-1.11.83-1.33a8.8,8.8,0,0,1,2.67-.18l6.24-.25a1.48,1.48,0,0,1,.89.15,1.07,1.07,0,0,1,.19.18c.61.74.6,2.59.72,3.41.19,1.38.36,2.77.64,4.13.09.43.06.87.12,1.3a1.65,1.65,0,0,1-1,1.75c-2.44,1.43-4.86,2.9-7.29,4.34a9.59,9.59,0,0,1-1.39.61c-1.3.53-2.48-.87-3.47-1.58ZM473.18,3,469.6,5.1a12.71,12.71,0,0,0-3,1.91c-.74.8-.55,2.1-.39,3.08.35,2.14.81,4.27,1.05,6.43a6.79,6.79,0,0,0,.25,2c.29.61.91.52,1.51.52,3.06,0,6.12-.07,9.17-.29a2.8,2.8,0,0,0,1.11-.24c1.13-.59,1.53-2.59,1.84-3.71a21.23,21.23,0,0,1,1-3.13,1.65,1.65,0,0,0,.14-1.33,1.94,1.94,0,0,0-.84-.76l-5.94-3.45A.93.93,0,0,0,475,6c-.32,0-.52.36-.66.65-.6,1.23-1.16,2.48-1.67,3.74-.37.91-.71,1.83-1,2.75a2.2,2.2,0,0,0-.2,1.3c.21.78,1.48.71,2.09.81l3.27.55a1.06,1.06,0,0,0,.91-.13,1,1,0,0,0,.15-.88,12.53,12.53,0,0,0-1.12-3.58c-.11-.22-.26-.47-.51-.51a.76.76,0,0,0-.59.3A5.56,5.56,0,0,0,474.33,13a1.49,1.49,0,0,0,1.13-.54,2.08,2.08,0,0,1,.32-.4.42.42,0,0,1,.47-.08.64.64,0,0,1,.19.35,8.92,8.92,0,0,0,.53,1.78c.09.18.12.42,0,.54a.5.5,0,0,1-.4,0c-1.16-.19-2.31-.41-3.47-.57a.75.75,0,0,1-.5-.2.65.65,0,0,1,.05-.69c.18-.34.2-.69.35-1l1.83-4.27c.12-.28.29-.6.59-.65a1,1,0,0,1,.61.2l4.18,2.57a2.39,2.39,0,0,1,.93.82c.32.61-.37,1.72-.56,2.33l-.93,3c-.16.52-.28,1.11-.82,1.34a8.49,8.49,0,0,1-2.67.17l-6.24.26a1.46,1.46,0,0,1-.9-.16,1.07,1.07,0,0,1-.19-.18c-.6-.73-.59-2.59-.71-3.4-.2-1.38-.36-2.77-.65-4.14-.09-.42-.06-.87-.11-1.3a1.62,1.62,0,0,1,1-1.74c2.44-1.43,4.85-2.91,7.29-4.35a10.78,10.78,0,0,1,1.39-.6c1.29-.53,2.47.87,3.46,1.58l3.67,2.61c.81.58,1.91,1.08,2.25,2.07a7.33,7.33,0,0,1,0,2.6c0,1.45-.12,2.91-.12,4.36s.53,4.18-1.3,4.73c-1.41.43-2.79,1-4.17,1.5s-2.93,1.12-4.36,1.75a1.54,1.54,0,0,0-.64.41.57.57,0,0,0,0,.71c.22.23.59.14.89,0l6.62-2.41c1.07-.39,2.15-.74,3.19-1.18.87-.36.95-1,1-1.84,0-1.17.06-2.34.09-3.51l.12-5.26c0-.71.19-1.54.14-2.23s-1.12-1.29-1.68-1.7l-2.5-1.81c-1.61-1.15-3.2-2.35-4.86-3.41a2.17,2.17,0,0,0-2.45.1C475.28,1.83,474.22,2.43,473.18,3ZM425.37,2.1l-4.61,2.52c-.63.34-1.43.61-2,1s-.56,1.61-.64,2.3c-.11,1-.22,2.05-.32,3.07-.19,2-.43,3.94-.52,5.91A2.18,2.18,0,0,0,418.59,19c1.05.59,2.09,1.21,3.14,1.81l3.58,2.07a12.52,12.52,0,0,0,3.13,1.6c1.06.24,2.1-.58,2.86-1.2,1.69-1.37,3.3-2.84,5.05-4.12.49-.39,1.27-.7,1.63-1.23s0-1-.31-1.56c-1.53-2.65-3.12-5.27-4.84-7.8a2.56,2.56,0,0,0-.76-.84c-1.08-.69-3,0-4.14.25a19.84,19.84,0,0,1-3.22.68,1.64,1.64,0,0,0-1.22.54,1.91,1.91,0,0,0-.23,1.11l0,6.87a1.05,1.05,0,0,0,.13.61,1,1,0,0,0,.9.24c1.36-.09,2.72-.23,4.07-.42,1-.14,1.94-.3,2.91-.47a2.15,2.15,0,0,0,1.22-.47c.57-.57-.12-1.64-.34-2.22L431,11.31c-.11-.29-.26-.63-.57-.71a1,1,0,0,0-.83.3A12.35,12.35,0,0,0,427,13.66a.81.81,0,0,0-.19.7.79.79,0,0,0,.56.36,5.6,5.6,0,0,0,2.41.07,1.47,1.47,0,0,0-1-.7,4.17,4.17,0,0,1-.51-.08.41.41,0,0,1-.3-.37.54.54,0,0,1,.21-.34A9.5,9.5,0,0,0,429.44,12c.11-.17.31-.32.49-.24a.45.45,0,0,1,.23.32c.42,1.1.8,2.21,1.25,3.29a.82.82,0,0,1,.07.53c-.09.23-.38.3-.62.3s-.7.18-1.08.22l-4.61.55a1,1,0,0,1-.86-.18.91.91,0,0,1-.13-.63c0-1.64.09-3.27.13-4.91a2.36,2.36,0,0,1,.25-1.21c.36-.59,1.67-.54,2.3-.68l3.07-.71a1.83,1.83,0,0,1,1.57.05A8.49,8.49,0,0,1,433,10.88c1.12,1.76,2.23,3.52,3.35,5.27a1.53,1.53,0,0,1,.31.86,1.14,1.14,0,0,1-.06.25c-.34.89-1.95,1.81-2.59,2.32-1.1.86-2.22,1.7-3.26,2.63-.32.29-.72.49-1.07.75a1.62,1.62,0,0,1-2,0c-2.46-1.4-4.94-2.75-7.41-4.14a11.6,11.6,0,0,1-1.22-.9c-1.1-.86-.48-2.58-.36-3.79.14-1.5.28-3,.43-4.49.09-1,0-2.19.67-3A7.5,7.5,0,0,1,422,5.35c1.28-.69,2.58-1.34,3.84-2.07S429.2.73,430.59,2C431.66,3,432.84,4,434,4.9s2.44,2,3.7,2.9a1.58,1.58,0,0,0,.68.35.55.55,0,0,0,.62-.33c.09-.3-.17-.58-.41-.78l-5.4-4.53c-.87-.73-1.71-1.49-2.62-2.17-.74-.57-1.31-.33-2.07.07ZM376.19,21.72c-1.23-.77-2.45-1.57-3.71-2.29s-3.89-1.64-3.45-3.49c.33-1.43.53-2.91.79-4.36s.49-3.1.66-4.66a1.58,1.58,0,0,0,0-.75.55.55,0,0,0-.59-.38c-.31.07-.42.44-.47.75l-1.23,6.94c-.2,1.12-.43,2.23-.57,3.35-.12.93.37,1.31,1.1,1.76,1,.62,2,1.22,3,1.83l4.5,2.74c.61.37,1.23.93,1.86,1.23s1.68-.32,2.31-.6l2.82-1.26c1.8-.81,3.63-1.59,5.38-2.5a2.18,2.18,0,0,0,1.14-2.17c0-1.21,0-2.42,0-3.62V10.1a12.48,12.48,0,0,0-.18-3.51c-.33-1-1.55-1.53-2.47-1.88-2-.77-4.11-1.43-6.09-2.31a7,7,0,0,0-1.88-.79c-.67-.05-.91.53-1.21,1-1.53,2.65-3,5.34-4.33,8.09a3,3,0,0,0-.35,1.08c-.05,1.28,1.48,2.62,2.3,3.46a21.18,21.18,0,0,1,2.19,2.45,1.68,1.68,0,0,0,1.08.79,1.89,1.89,0,0,0,1.08-.36l6-3.41a.94.94,0,0,0,.46-.42,1,1,0,0,0-.24-.9c-.76-1.13-1.56-2.24-2.4-3.31-.61-.77-1.23-1.53-1.86-2.29a2.2,2.2,0,0,0-1-.82c-.78-.2-1.35.93-1.75,1.41-.7.85-1.41,1.7-2.11,2.56a1.05,1.05,0,0,0-.34.84c.08.3.4.47.68.58a12.45,12.45,0,0,0,3.67.82.76.76,0,0,0,.69-.19.76.76,0,0,0,0-.66,5.59,5.59,0,0,0-1.15-2.13,1.48,1.48,0,0,0-.09,1.25,2.78,2.78,0,0,1,.18.48.41.41,0,0,1-.17.44.55.55,0,0,1-.4,0,10.25,10.25,0,0,0-1.8-.43c-.2,0-.43-.1-.45-.3a.48.48,0,0,1,.16-.36c.75-.91,1.51-1.8,2.23-2.72a.72.72,0,0,1,.42-.33.65.65,0,0,1,.57.38,9.68,9.68,0,0,0,.73.82l2.78,3.73a.91.91,0,0,1,.27.83.86.86,0,0,1-.47.43l-4.32,2.34a2.43,2.43,0,0,1-1.18.39c-.68,0-1.3-1.18-1.73-1.65L375,13.22c-.37-.4-.82-.8-.74-1.38a8.64,8.64,0,0,1,1.18-2.4l2.9-5.53a1.48,1.48,0,0,1,.58-.7,1,1,0,0,1,.25-.07c.94-.16,2.54.77,3.31,1.08,1.29.52,2.58,1.07,3.9,1.51.41.13.79.38,1.19.55a1.64,1.64,0,0,1,1,1.72c0,2.83.09,5.66.11,8.48a9.56,9.56,0,0,1-.17,1.51c-.19,1.39-2,1.71-3.1,2.22l-4.1,1.86c-.91.42-1.88,1.12-2.91.91A7.45,7.45,0,0,1,376.19,21.72ZM455.83,3.65c1.23.76,2.45,1.56,3.71,2.29s3.89,1.63,3.45,3.49c-.34,1.43-.54,2.91-.79,4.35s-.49,3.1-.66,4.66a1.5,1.5,0,0,0,0,.76.56.56,0,0,0,.59.38c.3-.07.41-.45.47-.76l1.23-6.94c.19-1.11.43-2.23.57-3.35.12-.93-.38-1.3-1.11-1.76l-3-1.82q-2.24-1.38-4.49-2.74c-.61-.38-1.24-.93-1.86-1.24s-1.68.33-2.31.61c-.95.41-1.89.83-2.83,1.26-1.79.81-3.63,1.59-5.37,2.5a2.18,2.18,0,0,0-1.14,2.17c0,1.2,0,2.41,0,3.62v4.14a12.86,12.86,0,0,0,.17,3.51c.33,1,1.55,1.52,2.48,1.88,2,.77,4.11,1.43,6.09,2.31a7,7,0,0,0,1.88.79c.67,0,.9-.53,1.2-1,1.53-2.65,3-5.35,4.33-8.09a2.69,2.69,0,0,0,.35-1.08c.06-1.29-1.48-2.63-2.29-3.46a22.13,22.13,0,0,1-2.2-2.45,1.63,1.63,0,0,0-1.07-.79,1.85,1.85,0,0,0-1.08.35l-6,3.41a1.07,1.07,0,0,0-.47.42,1,1,0,0,0,.24.9c.76,1.14,1.57,2.24,2.41,3.32.6.77,1.23,1.53,1.85,2.28a2.11,2.11,0,0,0,1,.82c.77.21,1.35-.92,1.74-1.4l2.12-2.56a1,1,0,0,0,.33-.85c-.07-.3-.39-.46-.68-.57a12.15,12.15,0,0,0-3.66-.82.79.79,0,0,0-.7.19.76.76,0,0,0,0,.66,5.53,5.53,0,0,0,1.14,2.12,1.46,1.46,0,0,0,.1-1.24,2.18,2.18,0,0,1-.19-.48.39.39,0,0,1,.18-.44.53.53,0,0,1,.39,0,9.5,9.5,0,0,0,1.81.42c.19,0,.42.11.45.3a.54.54,0,0,1-.16.37c-.75.91-1.52,1.79-2.23,2.72a.81.81,0,0,1-.43.33c-.24,0-.44-.18-.57-.38s-.5-.52-.73-.83l-2.78-3.72c-.18-.25-.37-.55-.27-.83a.92.92,0,0,1,.48-.43l4.32-2.34a2.33,2.33,0,0,1,1.17-.39c.69,0,1.31,1.18,1.74,1.64L457,12.14c.36.4.81.81.74,1.39a8.54,8.54,0,0,1-1.19,2.4c-1,1.84-1.93,3.68-2.89,5.53a1.48,1.48,0,0,1-.59.69.92.92,0,0,1-.25.08c-.94.16-2.54-.78-3.3-1.08-1.3-.52-2.58-1.07-3.91-1.51-.41-.14-.78-.38-1.18-.55a1.64,1.64,0,0,1-1-1.73c0-2.82-.09-5.65-.12-8.48a11.26,11.26,0,0,1,.17-1.51c.19-1.38,2-1.71,3.1-2.21l4.1-1.87c.91-.41,1.89-1.11,2.92-.91A7.38,7.38,0,0,1,455.83,3.65Zm-120,18.41c1.07-.39,2.15-.74,3.19-1.18.86-.36.94-1,1-1.84,0-1.17.06-2.34.08-3.51,0-1.75.09-3.51.13-5.26,0-.71.18-1.54.14-2.23s-1.12-1.29-1.68-1.7l-2.5-1.81c-1.61-1.15-3.2-2.35-4.86-3.41a2.17,2.17,0,0,0-2.45.1c-1,.61-2.09,1.21-3.14,1.81L322.16,5.1a12.86,12.86,0,0,0-3,1.91c-.74.8-.55,2.1-.39,3.08.34,2.14.81,4.27,1,6.43a7.13,7.13,0,0,0,.26,2c.29.61.91.52,1.5.52,3.06,0,6.13-.07,9.17-.29a2.85,2.85,0,0,0,1.12-.24c1.13-.59,1.53-2.59,1.84-3.71a21.23,21.23,0,0,1,1-3.13,1.65,1.65,0,0,0,.14-1.33,1.94,1.94,0,0,0-.84-.76l-5.94-3.45a.93.93,0,0,0-.59-.19c-.33,0-.52.36-.66.65-.6,1.23-1.16,2.48-1.67,3.74-.37.91-.71,1.83-1.05,2.75a2.12,2.12,0,0,0-.2,1.3c.21.78,1.48.71,2.09.81l3.27.55a1,1,0,0,0,.9-.13,1,1,0,0,0,.16-.88,12.53,12.53,0,0,0-1.12-3.58c-.11-.22-.27-.47-.51-.51a.76.76,0,0,0-.59.3A5.44,5.44,0,0,0,326.9,13a1.49,1.49,0,0,0,1.13-.54,2.08,2.08,0,0,1,.32-.4.42.42,0,0,1,.47-.08.64.64,0,0,1,.19.35,8.92,8.92,0,0,0,.53,1.78c.08.18.12.42,0,.54a.48.48,0,0,1-.39,0c-1.16-.19-2.31-.41-3.47-.57a.75.75,0,0,1-.5-.2.65.65,0,0,1,.05-.69c.18-.34.19-.69.35-1l1.83-4.27c.12-.28.29-.6.59-.65a1,1,0,0,1,.61.2l4.18,2.57a2.39,2.39,0,0,1,.93.82c.32.61-.37,1.72-.56,2.33l-.93,3c-.16.52-.28,1.11-.83,1.34a8.48,8.48,0,0,1-2.67.17l-6.24.26a1.44,1.44,0,0,1-.89-.16,1.07,1.07,0,0,1-.19-.18c-.61-.73-.6-2.59-.71-3.4-.2-1.38-.37-2.77-.65-4.14-.09-.42-.06-.87-.12-1.3a1.64,1.64,0,0,1,1-1.74c2.44-1.43,4.85-2.91,7.28-4.35a11.56,11.56,0,0,1,1.4-.6C330.85,1.59,332,3,333,3.7l3.67,2.61c.81.58,1.91,1.08,2.25,2.07a7.33,7.33,0,0,1,0,2.6c0,1.45-.12,2.91-.12,4.36s.52,4.18-1.3,4.73c-1.41.43-2.79,1-4.17,1.5s-2.93,1.12-4.36,1.75a1.54,1.54,0,0,0-.64.41.57.57,0,0,0,0,.71c.22.23.59.14.89,0Zm-57.92-20-4.61,2.52c-.63.34-1.43.61-2,1s-.55,1.61-.63,2.3c-.11,1-.22,2.05-.32,3.07-.19,2-.43,3.94-.52,5.91A2.18,2.18,0,0,0,271.16,19c1,.59,2.09,1.21,3.14,1.81l3.58,2.07a12.35,12.35,0,0,0,3.13,1.6c1.06.24,2.09-.58,2.86-1.2,1.69-1.37,3.3-2.84,5.05-4.12.49-.39,1.27-.7,1.63-1.23s0-1-.31-1.56c-1.53-2.65-3.12-5.27-4.84-7.8a2.67,2.67,0,0,0-.76-.84c-1.08-.69-3,0-4.14.25a20.06,20.06,0,0,1-3.22.68,1.64,1.64,0,0,0-1.22.54,2,2,0,0,0-.24,1.11q0,3.44,0,6.87a1,1,0,0,0,.13.61,1,1,0,0,0,.9.24c1.36-.09,2.72-.23,4.07-.42,1-.14,1.94-.3,2.91-.47a2.15,2.15,0,0,0,1.22-.47c.57-.57-.12-1.64-.34-2.22-.39-1-.78-2.07-1.16-3.11-.11-.29-.26-.63-.57-.71a1,1,0,0,0-.83.3,12.16,12.16,0,0,0-2.55,2.76.81.81,0,0,0-.18.7.77.77,0,0,0,.56.36,5.6,5.6,0,0,0,2.41.07,1.47,1.47,0,0,0-1-.7,4.17,4.17,0,0,1-.51-.08.41.41,0,0,1-.3-.37.54.54,0,0,1,.21-.34A9.5,9.5,0,0,0,282,12c.11-.17.31-.32.49-.24a.48.48,0,0,1,.23.32c.42,1.1.8,2.21,1.24,3.29a.77.77,0,0,1,.08.53.64.64,0,0,1-.62.3c-.39,0-.7.18-1.08.22l-4.61.55a1,1,0,0,1-.86-.18.91.91,0,0,1-.13-.63c0-1.64.09-3.27.13-4.91a2.36,2.36,0,0,1,.25-1.21c.36-.59,1.67-.54,2.29-.68l3.08-.71a1.83,1.83,0,0,1,1.57.05,8.49,8.49,0,0,1,1.48,2.23l3.34,5.27a1.47,1.47,0,0,1,.32.86,1.14,1.14,0,0,1-.06.25c-.34.89-1.95,1.81-2.59,2.32-1.1.86-2.22,1.7-3.26,2.63-.33.29-.72.49-1.07.75a1.62,1.62,0,0,1-2,0c-2.46-1.4-5-2.75-7.41-4.14a10.65,10.65,0,0,1-1.22-.9c-1.1-.86-.48-2.58-.37-3.79.15-1.5.29-3,.44-4.49.09-1,0-2.19.67-3a7.5,7.5,0,0,1,2.23-1.33c1.28-.69,2.58-1.34,3.84-2.07S281.77.73,283.15,2c1.08,1,2.26,1.92,3.38,2.86s2.44,2,3.7,2.9a1.58,1.58,0,0,0,.68.35.55.55,0,0,0,.62-.33c.09-.3-.17-.58-.41-.78l-5.4-4.53C284.85,1.78,284,1,283.1.34c-.74-.57-1.32-.33-2.07.07Zm30.45,1.55c1.24.76,2.46,1.56,3.72,2.29s3.88,1.63,3.45,3.49c-.34,1.43-.54,2.91-.79,4.35s-.49,3.1-.67,4.66a1.76,1.76,0,0,0,0,.76.58.58,0,0,0,.6.38c.3-.07.41-.45.47-.76q.62-3.46,1.22-6.94c.2-1.11.44-2.23.58-3.35.11-.93-.38-1.3-1.11-1.76L312.9,5l-4.49-2.74c-.61-.38-1.24-.93-1.87-1.24s-1.67.33-2.31.61q-1.41.61-2.82,1.26c-1.79.81-3.63,1.59-5.38,2.5a2.19,2.19,0,0,0-1.13,2.17c0,1.2,0,2.41,0,3.62v4.14a12.86,12.86,0,0,0,.17,3.51c.33,1,1.55,1.52,2.48,1.88,2,.77,4.11,1.43,6.09,2.31a7,7,0,0,0,1.88.79c.67,0,.9-.53,1.2-1,1.53-2.65,3-5.35,4.33-8.09a2.69,2.69,0,0,0,.35-1.08c.05-1.29-1.48-2.63-2.29-3.46a21.17,21.17,0,0,1-2.2-2.45,1.63,1.63,0,0,0-1.07-.79,1.85,1.85,0,0,0-1.08.35l-6,3.41a1.07,1.07,0,0,0-.47.42,1,1,0,0,0,.24.9c.76,1.14,1.56,2.24,2.41,3.32.6.77,1.23,1.53,1.85,2.28a2.08,2.08,0,0,0,1,.82c.78.21,1.36-.92,1.75-1.4.71-.85,1.41-1.71,2.11-2.56a1,1,0,0,0,.34-.85c-.07-.3-.39-.46-.68-.57a12.15,12.15,0,0,0-3.66-.82.78.78,0,0,0-.7.19.73.73,0,0,0,0,.66,5.53,5.53,0,0,0,1.14,2.12,1.46,1.46,0,0,0,.1-1.24,2.18,2.18,0,0,1-.19-.48.4.4,0,0,1,.17-.44.55.55,0,0,1,.4,0,9.33,9.33,0,0,0,1.81.42c.19,0,.42.11.45.3a.54.54,0,0,1-.16.37c-.75.91-1.52,1.79-2.23,2.72a.81.81,0,0,1-.43.33c-.24,0-.44-.18-.57-.38s-.5-.52-.73-.83L300,12.18c-.18-.25-.37-.55-.27-.83a.92.92,0,0,1,.48-.43l4.32-2.34a2.27,2.27,0,0,1,1.17-.39c.69,0,1.3,1.18,1.74,1.64l2.15,2.31c.36.4.81.81.74,1.39a8.54,8.54,0,0,1-1.19,2.4l-2.9,5.53a1.41,1.41,0,0,1-.58.69.92.92,0,0,1-.25.08c-.94.16-2.54-.78-3.3-1.08-1.3-.52-2.58-1.07-3.91-1.51-.41-.14-.78-.38-1.18-.55a1.63,1.63,0,0,1-1-1.73c0-2.82-.09-5.65-.12-8.48A11.26,11.26,0,0,1,296,7.37c.19-1.38,2-1.71,3.1-2.21l4.1-1.87c.91-.41,1.88-1.11,2.92-.91A7.22,7.22,0,0,1,308.39,3.65ZM214,22.06c1.06-.39,2.14-.74,3.18-1.18.87-.36.95-1,1-1.84,0-1.17.06-2.34.09-3.51l.12-5.26c0-.71.19-1.54.14-2.23s-1.12-1.29-1.68-1.7l-2.5-1.81c-1.6-1.15-3.2-2.35-4.86-3.41a2.16,2.16,0,0,0-2.44.1c-1,.61-2.1,1.21-3.14,1.81L200.27,5.1a12.71,12.71,0,0,0-3,1.91c-.73.8-.54,2.1-.39,3.08.35,2.14.82,4.27,1.05,6.43a7.13,7.13,0,0,0,.25,2c.3.61.91.52,1.51.52,3.06,0,6.12-.07,9.17-.29a2.8,2.8,0,0,0,1.11-.24c1.14-.59,1.53-2.59,1.85-3.71a21.19,21.19,0,0,1,1-3.13,1.65,1.65,0,0,0,.14-1.33,1.89,1.89,0,0,0-.84-.76l-5.93-3.45a1,1,0,0,0-.6-.19c-.32,0-.52.36-.66.65-.6,1.23-1.16,2.48-1.67,3.74-.36.91-.71,1.83-1,2.75a2.2,2.2,0,0,0-.2,1.3c.21.78,1.48.71,2.09.81l3.28.55a1,1,0,0,0,.9-.13,1,1,0,0,0,.15-.88,11.93,11.93,0,0,0-1.12-3.58c-.11-.22-.26-.47-.51-.51a.76.76,0,0,0-.59.3A5.56,5.56,0,0,0,205,13a1.49,1.49,0,0,0,1.13-.54,2.55,2.55,0,0,1,.32-.4.42.42,0,0,1,.47-.08.58.58,0,0,1,.19.35,10.46,10.46,0,0,0,.53,1.78c.09.18.12.42,0,.54a.5.5,0,0,1-.4,0c-1.16-.19-2.31-.41-3.47-.57a.7.7,0,0,1-.49-.2.66.66,0,0,1,0-.69,9.77,9.77,0,0,0,.35-1l1.83-4.27c.12-.28.29-.6.59-.65a.93.93,0,0,1,.61.2l4.19,2.57a2.43,2.43,0,0,1,.92.82c.33.61-.37,1.72-.56,2.33-.3,1-.61,2-.92,3-.17.52-.29,1.11-.83,1.34a8.49,8.49,0,0,1-2.67.17l-6.24.26a1.42,1.42,0,0,1-.89-.16,1.12,1.12,0,0,1-.2-.18c-.6-.73-.59-2.59-.71-3.4-.2-1.38-.36-2.77-.65-4.14-.08-.42-.06-.87-.11-1.3a1.63,1.63,0,0,1,1-1.74c2.44-1.43,4.85-2.91,7.29-4.35a10.78,10.78,0,0,1,1.39-.6c1.29-.53,2.48.87,3.47,1.58l3.66,2.61c.82.58,1.91,1.08,2.25,2.07a7.57,7.57,0,0,1,0,2.6c-.05,1.45-.13,2.91-.13,4.36s.53,4.18-1.3,4.73c-1.4.43-2.78,1-4.16,1.5s-2.93,1.12-4.37,1.75a1.6,1.6,0,0,0-.64.41.57.57,0,0,0,0,.71c.22.23.6.14.89,0Zm14.79-.34c-1.24-.77-2.46-1.57-3.71-2.29s-3.89-1.64-3.46-3.49c.34-1.43.54-2.91.8-4.36s.49-3.1.66-4.66a1.58,1.58,0,0,0,0-.75.55.55,0,0,0-.59-.38c-.31.07-.42.44-.47.75l-1.23,6.94c-.2,1.12-.43,2.23-.57,3.35-.12.93.37,1.31,1.1,1.76,1,.62,2,1.22,3,1.83l4.49,2.74c.62.37,1.24.93,1.87,1.23s1.67-.32,2.31-.6l2.82-1.26c1.8-.81,3.63-1.59,5.38-2.5a2.19,2.19,0,0,0,1.14-2.17c0-1.21,0-2.42,0-3.62V10.1a12.48,12.48,0,0,0-.18-3.51c-.33-1-1.55-1.53-2.47-1.88-2-.77-4.11-1.43-6.1-2.31a7,7,0,0,0-1.88-.79c-.66-.05-.9.53-1.2,1-1.53,2.65-3,5.34-4.33,8.09a3,3,0,0,0-.35,1.08c-.05,1.28,1.48,2.62,2.29,3.46a20.38,20.38,0,0,1,2.2,2.45,1.68,1.68,0,0,0,1.08.79,1.91,1.91,0,0,0,1.08-.36l6-3.41a.94.94,0,0,0,.46-.42,1,1,0,0,0-.24-.9c-.76-1.13-1.56-2.24-2.4-3.31-.61-.77-1.23-1.53-1.86-2.29a2.2,2.2,0,0,0-1-.82c-.78-.2-1.35.93-1.75,1.41-.7.85-1.41,1.7-2.11,2.56-.2.24-.42.54-.34.84s.4.47.68.58a12.46,12.46,0,0,0,3.66.82.77.77,0,0,0,.7-.19.76.76,0,0,0,0-.66A5.59,5.59,0,0,0,233,10.24a1.48,1.48,0,0,0-.09,1.25,2.78,2.78,0,0,1,.18.48.41.41,0,0,1-.17.44.55.55,0,0,1-.4,0,10.25,10.25,0,0,0-1.8-.43c-.2,0-.43-.1-.45-.3a.48.48,0,0,1,.16-.36c.74-.91,1.51-1.8,2.23-2.72a.72.72,0,0,1,.42-.33c.24,0,.44.18.57.38a9.68,9.68,0,0,0,.73.82l2.78,3.73a.91.91,0,0,1,.27.83.9.9,0,0,1-.47.43l-4.32,2.34a2.43,2.43,0,0,1-1.18.39c-.69,0-1.3-1.18-1.74-1.65l-2.14-2.31c-.37-.4-.82-.8-.75-1.38a8.41,8.41,0,0,1,1.19-2.4L231,3.91a1.48,1.48,0,0,1,.58-.7,1,1,0,0,1,.25-.07c.94-.16,2.54.77,3.3,1.08,1.3.52,2.58,1.07,3.91,1.51.41.13.78.38,1.19.55a1.64,1.64,0,0,1,1,1.72c0,2.83.09,5.66.11,8.48a9.56,9.56,0,0,1-.17,1.51c-.19,1.39-2,1.71-3.1,2.22l-4.1,1.86c-.91.42-1.88,1.12-2.92.91A7.52,7.52,0,0,1,228.76,21.72Zm20.46-2.67c-.81-.58-1.91-1.07-2.25-2.07a7.51,7.51,0,0,1,0-2.59c0-1.45.12-2.91.12-4.36s-.52-4.19,1.3-4.74c1.41-.42,2.79-1,4.17-1.49s2.93-1.12,4.36-1.75a1.66,1.66,0,0,0,.64-.42.55.55,0,0,0,0-.7c-.21-.23-.59-.14-.89,0l-6.62,2.41c-1.06.38-2.15.74-3.19,1.18-.86.36-.94,1-1,1.83,0,1.17,0,2.34-.08,3.52,0,1.75-.09,3.5-.13,5.25,0,.72-.18,1.54-.13,2.24s1.12,1.29,1.68,1.7l2.5,1.81c1.6,1.15,3.19,2.35,4.85,3.41a2.19,2.19,0,0,0,2.45-.1c1-.62,2.09-1.21,3.14-1.81l3.58-2.07a12.65,12.65,0,0,0,2.95-1.91c.74-.8.55-2.11.39-3.08-.34-2.15-.81-4.28-1-6.43a6.9,6.9,0,0,0-.26-2c-.29-.6-.91-.52-1.5-.52-3.06,0-6.13.08-9.17.3a2.76,2.76,0,0,0-1.11.23c-1.14.6-1.53,2.6-1.85,3.72a21.23,21.23,0,0,1-1,3.13A1.62,1.62,0,0,0,251,15a1.86,1.86,0,0,0,.85.76l5.93,3.46a1.07,1.07,0,0,0,.6.19c.32,0,.51-.37.65-.66.61-1.22,1.16-2.47,1.67-3.74.37-.91.71-1.83,1.06-2.75a2.15,2.15,0,0,0,.19-1.29c-.21-.78-1.47-.71-2.09-.82l-3.27-.54a1,1,0,0,0-.9.13,1,1,0,0,0-.16.87,12.34,12.34,0,0,0,1.12,3.58c.11.23.27.48.52.51a.75.75,0,0,0,.59-.3A5.5,5.5,0,0,0,259,12.35a1.44,1.44,0,0,0-1.12.54,3.12,3.12,0,0,1-.32.4.41.41,0,0,1-.48.07.6.6,0,0,1-.19-.35,9,9,0,0,0-.53-1.77c-.08-.18-.12-.43,0-.55a.52.52,0,0,1,.39,0c1.16.2,2.31.42,3.48.57a.71.71,0,0,1,.49.21.63.63,0,0,1,0,.68c-.18.35-.19.69-.34,1-.62,1.43-1.23,2.85-1.84,4.28-.12.28-.28.59-.58.64a.91.91,0,0,1-.61-.19l-4.19-2.57a2.47,2.47,0,0,1-.93-.82c-.32-.61.37-1.72.56-2.33l.93-3c.16-.52.29-1.11.83-1.33a8.78,8.78,0,0,1,2.67-.18l6.24-.25a1.5,1.5,0,0,1,.89.15,1.07,1.07,0,0,1,.19.18c.61.74.6,2.59.71,3.41.2,1.38.37,2.77.65,4.13.09.43.06.87.12,1.3a1.65,1.65,0,0,1-1,1.75c-2.45,1.43-4.86,2.9-7.29,4.34a9.59,9.59,0,0,1-1.39.61c-1.3.53-2.48-.87-3.47-1.58Zm-60.79,3c1.06-.39,2.15-.74,3.19-1.18.86-.36.94-1,1-1.84,0-1.17,0-2.34.08-3.51,0-1.75.09-3.51.13-5.26,0-.71.18-1.54.13-2.23s-1.12-1.29-1.67-1.7l-2.51-1.81c-1.6-1.15-3.19-2.35-4.85-3.41a2.17,2.17,0,0,0-2.45.1c-1,.61-2.09,1.21-3.14,1.81L174.73,5.1A12.65,12.65,0,0,0,171.78,7c-.74.8-.55,2.1-.39,3.08.34,2.14.81,4.27,1,6.43a7.13,7.13,0,0,0,.26,2c.29.61.91.52,1.5.52,3.06,0,6.13-.07,9.17-.29a2.76,2.76,0,0,0,1.11-.24c1.14-.59,1.53-2.59,1.85-3.71a21.23,21.23,0,0,1,1-3.13,1.65,1.65,0,0,0,.14-1.33,1.94,1.94,0,0,0-.84-.76l-5.94-3.45a.93.93,0,0,0-.6-.19c-.32,0-.51.36-.65.65-.61,1.23-1.16,2.48-1.67,3.74-.37.91-.71,1.83-1,2.75a2.12,2.12,0,0,0-.2,1.3c.21.78,1.47.71,2.09.81l3.27.55a1,1,0,0,0,.9-.13,1,1,0,0,0,.16-.88,12.53,12.53,0,0,0-1.12-3.58c-.11-.22-.27-.47-.52-.51a.78.78,0,0,0-.59.3A5.54,5.54,0,0,0,179.47,13a1.47,1.47,0,0,0,1.12-.54,2.55,2.55,0,0,1,.32-.4.43.43,0,0,1,.48-.08.64.64,0,0,1,.19.35,8.92,8.92,0,0,0,.53,1.78c.08.18.12.42,0,.54a.48.48,0,0,1-.39,0c-1.16-.19-2.31-.41-3.47-.57a.71.71,0,0,1-.5-.2.65.65,0,0,1,0-.69c.18-.34.19-.69.34-1,.62-1.42,1.23-2.85,1.84-4.27.12-.28.28-.6.59-.65a.91.91,0,0,1,.6.2l4.19,2.57a2.39,2.39,0,0,1,.93.82c.32.61-.37,1.72-.56,2.33l-.93,3c-.16.52-.29,1.11-.83,1.34a8.48,8.48,0,0,1-2.67.17L175,18a1.43,1.43,0,0,1-.89-.16,1.07,1.07,0,0,1-.19-.18c-.61-.73-.6-2.59-.71-3.4-.2-1.38-.37-2.77-.65-4.14-.09-.42-.06-.87-.12-1.3a1.64,1.64,0,0,1,1-1.74c2.45-1.43,4.86-2.91,7.29-4.35a12.14,12.14,0,0,1,1.39-.6c1.3-.53,2.48.87,3.47,1.58l3.67,2.61c.81.58,1.91,1.08,2.25,2.07a7.57,7.57,0,0,1,0,2.6c0,1.45-.12,2.91-.12,4.36s.52,4.18-1.3,4.73c-1.41.43-2.79,1-4.17,1.5s-2.93,1.12-4.36,1.75a1.54,1.54,0,0,0-.64.41.56.56,0,0,0,0,.71c.21.23.59.14.89,0Zm-121.89,0c1.06-.39,2.14-.74,3.18-1.18.87-.36,1-1,1-1.84,0-1.17.06-2.34.09-3.51l.12-5.26c0-.71.19-1.54.14-2.23s-1.12-1.29-1.68-1.7l-2.5-1.81c-1.6-1.15-3.2-2.35-4.86-3.41a2.16,2.16,0,0,0-2.44.1c-1,.61-2.1,1.21-3.14,1.81L52.84,5.1a12.71,12.71,0,0,0-3,1.91c-.74.8-.54,2.1-.39,3.08.35,2.14.81,4.27,1,6.43a7.13,7.13,0,0,0,.25,2c.3.61.91.52,1.51.52,3.06,0,6.12-.07,9.17-.29a2.8,2.8,0,0,0,1.11-.24c1.14-.59,1.53-2.59,1.84-3.71a21.23,21.23,0,0,1,1-3.13,1.65,1.65,0,0,0,.14-1.33,1.94,1.94,0,0,0-.84-.76L58.81,6.15A.93.93,0,0,0,58.22,6c-.32,0-.52.36-.66.65-.6,1.23-1.16,2.48-1.67,3.74-.36.91-.71,1.83-1,2.75a2.2,2.2,0,0,0-.2,1.3c.21.78,1.48.71,2.09.81l3.27.55a1.06,1.06,0,0,0,.91-.13,1,1,0,0,0,.15-.88,12.53,12.53,0,0,0-1.12-3.58c-.11-.22-.26-.47-.51-.51a.76.76,0,0,0-.59.3A5.56,5.56,0,0,0,57.57,13a1.49,1.49,0,0,0,1.13-.54,2.08,2.08,0,0,1,.32-.4.42.42,0,0,1,.47-.08.58.58,0,0,1,.19.35,9.63,9.63,0,0,0,.53,1.78c.09.18.12.42,0,.54a.5.5,0,0,1-.4,0c-1.16-.19-2.31-.41-3.47-.57a.7.7,0,0,1-.49-.2.66.66,0,0,1,0-.69c.18-.34.2-.69.35-1L58,7.94c.12-.28.29-.6.59-.65a1,1,0,0,1,.61.2l4.19,2.57a2.43,2.43,0,0,1,.92.82c.33.61-.37,1.72-.56,2.33-.31,1-.61,2-.93,3-.16.52-.28,1.11-.82,1.34a8.49,8.49,0,0,1-2.67.17L53.13,18a1.46,1.46,0,0,1-.9-.16,1.07,1.07,0,0,1-.19-.18c-.6-.73-.59-2.59-.71-3.4-.2-1.38-.36-2.77-.65-4.14-.08-.42-.06-.87-.11-1.3a1.62,1.62,0,0,1,1-1.74C54,5.64,56.4,4.16,58.84,2.72a10.78,10.78,0,0,1,1.39-.6C61.52,1.59,62.7,3,63.7,3.7l3.66,2.61c.81.58,1.91,1.08,2.25,2.07a7.33,7.33,0,0,1,0,2.6c0,1.45-.12,2.91-.12,4.36s.53,4.18-1.3,4.73c-1.4.43-2.79,1-4.17,1.5s-2.92,1.12-4.36,1.75a1.6,1.6,0,0,0-.64.41.57.57,0,0,0,0,.71c.22.23.59.14.89,0ZM125.89,4.62c-.62.34-1.42.61-2,1s-.55,1.61-.63,2.3c-.11,1-.22,2.05-.32,3.07-.19,2-.43,3.94-.52,5.91A2.18,2.18,0,0,0,123.73,19c1,.59,2.09,1.21,3.14,1.81l3.58,2.07a12.35,12.35,0,0,0,3.13,1.6c1.06.24,2.09-.58,2.86-1.2,1.69-1.37,3.3-2.84,5.05-4.12.49-.39,1.27-.7,1.62-1.23s0-1-.3-1.56c-1.53-2.65-3.13-5.27-4.84-7.8a2.67,2.67,0,0,0-.76-.84c-1.09-.69-3,0-4.14.25a20.06,20.06,0,0,1-3.22.68,1.64,1.64,0,0,0-1.22.54,1.84,1.84,0,0,0-.24,1.11c0,2.29,0,4.58,0,6.87a1,1,0,0,0,.13.61,1,1,0,0,0,.9.24c1.36-.09,2.72-.23,4.07-.42,1-.14,1.94-.3,2.91-.47a2.18,2.18,0,0,0,1.22-.47c.57-.57-.12-1.64-.34-2.22-.39-1-.78-2.07-1.16-3.11-.12-.29-.26-.63-.57-.71a1,1,0,0,0-.84.3,12.35,12.35,0,0,0-2.54,2.76.78.78,0,0,0-.18.7.77.77,0,0,0,.55.36,5.65,5.65,0,0,0,2.42.07,1.47,1.47,0,0,0-1-.7,4.33,4.33,0,0,1-.5-.08.41.41,0,0,1-.3-.37.54.54,0,0,1,.21-.34A10.11,10.11,0,0,0,134.58,12c.11-.17.31-.32.49-.24a.52.52,0,0,1,.23.32c.41,1.1.8,2.21,1.24,3.29a.71.71,0,0,1,.07.53.62.62,0,0,1-.61.3c-.4,0-.7.18-1.08.22l-4.62.55a.93.93,0,0,1-.85-.18.91.91,0,0,1-.13-.63c0-1.64.08-3.27.13-4.91A2.36,2.36,0,0,1,129.7,10c.36-.59,1.67-.54,2.29-.68l3.08-.71a1.83,1.83,0,0,1,1.57.05,8.49,8.49,0,0,1,1.48,2.23l3.34,5.27a1.4,1.4,0,0,1,.31.86.74.74,0,0,1-.05.25c-.34.89-1.95,1.81-2.59,2.32-1.1.86-2.22,1.7-3.26,2.63-.33.29-.73.49-1.07.75a1.62,1.62,0,0,1-2,0c-2.46-1.4-5-2.75-7.41-4.14a10.65,10.65,0,0,1-1.22-.9c-1.1-.86-.48-2.58-.37-3.79.15-1.5.29-3,.44-4.49.09-1,0-2.19.66-3a7.55,7.55,0,0,1,2.24-1.33c1.27-.69,2.58-1.34,3.83-2.07S134.33.73,135.72,2C136.79,3,138,4,139.1,4.9s2.44,2,3.7,2.9a1.53,1.53,0,0,0,.68.35.55.55,0,0,0,.62-.33c.09-.3-.17-.58-.42-.78l-5.39-4.53c-.87-.73-1.72-1.49-2.62-2.17-.75-.57-1.32-.33-2.08.07L130.51,2.1ZM81.33,21.72c-1.24-.77-2.46-1.57-3.71-2.29s-3.89-1.64-3.46-3.49c.34-1.43.54-2.91.79-4.36s.5-3.1.67-4.66a1.58,1.58,0,0,0,0-.75A.55.55,0,0,0,75,5.79c-.31.07-.42.44-.48.75q-.6,3.48-1.22,6.94c-.2,1.12-.44,2.23-.58,3.35-.11.93.38,1.31,1.11,1.76,1,.62,2,1.22,3,1.83l4.49,2.74c.61.37,1.24.93,1.87,1.23s1.67-.32,2.31-.6l2.82-1.26c1.8-.81,3.63-1.59,5.38-2.5a2.19,2.19,0,0,0,1.14-2.17c0-1.21,0-2.42,0-3.62,0-1.38,0-2.76,0-4.14a12.86,12.86,0,0,0-.17-3.51c-.33-1-1.55-1.53-2.47-1.88-2-.77-4.11-1.43-6.1-2.31a7,7,0,0,0-1.88-.79c-.67-.05-.9.53-1.2,1C81.47,5.3,80,8,78.67,10.74a2.64,2.64,0,0,0-.35,1.08c0,1.28,1.48,2.62,2.29,3.46a20.38,20.38,0,0,1,2.2,2.45,1.66,1.66,0,0,0,1.08.79A1.91,1.91,0,0,0,85,18.16l6-3.41a.92.92,0,0,0,.47-.42,1,1,0,0,0-.24-.9c-.76-1.13-1.56-2.24-2.4-3.31-.61-.77-1.23-1.53-1.86-2.29a2.2,2.2,0,0,0-1-.82c-.78-.2-1.36.93-1.75,1.41-.7.85-1.41,1.7-2.11,2.56-.2.24-.42.54-.34.84a1,1,0,0,0,.68.58,12.46,12.46,0,0,0,3.66.82.78.78,0,0,0,.7-.19.76.76,0,0,0,0-.66,5.59,5.59,0,0,0-1.15-2.13,1.44,1.44,0,0,0-.09,1.25,2.78,2.78,0,0,1,.18.48.41.41,0,0,1-.17.44.55.55,0,0,1-.4,0,10.25,10.25,0,0,0-1.8-.43c-.2,0-.43-.1-.46-.3a.53.53,0,0,1,.17-.36c.74-.91,1.51-1.8,2.23-2.72a.72.72,0,0,1,.42-.33c.24,0,.44.18.57.38a9.68,9.68,0,0,0,.73.82l2.78,3.73c.18.24.38.55.27.83a.88.88,0,0,1-.48.43l-4.32,2.34a2.36,2.36,0,0,1-1.17.39c-.69,0-1.3-1.18-1.74-1.65l-2.14-2.31c-.37-.4-.82-.8-.75-1.38a8.41,8.41,0,0,1,1.19-2.4l2.9-5.53a1.48,1.48,0,0,1,.58-.7,1,1,0,0,1,.25-.07c.94-.16,2.54.77,3.3,1.08,1.3.52,2.58,1.07,3.91,1.51.41.13.78.38,1.18.55a1.62,1.62,0,0,1,1,1.72c0,2.83.09,5.66.12,8.48A9.56,9.56,0,0,1,93.71,18c-.19,1.39-2,1.71-3.1,2.22l-4.1,1.86c-.91.42-1.88,1.12-2.92.91A7.4,7.4,0,0,1,81.33,21.72ZM102.62,3.31c-1.06.38-2.15.74-3.19,1.18-.86.36-.94,1-1,1.83,0,1.17-.06,2.34-.08,3.52,0,1.75-.09,3.5-.13,5.25,0,.72-.18,1.54-.14,2.24s1.12,1.29,1.68,1.7l2.5,1.81c1.61,1.15,3.2,2.35,4.86,3.41a2.19,2.19,0,0,0,2.45-.1c1-.62,2.09-1.21,3.14-1.81l3.58-2.07a12.86,12.86,0,0,0,3-1.91c.74-.8.55-2.11.39-3.08-.34-2.15-.81-4.28-1-6.43a7.25,7.25,0,0,0-.26-2c-.29-.6-.91-.52-1.5-.52-3.06,0-6.13.08-9.17.3a2.84,2.84,0,0,0-1.12.23c-1.13.6-1.53,2.6-1.84,3.72a21.23,21.23,0,0,1-1,3.13,1.62,1.62,0,0,0-.14,1.32,1.88,1.88,0,0,0,.84.76l5.94,3.46a1.07,1.07,0,0,0,.6.19c.32,0,.51-.37.65-.66.6-1.22,1.16-2.47,1.67-3.74.37-.91.71-1.83,1-2.75a2.08,2.08,0,0,0,.2-1.29c-.21-.78-1.47-.71-2.09-.82l-3.27-.54a1,1,0,0,0-.9.13,1,1,0,0,0-.16.87,12.34,12.34,0,0,0,1.12,3.58c.11.23.27.48.52.51a.73.73,0,0,0,.58-.3,5.4,5.4,0,0,0,1.27-2.05,1.43,1.43,0,0,0-1.12.54,3.19,3.19,0,0,1-.33.4.4.4,0,0,1-.47.07.6.6,0,0,1-.19-.35,9,9,0,0,0-.53-1.77c-.08-.18-.12-.43,0-.55a.52.52,0,0,1,.39,0c1.16.2,2.31.42,3.47.57a.76.76,0,0,1,.5.21.63.63,0,0,1,0,.68c-.18.35-.19.69-.35,1l-1.83,4.28c-.12.28-.29.59-.59.64a.94.94,0,0,1-.61-.19l-4.18-2.57a2.47,2.47,0,0,1-.93-.82c-.32-.61.37-1.72.56-2.33l.93-3c.16-.52.28-1.11.83-1.33a8.78,8.78,0,0,1,2.67-.18L116,7.38a1.5,1.5,0,0,1,.89.15,1.07,1.07,0,0,1,.19.18c.61.74.6,2.59.71,3.41.2,1.38.37,2.77.65,4.13.09.43.06.87.12,1.3a1.64,1.64,0,0,1-1,1.75c-2.44,1.43-4.85,2.9-7.28,4.34a10.66,10.66,0,0,1-1.39.61c-1.3.53-2.48-.87-3.47-1.58l-3.67-2.62C101,18.47,99.88,18,99.54,17a7.27,7.27,0,0,1,0-2.59c0-1.45.12-2.91.12-4.36s-.52-4.19,1.3-4.74c1.41-.42,2.79-1,4.17-1.49s2.93-1.12,4.36-1.75a1.66,1.66,0,0,0,.64-.42.56.56,0,0,0,0-.7c-.22-.23-.59-.14-.89,0ZM161,3.65c1.24.76,2.46,1.56,3.72,2.29s3.88,1.63,3.45,3.49c-.34,1.43-.54,2.91-.79,4.35s-.5,3.1-.67,4.66a1.62,1.62,0,0,0,0,.76.58.58,0,0,0,.6.38c.3-.07.41-.45.47-.76.41-2.31.81-4.62,1.22-6.94.2-1.11.44-2.23.58-3.35.11-.93-.38-1.3-1.11-1.76l-3-1.82L161,2.21c-.61-.38-1.24-.93-1.87-1.24s-1.67.33-2.31.61q-1.41.61-2.82,1.26c-1.79.81-3.63,1.59-5.38,2.5a2.19,2.19,0,0,0-1.14,2.17c0,1.2,0,2.41,0,3.62,0,1.38,0,2.76,0,4.14a12.86,12.86,0,0,0,.17,3.51c.33,1,1.55,1.52,2.47,1.88,2,.77,4.11,1.43,6.1,2.31a7,7,0,0,0,1.88.79c.67,0,.9-.53,1.2-1,1.53-2.65,3-5.35,4.33-8.09a2.69,2.69,0,0,0,.35-1.08c.05-1.29-1.48-2.63-2.29-3.46a21.17,21.17,0,0,1-2.2-2.45,1.62,1.62,0,0,0-1.08-.79,1.9,1.9,0,0,0-1.08.35l-5.95,3.41a1,1,0,0,0-.47.42,1,1,0,0,0,.24.9c.76,1.14,1.56,2.24,2.4,3.32q.92,1.16,1.86,2.28a2.08,2.08,0,0,0,1,.82c.78.21,1.36-.92,1.75-1.4.71-.85,1.41-1.71,2.11-2.56a1,1,0,0,0,.34-.85,1,1,0,0,0-.68-.57,12.15,12.15,0,0,0-3.66-.82.78.78,0,0,0-.7.19.76.76,0,0,0,0,.66,5.69,5.69,0,0,0,1.15,2.12,1.42,1.42,0,0,0,.09-1.24,2.78,2.78,0,0,1-.18-.48.4.4,0,0,1,.17-.44.55.55,0,0,1,.4,0,9.4,9.4,0,0,0,1.8.42c.2,0,.43.11.46.3a.59.59,0,0,1-.16.37c-.75.91-1.52,1.79-2.24,2.72a.76.76,0,0,1-.42.33c-.24,0-.44-.18-.57-.38s-.5-.52-.73-.83l-2.78-3.72c-.18-.25-.38-.55-.27-.83a.88.88,0,0,1,.48-.43l4.32-2.34a2.27,2.27,0,0,1,1.17-.39c.69,0,1.3,1.18,1.74,1.64l2.14,2.31c.37.4.82.81.75,1.39a8.54,8.54,0,0,1-1.19,2.4l-2.9,5.53a1.41,1.41,0,0,1-.58.69,1,1,0,0,1-.25.08c-.94.16-2.54-.78-3.3-1.08-1.3-.52-2.58-1.07-3.91-1.51-.41-.14-.78-.38-1.18-.55a1.63,1.63,0,0,1-1-1.73c0-2.82-.09-5.65-.12-8.48a9.83,9.83,0,0,1,.17-1.51c.19-1.38,2-1.71,3.1-2.21l4.1-1.87c.91-.41,1.88-1.11,2.92-.91A7.22,7.22,0,0,1,161,3.65ZM41,22.06c1.06-.39,2.15-.74,3.19-1.18.86-.36.94-1,1-1.84,0-1.17.05-2.34.08-3.51,0-1.75.08-3.51.13-5.26,0-.71.18-1.54.13-2.23s-1.12-1.29-1.68-1.7l-2.5-1.81c-1.6-1.15-3.19-2.35-4.85-3.41a2.17,2.17,0,0,0-2.45.1C33,1.83,31.93,2.43,30.88,3L27.3,5.1A12.65,12.65,0,0,0,24.35,7c-.74.8-.55,2.1-.39,3.08.34,2.14.81,4.27,1,6.43a6.79,6.79,0,0,0,.26,2c.29.61.91.52,1.5.52,3.06,0,6.13-.07,9.17-.29A2.76,2.76,0,0,0,37,18.53c1.14-.59,1.53-2.59,1.85-3.71a20.11,20.11,0,0,1,1-3.13,1.65,1.65,0,0,0,.14-1.33,1.91,1.91,0,0,0-.85-.76L33.28,6.15a1,1,0,0,0-.6-.19c-.32,0-.51.36-.66.65-.6,1.23-1.15,2.48-1.66,3.74-.37.91-.71,1.83-1.06,2.75a2.19,2.19,0,0,0-.19,1.3c.21.78,1.47.71,2.09.81l3.27.55a1,1,0,0,0,.9-.13,1,1,0,0,0,.16-.88,12.53,12.53,0,0,0-1.12-3.58c-.11-.22-.27-.47-.52-.51a.78.78,0,0,0-.59.3A5.54,5.54,0,0,0,32,13a1.47,1.47,0,0,0,1.12-.54,2.55,2.55,0,0,1,.32-.4A.42.42,0,0,1,34,12a.53.53,0,0,1,.19.35,9.65,9.65,0,0,0,.54,1.78c.08.18.12.42,0,.54a.48.48,0,0,1-.39,0c-1.16-.19-2.31-.41-3.48-.57a.7.7,0,0,1-.49-.2.66.66,0,0,1,0-.69,9.77,9.77,0,0,0,.35-1l1.84-4.27c.12-.28.28-.6.58-.65a.92.92,0,0,1,.61.2l4.19,2.57a2.29,2.29,0,0,1,.92.82c.33.61-.36,1.72-.55,2.33l-.93,3c-.16.52-.29,1.11-.83,1.34a8.49,8.49,0,0,1-2.67.17L27.59,18a1.42,1.42,0,0,1-.89-.16,1.07,1.07,0,0,1-.19-.18c-.61-.73-.6-2.59-.72-3.4-.19-1.38-.36-2.77-.64-4.14-.09-.42-.06-.87-.12-1.3a1.64,1.64,0,0,1,1-1.74c2.45-1.43,4.86-2.91,7.29-4.35a10.78,10.78,0,0,1,1.39-.6C36,1.59,37.17,3,38.16,3.7l3.67,2.61c.81.58,1.91,1.08,2.25,2.07a7.57,7.57,0,0,1,0,2.6c0,1.45-.13,2.91-.13,4.36s.53,4.18-1.29,4.73c-1.41.43-2.79,1-4.17,1.5s-2.93,1.12-4.37,1.75a1.57,1.57,0,0,0-.63.41.56.56,0,0,0,0,.71c.21.23.59.14.88,0Zm-29.14.66c1.53-2.65,3-5.35,4.33-8.09a3,3,0,0,0,.35-1.08c.05-1.29-1.48-2.63-2.29-3.46a21.17,21.17,0,0,1-2.2-2.45A1.65,1.65,0,0,0,11,6.85a1.9,1.9,0,0,0-1.08.35l-6,3.41a1,1,0,0,0-.46.42,1,1,0,0,0,.24.9c.76,1.14,1.56,2.24,2.4,3.32Q7,16.41,8,17.53a2.08,2.08,0,0,0,1,.82c.78.21,1.35-.92,1.75-1.4l2.11-2.56a1,1,0,0,0,.34-.85,1,1,0,0,0-.68-.57,12.15,12.15,0,0,0-3.66-.82.77.77,0,0,0-.7.19.76.76,0,0,0,0,.66,5.55,5.55,0,0,0,1.15,2.12,1.46,1.46,0,0,0,.09-1.24,2.78,2.78,0,0,1-.18-.48A.4.4,0,0,1,9.34,13a.55.55,0,0,1,.4,0,9.4,9.4,0,0,0,1.8.42c.2,0,.43.11.45.3a.5.5,0,0,1-.16.37c-.74.91-1.51,1.79-2.23,2.72a.76.76,0,0,1-.42.33c-.24,0-.44-.18-.57-.38s-.5-.52-.73-.83L5.1,12.18c-.18-.25-.38-.55-.27-.83a.9.9,0,0,1,.47-.43L9.62,8.58a2.33,2.33,0,0,1,1.18-.39c.69,0,1.3,1.18,1.74,1.64l2.14,2.31c.37.4.82.81.75,1.39a8.54,8.54,0,0,1-1.19,2.4l-2.9,5.53a1.41,1.41,0,0,1-.58.69,1,1,0,0,1-.25.08c-.94.16-2.54-.78-3.3-1.08-1.3-.52-2.58-1.07-3.91-1.51-.41-.14-.78-.38-1.19-.55a1.66,1.66,0,0,1-1-1.73c0-2.82-.09-5.65-.11-8.48a9.83,9.83,0,0,1,.17-1.51c.19-1.38,2-1.71,3.1-2.21l4.1-1.87c.91-.41,1.88-1.11,2.92-.91a7.22,7.22,0,0,1,2.26,1.27c1.24.76,2.46,1.56,3.71,2.29s3.89,1.63,3.46,3.49c-.34,1.43-.54,2.91-.79,4.35s-.5,3.1-.67,4.66a1.62,1.62,0,0,0,0,.76.57.57,0,0,0,.59.38c.31-.07.42-.45.47-.76l1.23-6.94c.2-1.11.43-2.23.57-3.35.12-.93-.37-1.3-1.1-1.76L18,5,13.55,2.21c-.62-.38-1.24-.93-1.87-1.24S10,1.3,9.37,1.58Q8,2.19,6.55,2.84c-1.8.81-3.63,1.59-5.38,2.5A2.19,2.19,0,0,0,0,7.51c0,1.2,0,2.41,0,3.62v4.14a12.48,12.48,0,0,0,.18,3.51c.33,1,1.55,1.52,2.47,1.88,2,.77,4.11,1.43,6.1,2.31a7,7,0,0,0,1.88.79C11.33,23.81,11.56,23.23,11.86,22.72Z"/></svg>