<svg id="a8d71077-5678-47f9-a7be-7d73cdf60bb2" data-name="Layer 1" xmlns="http://www.w3.org/2000/svg" viewBox="0 0 494.2 14.52"><defs><style>.b095b400-5807-4aa1-a15e-518ee94e3fc1{fill:#3e342f;}</style></defs><path class="b095b400-5807-4aa1-a15e-518ee94e3fc1" d="M192.06,10a8.13,8.13,0,0,1-.44-2.91L191.54,4a7.94,7.94,0,0,0-.23-2.06A2.76,2.76,0,0,0,190.13.26a2.74,2.74,0,0,0-3.45,1.13,6.46,6.46,0,0,0-.51,3.27,29.23,29.23,0,0,1,0,4c-.13.88-.53,1.89-1.4,2.09a2,2,0,0,1-2.06-1.27,10.32,10.32,0,0,1-.57-4.3c0-1.46-.39-3.08-1.6-3.9a2.75,2.75,0,0,0-2.13-.38A3.64,3.64,0,0,0,176,3.3a6.94,6.94,0,0,0-.28,2.82,12.1,12.1,0,0,1-.37,3.34,1.48,1.48,0,0,1-.64,1.06,1,1,0,0,1-1.07-.21,2.24,2.24,0,0,1-.57-1c-.65-2-.25-4.16-.85-6.14a3.87,3.87,0,0,0-.52-1.13,3,3,0,0,0-4.12-.55c-1.17,1-1.38,2.65-1.41,4.16,0,1,.22,2,.31,3s-.25,2.88-1.56,2.57-1.33-2.37-1.31-3.43c0-1.76.47-3.7-.39-5.35a3.31,3.31,0,0,0-5.82-.1c-.74,1.3-.52,2.92-.28,4.4a8.16,8.16,0,0,1,.14,3.61,1.79,1.79,0,0,1-.56,1,1.41,1.41,0,0,1-1.79-.27,3.16,3.16,0,0,1-.7-1.81c-.15-1.23,0-2.48-.12-3.71a5,5,0,0,0-1.36-3.35,3.31,3.31,0,0,0-4-.32c-2.56,1.68-1.88,5.47-1.68,8.05a4.56,4.56,0,0,1-.05,1.38,1.56,1.56,0,0,1-.81,1.06,1.66,1.66,0,0,1-1.66-.37A4.2,4.2,0,0,1,143.27,9c-.06-1.14.11-2.3,0-3.44a7.08,7.08,0,0,0-.34-1.5,2.83,2.83,0,0,0-1.46-1.8,2.34,2.34,0,0,0-2.55.84,5.4,5.4,0,0,0-1,2.68,10.42,10.42,0,0,0-.15,2.73,5.77,5.77,0,0,1,.14,2.23,2,2,0,0,1-1,1.43,1.85,1.85,0,0,1-2.06-.56,3.25,3.25,0,0,1-.68-2.14,15.68,15.68,0,0,1,.28-2.26c.25-1.6,0-3.53-1.44-4.53a3.15,3.15,0,0,0-2.81-.35,2.46,2.46,0,0,0-1,.64,3.33,3.33,0,0,0-.67,1.45,9,9,0,0,0-.21,3.06c.12,1.12.43,2.32-.09,3.32a2.23,2.23,0,0,1-1.88,1.2c-3,.12-2.13-5-2.5-6.76a3.1,3.1,0,0,0-4.15-2.42c-3.33,1-2.57,5-2.67,7.61a3.94,3.94,0,0,1-.2,1.28,1.17,1.17,0,0,1-2.1.34A4.11,4.11,0,0,1,114,9.47l-.14-2.22a4.35,4.35,0,0,0-.65-2.42A2.32,2.32,0,0,0,110,4.54c-1.86,1.6-.9,4.29-1.38,6.37-.57,2.45-2.52,1.23-2.93-.75-.06-.28-.1-.56-.14-.84s0-.76,0-1.11a11.94,11.94,0,0,0-.38-3.86A4,4,0,0,0,103.34,2,3,3,0,0,0,99.4,3.18a5.1,5.1,0,0,0-.48,2.18c-.08,1.57.22,3.12.09,4.67a1.68,1.68,0,0,1-1.14,1.68c-.64.17-1.29-.5-1.51-1.55a13.72,13.72,0,0,1-.19-1.92C96,6,96.38,2.76,93.48,2.06a3.43,3.43,0,0,0-3.72,1.65,6.85,6.85,0,0,0-.59,2.88c-.06,1.22.13,2.88-.35,4a1.33,1.33,0,0,1-.86.81,1.4,1.4,0,0,1-1.48-.8,4.38,4.38,0,0,1-.38-1.76c-.21-2.67,0-7.1-3.61-7.42a3.24,3.24,0,0,0-2.5.73,4.84,4.84,0,0,0-1.07,3.4l-.15,2.76a5.06,5.06,0,0,1-.41,2.11,1.77,1.77,0,0,1-1.74,1,1.74,1.74,0,0,1-1.2-1A5.24,5.24,0,0,1,75,8.91l-.48-3.38a7.94,7.94,0,0,0-.73-2.77A3.22,3.22,0,0,0,70,1.27c-3.39,1-2.37,5.92-2.9,8.56a2.17,2.17,0,0,1-.87,1.52,1.48,1.48,0,0,1-1.48-.1,2.54,2.54,0,0,1-1-1.21,8.35,8.35,0,0,1-.43-2.91L63.29,4a8.4,8.4,0,0,0-.23-2.06A2.71,2.71,0,0,0,61.88.27a2.73,2.73,0,0,0-3.45,1.12,6.25,6.25,0,0,0-.51,3.27,27.69,27.69,0,0,1-.05,4c-.12.88-.52,1.89-1.39,2.09a2,2,0,0,1-2.06-1.27,10.16,10.16,0,0,1-.57-4.3c-.05-1.46-.39-3.08-1.6-3.9A2.76,2.76,0,0,0,50.12.87a3.62,3.62,0,0,0-2.41,2.44,6.87,6.87,0,0,0-.28,2.81,11.74,11.74,0,0,1-.38,3.34,1.47,1.47,0,0,1-.63,1.06,1,1,0,0,1-1.07-.21,2.26,2.26,0,0,1-.58-1c-.64-2-.24-4.16-.84-6.14a3.87,3.87,0,0,0-.52-1.13,3,3,0,0,0-4.12-.55c-1.17,1-1.38,2.65-1.41,4.16a25.88,25.88,0,0,0,.31,3c.08.89-.25,2.88-1.56,2.57S35.3,8.9,35.32,7.84c0-1.76.47-3.7-.39-5.35a3.31,3.31,0,0,0-5.82-.1c-.74,1.3-.52,2.92-.28,4.4A8.16,8.16,0,0,1,29,10.4a1.79,1.79,0,0,1-.56,1,1.41,1.41,0,0,1-1.79-.27,3,3,0,0,1-.7-1.81c-.15-1.23,0-2.48-.12-3.71a5,5,0,0,0-1.36-3.35,3.32,3.32,0,0,0-4-.32C17.91,3.62,18.6,7.41,18.8,10a4.56,4.56,0,0,1-.05,1.38,1.59,1.59,0,0,1-.81,1.06,1.66,1.66,0,0,1-1.66-.37A4.2,4.2,0,0,1,15,9c-.06-1.14.1-2.3,0-3.44A7.08,7.08,0,0,0,14.66,4a2.86,2.86,0,0,0-1.46-1.8,2.34,2.34,0,0,0-2.55.84,5.31,5.31,0,0,0-1,2.68,10.42,10.42,0,0,0-.15,2.73,5.77,5.77,0,0,1,.14,2.23,2,2,0,0,1-1.05,1.43,1.84,1.84,0,0,1-2-.56,3.25,3.25,0,0,1-.68-2.14,15.68,15.68,0,0,1,.28-2.26c.25-1.6,0-3.53-1.44-4.53a3.17,3.17,0,0,0-2.82-.35,2.6,2.6,0,0,0-1,.64A3.31,3.31,0,0,0,.26,4.38,8.77,8.77,0,0,0,.05,7.44C.11,8,0,9.79.36,10.18c1.49,1.44,1.11-3.1,1.1-3.45a3.65,3.65,0,0,1,.37-1.88A1.66,1.66,0,0,1,3.41,4a1.65,1.65,0,0,1,1.16.87C5.93,7.18,3.48,10,5.1,12.37A3.41,3.41,0,0,0,11,11.51c.5-1.27.19-2.7.17-4.07a9.25,9.25,0,0,1,.13-1.75,2.41,2.41,0,0,1,.33-1,1.07,1.07,0,0,1,.87-.52h.08a1.11,1.11,0,0,1,.8.6,2.76,2.76,0,0,1,.25,1.08c.11,1.35,0,2.72.16,4.08a5.89,5.89,0,0,0,1.57,3.68,3,3,0,0,0,3.74.45c1.46-1.07,1.55-3.49,1.3-5.1a11.81,11.81,0,0,1,0-3.61,2,2,0,0,1,3.83-.53,4.36,4.36,0,0,1,.2,1.44c0,.74,0,1.49.07,2.23a5.76,5.76,0,0,0,.9,3.57,3.08,3.08,0,0,0,3.82.65c2.68-1.56,1.25-5.17,1.09-7.54a4.21,4.21,0,0,1,.11-1.62c.47-1.47,2.23-1.35,3.09-.26A2.79,2.79,0,0,1,34,5.49c-.08.92,0,1.9,0,2.83,0,1.58.19,4,1.82,4.76a2.74,2.74,0,0,0,3.59-1.39,6.65,6.65,0,0,0,.42-3.6,17.42,17.42,0,0,1-.23-3.67,1.8,1.8,0,0,1,1-1.63,1.36,1.36,0,0,1,1.41.51,3.35,3.35,0,0,1,.6,1.47c.46,2.18-.41,5.76,1.91,7.09a3.55,3.55,0,0,0,2.39.55c3.14-.68,2-5.85,2.48-8.07a2.92,2.92,0,0,1,.45-1.11,1.28,1.28,0,0,1,1-.56c.8,0,1.23,1,1.37,1.74.24,1.31.19,2.66.35,4A5.68,5.68,0,0,0,54.07,12a3.26,3.26,0,0,0,2.92.81C60.39,12,59.38,6,59.47,3.48a3.09,3.09,0,0,1,.19-1.13.92.92,0,0,1,1.74-.1,2.7,2.7,0,0,1,.25,1.06c.14,1.69-.08,3.35.15,5a6.05,6.05,0,0,0,1.88,3.94,3.14,3.14,0,0,0,4.07.06c1.41-1.42,1.13-4.26,1.22-6.08a5.45,5.45,0,0,1,.56-2.53,1.85,1.85,0,0,1,2.21-.9,2.34,2.34,0,0,1,1.11,1.64,22.71,22.71,0,0,1,.43,3.59,7.6,7.6,0,0,0,1,3.44,3.27,3.27,0,0,0,3,1.57,3.17,3.17,0,0,0,2.12-1.49c1.29-2,.7-4.64,1.14-6.9a2.47,2.47,0,0,1,1.08-1.85,1.79,1.79,0,0,1,1.95.42,3.48,3.48,0,0,1,.87,1.9c.23,1.22.13,2.49.24,3.73a5,5,0,0,0,1.4,3.37A2.58,2.58,0,0,0,89,12.7c1-.54,1.35-1.9,1.5-2.93s.1-2.36.23-3.53a4.28,4.28,0,0,1,.44-1.58,1.93,1.93,0,0,1,1.27-1,1.88,1.88,0,0,1,1.85,1,5.77,5.77,0,0,1,.4,2.83A23.83,23.83,0,0,0,95,10.84a2.94,2.94,0,0,0,2.12,2.39c1.26.44,2.36-.63,2.84-1.77a7.51,7.51,0,0,0,.4-3.27,15.34,15.34,0,0,1,0-3.32c.14-.81.59-1.71,1.4-1.82a1.54,1.54,0,0,1,1.22.48,3.54,3.54,0,0,1,.73,1.13c.57,1.21.38,2.79.41,4.05a7.9,7.9,0,0,0,.71,3.52,3.92,3.92,0,0,0,.76,1c1.84,1.69,4.1-.24,4.45-2.2.23-1.26,0-2.56.14-3.84a2.12,2.12,0,0,1,.49-1.37c1.11-1.13,1.66.68,1.74,1.49s.13,1.71.16,2.56a5.87,5.87,0,0,0,.58,3,2.73,2.73,0,0,0,4.08.63c1.19-1,1.27-2.82,1.26-4.4A7.18,7.18,0,0,1,119,5.73a2,2,0,0,1,2.29-1.34c1.82.37,1.36,4.15,1.62,5.47a5.49,5.49,0,0,0,.76,2.08,3.37,3.37,0,0,0,5.81-.43c.7-1.45.28-3.17.25-4.78a3.65,3.65,0,0,1,.37-1.88,1.5,1.5,0,0,1,2.74,0c1.36,2.35-1.09,5.15.53,7.54a3.41,3.41,0,0,0,5.86-.86c.5-1.27.19-2.7.17-4.07a9.25,9.25,0,0,1,.13-1.75,2.73,2.73,0,0,1,.33-1,1.07,1.07,0,0,1,.88-.52h.07a1.09,1.09,0,0,1,.8.6,2.6,2.6,0,0,1,.26,1.08c.11,1.35,0,2.72.15,4.08a5.89,5.89,0,0,0,1.57,3.68,3,3,0,0,0,3.74.45c1.46-1.07,1.56-3.49,1.31-5.1a11.5,11.5,0,0,1,0-3.61,2,2,0,0,1,3.83-.53,4.36,4.36,0,0,1,.2,1.44c0,.74.05,1.49.07,2.23a5.83,5.83,0,0,0,.9,3.57,3.08,3.08,0,0,0,3.82.65c2.68-1.56,1.25-5.17,1.09-7.54a4.21,4.21,0,0,1,.11-1.62c.48-1.47,2.23-1.35,3.09-.26a2.79,2.79,0,0,1,.46,2.2c-.08.92,0,1.9,0,2.83,0,1.58.19,4,1.82,4.76a2.74,2.74,0,0,0,3.59-1.39,6.65,6.65,0,0,0,.42-3.6,18.11,18.11,0,0,1-.23-3.67,1.8,1.8,0,0,1,1-1.63,1.35,1.35,0,0,1,1.41.51,3.35,3.35,0,0,1,.6,1.47c.47,2.18-.41,5.76,1.92,7.09a3.52,3.52,0,0,0,2.39.55c3.13-.68,2-5.85,2.47-8.07A2.92,2.92,0,0,1,178,3.23a1.31,1.31,0,0,1,1-.56c.8,0,1.23,1,1.38,1.74.24,1.31.18,2.66.34,4A5.74,5.74,0,0,0,182.32,12a3.27,3.27,0,0,0,2.92.81c3.4-.84,2.4-6.79,2.49-9.31a3.08,3.08,0,0,1,.18-1.13,1.05,1.05,0,0,1,.87-.67,1,1,0,0,1,.87.57,2.7,2.7,0,0,1,.25,1.06c.14,1.69-.07,3.35.15,5a6.05,6.05,0,0,0,1.88,3.94,3.14,3.14,0,0,0,4.07.06c1.41-1.42,1.13-4.26,1.23-6.08a5.32,5.32,0,0,1,.55-2.53,1.86,1.86,0,0,1,2.21-.9,2.32,2.32,0,0,1,1.11,1.64,22.71,22.71,0,0,1,.43,3.59,7.6,7.6,0,0,0,1,3.44,3.27,3.27,0,0,0,3.06,1.57,3.18,3.18,0,0,0,2.11-1.49c1.3-2,.7-4.64,1.14-6.9a2.45,2.45,0,0,1,1.09-1.85,1.77,1.77,0,0,1,1.94.42,3.56,3.56,0,0,1,.88,1.9c.22,1.22.12,2.49.23,3.73a5,5,0,0,0,1.4,3.37,2.59,2.59,0,0,0,2.82.44c1-.54,1.34-1.9,1.49-2.93s.1-2.36.24-3.53a4.1,4.1,0,0,1,.44-1.58,1.71,1.71,0,0,1,3.11,0,5.55,5.55,0,0,1,.4,2.83,22.46,22.46,0,0,0,.39,3.36,2.92,2.92,0,0,0,2.11,2.39c1.26.44,2.36-.63,2.84-1.77a7.51,7.51,0,0,0,.4-3.27,16.73,16.73,0,0,1,0-3.32c.14-.81.59-1.71,1.41-1.82a1.56,1.56,0,0,1,1.22.48A3.69,3.69,0,0,1,232,4.66c.74,1.57.33,2.8.43,4.43a7.38,7.38,0,0,0,.7,3.14,3.89,3.89,0,0,0,.75,1c1.82,1.67,4.11-.26,4.45-2.2.23-1.26,0-2.56.14-3.84a2.13,2.13,0,0,1,.5-1.37c1.1-1.13,1.66.68,1.73,1.49s.13,1.71.16,2.56a5.87,5.87,0,0,0,.58,3,2.78,2.78,0,0,0,1.9,1.25,2.74,2.74,0,0,0,2.18-.62c1.2-1,1.27-2.82,1.26-4.4a7.18,7.18,0,0,1,.44-3.38,2,2,0,0,1,2.29-1.34c1.82.37,1.36,4.15,1.62,5.47a5.49,5.49,0,0,0,.76,2.08,3.37,3.37,0,0,0,5.81-.43c.71-1.46.29-3.17.26-4.78a3.55,3.55,0,0,1,.36-1.88,1.5,1.5,0,0,1,2.74,0c1.36,2.35-1.09,5.15.53,7.54a3.41,3.41,0,0,0,5.86-.86c.5-1.27.2-2.7.17-4.07a9.25,9.25,0,0,1,.13-1.75,2.73,2.73,0,0,1,.33-1,1.09,1.09,0,0,1,.88-.52H269a1.09,1.09,0,0,1,.8.6,2.6,2.6,0,0,1,.26,1.08c.11,1.35,0,2.72.15,4.08a5.9,5.9,0,0,0,1.58,3.68,3,3,0,0,0,3.73.45C277,13,277.12,10.57,276.87,9a11.81,11.81,0,0,1,0-3.61,2,2,0,0,1,3.83-.53,4.37,4.37,0,0,1,.21,1.44L281,8.49a5.83,5.83,0,0,0,.9,3.57,3.08,3.08,0,0,0,3.82.65c2.68-1.56,1.25-5.17,1.09-7.54a4.41,4.41,0,0,1,.11-1.62c.48-1.47,2.23-1.35,3.09-.26a2.75,2.75,0,0,1,.46,2.2c-.08.92,0,1.9,0,2.83,0,1.58.19,4,1.83,4.76a2.73,2.73,0,0,0,3.58-1.39,6.56,6.56,0,0,0,.42-3.6A18.86,18.86,0,0,1,296,4.42a1.8,1.8,0,0,1,1-1.63,1.37,1.37,0,0,1,1.42.51A3.46,3.46,0,0,1,299,4.77c.47,2.18-.4,5.76,1.92,7.09a3.53,3.53,0,0,0,2.39.55c3.13-.68,2-5.85,2.47-8.07a2.79,2.79,0,0,1,.46-1.11,1.27,1.27,0,0,1,1-.56c.8,0,1.23,1,1.38,1.74.24,1.31.19,2.66.35,4A5.73,5.73,0,0,0,310.57,12a3.28,3.28,0,0,0,2.92.81c3.4-.84,2.4-6.79,2.49-9.31a3.08,3.08,0,0,1,.18-1.13,1.05,1.05,0,0,1,.87-.67,1,1,0,0,1,.87.57,2.54,2.54,0,0,1,.25,1.06c.14,1.69-.07,3.35.16,5a6,6,0,0,0,1.87,3.94,3.14,3.14,0,0,0,4.07.06c1.41-1.42,1.13-4.26,1.23-6.08A5.44,5.44,0,0,1,326,3.74a1.86,1.86,0,0,1,2.21-.9,2.29,2.29,0,0,1,1.11,1.64,24,24,0,0,1,.44,3.59,7.36,7.36,0,0,0,1,3.44,3.25,3.25,0,0,0,3.05,1.57A3.15,3.15,0,0,0,336,11.59c1.3-2,.7-4.64,1.14-6.9a2.45,2.45,0,0,1,1.09-1.85,1.77,1.77,0,0,1,1.94.42,3.56,3.56,0,0,1,.88,1.9c.22,1.22.13,2.49.23,3.73a5,5,0,0,0,1.4,3.37,2.59,2.59,0,0,0,2.82.44c1-.54,1.34-1.9,1.49-2.93s.1-2.36.24-3.53a4.1,4.1,0,0,1,.44-1.58,1.91,1.91,0,0,1,1.26-1,1.88,1.88,0,0,1,1.85,1,5.55,5.55,0,0,1,.4,2.83,25.43,25.43,0,0,0,.39,3.36,2.94,2.94,0,0,0,2.11,2.39c1.27.44,2.37-.63,2.84-1.77a7.67,7.67,0,0,0,.41-3.27,15.34,15.34,0,0,1,0-3.32c.13-.81.58-1.71,1.4-1.82a1.54,1.54,0,0,1,1.22.48,3.92,3.92,0,0,1,.73,1.13c.68,1.46.37,2.54.41,4.05a7.77,7.77,0,0,0,.71,3.52c1.46,2.74,4.71,1.65,5.21-1.16.22-1.26,0-2.56.13-3.84a2.13,2.13,0,0,1,.5-1.37c1.11-1.13,1.66.68,1.73,1.49s.14,1.71.16,2.56a5.87,5.87,0,0,0,.58,3,2.8,2.8,0,0,0,1.9,1.25,2.74,2.74,0,0,0,2.18-.62c1.2-1,1.28-2.82,1.26-4.4a7.06,7.06,0,0,1,.45-3.38,2,2,0,0,1,2.28-1.34c1.82.37,1.36,4.15,1.62,5.47a5.51,5.51,0,0,0,.77,2.08,3.36,3.36,0,0,0,5.8-.43c.71-1.46.29-3.17.26-4.78a3.75,3.75,0,0,1,.36-1.88,1.5,1.5,0,0,1,2.74,0c1.36,2.35-1.09,5.15.53,7.54a3.44,3.44,0,0,0,4.2,1,3.4,3.4,0,0,0,1.66-1.82c.5-1.27.2-2.7.17-4.07A10.16,10.16,0,0,1,396,5.69a2.57,2.57,0,0,1,.34-1,1.07,1.07,0,0,1,.87-.52h.08a1.11,1.11,0,0,1,.8.6,2.76,2.76,0,0,1,.25,1.08c.11,1.35,0,2.72.16,4.08a5.84,5.84,0,0,0,1.57,3.68,3,3,0,0,0,3.74.45c1.46-1.07,1.55-3.49,1.3-5.1a11.81,11.81,0,0,1,0-3.61A2,2,0,0,1,409,4.82a4.64,4.64,0,0,1,.2,1.44l.06,2.23a5.83,5.83,0,0,0,.9,3.57,3.09,3.09,0,0,0,3.83.65c2.67-1.56,1.24-5.17,1.08-7.54a4.42,4.42,0,0,1,.12-1.62c.47-1.47,2.23-1.35,3.08-.26a2.75,2.75,0,0,1,.46,2.2c-.08.92,0,1.9,0,2.83,0,1.58.2,4,1.83,4.76a2.73,2.73,0,0,0,3.58-1.39,6.47,6.47,0,0,0,.42-3.6,18.86,18.86,0,0,1-.23-3.67,1.82,1.82,0,0,1,1-1.63,1.37,1.37,0,0,1,1.42.51,3.46,3.46,0,0,1,.59,1.47c.47,2.18-.4,5.76,1.92,7.09a3.53,3.53,0,0,0,2.39.55c3.13-.68,2-5.85,2.48-8.07a2.77,2.77,0,0,1,.45-1.11,1.28,1.28,0,0,1,1-.56c.79,0,1.23,1,1.37,1.74.24,1.31.19,2.66.35,4A5.73,5.73,0,0,0,438.82,12a3.28,3.28,0,0,0,2.92.81c3.41-.84,2.4-6.79,2.49-9.31a3.09,3.09,0,0,1,.19-1.13,1,1,0,0,1,.87-.67,1,1,0,0,1,.86.57,2.71,2.71,0,0,1,.26,1.06c.14,1.69-.08,3.35.15,5a6.05,6.05,0,0,0,1.88,3.94,3.12,3.12,0,0,0,4.06.06c1.41-1.42,1.13-4.26,1.23-6.08a5.57,5.57,0,0,1,.55-2.53,1.87,1.87,0,0,1,2.22-.9,2.31,2.31,0,0,1,1.1,1.64A22.58,22.58,0,0,1,458,8.07a7.36,7.36,0,0,0,1,3.44,3.26,3.26,0,0,0,3.05,1.57,3.13,3.13,0,0,0,2.11-1.49c1.3-2,.7-4.64,1.14-6.9a2.48,2.48,0,0,1,1.09-1.85,1.77,1.77,0,0,1,1.94.42,3.49,3.49,0,0,1,.88,1.9c.23,1.22.13,2.49.24,3.73a5,5,0,0,0,1.39,3.37,2.59,2.59,0,0,0,2.82.44c1-.54,1.35-1.9,1.49-2.93s.11-2.36.24-3.53a4.1,4.1,0,0,1,.44-1.58,1.91,1.91,0,0,1,1.26-1,1.88,1.88,0,0,1,1.85,1,5.66,5.66,0,0,1,.41,2.83,23.83,23.83,0,0,0,.38,3.36,2.94,2.94,0,0,0,2.12,2.39c1.26.44,2.36-.63,2.84-1.77a7.51,7.51,0,0,0,.4-3.27,15.34,15.34,0,0,1,0-3.32c.14-.81.59-1.71,1.4-1.82a1.54,1.54,0,0,1,1.22.48,3.72,3.72,0,0,1,.73,1.13c.58,1.24.37,2.34.4,3.66a8.44,8.44,0,0,0,.72,3.91,3.72,3.72,0,0,0,.76,1,2,2,0,0,0,2.89-.29c1.11-1.23,1-3.31.75-4.83a1.55,1.55,0,0,0-.18-.6.59.59,0,0,0-.51-.31.63.63,0,0,0-.51.51,2.16,2.16,0,0,0,0,.76,6.68,6.68,0,0,1-.07,2.4,1.58,1.58,0,0,1-.68,1.1,1.2,1.2,0,0,1-1.46-.57,6.11,6.11,0,0,1-.35-3.23,12.22,12.22,0,0,0-.38-3.86A4,4,0,0,0,488.1,2a3,3,0,0,0-4,1.23,5.24,5.24,0,0,0-.47,2.18c-.08,1.57.21,3.12.09,4.67a1.7,1.7,0,0,1-1.15,1.68c-.63.17-1.28-.5-1.5-1.55a15.43,15.43,0,0,1-.2-1.92c-.15-2.29.22-5.48-2.69-6.18a3.44,3.44,0,0,0-3.72,1.65,6.69,6.69,0,0,0-.58,2.88c-.06,1.22.13,2.88-.35,4a1.35,1.35,0,0,1-.86.81,1.42,1.42,0,0,1-1.49-.8,4.55,4.55,0,0,1-.37-1.76c-.21-2.67,0-7.1-3.62-7.42a3.21,3.21,0,0,0-2.49.73,4.84,4.84,0,0,0-1.07,3.4l-.15,2.76a5.22,5.22,0,0,1-.41,2.11,1.77,1.77,0,0,1-1.74,1,1.72,1.72,0,0,1-1.2-1,5,5,0,0,1-.39-1.57l-.48-3.38a7.75,7.75,0,0,0-.74-2.77,3.21,3.21,0,0,0-3.82-1.49c-3.38,1-2.36,5.92-2.9,8.56a2.16,2.16,0,0,1-.86,1.52,1.5,1.5,0,0,1-1.49-.1,2.52,2.52,0,0,1-.94-1.21,7.91,7.91,0,0,1-.43-2.91L448.05,4a8.35,8.35,0,0,0-.23-2.06A2.81,2.81,0,0,0,446.63.26a2.75,2.75,0,0,0-3.45,1.13,6.46,6.46,0,0,0-.51,3.27,27.69,27.69,0,0,1,0,4c-.12.88-.53,1.89-1.4,2.09a2,2,0,0,1-2.05-1.27,10.32,10.32,0,0,1-.58-4.3c-.05-1.46-.38-3.08-1.59-3.9a2.76,2.76,0,0,0-2.13-.38,3.62,3.62,0,0,0-2.41,2.43,7.12,7.12,0,0,0-.29,2.82,11.73,11.73,0,0,1-.37,3.34,1.5,1.5,0,0,1-.63,1.06,1,1,0,0,1-1.08-.21,2.24,2.24,0,0,1-.57-1c-.64-2-.24-4.16-.84-6.14a3.9,3.9,0,0,0-.53-1.13A3,3,0,0,0,424,1.5c-1.16,1-1.37,2.65-1.4,4.16a28.18,28.18,0,0,0,.3,3c.08.89-.24,2.88-1.55,2.57s-1.33-2.37-1.31-3.43c0-1.76.46-3.7-.39-5.35a3.31,3.31,0,0,0-5.82-.1c-.75,1.3-.53,2.92-.28,4.4a8.16,8.16,0,0,1,.13,3.61,1.72,1.72,0,0,1-.55,1,1.4,1.4,0,0,1-1.79-.27,3.11,3.11,0,0,1-.71-1.81c-.14-1.23,0-2.48-.11-3.71a5,5,0,0,0-1.36-3.35,3.33,3.33,0,0,0-4-.32c-2.56,1.68-1.88,5.47-1.68,8.05a4,4,0,0,1-.05,1.38,1.54,1.54,0,0,1-.81,1.06,1.64,1.64,0,0,1-1.65-.37A4.21,4.21,0,0,1,399.77,9c0-1.14.11-2.3,0-3.44a6.52,6.52,0,0,0-.34-1.5A2.81,2.81,0,0,0,398,2.22a2.36,2.36,0,0,0-2.56.84,5.39,5.39,0,0,0-1,2.68,10.42,10.42,0,0,0-.15,2.73,6.18,6.18,0,0,1,.14,2.23,2,2,0,0,1-1.05,1.43,1.83,1.83,0,0,1-2.05-.56,3.25,3.25,0,0,1-.68-2.14,14.39,14.39,0,0,1,.28-2.26c.24-1.6,0-3.53-1.44-4.53a3.17,3.17,0,0,0-2.82-.35,2.6,2.6,0,0,0-1,.64A3.33,3.33,0,0,0,385,4.38a9.27,9.27,0,0,0-.21,3.06c.12,1.12.43,2.32-.08,3.32a2.25,2.25,0,0,1-1.88,1.2c-3,.12-2.14-5-2.51-6.76a3.09,3.09,0,0,0-4.14-2.42c-3.34,1-2.58,5-2.68,7.61a3.94,3.94,0,0,1-.2,1.28,1.3,1.3,0,0,1-.91.84,1.34,1.34,0,0,1-1.19-.5,4.18,4.18,0,0,1-.74-2.54c0-.74-.09-1.48-.14-2.22a4.27,4.27,0,0,0-.65-2.42,2.32,2.32,0,0,0-3.21-.29c-2.23,1.92,0,5-1.77,7-1.19,1.35-2.27-.07-2.54-1.35-.06-.28-.09-.56-.14-.84s0-.76,0-1.11a11.93,11.93,0,0,0-.37-3.86A4,4,0,0,0,359.85,2a3,3,0,0,0-4,1.23,5.09,5.09,0,0,0-.47,2.18c-.09,1.57.21,3.12.08,4.67a1.68,1.68,0,0,1-1.14,1.68c-.63.17-1.28-.5-1.5-1.55a13.73,13.73,0,0,1-.2-1.92c-.16-2.29.21-5.48-2.69-6.18a3.43,3.43,0,0,0-3.72,1.65,6.69,6.69,0,0,0-.58,2.88c-.07,1.22.12,2.88-.35,4a1.35,1.35,0,0,1-.86.81,1.42,1.42,0,0,1-1.49-.8,4.37,4.37,0,0,1-.37-1.76c-.21-2.67,0-7.1-3.62-7.42a3.21,3.21,0,0,0-2.49.73,4.9,4.9,0,0,0-1.08,3.4l-.14,2.76a5.22,5.22,0,0,1-.41,2.11,1.77,1.77,0,0,1-1.75,1,1.71,1.71,0,0,1-1.19-1,5,5,0,0,1-.39-1.57l-.48-3.38a8,8,0,0,0-.74-2.77,3.21,3.21,0,0,0-3.82-1.49c-3.38,1-2.36,5.92-2.9,8.56a2.14,2.14,0,0,1-.87,1.52,1.48,1.48,0,0,1-1.48-.1,2.52,2.52,0,0,1-.94-1.21,7.91,7.91,0,0,1-.43-2.91L319.79,4a7.53,7.53,0,0,0-.23-2.06A2.76,2.76,0,0,0,318.38.26a2.74,2.74,0,0,0-3.45,1.13,6.46,6.46,0,0,0-.51,3.27,29.23,29.23,0,0,1,0,4c-.12.88-.53,1.89-1.4,2.09a2,2,0,0,1-2.06-1.27,10.49,10.49,0,0,1-.57-4.3c-.05-1.46-.39-3.08-1.6-3.9a2.73,2.73,0,0,0-2.12-.38,3.66,3.66,0,0,0-2.42,2.43,7.11,7.11,0,0,0-.28,2.82,11.73,11.73,0,0,1-.37,3.34,1.5,1.5,0,0,1-.63,1.06,1,1,0,0,1-1.08-.21,2.24,2.24,0,0,1-.57-1c-.64-2-.24-4.16-.85-6.14a3.87,3.87,0,0,0-.52-1.13,3,3,0,0,0-4.12-.55c-1.17,1-1.38,2.65-1.4,4.16a28.18,28.18,0,0,0,.3,3c.08.89-.24,2.88-1.56,2.57s-1.32-2.37-1.3-3.43c0-1.76.46-3.7-.39-5.35a3.32,3.32,0,0,0-5.83-.1c-.74,1.3-.52,2.92-.28,4.4a8.16,8.16,0,0,1,.14,3.61,1.77,1.77,0,0,1-.55,1,1.4,1.4,0,0,1-1.79-.27,3.11,3.11,0,0,1-.71-1.81c-.14-1.23,0-2.48-.11-3.71A5,5,0,0,0,281,2.26a3.33,3.33,0,0,0-4-.32c-2.56,1.68-1.88,5.47-1.68,8.05a4.26,4.26,0,0,1-.05,1.38,1.56,1.56,0,0,1-.81,1.06,1.66,1.66,0,0,1-1.66-.37A4.24,4.24,0,0,1,271.52,9c0-1.14.11-2.3,0-3.44a6.52,6.52,0,0,0-.34-1.5,2.8,2.8,0,0,0-1.46-1.8,2.34,2.34,0,0,0-2.55.84,5.5,5.5,0,0,0-1,2.68A10.42,10.42,0,0,0,266,8.47a6,6,0,0,1,.15,2.23,2,2,0,0,1-1.05,1.43,1.85,1.85,0,0,1-2.06-.56,3.29,3.29,0,0,1-.67-2.14,14.39,14.39,0,0,1,.28-2.26c.24-1.6,0-3.53-1.44-4.53a3.17,3.17,0,0,0-2.82-.35,2.53,2.53,0,0,0-1,.64,3.33,3.33,0,0,0-.67,1.45,9.27,9.27,0,0,0-.21,3.06c.12,1.12.43,2.32-.09,3.32a2.23,2.23,0,0,1-1.88,1.2c-3,.12-2.13-5-2.5-6.76a3.09,3.09,0,0,0-4.14-2.42c-3.34,1-2.58,5-2.68,7.61a3.94,3.94,0,0,1-.2,1.28,1.32,1.32,0,0,1-.91.84A1.34,1.34,0,0,1,243,12a4.11,4.11,0,0,1-.74-2.54c-.05-.74-.09-1.48-.14-2.22a4.27,4.27,0,0,0-.65-2.42,2.32,2.32,0,0,0-3.21-.29A3.73,3.73,0,0,0,237,7c-.06,1-.22,1.83-.36,2.81-.1.71.06,2.23-.9,2.44s-1.71-1.35-1.87-2.12c-.06-.28-.1-.56-.14-.84s0-.76,0-1.11a11.67,11.67,0,0,0-.38-3.86A3.91,3.91,0,0,0,231.6,2a3,3,0,0,0-3.95,1.23,5.25,5.25,0,0,0-.48,2.18c-.08,1.57.22,3.12.09,4.67a1.68,1.68,0,0,1-1.14,1.68c-.64.17-1.29-.5-1.5-1.55a13.73,13.73,0,0,1-.2-1.92c-.16-2.29.21-5.48-2.69-6.18A3.43,3.43,0,0,0,218,3.71a6.69,6.69,0,0,0-.58,2.88c-.07,1.22.12,2.88-.36,4a1.31,1.31,0,0,1-.86.81,1.42,1.42,0,0,1-1.48-.8,4.38,4.38,0,0,1-.38-1.76c-.21-2.67,0-7.1-3.61-7.42a3.25,3.25,0,0,0-2.5.73,4.94,4.94,0,0,0-1.07,3.4L207,8.34a5.23,5.23,0,0,1-.42,2.11,1.77,1.77,0,0,1-1.74,1,1.74,1.74,0,0,1-1.2-1,5.56,5.56,0,0,1-.39-1.57c-.16-1.12-.31-2.25-.47-3.38a8.18,8.18,0,0,0-.74-2.77,3.22,3.22,0,0,0-3.82-1.49c-3.38,1-2.37,5.92-2.9,8.56a2.14,2.14,0,0,1-.87,1.52,1.48,1.48,0,0,1-1.48-.1A2.46,2.46,0,0,1,192.06,10Z"/></svg>